<svg xmlns="http://www.w3.org/2000/svg" viewBox="0 0 10 10"><defs><style>.a{fill:#fff;}</style></defs><title>アートボード 1</title><path class="a" d="M9.86182,8.50738,5.90445.63443,5.89331.61693A1.008,1.008,0,0,0,5.82044.5025C5.80737.4842,5.7955.46507,5.78137.44782A1.011,1.011,0,0,0,5.696.35946C5.67678.34117,5.65864.32191,5.63819.30525a1.04363,1.04363,0,0,0-.089-.06174C5.52241.226,5.49615.20819,5.46789.1933c-.00952-.005-.01729-.012-.02706-.01674C5.419.16592,5.39613.16083,5.374.15183,5.34315.13934,5.3128.12689,5.28091.11739A1.01593,1.01593,0,0,0,5.17939.094C5.148.08791,5.11693.08223,5.085.07907,5.05127.07579,5.018.07529,4.98437.07533S4.91748.07579,4.8838.07907c-.03194.00316-.063.00884-.09439.01489a1.01814,1.01814,0,0,0-.10165.02343C4.656.12685,4.62564.13926,4.595.15175c-.02224.009-.04517.01413-.067.02481-.00977.00475-.01754.01173-.02706.01674C4.47264.20819,4.44647.226,4.4197.24343a1.02852,1.02852,0,0,0-.08922.06195C4.31016.322,4.2921.341,4.27306.35917a1.009,1.009,0,0,0-.08568.08865c-.01413.01725-.026.03638-.03907.05468a1.008,1.008,0,0,0-.07287.11443L4.0643.63443.10693,8.50738A1.00518,1.00518,0,0,0,.57166,9.86344a1.03457,1.03457,0,0,0,1.37653-.45787l1.575-3.13335c.64656-.96695,1.54345-2.05646,2.705-.43242L8.02056,9.40557a1.03457,1.03457,0,0,0,1.37653.45787A1.00518,1.00518,0,0,0,9.86182,8.50738Z"/></svg>