<svg xmlns="http://www.w3.org/2000/svg" viewBox="0 0 64.83 16.03" width="64.83px" height="16.03px"><defs><style>.cls-1{fill:#231815;}</style></defs><title>アセット 2</title><g id="レイヤー_2" data-name="レイヤー 2"><g id="レイヤー_1-2" data-name="レイヤー 1"><path class="cls-1" d="M64.68,6.63h0a.9.9,0,0,1-.08.21.75.75,0,0,1-.41.48c-.42.16-.44.11-.85.27s-.47,0-.88.19-.39.23-.8.39-.42.14-.84.3L60,8.79c-.42.16-.35.32-.77.48s-.45.06-.87.23l-.83.32c-.41.16-.41.18-.82.34s-.4.19-.82.35l0,.08A1.08,1.08,0,0,1,54.63,10l.06,0a1,1,0,0,1,.52-1.23l.06.16c.43-.17.39-.27.83-.43s.39-.27.82-.44l.86-.33.87-.32c.43-.17.46-.09.89-.26s.41-.21.84-.38l.13,0a2.2,2.2,0,0,0-.5-.17c-.31,0-.62-.06-.93-.11s-.61-.12-.92-.16-.62-.06-.93-.1S56.65,6,56.34,6s-.64.15-1,.12-.59-.32-.9-.35-.64.21-1,.18-.61-.15-.92-.17l-.93,0c-.31,0-.62,0-.93,0s-.62,0-.93,0-.62-.16-.93-.17-.62,0-.93,0l-.93,0c-.31,0-.62-.16-.93-.16s-.62.21-.93.22-.62,0-.93,0-.62-.06-.93-.05l-.93,0-.93,0c-.31,0-.62.13-.93.14s-.62.11-.92.13-.63-.15-.94-.12-.62.09-.93.12-.61.14-.92.17l-.93.09-.92.12c-.31,0-.61.1-.92.14s-.62,0-.93.08l-.92.13-.92.15c-.31,0-.63,0-.93.07s-.6.17-.91.22-.62.06-.93.11-.59.23-.89.29-.64,0-.94,0-.64,0-.94.07-.59.23-.89.29S24.2,8,23.9,8s-.58.26-.88.33h0c-.3.07-.65,0-.95,0s-.59.22-.88.3l-.9.23-.9.24c-.3.08-.57.28-.86.36l-.89.27c-.3.09-.65,0-.94.08s-.59.21-.88.3l-.89.27c-.3.09-.61.14-.9.24l-.88.3c-.3.1-.55.32-.84.42s-.61.15-.9.25-.55.3-.84.4-.57.25-.85.36-.63.09-.92.19-.54.32-.82.43-.64.08-.92.2-.54.34-.82.45-.64.09-.92.21-.55.32-.82.44-.56.31-.82.43-.54.35-.8.47-.68.09-.93.21-.57.38-.78.5l0-.05A.79.79,0,0,1,0,15.67l.12-.07a.79.79,0,0,1,.21-1.14l0-.06c.23-.13.58-.15.91-.31s.45-.44.76-.59.63-.09.94-.23.58-.21.88-.34.53-.32.83-.45.55-.28.85-.41.6-.17.9-.29.51-.4.81-.52.62-.13.92-.24.55-.32.85-.43.65,0,1-.15.58-.24.88-.35.55-.32.86-.42.66,0,1-.11.55-.32.86-.42.57-.29.87-.39.63-.08.94-.17.58-.24.89-.33.62-.13.92-.22.62-.11.93-.19.59-.21.9-.29.6-.2.9-.28L20.76,7c.3-.08.64,0,.95-.12s.61-.17.91-.25v0c.3-.07.59-.2.89-.27s.62,0,.93-.09.57-.28.88-.34l.91-.18c.3-.06.64.06.95,0s.6-.17.9-.23.59-.19.9-.24.64.07.94,0S30.5,5,30.8,5s.6-.18.91-.22.64.09.95.05.62,0,.93,0,.59-.26.9-.3.62,0,.93-.06.62,0,.93,0,.61-.14.92-.17.62.06.93,0,.61-.17.92-.2.61-.12.92-.14.62,0,.93,0l.93,0c.31,0,.62.1.93.09s.61-.12.92-.13.62-.12.93-.12.62.1.93.1.62.11.93.12.62-.2.93-.19.62.08.93.08l.93,0,.93,0c.31,0,.61.13.92.14s.62,0,.93,0S52.72,4,53,4s.61.17.92.19.62,0,.93,0,.63-.05.94,0,.6.21.91.25l.92.12c.31,0,.62.05.92.1s.6.17.91.22.61.07.92.12a2.11,2.11,0,0,0,.34,0l0,0c-.37-.29-.45-.18-.82-.47s-.25-.43-.62-.72-.36-.3-.72-.59-.41-.23-.77-.52-.44-.19-.81-.48l-.74-.57.15-.19A.82.82,0,0,1,56.1.34l0,0A1,1,0,0,1,57.4.19c.35.28.25.4.6.68s.39.23.75.5.41.21.76.49.31.34.66.61.29.36.64.64l.7.56c.35.28.43.18.78.46s.42.19.77.47.22.44.58.72a2.46,2.46,0,0,0,.29.2l.14,0,0,0a2.4,2.4,0,0,1,.35.24s0,0,0,0l0,0,.07.07.07-.06h0a1,1,0,0,1,.27.71l-.14,0Z"/></g></g></svg>
