<svg xmlns="http://www.w3.org/2000/svg" viewBox="0 0 300 300"><defs><style>.a{fill:none;}.b,.c{fill-rule:evenodd;}.c{fill:#fff;}</style></defs><title>gl_nav05</title><rect class="a" x="-12.32628" y="-23" width="328.35467" height="328.3535"/><path class="b" d="M252.33965,101.4222c-3.28347-.42268-6.2667,1.27888-9.17479,3.21869-1.55185,1.03364-2.54739,4.64774-2.31193,7.28729.21624,2.40571,1.84544,5.11073,3.47477,5.745.42315.165.86237.23616,1.2776.42839,1.239.57228,1.71006,1.45411,1.80792,3.48374.13993,2.924.02051,5.92429.413,8.76411.5541,4.01057.34929,8.03816.5188,11.79895a31.33763,31.33763,0,0,1,4.90138,1.846c1.76924,1.00008,1.7442,1.67651,1.54392,4.60673-.23091,3.37912-.31514,6.81-.21949,10.2033.07281,2.60039-.61562,3.93263-2.09232,5.00669a22.08415,22.08415,0,0,1-13.23208,4.14817c-2.00808.02563-3.34044-1.822-4.45085-4.09528a1.441,1.441,0,0,1,.413-2.02171c.26855,2.80731,1.6828,5.10048,3.6966,5.287a16.94457,16.94457,0,0,0,13.8167-4.63633,3.75348,3.75348,0,0,0,1.197-2.95981c.06478-4.06114.24-8.11949.29919-12.18074a3.30816,3.30816,0,0,0-.58369-1.88575,4.97928,4.97928,0,0,0-4.25279-1.73849c-.85224.0438-1.51783.756-1.74991,2.16746a5.633,5.633,0,0,1-.84536,2.31927,5.28758,5.28758,0,0,1-.133-1.33177,36.45126,36.45126,0,0,0,.8442-4.62328c.1024-2.91426.01025-5.85707-.12292-8.77482-.17522-3.86949-.46532-7.727-.71336-11.588-.1172-1.82319-.46311-2.7141-1.47565-2.73053-1.86933-.03134-3.39613-1.58774-5.10852-2.29714-3.00129-1.24474-5.91963-2.96552-8.93246-4.12894a5.21219,5.21219,0,0,0-4.02642.01713c-3.8,1.81014-7.50806,4.064-11.26943,6.07213-1.09445.58428-1.702,1.54113-2.0047,3.30351-.43119,2.52513-1.08875,4.96219-1.62805,7.33668.29464.38575.37992.59453.48117.61328,1.6122.30035,2.72156,1.50863,3.35185,3.85807.42094,1.57073,1.066,2.99966,1.54393,4.53905a17.73037,17.73037,0,0,0,3.95372,7.06708,4.29485,4.29485,0,0,1,1.10132,3.845c-.4426,3.03892-1.007,6.03858-1.54742,9.04395-.12967.72594-.41406,1.38979-.53359,2.11736a3.023,3.023,0,0,0,1.057,3.17885,8.69187,8.69187,0,0,0,6.575,1.52913,2.94647,2.94647,0,0,0,1.60882-1.26572,25.00285,25.00285,0,0,1,7.85839-6.98809,11.8733,11.8733,0,0,0,4.097-3.80681,25.09893,25.09893,0,0,1,3.86494-4.25978,6.65721,6.65721,0,0,1-1.95927,3.80354,43.133,43.133,0,0,1-5.23924,4.30918,25.87984,25.87984,0,0,0-7.94379,7.30721c-1.64971,2.48424-3.5555,1.91476-5.427,1.5621a13.48245,13.48245,0,0,1-3.75567-1.63725c-.82835-.45344-1.44384-.31911-1.96835.75892-.59394,1.22074-1.3334,1.92676-2.39605,1.68385-1.0115-.22987-1.80338.49316-2.48144,1.55522-.70765,1.11112-1.44036,2.027-2.57127,1.98595-.826-.029-1.21294.809-1.12754,2.08207.03752.5661.06827,1.13324.11488,1.697.35044,4.14479-1.10587,6.86577-3.81939,6.79971a23.9827,23.9827,0,0,1-5.57385-.74971c-3.1037-.82206-6.13924-1.25837-9.23618.23033-2.96611,1.42556-6.02775,2.38871-9.01214,3.73178a20.88376,20.88376,0,0,1-10.19188,1.41822,9.76547,9.76547,0,0,1-3.96048-1.49954,16.90246,16.90246,0,0,0-6.28266-2.53259,15.42365,15.42365,0,0,1-4.69551-1.7823c-1.89775-.92155-3.73865-2.11282-5.63186-3.05488-1.30381-.64963-1.7054-1.99725-1.65647-3.90246.02726-1.12346.00454-2.24925.00454-3.46265-2.494-.94264-4.90487-1.29367-7.35217.08353a15.52277,15.52277,0,0,1-3.02984.98424c.12746,1.85907-.86924,2.76467-2.015,3.61224a16.25432,16.25432,0,0,1-5.78087,3.07935,6.6815,6.6815,0,0,1-4.57935-.904c-1.52913-.76789-3.11069-1.29356-4.6637-1.95123-2.75792-1.16843-5.51117-2.35911-8.26686-3.536-.826-.35336-1.08875-1.20315-.859-2.391.27763-1.43755.60874-2.85286.94439-4.411-.63833-.5859-1.31418-.087-1.88074.25713a25.88868,25.88868,0,0,1-8.89948,3.11174,1.58561,1.58561,0,0,0-1.51434,1.3186,1.70375,1.70375,0,0,1-.83732,1.01325,10.96947,10.96947,0,0,1-3.62937,1.231,23.8745,23.8745,0,0,1-9.10884-1.11274c-1.05473-.38971-1.55418-1.36125-1.68723-3.39391-.35162.72419-.47.93984-.5689,1.1753-1.643,3.948-2.3449,4.27283-5.22118,2.52129a15.0719,15.0719,0,0,0-2.99337-1.59286,5.82889,5.82889,0,0,0-2.67367-.13421c-1.51783.22975-3.0253.09215-4.54988.93693-2.6851,1.48638-5.06868-.04788-6.94709-3.05372-.8908-1.42451-1.6383-1.58435-2.77271-.9466a25.41919,25.41919,0,0,1-4.14362,1.72987,4.30588,4.30588,0,0,1-1.61.03076c-.49375-.02389-.98528-.12175-1.47787-.14622a43.43226,43.43226,0,0,0-4.659-.17126,11.41737,11.41737,0,0,0-2.70677.813c-.59732.19282-1.21165.66222-1.78625.56261-2.602-.44773-5.22561-.9148-7.44539-3.3324a1.53878,1.53878,0,0,0-2.29713-.15134c-1.55068,1.13429-3.00595.76567-4.49524-.28672-1.6941-1.198-3.42234-2.28117-5.13694-3.41151-1.93748-1.27771-3.0571-3.51286-3.32786-6.68891-.23324-2.72319-.43118-5.45373-.63146-8.18321-.15134-2.069-.207-4.16133-.44714-6.20414a5.59445,5.59445,0,0,1,1.06951-4.50607c.48921-.58648.9409-1.244,1.43127-1.82831,1.36637-1.62583,2.858-2.64351,4.66021-2.32836,1.36078.23662,2.73053.38225,4.09935.51192.7122.06711,1.4301.01142,2.14463.01142.04322-.19573.08528-.39134.1285-.58649-.37771-.54221-.77475-1.05751-1.13091-1.63328-1.01593-1.64692-2.05935-3.26413-3.00817-4.99749-.7532-1.37616-1.34819-2.94735-2.0809-4.35194a3.38126,3.38126,0,0,1-.38341-2.59865c.091-.35091.13188-.73829.24116-1.07453,1.619-4.95321,2.04793-10.45366,3.139-15.64513.60991-2.89213,1.67931-5.08126,3.989-5.53341,1.50863-.29639,2.95131-1.44327,4.40763-2.275,2.355-1.34424,4.77054-2.56848,7.28157-1.69177a28.32494,28.32494,0,0,1,5.21536,2.95189c.6508.40334,1.23216,1.15025,1.71228-.23895.46427.95848.8852,1.82552,1.34144,2.76408-.30606.15251-.63938.31864-1.0877.54338.49038,1.58028.95919,3.09287,1.43127,4.61407,3.68634-.29184,6.03008-3.11115,7.28274-8.18379.10358-.4221.34707-.76171.46078-1.17985a4.70228,4.70228,0,0,0,.3459-1.80792c-.93868-4.51563-2.10711-8.987-5.52945-10.193a40.14764,40.14764,0,0,0-9.201-2.14242c-1.4654-.15017-3.03088.88008-4.4759,1.68735-1.1661.65079-1.73616,2.32381-2.15371,4.07989-1.1343,4.782-1.14688,4.7752-2.75558,7.15249,0-.60874-.09787-1.169.01479-1.29647,1.07966-1.20944,1.43244-3.05372,1.89543-4.80467a19.73229,19.73229,0,0,1,.85783-3.134,7.53367,7.53367,0,0,1,1.93538-2.90634,8.47949,8.47949,0,0,1,7.66837-1.322c.24233.08191.49037.145.73049.244,2.49845,1.04168,4.77963,1.16506,6.05163-3.19643a7.727,7.727,0,0,1,.5859-1.10249c1.1788-2.49741,2.58164-3.758,4.567-1.98991.15122.13421.36058.11091.60746.17918A31.28621,31.28621,0,0,1,70.67576,62.848c1.09223-1.37267,2.39383-1.88867,3.85923-1.322,2.15372.831,4.33027,1.51655,6.65128,2.31811a11.147,11.147,0,0,1,.5188-1.35391c.69286-1.35682,1.44606-2.38591,2.70665-2.66284,2.77154-.60933,5.51128-1.54451,8.2601-2.34386a7.24815,7.24815,0,0,1-1.65775,1.14921c-2.12307.67806-4.26875,1.19232-6.39637,1.83741-1.98653.60244-2.74882,2.14812-2.73286,5.33314.58252.77884,1.16155,1.5508,1.74641,2.33068-.58019.46078-1.06043.84141-1.57352,1.24813.04206.88742.02843,1.6475.12291,2.37449.47325,3.6755.71,4.07593,3.21869,4.73593a31.70344,31.70344,0,0,0,4.799.909c4.02083.41021,4.0743.46194,7.15412-3.21974,2.27325-2.71818,2.9809-2.24878,2.66692-7.82041a16.8186,16.8186,0,0,0-1.39037-6.1961c-1.2628-2.8228-2.858-4.1124-5.10049-2.76024a2.39212,2.39212,0,0,1-.91584.15763c2.43822-2.20043,3.78525-2.05364,5.59877.84082.88859,1.4188,1.63387,3.04463,2.48145,4.64658.809-1.12416,1.60649-2.25391,2.42-3.35757,1.20711-1.63771,2.62253-2.60086,4.24266-2.55985,1.98757.0494,3.97294.29464,5.96064.41185,1.33118.08015,1.84765,1.7146,2.70327,3.30455.59044-.4539,1.21969-.89884,1.82272-1.41309a14.95574,14.95574,0,0,0,1.07511-1.13313c2.44731-2.61578,3.45426-2.556,5.79229.3452.32307.40113.64509.80727,1.08082,1.35286.371-.96885.70427-1.74932.97853-2.573.60757-1.83065,1.56548-2.87,2.88758-3.229,2.26859-.61782,4.5282-1.313,6.798-1.91534,1.52237-.40334,1.85-.10416,2.33465,2.15651.34019,1.5974.58485,3.24374.925,5.16537,3.20844-5.5891,7.05066-4.68176,11.16807-3.57531-.12175.12338.03309.05453.07177-.087.81682-3.00082,2.23445-3.67842,4.22215-2.81535,1.347.58591,2.88187.14622,4.07535,1.93865.67922-1.5035,1.33573-2.86311,1.92618-4.28646a2.44294,2.44294,0,0,1,1.998-1.78229,48.81977,48.81977,0,0,0,12.74042-2.73683,1.87458,1.87458,0,0,1,1.88762.63484,41.2679,41.2679,0,0,1,2.98312,4.24894c.47557.727.87262,1.57294,1.38466,2.511.68831-1.53764,1.59624-1.81643,2.6498-1.6475,1.60416.25654,3.0628-.6388,4.5225-1.48591,1.63037-.946,3.26424-1.87841,4.90941-2.75441,2.70781-1.44094,4.47019-.81065,6.16545,3.06618,1.77263,4.05159,3.94569,7.549,5.84006,11.40761.5506,1.12008,1.25721,2.0633,2.057,3.3529a6.03614,6.03614,0,0,1,3.40533-4.729c2.07857-1.25324,4.1209-2.65841,6.17675-3.99869,3.51-2.28909,7.004-2.16793,10.47639.18035a6.52827,6.52827,0,0,1,2.50754,4.01233c.72815,2.90913,1.44722,5.82351,2.27208,9.13948.64859-.70031,1.25045-1.2663,1.78859-1.949,1.93876-2.4649,2.06505-2.491,4.21539-.40788.15355.14854.32086.26342.62913.51379a7.02754,7.02754,0,0,1,5.80021-3.57485c1.528-.20423,2.998-1.35728,4.52937-1.64121a4.06739,4.06739,0,0,1,3.41664.6042c2.36657,2.08486,4.9856,2.90913,7.50118,4.25a19.40574,19.40574,0,0,1,2.61683,1.50863c2.77387,2.07356,3.62144,5.91578,2.2948,10.22042-.46754,1.51666-.975,3.003-1.42672,4.38654.16835.2993.20143.4165.24687.42955,2.4268.75484,2.49286.73724,2.91158,4.59473.32307,2.98032.447,6.00911.67806,9.01389.18653,2.44323.39589,4.88146.60525,7.32072.11266,1.31477.28,2.61974.35837,3.93776a7.19594,7.19594,0,0,1-1.04785,4.92934,3.74843,3.74843,0,0,0-.5654,3.05535,42.16784,42.16784,0,0,1-1.09457,16.44051c-.70765,2.82048-2.06156,4.6573-4.00708,5.48565-2.02975.8647-4.04925,1.7908-6.06875,2.72028-1.47915.68156-1.70552.68727-3.2244-.38854,2.39954.68889,4.3439-1.32944,6.45788-2.33919a9.9163,9.9163,0,0,1,1.792-.79131c2.4063-.58707,3.86028-2.80731,4.69889-6.13924a40.04327,40.04327,0,0,0,.63029-15.95c-1.31523-.681-2.67263-1.03876-3.95943-3.08214,1.35391.65184,2.29946,1.10691,3.55772,1.71286-.59954-3.80413-1.35274-6.85494-3.41092-8.54112-2.70211-2.21406-5.57268-3.77162-8.67987-4.03725a10.34143,10.34143,0,0,0-1.64517.11312c-.1581-.42151-.30944-.82532-.46078-1.22924a4.0446,4.0446,0,0,1,1.45864-.22754,23.25611,23.25611,0,0,1,8.94376,3.83477,9.25735,9.25735,0,0,1,3.6522,5.77738c.23092,1.02909.59383,1.98886.89768,2.9809,1.13208-.71954,1.31639-2.0195,1.404-3.34894a15.01824,15.01824,0,0,0-.08307-1.97849c-.30839-4.60615-.5894-9.21685-.94893-13.81507-.16719-2.15547-.41406-4.31209-.7588-6.41863-.42559-2.58093-2.02638-3.31538-3.42921-1.69293-.22533.26167-.42548.578-.53814.73386-.58707-.52345-1.01267-1.2134-1.46436-1.25674-2.72482-.26109-5.45652-.35779-8.18484-.54326-1.88866-.12792-3.4941,1.24416-5.12669,2.32789a4.66364,4.66364,0,0,0-1.42335,2.47c-.45623,1.74361-1.495,3.66129.02843,5.43846-.37549,1.60649.49829,2.15768,1.09224,2.90459.49946.62633,1.05122,1.1548,1.7089,1.86711.3925-.04893.94881-.128,1.50641-.18547C251.64108,100.16954,252.13716,100.42667,252.33965,101.4222ZM150.90509,70.822a25.79885,25.79885,0,0,1-.75321-11.09479,4.6393,4.6393,0,0,0,.03635-.5654c.02843-1.5974-.27868-2.48948-1.30265-2.51674a23.319,23.319,0,0,0-5.93116.46648c-1.5882.36863-2.67589,2.5679-3.00245,4.56806-.43119,2.64863-.10579,5.58409-.10579,8.30728,3.122,1.95857,6.24619,2.63046,9.47735.82544.487-.2725,1.09-.06314,1.63841-.07573-.12408.30443-.223.83966-.3755.87776-2.76583.68947-5.4543,2.6174-8.36926.53825-1.09562-.78059-2.44615-1.27888-3.77838-.25888-2.7705,2.12075-5.649,3.3006-8.81875,2.35-1.43243-.42955-2.817-.74132-3.84211-2.49962-.43922-.752-.94206-1.07639-1.65088-.92272-2.321.50458-4.65112.904-7.22472,1.39026a11.65209,11.65209,0,0,1-.73946,1.73057,10.35581,10.35581,0,0,1-1.272,1.49674,4.06991,4.06991,0,0,1,.18769-.77663c2.395-4.911,2.3654-9.57975-.20936-14.19557a3.93965,3.93965,0,0,0-1.95694-1.94447,13.306,13.306,0,0,0-7.05171-.12222c-2.19251.66385-3.62028,2.78914-4.377,5.51116a18.2166,18.2166,0,0,0-.223,6.8589c.28217,2.0195,1.28342,3.80576,1.95693,5.65807,1.55989,0,2.97869-.01479,4.39854.00338,2.2948.02785,4.61477.41022,6.79354-1.173.13759-.1002.355.05406.5358.08982a2.00365,2.00365,0,0,1-1.99328,1.66568c-.99216.0558-1.98875-.06653-2.98207-.04206-2.35061.0586-4.70005.15693-7.1462.24291-.63821-1.76633-1.31289-3.63228-2.07064-5.73031-1.73057,2.06215-3.213,3.923-4.76495,5.63408-.62459.68785-1.39259,1.4541-2.11166,1.49395a22.49571,22.49571,0,0,1-10.18162-1.689,2.07809,2.07809,0,0,0-2.72948.76742c-1.21737,1.47729-2.45978,2.90692-3.63846,4.45306a6.00616,6.00616,0,0,0-.73841,1.86024c-.88288,3.11628-1.73733,6.2519-2.602,9.3796a2.78971,2.78971,0,0,1-2.35748,2.30622c-1.6383.35208-3.0571-.68668-4.56235-1.20256-2.2447-.77034-2.62929-.79643-3.65442,2.23958a9.7116,9.7116,0,0,1-4.782,5.8531c-.11721.06606-.24117.099-.35721.16672-1.42451.84024-1.49394.99833-1.2367,3.36094.13188,1.21224.32074,2.41026.4835,3.61458a9.37568,9.37568,0,0,1-.8089,6.12735,22.08546,22.08546,0,0,0-1.56781,3.853,19.3889,19.3889,0,0,0-.4779,2.65329c1.35845.43,2.49729.82882,3.64533,1.14618,1.52226.421,1.256,3.10719,2.23911,4.15049,3.11057-1.7908,3.39951-2.03592,5.07543-1.004,3.048,1.87737,6.06993,1.52692,9.18283.54163a10.485,10.485,0,0,1,4.81493-.55642c2.95131.50062,5.86848,1.48532,6.71943,6.87369,2.80114-.607,5.53633-.59779,8.16224,1.4541.54385-2.31018,1.04214-4.42359,1.53146-6.49936a9.36518,9.36518,0,0,1,6.40779.47383c2.13321.888,4.22669,1.6327,5.91509-1.72428.73841-1.47053,1.8762-2.00983,3.20505-1.44269,1.2515.53535,2.5736.67935,3.84328,1.1315a3.03013,3.03013,0,0,1,1.16959,1.11845c2.147,3.00595,4.09365,6.40092,6.70814,8.524,1.4689,1.19185,1.97057,2.85915,1.883,5.31613-.108,3.0776-.0261,6.17117-.0261,9.25727,1.10016-2.58723.74633-6.09718,2.41772-8.09163a28.853,28.853,0,0,0,2.91484-.02109c1.024-.10637,1.635.5075,1.99445,1.9609.40171,1.62129.89208,3.192,1.44618,5.15291.7327-1.92851,1.34249-3.45939,1.90113-5.03116.31853-.8908.70428-1.43185,1.40739-1.61791,1.47227-.39076,2.91263-1.07173,4.38828-1.41472,3.65221-.84816,7.08934-.38284,9.78236,4.13966.74179,1.24754,1.68152,1.52971,2.734.97678a12.796,12.796,0,0,1,3.19364-1.54218A2.91965,2.91965,0,0,0,159.049,144.289a15.64518,15.64518,0,0,1,3.11174-3.49049,13.29675,13.29675,0,0,1,4.527-1.65205c3.76149-.809,7.54325-1.39608,11.30579-2.18447a2.538,2.538,0,0,1,3.221,1.31977c.16614.29348.53814.31631.92389.52159.51192-1.77367,1.0228-3.391,1.44606-5.05888.34358-1.35286.901-2.24308,1.84545-2.53038a54.74087,54.74087,0,0,0,11.08384-5.0505c2.808-1.60649,5.534-1.1661,7.9312,1.79826,2.1345,2.63837,4.52938,2.69756,6.99032,2.02008.72815-3.31655,1.43359-6.43913,2.098-9.58209a2.97453,2.97453,0,0,1,1.42673-2.31985c3.94346-2.05771,7.86072-4.245,11.78368-6.39357a4.88454,4.88454,0,0,1,4.5931-.09961c3.03776,1.39829,6.04476,2.95014,9.07,4.40995.239.116.52334.01585,1.29251.01585-2.04572-2.39092-1.81131-4.95252-1.18323-7.58135.73037-3.0543,2.05585-5.09477,4.204-5.87477a26.22011,26.22011,0,0,0,3.11173-1.62583c-.82264-2.69931-2.97065-3.82965-2.65329-6.95618a15.43866,15.43866,0,0,1,2.16968-7.2281c-.24687-.50517-.40835-.83336-.63367-1.293,1.049,0,1.98991.36454,2.72832-.06723a9.36464,9.36464,0,0,1,6.79912-1.02734c1.35624.25946,2.73065.32085,4.096.47278,2.949.32819,3.02517.26225,4.35182-3.67609.256-.75892.57681-1.48078.76462-2.27663.81915-3.47815.36408-6.83326-1.95239-8.39886a34.07092,34.07092,0,0,0-3.50658-1.94039c-1.76354-.9148-3.667-1.42673-5.27232-2.76933-2.31648-1.93585-4.51679-2.28747-6.9789-.93006a32.61547,32.61547,0,0,1-4.16413,1.495,7.3082,7.3082,0,0,0-2.06389,1.15655c-1.123.93693-1.49161,3.08832-2.73636,3.98716-.42209.30489-.39017,1.9581-.82136,2.3569-1.15142,1.06544-1.16621,2.86311-1.46435,4.42183-.52451,2.7437.67468,5.48391,2.51791,6.042a32.59433,32.59433,0,0,0,3.86378,1.04388,16.51182,16.51182,0,0,0,2.95807-.016c-.01818.29639-.05453.85107-.1115,1.74874-2.61333-.72361-5.04468-1.5268-7.50224-2.02346-1.26524-.25433-1.92513-.96361-2.04-2.9223a8.034,8.034,0,0,0-.56657-1.82156c-2.46548,1.495-4.44071-.13934-6.34068-2.05014a2.93334,2.93334,0,0,1-.735-3.58277,13.42553,13.42553,0,0,0-1.65426,1.941c-.41755.52509-.85561,1.26-1.33794,1.3715a19.726,19.726,0,0,1-3.9105.42443c-2.54972.074-5.10048.10637-7.6502.04776a5.9302,5.9302,0,0,1-2.932-.58369,9.22768,9.22768,0,0,0-5.57034-1.68268,53.55382,53.55382,0,0,1-9.1396-.4341c-3.62367-.30664-7.285-.54268-9.9951-5.06635a.796.796,0,0,0-.30152-.32877c-1.3482-.528-1.78055-2.304-2.17189-3.95652a91.57025,91.57025,0,0,1-1.87387-9.22034,19.4578,19.4578,0,0,0-3.31877-8.33455c-.87157-1.36987-1.95018-1.98082-3.23127-1.619-.97841.27531-1.96148.52556-2.95014.70987-2.77947.52229-5.559,1.04564-8.34422,1.47915a3.92856,3.92856,0,0,0-2.73286,2.18552c-2.41889,4.125-2.90238,10.52823-1.13663,15.38347a6.87634,6.87634,0,0,0,.81694,1.5007c.84419,1.23682,1.74524,2.38241,2.561,3.65791,1.008,1.57574,2.11282,2.54739,3.63741,2.29877,4.337-.70824,8.681-1.32152,13.02039-2.00133,1.47566-.23033,1.94214-1.02047,2.00692-3.26587.02505-.86575.00454-1.73442.00454-3.02692,1.5804,4.6863.71336,7.05345-2.32439,7.45784-4.03213.53651-8.06775,1.07185-12.08054,1.8642-2.0138.3988-3.52592-.44877-4.80013-2.73845a10.52012,10.52012,0,0,0-1.8409-2.78016c-1.21515-1.03189-1.71461-2.648-2.12762-4.46274a25.37751,25.37751,0,0,1-.25025-7.87668c.15693-1.792-.02738-2.50591-1.13325-2.95865a20.06541,20.06541,0,0,0-4.03329-1.08315c-1.13092-.20656-1.602,1.14851-2.098,2.38067a3.18832,3.18832,0,0,0,.21961,3.08051,8.29047,8.29047,0,0,1,.537,1.7555c-.1137.10987-.22753.2202-.34124.32936-.32773-.47045-.65429-.938-1.12637-1.61383a19.99241,19.99241,0,0,0,.05,8.27991c.512,2.21919,1.34715,3.4298,2.92288,3.73411a14.92837,14.92837,0,0,0,6.5159.20423c.42665-.10637.88626-.33169.88976.904-1.08548.17569-2.16747.42314-3.25516.51309A8.8637,8.8637,0,0,1,150.90509,70.822Zm31.85229,68.55773a11.59591,11.59591,0,0,0,2.17538.8499c2.7317.36233,5.46573.71045,8.202.93857a35.676,35.676,0,0,1,12.8532,3.32284,4.2002,4.2002,0,0,1,2.39267,3.17652A41.2886,41.2886,0,0,0,213.77,160.49966a14.00551,14.00551,0,0,1,.86366,2.0315c-.35732.15868-.48583.28556-.57915.24117a.93215.93215,0,0,1-.471-.40672c-2.19356-4.56351-4.6432-8.86768-5.97777-14.28785a3.83781,3.83781,0,0,0-1.52109-2.24482,19.21677,19.21677,0,0,0-5.38836-2.24471c-5.00728-.913-10.03611-1.54334-15.06156-2.20218a8.4327,8.4327,0,0,1-5.28247-2.48937,2.34693,2.34693,0,0,0-2.45756-.847c-.73386.19794-1.48707.23325-2.22665.39589-3.88078.85841-7.77078,1.623-11.63339,2.63733-2.92626.768-4.82518,3.73865-6.17,7.58076-.84757,2.42226-1.63946,4.89182-2.4063,7.37769-.55293,1.79767-1.03084,3.64941-1.52691,5.48739-.298,1.10937-.59616,2.22316-.84187,3.36036-.512,2.379-1.7908,4.24837-1.79546,7.004-.00455,1.867.33343,3.21414,1.47682,3.80354a98.36022,98.36022,0,0,0,8.879,4.308c2.15033.84594,4.46226.67864,6.51357,2.27546,3.19143,2.48436,6.6013,2.35853,10.05207,2.02008,3.53034-.34637,6.80821-2.22315,10.15319-3.67772,4.47369-1.9461,8.91766-3.34731,13.59837-1.48882a13.76134,13.76134,0,0,0,5.20406.58661c1.93865-.00863,3.08436-2.03325,2.97286-4.94414-.08528-2.26462-.2252-4.52366-.31969-6.37248a10.378,10.378,0,0,1-1.64284-2.57756c-.90676-3.31935-2.5475-5.82188-3.91387-8.62465a4.447,4.447,0,0,0-3.69881-2.86148c-1.49278-.11033-2.98428-.3021-4.47368-.49888-.24688-.0325-.48234-.2725-.72467-.417a1.30078,1.30078,0,0,1,1.19348-.65313c1.305.14621,2.60424.43352,3.90817.53022,1.92956.14283,3.48374,1.24008,4.59764,3.6988,1.16389,2.56789,2.41877,5.047,3.50308,7.69005.62,1.51037,2.1663,1.61441,2.34269,3.75508a2.10984,2.10984,0,0,0,1.19348-.021c.77592-.29126,1.52913-.72932,2.40292-1.16283-.15251-.401-.29814-.78164-.5188-1.36125,1.54847.19223,1.62234-1.523,1.65076-3.29151.12175.03752.2435.07562.36525.11313.16276.91247.32656,1.82494.4892,2.72948,1.5303.19061,1.96382-.18652,2.42692-2.01554.1934-.76.42315-1.5007.66327-2.22932a44.1892,44.1892,0,0,0,2.32323-11.60963,3.81863,3.81863,0,0,0-.67573-2.77725,32.76517,32.76517,0,0,1-4.98794-9.77665c-2.11166-5.85136-1.79872-5.89-6.15753-5.5806a6.49423,6.49423,0,0,1-5.81722-2.45756c-2.38813-2.87-4.989-3.10545-7.76519-1.74362-.65185.32027-1.29473.6861-1.95007.9882q-3.21012,1.47618-6.426,2.9188a21.16027,21.16027,0,0,0-2.3301,1.03713,2.94549,2.94549,0,0,0-1.34937,1.37092C183.836,135.28036,183.39676,137.13373,182.75738,139.37972ZM41.41512,141.02151q5.06536-1.64692,9.73343-3.16522c.30047,1.05694.5075,1.68036.65767,2.33349.29581,1.29472.90222,2.69872.76451,3.8922a18.05029,18.05029,0,0,0,.63833,5.77062c.71791,3.85015,2.51325,5.426,5.014,5.534,1.4301.06093,2.86148.07852,4.2882.20994a5.74859,5.74859,0,0,0,3.28918-.53814,28.38065,28.38065,0,0,1,5.62277-2.02637,5.14871,5.14871,0,0,0,3.139-2.66681c1.6828-2.79833,3.54293-5.216,6.24736-5.67683,1.05018-.1786,2.04455-1.27713,3.03776-2.0343a3.60422,3.60422,0,0,0,1.11845-3.03542c.00116-1.70331.0501-3.40988.12745-5.10852.12968-2.86428-.3607-4.11182-2.0195-5.36332a7.93913,7.93913,0,0,0-7.82775-1.20664c-3.3211,1.136-6.62274,1.77658-9.90632-.35092-1.371-.88858-2.7169-.3141-3.94685.73037a30.111,30.111,0,0,0-8.06775,9.88023,6.87331,6.87331,0,0,1-.60186.88171c1.41647-4.83765,4.30067-7.47381,6.7559-10.43829-.06256-3.19072-1.14117-4.50432-2.957-4.69376-.496-.05173-.9875-.20248-1.48241-.2753-2.7204-.40218-5.45093-.694-8.16108-1.21457-2.69418-.517-5.07088.19177-7.029,3.25458-.429.67072-1.03188,1.08419-1.46319,1.75212-.84186,1.30276-1.98082,2.34373-2.04338,4.5811C38.92925,133.92762,39.70518,138.0582,41.41512,141.02151Zm62.41452,25.18563a14.844,14.844,0,0,0,2.31193-.463c2.52129-.97107,5.0914-1.49336,7.60465-2.69138a21.05292,21.05292,0,0,0,9.58558-9.30387,7.00035,7.00035,0,0,0,1.02163-3.54246q.01206-4.82367.06827-9.64582a3.19665,3.19665,0,0,0-1.14233-2.72366c-2.2743-1.726-4.06055-4.38211-5.81722-7.05008a8.12506,8.12506,0,0,0-5.61823-3.88195c-1.66789-.29755-2.95352.37422-3.88428,2.45407-.48234,1.08023-1.08082,1.45631-1.908,1.27934-1.60078-.343-3.20389-.65022-4.80805-.94765a16.56835,16.56835,0,0,0-3.33019-.5103c-1.32431.03018-3.17209,4.02421-2.36307,5.299.85666,1.35391.26283,2.17259.18081,3.16242a35.57863,35.57863,0,0,1-.6826,4.415,6.05267,6.05267,0,0,0,.46416,4.2211c.81809,1.65309,1.46318,3.50762,2.15033,5.3053.9649,2.5235,1.70436,5.24332,3.37353,7.05171a8.66229,8.66229,0,0,1,1.12287,2.88653c.28672.91865.47336,1.91081.71115,2.89842.50284-.28451.88964-.5047,1.4654-.83115C104.14362,164.57676,104.02758,165.17805,103.82964,166.20714Zm-49.7843-47.94341a2.41661,2.41661,0,0,0,.628-.50458c1.24591-1.83869,2.59632-3.53792,2.31309-6.67913A58.01176,58.01176,0,0,0,55.29346,100.404a13.40575,13.40575,0,0,0-1.75562-4.29042,10.87524,10.87524,0,0,0-6.21089-4.10961c-2.49054-.537-4.79454.681-7.08142,1.97348a24.1533,24.1533,0,0,1-4.04005,2.13717c-1.92514.63041-2.99454,2.2517-3.61015,5.05051-1.13313,5.15116-1.30835,10.742-3.10719,15.58431a3.21333,3.21333,0,0,0,.24466,2.62871c.80551,1.6736,1.58831,3.37854,2.33464,5.11644a12.2166,12.2166,0,0,0,3.7079,5.04247c1.462-1.82145,2.94455-3.53267,4.32351-5.423,1.7407-2.38708,3.73853-3.28871,6.0232-2.853,1.4802.28334,2.95247.68272,4.43384.95a4.14174,4.14174,0,0,0,3.2675-.38167C53.89854,120.60059,53.969,119.47818,54.04534,118.26373ZM206.39523,75.21086c.462-1.92222.84991-3.51112,1.22646-5.10514a7.63455,7.63455,0,0,0-.91131-5.9385c-2.1014-3.71815-4.493-7.10181-6.07668-11.46843a13.5971,13.5971,0,0,0-1.26524-2.4501c-1.21166-1.9877-2.68964-2.709-4.40984-1.82843-1.59286.81518-3.179,1.67138-4.74107,2.61006-1.79988,1.08082-3.57251,2.14346-5.57384,2.04164-1.37208-.06944-2.148,1.404-2.02859,3.47978a7.77877,7.77877,0,0,0,.15822,1.10761c.54035,2.61915,1.07627,5.23936,1.64517,7.8436a6.582,6.582,0,0,0,.60408,1.747c1.97977,3.54922,4.24265,6.53979,7.45913,6.8709C197.07249,74.59362,201.67246,74.85133,206.39523,75.21086ZM55.23649,156.69449c.07281-.22987.14563-.458.21844-.68773-2.81022-2.96157-3.40638-7.51774-3.73178-12.1113-.22986-3.2279-1.69177-4.85827-3.56342-4.19431a55.02447,55.02447,0,0,0-6.45789,2.75955,16.1033,16.1033,0,0,0-3.49515,2.58327,3.98749,3.98749,0,0,0-1.02735,2.20381c-.36524,3.25958-.58474,6.55679-.85445,9.84038-.26959,3.25958.78164,5.52374,2.52584,7.01757,2.68055,2.29481,5.50895,3.50261,8.60356,1.96836a4.574,4.574,0,0,1,2.02183-.48187c2.42564.01247,4.85023.16043,7.27587.19282a9.2996,9.2996,0,0,0,6.41233-2.65551c.08994-2.27033.16613-4.205.25374-6.44471h-5.5397c.36745.97957.70544,1.88016,1.12416,2.99791a10.44353,10.44353,0,0,1-5.90274-3.639C53.92009,156.29394,54.57893,156.49421,55.23649,156.69449Zm77.68194.013c2.2129,1.32781,3.18222,4.13175,4.13454,7.04612,1.31184,4.01734,3.9776,5.6159,6.81742,4.28809a6.93926,6.93926,0,0,1,4.59869-.6212c2.41667.54384,2.77725.29021,3.82288-2.98254,1.49267-4.67337,2.88642-9.42061,4.29275-14.15643.23884-.80155.33449-1.70144.58253-3.019a6.55547,6.55547,0,0,0-2.04909.66956c-1.8409,1.43977-3.37236.81635-4.67384-1.43127a7.2788,7.2788,0,0,0-4.76157-3.53267c-2.99558-.84256-5.78309.67119-8.60135,1.78847a1.50293,1.50293,0,0,0-.73841.80552A56.74088,56.74088,0,0,0,132.91843,156.70753ZM40.72227,141.5403c-1.10925-2.42284-2.04222-4.6489-3.11745-6.69963a3.39906,3.39906,0,0,0-1.69865-1.48416,6.78906,6.78906,0,0,0-2.93872-.64683c-2.09127.13875-4.33027-2.06564-6.2667.8118-.02505.03915-.11837-.024-.17977-.04275-1.44268-.43748-2.26637,1.214-3.24374,2.2807a4.41264,4.41264,0,0,0-.87833,3.48887c.34136,4.40587.63146,8.82492.84641,13.2485.1673,3.43935,1.1788,5.93734,3.23127,7.3714,1.92047,1.342,3.85691,2.63955,5.81955,3.82965a2.68224,2.68224,0,0,0,3.88545-.94824,39.78638,39.78638,0,0,1-.4278-4.78195c.11487-3.19994.50854-6.37878.58707-9.57871a5.96281,5.96281,0,0,1,1.68839-4.42417C38.804,143.20144,39.61873,142.529,40.72227,141.5403Zm166.962-67.0781a24.78764,24.78764,0,0,0,2.70222,2.012,4.74653,4.74653,0,0,0,2.69185.9028,28.35631,28.35631,0,0,1,8.93246.041,8.07285,8.07285,0,0,0,1.67814-.12233,3.64837,3.64837,0,0,0,3.10265-2.19018c.73957-1.34191,1.64179-2.27267,2.87511-2.276a2.0614,2.0614,0,0,0,1.06486-.49153c1.40517-1.004,1.5974-1.68385,1.20035-4.04693-.16951-1.00916-.26737-2.05934-.51879-3.01958-.63822-2.445-1.0228-5.33256-2.544-6.78608-3.28358-3.13562-6.84923-3.02645-10.37735-.95056-2.19706,1.29192-4.27679,3.05372-6.48631,4.28354-2.31531,1.28972-2.89667,2.3131-2.67939,6.03917.03076.5188.1468,1.02746.22066,1.52808C207.67516,70.09663,207.95617,72.40006,207.68425,74.4622ZM126.0134,158.02055q-.08529-.44808-.17068-.8943a9.24017,9.24017,0,0,0-2.68277.80727c-1.7146,1.09841-3.33589,2.53026-5.03454,3.69706a8.02828,8.02828,0,0,0-2.73169,4.45318c-.7941,2.54855-.62575,3.38366,1.124,4.17321,2.43822,1.09911,4.92654,1.93585,7.38293,2.94048,1.496.61049,2.95469,1.45119,4.46332,1.95356,1.31756.43864,2.75,1.06719,4.01057.68551a25.91211,25.91211,0,0,0,5.96973-3.09531c1.21969-.76963,1.32327-2.72086.38575-4.08106-1.37779-2.00016-2.766-3.98611-4.11986-6.01982-.91922-1.379-2.00237-2.54913-2.38463-4.62666-.08761-.46811-.65883-1.07231-.98307-1.04039-1.9433.18828-4.03667-.16392-5.37928,2.77155a13.03347,13.03347,0,0,1-.711,1.30777,2.89543,2.89543,0,0,1-.41184.46019c-.13317-.4101-.22532-.74854-.34824-1.06031-.132-.33682-.29347-.64567-.45961-1.00521C124.72776,158.90168,125.37064,158.462,126.0134,158.02055ZM65.34424,92.8254q1.87044.78327,3.74658,1.57a3.63147,3.63147,0,0,0,.35616.161c2.16851.62925,3.79667-.45332,4.63178-3.51053.59732-2.18785,1.983-4.21644,1.008-6.97435-.0353-.09892.074-.33787.13538-.49375,1.01942-2.59411.02738-4.52821-1.02513-6.24678a6.94013,6.94013,0,0,0-4.46669-3.213c-2.1345-.55468-4.2507-1.26233-6.37936-1.86769-.47453-.13422-1.13208-.44878-1.42113-.11488a13.83779,13.83779,0,0,0-3.44168,6.99148C62.86734,81.40358,64.789,86.33058,65.34424,92.8254Zm60.23914-22.19284c1.03084.95336,1.74758,2.01146,2.58269,2.32206a8.5646,8.5646,0,0,0,8.896-1.27422c1.35845-1.07918,2.02638-2.52466,2.12529-4.8451a45.87608,45.87608,0,0,0-.8407-10.92527c-.54955-2.77551-.98645-3.12421-2.8489-2.49729-1.75783.59044-3.518,1.17984-5.28608,1.6941a5.03818,5.03818,0,0,0-2.86591,2.88245c-1.23787,2.40351-.91247,5.03734-.6508,7.619A6.66123,6.66123,0,0,1,125.58338,70.63256ZM81.29322,145.9103a3.58374,3.58374,0,0,0-3.518,1.50874c-1.15363,1.56665-2.22653,3.271-3.37911,4.83648a4.57727,4.57727,0,0,1-1.6383,1.59682c-1.85791.7129-3.78421,1.04284-5.62277,1.84148-1.25605.545-2.32207,1.71345-2.34712,4.11182-.01025.93973-.19235,1.875-.20481,2.81477a4.03276,4.03276,0,0,0,.2492,1.85627c1.58366,2.29819,3.24479,4.75353,5.68068,3.81089,2.04-.79072,4.12207-.97794,6.16778-1.58319.16381-.04835.30828-.256.44936-.38-.4892-4.02479.70766-8.90111,2.80685-11.51514C79.59679,151.66682,80.63788,148.97881,81.29322,145.9103ZM76.443,81.57985c2.20031-1.53414,3.45076-4.07535,4.915-6.22a2.98745,2.98745,0,0,0,.27076-1.54393c-.12058-2.06668-.34462-4.12032-.46416-6.18817-.09786-1.71123-.63367-2.88537-1.70086-3.33135-1.60882-.6741-3.25853-1.13266-4.86164-1.83344a2.79212,2.79212,0,0,0-3.50425,1.14163c-1.54963,2.01729-2.94793,4.31326-4.34844,6.57847a8.67864,8.67864,0,0,0-.44831,2.21185c.89651.20365,1.5621.31853,2.21628.51367a15.7493,15.7493,0,0,1,3.799,1.26C74.43829,75.4321,75.95379,77.74462,76.443,81.57985ZM90.19492,153.8245c-.16614-1.99842-.96256-2.03651-1.81014-1.75725a20.1821,20.1821,0,0,0-3.07993,1.18614,31.454,31.454,0,0,0-5.03792,2.93768c-1.883,1.46423-2.9809,5.88153-2.29364,8.84589a4.60857,4.60857,0,0,0,1.421,2.42855,24.90443,24.90443,0,0,0,3.85119,2.16455c1.00125.51029,1.83974.08994,2.469-1.22074a5.75131,5.75131,0,0,0,.52905-1.1668,9.32529,9.32529,0,0,1,4.58623-6.55913A5.33207,5.33207,0,0,0,92.426,158.784a4.75375,4.75375,0,0,0,.29359-4.18976C92.15978,153.11743,91.35426,153.147,90.19492,153.8245Zm-2.17771,10.70566a12.71708,12.71708,0,0,1,.70544,2.27325,1.92462,1.92462,0,0,0,1.39608,1.929,15.56447,15.56447,0,0,0,11.2636-.09216,1.97944,1.97944,0,0,0,1.11962-2.24133,18.53023,18.53023,0,0,0-1.62583-5.7917c-.99449,3.74028-2.932,4.45772-5.0971,4.27562-1.63271-.13712-3.24724-.93635-4.91967-.16264.64288-1.59635,1.64179-1.38641,2.59061-1.27829a21.45541,21.45541,0,0,0,2.95935.4631c2.28909-.074,3.09694-1.17017,3.70452-4.52937-.7362-1.52179-1.49046-2.89445-2.1049-4.40087-.70311-1.72707-.90222-2.03138-2.22654-1.68606a13.69864,13.69864,0,0,0-2.098.94765c.73049,3.52137-.33682,5.55392-1.999,7.12569-.471.44552-1.0228.69065-1.50524,1.11333C89.44405,163.1222,88.73628,163.84231,88.01721,164.53016Zm29.73387-94.06094c2.63617.92784,5.18134.37153,7.6036-1.67931.12175-1.41531.28217-2.71574.33565-4.027A7.7864,7.7864,0,0,0,123.54,58.60933c-1.479-1.46365-2.93313-1.256-4.3143.31352-.92167,1.04785-1.80676,2.16735-2.59294,3.11628C117.00137,64.82547,117.354,67.47352,117.75108,70.46922ZM96.8575,151.85393c-.37433-1.16785-.60862-2.10141-.95452-2.92743a17.51768,17.51768,0,0,0-1.36416-2.69476,3.61363,3.61363,0,0,1-.42094-2.85345c.14785-.72361.32762-1.43581.43457-2.17247.471-3.21986-.82253-6.18654-2.95807-6.641a14.89956,14.89956,0,0,0-3.35407-.28963c-1.36078.02388-1.78521.5245-2.0901,2.51849-.31969,2.08369-.52113,4.20852-.801,6.54538a5.818,5.818,0,0,0,1.03538-.35954c1.6736-.991,3.19026-.35208,4.60894,1.05694a17.41353,17.41353,0,0,1,1.90918,2.267c1.17868,1.6595,1.21969,2.48039.39705,4.703-.17173.462-.31061.95395-.6155,1.9023C94.16682,152.53315,95.36484,152.23106,96.8575,151.85393Zm-4.86036-.3049c.54606-1.20711,1.24008-2.1247.75775-3.48432-.71115-2.00878-1.95927-2.32043-3.427-1.95356.03763-.78676.06373-1.35216.10136-2.15033a5.87223,5.87223,0,0,0-2.10711-.11092,16.18446,16.18446,0,0,0-3.19143,1.52226c-2.52129,1.4922-3.51671,4.117-3.3324,8.83238,1.13313-.55865,2.21966-1.17193,3.33473-1.62875C86.6725,151.53366,89.1755,149.77466,91.99714,151.549Zm39.14074-7.48184a16.32457,16.32457,0,0,1-2.26533-.02109c-.91247-.124-1.41076.51833-1.64855,1.7414q-.7338,3.78351-1.41763,7.58985a8.84529,8.84529,0,0,0-.09787,1.681c.01713.96082.53139,1.5769.97853,1.19069,1.306-1.12987,2.63954-.60641,3.982-.57915,1.26979.025,1.71228-.71965,1.99562-2.62649A14.30238,14.30238,0,0,0,131.13788,144.06719Zm98.26259-67.01205a5.59973,5.59973,0,0,0,3.38471,2.59911c1.5155.5774,2.651-.4807,3.08785-2.829a21.81713,21.81713,0,0,1,2.23224-6.10056c.25259-.49433.49387-.9995.79993-1.62024-.8329-.90047-1.536-2.28676-2.50079-1.13091-1.3574,1.62536-3.08214,2.76082-3.59989,5.56417C230.041,73.784,229.99325,73.833,229.40047,77.05514Zm-95.94157,81.515c.78839,2.358.78839,2.358,1.97511,3.16347C134.97545,159.64638,134.97545,159.64638,133.4589,158.5701Zm-8.48881-4.51749c-.09891-.13479-.19794-.269-.297-.40392-.26621.37783-.53243.755-1.13429,1.60824.67584-.17686.93635-.13771,1.08769-.3134A3.29382,3.29382,0,0,0,124.97009,154.05261Z"/><path class="b" d="M240.34555,126.61307c-3.758,3.14471-7.145,6.005-10.55141,8.81642-1.50979,1.24754-2.30855,3.07527-2.27325,5.72052a7.3419,7.3419,0,0,1-.19689,1.1668,6.86443,6.86443,0,0,1,1.46435-6.98064c2.49846-2.29713,5.07206-4.41112,7.62282-6.57392a21.37393,21.37393,0,0,1,2.34152-1.76A5.58181,5.58181,0,0,1,240.34555,126.61307Z"/><path class="b" d="M259.29582,112.51979a21.66261,21.66261,0,0,1-3.30059.63938c-1.11158.03588-1.70773.9353-2.12412,2.31193-.38,1.25488-.74074,2.5235-1.20828,3.7136C252.56042,114.06826,255.95888,110.432,259.29582,112.51979Z"/><path class="b" d="M227.16811,155.69266c-.818-.70824-.818-.70824-.69961-2.399C226.78365,154.3723,226.97588,155.03277,227.16811,155.69266Z"/><path class="b" d="M143.80666,100.36632c-3.36211,1.41763-12.737,2.36319-14.19337,1.148C134.24053,101.14061,138.86765,100.76686,143.80666,100.36632Z"/><path class="b" d="M157.52678,94.91993c4.10378-.517,8.18717-1.79022,12.34454-.47779a6.28748,6.28748,0,0,1-.86016-.00454,25.74562,25.74562,0,0,0-7.62294.44715A24.98694,24.98694,0,0,1,157.52678,94.91993Z"/><path class="b" d="M133.54534,107.59954q-5.85717.33379-11.71425.66793C124.29541,107.1877,129.30607,106.897,133.54534,107.59954Z"/><path class="b" d="M95.69245,105.10854c-3.80576.719-7.3566,1.3891-10.90756,2.05923-.0296-.13188-.05907-.26388-.08866-.39705.21273-.17743.413-.44365.64054-.52C87.93309,105.38606,93.91528,104.68866,95.69245,105.10854Z"/><path class="b" d="M158.24352,89.22329q-6.0108.54787-12.02369,1.09736C150.19394,88.55315,154.2489,88.67152,158.24352,89.22329Z"/><path class="b" d="M83.07261,100.95059c3.44051-.46928,6.88-.94206,10.32166-1.38863.13538-.01817.28439.20878.72932.56319-3.89.54618-7.46134,1.05018-11.03281,1.55185C83.084,101.43525,83.07832,101.19234,83.07261,100.95059Z"/><path class="b" d="M195.10075,107.96362h8.24752a16.41487,16.41487,0,0,1-8.25089.694C195.09854,108.42731,195.09971,108.19523,195.10075,107.96362Z"/><path class="b" d="M243.85434,74.53385c2.56568-.145,3.1891.05522,4.8684,1.5268-1.65659-.182-3.3028-.36291-5.25974-.5774-.18548-.831-.462-2.06331-.73841-3.29547.124-.07852.2492-.15693.37316-.236C243.35605,72.83287,243.61434,73.71575,243.85434,74.53385Z"/><path class="b" d="M154.94514,124.17252q4.24434-.27471,8.491-.55293c.00571.18722.01142.37608.016.56319q-4.24784.332-8.49789.66443C154.95085,124.62258,154.94747,124.39843,154.94514,124.17252Z"/><path class="b" d="M156.61652,128.39992q3.98325-.50943,7.96418-1.01721c.01025.1673.02051.33507.02959.50295q-3.96438.656-7.93121,1.31232C156.65858,128.93176,156.637,128.66555,156.61652,128.39992Z"/><path class="b" d="M165.50121,60.82631c-.55177-2.75337-.13317-4.40937,1.44152-6.0204.64276-.65814,1.33119-1.82156,2.39721-.22812C166.72311,54.97659,165.50237,57.03418,165.50121,60.82631Z"/><path class="b" d="M195.061,101.89719q3.7288.25952,7.45784.51822-.00507.35162-.01246.70089c-1.22657-.08982-2.45418-.21728-3.683-.2605-1.2833-.04555-2.56672-.01025-3.849-.01025C195.00289,102.52923,195.03248,102.21292,195.061,101.89719Z"/><path class="b" d="M213.77689,137.83124a16.822,16.822,0,0,0-3.08331,2.53493,24.37591,24.37591,0,0,0-2.00692,3.88987C208.17241,141.37638,210.91319,137.6594,213.77689,137.83124Z"/><path class="b" d="M204.52591,137.40856c-.644-.34928-1.288-.69914-2.139-1.15992C203.63278,135.74976,203.63954,135.72926,204.52591,137.40856Z"/><path class="b" d="M56.72694,139.17665c.38912-.46766.7327-1.15946,1.17414-1.36416,1.95123-.90117,3.873-1.10937,5.72285.6974a33.28163,33.28163,0,0,0,4.674,4.04121c1.1548.76008,2.50533.82894,3.76708,1.21294a1.555,1.555,0,0,1,.8089.51192,3.308,3.308,0,0,1-3.48153.10183c-2.1367-.90455-3.91387-2.81756-5.7331-4.62269-2.19473-2.17935-4.40075-2.1105-6.61936-.14272C56.93513,139.46616,56.83051,139.3217,56.72694,139.17665Z"/><path class="b" d="M54.14541,126.6415c-1.85,1.90346-3.6635,3.345-3.63962,7.45738a3.156,3.156,0,0,1-.28788-3.20447,36.85632,36.85632,0,0,1,2.78634-4.12091C53.23632,126.46907,53.75745,126.67226,54.14541,126.6415Z"/><path class="b" d="M74.87973,135.35551q-.14173.69974-.28555,1.39829c-.11267-.05638-.3254-.13316-.32319-.1673.03868-.46928.10812-.93181.16951-1.39713C74.58614,135.244,74.73293,135.2997,74.87973,135.35551Z"/><path class="b" d="M116.06723,133.93787a9.40859,9.40859,0,0,0-2.93768,8.9483C111.4344,138.15944,113.17278,134.58972,116.06723,133.93787Z"/><path class="b" d="M114.45958,145.20614c.50062.40556,1.00124.81169,1.69864,1.376C115.01484,146.58556,115.01484,146.58556,114.45958,145.20614Z"/><path class="b" d="M49.03352,113.67739a8.635,8.635,0,0,1-4.69435-.61608c-2.71923-1.23671-4.70227.18943-6.47944,3.39729a4.007,4.007,0,0,1,.18769-1.31406c1.701-2.47283,3.44168-4.638,6.10977-3.29664a15.6466,15.6466,0,0,0,3.86145.89034c.34474.07619.6861.18943,1.02851.28613Z"/><path class="b" d="M190.80358,60.83423c1.25825,1.13884,2.5553,2.19927,3.76137,3.45369a1.73236,1.73236,0,0,0,1.68268.71953,5.0671,5.0671,0,0,1,1.90917.38062c-.00909.18711-.0205.37317-.02959.56039a5.521,5.521,0,0,0-.61328.00338c-.77255.08587-1.71682.6621-2.28688.19107a61.05339,61.05339,0,0,1-4.70111-4.75632Q190.66592,61.11011,190.80358,60.83423Z"/><path class="b" d="M43.54158,157.2275c-1.30044-.3953-1.19232-1.61791-1.45737-2.48879.116-.1087.23092-.21681.34695-.32481C42.75319,155.23071,43.07625,156.04765,43.54158,157.2275Z"/><path class="b" d="M138.78458,164.01416c0-2.45919-.03413-4.91908.03193-7.37373a1.73558,1.73558,0,0,1,.68831-1.18777c1.396-.75041,2.82047-1.387,4.24149-2.02067.08994-.041.25037.28276.58252.68156-1.099.463-2.02626.78268-2.92055,1.2452-1.98653,1.02735-2.20614,1.5508-2.11737,4.73419A7.93182,7.93182,0,0,1,138.78458,164.01416Z"/><path class="b" d="M25.99752,143.49153c.73958,1.78055,1.27888,3.08331,1.97523,4.75971C26.35147,146.53616,26.26036,146.31877,25.99752,143.49153Z"/><path class="b" d="M217.676,68.56529a4.6185,4.6185,0,0,1,4.20164-.95628q-2.08032.7859-4.1618,1.56944C217.70207,68.97364,217.68843,68.77,217.676,68.56529Z"/><path class="b" d="M255.50824,92.84241q-.15869.98476-.31515,1.96661c-.09775-.03006-.19456-.06082-.29348-.091q.10416-1.05816.207-2.11679C255.241,92.682,255.374,92.76225,255.50824,92.84241Z"/><path class="b" d="M111.50035,63.562c1.48357,2.0428,1.478,2.08952-.79073,6.90958a13.16632,13.16632,0,0,1,.54839-2.2249A5.49226,5.49226,0,0,0,111.50035,63.562Z"/><path class="b" d="M132.41326,66.75107c.68715-1.53426,1.59286-1.986,2.973-1.47111C134.21432,65.85969,133.31431,66.30567,132.41326,66.75107Z"/><path class="b" d="M70.967,159.28288c.73037.57682,1.45969,1.15305,2.2482,1.77484C71.8351,161.57314,71.65533,161.4599,70.967,159.28288Z"/><path class="b" d="M76.13123,153.81145a3.26544,3.26544,0,0,1-.834-.29418,4.77981,4.77981,0,0,1-.59965-.73829C75.4167,152.38869,75.81608,152.49109,76.13123,153.81145Z"/><path class="b" d="M76.82758,76.476c.505-1.718,1.01022-3.436,1.64971-5.61194C78.65473,73.1253,78.37605,74.12422,76.82758,76.476Z"/><path class="b" d="M79.78448,163.71439c2.82048,1.462,3.99578-2.00191,5.59773-4.21364a7.84867,7.84867,0,0,1-2.49275,4.944C81.73117,165.60469,80.80961,164.61206,79.78448,163.71439Z"/><path class="b" d="M87.42,147.43489q-.367,1.35507-.73165,2.709-.10067-.04438-.19794-.0904.28328-1.46343.56773-2.92743C87.17872,147.2296,87.2993,147.332,87.42,147.43489Z"/><path class="c" d="M51.80739,259.21453c-.63263,2.21057-1.966,2.35853-3.59873,1.97511a19.67434,19.67434,0,0,0-3.03438-.41872c-1.87725-.13876-3.6169-.413-3.70906-2.81815a64.82539,64.82539,0,0,0-6.72293-1.3426,8.42207,8.42207,0,0,1-5.23248-2.50533,11.48428,11.48428,0,0,1,.8499-6.162,7.30229,7.30229,0,0,0,.56994-3.254c-.03972-2.97636-.24687-5.95039-.34811-8.929a33.14557,33.14557,0,0,1,.05347-3.6204c.636-8.45117,1.33457-16.8978,1.94552-25.35118.471-6.50344.86249-13.0113,1.24474-19.51917.17977-3.06059.40276-6.13027.33566-9.19075-.08645-3.99123,2.10024-6.36456,5.46234-7.57062,7.71043-2.76921,15.50288-5.28363,23.7299-6.15066,7.77428-.81915,15.53026-1.82039,23.29428-2.73508a5.08317,5.08317,0,0,1,1.38117-.05009q11.96847,1.98647,23.93029,4.01745c2.56789.43689,5.10724,1.0546,7.68771,1.379a12.17121,12.17121,0,0,0,3.82277-.31526c2.82618-.57111,5.60006-1.52447,8.44779-1.82948a21.58541,21.58541,0,0,1,6.33952.58485c10.77335,2.12984,21.57513,4.15271,32.27217,6.61482,7.43408,1.71123,14.702,4.1152,22.07343,6.112,2.60657.7066,3.79889,2.924,5.22,4.7512a4.09393,4.09393,0,0,0,2.577,1.74536c6.84352,1.38572,13.67224,2.858,20.54546,4.08444,8.52166,1.52005,17.08549,2.81034,25.6209,4.2564a13.66437,13.66437,0,0,1,2.577.89418,31.397,31.397,0,0,0-.70311,5.51011c.33786,5.65691.87833,11.30474,1.35612,16.95477.56773,6.66713,1.16284,13.332,1.68956,20.00267a2.23784,2.23784,0,0,1-.59045,1.47449c-1.91826,2.12645-3.85469,4.24265-5.89132,6.25423a4.26012,4.26012,0,0,1-2.049.72478c-1.908.40392-3.85923.63146-5.7366,1.13884-1.88866.51087-3.71244,1.15934-5.54192.06606-4.394,8.13031-13.47662,9.76639-17.5543,3.22428a334.80212,334.80212,0,0,0-58.91482,10.21471c-.17744.77825-.41861,1.82948-.69962,3.05255-1.97627-.16951-3.31655.80668-4.60568,2.29492a10.06941,10.06941,0,0,1-6.261,3.31539,32.23348,32.23348,0,0,1-11.09759.34812,8.65386,8.65386,0,0,1-7.20876-7.07676c-.08761-.4256-.12174-.86133-.21961-1.5769-.909.49375-1.602.86913-2.437,1.322-.86913-1.20373-2.00005-1.06951-3.37108-.68947a40.18092,40.18092,0,0,1-4.96289.70089c-7.5535,1.09224-15.21733,1.71344-22.61273,3.47011-4.74211,1.12637-9.15545.50633-13.72571.10462-2.59411-.22753-5.21547-.29685-7.77987-.719-4.02992-.6656-8.01661-1.58832-12.03056-2.35516-1.09107-.20714-2.2277-.16951-3.31655-.37771C53.72332,261.027,52.35123,261.10773,51.80739,259.21453Z"/><path class="b" d="M51.80739,259.21453c-.63263,2.21057-1.966,2.35853-3.59873,1.97511a19.67434,19.67434,0,0,0-3.03438-.41872c-1.87725-.13876-3.6169-.413-3.70906-2.81815a64.82539,64.82539,0,0,0-6.72293-1.3426,8.42207,8.42207,0,0,1-5.23248-2.50533,11.48428,11.48428,0,0,1,.8499-6.162,7.30229,7.30229,0,0,0,.56994-3.254c-.03972-2.97636-.24687-5.95039-.34811-8.929a33.14557,33.14557,0,0,1,.05347-3.6204c.636-8.45117,1.33457-16.8978,1.94552-25.35118.471-6.50344.86249-13.0113,1.24474-19.51917.17977-3.06059.40276-6.13027.33566-9.19075-.08645-3.99123,2.10024-6.36456,5.46234-7.57062,7.71043-2.76921,15.50288-5.28363,23.7299-6.15066,7.77428-.81915,15.53026-1.82039,23.29428-2.73508a5.08317,5.08317,0,0,1,1.38117-.05009q11.96847,1.98647,23.93029,4.01745c2.56789.43689,5.10724,1.0546,7.68771,1.379a12.17121,12.17121,0,0,0,3.82277-.31526c2.82618-.57111,5.60006-1.52447,8.44779-1.82948a21.58541,21.58541,0,0,1,6.33952.58485c10.77335,2.12984,21.57513,4.15271,32.27217,6.61482,7.43408,1.71123,14.702,4.1152,22.07343,6.112,2.60657.7066,3.79889,2.924,5.22,4.7512a4.09393,4.09393,0,0,0,2.577,1.74536c6.84352,1.38572,13.67224,2.858,20.54546,4.08444,8.52166,1.52005,17.08549,2.81034,25.6209,4.2564a13.66437,13.66437,0,0,1,2.577.89418,31.397,31.397,0,0,0-.70311,5.51011c.33786,5.65691.87833,11.30474,1.35612,16.95477.56773,6.66713,1.16284,13.332,1.68956,20.00267a2.23784,2.23784,0,0,1-.59045,1.47449c-1.91826,2.12645-3.85469,4.24265-5.89132,6.25423a4.26012,4.26012,0,0,1-2.049.72478c-1.908.40392-3.85923.63146-5.7366,1.13884-1.88866.51087-3.71244,1.15934-5.54192.06606-4.394,8.13031-13.47662,9.76639-17.5543,3.22428a334.80212,334.80212,0,0,0-58.91482,10.21471c-.17744.77825-.41861,1.82948-.69962,3.05255-1.97627-.16951-3.31655.80668-4.60568,2.29492a10.06941,10.06941,0,0,1-6.261,3.31539,32.23348,32.23348,0,0,1-11.09759.34812,8.65386,8.65386,0,0,1-7.20876-7.07676c-.08761-.4256-.12174-.86133-.21961-1.5769-.909.49375-1.602.86913-2.437,1.322-.86913-1.20373-2.00005-1.06951-3.37108-.68947a40.18092,40.18092,0,0,1-4.96289.70089c-7.5535,1.09224-15.21733,1.71344-22.61273,3.47011-4.74211,1.12637-9.15545.50633-13.72571.10462-2.59411-.22753-5.21547-.29685-7.77987-.719-4.02992-.6656-8.01661-1.58832-12.03056-2.35516-1.09107-.20714-2.2277-.16951-3.31655-.37771C53.72332,261.027,52.35123,261.10773,51.80739,259.21453Zm34.89692-85.125c1.34027.16264,2.23107.21274,3.09694.38563,3.82056.76567,7.61268,1.70319,11.45479,2.32789,10.66186,1.73045,21.34981,3.28918,32.01389,5.00716,8.72542,1.40622,17.43034,2.95364,26.14551,4.4258,3.85458.652,7.72639,1.21515,11.572,1.92968,3.874.71907,7.79012,1.13546,11.663,1.91138,4.19151.83849,8.46714,1.27317,12.712,1.82727,7.10647.9261,14.23216,1.71111,21.32255,2.74416,4.84336.70544,9.72772.98762,14.56886,1.73628a92.9233,92.9233,0,0,0,9.47514.45961,3.00067,3.00067,0,0,1,1.78964.44028c1.15142,1.1139,2.46094,1.06159,3.8,1.00917.8647-2.3209.41755-3.46324-1.8317-4.015a76.773,76.773,0,0,0-8.22934-1.54847c-7.00733-.91363-14.03177-1.69981-21.0483-2.54855-.54385-.06606-1.40051-.0706-1.55872-.38342-1.00008-1.97406-2.91834-1.701-4.57831-2.06284-2.73053-.595-5.476-1.11495-8.18263-1.79756-2.60435-.65417-5.28024-.65534-7.76285-2.33243-2.01951-1.363-4.85245-1.55872-7.351-2.164-4.77508-1.156-9.55587-2.30284-14.36054-3.32681-6.3521-1.355-12.70525-2.72831-19.10511-3.83185-5.76724-.99437-11.59821-1.62583-17.39842-2.4416-1.85453-.25946-2.40176-.92389-2.32556-2.76246.03763-.88287.17184-1.76121.28788-2.88082-2.13787.45285-3.95593.83744-6.00841,1.27084,4.34611,1.52354,4.48382,1.59519,4.52483,2.502-3.30979-.462-6.59442-.86016-9.85867-1.38583-6.50553-1.04668-12.99872-2.17981-19.502-3.24479-6.27811-1.02734-12.5391-2.305-18.95376-1.90008-3.14588.19911-6.29851.4779-9.41258.94555-2.28455.34474-2.68509,1.025-2.93872,3.34149a15.09732,15.09732,0,0,1-.429,1.8762c-.52568,2.15605-1.16727,4.29263-1.55069,6.47489-.44715,2.54739-1.34936,3.50658-3.85923,3.90934q-6.46989,1.03754-12.91344,2.23107c-3.74891.69519-7.51028,1.363-11.19883,2.30284-2.02754.5153-3.13341-.35615-4.16308-1.76692-.2901-.39716-.50971-.84652-.7623-1.272-.15588.033-.31176.06594-.4687.09775.033,2.22665.06944,4.45318.10241,6.71047a33.36518,33.36518,0,0,1,3.83757-1.74525,35.35684,35.35684,0,0,1,4.37465-.88183c4.76716-.83849,9.5172-1.80105,14.30836-2.44952,5.89912-.801,11.83483-1.34482,17.75784-1.97745,2.03208-.21728,4.07092-.49153,6.1086-.51192,1.87958-.01829,2.41084.54152,2.70665,2.40968.30384,1.92734.586,3.86727.72361,5.81163.4073,5.75477.70777,11.51514,1.1082,17.26875.37549,5.37811.842,10.74935,1.22645,16.12642a7.43451,7.43451,0,0,1-.18536,2.76921,7.61019,7.61019,0,0,1-1.511,2.52129,1.78424,1.78424,0,0,1-2.51325.3254c-.27087-.17185-.72711-.07165-1.09573-.05919-3.62821.116-7.25536.22754-10.88019.36408-9.94966.37655-19.88779,1.03538-29.85341.00687-2.97741-.305-6.04138.24338-9.11106.405-.15238.94777-.26738,1.57922-.355,2.21406-.34357,2.51675-.65988,4.98794,1.85908,6.77979a3.17,3.17,0,0,1,.89546,1.96719c.37316,2.38707.64741,4.78883.89767,7.19175a6.803,6.803,0,0,1-.29127,1.68268c-1.14-.33565-2.09-.61433-3.17092-.933a13.05769,13.05769,0,0,0-1.08082,1.9263c-.82369,2.3061.00793,4.31547,2.34153,5.08906a56.09815,56.09815,0,0,0,6.038,1.31756c.35267-1.39946.63822-2.53492.91469-3.634,3.33135-.63484,6.46126-.17068,9.59583.21169a2.22356,2.22356,0,0,1,2.08311,1.908c.37329,1.611.84315,3.19819,1.271,4.78988,1.73616.36408,3.27776.71,4.82739,1.00579,4.6545.88975,9.29432,1.90113,13.97946,2.594,3.95035.58486,7.95626.84315,11.94412,1.13779,1.5268.11383,3.13562.44936,4.51341-.31969a4.37882,4.37882,0,0,0,.248-.69064c1.91488-14.64389,1.77262-29.34242,1.14909-44.0512-.47208-11.16248-.91247-22.32485-1.512-33.47824C88.43942,181.80683,88.69655,178.11933,86.70431,174.08953ZM32.49525,223.743c18.16293,1.76925,35.86287-.31177,53.59356-.05464.05686-1.69527.21612-2.9922.12513-4.27108-.44831-6.21893-.98645-12.42983-1.44385-18.64771-.22521-3.05593-.29348-6.12444-.537-9.17933a38.45871,38.45871,0,0,0-1.70774-9.2794c-1.92734.07514-3.77162.06256-5.59772.24011-3.147.3049-6.28488.71558-9.424,1.10471-7.0961.876-14.25709,1.34819-21.22352,3.09006-2.792.69752-5.526,1.62362-8.29983,2.39838a2.794,2.794,0,0,0-2.23457,2.21406,47.46129,47.46129,0,0,0-1.18661,5.682c-.49841,5.93222-.79876,11.8826-1.22994,17.82052C33.121,217.7311,32.79444,220.59142,32.49525,223.743Zm91.15624,1.09678c.13421,11.24205.26738,22.33626.40043,33.55105a14.74785,14.74785,0,0,0,1.86361-.03984c2.4416-.38692,2.85811-.79643,3.428-3.213.7475-3.16755,1.35741-6.37715,2.28118-9.49226.95114-3.2039,2.15488-6.33614,3.35639-9.46034a5.751,5.751,0,0,1,3.22324-3.3006,19.05978,19.05978,0,0,1,11.20116-1.15375,2.79745,2.79745,0,0,1,1.26175.49492,29.82179,29.82179,0,0,1,3.68051,3.38366,6.59864,6.59864,0,0,1,1.52459,3.20051,59.15771,59.15771,0,0,1,.47907,8.33292c-.058,3.22545-.43351,6.44752-.70206,10.0883,7.20993-1.13546,14.025-2.72936,20.88-4.19593,6.98577-1.49383,14.099-2.38475,21.09956-3.52929.29347-1.55418.94544-2.9286-.132-4.30755-.21962-.281.01025-.90338.01363-1.36754.02388-5.11761.058-10.23626.058-15.355.00116-1.64971-.08528-3.29942-.12862-4.87749C193.76968,222.76913,131.4394,223.81815,123.65149,224.83978Zm31.4507-36.21448c-11.19767-1.55872-22.10069-3.07422-33.43152-4.65333q.40788,18.78647.80551,37.11553c3.05034.10241,5.71948.256,8.392.26854,7.68888.03519,15.35842-1.329,23.06326-.29814,1.31068.17523,1.8762-.55526,1.88983-1.79767.0057-.46532-.0148-.92948-.02389-1.3948-.116-6.03916-.21961-12.07716-.35615-18.11633C155.36164,196.22552,155.22731,192.70077,155.10219,188.6253Zm21.76958,30.66452a2.53114,2.53114,0,0,0,1.92513-2.80568c-.074-1.85.25829-3.71814.18093-5.56813-.231-5.47481-.56214-10.94741-.88288-16.41768-.14912-2.54855-.17184-2.62137-2.69418-2.95585-3.86844-.51309-7.75377-.89651-11.6278-1.36754-1.62467-.19795-3.238-.47558-4.7512-.70311-.223.463-.36641.62237-.37095.78618-.29243,8.45117-.59849,16.90117-.83057,25.35234-.04555,1.63609.19911,3.27788.33682,5.28258,6.79691-.79526,13.34008.23558,19.85249-.43118.0353-.18769.07165-.37317.10811-.55981C177.84,219.7654,177.56241,219.62885,176.87177,219.28982Zm72.44946,3.26191c-12.588.22649-24.62652.44261-36.99157.6656a224.64181,224.64181,0,0,0,.51425,24.47518c1.38234-.08412,2.55881-.166,3.73749-.22637,3.08669-.1581,2.95131-.17639,3.47582-3.34044.71231-4.30638,1.63841-8.57863,2.52245-12.85541.22754-1.09224.55748-2.33011,1.91477-2.46094a52.98828,52.98828,0,0,1,5.82759-.215,2.28738,2.28738,0,0,1,2.437,2.46316c.21845,3.62028.49492,7.23718.74633,10.85642.0614.88742.11383,1.77484.18094,2.809,3.62482.29581,6.62507-1.31522,9.82325-1.66567.2993-.03414.57227-.44144.8329-.69973,1.11949-1.11612,2.17643-2.29935,3.35744-3.346a5.56729,5.56729,0,0,0,2.032-4.41217C249.65688,230.71059,249.47257,226.82515,249.32123,222.55173ZM180.31694,193.3652c-.16159,9.044-.20144,17.8945,1.11834,26.9395,1.222.041,2.22548.10474,3.2301.10241,2.5122-.00676,5.02545-.10346,7.53416-.0409,1.32769.03181,2.651.31853,4.34728.53931a10.78355,10.78355,0,0,0,.8181-2.99232c.01025-3.436-.19224-6.87195-.32657-10.3057-.13876-3.52137-.27413-7.04263-.463-10.56167a12.34446,12.34446,0,0,0-.48583-2.11282c-1.68618-.28-3.23127-.636-4.79675-.77488C187.784,193.84753,184.265,193.64388,180.31694,193.3652Zm46.69645,5.09139c-5.49531-.09215-10.59917-1.51666-15.64164-1.53251.356,7.98923.69624,15.6371,1.02956,23.128,5.77645,2.37787,11.33316.148,17.24254.98761-.78047-6.7855-1.50513-13.10684-2.23445-19.42585C227.30466,200.69676,227.18186,199.78429,227.01339,198.45659Zm19.49424,1.90568c-5.78891-.61888-11.56186-1.23554-17.67606-1.88867.25026,7.838,2.79764,14.9023,2.67939,22.43646,5.56813-.355,10.73467-.68493,15.7543-1.00579a6.1773,6.1773,0,0,0,.958-4.66254c-.488-4.33935-.83848-8.69467-1.26967-13.04078A15.07978,15.07978,0,0,0,246.50763,200.36227Zm-47.4577,23.04624c-.09448.96257-.19573,1.51317-.19794,2.06389q-.01381,9.32841-.00571,18.66018c.00116.27763-.11837.69973.017.8146,1.49954,1.25942.64742,2.74312.21169,4.584,4.16529-.512,8.04037-.98761,11.99631-1.47227-.116-8.30438-.22521-16.247-.33449-24.25907C206.79345,223.66785,203.03884,223.54156,199.04993,223.40851Zm-95.57411.44936c-.413-10.102-.21053-19.8639-1.75667-29.58253-2.4063-.49142-4.60335-1.32432-7.15761-.40276-.10917,9.85972-.15472,19.67167.38458,29.69858C97.88263,223.67018,100.52218,223.759,103.47582,223.85787Zm34.493,21.9631c-.86.52218-1.63258.75437-1.98874,1.27317a5.60147,5.60147,0,0,0-.57227,2.123c-.53022,2.85694.3812,5.54308,1.29821,8.1281.934,2.635,4.49175,4.29275,6.96981,3.81147,1.56781-.3049,2.32323-1.41426,3.07422-2.58048,2.33232-3.62028,3.87963-7.39307,2.36646-11.8064-1.24125-3.62483-3.66467-5.62953-6.96189-5.62615C138.53316,241.146,137.42159,242.45665,137.96881,245.821Zm56.92037-63.50559c-.73957-2.66913-2.8842-2.93989-4.82064-3.4849-7.51365-2.11283-14.97732-4.44864-22.566-6.25191-8.58433-2.04117-17.27562-3.63741-25.93615-5.34176-2.3209-.45623-4.70343-.6007-7.19618-.90443-.16276,1.39713-.2788,2.37787-.43573,3.70335,6.99031,1.11041,13.777,2.05923,20.51354,3.29255,6.85831,1.25616,13.687,2.709,20.4942,4.22565C181.573,179.0318,188.16287,180.702,194.88918,182.31538ZM95.11913,228.35311c-.48583,7.87214-1.80793,15.43927-.44948,23.15087a20.1575,20.1575,0,0,0,8.508-1.01488c-.31853-7.31455-.63367-14.496-.95569-21.897C99.77817,228.509,97.613,228.43618,95.11913,228.35311Zm15.60075-32.63171c-.63717,5.146-.6508,25.671-.00909,27.85092a12.00262,12.00262,0,0,0,6.40091-.00221c.03985-1.16284.12862-2.26184.10462-3.3564-.14446-6.41466-.39134-12.827-.45507-19.24154-.05464-5.39069-.06932-5.49531-5.5863-5.44638C111.09071,195.52684,111.0066,195.59511,110.71988,195.7214Zm-1.643,54.17842c2.51675-.19806,4.617-.39822,6.72188-.52113,1.82145-.10462,2.107-.25829,2.00692-2.12762-.28217-5.28817-.68714-10.56958-.97736-15.85787a1.81933,1.81933,0,0,0-2.1162-1.98653c-1.62921.06489-3.25387.264-4.96172.41417C109.5229,236.58024,109.31016,242.96182,109.07692,249.89982Zm115.20932-1.53146c1.23449-.85562,2.96727-1.50863,3.7785-2.76246,1.02163-1.5769,1.94668-3.64754.0113-5.48961-.09554-.09215.43922-.71219.34823-.96361a12.177,12.177,0,0,0-1.4393-3.16067c-.72245-.9649-1.71007-.75892-2.6703,0-.32878.26167-1.01488.07619-1.619.09786a30.998,30.998,0,0,1-.85445,4.43256c-.52788,1.561.97166,2.453.96024,3.6317C222.78554,245.67872,222.52841,247.09635,224.28624,248.36836ZM42.843,253.31983c.04322,1.35623.115,2.32439.09787,3.29034-.03414,1.91033.20819,2.37111,1.999,2.66808,1.51783.25142,3.07422.27868,4.49873.397a15.24071,15.24071,0,0,1,.98179-1.8727c1.14012-1.5656.71232-3.42234-1.06718-3.75228C47.21429,253.65431,45.02189,253.55191,42.843,253.31983Zm164.71833-50.80827c-2.09687,2.20264-2.4324,6.9959-1.30381,14.90556.05685.39134.52217.72361,1.20373,1.62012A107.37546,107.37546,0,0,0,207.56134,202.51156Zm-6.78655-.77942q-.04963,8.60822-.099,17.21294c.20132.05127.40392.10358.60525.15589.29126-.37084.74749-.70533.84652-1.12183C202.77833,215.23952,202.115,203.37276,200.77479,201.73214Zm-167.474,37.48415c-.2082.01946-.41639.03763-.62354.057-.63134,4.14363-.3219,6.10056,1.40972,6.95385C33.80931,243.7537,33.55335,241.485,33.30077,239.21629Zm197.78693,1.15142c.29243.01829.58252.03414.87612.05243q-.082-1.495-.1616-2.98661l-.48244-.01363Q231.202,238.89259,231.0877,240.36771Zm-74.24819-47.9469c.40393-1.33911.40393-1.33911-.37549-2.57582C156.62223,190.92581,156.73139,191.67448,156.83951,192.42081Z"/><path class="b" d="M85.7224,239.62709c-.256,1.85569-.43235,3.37-.67468,4.87527q-.3822,2.33791-.86924,4.66126c-.661,3.1277-2.35516,4.65229-5.666,4.72172-3.03776.06257-6.08239-.16951-9.17013-.27308-1.30847-4.25058-1.27887-8.39549-1.44955-12.74614,3.07084-.06827,6.00164-.03076,8.91649-.2287C79.6491,240.44286,82.47412,240.006,85.7224,239.62709Zm-1.54392,1.82377c-5.08231.3755-9.45126.69752-14.22179,1.05134.04438,2.95353.01025,5.68872.18664,8.41016a2.00022,2.00022,0,0,0,1.36066,1.39492,68.104,68.104,0,0,0,8.00752-.01142,3.09057,3.09057,0,0,0,2.87046-2.30738C83.01913,247.407,83.489,244.78559,84.17848,241.45086Z"/><path class="b" d="M67.07027,260.20773c-.38121-3.4849.18536-4.114,3.0776-3.924,2.189.1433,4.37454.26167,6.52266.388.17406,2.87046-.2845,3.62029-2.6202,3.73062C71.77824,260.51041,69.49253,260.28964,67.07027,260.20773Zm3.38249-1.67022c-.76683-1.09678-1.45748-1.14571-2.552.11954C69.07719,258.60241,69.7655,258.56944,70.45276,258.53751Z"/></svg>