<svg xmlns="http://www.w3.org/2000/svg" viewBox="0 0 300 300"><defs><style>.a{fill-rule:evenodd;}</style></defs><title>gl_nav17</title><path class="a" d="M263.06689,292.376c0-1.71-.0581-3.4219.00981-5.1289.39209-9.9024.92869-19.8018,1.16839-29.7071.0962-3.9765-.4809-7.9658-.6743-11.9531-.1933-3.9912-.35009-7.9853-.4155-11.9805-.1192-7.3408-.1719-14.6835-.2271-22.0253-.0244-3.2774.2412-6.5752-.0293-9.8291-.4438-5.3301-1.1811-10.6368-1.8711-15.9434a5.62687,5.62687,0,0,0-3.375-4.6465c-3.2045-1.4258-6.4414-2.7803-9.685-4.1142-2.4356-1.001-4.91209-1.9024-7.354-2.8877-2.1445-.8653-2.06109-.8116-3.66509.6845-2.624,2.4483-5.29781,4.8516-8.07221,7.126a10.12423,10.12423,0,0,1-3.40479,1.5977c-1.90281.5918-3.85691,1.0283-5.80521,1.457a3.77157,3.77157,0,0,0-2.7427,2.1318c-.8852,2.0186-2.01609,3.9776-1.915,6.3408.0664,1.5567-.1406,3.126-.2227,4.6407-4.165.2881-5.6005-.9492-5.9355-4.833-.1313-1.5205-.1313-1.5205-2.75389-3.5186a10.3717,10.3717,0,0,0-2.14451,4.8721,20.20369,20.20369,0,0,0-.4161,2.3594c-.7973,6.2207-3.97939,11.2207-8.1206,15.6923-3.5761,3.8614-7.2475,7.6348-10.9282,11.501.9683.5967,1.8916,1.1651,3.0503,1.8779-1.6933,2.3047-3.1523,4.5713-4.8891,6.6006-4.3604,5.0948-8.82379,10.1016-13.2867,15.1075-5.6899,6.3818-11.3706,12.7724-17.1484,19.0742-4.1113,4.4843-8.51469,8.7207-13.8164,11.7588a86.65226,86.65226,0,0,1-9.648,4.2002c-2.1318.8974-4.2729,1.7763-6.4311,2.6084a61.60031,61.60031,0,0,1-5.8291,2.0791,3.39433,3.39433,0,0,1-4.3296-2.3692,81.10324,81.10324,0,0,1-1.8677-8.3818,42.78,42.78,0,0,1,2.0239-22.6358c2.7159-7.3359,5.7681-14.5478,8.668-21.8154.8877-2.2246,1.7866-4.4463,2.63231-6.6875q1.64729-4.36665,3.21239-8.7666c1.147-3.2334,2.3077-6.4639,3.3487-9.7314,1.6474-5.1739,3.2592-10.3594,4.7646-15.5752a11.03312,11.03312,0,0,1,3.5039-5.3037c3.48441-3.0411,7.0445-6.003,10.689-8.8497,3.8218-2.9853,4.0908-2.9238,3.7798-7.6523-.4619-7.0127-1.1319-14.0176-1.9448-20.998-.7779-6.6739-1.4507-13.3389-1.6133-20.0645-.19-7.8486-.1348-15.665,1.3091-23.416a72.69414,72.69414,0,0,1,4.01261-14.5254,8.98224,8.98224,0,0,1,.87459-1.7031,49.79072,49.79072,0,0,1,17.9316-16.25c1.2729-.6631,2.48681-1.4385,3.7505-2.1201,4.25831-2.2959,8.69331-4.4034,13.6279-3.7852,4.7783.5986,9.7188,1.1328,13.7993,4.1504a43.8621,43.8621,0,0,1,5.2896,4.4805,63.53224,63.53224,0,0,1,8.1001,9.4335c3.0591,4.6641,4.48441,9.8389,5.52,15.1954,1.2949,6.6943.6162,13.3418-.3159,20.0136-.8506,6.0869-1.4932,12.2051-2.1279,18.3203-.3956,3.8096-.6724,7.6358-.8741,11.461a41.05142,41.05142,0,0,0,.1778,5.7226,4.30444,4.30444,0,0,0,1.1938,2.7637c4.91071,5.1172,10.669,9.0098,16.6275,12.8281,5.371,3.4414,11.4047,4.8653,17.0273,7.4424a29.55987,29.55987,0,0,1,4.7456,2.7461c1.5308,1.084,1.9668,2.8721,2.21631,4.626.41649,2.9238.87209,5.8525,1.06149,8.7949.2871,4.46.4278,8.9317.5093,13.4014.13621,7.4287.1611,14.8594.26121,22.289.05769,4.2344.09669,8.4707.28279,12.7002.1684,3.8272.6001,7.6416.7744,11.4678.13081,2.8721.13181,5.7578.0263,8.6309-.3388,9.2627-.7504,18.5234-1.1508,27.7841a6.84515,6.84515,0,0,1-.2974,1.2686Q263.38814,292.39215,263.06689,292.376ZM150.958,208.7861a83.8641,83.8641,0,0,0,2.3452-16.332,149.86178,149.86178,0,0,0-.1118-16.6455,6.3681,6.3681,0,0,0-1.0766.4873,131.64083,131.64083,0,0,0-12.2129,10.0254,15.87111,15.87111,0,0,0-4.2764,6.7744q-3.43365,11.09325-7.1431,22.0996c-1.1406,3.4033-2.5346,6.7207-3.8056,10.0801-.8745,2.3115-1.6685,4.6572-2.6138,6.9394-3.3569,8.1055-7.1377,16.0557-9.5112,24.5274a71.36732,71.36732,0,0,0-1.793,10.1016c-.625,4.8261.4194,9.5468,1.2764,14.2626a11.55164,11.55164,0,0,0,.60251,2.2969c1.08689,2.6631,2.665,3.4697,5.40239,2.7002,1.2988-.3652,2.5429-.9287,3.80461-1.4219,2.45069-.957,4.91359-1.8886,7.33989-2.9052a77.4458,77.4458,0,0,0,8.7519-3.876,58.33464,58.33464,0,0,0,13.5098-11.3779c7.9741-8.6221,15.791-17.3907,23.709-26.0655a84.04656,84.04656,0,0,0,9.2456-11.8994,22.30771,22.30771,0,0,0,1.0674-2.2275c-.8247-.3496-1.4351-.8604-1.9473-.7764-1.333.2197-2.0986-.5273-2.9209-1.292-3.43939-3.1982-7.1455-6.124-9.9048-9.8262-3.3794,2.9415-6.5825,5.9493-10.01559,8.6661-4.69041,3.7109-9.50441,7.2734-14.36081,10.7666-4.6631,3.3545-9.4444,6.5449-14.1807,9.7978-3.2231,2.2139-6.3486,4.5996-9.7192,6.5625-3.40429,1.9824-6.1558,4.2813-6.8457,8.3819a1.40512,1.40512,0,0,1-.2251.6748,13.94993,13.94993,0,0,1-1.2989,1.1005c.9839-4.875,2.958-8.2685,7.0718-10.4336a90.46359,90.46359,0,0,0,9.0635-5.7958c4.1318-2.8497,8.0395-6.0459,12.292-8.6954a161.8487,161.8487,0,0,0,21.57811-16.2832c1.84719-1.6328,3.42329-3.5683,5.19379-5.2929.586-.5713,1.5791-1.4327,2.0616-1.2588,1.1587.417,1.6279-.2227,2.24561-.8047,3.02489-2.8516,6.03369-5.7188,9.06779-8.5596a8.76808,8.76808,0,0,0,2.9981-5.791,63.217,63.217,0,0,1,1.0654-8.7949c.7798-3.3262-.6679-4.9854-3.4096-6.2813a17.383,17.383,0,0,1-7.53469-6.4775c-.065-.1035-.26811-.1201-.63331-.2705-.2051,1.5205-.438,2.9853-.59469,4.457-.53571,5.0371-1.40191,10.0371-3.94881,14.459-3.6787,6.3857-8.643,11.4521-15.8139,14.0059A6.04468,6.04468,0,0,1,150.958,208.7861Zm86.4434-36.7236c-.4575-.29-.916-.5908-1.3833-.876a71.05472,71.05472,0,0,1-14.35739-11.1269,9.43447,9.43447,0,0,0-3.32671-2.2178,11.08345,11.08345,0,0,1-7.2227-8.2949c-.9633-4.0156-.6162-8.1094-.4975-12.1699.0815-2.7842.416-5.5684.77591-8.334.29629-2.2764.88379-4.5157,1.17229-6.793a7.20137,7.20137,0,0,1,1.3316-3.4932,28.309,28.309,0,0,0,3.1455-5.3437,6.4349,6.4349,0,0,0-.8565-6.5801c-1.2168-1.6758-3.5044-2.0644-4.4756.4014-.2202.5595-.2934,1.5029-1.3925,1.4082-.3931-1.7041-.8091-3.3936-1.1651-5.0957a2.76089,2.76089,0,0,0-1.8598-2.2627c-1.8697-.6963-3.6724-1.5694-5.5323-2.294a5.50392,5.50392,0,0,0-1.8432-.2714c-2.3921-.0508-4.8067.1269-7.17239-.1397a8.96722,8.96722,0,0,0-5.09721.8379,13.15649,13.15649,0,0,1-1.6704.5518q-.1215-.19935-.2431-.3985c.4731-.5176.94671-1.0342,1.7983-1.9658a43.76392,43.76392,0,0,1-23.2129-2.9805,6.80536,6.80536,0,0,0-.8301.9942c-2.8051,5.2666-3.3593,10.8916-2.6142,16.7158.0381.2988.2842.7012.167.8691-1.0786,1.544-.0093,2.9532.3061,4.3526a47.77271,47.77271,0,0,0,1.72951,5.4795c1.04349,2.9248,2.01909,5.8867,3.29009,8.7128a19.06565,19.06565,0,0,0,3.0488,4.5225c1.8183,2.0996,3.98,3.9092,5.7373,6.0537,2.4145,2.9463,4.5869,6.0908,7.0464,9.3975,1.1572-1.2549,2.0615-.8526,3.04541.1875,3.01759,3.1904,5.97119,6.4687,9.249,9.376,2.15379,1.9101,3.88619,4.7451,7.36129,4.6796.1402-.0029.292.126.4219.2168,3.0811,2.1416,6.1987,4.2354,9.207,6.4756a3.40071,3.40071,0,0,1,1.147,2.2315,3.87676,3.87676,0,0,0,1.0396,2.3076c1.8755,2.2588,3.7011,4.5596,5.53221,6.8271A24.54479,24.54479,0,0,0,237.40139,172.0625Zm-28.01469,1.0059q.12974-.30765.26029-.6153c-2.5742-1.6982-5.1377-3.4131-7.7285-5.0859-.9229-.5967-1.69679-.0401-2.3814.5322-1.0185.8496-2.0376,1.707-2.9756,2.6416-1.9052,1.8975-4.6792,2.958-5.6147,5.794-2.665,1.4492-2.9522,3.9287-2.9292,6.5947a101.39939,101.39939,0,0,1-1.502,16.2099,5.82538,5.82538,0,0,1-1.9716,3.6846c-3.1602,2.8184-6.21829,5.7529-9.3077,8.6514-.6987.6562-1.3574,1.3555-2.042,2.0273a1.349,1.349,0,0,0-.0493,2.1075c1.03371,1.1074,2.0562,2.2314,3.16171,3.2656,1.90859,1.7861,3.87739,3.5088,5.92279,5.3506a51.50465,51.50465,0,0,0,4.2568-3.5049c2.9053-2.9649,5.7198-6.0205,8.5147-9.0908a28.81862,28.81862,0,0,0,6.7031-11.2276c1.0195-3.4931,1.6021-7.1142,2.3765-10.6679-3.4365.5166-4.0283,1.0087-4.3936,4.04-.6186,5.1377-2.8852,9.5928-5.6279,13.8555a21.9901,21.9901,0,0,1-1.5356,1.9062c1.208-3.2744,3.01221-6.1787,4.1953-9.3174a102.17833,102.17833,0,0,0,2.7456-10.164c1.4931-.5938,3.1045-1.2793,4.7505-1.8653.5649-.2011,1.54981-.4424,1.7773-.1787,1.60351,1.8613,4.6597,2.6055,4.2441,6.0742-.24559,2.0537.9439,2.7784,3.3291,2.668.5992-3.8242,1.106-7.5791-2.708-10.2988-.8369-.5977-1.457-1.5-2.2954-2.0957a3.693,3.693,0,0,0-2.1074-.8047c-2.5405.1504-5.0728.4697-7.6016.7793-.9736.1191-1.9389.4941-2.9306-.0791.186-.3047.247-.5254.3398-.5401,3.3867-.5097,6.7798-.9785,10.1631-1.5068a3.01551,3.01551,0,0,1,2.9229,1.1621c1.7011,1.8487,3.5449,3.5664,5.3418,5.3496,1.1899-1.4961.7329-2.7031-.2657-3.8047-1.5014-1.6562-3.1303-3.205-4.5415-4.9326a3.10817,3.10817,0,0,0-3.11809-1.2568c-3.167.4248-6.33841.8164-9.51081,1.2021a11.93223,11.93223,0,0,1-1.437.0078l-.082-.4892a4.2031,4.2031,0,0,1,1.1352-.5498q5.3343-.7662,10.6807-1.4492a3.17737,3.17737,0,0,1,3.04591,1.4414c1.853,2.2754,3.92089,4.375,5.938,6.5879.88569-.9082,1.18209-1.6358.43549-2.503-2.082-2.4209-4.1738-4.833-6.229-7.2763a3.50468,3.50468,0,0,0-3.1582-1.3233c-3.8252.2813-7.6528.5244-11.4804.7676a9.3144,9.3144,0,0,1-1.2188-.0752c-.0186-.1807-.0366-.3613-.0547-.543.94-.2002,1.877-.414,2.8198-.5996,1.9727-.3857,4.1714.0635,5.7212-1.7675C205.272,174.0889,207.40329,172.873,209.3867,173.0684Zm-22.65181,9.9404c.1513-1.1289.1894-1.9238.3725-2.6846a11.13682,11.13682,0,0,1,3.59231-6.2431c1.53619-1.2754,3.07619-2.5469,4.58159-3.8575a19.245,19.245,0,0,0,1.48341-1.625c-3.85791-3.705-7.57381-7.2734-11.627-11.166.83689,4.127,1.103,7.9278,3.50779,11.2959-.4043.4258-.8452.8877-1.5146,1.5908-.4585-1.2841-.7925-2.2197-1.126-3.1533-3.3467,2.2891-6.6094,4.5205-9.9619,6.8145C177.958,178.7119,182.18849,180.7617,186.73489,183.0088Z"/><path class="a" d="M198.64989,103.4639a4.25911,4.25911,0,0,1-2.3696,3.206c-1.9629,1.0489-3.8799,2.1924-6.2398,2.127-1.7934-.0489-2.1147-.5069-1.44579-2.1817a2.97421,2.97421,0,0,1,2.09959-2.0771c2.087-.4697,4.1709-.96,6.2725-1.3555A5.36365,5.36365,0,0,1,198.64989,103.4639Zm-9.0796,3.3349q.16261.4029.3262.8057c1.0557-.2266,2.1118-.4531,3.4097-.7305-.5303-.7011-.8081-1.0693-1.2036-1.5927C191.20119,105.8213,190.38579,106.3105,189.57029,106.7988Z"/><path class="a" d="M173.18309,113.958c-.6728,3.0283-4.1606,5.1065-7.7573,4.7432-.8418-2.7696-.1548-4.1983,2.5268-4.5401C171.48049,113.7119,171.10259,113.0898,173.18309,113.958Zm-6.25,1.2842c-.33639.9736-.522,1.5117-.8013,2.3223.9205-.1661,1.4263-.2569,2.1905-.3936C167.874,116.5488,167.55229,116.1016,166.93309,115.2422Z"/><path class="a" d="M193.59959,127.6475c.2578.4365.5542.9375.7954,1.3447-.8901,1.7158-11.417,4.4941-14.0102,3.79.3496-1.0058,1.2505-.7451,1.9385-.9258,2.6733-.7021,5.371-1.333,7.9956-2.1875A17.31763,17.31763,0,0,0,193.59959,127.6475Z"/><path class="a" d="M177.74119,123.668c1.0108.5234,2.0298,1.0498,3.2837,1.6982-1.6216.9199-2.7329-.126-3.8598-.5283-.9659-.3447-.628-1.3486-.5499-2.1016.211-2.0371.4678-4.0703.7427-6.0996a2.02707,2.02707,0,0,1,.6299-1.1484C179.00639,118.1953,177.8467,120.8262,177.74119,123.668Z"/><path class="a" d="M167.42379,107.292a5.19381,5.19381,0,0,1-4.0214,1.5547C164.40919,107.2354,165.66409,107.1797,167.42379,107.292Z"/><path class="a" d="M191.50539,133.6494c-1.2852,1.999-1.4155,2.0391-2.99169,1.1192C189.58449,134.3682,190.54489,134.0088,191.50539,133.6494Z"/><path class="a" d="M242.957,36.5029c.93271.1651,1.5391.2725,2.1456.3799q.07755-.17.1552-.3418c-.4853-.3525-.9707-.7051-1.8144-1.3174,1.0488-.3359,1.8066-.5781,2.73631-.8759-.15431-2.2256-.31251-4.4961-.50681-7.293-1.3379,2.5625.6045,5.0098-.6143,7.0312-.1894,0-.37789-.0019-.5674-.0019a5.373,5.373,0,0,1-.3037-1.251c-.0019-1.9189.126-3.8408.0625-5.7568a46.7445,46.7445,0,0,0-.48629-5.1914c-.22761-1.5596.208-1.9473,2.10249-1.5371-.31149,2.2968,1.1094,4.3418.7881,6.7832-.2959,2.2461.2695,4.6035.4395,6.914a2.95518,2.95518,0,0,1-.0352,1.4024,1.71793,1.71793,0,0,0,.2803,2.1152,1.86508,1.86508,0,0,1,.0146,1.7715c-1.6572,2.1308-1.21579,4.539-1.1347,6.9121.0234.7148.0673,1.4297.1064,2.2363a5.587,5.587,0,0,0,.9912.5723,2.16294,2.16294,0,0,1,1.5694,2.3857,8.39935,8.39935,0,0,0,.0556,2.1514,12.40851,12.40851,0,0,0,1.4649,3.6406c-.0205.1543.0146.3955-.0703.4492-1.8555,1.1875-1.8868,2.9649-1.6299,4.8604.375,2.7715.791,5.54,1.0625,8.3223.1777,1.8261.123,2.2744,2.6006,2.6611a5.66467,5.66467,0,0,1,.8037.2344c-.3135,2.125-.6045,4.1543-.9219,6.1797-.0586.3789-.1094.9287-.3584,1.0781a17.71,17.71,0,0,1-4.5586,2.4179c-1.2881.3165-2.8047-.2919-4.2197-.4941a.52658.52658,0,0,1-.2207-.0898c-1.4922-1.0254-1.92089-2.7032-2.4522-4.2559-.42869-1.248-1.625-2.5078-.3701-3.9687.1729-.2012.1172-.5977.19041-1.0469H242.919c.2461-4.6553.4853-9.1758.7236-13.6944a15.24674,15.24674,0,0,1-2.0928-1.3144c-.6767-.5947-1.1738-1.2734-.249-2.208a3.30027,3.30027,0,0,0,.5273-1.7422c.1768-1.1836.1924-2.3965.4395-3.5625.1123-.5332.53511-1.3086.956-1.4121,1.2959-.3184,1.3682-1.211,1.3243-2.1973-.1299-2.9463-.25-5.8945-.49119-8.832C244.00589,38,243.45409,37.4248,242.957,36.5029Zm2.1094,24.9483c-.8076,3.9414-1.7265,7.8652-.6221,11.9277,1.7696-.0273,3.3477.5039,4.8262-.4141-.1113-.9921-.1963-1.8593-.3095-2.7226-.3965-3.0078-.8047-6.0156-1.2042-9.0244-.1103-.8311-.2783-1.583-1.58-1.3213.0322.4082.0586.7773.0918,1.1465.2295,2.5322.4922,5.0625.6679,7.5996.0469.664.0137,1.4804-1.3222,1.5762C245.4297,67.2559,245.24809,64.3535,245.06639,61.4512ZM240.8457,77.2773c3.59079.959,6.85839.0547,10.07029-1.0976.38871-.1387.5371-.9473.8721-1.5918-3.8252-.8164-7.2529.3965-10.6543.0762C241.03129,75.5928,240.95609,76.2715,240.8457,77.2773Zm6.98539-21.871c.51661-3.8165.3271-4.585-1.291-5.2745v3.8741c-.7715-.1993-1.3458-.3477-1.86039-.4805-.12211-1.0713-.22461-1.9727-.37891-3.332a5.53875,5.53875,0,0,0-1.2852,5.2129Zm1.7285,24.4082c.3154-.8536.5312-1.4375.8418-2.2784-1.3584.2735-2.4141.4864-3.7383.753.4238.792.583,1.6015,1.01661,1.7949a7.06461,7.06461,0,0,0,2.88569.6055c.78131-.0098.9141-.7422.6524-1.4551C250.73629,79.4023,250.26559,79.5684,249.55959,79.8145Zm-.4834-22.0665a8.3131,8.3131,0,0,0-6.4033.6622c1.9785,0,3.5273.0429,5.0703-.0274C248.16019,58.3633,248.56149,58.0039,249.07619,57.748Zm-4.2158,24.4825c2.10931-.336,2.10931-.336,1.1582-2.0352C245.65629,80.832,245.32519,81.4141,244.86039,82.2305Z"/><path class="a" d="M244.54789,133.9082c-.3018,2.7959-1.41019,5.4785-1.1231,8.3613.1104,1.1104.0098,2.2412.1162,3.3516.0391.3984.4033.7646.711,1.3066-1.7002,2.8916.13471,6.4844-.9639,9.6895-.1953-.0117-.3916-.0234-.5869-.0352,0-4.7109.0596-9.4218-.0166-14.1308-.0791-4.8741-.3653-9.7461-.42189-14.6211-.05471-4.7959.03219-9.5947.11519-14.3916.084-4.876.1163-9.7588.3975-14.626.2715-4.6807-.22269-9.4014.1377-14.0771.2402.0048.4814.0107.7227.0156q.1581,2.09475.3164,4.1875c1.665.2685,1.39351-1.003,1.5449-1.46.8662-.3574,1.5039-.6201,2.4531-1.0117,0,.9512-.02049,1.7881.0059,2.623a7.21915,7.21915,0,0,0,.2021,2.6094,3.59562,3.59562,0,0,1-1.0439,4.544,2.66542,2.66542,0,0,0-.3653.5879,1.533,1.533,0,0,1-1.40329-1.8858c.54879-1.6621-.32811-2.9795-.61621-4.4355-1.0244,1.0507-1.3389,3.7773-.9307,8.1543a5.43692,5.43692,0,0,0,5.4034.8496c.2841.3984.5449.7627.8066,1.1279a110.73235,110.73235,0,0,0-.7764-17.0596c.1944-.0351.3897-.0713.584-.1074a5.57009,5.57009,0,0,1,.4151,1.2959c.208,3.1084.3369,6.2217.5595,9.3291.3086,4.3047.6983,8.6035,1.01271,12.9082.31939,4.3848.53709,8.7764.89459,13.1572.5205,6.3711,1.1328,12.7354,1.6933,19.1026q.5904,6.6855,1.1358,13.376a1.049,1.049,0,0,1-.4141.7783c-1.0615-3.2998-.6602-6.7998-1.4385-10.5108-1.5263,1.9248-1.6045,4.0049-2.4883,5.9659-.25779-2.2188.5098-5.2012,1.7871-6.3252a2.64609,2.64609,0,0,0,.8047-2.5772c-.3838-3.8984-.8252-7.792-1.1435-11.6963-.4737-5.8115-.8535-11.6299-1.28809-17.4443-.23051-3.084-.49121-6.168-.74021-9.2813-1.4444.1368-2.6221.1817-3.7754.375-1.5196.252-1.8438-1.0781-2.5332-1.9922-1.3077,2.7247-1.7227,31.6524-.5371,34.8086.3017-.2753.5732-.5224.8447-.7705Zm2.6396-42.9394V88.1094C246.14549,89.877,246.14549,89.877,247.18749,90.9688Z"/><path class="a" d="M244.60549,133.9736a10.13435,10.13435,0,0,1,1.4463-5.5029,18.32085,18.32085,0,0,1,1.2675-1.6123,17.429,17.429,0,0,1-1.038,2.1426,3.64757,3.64757,0,0,0,.2031,4.3603c2.0527-.584.4336-1.8183.5928-2.7636.5771-.3497,1.1679-.709,1.7197-1.043-.5283-.9629-1.0029-1.8281-1.4785-2.6934.9707.6192,1.9404,1.2373,3.0049,1.916.2128,1.1241-2.3584,1.627-.60359,3.6211.336-.7656.64069-1.457.94439-2.1484.2207.1484.4404.2969.6611.4453-.5684,1.9981.7002,3.8379.2481,5.8623-.2959,1.3272,1.0136,2.5947.3007,4.043-.2529.5137.1495,1.373-.998,1.3115-.1729-.0078-.48929,1.0986-.5957,1.7139-.4209,2.4345-.7852,4.8799-1.1748,7.3506a.88086.88086,0,0,1-.6299-1.3565c1.2412-1.8291.3965-3.2939-.58789-4.7871-.31741-.4805-.65531-.9473-1.25981-1.8164-.32519,2.2881-.4648,3.9707,1.1856,5.3779-.5957.3399-1.0947.625-1.6094.918a9.41873,9.41873,0,0,1-.31739-4.5088,17.13447,17.13447,0,0,0-.54681-5.1338,5.2199,5.2199,0,0,1,.0869-1.997c.2031-1.2774.8662-2.8633-.878-3.7627Zm4.6728,9.4375c.7071-1.9131,2.4942-3.4638,1.56941-5.6806a21.85836,21.85836,0,0,0-1.81351,3.7343,1.90121,1.90121,0,0,0-.0508.9278A6.97866,6.97866,0,0,0,249.27829,143.4111Zm-1.2158-6.8496q-.45855-.05715-.915-.1123c-.1035.9141-1.3115,1.7197.36721,3.1524C247.73439,138.3809,247.89849,137.4707,248.06249,136.5615Zm-1.2724,4.0049q-.2007.1758-.40339.3496c.55669.8203,1.11329,1.6406,1.77739,2.6201C249.11519,141.5518,247.584,141.2764,246.79009,140.5664Zm3.2353-6.3945c-.1406,1.039-.2812,2.0761-.4775,3.5293C250.543,136.3809,251.10059,135.415,250.02539,134.1719Zm-1.4512,1.2011c1.1494-1.0224.9707-1.7382,0-2.6601Z"/><path class="a" d="M244.65039,109.0566c.2871-1.2988.5742-2.5996.90531-4.0976,1.30469.8808-.5,3.4521,2.22749,3.1015.1104-.5703.2354-1.2187.3604-1.8671-.2666,1.7763,1.0849,3.2402.7539,5.0644-.291,1.6035.1377,3.3369.251,5.0518.2929-.0635.6298-.1377,1.07221-.2334q-.82037,1.5381-1.53321,2.8691c-.3457-.5127-.7637-1.1328-1.2422-1.8437-.4609.3906-.7802.6601-1.4013,1.1875a18.67251,18.67251,0,0,1-.36429-3.4727c.08889-1.0312.30179-1.9375-.93461-2.1543.3838-1.3848.6934-2.5019,1.0694-3.8613-.6397.1094-.9307.1582-1.2207.207Zm2.03031,2.8789c1.69239-1.4052,1.68549-1.7519,0-2.5566Zm.96779,4.4766c.4326-1.2656.83-2.1836-.3809-3.0596A2.57763,2.57763,0,0,0,247.64849,116.4121Z"/><path class="a" d="M243.294,157.5469c2.2636.1601,4.2636.3027,6.2636.4433.041-.1142.084-.2285.126-.3437-.37789-.3008-.75489-.6016-1.4697-1.1719,2.8916.207,5.414.3867,7.9189.5664-1.1142,1.0986-1.5117,1.1992-6.2939,1.5645C246.47849,158.8613,244.78709,158.627,243.294,157.5469Z"/><path class="a" d="M245.03029,122.3145c1.8057.0888,3.375.166,4.9453.2421.0322.085.0645.17.0967.2539-1.0371.3946-2.0742.7891-3.4444,1.3086C246.16309,123.7813,244.67189,123.876,245.03029,122.3145Z"/><path class="a" d="M245.85349,119.0469q1.1397,1.04,2.2793,2.082C246.89939,120.8535,245.48339,120.7891,245.85349,119.0469Z"/><path class="a" d="M246.01759,125.3828q1.062-.2373,2.124-.4717c.0479.1612.0947.3223.1426.4834q-1.0254.31935-2.0488.6387Q246.12544,125.708,246.01759,125.3828Z"/><path class="a" d="M252.43949,147.8926c.2705-.5117.542-1.0244.8261-1.5606.1963.1192.3965.2325.3926.2383-.26849.5195-.5547,1.0293-.8379,1.541C252.69339,148.0381,252.56639,147.9648,252.43949,147.8926Z"/><path class="a" d="M244.59379,109.0078q-.15975.7764-.3213,1.5508c-.6211-.8027-.2324-1.2051.3779-1.502Z"/><path class="a" d="M101.09279,41.417c.2451.833.4453,1.5098.7251,2.4609a400.38013,400.38013,0,0,1,46.5322,6.3975,40.76253,40.76253,0,0,1,.166,4.3935c-.4345,6.8555-.936,13.7081-1.4575,20.5596a16.73822,16.73822,0,0,1-.6001,2.7754c-.50979,2.0293-1.085,2.2227-3.1694,1.8174-3.3628-.6543-6.7583-1.1416-10.1499-1.6348-2.7461-.4013-5.501-.7529-8.2637-1.0146a1.88083,1.88083,0,0,0-1.5283.7168,7.79936,7.79936,0,0,1-3.2759,3.0302c-3.085,1.7999-6.1162,1-7.85159-2.2255-.45021-.836-.79781-1.7286-1.25241-2.7266-2.4312-.335-4.854-.8037-7.2974-.9629a57.53766,57.53766,0,0,0-5.9355.1953,5.41491,5.41491,0,0,1-1.3975.0196c-3.7285-.8731-7.4111-2.0196-11.1826-2.5918-2.0581-.3125-3.85059-1.3008-5.8691-1.5684-1.9712-.2598-3.94049-.5391-5.9473-.8164-.3628.5859-.7314,1.1055-1.022,1.666-1.3564,2.6133-3.8188,3.4951-6.4336,4.1133a2.1004,2.1004,0,0,1-2.4575-.8906,2.95167,2.95167,0,0,0-.8413-.7891,5.751,5.751,0,0,1-2.977-5.1416c-3.5083-1.9482-7.3892-2.1338-11.2696-2.8916a11.44369,11.44369,0,0,1,.0933-1.9727c1.8159-7.7324,2.3496-15.6328,3.1172-23.5039.0547-.5576.0879-1.1191.1919-1.667a3.10811,3.10811,0,0,1,3.8598-2.7685c4.1035.5478,8.20361,1.123,12.5078,1.7158.4581-1.6934,1.92681-1.7168,3.6084-1.417,3.2207.5733,6.4478,1.1221,9.6861,1.583,2.5215.3594,5.0659.5401,7.5947.8555A60.83437,60.83437,0,0,1,101.09279,41.417ZM58.98,67.2041q.08057-.37935.1611-.7598c-1.979-.4687-3.94139-1.038-5.94139-1.3789-2.38331-.4033-2.65871-.6377-2.46821-3.0986a16.29616,16.29616,0,0,1,.2031-1.667c.9922-5.3418,2.1968-10.6572,2.0224-16.1445a2.164,2.164,0,0,1,.1182-.6992,2.44375,2.44375,0,0,1,2.7964-1.5801c1.6426.2812,3.2959.5166,4.9536.6914a1.72232,1.72232,0,0,0,1.3164-.3379c1.0454-1.2344,2.2705-.8145,3.5069-.5586,1.0957.2236,2.1865.4893,3.2919.6494,7.7544,1.126,15.5142,2.2178,23.2681,3.3506,2.2149.3252,4.4175.7383,6.6226,1.124,2.5981.4531,5.1821,1.0098,7.7929,1.3653,7.2832.9902,14.5791,1.8867,21.8662,2.8505,4.8999.6485,9.794,1.3457,14.68951,2.0264,1.49609.207,1.89789.7041,1.76169,2.2363-.042.4717-.2666.9258-.3159,1.3995-.3286,3.1982-1.4473,6.3398-.5937,9.8837a21.34471,21.34471,0,0,1-2.3902-.0488c-8.958-1.1885-17.9116-2.414-26.8721-3.5908-1.4697-.1934-2.9663-.1846-4.5761-.2744a57.15841,57.15841,0,0,0-.65769,11.6191c1.31-2.0762,2.37149-4.0283,3.69329-5.7822a5.81717,5.81717,0,0,1,6.2422-2.1074,5.877,5.877,0,0,1,4.6401,4.375c.4537,1.6611.7066,3.3769,1.0811,5.2265.8442.1582,1.7744.3623,2.7134.503,3.3974.5078,6.7973,1.0127,10.2011,1.4843,1.8965.2627,3.8003.4639,5.7027.6827a1.50869,1.50869,0,0,0,1.9062-1.3379c.2193-1.4844.4283-2.9746.5337-4.4698.3418-4.8662.63921-9.7343.9444-14.6025.0952-1.5137.2514-3.0303.21681-4.542-.05081-2.2861-.32231-2.6182-2.522-3.0762-3.04691-.6367-6.10211-1.2666-9.17871-1.7226-5.7666-.8555-11.55029-1.6055-17.3321-2.3633a76.47572,76.47572,0,0,0-8.5576-.9346c-2.9184-.0459-5.8027-1.2402-8.7514-.2959-.1778.0576-.4268-.1279-.6465-.1865a19.84081,19.84081,0,0,0-2.499-.6172,231.50232,231.50232,0,0,1-26.2403-4.3349c-5.1909-1.2373-10.5132-1.9385-15.7915-2.7862-1.7905-.289-2.7895.5323-3.1846,2.3477a29.977,29.977,0,0,0-.4282,3.0869c-.769,6.9756-1.2182,13.9941-2.7168,20.875a11.51944,11.51944,0,0,0-.0976,1.7529C52.72609,66.043,55.85259,66.624,58.98,67.2041ZM95.8237,72.3633c-.184-4.166,1.72859-7.6563.85359-11.3184-11.6914-1.4433-23.4288-2.0547-34.9473-4.248-.7422,3.1279-.7451,3.3203-.1348,5.4844a11.83606,11.83606,0,0,1,2.0806-1.1309,8.958,8.958,0,0,1,3.1934-.625,7.34851,7.34851,0,0,1,6.9033,6.46c.1347.7666.3237,1.5244.4306,2.0263,5.0127,1.124,9.7295,2.2852,14.4917,3.2158,3.5977.7032,7.2461,1.1778,10.8868,1.627,2.2109.2725,4.4502.3066,6.6762.4473.6143.039,1.229.08,2.0137.1298.1099-2.1298.2139-4.1103.3125-6.0937a46.41114,46.41114,0,0,0,.3828-5.8389c-3.84909-.5312-7.3564-1.0136-10.8486-1.4941a49.37812,49.37812,0,0,1-.8281,5.6582C96.836,68.3828,97.6997,70.4541,95.8237,72.3633Zm14.66749-12.3819a26.74414,26.74414,0,0,1,3.44051.0586c3.55509.5342,7.09419,1.167,10.643,1.752.84039.1377,1.68749.2344,2.57079.3555.3526-2.5616.709-4.835.9605-7.1172.1059-.9639-.5244-1.4082-1.4639-1.5225-4.6606-.5625-9.3188-1.1562-13.98-1.7197a4.545,4.545,0,0,0-1.0669.1748C111.23679,54.5654,110.88329,57.1318,110.49119,59.9814ZM140.4097,64.084a35.297,35.297,0,0,0,.87939-8.4199c-3.8399-.5293-7.4107-1.0196-11.1216-1.5313-.7061,2.8643-1.4414,5.5068-.8003,8.4317C133.064,63.0742,136.58989,63.5596,140.4097,64.084ZM86.32279,47.3887c-.523,3.4043-1.9522,6.5263-.8272,10.0068,3.1675.2246,6.2105.4414,9.0567.6445.434-3.1504.8198-5.957,1.2158-8.833-2.4087-.5166-4.5762-.999-6.7525-1.4384C88.17339,47.5977,87.313,47.5244,86.32279,47.3887Zm-17.3379-2.9561c-2.22119-.0224-4.2114-.9902-6.3145-.083-.3032,3.3125-.5918,6.4619-.8965,9.7852,2.1529.2968,4.0083.5517,5.9781.8232C68.53129,51.4766,69.38229,48.1602,68.98489,44.4326Zm15.5132,2.4678c-2.1719-.2988-4.0909-.5635-6.354-.8731-.2373,3.6016-.46439,7.0391-.7027,10.6524,2.0318.1484,3.8877.2832,5.6538.4121C83.5757,53.6016,84.02539,50.3369,84.49809,46.9004Zm-12.8135-2.1367c-.6475,1.5527-1.8408,2.6084-1.5728,4.3476a41.982,41.982,0,0,1,.1153,4.7637,1.71555,1.71555,0,0,0,1.2461,1.8408c1.4492.3281,2.9204.5606,4.54051.8613.23439-3.7949.44919-7.2529.67379-10.8906C74.939,45.3633,73.39159,45.0781,71.68459,44.7637Zm-2.1572-6.8741c-.0108.2647-.021.5303-.0308.795,5.0478,1.0351,10.0752,2.1992,15.1509,3.0791,8.3681,1.4502,13.97021,1.791,15.6689,1.081a6.16892,6.16892,0,0,0-1.4736-.7968c-3.1958-.6426-6.3926-1.3047-9.6138-1.8077-3.144-.4892-6.3218-.7646-9.4765-1.1943-2.7623-.3789-5.5093-.8643-8.2725-1.2461A10.29617,10.29617,0,0,0,69.52739,37.8896ZM54.711,63.8975c.9536-6.1553,1.5244-12.0694,1.9848-18.0938-.6997-.0967-1.2134-.167-1.6977-.2344-1.0806,2.8018-2.8121,14.044-2.6836,17.5059C52.96629,63.2998,53.68559,63.5459,54.711,63.8975Zm2.7788-7.3457c.0444.0068.0893.0146.1347.0205-.206,1.497-.4614,2.9922-.5991,4.4961a8.78142,8.78142,0,0,0,.1416,2.3505,1.07462,1.07462,0,0,0,.7388.7139c.27491.0166.66991-.3291.8364-.6191a3.32565,3.32565,0,0,0,.2573-1.1543c.5991-3.9854,1.2134-7.9688,1.7705-11.9571a15.822,15.822,0,0,0,.105-3.1005c-.021-.3702-.4502-1.0088-.69429-1.0079a1.5953,1.5953,0,0,0-1.26561.6377,11.804,11.804,0,0,0-.9356,3.1875C57.72219,52.2529,57.64259,54.4072,57.48979,56.5518Zm50.0712,1.5869c.07771-1.6924.168-3.169.20371-4.6446.02389-.9746-.57041-1.4082-1.48491-1.5244-1.3379-.1679-2.6729-.3633-3.9233-.5361a6.84825,6.84825,0,0,0-1.9004,5.7275C102.82329,57.4873,105.0117,57.7881,107.561,58.1387ZM64.47759,71.2275c1.3667.9766,2.5893,1.2266,3.8427.2041,1.2866-1.0488,2.2173-2.3066,1.96541-4.081a3.84552,3.84552,0,0,0-3.396-2.8623c-1.24611-.0362-2.15731.8232-2.40041,2.6377A31.03563,31.03563,0,0,0,64.47759,71.2275Zm53.0459,7.4541a12.80856,12.80856,0,0,0,1.8959-1.2968c1.90731-1.9131,1.6597-4.7608-.456-5.8614a2.89059,2.89059,0,0,0-3.0532.6387c-.833.876-1.2271,2.3008-.7554,3.044C115.85259,76.3047,116.61719,77.3604,117.52349,78.6816Zm.4941-11.6084c-.0425.1231-.084.2461-.1265.3682q1.68091.6474,3.3594,1.2949c.0547-.1523.1074-.3066.1611-.4599C120.27979,67.874,119.14889,67.4756,118.01759,67.0732Z"/><path class="a" d="M61.21829,157.9307c-.148.3203-.0484.7168-.5948.8701-3.1196.8779-6.2192,1.8281-9.331,2.7353-.8023.2334-1.6323.3682-2.4326.6094-1.1201.3379-2.2227.7354-3.3355,1.1016-.3652.1191-.7348.2236-1.4834.4492,1.5044-1.54-.1635-2.7754.336-4.252.1972-.1084.5673-.3115.8501-.4677-1.8257-7.7539-3.6353-15.4434-5.4766-23.2627.5718-.1934.9653-.3575,1.374-.4629,2.8555-.7403,5.7383-1.3848,8.562-2.2305,2.01521-.6045,3.9229-1.5635,5.93021-2.207,2.33639-.7481,4.73929-1.2891,7.09229-1.9893,2.4956-.7422,4.9478-1.6338,7.4526-2.3408,2.4092-.6807,4.8638-1.1973,7.292-1.8096,3.044-.7705,6.0972-1.5097,9.1187-2.3652,2.833-.8047,5.6289-1.7393,8.4809-2.6309-.0854-1.1543.7276-2.2363-.332-3.3642-.3486-.0039-.8506-.0069-1.4287-.0117.3467.749,1.4917.3505,1.5425,1.2753-.0904.0948-.166.2295-.2188.2227a9.28107,9.28107,0,0,0-4.5678.8428c-2.6709.9619-5.40869,1.709-8.0796,2.6494-2.16509.7637-4.4175,1.0684-6.6045,1.6777a4.35329,4.35329,0,0,0-2.0659,1.0293,4.38559,4.38559,0,0,1-1.3794.8057c-1.25929.5449-2.53129,1.0605-3.8096,1.5586-.9072.3545-1.8193.7021-2.7515.9824a24.692,24.692,0,0,1-2.8511.6885,4.83634,4.83634,0,0,1-2.3017.125c-1.2627-.4707-2.3237.0703-3.416.3594a18.94406,18.94406,0,0,0-2.77439,1.2138.89085.89085,0,0,1-.39511.1133c-2.5258-.1572-4.7461.9688-7.0756,1.6494-1.5928.4668-3.2139.835-4.8194,1.2598-.9145.2402-1.9897.1709-2.5141,1.3398-.3643-.2949-.69-.5595-1.0176-.8252-.3189.1084-.63719.2168-.9634.3282-.3516.8408-.7046,1.6855-1.1133,2.6611,1.3281.0078,1.5781.8799,1.8233,1.8789.4204,1.7158.997,3.3926,1.4619,5.0977.9956,3.6523,1.9492,7.3154,2.94531,10.9667.41309,1.5176.91309,3.0108,1.32519,4.5274.123.456.4746,1.0713-.5161,1.3643-.1323-.4112-.2798-.7969-.3814-1.1954-1.1269-4.4296-2.2011-8.874-3.3838-13.29-.6484-2.418-1.4892-4.7842-2.2163-7.1836a1.7433,1.7433,0,0,0-1.1811-1.333c-.9229-.3252-.9536-.6494-.503-1.5918a2.28794,2.28794,0,0,0-.5473-3.1406c-.4805-.4893-.939-.9971-1.5361-1.6338-1.5845.2392-3.3296.4639-5.0567.7793-1.1938.2178-2.3623.5859-3.5527.832a1.22758,1.22758,0,0,1-.9536-.1592c-.8018-.7646-1.5303-1.6064-2.3448-2.4834,2.3599-.6552,4.5342-1.2588,6.7071-1.8623-.0127-.0498-.02639-.1006-.0391-.1513a21.23,21.23,0,0,0-3.84029.9609c-1.13481.5098-2.041.0186-3.26711-.0254.9189-1.3516,2.5259-.8389,3.4458-1.8115-.3452-.4317-.7554-.7041-1.19969-.21a2.5624,2.5624,0,0,1-3.06351.5391c.2544-1.5254,1.9351-.1494,2.4092-1.166-1.3164-1.2305-1.4683-2.1035-.5664-3.7598a10.33742,10.33742,0,0,1,1.0078.7236,1.33739,1.33739,0,0,0,1.624.3057,16.47054,16.47054,0,0,0,4.8062-3.4248c-.4995-.9678-.9781-1.8955-1.4678-2.8447,4.8701-1.1455,9.5683-2.1612,14.2153-3.375,3.7525-.9795,7.4898-2.0176,11.1494-3.3604,2.6162-.9599,5.4121-1.4355,8.1275-2.1318q4.8552-1.24365,9.707-2.4981c3.1895-.8232,6.36331-1.7177,9.5728-2.4599a84.83743,84.83743,0,0,0,11.601-3.8565c.3213-.125.6348-.2734.9634-.3711a2.823,2.823,0,0,0,1.8579-1.5566,11.88909,11.88909,0,0,1,.9009-1.3105c.48731,1.4892.9229,2.6152,1.2124,3.7802a1.201,1.201,0,0,0,1.3286,1.0772c.5401-.0117,1.0821-.0264,1.6192-.0811.4702-.0459.8515-.2304.8955-.7959a1.4632,1.4632,0,0,1,.1689-.5595,1.26135,1.26135,0,0,1,2.1524-.4678c.3388.2676.6381.5859,1.0039.9258.2392-.2832.4375-.5157.7465-.878.4595.9912.8614,1.8565,1.2647,2.7256.5747-.0498,1.0796-.0928,1.8418-.1572-.62159.9599-1.625.8017-2.1812,1.3896.2832.0635.5523.125.836.1885a5.79476,5.79476,0,0,1-2.1973,1.9199q-3.8775,1.1412-7.7529,2.2891c.0293.1006.0596.2002.0884.3008,2.0927-.6162,4.1943-1.211,6.2768-1.8623a5.77739,5.77739,0,0,1,2.9649-.1299c.17571.748.3559,1.4238.4902,2.1084.14651.7373-.4146.9033-.93749,1.0771-1.25781.419-2.51951.8262-3.77541,1.253-1.1123.3769-2.2192.7724-3.2944,1.1504-.4951,2.2158-1.2608,4.3242-.8848,6.8164-.4331-.21-.7978-.2735-.8418-.4287a3.98666,3.98666,0,0,1-.123-1.3057,25.11223,25.11223,0,0,1,.2817-2.8897,8.03995,8.03995,0,0,1,.7231-1.6396,30.15329,30.15329,0,0,0-5.7905,1.6201c.4527.9736,1.1753.7168,1.7368.6524a1.5879,1.5879,0,0,1,1.5777.5234c.2422,2.4668.4614,4.7568,2.0068,6.7129a3.10133,3.10133,0,0,1,.4995,2.751c-1.4062-.5928-1.15869-2.1426-2.0014-3.0127-.0235,1.2373,4.2685,14.747,5.4052,17.0957.8281.042.85451-.4473.7071-1.0596-.3091-1.291-.6031-2.5859-.9239-3.875q-1.3872-5.581-2.8003-11.1553c-.1938-.7588-.5039-1.4883-.7358-2.2402a8.1243,8.1243,0,0,1-.1738-.9209c.6914-.251.79.1894.8877.5586.7812,2.9433,1.5717,5.8847,2.3154,8.8379.7432,2.957,1.3345,5.9551,2.18211,8.8808.70709,2.4424,1.68019,4.8096,2.55709,7.2012a5.52409,5.52409,0,0,0,.5982.9316c-5.27929,2.8096-10.9868,4.1514-16.6216,5.709-.0469-.1054-.09369-.2109-.1411-.3154a2.938,2.938,0,0,1,.6523-.4033c1.4595-.4317,2.94-.7959,4.3902-1.2588,2.4775-.792,4.9404-1.6279,7.4023-2.4707.5318-.1826.5152-.2305.5503-1.127-1.1758-.1113-1.1758-.1113-1.28169,1.0069-.35741-.1973-.75391-.5977-1.03961-.5303a4.23192,4.23192,0,0,0-1.2441.7842c-2.999.8769-6.1485,1.2861-8.94729,2.873-1.03321-.2871-1.20991-1.2021-1.44191-2.041-.9985-3.5986-1.9717-7.2041-2.95409-10.8047q-1.22237-4.48245-2.44721-8.9638c-.3052-1.1202-.5977-2.2432-.9141-3.4346-.7319.1719-1.2788.2998-1.8984.4463a6.48554,6.48554,0,0,0,.1123,1.0674c.6543,2.3173,1.3271,4.6269,1.9975,6.9384a21.882,21.882,0,0,0,1.4312,4.626c.6714,1.2022.5664,2.584,1.3525,3.7315.4331.6318.3433,1.6054.5664,2.4033.2774.9931.63581,1.9638.9595,2.9443.0464.1387.05131.3379.1489.4092,1.5518,1.1465.96141,3.0693,1.8262,4.4404-.2554.1231-.3677.2178-.4121.1924a5.63953,5.63953,0,0,0-3.0503-.8496,4.42051,4.42051,0,0,1-1.2857-.3047.92989.92989,0,0,1-.7749-.9404,7.96533,7.96533,0,0,1-.1279-.8711c.0825-.9971-.5044-1.3731-1.3345-1.6416-1.1206-.3643-2.2197-.7949-3.3193-1.2217a6.10989,6.10989,0,0,1-.8374-.4844c.0376-.0947.0737-.1894.1099-.2851.64741.2216,1.2963.4433,2.1709.7422-.5108-1.1631-.9297-2.1182-1.3897-3.1661a12.23218,12.23218,0,0,1-1.27679.6309,15.2734,15.2734,0,0,1-1.53671.374c-.0019.4522-.0034.9629-.0048,1.5293-1.3877,1.3838-3.37649.6709-5.0254,1.4571a2.33205,2.33205,0,0,0-3.3223-1.1192c.1924.6543.38821,1.3252.6528,2.2305.3658-.5606.585-.8936.9517-1.4561a2.62133,2.62133,0,0,1-.4815,2.1367c-.7485,1.3838-1.4716,2.7881-2.3256,4.1055a12.21111,12.21111,0,0,0-1.5747,4.8047c-.1119.6826-.6753,1.1191-.9624,1.041-.7378-.2012-1.5679.2881-2.2183-.3183a8.44121,8.44121,0,0,0-1.5786.1806c-2.3809.7373-4.7447,1.5264-7.1153,2.2979.0308.0927.06111.1855.0918.2802Q56.90264,159.33115,61.21829,157.9307Zm-30.3184-39.4981q-.70228-.2256-1.4053-.4541c-.0444.084-.0888.169-.1333.251.19241.2949.3853.5879.5972.9092.3691-.2881.668-.5225.9668-.7559.42241.7588.8462,1.5166,1.2275,2.2012.315-.1133.5933-.2129,1.1055-.3965-.70359,1.7656-2.2524,2.6885-2.8891,4.3125a1.80208,1.80208,0,0,0,1.8056-.7334c.7617-1.0771,1.65191-2.0635,2.4883-3.0869.28661-.3516.4487-.8643,1.3555-.8877-1.2041,1.6875-2.2676,3.1758-3.4346,4.8096a2.3777,2.3777,0,0,0,1.9145-.9424,2.63956,2.63956,0,0,1,1.3741-.9824,3.12373,3.12373,0,0,0,2.1025-1.6631c.4404-.711.8525-1.4385,1.2993-2.1446a3.62076,3.62076,0,0,1,.5108-.5341c.0952.0634.1899.125.2846.1875-.6172,1.1601-1.2343,2.3193-1.91209,3.5937,1.52829-.1875,1.628-.2187,1.90679-.6748.5859-.96,1.1548-1.9307,1.75-2.8848a1.94646,1.94646,0,0,1,.4497-.3798c.08351.0625.16651.1259.25.1884-.5137,1.0176-1.0279,2.0352-1.6314,3.2334a19.01462,19.01462,0,0,0,7.5415-1.9697,7.61162,7.61162,0,0,1,.3843-1.5322c.3057-.6035.7935-1.1104.6875-1.8799-.0127-.0986.3809-.2539.6587-.4287.4404,1.3789-1.0273,2.1865-.8013,3.3183a8.17229,8.17229,0,0,0,4.97221-1.2587,7.422,7.422,0,0,1,1.52439-.5391c.3482-.1318.6792-.3057.9859-.4453-.1226-.8994-1.0411-1.6279-.1851-2.5322.3647.8857.707,1.7168,1.0615,2.58.7178-.1689,1.23831-.2871,1.75731-.416,4.04689-1,8.07719-2.0752,12.14749-2.9795a31.5221,31.5221,0,0,0,6.6021-2.3222c-1.1724-.8125-2.8038-.794-3.1709-2.336a18.51461,18.51461,0,0,1,3.27631,1.6328,1.96144,1.96144,0,0,0,1.88819.3233q4.30515-1.0284,8.6074-2.0684c.2383-.0586.4678-.1504.7022-.2217,2.5371-.7568,5.0727-1.5244,7.61421-2.2666a7.62611,7.62611,0,0,0,3.62549-1.8466,2.77315,2.77315,0,0,1,1.271-.626,10.20575,10.20575,0,0,0,2.93651-1.1973c-1.73921-.3027-3.46091-.4404-5.17721-.626-1.7774-.1933-3.5474-.4306-5.6143-.6855.5923-.8662.9883-1.4483,1.482-2.1719a2.42513,2.42513,0,0,0-1.9717.8574,1.53528,1.53528,0,0,1-.65579.4737q-6.00137,1.7841-12.01411,3.5283c-3.4951,1.0098-7,1.9863-10.4981,2.9844q-6.0264,1.7211-12.0493,3.455c-2.2187.6358-4.4204,1.3418-6.6626,1.8819a115.79415,115.79415,0,0,0-12.4551,3.6094c-2.1186.7666-4.2954,1.374-6.4487,2.0429-.41409.128-.7817.0928-.8667-.6474q1.83992-.43365,3.6943-.8692a37.57876,37.57876,0,0,0-4.394.6143c-.1162.0205-.2105.1572-.3179.2431.2515.2657.4707.4991.7945.8418C31.41649,118.2529,31.1597,118.3408,30.89989,118.4326Zm60.6699,11.3233c-.6552-2.2198-.6552-2.2198-1.5703-1.9707.0684.1787.13721.3574.2124.5527-.3691.1973-.73919.3965-1.1469.6142-.2271-.3476-.399-.6093-.5479-.8398-1.1191.3272-2.15039.6455-3.19139.9238-.41361.1094-.813.083-.731-.5908,3.82179-1.1611,7.66559-2.3262,11.64849-3.5342-.2666-.2314-.3809-.4101-.4678-.3974a56.71011,56.71011,0,0,0-10.8369,2.7578c-.3965.1426-.7647.3603-1.1983.5674,1.1954,4.4785,2.35651,8.8271,3.54551,13.2793a10.43736,10.43736,0,0,0,1.50089-.3653c1.3174-.54,2.6519-1.0576,3.9102-1.7158a22.085,22.085,0,0,1,5.4824-1.6738c.5269-.1211,1.0899-.1729,1.4478.4316-.1602.419-.3228.8457-.4766,1.2461.3721.3008.6514.5283,1.062.8623a21.283,21.283,0,0,1-6.0698,2.0801c-2.021.5264-4.064.9668-6.40089,1.5166.42039.3135.63719.6074.86719.6182a5.39925,5.39925,0,0,0,1.457-.1709c3.1079-.7188,6.2857-1.2022,9.1773-2.6729.415-.2109.8506-.2178,1.041.5078-.5952.1992-1.1592.3418-1.6831.5733a1.18511,1.18511,0,0,0-.1533,1.9267c.29491-.0468.665-.1054,1.0044-.1592.1152-.4755.2133-.8759.3676-1.5087a5.40557,5.40557,0,0,0,2.0528,2.0087c.1172-2.1357-4.189-16.5634-5.5-18.6621-1.6294.3838-3.231.7598-4.9107,1.1563.3955,1.0762.7261,1.9756,1.127,3.0674a13.63148,13.63148,0,0,0-2.4019.291,12.94686,12.94686,0,0,0-2.0718,1.0498c-.1279-.9619.12551-1.3174,1.1524-1.4893C89.98339,129.917,90.708,129.8584,91.56979,129.7559Zm-26.6455-.6495a6.218,6.218,0,0,1-.86959.9288,3.4425,3.4425,0,0,0-1.498,2.7392A20.10038,20.10038,0,0,0,64.52,142.9121a2.54007,2.54007,0,0,0,2.2129,1.5108,15.09713,15.09713,0,0,0,7.7754-1.7168,1.6009,1.6009,0,0,0-.6968-.0079c-.4326.0782-.8881.2491-1.1162-.3418-.2334-.6044.27741-.7568.6157-1.0048,1.28471-.9424,1.2935-.9668.6626-2.7803a7.97685,7.97685,0,0,1-1.4853.5127c-.4497.0644-1.2891.0244-1.3359-.1416a6.60834,6.60834,0,0,1-.3833-2.8272c.1782-.9453,3.4272-1.1445,3.9003-.2695a5.982,5.982,0,0,1,.9776,3.4854,5.37328,5.37328,0,0,0,.4438,2.9414c.521-.1748.9834-.3086,1.4297-.4854,1.1231-.4424,1.38721-.8721,1.1226-2.0283q-.82259-3.5904-1.7261-7.167a6.978,6.978,0,0,0-2.665-4.1123,3.24745,3.24745,0,0,0-2.7735-.6367,13.45549,13.45549,0,0,0-2.5,1.2939c.7627-.04,1.3374-.0742,1.9116-.0986A11.59706,11.59706,0,0,1,72.65379,129c.8716.1006,1.4248.6201,1.229,1.3369a3.40821,3.40821,0,0,0,.333,2.0967c.21391.6816.33991,1.3906.48591,2.0127a43.86033,43.86033,0,0,1-9.18951,1.8652c-.5986-1.2685-.81149-2.5635-1.7514-3.5791-.6138-.6631.0131-1.7099.9082-1.9551.7983-.2177,1.5673-.5478,2.6694-.9433C66.2847,129.5713,65.33839,130.3291,64.92429,129.1064Zm-22.7617,11.2588c3.64111-1.3056,7.5298-1.6767,11.1807-3.2666-.16159-.4668-.2959-.8574-.4644-1.3437-1.0293.3496-1.938.7012-2.8711.9658-1.6079.4561-3.2383.8359-4.84709,1.291-1.12061.3164-2.22171.7041-3.42531,1.0889a53.03636,53.03636,0,0,0,2.6875,12.7695c2.1865-.7402,4.1699-1.4111,6.1523-2.082a.78681.78681,0,0,0-.0532-.2881c-.7808-1.1338-.6914-1.0762.0351-2.2168.8575-1.3467.9869-1.7695.1167-3.0605-.2954-.4395-.7465-.795-.5605-1.4356.4311-1.4834-.3613-2.5107-1.3892-3.6221-.5673.2461-1.311.3428-1.6626.7647-.8193.9853-.3051,3.5742.7378,4.5058.04741.0411.0093.1788.0122.2989-.3222.1552-.6547.3144-.98579.4736.03709.0791.07469.1602.11229.2402.2983-.1113.5981-.2226.7324-.2734.4239,1.1992.8164,2.3086,1.2442,3.5205-.62889.7959-1.23589-.5283-2.0181-.2812-.3486.1093-1.0532-.4746-1.40579-.9014a2.39767,2.39767,0,0,1,.02979-3.3379c-.1299,2.7412.0674,3.1836,1.5806,3.5186.4082-.4766-.0679-.7871-.2227-1.1602a8.95242,8.95242,0,0,1-.7778-2.0303c-.1938-1.3808-.2163-2.7861-.3062-4.1308C44.47219,139.9404,43.38039,141.3711,42.16259,140.3652Zm14.6548,9.7647c-1.0903-4.0283-2.1602-7.9795-3.2778-12.1065-1.2681.3955-2.4082.752-3.5616,1.1114.7544,1.8906.7984,1.8945,2.106,2.7441a2.88673,2.88673,0,0,1,1.2871,2.2324c-.9829-.3222-1.35639-1.4785-2.5259-1.3437a5.39515,5.39515,0,0,0,.3491,1.0039,4.562,4.562,0,0,1,.59041,3.5205,8.13491,8.13491,0,0,0,.00829,1.9336c1.5722.0371,2.9492-.9375,4.42671-.1934-.249.4903-.44281.8741-.77051,1.5225C56.08989,150.3555,56.39449,150.2607,56.81739,150.1299Zm3.3779-13.2403a4.82177,4.82177,0,0,1,.5376,1.5713,14.53243,14.53243,0,0,0,.6377,4.2598c.2056.8545.231,1.7529.4522,2.5996.6352,2.4258,1.3203,4.8369,2.0068,7.2471a16.47036,16.47036,0,0,0,.6465,1.5488q1.19745-2.18115,1.9541-3.5586c-.4077-.999-.7681-1.7373-1.0112-2.5137a32.26936,32.26936,0,0,0-1.2925-4.3388,26.81083,26.81083,0,0,1-2.0391-6.2852c-.07569-.3691-.1714-.7324-.2583-1.1045C61.23979,136.5225,60.78219,136.6826,60.19529,136.8896Zm22.6631-12.8291c.2046.8692.3701,1.5723.5659,2.4053,2.1787-.1289,4.13041-.998,6.12941-1.581,2.00879-.586,4.19439-.4766,6.19919-1.5362-.3349-.9238-.6425-1.7715-.9834-2.7099C90.71489,121.8037,86.854,122.9121,82.85839,124.0605Zm-23.6821,30.7686c.91941.0957,1.0796-.3506.9121-1.0723-.457-1.9638-.916-3.9277-1.355-5.8945-.8154-3.6465-1.6113-7.2969-2.42769-10.9424-.36181-1.6142-.75691-3.2236-1.12161-4.7754-.75339-.1826-1.1445.0088-1.1309.6621a8.26244,8.26244,0,0,0,.189,1.7305c.4287,1.8145.9253,3.6113,1.3589,5.4248.7427,3.1074,1.45161,6.2236,2.185,9.334a10.55575,10.55575,0,0,1,.68661,2.9961A4.84578,4.84578,0,0,0,59.17629,154.8291Zm-17.7637-16.6035a115.08628,115.08628,0,0,0,11.28611-3.3272c-.24121-.7441-.42771-1.3173-.59321-1.8281-2.0039.5752-3.8272,1.1113-5.6582,1.6211-1.8145.5078-3.6358.9893-5.4683,1.4854.0591.5146.0786.8545.1426,1.1855A7.60113,7.60113,0,0,0,41.41259,138.2256Zm40.919,8.3672c-.2251-3.1035-3.5708-13.5762-4.7754-14.7276.0703.3965.1054.667.167.9327.5146,2.2011,1.06,4.3935,1.5356,6.6035.1772.8193.6123,1.7041-.2588,2.4697-.1391.1221-.0776.5781.0151.8359.2632.7373.6094,1.4453.8877,2.1768A2.52011,2.52011,0,0,0,82.33159,146.5928Zm-25.3228,4.5859c-.6084.1436-1.1777.2471-1.7285.4141-1.1255.3369-2.22559.7666-3.3633,1.0566-2.1387.5459-4.2974,1.0186-6.44529,1.5313-.12111.0293-.22271.1464-.38431.2597.1328.3643.2578.708.397,1.0889a46.63484,46.63484,0,0,0,11.7646-3.333C57.16409,151.8379,57.10059,151.5664,57.00879,151.1787Zm11.3115-23.0224a23.11458,23.11458,0,0,0,3.27441-.8067,3.19243,3.19243,0,0,1,3.01959.4619c.3178.1875.6216.4004.9521.6162.3198-.6963.5957-1.2968.9048-1.9677.5132.3828.8916.665,1.2354.9189.0283.4307.0542.8076.0786,1.1846.063.0049.125.0088.18751.0127q.282-.71055.562-1.4229.19559.0909.39009.1836c.0967,1.0527-.7363,2.0645-.3047,3.2217,1.6123-2.5127,1.6499-3.1426.28861-5.4404C75.3667,126.001,71.68509,126.5215,68.32029,128.1563Zm15.8213,17.7587c-.4931-2.0957-.831-4.08-1.4448-5.9785-.5869-1.8174-1.1226-3.7207-2.6167-5.1094a2.71746,2.71746,0,0,0,.1123,1.1504c.54831,1.9844,1.0889,3.9717,1.6611,5.9493.4483,1.5517.9375,3.0918,1.4121,4.6357a1.50947,1.50947,0,0,0,1.4898,1.2051c.07131-.7188.1391-1.4043.2192-2.2217C84.61959,145.7031,84.41989,145.792,84.14159,145.915ZM81.771,117.0498c-2.1479.5059-4.2002.9883-6.3608,1.4971.5586.6738,1.0088,1.2168,1.2324,1.4863,1.26611.3447,2.2549.6113,3.3135.9004a1.84938,1.84938,0,0,1,1.5215-1.6943c.1738-.0352.36911-.4473.3876-.6993A10.26832,10.26832,0,0,0,81.771,117.0498Zm-24.0151,17.0225c-.062-.0069-.1241-.0137-.1866-.0215-.0288.4931-.06.9873-.082,1.4814-.0063.1319.0742.3496.0205.3858-1.0195.6787-.4585,1.6064-.292,2.372.6983,3.208,1.4873,6.3965,2.2593,9.5889a6.39965,6.39965,0,0,0,.4907,1.0127c.1641-1.1992.2881-2.1055.4214-3.0762-.3447.1797-.5991.3135-.853.4463-.1079-.0185-.2163-.0361-.3247-.0547a3.3503,3.3503,0,0,0-.2359-3.0341,3.94561,3.94561,0,0,1-.4472-1.9141c.0981-1.1963-.5528-2.3789-.01369-3.5762.08589-.1875-.02391-.4765-.07761-.7109C58.21579,136.0039,57.98339,135.0381,57.75589,134.0723ZM73.979,122.5664a10.38966,10.38966,0,0,0,3.8028-1.3408c-1.2623.0635-1.9454-.2168-2.3306-1.2461a1.424,1.424,0,0,0-1.5899-1.0264c-.8667.1934-1.70159.5283-2.4638.7744a8.35584,8.35584,0,0,0,.9267,1.5596A12.309,12.309,0,0,0,73.979,122.5664Zm-23.00729,6.707c-.00391-.0947-.00781-.1884-.01221-.2832-.6216-.2754-1.25-.5381-1.86279-.833-.54791-.2636-.72661-.9629-1.53131-1.0166-.9033-.0635-.7968.9199-1.4443,1.0567-.6475.1347-.625.6611-.5117,1.1767.0932.417.1948.8311.3315,1.4121C47.71929,130.252,49.3457,129.7627,50.9717,129.2734Zm-20.60111-8.7998a1.90817,1.90817,0,0,0-.3623.1748c-1.6933,1.3184-3.3779,2.6475-5.07859,3.9551a1.81055,1.81055,0,0,1-.90331.4463c-.2954.0147-.6055-.2324-1.0249-.4141.07321.3096.07321.6153.1645.6456a5.22742,5.22742,0,0,0,1.94971.496,3.88187,3.88187,0,0,0,2.27539-.8007A11.61661,11.61661,0,0,0,30.37059,120.4736Zm31.6148,30.4405c-.2998.7568-.3614,1.3916-.71,1.6943-.7393.6426-.5244,1.2578-.2383,1.9561a3.51084,3.51084,0,0,1,.3819,1.1074c.0351,1.0898.8359,1.3818,1.57371,1.8154,1.17529-2.2607,1.16059-2.9687-.14011-5.1465a5.71981,5.71981,0,0,0-.1583,2.6953c.147.4336.0826.8809-.6489.9297C61.6177,154.373,62.57179,152.7861,61.98539,150.9141Zm-17.8262-22.2745c-1.0547.1465-1.93849.2686-2.7744.3848-.252,1.1172-.46,2.0391-.68309,3.0254,1.32269-.3105,2.52879-.5957,3.831-.9023C44.41309,130.3467,44.30809,129.6377,44.15919,128.6396Zm-8.1441.8858c-.2353,1.0713.70461.1435.9869.7148.0581.25.1679.7149.2768,1.1778-.2275.1787-.4365.3437-.8086.6386.60451.3428,1.0777.6114,1.5103.8555.9116-.9189-.88479-2.584,1.0068-3.0615.2901.5215.5259.9473.9365,1.6846.2247-1.2247.3848-2.1016.563-3.0625C38.875,128.8525,37.44679,129.1885,36.01509,129.5254Zm68.8643,15.7715c-.6934-2.0293-1.3174-3.874-1.958-5.7139-.1284-.3691-.2935-.7842-.8271-.583-.5171.1963-.3692.6299-.2754,1a12.04947,12.04947,0,0,0,1.8715,4.5205c-.0752.4727-1.1821.418-.5463,1.2754C103.626,145.6563,104.13089,145.5127,104.87939,145.2969Zm-22.0835-27.3262c.4155,1.2959-.602,1.7529-1.5151,2.5898,1.1587-.2734,1.9814-.4248,2.7778-.666.7842-.2363,1.542-.5605,2.4316-.8916-.27049-.664-.4863-1.1914-.7636-1.8691C84.73439,117.417,83.81249,117.6807,82.79589,117.9707Zm5.6406.4316c1.3453-.5878,2.6665-.5634,3.6646-1.3964a2.8711,2.8711,0,0,0-4.5796-.4004C87.78519,117.124,88.08009,117.7031,88.43649,118.4023Zm-32.372,6.3077a4.43473,4.43473,0,0,1-.9532,3.5566c1.4707-.4932,2.6543-.8896,3.90041-1.3076-.42621-.9229-.80511-1.7432-1.226-2.6533C57.25339,124.4307,56.70609,124.5596,56.06449,124.71Zm-3.334-3.6543a40.42528,40.42528,0,0,0-11.4136,2.8925C45.26949,123.502,48.93119,121.9248,52.73049,121.0557Zm2.4619,37.7685c-.0078-.0967-.0166-.1924-.0254-.2881-.8877.2647-1.7685.5577-2.6645.7881-2.02979.5215-4.0621,1.0332-6.107,1.4912-.3203.0723-.7075-.1582-1.0459-.2441.0879-.3272.148-.5488.2578-.9512-.8081.6953-.708,1.3711.15531,2.4834Q50.489,160.46145,55.19239,158.8242Zm3.5395-23.623c.28181-.708.57081-1.4141.8443-2.127a2.34233,2.34233,0,0,1,1.6992-1.6797c.96831-.1709,1.1465-.9384,1.7002-1.6445-1.0122.1807-1.8276.3525-2.6504.4658-.8398.1143-1.1733.7578-1.5444,1.3574.166.085.3374.1661.501.2618.0327.0185.0356.0879.0297.0722A4.7,4.7,0,0,0,58.73189,135.2012Zm8.09281,14.3701a1.42594,1.42594,0,0,0,.49459-1.8428,7.45407,7.45407,0,0,1-.4941-1.5293c-.1894-.9844-.7974-1.3447-1.8838-1.376C65.481,146.5127,65.57959,148.2432,66.8247,149.5713Zm16.94139-1.2754c.20461,1.792.7432,2.0371,3.4107,1.6689a2.87327,2.87327,0,0,0-.10309-1.1005c-.41691-.7608-.94581-1.461-1.46431-2.2364-.4776.6534.459,1.626-.53469,2.1377C84.7227,148.6396,84.32719,148.4971,83.76609,148.2959Zm-28.5478,9.5244c1.54.1524,2.6977-1.4433,4.2549-.7021.05951-.2227.1298-.4854.2124-.795.3847.2413.705.4414,1.0234.6407.0693-.0567.1396-.1114.209-.168-.1582-.4199-.3169-.8398-.4658-1.2373-3.4849.7393-3.2886.4082-4.252,1.6025-.2934-.1006-.5947-.2041-1.0508-.3593C55.1797,157.2441,55.19919,157.542,55.21829,157.8203Zm7.8447-35.1484c2.1792-.5127,4.3608-1.0137,6.5313-1.5586.2089-.0518.3491-.377.7563-.8477C67.48339,120.501,65.36919,121.8877,63.063,122.6719Zm-6.3452,33.0459c1.1855-.416,1.3467-1.2598.5625-2.7237-.5474.2959-1.0943.5909-1.8384.9922C55.90239,154.6113,56.315,155.1699,56.71779,155.7178Zm-1.2915-29.6846c-.7227-.7471-1.3394-1.0791-2.1397-.5293.0757.9336.1465,1.8223.2398,2.96C54.26119,127.5225,54.84129,126.7793,55.42629,126.0332Zm12.3428-.7148c-1.2027.2841-2.2461.5156-3.2813.7773-.9849.249-2.0889.1943-3.0244,1.0762C63.90579,127.0371,66.832,126.2012,67.76909,125.3184Zm3.0752,19.5976c.0283.1485.0551.2959.0825.4434a8.53054,8.53054,0,0,0,3.0844-.3672c.2027-.0586.3238-.3916.482-.5977-.2637-.1318-.5674-.4248-.7832-.3701C72.74119,144.2686,71.79789,144.6094,70.84429,144.916Zm23.3261.2715c-.1533-.5244-.2593-.8848-.3716-1.2656-.84709.1992-1.6269.3838-2.436.5732.0278.6162-.0625,1.1465.603,1.6045.1831-.6611.3321-1.1982.5772-2.0801.227.7412.34371,1.1221.4834,1.5782C93.42339,145.4541,93.72559,145.3467,94.17039,145.1875ZM72.3027,131.835c-.99561.3857-1.75781.6543-2.49121.9853-.1455.0664-.1836.3721-.2929.6162C71.29639,133.4082,72.07719,133.0498,72.3027,131.835ZM53.71189,156.8779c.4785-.959-.125-1.5986-.2529-2.3506C52.14059,155.1367,52.20019,155.7607,53.71189,156.8779Zm7.4634-6.2363c.5786-.2441.9526-.4014,1.4043-.5918-.23289-.7051-.437-1.3213-.6411-1.9404-.1206.0117-.2417.0224-.3623.0332C61.45309,148.9131,61.32959,149.6826,61.17529,150.6416Zm-.6118-23.1895c-.2363-1.0009-.3936-1.7216-.5791-2.4355-.1133-.4346-.2984-.9346-.86569-.6543-.45221.2236-.28271.665-.04251,1.0088C59.5147,126,59.96579,126.6191,60.56349,127.4521Zm2.7153-9.6035c.0205.041.0415.0821.063.1241,1.2354-.3477,2.4673-.7071,3.708-1.0362.8428-.2236,1.6963-.4033,2.54491-.6035a49.75943,49.75943,0,0,0-5.57221,1.1191A3.49426,3.49426,0,0,0,63.27879,117.8486Zm34.314,26.791c-.0425-.3359-.0586-.6201-.1172-.8925-.0566-.2666-.1563-.5254-.2393-.793-1.0874.4453-1.1025.4854-.7212,1.9404C96.85449,144.8135,97.19729,144.7324,97.59279,144.6396Zm-40.1226-12.2841c-1.4961.542-1.5327.7275-.66349,2.8203C57.03959,134.1885,57.22949,133.376,57.47019,132.3555Zm38.08651,8.747c-.06841-.8984-.11721-1.5439-.167-2.1894-.11231-.044-.22561-.0879-.33741-.1328-.2159.2392-.5591.4472-.62359.7217C94.26659,140.2061,94.70459,140.6172,95.5567,141.1025Zm-27.19831-8.7587c-.1142-.2657-.1792-.629-.2974-.6465-.2534-.0401-.7456.0566-.7705.1738-.15079.7266-.7661.6406-1.23479.832-.17191.0723-.294.2676-.439.4063.03179.0478.064.0937.09569.1396C66.56639,132.958,67.42289,132.665,68.35839,132.3438Zm-39.3555-8.0879c.2315.0625.4512.164.4795.124.69731-.9551,1.376-1.9258,2.0577-2.8926-.0938-.0664-.1875-.1309-.2803-.1953C30.52249,122.2598,29.7847,123.2285,29.00289,124.2559Zm66.5845,19.1318c-1.019.1504-1.0908.6865-.8628,1.3096.1729.4677.5283.5029,1.0117.1328C95.69339,144.4209,95.64549,143.959,95.58739,143.3877Zm-5.5478,3.2588c.8589-.5303.8589-.5303.3374-1.8418C89.40919,145.0381,89.40579,145.0547,90.03959,146.6465Zm13.8296-45.752c-.5093-.6992-.8096-1.1123-1.3291-1.8271-.2813.7617-.4283,1.1611-.6397,1.7363C102.59519,100.8359,103.04929,100.8564,103.86919,100.8945Zm-51.8404,57.461a3.081,3.081,0,0,0,2.5015-.3653C53.92139,157.2334,53.65089,157.2695,52.02879,158.3555Zm46.2505-20.1075c-.8008-.1103-.9795.3399-.9101.8555.0952.7061.6699.6123,1.2578.6201C98.50289,139.1973,98.39649,138.7471,98.27929,138.248Zm6.0435-34.0869c-.0342-.0966-.0669-.1943-.10009-.291-.85841.5459-2.01961.2832-2.70611,1.2959Q102.91849,104.665,104.32279,104.1611Zm-52.2906,21.5987c-.3159.622-.6816,1.2451.0298,1.8515C52.749,126.9873,52.52829,126.3701,52.03219,125.7598Zm-1.6474-.4864c.4136-.0976.6743-.1591,1.0127-.2373-.17479-.5927-.086-1.4179-.92579-1.1738C49.65629,124.0996,50.30079,124.6973,50.38479,125.2734Zm-1.3159,30.4346c-.563,1.1172-.3433,1.5947.8105,2.2012C49.56839,157.0645,49.31929,156.3867,49.06889,155.708Zm42.5249-40.4775c.0693-.0948.1401-.1885.2085-.2823-.3247-1.0312-.3247-1.0312-1.5713-.5908C90.76419,114.6982,91.1787,114.9648,91.59379,115.2305Zm-40.7417,42.1806c.4755-.8056.0595-1.4922-.397-2.1806C50.02389,156.0166,50.76079,156.668,50.85209,157.4111Zm34.06-40.9297c-.0381-.1318-.0781-.2636-.1172-.3955q-1.0341.33255-2.0654.6651c.041.122.0811.2431.1216.3652Q83.88234,116.79835,84.91209,116.4814Zm-23.209,19.0704c-.1421-.3008-.2651-.5625-.437-.9229-.6391.5674-1.1626,1.0303-1.92039,1.7041C60.25589,136.0313,60.87649,135.8262,61.70309,135.5518Zm-6.8535,14.1074c-.8232-.1201-.9736.2119-.8418.7539.1504.6182.4937.624,1.0064.2783C54.958,150.3389,54.90629,150.0127,54.84959,149.6592Zm14.9883-19.3438c-.3198.0742-.57319.1338-.8213.1914.1299.5508.2422,1.0293.355,1.5098.0986-.001.1968-.002.2944-.002C69.7207,131.4795,69.77439,130.9443,69.83789,130.3154Zm24.7393,16.8448c-.0518-.5547.0756-1.1602-.6983-1.1827-.1841-.0048-.5503.3496-.5337.5079C93.41549,147.1885,93.94829,147.2119,94.57719,147.1602Zm-15.5079-14.6329c.1636.4668.3296.9336.4937,1.3995C79.77,133.334,80.31449,132.6611,79.06929,132.5273Zm-23.6635,23.3594c-.2207-.539-.4405-1.0781-.7158-1.7549C53.94479,155.2422,54.71289,155.5801,55.40579,155.8867Zm49.9375-48.9414c-.4595.4746-.8345.8613-1.21,1.249C105.51859,107.9521,105.51859,107.9521,105.34329,106.9453Zm-78.0591,22.8955c-.3379-.1338-.6387-.3525-.7593-.2783a.752.752,0,0,0-.30219.6465c.04879.1797.38859.2773.601.4111C26.95119,130.4033,27.07909,130.1875,27.28419,129.8408Zm33.4004,17.9082c.9765-.9804.9765-.9804.29-2.1572C60.875,146.3311,60.79539,146.9209,60.68459,147.749Zm27.0234-4.9873c.6441-.1787,1.15871-.3076.8892-1.126C88.08159,141.8018,87.40719,141.7363,87.708,142.7617Zm6.3721-1.5263c-.2266-.6416-.4033-1.1426-.6416-1.8174C92.92629,140.6787,92.94429,140.7285,94.08009,141.2354Zm2.7764-.8809c-.1289-.5449-.2554-1.0811-.4366-1.8525C96.01219,140.0098,96.02249,140.04,96.85649,140.3545Zm-1.0049,6.416c.2866-.7158.2534-1.1445-.3784-1.0976-.1426.0107-.27149.2089-.4078.3203Q95.45869,146.3814,95.85159,146.7705Zm-43.0874-22.5527c-.0899-.3946.1323-.9756-.6241-.9619-.1098.0029-.3159.3466-.3012.5195C51.88039,124.293,52.13379,124.5752,52.76419,124.2178Zm15.6909,9.6972c-.0342-.1435-.06839-.289-.1025-.4336a1.62952,1.62952,0,0,0-1.6416.3965c.0244.1153.0493.2325.0761.3487Q67.61989,134.0712,68.45509,133.915Zm-20.8516,22.1856c-.0947-.0254-.1894-.0508-.2842-.0742-.1484.2363-.4257.4756-.4194.707.0112.4307.292.6934.9102.4795C47.7437,156.8535,47.67289,156.4766,47.60349,156.1006Zm13.6914-22.1807c-.3857-.1152-.7216-.2148-1.165-.3457-.0835.4512-.1528.8262-.2607,1.4121C60.46,134.5449,60.83689,134.2627,61.29489,133.9199Zm-12.0405,24.5635c-.1265.3477-.313.6455-.2456.7236a1.14732,1.14732,0,0,0,.6636.333c.0659.0118.3169-.4052.2627-.5068C49.82809,158.833,49.56539,158.7188,49.25439,158.4834Zm10.293-15.7617c.937-.8955.937-.8955.2055-1.5615C59.6777,141.7295,59.61329,142.2256,59.54739,142.7217Zm14.7759-4.9483c-.6177-.4629-1.1768-.3183-1.9595.2481C73.20309,137.9141,73.7647,137.8438,74.32329,137.7734Zm-22.3331,12.3428c-.4003,1.0098-.4003,1.0098.4512,1.4092C52.28179,151.0264,52.16209,150.6523,51.99019,150.1162Zm-2.205.9522c-.1294.0449-.2583.0888-.3863.1328-.2285.6074-.0288,1.0058.9244,1.2646C50.0977,151.8809,49.94089,151.4746,49.78519,151.0684Zm14.5244-29.8389c.1274-.0772.2539-.1533.3818-.2295.0069-.4863-.0039-.959-1.0049-.7881C63.94479,120.6328,64.127,120.9316,64.30959,121.2295ZM25.8237,130.8994c-.37351-.456-.57321-.7012-.77341-.9453-.1328.1133-.36859.2148-.3833.3408C24.61129,130.8076,24.94429,130.9336,25.8237,130.8994ZM60.353,151.1152c.4346-1.3691.4346-1.3691-.3715-1.58C60.10009,150.0381,60.21,150.5059,60.353,151.1152Zm-6.1264-40.4687c.0718.1006.1343.2256.1606.2178.58251-.1592,1.1607-.334,1.7403-.5059-.0176-.0498-.0347-.0986-.05079-.1475C55.46579,110.3545,54.855,110.498,54.22659,110.6465Zm41.126-10.0088c1.2197.0811,1.2197.0811,1.2954-.9082C96.25489,100.0049,95.92089,100.2393,95.35259,100.6377Zm3.1562,44.459c.0308.1211.0601.2422.0908.3642.5664.252.9512.0059,1.4063-.7158C99.36329,144.8955,98.937,144.9961,98.50879,145.0967Zm-24.8472-8.5039c-.4902-.501-.9526-.5215-1.3808.126C72.74119,136.6768,73.20219,136.6357,73.66159,136.5928Zm-11.6064-14.586c.1567-.0527.31251-.1054.4697-.1572-.1304-.3642-.0044-.8496-.832-1.1016C61.84719,121.2832,61.95119,121.6455,62.05519,122.0068Zm9.7651,8.9463c.2237-.459.5811-.9648-.396-1.1543C71.58889,130.2764,71.70409,130.6152,71.82029,130.9531Zm-15.4731-7.4404a1.036,1.036,0,0,0-.3941-1.3164C55.584,122.7949,55.59029,123.1885,56.34719,123.5127Zm39.0942-11.7959c.104-.1025.208-.2051.313-.3066.0498-.1622.1895-.4112.1328-.4678a.883.883,0,0,0-.561-.2569c-.0938-.0009-.2901.3028-.2593.4268A2.17706,2.17706,0,0,0,95.44139,111.7168Zm-14.4219,20.6328c.0948-.0371.1895-.0752.2837-.1123q-.1809-.45855-.3608-.915c-.0913.0351-.1812.0713-.2715.1074Q80.84594,131.8896,81.01949,132.3496Zm-9.0786-17.0264c.0083.0293.0161.0586.0244.0889.441-.1328.88041-.2637,1.4717-.4414C72.83549,115.1123,72.38819,115.2178,71.94089,115.3232ZM54.897,122.7988a.87721.87721,0,0,0,.3281,1.3946C55.08249,123.5869,54.98979,123.1924,54.897,122.7988Zm35.1079,19.458c.1333-.1191.2671-.2363.40281-.3545-.23-.2207-.458-.4404-.68651-.6621-.0937.0967-.2817.253-.2642.2803A9.06043,9.06043,0,0,0,90.00489,142.2568Zm-38.2246,16.3643c-.3277-.1758-.5332-.3779-.6953-.3457-.1592.0303-.273.2959-.40729.46.17139.1318.34089.3642.51619.3701C51.34819,159.1084,51.50879,158.8584,51.78029,158.6211Zm21.8286-42.0371c-.3643.1084-.7285.2158-1.3936.415C73.084,117.4502,73.39989,117.1914,73.60889,116.584Zm24.4434,28.9853c-.6885-.1289-1.1275-.163-1.3218.6524C97.28519,146.249,97.71389,146.334,98.05229,145.5693ZM50.416,126.5176c-.0366-.1162-.0732-.2315-.1098-.3477q-.52155.1992-1.043.3965c.0269.0693.0522.1367.0791.2051Q49.87841,126.644,50.416,126.5176Zm34.2866-11.1787c-.0434-.877-.333-.9785-.8945-.3604C84.168,115.124,84.43559,115.2314,84.70259,115.3389Zm7.8072,31.2285c-.0904.0234-.1797.0459-.27.0683q.08715.4923.1718.9815c.1089-.0254.2178-.0508.3277-.0762C92.66209,147.2158,92.58639,146.8916,92.50979,146.5674Zm-45.0772,5.4082c-.1172.0039-.23389.0088-.3515.0127-.1206.334-.2681.6699.4179,1.208C47.46829,152.6377,47.4507,152.3066,47.43259,151.9756Zm48.481-54.7783c-.2485.8154-.1582,1.124.5425,1.2851C96.27439,98.0518,96.1597,97.7803,95.91359,97.1973ZM90.4707,148.3916c.875-.1006.80569-.4707.56639-.8984-.0298-.0518-.1416-.0567-.2939-.1123C90.66209,147.6855,90.58109,147.9824,90.4707,148.3916ZM46.98879,159.1729c-.1592.2246-.2544.3584-.35009.4941a1.60625,1.60625,0,0,0,.52779.291c.0928.0127.2173-.2285.3281-.3555C47.34819,159.4775,47.2017,159.3535,46.98879,159.1729Zm31.6304-42.334c-.0401-.128-.0821-.2559-.1236-.3848-.293.1172-.58489.2354-.8784.3516.0288.0839.0566.167.084.249C78.00779,116.9824,78.314,116.9111,78.61919,116.8389Zm-49.4976,11.6259a11.22286,11.22286,0,0,0,.0542,1.1338c.0054.0381.2998.1055.356.0508C29.86479,129.3301,29.793,129.0195,29.12159,128.4648Zm74.4175-19.8437c-.063-.1533-.127-.3076-.1895-.4609q-.498.25185-.9961.5029c.0484.1074.09521.2148.1426.3213C102.8447,108.8633,103.19139,108.7422,103.53909,108.6211ZM45.9307,157.1846c.11329-.0166.22649-.0342.33929-.0518q-.1692-.42765-.3388-.8545c-.08649.0313-.1744.0635-.2598.0977C45.75729,156.6436,45.84329,156.9141,45.9307,157.1846Zm2.65329-5.7129c-.1289-.0059-.25829-.0108-.3877-.0156.021.2812.0415.5615.063.8437.0806.002.1611.0039.2417.0049C48.52829,152.0273,48.55709,151.75,48.584,151.4717Zm52.792-43.293c-.0117-.0625-.0234-.125-.0347-.1865-.3564.1064-.7124.2109-1.0693.3174.01171.04.0229.08.03471.1201Q100.842,108.3037,101.376,108.1787Zm4.1313-5.6465c.6973-.6601.4429-.8955-.0952-1.3144C105.44779,101.7129,105.46729,101.9863,105.50729,102.5322Zm-59.2392,49.8321c-.12939-.0245-.2593-.0489-.3882-.0743-.0225.2627-.0498.5245-.0576.7862a.86631.86631,0,0,0,.2505.039C46.14939,152.8682,46.207,152.6162,46.26809,152.3643ZM45.209,126.4072c.1201-.0371.23971-.0742.3594-.1103-.1133-.2305-.2271-.46-.3408-.6914-.0621.0273-.1255.0537-.1885.081C45.0957,125.9258,45.15189,126.167,45.209,126.4072Zm-6.9619.2823a.92224.92224,0,0,0-1.35739.5039C37.51909,126.96,37.88329,126.8242,38.24709,126.6895Zm41.5864,3.371q.2241.1158.4473.2315a4.4009,4.4009,0,0,0,.0923-.5576,3.53376,3.53376,0,0,0-.0538-.5235c-.0595-.0009-.1167-.0029-.1757-.0039Q79.98834,129.6333,79.83349,130.0605Zm12.5776,10.42c-.0708-.0586-.1396-.1153-.20939-.1748q-.20732.26655-.41561.5302c.0635.0528.128.1055.1924.1592C92.12259,140.8232,92.26659,140.6523,92.41109,140.4805Zm-22.2182-17.25c.0517.0888.104.1787.1553.2675.2138-.1738.4253-.3486.6391-.5234-.0664-.0771-.1338-.1553-.1997-.2324C70.58889,122.9053,70.39159,123.0674,70.19289,123.2305Zm6.7583,5.6172c-.082-.0069-.1621-.0118-.2437-.0186-.0312.293-.062.5869-.0927.8799.0991.0078.1977.0166.29591.0244C76.92479,129.4385,76.938,129.1426,76.95119,128.8477Zm9.1328-13.8331c.0801-.2089.1714-.3681.1445-.3906a1.47014,1.47014,0,0,0-.4575-.2773c-.0312-.0127-.2104.2529-.1977.2656A5.02724,5.02724,0,0,0,86.084,115.0146Zm-25.3525,28.5323-.30079-.0176-.05571.8574c.0718.0069.1436.0147.2158.0225Q60.66039,143.97705,60.73149,143.5469ZM38.0547,124.7549c-.00241.0449-.00631.0908-.00981.1367.2119-.0674.4229-.1348.7691-.2461C38.46929,124.6963,38.26219,124.7256,38.0547,124.7549Zm49.937-11.1358c.02779.1231.05419.2452.08249.3682.25-.0586.5034-.1084.7461-.1914a1.98569,1.98569,0,0,0-.0547-.3584Zm-27.27591,8.2276c.1172-.0381.2334-.0752.3496-.1123-.0805-.2198-.1616-.4385-.2441-.6582-.0757.0195-.1523.04-.228.0595Q60.65479,121.4903,60.71579,121.8467Zm29.88091-9.0586c.03859.1045.07709.2109.11569.3164q.2922-.1113.5845-.2227c-.0498-.1045-.1221-.3027-.1445-.2968A4.35471,4.35471,0,0,0,90.5967,112.7881Zm-20.01911,6.25c-.019-.0703-.04-.1416-.061-.2119-.2305.0547-.46089.1084-.6914.1631.02251.081.0449.163.0664.2431C70.12059,119.168,70.34959,119.1025,70.57759,119.0381Zm-22.3017,5.501q-.1509.05415-.3003.1084c.1113.2588.2197.5166.3306.7734.0542-.0195.1089-.04.16351-.0605Q48.37384,124.95015,48.27589,124.5391Zm-7.91019,2.625c-.18361-.0752-.31881-.1827-.41651-.1553-.0923.0264-.14649.1933-.2173.2978.11281.0664.2339.1944.3379.1836C40.16259,127.4795,40.23779,127.3145,40.3657,127.1641Zm13.39509-4.2373c-.1158.0273-.2315.0566-.3467.0849q.1296.38385.2588.7705c.08981-.0302.1797-.0586.268-.0879C53.88089,123.4385,53.82129,123.1816,53.76079,122.9268Zm-2.938,25.0996c-.0669.0185-.1328.0381-.1993.0566.0611.2568.1207.5117.18121.7695a.49672.49672,0,0,0,.18409-.4658A1.5332,1.5332,0,0,0,50.82279,148.0264Zm-22.5904-18.6475c-.0839-.0078-.1689-.0166-.2529-.0225-.0356.2354-.06979.4717-.1045.7081.1211.0107.2432.0224.36571.0332C28.23679,129.8574,28.23539,129.6191,28.23239,129.3789Zm49.104.7441c-.123.1485-.2793.2774-.2573.3233a2.13857,2.13857,0,0,0,.3174.4101c.1284-.121.2573-.2431.3853-.3642C77.64939,130.3818,77.51659,130.2725,77.33639,130.123Z"/><path class="a" d="M34.03179,118.8447a1.95549,1.95549,0,0,1,1.5844-1.0976c1.188-.3125,2.39651-.5489,3.5796-.877q14.06025-3.895,28.1128-7.8115c2.41311-.6709,4.8506-1.2568,7.24411-1.9873,2.91069-.8877,5.77639-1.9199,8.68219-2.8233,2.1523-.6689,4.3349-1.2421,6.5093-1.8417q1.3476-.37065,2.7168-.6651a4.63926,4.63926,0,0,1,.9355-.0117c-.0772.7519-.5571.793-.9731.8359-4.5982.4893-8.8506,2.1748-13.1499,3.7207-1.6617.5977-3.3741,1.0577-5.07279,1.5498-4.14941,1.2051-8.29791,2.4112-12.457,3.584-3.73541,1.0528-7.48391,2.0576-11.22511,3.0889-3.5987.9951-7.187,2.0195-10.7925,2.9863C37.9307,117.9756,36.10839,118.3564,34.03179,118.8447Z"/><path class="a" d="M97.77739,104.7363a6.96845,6.96845,0,0,1-5.2398-1.9736c1.1597-.2852,1.77.6768,2.5933.9912C95.97709,104.0771,97.06539,103.8262,97.77739,104.7363Z"/><path class="a" d="M93.34959,106.2168c-1.0884-1.0479-2.8125-.8682-4.083-2.2695a4.526,4.526,0,0,1,.9336.1172c1.0713.456,2.1387.9277,3.1914,1.4257.1172.0557.1367.3155.2017.4795C93.5117,106.0527,93.43119,106.1338,93.34959,106.2168Z"/><path class="a" d="M45.87259,117.3643a5.7923,5.7923,0,0,1-1.898,3.5195c-.1113-.1572-.3286-.3496-.29289-.4287A22.30175,22.30175,0,0,1,45.87259,117.3643Z"/><path class="a" d="M79.01759,107.2461c.6567.2871,1.332.5352,1.9619.8711.6069.3271,1.4844-.1651,1.9717.6533C80.88619,108.9482,79.41459,108.3672,79.01759,107.2461Z"/><path class="a" d="M52.67189,118.3096c-.5186-.9893-.0967-1.9317,1.3516-2.8682C53.5977,116.3438,53.17289,117.2451,52.67189,118.3096Z"/><path class="a" d="M86.27739,105.1416c.8935.7363,1.7861,1.4727,2.7622,2.2803C87.73539,107.4131,86.83639,106.7178,86.27739,105.1416Z"/><path class="a" d="M74.64989,112.6758a8.94212,8.94212,0,0,1-3.06-2.1221A4.59514,4.59514,0,0,1,74.64989,112.6758Z"/><path class="a" d="M61.68209,112.3008c.2095.8887.3882,1.6465.5581,2.3691C61.15719,114.5127,60.89939,113.6748,61.68209,112.3008Z"/><path class="a" d="M97.67679,102.4482c1.0576-.4638,1.6821-.1972,2.4453.9434C99.18509,103.0293,98.4317,102.7383,97.67679,102.4482Z"/><path class="a" d="M82.73239,106.3779c.61331.6035,1.2276,1.2071,1.9361,1.9043C83.35159,108.125,83.02979,107.8232,82.73239,106.3779Z"/><path class="a" d="M66.895,114.2852c-1.42429-.5332-1.4848-.6231-1.54829-2.3526C65.90239,112.7773,66.32419,113.418,66.895,114.2852Z"/><path class="a" d="M70.34909,112.8623c-.5-.501-1.0835-.956-.7739-1.9385A2.41418,2.41418,0,0,1,70.34909,112.8623Z"/><path class="a" d="M59.49509,115.8936a1.25387,1.25387,0,0,1-.3471-1.8184q.34125.8481.6811,1.6992C59.71779,115.8135,59.60649,115.8535,59.49509,115.8936Z"/><path class="a" d="M91.37549,130.8809c.6323.3955,1.2651.792,1.9126,1.1972-.1543.542-.269.9444-.44039,1.5459a4.18813,4.18813,0,0,1,.70549.251,2.0507,2.0507,0,0,1,.543,2.9912.80207.80207,0,0,1-.727.2041c-.37649-.1914-.3067-.4492-.0152-.8037.6162-.749.5528-1.3916-.2246-1.7559a1.65119,1.65119,0,0,1-1.01269-2.206c-.36721-.3936-.68021-.7276-.99361-1.0645C91.207,131.1201,91.291,131.001,91.37549,130.8809Z"/><path class="a" d="M88.24019,132.1816c.93751.293,1.042,1.4541,2.066,1.3057a5.03373,5.03373,0,0,0-.6949,1.1914c-.1377.5488.3057.8301.7173,1.1475a2.6136,2.6136,0,0,1,.667,1.0927c.2339.5791.39211,1.1915.5962,1.8321-.2095.3926-.5137.3633-.73-.0205a4.0989,4.0989,0,0,1-.373-1.1114,1.95273,1.95273,0,0,0-.9199-1.4072c-.7481-.459-.7325-.6846-.583-2.3652C88.688,133.3311,87.4727,133.2529,88.24019,132.1816Z"/><path class="a" d="M68.01809,140.7813c.0581.7519.1147,1.3837.1543,2.0166.042.6894.0356.6904-.9165,1.0351a5.47974,5.47974,0,0,1-.3169-.7598c-.4024-1.5664-.79929-3.1367-1.1699-4.7119a1.69519,1.69519,0,0,1-.0079-.9697c.252-.5918,2.8252-1.2363,3.4473-.9219a2.824,2.824,0,0,1,1.0493,3.1182,1.35532,1.35532,0,0,1-.6133.5547C69.16459,140.375,68.65189,140.5381,68.01809,140.7813Zm-.418-1.8584c.1128.3496.1978.6074.2979.9169.6499-.1601,1.3134-.1416,1.331-1.0556C68.69,138.8301,68.25679,138.8662,67.60009,138.9229Zm-.1421-1.1592c.0313.0908.0596.1816.0889.2734.25681-.0889.5127-.1807.7685-.2705-.0263-.0762-.05269-.1533-.0795-.2295C67.97759,137.6133,67.71779,137.6875,67.458,137.7637Z"/><path class="a" d="M47.33889,143.3369c.1269-.3574.2153-.6055.3764-1.0605.2666.3935.4239.625.6792,1.0029C47.96139,143.3027,47.70659,143.3164,47.33889,143.3369Z"/><path class="a" d="M48.42339,140.2188c-.0469.9257-.2608,1.1982-1.1573,1.0468C47.689,140.8828,47.94139,140.6553,48.42339,140.2188Z"/><path class="a" d="M63.25879,145.8887c.6665,1.5791,1.33791,3.1562,1.9878,4.7422.0317.0781-.1216.2324-.1934.3603C64.23539,150.2461,63.48629,148.2363,63.25879,145.8887Z"/><path class="a" d="M80.17579,142.4932q.57195,1.37985,1.1455,2.7578a4.03535,4.03535,0,0,1-1.4658-2.7285C79.96189,142.5117,80.06839,142.5029,80.17579,142.4932Z"/></svg>