<svg xmlns="http://www.w3.org/2000/svg" viewBox="0 0 300 300"><defs><style>.a{fill:none;}.b{fill-rule:evenodd;}</style></defs><title>gl_nav25</title><rect class="a" x="-14.1777" y="-33.63666" width="328.1777" height="328.17712"/><path class="b" d="M63.08957,137.01741c1.56127-2.15943,3.1067-3.73886,3.02938-6.39527-.0899-3.11683,1.81033-5.349,4.2483-7.07868a3.74607,3.74607,0,0,1,1.60563-.35014c3.22954-.42874,6.45209-.93364,9.6941-1.219,1.46345-.1296,2.53123-.44,2.88953-2.0048a4.20024,4.20024,0,0,1,2.969-3.06349c2.44938-.86983,4.9295-1.65221,7.37654-2.52437,2.3653-.84153,4.71233-1.72847,7.05259-2.63591,1.21439-.47078,2.422-.9723,3.5819-1.56127,1.45216-.73685,2.57909-.65161,3.61613.76864,1.0962,1.49769,2.58364,2.73489,3.53428,4.30641,2.12415,3.51261,5.19894,6.05526,8.24869,8.63656a11.88012,11.88012,0,0,1,4.278,6.66356,7.60981,7.60981,0,0,0,4.20056,5.29687c4.6668,2.29578,9.42919,4.40177,14.07317,6.742,3.80372,1.91723,7.49717,4.05163,11.22811,6.11092,1.037.57208,2.031,1.2202,3.16131,1.9036-5.25367,7.74054-6.84451,16.79549-10.7415,24.99772,1.5261.896,2.86787.50035,4.1938.22171,5.7312-1.20076,11.42479-2.65979,17.20827-3.491a8.96967,8.96967,0,0,0,5.25472-2.57793c3.29545-3.1556,6.625-6.29292,8.947-10.2911a11.64435,11.64435,0,0,1,6.00973-5.11254c7.93383-3.20788,15.76869-6.65913,23.65594-9.984a2.7589,2.7589,0,0,0,1.65792-1.64091,16.21776,16.21776,0,0,1,2.33118-3.42389c1.03134-1.31114,2.16735-1.567,4.03906-1.38625,4.87942.47078,9.83848.68911,14.71231-.48557a3.12564,3.12564,0,0,0,2.54486-2.25607,7.14929,7.14929,0,0,1,4.20289-4.553,20.67746,20.67746,0,0,0,10.07731-10.03644c1.20647-2.41292,2.61205-4.73049,3.75028-7.173a6.9245,6.9245,0,0,0,.54239-3.20556,9.31885,9.31885,0,0,1,2.37555-6.63642,37.32226,37.32226,0,0,0,4.81235-6.82728,34.28136,34.28136,0,0,0,2.20484-7.73029c.72777-3.36135,1.235-6.77161,1.85924-10.157a2.11317,2.11317,0,0,1,.9666-1.4532,11.10467,11.10467,0,0,1-.01363,1.87624c-.912,5.22176-1.83991,10.44-2.81791,15.64933a5.27152,5.27152,0,0,1-.871,2.00247c-1.82512,2.58247-3.65025,5.16832-5.59927,7.65635-1.65,2.10936-2.2527,4.21418-.70389,6.36907-1.93656,3.58994-3.72408,7.0491-5.64585,10.43212-2.46871,4.34844-5.48562,8.16124-10.27294,10.24336a5.785,5.785,0,0,0-3.89128,5.83576,1.95833,1.95833,0,0,1-1.982,2.22872,6.31789,6.31789,0,0,0-1.68981.71763c-1.13032-.9837-2.5529-1.05986-4.212-.96659a60.22217,60.22217,0,0,1-10.01479-.22974c-2.41758-.27061-3.60472.76526-4.69975,2.87474.71182.20576,1.27016.42187,1.85016.5276,4.37115.80393,7.12293,3.09983,8.86619,7.44024a37.18618,37.18618,0,0,1,2.64838,15.53219,53.76346,53.76346,0,0,1-.89149,7.73366c-.69132,3.74574-1.617,7.44827-2.41642,11.17467a6.40223,6.40223,0,0,0-.25361,2.20834c.464,3.08842-.43771,5.82214-1.69657,8.599a17.67286,17.67286,0,0,0-1.34073,9.55087c.56405-.373.995-.62774,1.393-.9256a43.38158,43.38158,0,0,1,3.54906-2.67574c6.6943-4.02322,13.35332-8.11805,20.18187-11.90349a35.0727,35.0727,0,0,1,12.16851-3.9027c1.567-.22066,3.118-.60038,4.69067-.73463,1.13485-.09549,1.52039-.7584,1.77284-1.87171,2.1401,2.2902,4.14944.97347,5.87442-.24557a73.14137,73.14137,0,0,0,6.8706-5.69255c1.78763-1.625,3.3978-3.44554,5.083-5.18193.65161-.66978,1.3066-1.31453,2.56314-.86424a3.63215,3.63215,0,0,1-.51177,1.00187c-3.77752,3.43635-7.67672,6.74658-11.32814,10.31148a11.72485,11.72485,0,0,1-7.10022,3.45358c-2.60634.30694-3.18634.71065-3.71615,3.35227a77.46877,77.46877,0,0,0-1.799,11.28261c-.42979,8.64227-.86413,17.3175-.55264,25.95173.22287,6.19057,1.52726,12.35959,2.62683,18.48984a9.40422,9.40422,0,0,1-.12285,4.59519c-.39113,1.28157-.85049,2.54148-1.43958,4.28253a2.91082,2.91082,0,0,1-.27515-2.97826,14.603,14.603,0,0,0,.18537-7.10138,134.08054,134.08054,0,0,1-2.01166-34.44961c.08873-1.48616.22741-2.97814.18654-4.4643a59.06968,59.06968,0,0,1,2.20834-16.53966,13.41337,13.41337,0,0,0,.191-1.62612,8.178,8.178,0,0,0-1.9149.02154c-2.58247.67432-5.307.96088-7.54829,2.62229-.14905.11027-.3116.27178-.47532.282-5.59927.3343-9.92954,3.74119-14.58493,6.22689-4.09261,2.18331-7.86676,4.9614-11.77621,7.48471a2.81255,2.81255,0,0,0-.86762.69249c-1.45553,2.23675-3.95044,3.36927-5.63455,5.3764a9.37558,9.37558,0,0,1-3.97431,2.36414,14.81622,14.81622,0,0,0-5.05,3.66038c-4.05954,4.34611-7.94175,8.8606-11.83758,13.358-2.00817,2.31977-3.89815,4.74295-5.83576,7.12421a2.2,2.2,0,0,1-2.9134.79821c-2.79731-1.20763-5.61406-2.4085-8.51034-3.34319a11.28548,11.28548,0,0,0-4.34157-.29111,300.64841,300.64841,0,0,0-35.59576,5.13187c-7.36978,1.55568-14.89316,2.3858-22.27994,3.86975-10.30927,2.07291-20.54471,4.50412-30.83348,6.67718-4.72711.9985-9.52013,1.68527-14.25854,2.63475-2.545.5106-5.11941,1.078-7.07984,3.03846a5.70212,5.70212,0,0,1-1.39417.92223c-1.33723.70052-1.5431.61633-3.03951-1.219,1.6727-1.34061,3.34424-2.68017,5.307-4.25285a28.4421,28.4421,0,0,0-.3923-2.89861c-1.83874-8.07368-3.74235-16.1314-5.55606-24.20963a3.55868,3.55868,0,0,0-3.04871-3.126c-2.82921-.55031-5.60835-1.344-8.43756-1.88987a25.52389,25.52389,0,0,1-10.52981-4.26425c-2.28345-1.69436-4.08691-4.04022-6.08146-6.11663-.57081-.59362-1.06324-1.26224-1.8922-2.25724a12.08265,12.08265,0,0,0-.18188,1.277c.00908,5.39794.05682,10.79483.03411,16.19277-.01595,3.44217-.10235,6.88538-.21157,10.32638-.14893,4.64631-.27178,9.2961-.55718,13.93449a13.22675,13.22675,0,0,0,1.53518,7.80982,2.01718,2.01718,0,0,1,.241,1.4794,4.0857,4.0857,0,0,1-1.13031-.78342c-1.68982-2.413-1.9673-5.191-1.84667-8.01453.25128-5.85172.66745-11.69668.84829-17.55061.1785-5.76753.1466-11.5431.21483-17.31412.03761-3.19531-.07382-6.352-2.06953-9.08115-.05462-.075-.13531-.166-.12856-.24336.2889-3.71616-2.68587-5.40027-4.74411-7.65856-.09886-.11027-.0637-.34234-.13193-.76305a3.46971,3.46971,0,0,1,1.17363.2911c1.04158.76643,1.97289,1.68982,3.05208,2.39139,1.06091.68911.99489,2.07874,2.38,2.80418,1.29636.68,1.64767,2.96684,2.72349,4.29837,2.85867,3.54219,5.64247,7.26976,9.92488,9.22227a55.68838,55.68838,0,0,0,7.87352,2.71882,59.52768,59.52768,0,0,0,6.29525,1.25083c.95855.16489,1.94448.17176,3.32945.282-.67316-2.20834-1.19168-3.972-1.74886-5.7255-.87215-2.74723-1.7683-5.48667-2.65862-8.22831-.17175-.52539-.22287-1.34294-.57546-1.51236-1.50328-.72439-1.19843-1.849-.99384-3.07829a4.35439,4.35439,0,0,1,1.79217-2.579c2.24246-2.02075,5.06142-2.629,7.90088-3.61613-.39579-1.59655-.77784-3.00656-1.08711-4.43368a11.92273,11.92273,0,0,1-.58908-3.56269c.44353-4.30058-1.61821-7.91892-2.93611-11.742-.33314-.96543-.75734-1.89907-1.136-2.8475-.1034-.2592-.30135-.53214-.27969-.78226.158-1.74105-3.325-1.05194-2.2732-3.71849.45261-1.1508-.81871-2.88941-.98243-4.39618a71.28293,71.28293,0,0,1-.34-7.42777,3.72572,3.72572,0,0,1,.85166-1.72044c1.252-1.9184,2.53927-3.814,3.8595-5.787-.3753-.22962-.60271-.49115-.8165-.47986-4.15049.23312-8.05318,1.17584-11.35422,3.91516a23.86162,23.86162,0,0,0-7.39936,11.2691c-.99163,2.99864-2.31873,5.88467-3.39093,8.85944a21.9642,21.9642,0,0,0-.61633,3.4785c-.45716-.46508-1.03716-.7903-1.02575-1.09515a6.787,6.787,0,0,1,.53785-2.14115c1.57955-4.07433,3.24876-8.11572,4.77369-12.21054,1.52039-4.08237,4.38594-7.09347,7.59266-9.83407a7.4507,7.4507,0,0,1,2.70636-1.40313c3.18518-.92677,6.40668-1.72627,10.02049-2.6825.141-1.318.33314-3.13406.48219-4.53382-1.09165-1.53855-2.01505-2.76889-2.86333-4.04929-1.58747-2.39256-3.07479-4.85218-4.71233-7.20723a32.981,32.981,0,0,0-3.50236-4.33366c-3.32724-3.375-6.76592-6.64085-10.14322-9.96692-.157-.1558-.14672-.48335-.22637-.77108,2.19926.59246,2.69169,1.03261,7.247,6.06329,2.24467,2.47662,4.72817,4.75774,6.78187,7.38108,1.97068,2.51994,3.52507,5.36615,5.26263,8.06914.19108-.07849.38322-.1558.5743-.23312a13.38955,13.38955,0,0,0-.24-1.6727c-1.69087-6.23261-1.8922-12.6939-2.97127-19.01407-1.09515-6.4146-2.60064-12.76213-4.04709-19.11188-.68-2.985-2.90769-4.89421-5.2525-6.64655-.51736-.38659-.97673-.84829-1.73861-1.51807.76864-.18759,1.10644-.38438,1.25083-.28878,3.47966,2.31407,6.459,4.97607,7.27535,9.40975.79146,4.29837,1.85353,8.54678,2.66549,12.84166.60492,3.19659,1.1281,6.42031,1.46124,9.65428.57418,5.57435,1.30765,11.09059,3.55127,16.29524A18.794,18.794,0,0,1,63.08957,137.01741ZM150.08739,204.826c1.21449.5311,2.36868,1.09165,3.56268,1.55114,4.16528,1.59992,8.37958,3.08049,12.50957,4.7646a88.89429,88.89429,0,0,0,17.01044,5.27626,5.61129,5.61129,0,0,0,2.197.04658c5.48434-1.22009,10.95971-2.49025,16.43043-3.77182,1.44413-.33885,2.85646-.81533,4.30291-1.14393.60492-.13647,1.476-.31952,1.849-.01712a2.54094,2.54094,0,0,0,2.62113.21041c1.61355-.44353,3.23292-.86656,4.83855-1.33734,4.49387-1.31907,5.30467-2.52891,5.88467-7.23215a46.95915,46.95915,0,0,1,2.00933-9.49626,15.953,15.953,0,0,0,1.1359-6.49646c-.15568-2.10482-1.14277-4.27672.87333-6.17916.57092-.539.53109-1.73872.738-2.64383.25024-1.08711.4185-2.19588.70623-3.27275,2.405-9.0391,2.00246-17.8473-2.02075-26.40085-1.29287-2.74956-4.67588-5.008-7.12863-4.36206a63.6756,63.6756,0,0,0-8.47623,2.67341c-6.93778,2.90991-13.76959,6.07121-20.68572,9.03457a9.85458,9.85458,0,0,0-4.22675,3.47616,73.04189,73.04189,0,0,1-4.97037,6.36c-2.91107,3.20683-6.00181,6.24971-9.41778,9.77607a34.21931,34.21931,0,0,0,4.91238-.50385c2.66887-.68107,5.15807.3491,7.72342.5743.59246.05228,1.16221.8392,1.658,1.368a12.32272,12.32272,0,0,1,1.06883,1.5431c2.38346-2.03088,4.50762-3.97652,6.77511-5.74028,3.36939-2.62218,6.84439-5.10684,10.26269-7.66544,1.20425-.90289,2.33561-1.0382,3.41817.15243-.07161,4.071-.75385,8.2112,1.63638,12.023-1.13719,1.3384-2.363,2.72-3.52054,4.15841a45.52843,45.52843,0,0,1-10.6516,9.74079c-.68341.44458-1.2315,1.04729-2.25271.6402-.50594-.20016-1.23266.19446-1.86483.26154a17.70973,17.70973,0,0,1-3.26366.24452,123.04492,123.04492,0,0,1-23.34772-3.81629,20.19316,20.19316,0,0,0-9.13342-.08757c-1.219.2252-2.56769.47311-2.89966,2.148,4.48933-2.01946,6.78978,1.1713,9.42907,3.7299-.26945.8505-.54123,1.7102-.8824,2.7859.80625.39346,1.5169.796,2.26749,1.09852,2.8405,1.14393,5.69708,2.24467,8.53992,3.383,1.11773.448,2.19,1.01317,3.32269,1.42025,4.18915,1.50561,8.30331,3.17144,12.66083,4.26542,2.46987.61971,4.453.6834,6.59544-.62995,4.67134-2.86112,9.94422-4.11416,15.16365-5.48667a7.97715,7.97715,0,0,1,1.66024.07277c-.65615.76189-.9199,1.36343-1.32477,1.48279-1.1508.33768-2.3766.41046-3.541.70843a52.9644,52.9644,0,0,0-13.36357,5.49925,3.978,3.978,0,0,1-2.62.44574,63.8126,63.8126,0,0,1-8.57753-2.35389c-6.9422-2.63813-13.79568-5.5117-20.69818-8.25673-3.17819-1.2634-6.294-2.6939-9.735-3.22046A6.19685,6.19685,0,0,0,142.588,199.253c3.43751-2.87928,5.60952-.21716,8.18617,1.15872C150.54221,201.90588,150.33075,203.26139,150.08739,204.826Zm-41.25081-39.76674c1.85133-2.02075.58105-3.12148-.25466-4.35415-2.39709-3.53986-5.09787-6.92741-7.03547-10.705a6.64436,6.64436,0,0,0-5.23877-3.84913,25.63308,25.63308,0,0,1-6.61139-2.04462,96.33121,96.33121,0,0,1-8.52163-5.29792c-.26153-.16942-.29006-.69936-.42758-1.06091a25.34466,25.34466,0,0,1,6.00635,3.08049,22.57629,22.57629,0,0,0,10.27969,4.03906,19.99537,19.99537,0,0,1,2.9509.80625,3.11323,3.11323,0,0,1,2.09795,2.01842,45.59813,45.59813,0,0,0,3.27728,6.442c1.57722,2.4311,3.48071,4.652,5.52649,7.33334,1.40093-3.01564,2.55627-5.50029,3.55011-7.63469-2.7973-2.44716-5.35928-4.70208-7.936-6.93883a35.98965,35.98965,0,0,0-4.262-3.55814c-2.83143-1.76714-5.8813-3.18506-8.71493-4.94882a4.12283,4.12283,0,0,0-5.13874.23428c-.58909.42863-.9985,1.39976-2.529.81417,1.24628-1.17805,2.264-2.1401,3.27041-3.09191-.47311-.69132-.89382-1.30649-1.46357-2.1401.62658,0,.93818-.09432,1.14056.01374,3.18517,1.70682,6.37023,3.41364,9.527,5.17169,3.73886,2.08316,7.40506,4.24038,10.116,7.72226a17.99306,17.99306,0,0,0,7.64377,5.4628,8.3353,8.3353,0,0,0,5.34461.12738c-2.25386-1.335-4.13011-2.44483-6.20768-3.67528,1.07465-2.69612.35142-6.23714,4.65434-6.8-2.462-2.42213-4.552-4.793-6.95933-6.77965-5.08983-4.20289-10.36155-8.18512-15.523-12.30149a4.92607,4.92607,0,0,0-3.81735-1.31347c-4.6123.54588-9.23135,1.04053-13.84586,1.575-2.405.27749-4.81911.51736-7.2049.9142-2.80523.46623-5.51509,3.47174-5.25577,6.28267a7.487,7.487,0,0,1-2.02529,5.804c-1.39067,1.68644-2.47557,3.63313-2.205,5.86534a7.58487,7.58487,0,0,1-1.6897,5.43439c-1.31,1.91152-2.64162,3.8128-3.839,5.79489a3.731,3.731,0,0,0-.59014,2.37089c.66978,3.43763.80614,6.94675,2.18668,10.29227,2.76319,6.70117,5.16378,13.5501,7.778,20.3138.68678,1.77284,1.00979,3.75819,2.42666,5.1342,6.12455-1.24292,12.2378-1.824,18.06448-3.84239,3.95044-1.36692,7.97587-2.5211,11.98884-3.69461,1.3328-.38892,1.99455-1.14626,2.09119-2.03321-2.861-1.72731-5.44917-3.31245-8.0611-4.85892a12.99819,12.99819,0,0,0-3.19764-1.66362,25.37252,25.37252,0,0,1-9.53375-5.066,4.73793,4.73793,0,0,0-4.36091-.78237,64.55449,64.55449,0,0,1-9.41556.79483c-.37751.02166-.78227-.44341-1.17468-.68223,3.24887-.49582,6.47609-.05229,9.49172-1.62846a32.22,32.22,0,0,0-4.4303-2.421c-1.47137-.72777-3.39663-.71182-4.38244-2.43913.31836-.17163.51852-.36609.62309-.32406,4.4735,1.81709,8.94933,3.632,13.39325,5.51741a8.69519,8.69519,0,0,1,1.74548,1.36914,18.36315,18.36315,0,0,0,7.27884,3.95719,15.01984,15.01984,0,0,1,5.92449,2.96335,21.93452,21.93452,0,0,0,5.07388,2.81443,6.511,6.511,0,0,0,5.22968-.60946c-4.77823-1.078-3.93111-2.39139-2.22766-5.34566A50.21,50.21,0,0,0,99.5257,168.457c-2.9042-3.002-5.97678-5.84485-9.06974-8.6559a7.02288,7.02288,0,0,0-3.23862-1.93993c-6.061-.92107-11.252-3.757-16.29291-6.98657-.23417-.1501-.32069-.53448-.47532-.80847a3.25,3.25,0,0,1,2.1401.41163c1.54648.85515,3.03054,1.82734,4.60205,2.63137a38.55678,38.55678,0,0,0,10.28086,3.46022A6.09559,6.09559,0,0,1,90.90741,158.1a66.42128,66.42128,0,0,0,10.1898,9.89193,7.23445,7.23445,0,0,1,1.965,2.28228,17.23731,17.23731,0,0,0,4.67821,5.80852,3.03331,3.03331,0,0,1,.98476,1.78181c.23544,1.70577-.241,2.16293-2.22651,2.94973-1.29286.51293-3.13732.28552-3.42388,2.34481.74931,1.95356,2.3504,2.31977,4.25063,2.346,3.1464.0432,4.26763-1.9673,4.88629-4.49178-.9553-.88462-2.45625-1.27132-2.54265-3.26471,1.03366.43666,1.7966.75968,2.72,1.15081a21.68958,21.68958,0,0,1-1.67387-3.97769c-.34688-1.75689,1.44192-2.37893,2.4835-3.40234-.59584-2.21742-1.169-4.34612-1.73756-6.46Zm27.52557-23.78776c-.89952,1.65792-1.865,3.13395-2.53927,4.73271-2.89174,6.85126-5.6845,13.7434-8.53991,20.61061-.854,2.05475-1.66362,4.14374-2.71429,6.0973-1.58292,2.93843-3.375,5.763-5.03871,8.65938a10.13134,10.13134,0,0,0-.61738,1.81139,4.6917,4.6917,0,0,0,1.00514.10806c8.08171-1.25537,16.15644-2.56081,24.24607-3.756a2.92467,2.92467,0,0,0,2.47895-1.90582c1.64778-3.739,3.3489-7.45514,4.90562-11.23149,1.69657-4.121,3.258-8.29889,4.876-12.45287.3605-.9256.71076-1.85575,1.12355-2.93377C149.379,147.2199,143.39879,143.54007,136.36215,141.27153Zm26.31108,81.112a38.48411,38.48411,0,0,0,4.34727,2.25143,153.57241,153.57241,0,0,1,17.55516,7.83148,37.04,37.04,0,0,0,6.48959,2.32326,2.38541,2.38541,0,0,0,2.67225-1.02c1.49652-1.89906,3.10436-3.70707,4.67366-5.5492q4.60712-5.41231,9.22216-10.81882c1.09048-1.27691,2.19692-2.54031,3.38639-3.91282-1.526.08069-2.91678.56288-3.8071.09548a3.5779,3.5779,0,0,0-2.88033-.24907c-3.051.82453-6.103,1.65116-9.13471,2.54264a5.768,5.768,0,0,0-1.63171.98942c-.439.32173-.78809.99943-1.227,1.04612-1.81942.1933-2.67236,1.5169-3.665,2.74957a5.90328,5.90328,0,0,1-1.23033.9143c-2.43354-2.23558-5.69138-4.06874-7.84511-4.4098-.52422-.08186-1.26678-.25245-1.56708.00908-.82093.71414-1.51574.28424-2.32886.1239-3.707-.72661-7.19011-2.61764-11.1416-2.12648a2.55543,2.55543,0,0,1-1.51015-.55718c-1.30765-.88462-2.20263-.38089-2.87695.79146-2.32769-1.06324-3.70591-.95634-4.79418.43445-.63217.80625-1.17806,1.71252.00454,2.56873,1.06557-.95972,2.06849-1.86262,2.99642-2.69845C162.44127,218.18179,162.44127,218.18179,162.67323,222.38351Zm-39.859-93.37154c-.17967-2.05592-1.642-3.00888-2.84621-4.138-2.09574-1.96614-4.32911-3.8071-6.26451-5.91879-1.74885-1.907-3.09528-4.17669-4.77369-6.15645-1.53518-1.81255-1.60563-1.68295-3.79347-.89149-4.01181,1.451-8.05773,2.80535-12.07186,4.25285a53.99824,53.99824,0,0,0-5.15574,2.11961c-1.10761.53447-2.2038,1.26224-2.03321,2.86565,3.07025-.31393,5.921-.56742,8.76162-.91314a3.46129,3.46129,0,0,1,2.96673,1.17013c1.5955,1.50782,3.26366,2.93832,5.22177,4.68729-.15464-1.20879-.24791-1.93435-.39113-3.06116a4.41981,4.41981,0,0,1,2.34469,2.62217,9.0385,9.0385,0,0,0,3.61392,4.78848c3.28625,2.39942,6.88189,4.44393,9.38471,7.8019a3.24185,3.24185,0,0,0,1.31685.9928c.34222.14206.81754-.03529,1.53623-.0956a34.67247,34.67247,0,0,0-2.165-3.76274,2.7156,2.7156,0,0,1-.41733-2.58584A4.469,4.469,0,0,1,122.81426,129.012Zm78.80141,52.6608a11.68349,11.68349,0,0,0-1.28274-1.55556c-1.21787-.99384-2.54031-1.86262-3.72524-2.89395-1.30893-1.14056-3.14989.415-4.35752-.9723-2.65862.05461-6.02,2.94857-6.982,5.82214-1.03483,3.08842-.18654,5.9847.55835,9.10618,1.98884-.22171,4.14024.07511,5.70732-.74372A28.26057,28.26057,0,0,0,201.61567,181.67277ZM126.228,152.53144a36.9405,36.9405,0,0,1-4.27345,1.72277,9.50915,9.50915,0,0,1-4.30513.52073c-1.95368-.47753-2.545.63916-3.15444,1.874-.85969,1.74326-1.63066,3.53648-2.31185,5.35706a3.17777,3.17777,0,0,0,.12168,1.816c.39917,1.39976.953,2.75748,1.34759,4.15957.59014,2.09574.94494,4.279,2.45054,6.22817A112.1647,112.1647,0,0,0,126.228,152.53144Zm.94493-1.65908q2.46469-5.94958,4.75669-11.48056c-1.95589-2.50282-5.28429-1.5693-6.87863-4.02089.7471-1.47486-.46507-2.55173-1.3611-3.65712a2.253,2.253,0,0,0-3.19193-.66512,2.73052,2.73052,0,0,0-1.04728,3.20218,21.52315,21.52315,0,0,0,2.30836,3.75819,3.78672,3.78672,0,0,0,4.27566,1.23033c.47416-.13414.92328-.35363,2.023-.78459-.522,1.5636-.84386,2.5267-1.22241,3.65934-1.68982-1.57035-3.40922-1.71824-5.43893-1.51923,1.44633,1.68073,2.95311,2.98838,3.87533,4.62592C126.18365,146.84228,126.50538,148.79479,127.173,150.87236Zm64.77249,23.9686c5.14433-.51177,7.49147,3.3022,10.82324,5.19661,1.68982-1.33723,2.48583-2.75073,1.77389-4.90446a15.86656,15.86656,0,0,1-.30694-3.8765c-.10352-1.61692-.207-3.234-.35142-5.481C199.87578,168.90959,195.50242,170.66532,191.94544,174.841Zm-67.09459-23.5593c.46286-1.87846.4674-3.34657-1.30649-4.4416a8.58918,8.58918,0,0,1-1.8717-1.99687,2.42031,2.42031,0,0,0-3.93228.02049,11.53018,11.53018,0,0,0-.96659,2.662A8.56689,8.56689,0,0,0,124.85085,151.28166Zm25.93356,42.43118a8.97,8.97,0,0,0,1.3384.86529c1.48965.63916,3.00888,1.21566,4.53719,1.82513.61063-2.803.182-3.68775-2.09457-4.55991C152.52314,191.061,152.06261,191.27931,150.78441,193.71284Zm-2.60168,10.76643c1.15639-2.92016.357-4.50762-2.15268-4.95337a1.93376,1.93376,0,0,0-2.35389,1.43726,1.69535,1.69535,0,0,0,1.00525,2.28111C145.7776,203.71051,146.92841,204.04377,148.18273,204.47927Zm9.93851,13.08386c-.27853,1.04275-.854,1.965-.63333,2.61659.50036,1.46683,1.94669,1.34526,3.19868,1.43387C161.22677,219.11194,161.22677,219.11194,158.12124,217.56313Zm-44.4404-44.52343c-1.02342.79822-1.85133,1.39871-1.37368,2.58585.50036,1.244,1.55556,1.31114,2.927,1.07686C114.71334,175.47429,114.23464,174.34619,113.68084,173.0397Zm22.5835,48.37722c-.01141-.19783-.02271-.39683-.03412-.59479-1.27353.06719-2.55172.083-3.81851.21379-1.27586.1331-2.53926.37867-3.80942.5743.01478.10689.02841.21379.0432.32068Q132.4544,221.67328,136.26434,221.41692Zm-37.16843,6.33729c.05682.141.11364.28191.17163.42292q3.2051-.14655,6.41006-.29449l-.00337-.12843ZM120.21712,211.318c.02946.182.0602.36389.08978.54705q2.086-.31054,4.17215-.621c-.03179-.18759-.06253-.374-.09432-.56172Q122.302,211.00124,120.21712,211.318Zm1.31907,20.30705c.04087.216.08186.43317.12273.64929q2.21754-.42479,4.43484-.84946l-.08861-.48673Q123.77066,231.281,121.53619,231.625Zm20.6254-8.05214c-1.81837-1.10527-1.81837-1.10527-2.86217.76538C140.17042,224.10617,140.93,223.90263,142.16159,223.57286Zm-40.33883,8.57753c.04437.14322.09095.2854.13648.42863q1.95134-.23546,3.90491-.47078l-.07511-.49127Q103.80712,231.8849,101.82276,232.15039Zm3.48642-54.86577.39579-.94493c-.57546-.19108-1.14626-.39346-1.73081-.54018a2.29386,2.29386,0,0,0-.258.672C104.22661,176.77635,104.77249,177.02309,105.30918,177.28462Zm-24.0083,35.25575q-.15353.22182-.30822.44353,1.5573.26776,3.1124.53447c.01933-.10689.03749-.21262.05682-.31952Q82.73085,212.86962,81.30088,212.54037Zm38.14178,17.55853c-.02049-.10794-.04087-.21484-.06253-.3229q-1.54194.23022-3.0862.46054c.02958.14217.05915.2854.08757.42874Q117.91154,230.38214,119.44266,230.0989ZM105.4729,205.71647c-.02725-.13531-.05566-.27061-.08407-.40487q-1.27924.19282-2.55977.38438c.03529.18421.07173.36726.10806.55042Q104.20624,205.982,105.4729,205.71647Zm26.58518,8.76162c-.00454-.03411-.00792-.06823-.01246-.10351H129.371c.00221.03528.00338.0694.00454.10351Zm.79146-20.72892c-.03528-.29331-.05345-.4412-.07161-.589q-1.19069.16365-2.38126.32743c.01374.12506.0262.25024.03866.37646C131.23587,193.82544,132.03642,193.78783,132.84954,193.74917Zm-8.97774,11.62275c0,.02957.00233.058.00349.08756h1.61238c-.00337-.058-.00791-.116-.01024-.174Q124.67415,205.32814,123.8718,205.37192Zm-25.37627-6.76941c.01583.13869.03411.27632.04995.415q1.01323-.10216,2.02529-.20575c-.01025-.116-.02166-.23195-.0319-.34793Q99.51725,198.5337,98.49553,198.60251Z"/><path class="b" d="M54.60427,166.16457c-1.807,4.5394-3.57969,8.99474-5.349,13.43866-.4936-1.57489-.4936-1.57489,1.71707-7.04118C53.275,166.86613,53.275,166.86613,54.60427,166.16457Z"/></svg>