<svg xmlns="http://www.w3.org/2000/svg" xmlns:xlink="http://www.w3.org/1999/xlink" viewBox="0 0 300 300"><defs><style>.a{fill:none;}.b{clip-path:url(#a);}.c,.d{fill-rule:evenodd;}.d{fill:#fff;}</style><clipPath id="a"><rect class="a" x="0.35938" y="0.4521" width="299.64062" height="299.64018"/></clipPath></defs><title>gl_nav01</title><g class="b"><path class="c" d="M187.82791,44.53852c-.15575,3.04834,2.28827,5.03456,2.15538,7.869-.28345-.325-.68735-.60324-.83055-.9811-1.14632-2.9923-2.24266-6.00427-3.35049-9.011a8.54824,8.54824,0,0,0-.41634-1.1712,3.57729,3.57729,0,0,1,1.96953-5.212,2.714,2.714,0,0,1,3.38578,2.51259,35.3074,35.3074,0,0,1-.5503,5.44877c1.58966,1.197,3.5156,2.67133,5.47578,4.099a2.70494,2.70494,0,0,0,1.14833.32193c1.09953.17128,1.10155.15884.50873,1.86258C194.00762,48.79441,191.81163,45.47614,187.82791,44.53852Zm-1.23966-4.35444a3.39541,3.39541,0,0,0,.18893,1.36852c.26367.52946.82024,1.23233,1.2791,1.25518a2.15936,2.15936,0,0,0,1.48685-1.05381,4.39777,4.39777,0,0,0,.435-1.95189c.10174-1.547-.842-2.876-1.9135-2.8106-.91986.056-1.44932.97291-1.47633,2.56342C186.58613,39.64006,186.58825,39.72415,186.58825,40.18408Z"/><path class="c" d="M275.762,23.34149c.42144-2.31006-1.59168-4.49148-.47354-6.85556.04466-.09451.298-.09132.78293-.22326.26366,1.37053.58868,2.71407.76825,4.07727.21082,1.58955.14437,3.23726,1.4204,4.49148.164.161.33426.58145.25122.68735-1.3497,1.72457.11217,3.1438.44856,4.68455a2.86154,2.86154,0,0,1-.215,1.02065c-1.77645-.16819-1.01852-2.0381-2.08786-2.73788-.55763.78281-1.084,1.60518-1.6965,2.359a2.05711,2.05711,0,0,1-2.47943.78281,2.25865,2.25865,0,0,1-1.50333-2.39735C270.99534,26.50614,272.45817,24.67259,275.762,23.34149Zm.0404,1.44634c-2.29135.61675-3.63074,2.02875-3.57056,3.9194a5.06125,5.06125,0,0,0,.76633,1.69969c.49417-.24612,1.15344-.36552,1.4556-.759A5.45554,5.45554,0,0,0,275.80237,24.78783Z"/><path class="c" d="M265.749,35.31368a14.79077,14.79077,0,0,1-2.50633,1.004,2.723,2.723,0,0,1-3.23311-2.08786c-.21391-.68533-.49321-1.34981-.72264-1.9707.52744-1.004,1.1192-2.0111,1.59476-3.07013a2.91615,2.91615,0,0,1,2.19067-1.9051c.76623-.135,1.58232-.19626,1.91457.74752.28971.82332.42356,1.68715-.44856,2.281a15.55327,15.55327,0,0,1-2.37864,1.44836c-1.139.50564-1.193,1.33417-.86169,2.29454a1.7257,1.7257,0,0,0,2.17716,1.24381c.71541-.15576,1.412-.39348,2.117-.595Q265.67016,35.00956,265.749,35.31368ZM261.64994,30.195q.2274.23061.45482.46206a17.52191,17.52191,0,0,0,1.74424-1.30718.89158.89158,0,0,0-.09239-.86276.87526.87526,0,0,0-.8566-.06337A17.29548,17.29548,0,0,0,261.64994,30.195Z"/><path class="c" d="M246.81536,30.59691c1.437.56168,1.34247,2.15016,1.97166,3.24768.624,1.087,1.15769,2.226,2.00482,3.87261.62919-2.634,1.14217-4.73229,1.62591-6.83685.21179-.92092.18585-.92719,1.466-.8213q-1.35633,5.04743-2.70769,10.07421c-.189.03115-.37795.06337-.56794.09452q-2.19121-4.63023-4.38453-9.26131Q246.51943,30.78275,246.81536,30.59691Z"/><path class="c" d="M225.97236,39.2352c.271,2.87387,2.16473,3.63074,4.49978,4.05229-1.88851.96345-3.69517.52531-4.67212-1.09231a6.93157,6.93157,0,0,1-.32915-6.78082,1.87375,1.87375,0,0,1,2.28422-1.13685,2.19941,2.19941,0,0,1,1.21681,1.36118,2.00227,2.00227,0,0,1-.71222,2.47624C227.54948,38.54265,226.76868,38.851,225.97236,39.2352Zm-.07271-1.6997c2.37661-.67479,2.39947-.73508,1.15981-2.38278C226.70223,35.88471,226.41156,36.48275,225.89965,37.5355Z"/><path class="c" d="M204.58736,45.99837c.26271,2.45859.26271,2.45859,2.23852,3.87367-1.85429.59187-2.26031.43612-2.95169-1.25-.22221-.542-.2524-1.16492-.49215-1.69449a8.63932,8.63932,0,0,0-.88147-1.32269c.31661-.88882.66342-1.70278.89072-2.54684.24506-.9106.73933-1.6612,1.67578-1.61453a5.90243,5.90243,0,0,1,2.7971.76516c.82226.52649.5772,1.59891-.47141,2.29976A28.99045,28.99045,0,0,1,204.58736,45.99837Zm2.46178-2.40044c-.22433-1.13695-.77558-1.464-1.53246-1.22307-.94792.3-1.25422,1.00193-.92506,2.24776C205.52189,44.23435,206.30673,43.90732,207.04914,43.59793Z"/><path class="c" d="M218.25085,33.4863a16.25953,16.25953,0,0,0-1.64048,1.06732c-1.99759,1.76816-1.84184,4.03474.36754,5.49246.84416.55753,1.76508,1.01225,2.56246,1.629,1.99346,1.54181,1.5584,4.22463-1.19192,5.70829.30938-.67278.47556-1.07976.68107-1.46708,1.2252-2.31942,1.07147-2.84378-1.23137-4.25471a15.14778,15.14778,0,0,1-2.53024-1.64984c-1.73691-1.62485-1.06626-5.50894,1.08922-6.50152C216.73084,33.33788,217.25306,33.4863,218.25085,33.4863Z"/><path class="c" d="M242.76828,33.3264c-1.26464,1.14-2.78987,2.10253-3.72217,3.46882-.9272,1.35916-1.25837,3.12413-2.04225,5.22454-.85766-2.69217-1.58753-4.98884-2.31847-7.28646,1.63325.3063,1.25317,1.83355,2.19907,2.65272C238.75639,36.001,239.84551,33.41049,242.76828,33.3264Z"/><path class="c" d="M112.73912,188.52131c-1.07348,1.33981-1.723,2.2904-2.50994,3.10851-4.94524,5.14247-12.987,6.31525-18.86049,2.33143-1.54181-1.04552-2.99953-2.22033-4.57707-3.20557a4.5989,4.5989,0,0,0-2.29412-.67384c-6.95985-.04519-13.92088.03678-20.88031-.03434-4.07568-.04147-8.15805-.17383-12.22076-.4864-3.88622-.29844-7.75011-.88563-11.62485-1.33982-1.76976-.20721-3.57269-.25335-5.30545-.62823-4.32074-.93442-8.73227-.99353-13.09554-1.48876-4.99872-.56688-7.72045-3.61266-8.7967-8.09373A37.73167,37.73167,0,0,1,11.395,165.18337c.2574-2.4233.12142-2.73321-1.44421-4.46661,1.70118-.45313,1.71723-1.78571,1.73743-3.15369a188.80248,188.80248,0,0,1,2.75767-28.36357c1.30143-7.77861,2.49122-15.57742,3.87739-23.341,1.11506-6.24721,2.45072-12.4554,3.76-19.039-1.66068-.58252-3.45223-1.28123-5.29248-1.80814-.46471-.1329-1.10166.24665-1.63378.45578-1.55425.61154-3.05194,1.49195-4.97321.89136-.4864-1.47536.38051-2.58574,1.08444-3.68421,1.32174-2.062,2.69483-4.10268,5.34032-4.85435,1.4405,1.82207.33788,3.59077-.07474,5.60909,1.51524.56179,2.97455,1.10262,4.25057,1.57563,3.96926-3.11372,4.54911-7.6421,6.09816-11.63995,1.74583-4.505,3.04886-9.187,5.5049-13.39812A35.51265,35.51265,0,0,1,34.424,56.7495a3.83429,3.83429,0,0,1,1.3902-.95781,58.87524,58.87524,0,0,1,16.95731-5.16118c3.49582-.58559,6.87332-1.8429,10.34362-2.62,5.37562-1.2034,10.74284-2.57958,16.19108-3.28818a205.87987,205.87987,0,0,1,20.80355-1.65079c3.92874-.10908,7.89545.74071,11.82728,1.28686,5.73688.79738,11.1898,2.69483,16.67492,4.4681,3.54824,1.14738,7.19206,2.00546,10.7185,3.21036,4.8149,1.64505,9.53741,3.55855,14.34137,5.23645,2.79657.97589,5.70467,1.62953,8.51262,2.57745,11.90467,4.01859,23.78851,8.102,35.686,12.14294,6.7518,2.29348,13.48169,4.66542,20.28643,6.78964,6.07072,1.89426,12.24734,3.44128,18.34708,5.24527,4.80087,1.41977,9.54358,3.03845,14.33414,4.49564q9.377,2.85238,18.79245,5.58113c5.62,1.6291,11.26188,3.17708,16.89342,4.76461.327.09239.64683.21126.96557.32863a4.15678,4.15678,0,0,1,3.13965,4.29363c.02393,4.56941.25028,9.14393.55764,13.70506.31247,4.65808.80461,9.30372,1.2521,13.9515.4309,4.479,1.03829,8.94618,1.3009,13.434.11631,1.99186-.51288,4.017-.64779,6.03692-.27833,4.14-.45791,8.2868-.66768,12.43148-.08516,1.69342-.17234,3.38791-.20455,5.08335a1.8593,1.8593,0,0,1-1.45772,1.86215c-1.86151.53828-3.746,1.01065-5.64386,1.39956-2.89885.59442-5.81949,1.08859-8.72759,1.63995a3.14454,3.14454,0,0,0-2.20737,1.7941c-1.64462,2.75862-3.37749,5.63663-6.66875,6.71076a48.8212,48.8212,0,0,1-7.36642,1.69491,19.52269,19.52269,0,0,1-4.58281.00936,6.08845,6.08845,0,0,1-5.78834-5.91912c-.04976-.57262-.1194-1.14365-.19414-1.85428a23.4368,23.4368,0,0,0-7.12241.09962q-6.92875.99832-13.86284,1.96389c-2.34748.33012-4.70018.63025-7.04554.976-6.3749.94006-12.755,1.85268-19.11949,2.86291-4.85594.77038-9.6921,1.65919-14.5304,2.53546a8.60454,8.60454,0,0,0-1.73074.76931,3.346,3.346,0,0,0-3.5965-.20551c-.99992.421-2.25414.23975-3.70346.35191-.54924,1.236-1.26252,2.76436-1.91042,4.31915a13.22741,13.22741,0,0,1-3.84986,5.306c-1.31546,1.071-2.60392,2.1928-4.01391,3.12679a7.25322,7.25322,0,0,1-3.00888,1.26975c-4.44992.49789-8.902,1.39542-13.40333.33852a12.31155,12.31155,0,0,0-3.26065-.41177c-4.17072.17085-7.35344-1.71979-10.00362-4.68562-1.4104-1.57913-2.68228-3.285-3.97287-4.967a2.3618,2.3618,0,0,0-2.18812-.964q-6.47409.23826-12.95275.35457C117.60336,188.56235,114.89769,188.52131,112.73912,188.52131ZM97.65694,125.05322c-.893.26888-.72009,1.01023-.76368,1.67525-.12088,1.86055-.259,3.72-.40177,5.57954-.40231,5.24527-.9895,10.48332-1.17066,15.73582-.2222,6.45432-.08516,12.92065-.15,19.38113-.0254,2.54216-.28184,5.08431-.24187,7.62338.04519,2.88376.31555,5.76336.46355,8.64563.04359.856.365,1.86055-1.09125,2.3864-.26005-4.8284-.51287-9.50988-.77345-14.33935-1.35236.33841-2.31942,1.76349-3.65722.67852-4.05186.27047-8.10106.60473-12.157.788a55.97694,55.97694,0,0,1-7.37842-.08516A16.89507,16.89507,0,0,1,66.20655,171.89c-.90476-.32809-1.452-1.05743-.93389-2.009,1.41105-2.59414,2.90927-5.13991,4.38-7.71684,2.43467.12089,4.83723.57986,7.14421.28706a156.25392,156.25392,0,0,1,17.09594-1.62591c.06847-1.40211.16405-2.74458.19414-4.08865.10791-4.83829.06432-9.68435.327-14.51434.23932-4.40473.88616-8.78565,1.206-13.18836.694-9.57229,1.13525-19.1652,1.98048-28.72335.72466-8.20228,1.86725-16.36714,2.824-24.54911.175-1.4945.52127-2.85877,2.37194-2.98858a30.93086,30.93086,0,0,1,.60994-3.38058,22.4964,22.4964,0,0,1,1.22935-2.78254c-1.59476-.2357-3.16209-.46715-4.91675-.72678-.21742.96355-.39965,1.68353-.54084,2.41138q-1.38074,7.11488-2.742,14.23346c-.25388,1.32843-.43505,2.67144-.69882,3.99775-.67639,3.39769-1.6088,6.76168-2.02141,10.18946-.65939,5.47832-1.01863,10.99407-1.42615,16.4995-.15256,2.06139-1.20383,3.67592-2.22384,5.34022-.54.88147-1.05339,1.779-1.75838,2.97359-1.58328-.08676-2.59925,1.25263-3.5627,2.7062a15.96067,15.96067,0,0,1-1.45718,1.76763c-3.04887,3.4096-6.0905,6.82494-9.17509,10.2019a5.14147,5.14147,0,0,1-1.97112,1.5247,73.51558,73.51558,0,0,1-9.29608,2.63816c-5.3366.96143-10.72987,1.62644-16.1158,2.278a60.08342,60.08342,0,0,1-7.37.34319c-2.11551-.00627-4.22878-.27462-6.34534-.39412-4.39963-.24857-8.79915-.50405-13.20143-.69765a3.68657,3.68657,0,0,1-3.87315-2.95743,7.52461,7.52461,0,0,0-.87318-1.614q-.30444.04593-.60846.09186c-.23358,1.63527-.56794,3.26373-.68266,4.90729-.40231,5.76134-.73869,11.52778-1.0652,17.2938a1.99,1.99,0,0,0,.34575,1.40573c1.63888,1.52991,1.35491,3.58715,1.52831,5.47216a3.88073,3.88073,0,0,1-.72891,2.58011,4.02543,4.02543,0,0,0-.8347,3.3255c.16086,1.26252.37583,2.5193.50979,3.78394a10.122,10.122,0,0,0,9.66925,8.88484c3.71229.12982,7.40384.82279,11.10624,1.25008,2.14963.24762,4.303.46716,6.5483.70967.66129-3.76427-.09813-7.25744.43813-10.61154a24.01339,24.01339,0,0,1,3.03483-.39146c3.5409.01871,7.096-.74858,10.61973.40284,2.171.70967,2.35578.746,2.6086,3.09819.08208.76007.11057,1.52629.16044,2.28933.14172,2.17983.28237,4.35966.43037,6.64952,2.57851.19052,5.01786.47343,7.46242.53265a222.42729,222.42729,0,0,0,27.506-.71956c1.10474-.11057,2.0044-.28546,2.1155-1.6191.00468-.05561.27877-.08931.55955-.17181.20668.48279.419.97907.65417,1.52927,11.47526-1.01278,22.93766-.07209,34.43163-.96813.18744-3.42672,1.1712-6.542.55658-9.6449-6.04638.36233-11.88395.74188-17.72567,1.05488-5.8147.312-11.603,1.55744-17.46507.59336,11.76976-1.59009,23.6873-1.51013,35.56753-3.19367.09037-2.88482.17659-5.51309.25441-8.14147.07528-2.54481.05561-5.09632.23677-7.6338.1801-2.52344.55859-5.03243.8498-7.54758q.33554.02806.67224.056c-.18116,3.75492-.38933,7.5092-.53573,11.2656-.15108,3.87325-.24145,7.74959-.3618,11.7401a16.32281,16.32281,0,0,0,1.94093.09558c5.66895-.44292,11.332-.96249,17.00515-1.3363a2.74775,2.74775,0,0,0,2.76542-2.39161c.71275-2.53227,1.53448-5.03551,2.38013-7.52685a31.3293,31.3293,0,0,1,10.31715-15.15905,8.16892,8.16892,0,0,1,9.48861-.4662,10.36948,10.36948,0,0,1,5.03976,8.1337c.41007,4.81076.52117,9.647.76825,14.47172.02393.473.11217.94282.162,1.33268,3.611-.44908,7.05182-.97078,10.51235-1.28856,8.02675-.73657,16.08561-1.18619,24.09056-2.104,9.10141-1.04287,18.16125-2.44924,27.23352-3.73557,5.62111-.79738,11.23393-1.66589,16.81761-2.49761.26058-.84607.43611-1.40052.60218-1.95805.90327-3.00325,1.763-6.0199,2.72853-9.00274a8.27562,8.27562,0,0,1,1.31451-2.45136c1.16077-1.51067,2.52089-1.71777,3.92662-.41794a8.25687,8.25687,0,0,1,2.091,3.093c1.99558,5.43165,2.15229,11.13271,2.20109,16.83536.0084.91263.00106,1.82579.00106,2.9569,2.332-.544,4.371-1.06318,6.43093-1.4893,2.56873-.53158,5.19445-.83374,7.71949-1.51693,2.56757-.69511,2.58734-.9407,2.6994-3.56589.15267-3.55919.243-7.12294.50671-10.67384.21391-2.87068.65928-5.72381.96355-8.58843a8.76113,8.76113,0,0,0-.08728-1.77124c-.25845-2.61956-.56689-5.23539-.79217-7.8575-.326-3.78607-.59591-7.57671-.868-11.08965a19.96121,19.96121,0,0,0-4.01805-.69563,35.36752,35.36752,0,0,1-11.01385-.72987,4.05775,4.05775,0,0,0-1.26454.0286,15.42664,15.42664,0,0,1-2.46688.15724c-3.45946-.34681-6.91169-.76314-10.365-1.168-8.25618-.96876-16.51651-1.925-24.76961-2.92734-3.961-.4813-7.90215-1.13282-11.86619-1.56989-5.82046-.64162-11.65962-1.12909-17.48433-1.73807-10.47385-1.09529-20.94984-2.16526-31.4103-3.37324-7.2501-.83736-14.47533-1.89851-21.71405-2.84017-3.56334-.46311-7.13284-.88254-10.86745-1.343-.43558-4.27917-.77559-8.657-1.35023-13.00463-.68787-5.20945-1.547-10.3971-2.38491-15.58582q-1.39542-8.64122-2.8962-17.2652c-.1936-1.12335-.30576-2.159.76-3.0747,1.59381.50512,3.19526,1.03351,4.80927,1.52045q8.4114,2.53774,16.82962,5.05061c7.48729,2.2317,14.9545,4.5356,22.47348,6.64792,7.1121,1.99813,14.2948,3.73673,21.42029,5.68447,7.44743,2.03661,14.85956,4.20549,22.29657,6.27889q8.82876,2.46135,17.68356,4.831c8.36006,2.24574,16.73043,4.45619,25.09463,6.69108.57316.15257,1.12133.39763,1.68821.57518a4.93127,4.93127,0,0,1,3.75853,4.58749c.22008,2.39533.46408,4.788.69872,7.18163.58656-3.07735-.19626-6.163.17957-9.26588,5.31906.37637,10.12716,1.303,14.38719,4.32691.12354-2.56034-1.084-4.06218-3.68581-4.79779-5.38753-1.52257-10.79791-2.97146-16.16258-4.574-9.58313-2.863-19.135-5.83289-28.70878-8.73015-9.89667-2.99486-19.838-5.84544-29.69413-8.96745-7.68314-2.43424-15.25719-5.211-22.89461-7.79211Q176.00988,65.71462,164.045,61.771c-6.12409-2.01418-12.28508-3.91365-18.4046-5.93931-2.73789-.90583-5.37966-2.10711-8.12744-2.97774-5.41708-1.71618-10.86436-3.3406-16.324-4.91771-6.12261-1.76913-12.281-3.37431-18.76385-2.52813a1.13325,1.13325,0,0,1-.72636-.0623c-1.93679-1.40264-3.85295-.19722-5.95388-.15416,1.20755.65874,2.17515,1.26667,3.20727,1.73181a4.52578,4.52578,0,0,1,2.73577,3.97605,14.96725,14.96725,0,0,1-.893,6.9672,16.58824,16.58824,0,0,0-.46769,2.14038c1.6711.12407,3.05461.22677,4.42865.32852.95006-3.99573,1.82632-7.683,2.73789-11.5179a24.50072,24.50072,0,0,1,3.5358.025c4.43077.7018,8.77012,1.97219,13.29542,2.09211a3.88032,3.88032,0,0,1,2.99272,1.63208,15.00073,15.00073,0,0,1,2.98869,7.98061c.33065,2.60807.40539,5.2473.63014,7.86993.74763,8.71612,1.66908,17.42085,2.225,26.149.56636,8.89111,1.06371,17.80508,1.0585,26.70916-.00468,7.37269-.7859,14.74527-1.22148,22.118a44.62469,44.62469,0,0,1-4.4059,17.39182c-1.43635,2.90194-4.16126,4.41675-6.75849,5.89052-1.61135.91475-3.69251.98694-5.54839,1.48887-5.48619,1.48313-10.96557,2.99283-16.44709,4.49148a2.15632,2.15632,0,0,1-2.9688-2.0381c-.0488-.75741.0674-1.52459.08877-2.28774.05135-1.86736.12088-3.73461.13024-5.6025q.03109-6.48957.00723-12.97965a4.69954,4.69954,0,0,0-.16607-2.23852c-.79578-1.29112-.61515-2.60084-.543-3.948.28653-5.34128.56115-10.68309.86744-16.02341.04827-.84352.23613-1.67992.33745-2.54056q.84954-8.3438,1.70066-16.68684c.58294-5.65024,1.1898-11.29729,1.76763-16.94752q.77554-7.58755,1.50333-15.18032c.06592-.69149.00883-1.39542.00883-2.0936a19.7451,19.7451,0,0,0-1.33,5.29141q-1.06053,8.698-2.009,17.40948-.58943,5.43527-1.01225,10.88818-.60123,7.60014-1.06583,15.21A7.80006,7.80006,0,0,0,97.65694,125.05322Zm-16.23786,1.19767c1.37522-1.735,2.89577-3.65626,4.42047-5.5739a8.43016,8.43016,0,0,1,1.61656-1.938c2.43722-1.60039,3.36707-4.033,3.65668-6.68991.65874-6.037,1.13695-12.09414,1.67-17.93692-1.80814.63121-3.47137,1.81282-4.90527,1.57967a64.12978,64.12978,0,0,0-7.33154-.48481c-2.68346-.12928-2.86249-.38572-2.61233-3.09926q.88781-9.63858,1.79411-19.27566a6.51621,6.51621,0,0,0-.421-3.58779c-1.07721,2.62009-3.0966,2.61328-5.009,2.57958a24.42716,24.42716,0,0,1-4.00508-.65619c-2.32676-.43814-2.8593-1.08082-2.9097-3.39663-.02179-.99566.34267-1.763,1.41881-1.67471q4.15116.34191,8.28425.89083a29.96133,29.96133,0,0,1,3.46776.89392c.20243-1.52151.354-2.661.51447-3.87059,1.031-.10855,1.93636-.20349,2.78509-.2928,2.021-4.384,2.021-4.38815,6.99164-4.20081.93336.03529,1.86364.15735,2.79647.175,1.58859.02956,3.17867.00776,4.88241.00776a14.23365,14.23365,0,0,0,.64375-8.26607c-.338-1.42348-.95983-2.86451-2.42127-3.41119a14.36942,14.36942,0,0,0-4.87252-1.166,61.62022,61.62022,0,0,0-8.83392.74911c-2.847.42155-5.65024,1.14259-8.46807,1.75158-5.63663,1.21786-11.32844,2.23532-16.88725,3.74131-4.58748,1.24285-9.10183,2.71088-13.84039,3.30891a10.28787,10.28787,0,0,0-2.2012.6209,24.03419,24.03419,0,0,1-4.4816,1.65866c-2.57543.37423-3.83742,1.99547-4.71517,4.10831C27.33011,75.11413,22.604,87.5437,20.61053,100.851c-.90434,6.03692-2.21821,12.01206-3.33018,18.01836-.53574,2.89364-1.03415,5.794-1.68981,9.47926,2.55108-1.969,4.81969-1.047,7.05033-1.04138,7.303.01924,14.60876.1599,21.90872.00159,5.5132-.11939,11.01544-.68681,16.528-.94016,4.83414-.22167,9.67446-.31927,14.51381-.3971C77.33671,125.94353,79.08563,126.1315,81.41908,126.25089ZM183.16451,75.3846c-14.79608-4.64617-29.748-8.89993-45.02233-13.38727.19,1.47282.30056,2.45859.44749,3.43926.326,2.17515.67586,4.34615,1.00608,6.52024q.61047,4.02119,1.20383,8.04493c.13705.92039.25857,1.8429.39455,2.76329q.64938,4.39581,1.30611,8.79043c.28971,1.927.70605,3.84253.86127,5.77942a33.30738,33.30738,0,0,0,1.47537,8.97c.80046,2.196.63174,2.2702,2.8879,2.57023,8.6554,1.15088,17.30868,2.32048,25.96781,3.4517,3.1791.41581,6.36969.7439,9.48543,1.10368C185.22962,109.20736,185.17359,84.96412,183.16451,75.3846Zm37.98881,41.68132c-.06443-.77091-.09973-1.17949-.1329-1.588-.45164-5.57858-.82853-11.16492-1.37989-16.73415-.45366-4.58387.815-9.30277-1.31547-13.93023-10.76464-3.18644-21.847-6.20564-32.98018-9.04272.17967,12.75341.35616,25.23273.53572,37.91034C197.47484,114.64316,209.19888,116.2426,221.15332,117.06592Zm-92.05588-.95984c-.23677-13.82285.22837-27.7936-1.53926-41.60912-6.52747-.81715-12.7633.25793-19.02295.40645-1.45719.03424-1.87555.693-2.03757,1.98048-.46567,3.69932-1.005,7.38981-1.546,11.07976-.31873,2.18079-.77664,4.344-1.02989,6.53215q-1.26,10.86669-2.40671,21.74626a30.90292,30.90292,0,0,0,.03636,8.15763C110.79915,121.61556,119.8491,118.89064,129.09744,116.10608ZM248.87059,92.96334c-9.28928-2.44254-18.69688-4.91665-28.03293-7.37163a132.6,132.6,0,0,0,2.20013,31.79816c9.33286,1.12388,18.46638,2.22448,27.73492,3.34113,0-3.23365.13077-6.10241-.03328-8.95395-.20966-3.64009-.69149-7.2636-.99152-10.89955C249.5372,98.31812,250.53806,95.67007,248.87059,92.96334Zm-65.68938,80.86044v8.72186c2.56139-.1345,4.8621-.08155,7.10891-.40646,7.0498-1.01905,14.06834-2.25361,21.11814-3.27053,11.59318-1.67312,23.19666-3.26427,34.80333-4.84031,3.69314-.5015,7.42042-.75177,11.10835-1.288,3.094-.45,3.0763-.59176,3.24556-3.68262.06017-1.09337.30938-2.17568.435-3.26745a15.169,15.169,0,0,0,.00936-1.57605c-1.93222.34159-3.58407.68628-5.25156.9173-3.01718.41794-6.04988.72626-9.064,1.15812-2.85728.40911-5.6917.963-8.54792,1.37362-4.95248.71179-9.91431,1.35757-14.87093,2.03864-2.3527.32341-4.693.76006-7.05394.9796-7.09755.65875-14.20752,1.2049-21.30495,1.85854C191.03976,172.89659,187.17427,173.38246,183.18121,173.82378Zm68.07949-80.3346c-.678,9.47363,1.19607,18.30658,1.15238,27.51335,7.47135.60729,14.4816,2.27945,22.00695,2.1777-.11216-2.1861-.1381-4.11512-.323-6.02968-.37476-3.87474-1.04552-7.73289-1.20957-11.61444-.23039-5.44515-1.439-6.45846-5.90551-7.72672-2.12017-.60218-4.2797-1.06009-6.406-1.64664C257.566,95.33209,254.57164,94.44285,251.2607,93.48918ZM128.286,124.7516c-5.35223,1.55532-10.19626,2.96264-15.23485,4.42716,0,1.91042.08612,3.68582-.014,5.45037-.53881,9.48021-1.13377,18.958-1.67886,28.43831a29.0816,29.0816,0,0,0,.15725,3.09245c5.29046-1.70118,9.90453-3.9044,13.3608-7.9754a5.93348,5.93348,0,0,0,1.33577-2.89045c.298-2.263.27047-4.56676.43558-6.84939.34107-4.7256.1043-9.472,1.0299-14.18519C128.25742,131.30766,128.09285,128.21011,128.286,124.7516Zm-26.62092,8.03611c-2.19853,12.37449-1.56052,24.23867-1.9,36.21957,3.56227-.70754,6.84779-1.36011,9.96778-1.97941a306.93939,306.93939,0,0,0,1.21787-37.384C107.61378,130.77406,104.53429,131.81639,101.6651,132.78771ZM79.11986,93.605a12.96773,12.96773,0,0,0,2.02046.42368c2.11338.05858,4.23037.098,6.34375.05805,2.71917-.05082,3.20515-.37637,3.45531-2.96318.65928-6.82749,1.21011-13.6655,1.75881-20.50341a15.11408,15.11408,0,0,0-.15-3.04313,2.5954,2.5954,0,0,0-3.80213-2.28518c-.35031.13077-.82534.423-1.05637.29747-1.71521-.93081-3.39514-.15947-5.08335-.1314C80.13945,74.67185,79.8711,84.01354,79.11986,93.605Zm196.64573,9.52445c.23156,6.1091.44855,12.048.68415,17.98571.06857,1.72149.65938,2.374,2.52918,2.42436,3.13456.08516,6.27422.02339,9.40559.02339.67075-.772,1.32694-1.5263,2.01843-2.32208-.21083-1.74892-.50564-3.50986-.61154-5.2827-.11014-1.85641-.00414-3.72472-.05294-5.58634-.08931-3.35453-1.44741-5.87957-5.21827-6.906a16.42913,16.42913,0,0,0-2.42329-.76C280.07538,102.49246,277.99676,101.78906,275.76559,103.12941ZM168.54077,191.44865c1.29782-1.969,2.61009-3.38259,3.26426-5.05369a27.67574,27.67574,0,0,0,.763-18.89579,6.9358,6.9358,0,0,0-3.0545-3.92088,3.10044,3.10044,0,0,0-4.35338.49576c-1.91669,2.01939-3.8893,4.03719-3.6941,7.18419a3.45577,3.45577,0,0,1-.53063,1.40891c-2.32409,5.13056-1.10985,9.95844,1.44634,14.5589.8617,1.55329,2.29763,2.862,4.398,2.17206C168.36,188.87949,168.09636,190.08907,168.54077,191.44865Zm-15.035-15.91125c-7.04821.51341-13.71537.99875-20.61463,1.50131-.2222,3.34369-.4376,6.59136-.652,9.82394,5.50277.88148,17.82528.13556,20.37785-1.16492C152.90669,182.38573,153.19268,179.11679,153.50579,175.5374Zm-59.707-4.70433c0-1.97888.02754-3.49582-.00989-5.01116a8.03287,8.03287,0,0,0-.27621-2.97455c-.60729-1.3565-1.808.05337-2.71811-.25187a1.94,1.94,0,0,0-.75071-.08558c-3.203.25537-6.42316.38721-9.6012.82492-3.28766.45365-6.51354,1.61134-9.93409.24761-1.28112,2.35312-2.486,4.56516-3.72526,6.84046a8.06274,8.06274,0,0,0,4.85339,1.40424c2.43882.02754,4.88242.00574,7.31762-.11567C83.76094,171.47108,88.5634,171.1482,93.79879,170.83307ZM17.61153,138.70055c.31927.40284.53371.93241.90231,1.08189a11.65621,11.65621,0,0,0,2.22342.49522c4.69232.88361,9.4429.81769,14.18933.93815,4.2376.10791,8.46744.66916,12.70461-.01978,1.927-.31353,3.86538-.55806,5.79451-.86127,3.68422-.57826,7.369-1.15759,11.04542-1.78422a13.11092,13.11092,0,0,0,2.14145-.83055C55.6605,136.568,21.4027,137.24964,17.61153,138.70055Zm44.94972-88.15c-2.81826-.53775-18.68858,3.18229-21.01119,4.78375C48.75253,54.64857,55.29977,52.21283,62.56125,50.55056ZM95.0426,65.61574v14.3336c.05868.0083.1178.01712.17648.02594.82853-4.67371,1.65653-9.34795,2.51728-14.208C96.78375,65.71376,96.06218,65.67336,95.0426,65.61574Zm-39.10121,114.776c-.03008-2.66516-.45269-2.98762-3.19994-2.5749C53.13547,179.55546,55.16942,179.03323,55.94139,180.39175ZM268.83,166.81757q-.369-.01243-.73816-.02541-.16968,1.622-.3416,3.24406.30684.03891.61367.07836Q268.59734,168.46608,268.83,166.81757Zm-88.3119-10.7573c.58559,1.09688-1.273,2.64443.5471,4.16754C180.83574,158.48144,180.678,157.2708,180.51807,156.06027ZM178.373,157.236c-.60633-2.05936-.60633-2.05936-1.83355-2.10455.31566.53946.58251,1.05339.91157,1.52364C177.57668,156.83479,177.84662,156.91368,178.373,157.236Zm-75.48844,36.76881c2.4721-.0607,2.4721-.0607,2.904-1.71362C104.81827,192.86385,103.96847,193.36524,102.88456,194.00484Zm15.2758-28.27787c.07846.151.15628.30258.23464.45365q1.55585-.81683,3.11223-1.6342l-.1885-.36446Q119.73959,164.95446,118.16036,165.727ZM32.647,135.58067c.0135.192.02647.38306.04.57464q1.50753-.12774,3.01559-.2559l-.02179-.31874Zm41.9689-89.223-.05135.49575q1.23738-.1861,2.47464-.37168c-.00723-.07836-.014-.15682-.02126-.23571Q75.81728,46.30213,74.61594,46.35762ZM13.00479,164.58225c-.08144.0067-.163.014-.24453.02073v2.80284c.12408-.00574.24762-.011.37169-.01669Q13.069,165.98591,13.00479,164.58225ZM122.30716,53.37q.02184-.19631.04316-.39252-1.1385-.13077-2.27646-.26112-.02409.21737-.04774.43505Q121.167,53.26048,122.30716,53.37ZM46.08885,183.16291q.30444.133.60888.2658.43841-.92592.87585-1.8528-.34575-.15181-.69149-.30428Q46.48563,182.21782,46.08885,183.16291ZM99.99092,114.4386c.09548.03434.19053.06858.286.10281q-.05216-1.07152-.10377-2.14293l-.18223.137ZM47.666,187.37606c-.00053-.11206-.0016-.22422-.00213-.33692h-1.712q.00159.169.00255.33692Zm77.69888-115.5516c.624.8482,1.19766,1.17842,1.67056-.09707C126.359,71.7663,125.86167,71.79544,125.36485,71.82446ZM114.39,57.63353q.07623.27255.15257.54509.71253-.288,1.424-.57571c-.05092-.14065-.10227-.28184-.1532-.4225Q115.10165,57.407,114.39,57.63353ZM86.50244,62.22262c-.09037-.03679-.18117-.07368-.27154-.111q-.28737.5832-.57358,1.16641c.12822.0556.25644.11057.38466.16617Q86.27243,62.83373,86.50244,62.22262Zm72.9686,127.108a2.498,2.498,0,0,0-.84926-.284c-.12769.01148-.22741.34106-.33958.5269a3.70994,3.70994,0,0,0,.74816.37637C159.09309,189.96712,159.24523,189.65561,159.471,189.3306Zm-.41113-18.76183q.23987.0421.47971.08463l.43441-1.74116c-.1245-.03371-.24857-.06741-.37317-.10122Q159.33054,169.68942,159.05991,170.56877Zm-44.401-3.90951q.05533.229.11163.45791c.34256-.10961.68883-.21136,1.02054-.3468a2.4321,2.4321,0,0,0-.09813-.42517Q115.17592,166.50245,114.6589,166.65926Z"/><path class="c" d="M16.41344,161.53232a447.92758,447.92758,0,0,0,48.03228.14438c-.4662,3.6183-2.1424,6.15578-3.67284,9.00838-2.26339,0-4.62236.00733-6.98122-.00149-3.98063-.01457-7.965.055-11.94147-.08155-6.52906-.22369-13.05195-.625-19.581-.85394-1.38139-.04826-1.84089-1.15046-2.426-1.8782a38.43288,38.43288,0,0,1-3.0529-4.96034A6.58576,6.58576,0,0,1,16.41344,161.53232Z"/><path class="c" d="M136.75038,139.32038c.61356,0,1.22722.00319,1.84036,0q12.23085-.0614,24.46075-.12407c7.72981-.0404,15.46068-.13332,23.19155-.11472,9.34424.02339,18.6906.07432,28.03388.23422,9.935.17021,19.86806.49055,29.8031.72934,8.48264.204,16.96518.45419,25.44973.55285,6.19533.07219,12.39374-.07219,18.59-.10589a11.36126,11.36126,0,0,1,1.40679.15937c.21082.9728-.20031,1.26039-.91051,1.26145-5.68553.00829-11.371.06539-17.05543-.00468-5.34394-.06538-10.68681-.27047-16.03065-.407q-10.05288-.25771-20.10685-.503c-2.2904-.05656-4.58291-.06028-6.87119-.163-22.16675-.99471-44.34392-.922-66.52311-.68267-7.641.082-15.2826.18213-22.92416.2523-.80727.00723-1.61613-.13237-2.42382-.204Q136.71577,139.7609,136.75038,139.32038Z"/><path class="c" d="M161.43388,121.42865a38.664,38.664,0,0,0,1.08709-4.04814,38.96333,38.96333,0,0,0,.217-4.29884c2.38481.37062,4.51945.6899,6.65,1.0367,2.7483.44749,5.49969.88042,8.23545,1.39276,1.23551.231,2.43573.63854,3.66922.97079.62919,2.35524-.26473,4.47436-.43186,6.62825-.08835,1.13579-1.09124,1.14408-1.952,1.11718-2.62263-.081-5.24314-.17138-7.86376-.29907-1.69023-.083-3.3743-.28451-5.0656-.34883C164.13232,123.50939,162.496,123.08423,161.43388,121.42865Zm2.28518-.326c5.22455.49108,9.92473.9323,14.85541,1.39542.544-1.34194,1.06732-2.632,1.76711-4.35657-5.6108-.6193-10.721-1.9-16.1678-1.79921C164.01186,118.043,163.879,119.4301,163.71906,121.10268Z"/><path class="c" d="M286.337,160.897V147.13482c2.794-.736,3.92673.04,3.88931,2.74054-.05189,3.79426-.17022,7.58755-.26261,11.49918-4.86636.76985-9.60184,1.519-14.32276,2.266-.4527-1.14929.14226-1.51109.82854-1.61284,1.42656-.21082,2.8728-.28716,4.3067-.44961C282.62327,161.36827,284.46713,161.12746,286.337,160.897Zm1.90107-1.67163a16.26765,16.26765,0,0,0,.54094-7.611C288.07407,154.113,288.28074,156.67851,288.23811,159.22534Zm.72678-10.53053c-.39656-.23-.65715-.50458-.87-.47077a.83026.83026,0,0,0-.57837.55859c-.01138.2019.36031.61409.515.59176C288.30041,149.336,288.5309,149.03333,288.96489,148.69481Z"/><path class="c" d="M87.93368,180.61087c.0571.97174.10749,1.82675.15778,2.68228q-.18611.17208-.37116.34415c-1.50811-2.50058-3.76576-1.72553-5.85575-1.684-1.10208.02233-2.20895-.01042-3.30477.08452a2.44777,2.44777,0,0,0-1.58179.53531c-.48906.62292-.75953.53053-1.43177.28812-1.6005-.57624-1.63314-.486-2.19014,1.94933,4.22771-.35871,8.35846-.7086,12.783-1.08348-.89084,1.28793-.89339,1.2605-6.93977,1.7889-2.33239.20349-4.642.90742-7.34919.17393.29535-1.34768.57518-2.62519.86011-3.92407A63.57372,63.57372,0,0,1,87.93368,180.61087Z"/><path class="c" d="M202.8748,164.27956c-.11726,1.424-.54711,1.847-1.64356,1.80506-.97907-.03743-1.33513-.55338-1.28952-1.4624.0623-1.20542.86383-2.24882,1.72564-2.1206A1.37345,1.37345,0,0,1,202.8748,164.27956Z"/><path class="c" d="M227.06307,164.33825c-1.83355-2.34547-1.69034-3.21812.53361-4.17073C228.75543,162.189,228.72843,162.459,227.06307,164.33825Z"/><path class="c" d="M249.71262,159.77457c1.22615,1.48473,1.22615,1.48473-.081,2.92373C248.67124,161.76026,248.64221,160.87156,249.71262,159.77457Z"/><path class="c" d="M126.53966,180.247c.37221-.26473.72051-.68788,1.12441-.74965.40964-.06283,1.16385.1262,1.2589.38881.27717.76623-.35765,1.01129-.99672,1.03053a6.89085,6.89085,0,0,1-1.21638-.1734Q126.62424,180.49476,126.53966,180.247Z"/><path class="c" d="M166.02923,180.41567c.55753.9962.80047,1.52257,1.12644,1.98984.679.9728,1.411,1.02734,2.30708.22475,2.42532-2.17366,2.70355-8.74365.44845-11.15142a6.26737,6.26737,0,0,0-1.10985-.748c-3.38164,2.00174-3.1387,5.54838-3.83327,8.88228-.37892-.31406-.7943-.49267-.80461-.69042-.14853-3.04419.39242-5.94357,2.53333-8.23652,1.7266-1.847,3.57471-1.64877,4.68041.64375a15.11217,15.11217,0,0,1,1.328,5.36935,9.76833,9.76833,0,0,1-2.1222,6.66036,2.60107,2.60107,0,0,1-3.16156.828C166.16936,183.67058,165.68551,182.62814,166.02923,180.41567Z"/><path class="c" d="M165.17465,167.792c-.137-1.40892-.20763-2.14187-.30725-3.16252,1.26252.309,1.82217.80472,1.7401,1.63474C166.57007,166.6447,165.97629,166.97077,165.17465,167.792Z"/><path class="c" d="M146.20263,179.5056c1.26252-.79271,2.24213-1.0585,3.5-.46621C148.72406,180.37155,147.68215,180.2075,146.20263,179.5056Z"/><path class="d" d="M225.02444,261.40008c-1.24328-.18063-1.97474-.28759-2.94861-.42878.12875,1.09018.203,2.06458.36754,3.02346a21.66021,21.66021,0,0,0,.868,4.23653c1.9,4.85956.50458,9.36093-1.34928,13.79692-1.09581,2.62157-3.41533,3.85347-6.06806,4.26258a8.56378,8.56378,0,0,0-4.27141,2.05523,6.30363,6.30363,0,0,1-5.47672,1.68864c.257-.92348.47449-1.70629.68627-2.46891-.54817-.66087-1.07774-1.29994-1.76094-2.12379.75273-.48641,1.35236-.87372,1.98984-1.28634-.23666-1.709-.476-3.43671-.74135-5.34968-.911.20977-1.63675.378-2.363.544a2.29156,2.29156,0,0,0-1.99611,2.48878c-.14842,5.01212-.45887,10.01861-.63333,15.02924-.08251,2.3729-.01085,4.75154.01669,7.1271.02179,1.871-.31672,2.09828-2.13889,2.23117-2.18706.16044-4.3554.57316-6.53321.86649-3.86538.52011-7.71992,1.168-11.60146,1.51162-3.97489.352-7.97636.406-11.96645.58251-.59378.02648-1.19085.03318-1.78475.00628-6.61677-.30535-13.23768-.55136-19.84829-.95782-3.46828-.21391-6.91892-.71434-10.37785-1.08241a2.39769,2.39769,0,0,1-2.20481-1.79411,44.57555,44.57555,0,0,1-2.03906-11.76083,5.87819,5.87819,0,0,1,.41421-1.63006c-1.9151-.20923-3.99-.502-6.07487-.62919a8.56433,8.56433,0,0,0-2.44094.44228c-2.54365.62037-3.71122.11685-4.90464-2.24212-.95675-1.89267-1.90627-3.79171-2.76435-5.73009a6.548,6.548,0,0,1-.43665-2.20215c-.19616-3.04993-.33224-6.10389-.51181-9.15478a6.18856,6.18856,0,0,0-.24974-1.09645c-1.27964-.13864-2.42064-.26218-3.6334-.39348a21.72288,21.72288,0,0,1-.56369-2.59925c-.433-4.82117-.85767-9.64341-1.21277-14.47075-.71062-9.65469-1.56669-19.30533-1.98558-28.97351a137.35717,137.35717,0,0,1,.42357-17.31762c.73976-8.87974,1.89745-17.72407,2.87184-26.58456.82694-7.51175,1.6139-15.02775,2.48975-22.53376a22.56182,22.56182,0,0,1,1.15088-5.45345,6.326,6.326,0,0,1,2.45444-2.76276c4.43227-2.84069,8.956-5.5402,13.45373-8.27755,2.32154-1.41254,4.74377-2.67665,6.96878-4.2257,2.9922-2.08382,5.88116-4.32275,8.728-6.60273,1.56828-1.25582,1.70118-2.413.82077-4.30416-.42985-.92294-.95835-1.79984-1.39648-2.7197a4.80649,4.80649,0,0,0-2.51771-2.61116c-2.80178-1.249-3.80106-4.04505-4.57973-6.72691-.23209-.79993.706-1.94572,1.12335-2.92628.149-.34936.53106-.70138.49108-1.01182-.29173-2.2483-.70286-4.48064-.99832-6.72894a8.00261,8.00261,0,0,0-2.782-4.69965c-1.98718-1.94157-2.47412-4.27343-1.058-6.66089,3.74918-6.32249,8.4971-11.6996,15.4-14.71316a6.90015,6.90015,0,0,1,3.95054-.44856A108.99324,108.99324,0,0,1,168.2889,80.889a17.524,17.524,0,0,1,11.33673,11.235,5.57493,5.57493,0,0,1-1.358,6.284c-.47088.48225-.90593.99927-1.42455,1.57456.25134.6177.49683,1.21882.83789,2.05469-.89338.48948-1.73382.94994-2.72024,1.49089.88882,1.75774.59134,3.91843,2.41033,5.37509.57571.461.66863,1.70533.72264,2.60647a12.19678,12.19678,0,0,1-2.63295,8.32742,8.18591,8.18591,0,0,0-1.73755,5.4477c.027,1.01959.06178,2.04013.05965,3.05971-.00468,2.712,1.01437,4.09641,3.5747,5.047,7.56481,2.809,15.13418,5.60654,22.66156,8.51113,2.29135.884,4.47075,2.06766,6.67025,3.177a5.08545,5.08545,0,0,1,2.78828,3.95989c.62961,3.32976,1.58328,6.60231,2.47932,9.877a264.45809,264.45809,0,0,1,6.08837,30.21476c1.10729,7.301,1.7722,14.67106,2.54269,22.02036q1.302,12.42255,2.42531,24.86317c.37583,4.14468.5285,8.3086.855,12.45849.26633,3.38578.64524,6.76274.964,10.14427C224.90919,259.43162,224.94608,260.2492,225.02444,261.40008Z"/><path class="c" d="M225.02444,261.39955c-1.24328-.18063-1.97474-.28759-2.94861-.42878.12875,1.09018.203,2.06458.36754,3.02346a21.65856,21.65856,0,0,0,.868,4.23653c1.9,4.85956.50458,9.36093-1.34928,13.79692-1.09581,2.62157-3.41533,3.85347-6.06806,4.26258a8.56559,8.56559,0,0,0-4.27141,2.05522,6.30357,6.30357,0,0,1-5.47672,1.68864c.257-.92347.47449-1.70628.68627-2.4689-.54817-.66087-1.07774-1.29994-1.76094-2.1238.75273-.4864,1.35236-.87371,1.98984-1.28633-.23666-1.709-.476-3.43671-.74135-5.34968-.911.20977-1.63675.378-2.363.544a2.29162,2.29162,0,0,0-1.99611,2.48878c-.14842,5.01212-.45887,10.01861-.63333,15.02924-.08251,2.3729-.01085,4.75154.01669,7.1271.02179,1.871-.31672,2.09828-2.13889,2.23117-2.18706.16044-4.3554.57316-6.53321.86649-3.86538.5201-7.71992,1.168-11.60146,1.51173-3.97489.35191-7.97636.40592-11.96645.5824-.59378.02648-1.19085.03328-1.78475.00628-6.61677-.30524-13.23768-.55137-19.84829-.95782-3.46828-.21391-6.91892-.71434-10.37785-1.08242a2.39767,2.39767,0,0,1-2.20481-1.7941,44.57562,44.57562,0,0,1-2.03906-11.76083,5.87906,5.87906,0,0,1,.41421-1.63006c-1.9151-.20923-3.99-.502-6.07487-.62919a8.56814,8.56814,0,0,0-2.44094.44228c-2.54365.62037-3.71122.11685-4.90464-2.24212-.95675-1.89267-1.90627-3.79171-2.76435-5.73009a6.548,6.548,0,0,1-.43665-2.20215c-.19616-3.04982-.33224-6.10389-.51181-9.15478a6.18856,6.18856,0,0,0-.24974-1.09645c-1.27964-.13864-2.42064-.26218-3.6334-.39348a21.72288,21.72288,0,0,1-.56369-2.59925c-.433-4.82117-.85767-9.64331-1.21277-14.47075-.71062-9.65469-1.56669-19.30533-1.98558-28.97352a137.35752,137.35752,0,0,1,.42357-17.31761c.73976-8.87963,1.89745-17.72407,2.87184-26.58456.82694-7.51175,1.6139-15.02765,2.48975-22.53376a22.56182,22.56182,0,0,1,1.15088-5.45345,6.326,6.326,0,0,1,2.45444-2.76276c4.43227-2.8407,8.956-5.5402,13.45373-8.27756,2.32154-1.41253,4.74377-2.67664,6.96878-4.22569,2.9922-2.08371,5.88116-4.32276,8.728-6.60273,1.56828-1.25582,1.70118-2.413.82077-4.30416-.42985-.92294-.95835-1.79974-1.39648-2.7197a4.80649,4.80649,0,0,0-2.51771-2.61116c-2.80178-1.249-3.80106-4.04506-4.57973-6.72691-.23209-.79993.706-1.94572,1.12335-2.92628.149-.34936.53106-.70138.49108-1.01182-.29173-2.2483-.70286-4.48054-.99832-6.72894a8.00291,8.00291,0,0,0-2.782-4.69965c-1.98718-1.94157-2.47412-4.27343-1.058-6.6609,3.74918-6.32248,8.4971-11.69959,15.4-14.71315a6.901,6.901,0,0,1,3.95054-.44856,108.99517,108.99517,0,0,1,12.80944,3.27989,17.524,17.524,0,0,1,11.33673,11.235,5.57493,5.57493,0,0,1-1.358,6.284c-.47088.48225-.90593.99938-1.42455,1.57456.25134.6177.49683,1.21893.83789,2.05469-.89338.48948-1.73382.94994-2.72024,1.49089.88882,1.75785.59134,3.91843,2.41033,5.37508.57571.461.66863,1.70534.72264,2.60659a12.19651,12.19651,0,0,1-2.63295,8.32731,8.18591,8.18591,0,0,0-1.73755,5.4477c.027,1.01959.06178,2.04013.05965,3.05971-.00468,2.71194,1.01437,4.09652,3.5747,5.047,7.56481,2.809,15.13418,5.60655,22.66156,8.51114,2.29135.884,4.47075,2.06766,6.67025,3.17708a5.08511,5.08511,0,0,1,2.78828,3.9599c.62961,3.32965,1.58328,6.6022,2.47932,9.87688a264.45869,264.45869,0,0,1,6.08837,30.21477c1.10729,7.301,1.7722,14.67117,2.54269,22.02036q1.302,12.42255,2.42531,24.86317c.37583,4.14468.5285,8.3086.855,12.45859.26633,3.38568.64524,6.76264.964,10.14428C224.90919,259.43108,224.94608,260.24867,225.02444,261.39955ZM174.5881,114.28242a5.03352,5.03352,0,0,1-.501-1.14366q-.71795-4.78284-1.37213-9.57643c-.29173-2.13772-.273-2.31261-2.38427-2.63816-3.94236-.60739-7.90172-1.206-11.87619-1.48057a21.19222,21.19222,0,0,0-12.76425,2.71715c-1.25008.75379-2.19492,1.93423-1.92541,2.99634.48013,1.89639-.0841,3.68688.1027,5.522.36286,3.55866.6142,7.1188,2.72386,10.20445.13247.19424.09143.49789.18488.72891,1.20277,2.97253,2.38279,5.95537,3.652,8.89941a4.114,4.114,0,0,0,1.31547,1.533,76.15926,76.15926,0,0,0,7.42925,5.33458,5.63045,5.63045,0,0,0,7.26413-.77665c3.45383-3.43139,6.6122-7.02014,6.21968-12.38842-.01244-.16777.04263-.34011.03221-.5083a5.21028,5.21028,0,0,1,1.42657-3.936,11.92593,11.92593,0,0,0,2.84431-8.49348,1.70289,1.70289,0,0,0-1.07093-1.87821C175.84329,111.20347,176.28557,112.97419,174.5881,114.28242Zm46.83675,163.83831q-.27733,1.263-.55551,2.52557c1.54075-3.03228,2.84952-6.08423,1.981-9.60493-.63025-2.55364-1.03723-5.16171-1.56254-7.74171-.1817-.8935-.42059-1.775-.65524-2.75554-2.74043-.177-5.27589-.46886-7.81018-.4662-2.07808.00255-2.19492.24708-2.7685,2.25042-.25751.89753-.41539,1.82887-.73413,2.70312-1.87926,5.16267-1.87405,10.49565-1.4525,15.86192a7.277,7.277,0,0,0,.59282,1.73021q.29822.00479.59751.00829a17.79227,17.79227,0,0,0,.867-2.77829c.29376-2.01524.45727-4.05026.62813-6.08114.07059-.83735.26005-1.5854,1.222-1.63622,1.01278-.054,1.19766.78122,1.32323,1.55531.177,1.08965.24251,2.20216.48438,3.27617.7086,3.15221-.40178,5.64759-2.66464,7.76256a10.55983,10.55983,0,0,0-1.1141,1.03457c-.66033.828-1.26092,1.70384-1.88542,2.55981,2.21979-.15778,3.61829-1.49812,5.18807-2.57225,2.32994-1.59423,3.76523-3.60639,3.74758-6.53118a2.42034,2.42034,0,0,1,1.25582-2.44605c-.16458,1.69545-.20094,2.99582-.43866,4.2578-.24921,1.32429-.692,2.61286-1.08242,4.03475.81194-.2928,1.65706-.598,2.35014-.84831C219.90589,282.07956,219.27458,279.621,221.42485,278.12073Zm-104.09249-7.24234c-1.10571,7.2636,1.38818,17.233,5.11758,19.4968-.59229-1.4826-1.11452-2.69419-1.56148-3.93343-.432-1.19755-1.64356-2.133-1.13536-3.69825a4.93745,4.93745,0,0,1,1.262,1.66228c.62292,1.30036,1.14834,2.64858,1.79411,3.937.53106,1.05849,1.247,1.9203,2.80221,1.48887-.69245-1.46442-1.36522-2.72853-1.89894-4.04921-1.18671-2.93617-1.15811-2.94754-.85234-4.65245.49724,1.18416.78175,1.93168,1.12122,2.65336a37.83776,37.83776,0,0,0,2.12635,4.3284c1.48164,2.32622,5.47524,3.17145,7.9385,1.79729.2103-.1179.27207-.50309.55658-1.07146h-5.51c-1.27921-4.40845-2.58734-8.58588-.0841-13.04058a7.13273,7.13273,0,0,1,2.19376,5.792,40.2044,40.2044,0,0,0-.06539,4.07355c.01149,1.07413.43346,1.78943,1.69077,1.63006.81768-1.35278.60271-2.77159.40337-4.21367-.51075-3.69985-1.09018-7.39661-1.40573-11.11506a7.967,7.967,0,0,0-1.90521-4.59951c-1.28846-1.55372-1.60678-1.65345-3.46265-.7995C123.45656,267.94636,120.4819,269.3859,117.33236,270.87839Zm55.31056-140.58978c-.72211,1.14164-1.17842,1.84344-1.61454,2.55779a15.94052,15.94052,0,0,1-6.28718,6.14387,4.5036,4.5036,0,0,1-2.36822.43919c-3.64116-.35924-6.39361-2.54428-9.14139-4.68413-1.38914-1.08188-2.71864-2.23947-4.16073-3.43352-.85915,1.57658-.37849,3.00687-.06177,4.37007.57571,2.47826,1.27231,4.93015,1.97942,7.37524a12.44818,12.44818,0,0,0,6.38213,7.274c.40911-.92666.786-1.86108,1.22828-2.76382.85661-1.74946,1.656-3.5374,2.65273-5.20584,1.25114-2.09572,1.85428-2.13729,3.76884-.569a15.8379,15.8379,0,0,1,4.07462,5.77378c.40443.8566.89041,1.67418,1.44793,2.71248a15.19686,15.19686,0,0,0,3.67646-9.7643C174.29318,137.14523,174.49252,133.8208,172.64292,130.28861ZM153.12007,148.3849c1.57605,7.11518,4.22154,13.69931,6.89085,20.315a3.11755,3.11755,0,0,0,.52542-1.45814c.50767-5.494.90636-11.00088,1.55064-16.47824a3.83761,3.83761,0,0,0-2.02513-4.18412c-.71233,1.97835-1.38925,3.85815-2.16537,6.014C156.19742,151.09631,154.65869,149.74034,153.12007,148.3849Zm17.89322,3.84933c-2.35578-.977-2.10137-3.77193-3.59959-5.18192-2.09.9272-1.25837,2.34441-.8566,3.55037,1.15567,3.45893,2.388,6.89192,3.63605,10.31863a21.05745,21.05745,0,0,0,1.15812,2.29827c.15363-.05667.30789-.1127.46153-.16926q.813-6.97326,1.627-13.94693c-.17341-.04518-.34575-.09079-.51915-.136C172.30281,150.02591,171.68457,151.0844,171.01329,152.23423ZM153.91011,91.4599c-5.41294-.50554-12.42786,3.68433-12.27115,7.47295a33.54927,33.54927,0,0,1,13.53473-3.69932C154.68889,93.78464,154.30051,92.62482,153.91011,91.4599Zm6.9875,3.92886c4.328.24857,8.74631.0892,13.07215,2.01-1.8849-4.65447-7.37938-7.27817-13.07215-6.18491Zm27.58022,83.64234c3.19729-1.53969,6.50673-1.01958,9.35987-2.84431-.47237-1.27751-.89445-2.41808-1.34247-3.62967-3.257.46822-6.21649.89338-9.47246,1.36107C187.52789,175.6921,187.93072,177.10931,188.47783,179.0311Zm-47.12125-66.315c-1.669,2.48453.0135,6.49174,3.20717,7.63955C143.58882,115.77639,143.05,114.49261,141.35658,112.71615Zm17.34717-17.56576c1.17321-.46248,1.72766-1.23445,1.16343-2.52971a2.37215,2.37215,0,0,0-3.19-1.22255,1.9165,1.9165,0,0,0-1.1982,1.06785,1.82161,1.82161,0,0,0,.75688,1.38925A17.83459,17.83459,0,0,0,158.70375,95.15039ZM129.29934,278.62116a8.09315,8.09315,0,0,0,.59909,7.10009C130.19952,281.27548,130.10607,280.17021,129.29934,278.62116Zm82.36791-3.37536c-.30417,2.40043-.60835,4.80087-.95313,7.52217C213.235,280.3519,212.4102,277.79263,211.66725,275.2458Zm-1.08178-51.2047c-.17287.028-.34627.0555-.51915.083q.33012,4.23456.65928,8.469c.1531-.01191.3063-.02339.4594-.0353Q210.88518,228.3,210.58547,224.0411ZM191.80854,278.046c1.22255-2.19184,1.032-4.48681.42208-6.81048Q192.01965,274.6408,191.80854,278.046Zm9.825-16.66919q.28657-.004.57422-.0084v-3.08459c-.03945.00415-.079.00883-.11844.013Q201.86129,259.83621,201.63355,261.3768Zm-7.68622,9.31883c.06337-.0151.12673-.03009.18957-.04519v-4.39229c-.06284.00053-.1262.00053-.18957.001Zm-63.60662-39.23676c-.04773-.03785-.09558-.0758-.14331-.11312v4.16286c.04773-.002.09558-.00468.14331-.00723Zm14.02316,33.41269c.0992.00308.19882.0067.29854.01031V260.6817c-.09972-.00521-.19934-.01042-.29854-.01616Zm59.41219-24.26408c-.03583.03743-.07166.07421-.10749.1111v2.46529c.03583,0,.07166,0,.10749-.00042Zm-57.40162-46.55022q.22583-.05454.45164-.10951-.26617-1.1361-.53106-2.27221c-.10844.02126-.21593.043-.32437.06432Q146.173,192.89861,146.37444,194.05726Zm40.7101,111.87727c0-.03689-.00053-.07421-.00106-.1111h-2.47316c0,.03689,0,.07421.00054.1111ZM112.05285,187.37606c-.10069,0-.20137.00106-.30216.00159v2.36312c.10079-.00053.20147-.00106.30216-.00106Zm49.761,86.11869c.13237.01042.26527.02126.39816.03168q.08565-.69387.17234-1.38765c-.16351-.01606-.3265-.03222-.49-.04774Q161.85383,272.79258,161.81385,273.49475ZM130.7596,243.56343c-.03168-.02393-.06283-.04774-.09494-.07166q.04816.78174.09494,1.56467ZM128.259,227.16056c-.04933-.03019-.09866-.06028-.14853-.08983q.03431.66645.068,1.33311c.02647-.00053.05348-.0016.08048-.00266Zm53.11511,33.60832q-.11769-.02424-.23517-.04774.03428.77012.069,1.54181c.0556-.00212.1111-.00467.16617-.0068Zm2.25659,28.37813c.11631.02233.23315.04465.34935.06645q.16984-.78032.34107-1.56c-.11727-.02392-.23411-.04773-.35138-.07219Q183.79992,288.36382,183.63072,289.147Zm-51.51355-92.68719c.09027.04465.1817.08984.273.13449q.27032-.60361.54042-1.207c-.09293-.04359-.18532-.08718-.27824-.1313Q132.38446,195.85785,132.11717,196.45982Zm22.3443,75.75115c-.1381.00414-.27515.00776-.41272.01137q.09106.69629.18223,1.39074Q154.34629,272.91234,154.46147,272.211Zm-41.78666-89.47949.28025-.06071V181.322l-.20031-.00468Q112.715,182.02526,112.67481,182.73148Zm63.60512,15.61537c-.11057.00106-.22071.00255-.33182.00414,0,.3971-.00148.79483.014,1.1914,0,.00723.20721.00627.31778.00882Zm-33.178,51.012h-.1329v1.14217h.1329Z"/><path class="c" d="M168.342,120.06853c-1.31036,1.08242-2.35737,2.09477-3.54674,2.89577-2.06352,1.38967-4.22463,2.0381-6.703.79993a29.6981,29.6981,0,0,0-4.41929-1.41359c.38986-1.02054,1.06051-1.24073,2.12326-1.26667,2.62-.06336,5.24315-.26,7.8492-.5487a6.5425,6.5425,0,0,0,2.55672-.99311C167.04722,119.02769,167.57881,119.2,168.342,120.06853Zm-4.99511,2.05841a5.74191,5.74191,0,0,0-4.599.54563A3.85413,3.85413,0,0,0,163.34684,122.12694Z"/><path class="c" d="M162.36883,108.03308c1.48111-1.78166,4.436-1.91871,7.74331-.46354-1.20022,1.35023-2.50739.15161-3.69049.26112C165.18975,107.94431,163.9485,107.95887,162.36883,108.03308Z"/><path class="c" d="M148.8964,109.346a9.88745,9.88745,0,0,1,6.759-2.10668C154.87473,108.12707,151.76665,109.15282,148.8964,109.346Z"/><path class="c" d="M162.70681,103.92785c2.45338-1.7334,3.88463-1.77072,5.3433-.26739C166.35361,103.74562,164.77968,103.824,162.70681,103.92785Z"/><path class="c" d="M153.49377,104.95881c-1.81845.2726-3.38472.50724-5.46014.81822C149.98817,104.04778,151.68723,103.838,153.49377,104.95881Z"/><path class="c" d="M162.01788,116.38538c-1.94359,1.20851-3.05918,1.20075-5.12174,0Z"/></g></svg>