<svg xmlns="http://www.w3.org/2000/svg" xmlns:xlink="http://www.w3.org/1999/xlink" viewBox="0 0 300 300"><defs><style>.a,.b,.h{fill:none;}.b{clip-rule:evenodd;}.c{clip-path:url(#a);}.d{clip-path:url(#b);}.e{fill:#fff;}.e,.f,.h{fill-rule:evenodd;}.g{clip-path:url(#c);}</style><clipPath id="a"><rect class="a" x="3.29879" y="-3.8237" width="281.83689" height="281.8359"/></clipPath><clipPath id="b"><path class="b" d="M13.68006,156.01748c1.55326-8.74576,6.17429-16.94534,8.24521-25.6194,6.44478-26.994-12.21922-55.67351-1.835-81.83734a21.32918,21.32918,0,0,1,7.0635-9.80769c5.73876-4.14383,14.02449-4.68607,21.67668-5.0258l56.199-2.495c10.06286-.44675,20.16607-.89307,30.20554-.17719,6.95243.49576,13.83361,1.54654,20.7905,1.99872,19.71429,1.28139,39.3874-2.26332,59.14694-2.93634a202.64029,202.64029,0,0,1,50.76281,4.67527c4.183.93181,8.44749,2.05235,11.74678,4.34788,6.46464,4.49787,7.60935,12.24733,7.26252,19.17333-.99646,19.899-4.6009,39.16172-4.7342,59.077-.09721,14.52236-1.06086,28.71843.22671,43.203.5801,6.52588.37884,13.30856-2.8946,19.2817-5.96828,10.89051-20.56867,16.64705-34.43937,20.42127-57.4642,15.636-119.74153,12.26959-180.16145,8.727-6.61329-.38775-13.40085-.8114-19.39819-3.11825-5.54612-2.1333-9.93372-5.68044-14.90332-8.5249-4.22894-2.42053-7.96677-3.17485-9.82607-7.25674C14.10655,179.78936,11.73955,166.94364,13.68006,156.01748Z"/></clipPath><clipPath id="c"><rect class="a" x="117.46389" y="151.1084" width="130.7812" height="138.0259"/></clipPath></defs><title>gl_nav21</title><g class="c"><g class="d"><rect x="-55.73646" y="-9.375" width="385.90614" height="210.02266"/></g><path class="e" d="M123.18459,254.915c-1.0098,1.2603-1.6211,2.1543-2.3614,2.9239a13.96358,13.96358,0,0,1-17.74019,2.1928c-1.44921-.9834-2.82031-2.0883-4.30471-3.0151a4.32705,4.32705,0,0,0-2.1582-.6338c-6.5459-.0425-13.0937.0347-19.6387-.0322-3.8339-.0391-7.6738-.1636-11.4951-.4575-3.6552-.2808-7.29-.833-10.9345-1.2603-1.6641-.1948-3.3594-.2383-4.9903-.5908-4.06349-.8789-8.2129-.9346-12.3164-1.4004-4.70209-.5332-7.2617-3.3979-8.2744-7.6128a35.4636,35.4636,0,0,1-1.1084-12.0649c.2422-2.2793.1133-2.5708-1.3594-4.2012,1.6006-.4263,1.6153-1.6797,1.6348-2.9663a177.52835,177.52835,0,0,1,2.5937-26.6782c1.2247-7.3164,2.3438-14.6519,3.6465-21.9541,1.0489-5.876,2.3057-11.7154,3.53711-17.9078-1.56251-.5478-3.247-1.205-4.97851-1.7006-.43649-.125-1.0351.2319-1.5361.4287-1.4619.5752-2.8701,1.4033-4.6777.8384-.4581-1.3877.3584-2.4322,1.0205-3.4654,1.2422-1.9394,2.5341-3.8589,5.0224-4.5659,1.3545,1.7139.31741,3.3774-.0703,5.2759,1.4248.5283,2.7979,1.0371,3.9981,1.4819,3.7334-2.9287,4.2783-7.188,5.7353-10.9482,1.6426-4.2373,2.8682-8.6411,5.1777-12.6021a33.42427,33.42427,0,0,1,1.9161-3.0259,3.60455,3.60455,0,0,1,1.3076-.9008,55.36957,55.36957,0,0,1,15.9502-4.8545c3.2871-.5508,6.4648-1.7334,9.7285-2.4644,5.0566-1.1318,10.1045-2.4263,15.2285-3.0928a193.72638,193.72638,0,0,1,19.5684-1.5527c3.69531-.1025,7.4257.6968,11.124,1.2105,5.3955.75,10.5244,2.5346,15.6846,4.2026,3.3369,1.0791,6.7636,1.8862,10.081,3.0195,4.5283,1.5474,8.97071,3.3472,13.4893,4.9253,2.6308.918,5.3652,1.5327,8.0068,2.4243,11.1973,3.7798,22.375,7.6206,33.5654,11.4214,6.3506,2.1573,12.6807,4.3882,19.0811,6.3863,5.71,1.7817,11.5195,3.2368,17.2568,4.9335,4.5157,1.3355,8.9766,2.858,13.4824,4.2286q8.81986,2.68275,17.6758,5.2495c5.2862,1.5322,10.5928,2.9883,15.8897,4.4814.3076.0869.60841.1988.9082.3091a3.91,3.91,0,0,1,2.9531,4.0386c.0225,4.2978.2354,8.6006.5244,12.8906.294,4.3813.7569,8.751,1.1778,13.1226.4052,4.2129.9765,8.4145,1.2236,12.6357.1094,1.8735-.4824,3.7783-.6094,5.6782-.2617,3.8941-.4307,7.7945-.6279,11.6929-.0801,1.5928-.1621,3.1865-.19239,4.7812a1.74893,1.74893,0,0,1-1.37111,1.7515c-1.751.5064-3.5234.9507-5.3086,1.3164-2.7265.5591-5.4736,1.0239-8.209,1.5425a2.95777,2.95777,0,0,0-2.0761,1.6875c-1.5469,2.5947-3.1768,5.3018-6.2725,6.312a45.91066,45.91066,0,0,1-6.92869,1.5942,18.36318,18.36318,0,0,1-4.31061.0088,5.72664,5.72664,0,0,1-5.4443-5.5673c-.0469-.5386-.1123-1.0757-.1826-1.7442a22.0475,22.0475,0,0,0-6.6992.0938q-6.5172.93885-13.0391,1.8471c-2.208.3106-4.4209.5928-6.6269.918-5.9961.8843-11.9971,1.7427-17.9834,2.6929-4.5674.7246-9.1163,1.5605-13.667,2.3847a8.09133,8.09133,0,0,0-1.628.7237,3.14713,3.14713,0,0,0-3.3828-.1934,12.37131,12.37131,0,0,1-3.4834.3311c-.5166,1.1626-1.1875,2.6001-1.7969,4.0625a12.44256,12.44256,0,0,1-3.621,4.9907c-1.2374,1.0073-2.4493,2.0625-3.7754,2.9409a6.82028,6.82028,0,0,1-2.8301,1.1943c-4.1856.4683-8.3731,1.3125-12.6065.3184a11.58272,11.58272,0,0,0-3.0673-.3872c-3.9229.1606-6.917-1.6177-9.4092-4.4072-1.3262-1.4854-2.5235-3.0899-3.7364-4.6719a2.22161,2.22161,0,0,0-2.0585-.9067q-6.0894.2241-12.1836.3335C127.75879,254.9536,125.21389,254.915,123.18459,254.915Z"/><path class="f" d="M123.335,256.1123c-1.00981,1.2603-1.62111,2.1543-2.36141,2.9238a13.96226,13.96226,0,0,1-17.7392,2.1929c-1.4502-.9834-2.8213-2.0884-4.3057-3.0151a4.32073,4.32073,0,0,0-2.1572-.6338c-6.5459-.0425-13.0938.0346-19.6397-.0322-3.8339-.0391-7.67379-.1636-11.4941-.4576-3.6563-.2807-7.29-.833-10.9346-1.2602-1.665-.1948-3.3603-.2383-4.9902-.5908-4.0635-.8789-8.21389-.9346-12.3174-1.4004-4.7012-.5332-7.2617-3.398-8.2734-7.6128a35.46485,35.46485,0,0,1-1.1094-12.065c.2422-2.2793.11431-2.5708-1.3584-4.2011,1.6006-.4263,1.6152-1.6797,1.6338-2.9663a177.79217,177.79217,0,0,1,2.5937-26.6783c1.2246-7.3164,2.3438-14.6518,3.6475-21.9541,1.0488-5.8759,2.30571-11.7153,3.5361-17.9077-1.5615-.5478-3.2461-1.2051-4.9775-1.7007-.4365-.125-1.0361.232-1.5361.4287-1.4629.5752-2.8711,1.4034-4.67779.8384-.458-1.3877.35739-2.4321,1.01959-3.4653,1.2431-1.9395,2.5351-3.8589,5.02341-4.5659,1.35449,1.7138.31739,3.3774-.07031,5.2758,1.4248.5284,2.7969,1.0372,3.998,1.482,3.7324-2.9287,4.27831-7.188,5.7354-10.9483,1.6416-4.2373,2.8681-8.6411,5.1777-12.602a33.39847,33.39847,0,0,1,1.9151-3.0259,3.61773,3.61773,0,0,1,1.3085-.9009,55.37429,55.37429,0,0,1,15.9493-4.8545c3.2881-.5507,6.4648-1.7334,9.7285-2.4643,5.0566-1.1319,10.1054-2.4263,15.2295-3.0928a193.6486,193.6486,0,0,1,19.5674-1.5527c3.6953-.1026,7.4257.6968,11.125,1.2104,5.3955.75,10.5244,2.5347,15.6835,4.2027,3.3379,1.0791,6.7647,1.8862,10.0821,3.0195,4.52831,1.5474,8.9707,3.3472,13.48831,4.9253,2.63079.918,5.36619,1.5327,8.00779,2.4243,11.19721,3.7798,22.375,7.6206,33.5644,11.4214,6.3516,2.1572,12.6817,4.3882,19.0821,6.3862,5.7089,1.7818,11.5195,3.2368,17.2558,4.9336,4.5156,1.3355,8.9766,2.8579,13.4824,4.2285q8.82135,2.6829,17.6758,5.2495c5.2871,1.5323,10.5938,2.9883,15.8906,4.4815.3067.0869.6075.1987.9082.3091a3.91094,3.91094,0,0,1,2.9532,4.0385c.0215,4.2979.2343,8.6006.5234,12.8907.2949,4.3813.7578,8.7509,1.1777,13.1225.4063,4.2129.97661,8.4146,1.2247,12.6358.1093,1.8735-.4825,3.7783-.6094,5.6782-.26169,3.894-.43169,7.7944-.6289,11.6929-.0801,1.5927-.1621,3.1865-.1914,4.7812a1.75,1.75,0,0,1-1.3711,1.7515c-1.752.5063-3.5235.9507-5.3086,1.3164-2.7266.5591-5.4746,1.0239-8.209,1.5425a2.9562,2.9562,0,0,0-2.0762,1.6875c-1.5469,2.5947-3.1777,5.3017-6.2734,6.312a45.89763,45.89763,0,0,1-6.9277,1.5942,18.36324,18.36324,0,0,1-4.3106.0088,5.72813,5.72813,0,0,1-5.4453-5.5674c-.0469-.5386-.1113-1.0757-.1816-1.7441a22.04505,22.04505,0,0,0-6.6993.0937q-6.51855.939-13.039,1.8472c-2.209.3105-4.4219.5928-6.627.918-5.9961.8842-11.998,1.7426-17.9844,2.6928-4.5664.7246-9.11519,1.5606-13.666,2.3848a8.10343,8.10343,0,0,0-1.6289.7236,3.14675,3.14675,0,0,0-3.3828-.1933,12.3566,12.3566,0,0,1-3.4824.331c-.5176,1.1626-1.1875,2.6001-1.7969,4.0625a12.44149,12.44149,0,0,1-3.6211,4.9908c-1.2383,1.0073-2.4492,2.0625-3.7754,2.9409a6.821,6.821,0,0,1-2.8301,1.1943c-4.1855.4683-8.373,1.3125-12.6074.3184a11.58127,11.58127,0,0,0-3.0664-.3872c-3.92379.1606-6.917-1.6177-9.4101-4.4073-1.3262-1.4853-2.5225-3.0898-3.7364-4.6718a2.22112,2.22112,0,0,0-2.0586-.9068q-6.0879.2241-12.1826.3335C127.91019,256.1509,125.36519,256.1123,123.335,256.1123Zm-14.18561-59.6968c-.8398.253-.6777.9502-.7187,1.5757-.1133,1.75-.2442,3.499-.378,5.2481-.3779,4.9336-.9306,9.8603-1.1006,14.8007-.2089,6.0708-.08,12.1529-.1416,18.2295-.0244,2.3911-.2646,4.7823-.22749,7.1704.043,2.7124.29689,5.4209.43559,8.1319.041.8052.3437,1.75-1.0254,2.2446-.24519-4.5415-.4825-8.9448-.7286-13.4873-1.2714.3184-2.18159,1.6587-3.4394.6382-3.8106.2544-7.6191.5688-11.4346.7412a52.65784,52.65784,0,0,1-6.9404-.0801,15.883,15.883,0,0,1-3.8828-1.1592c-.8516-.3086-1.3653-.9946-.8789-1.8896,1.3281-2.44,2.7363-4.8345,4.1201-7.2583,2.29.1138,4.5498.5454,6.7197.27a146.96965,146.96965,0,0,1,16.0801-1.5293c.0645-1.3188.1543-2.5815.18261-3.8457.10159-4.5508.06059-9.1089.30759-13.6518.2246-4.1431.834-8.2637,1.1348-12.4048.6523-9.0034,1.0674-18.0264,1.8623-27.0166.6816-7.7149,1.7568-15.3946,2.65631-23.0904.165-1.4057.49019-2.6889,2.23139-2.811a28.858,28.858,0,0,1,.5732-3.1797,21.17147,21.17147,0,0,1,1.1563-2.6172c-1.5-.2217-2.9736-.4394-4.624-.6836-.2051.9063-.377,1.5835-.5098,2.2681q-1.2978,6.6921-2.57809,13.3877c-.23931,1.2495-.41021,2.5127-.65821,3.7602-.63579,3.1958-1.5127,6.3599-1.9004,9.584-.6211,5.1529-.959,10.3409-1.3418,15.5191a11.17758,11.17758,0,0,1-2.0918,5.0229c-.50779.8291-.9902,1.6734-1.6543,2.7969-1.4883-.0815-2.4443,1.1782-3.3506,2.5454a15.109,15.109,0,0,1-1.3701,1.6626c-2.8682,3.207-5.7285,6.4194-8.6309,9.5957a4.832,4.832,0,0,1-1.8535,1.4341,69.12992,69.12992,0,0,1-8.7441,2.4814c-5.0196.9043-10.0918,1.5298-15.1582,2.1426a56.5006,56.5006,0,0,1-6.9317.3228c-1.9902-.0059-3.9775-.2583-5.9687-.3706-4.13769-.2339-8.2754-.4742-12.416-.6563a3.46745,3.46745,0,0,1-3.6436-2.7817,7.0254,7.0254,0,0,0-.8213-1.5181q-.2871.0432-.5722.0864c-.2198,1.5381-.5342,3.0699-.64259,4.6158-.378,5.4189-.69441,10.8427-1.002,16.2661a1.87186,1.87186,0,0,0,.32619,1.3222c1.541,1.439,1.2734,3.3741,1.4375,5.147a3.65728,3.65728,0,0,1-.6856,2.4268,3.78283,3.78283,0,0,0-.78509,3.1279c.15039,1.1875.35349,2.3696.47849,3.5591a9.52176,9.52176,0,0,0,9.0957,8.3569c3.4912.1221,6.9629.7739,10.4453,1.1758,2.02251.2329,4.0479.4394,6.1602.6675.6211-3.5406-.0928-6.8262.4121-9.981a22.57069,22.57069,0,0,1,2.8535-.3681c3.3311.0175,6.6748-.7041,9.9893.3789,2.042.6674,2.2158.7016,2.4541,2.914.0761.7149.1035,1.4356.1504,2.1533.1328,2.0503.2656,4.1006.4043,6.2544,2.4257.1792,4.7207.4453,7.0195.501a209.21835,209.21835,0,0,0,25.87111-.6767c1.039-.104,1.88569-.2686,1.99019-1.523.0039-.0522.2617-.084.5264-.1616.1943.4541.3935.9209.6152,1.4385,10.794-.9527,21.57521-.0679,32.3858-.9107.1757-3.2231,1.1015-6.1533.52341-9.0718-5.68751.3409-11.17771.6978-16.67191.9922-5.4697.2935-10.914,1.4649-16.4277.5581,11.0703-1.4956,22.2793-1.4204,33.4541-3.0039.0849-2.7134.166-5.1855.2392-7.6577.0704-2.3935.0528-4.7934.2227-7.1802.1699-2.3735.5254-4.7334.7988-7.0991q.3165.0264.63281.0527c-.16991,3.5318-.36621,7.063-.50391,10.5962-.1425,3.6431-.2265,7.2891-.3398,11.0425a15.32165,15.32165,0,0,0,1.8252.0899c5.332-.4165,10.6592-.9053,15.9951-1.2569a2.58392,2.58392,0,0,0,2.6006-2.2495c.6709-2.3818,1.4433-4.7363,2.2392-7.0796a29.46935,29.46935,0,0,1,9.7032-14.2583,7.68518,7.68518,0,0,1,8.9258-.4385,9.756,9.756,0,0,1,4.7402,7.6504c.3848,4.5249.4902,9.0738.7226,13.6119.0215.4448.1055.8867.1524,1.2534,3.3965-.4224,6.6328-.9131,9.8867-1.2119,7.5508-.6929,15.1309-1.1158,22.6602-1.979,8.56051-.981,17.082-2.3038,25.6152-3.5137,5.2871-.75,10.5664-1.5669,15.8184-2.3491.2441-.7959.4101-1.3174.5664-1.8418.8496-2.8247,1.6582-5.6621,2.5664-8.4678a7.76211,7.76211,0,0,1,1.2363-2.3057c1.09181-1.4209,2.3711-1.6157,3.6934-.393a7.76623,7.76623,0,0,1,1.9668,2.9091c1.8769,5.1089,2.0234,10.4712,2.0703,15.835.0078.8584,0,1.7173,0,2.7813,2.19331-.5118,4.11131-1,6.0488-1.4009,2.416-.5,4.8867-.7842,7.2617-1.4268,2.4141-.6538,2.4336-.8847,2.5391-3.354.1426-3.3476.2285-6.6997.4765-10.0395.20121-2.7002.61921-5.3838.9063-8.0782a8.396,8.396,0,0,0-.082-1.666c-.2442-2.4638-.5332-4.9243-.74609-7.3906-.30671-3.561-.56061-7.1265-.81641-10.4307a18.76566,18.76566,0,0,0-3.7793-.6543,33.26473,33.26473,0,0,1-10.3594-.6865,3.81788,3.81788,0,0,0-1.1895.0269,14.49551,14.49551,0,0,1-2.3203.1479c-3.2539-.3262-6.5-.7178-9.748-1.0986-7.7657-.9111-15.5352-1.8106-23.2989-2.7534-3.7246-.4527-7.4316-1.0655-11.1601-1.4766-5.4746-.6035-10.9668-1.062-16.4453-1.6348-9.8516-1.0302-19.7051-2.0366-29.5449-3.1728-6.8184-.7876-13.6153-1.7857-20.42389-2.6714-3.35151-.4355-6.709-.8301-10.22071-1.2632-.4101-4.0249-.7304-8.1426-1.2705-12.2319-.6474-4.8999-1.4551-9.7793-2.2432-14.6597q-1.3125-8.1276-2.72459-16.2392c-.18161-1.0567-.28711-2.0308.71489-2.8921,1.5.4751,3.0058.9721,4.5234,1.4301q7.9131,2.3871,15.8301,4.7505c7.043,2.0992,14.0664,4.2661,21.1387,6.253,6.6894,1.8794,13.4453,3.5146,20.1465,5.3466,7.0058,1.9156,13.9765,3.9556,20.9726,5.9058q8.3028,2.31525,16.63281,4.5439c7.86329,2.1124,15.73639,4.1915,23.60349,6.2935.5391.1436,1.0547.374,1.5879.541a4.63945,4.63945,0,0,1,3.5352,4.315c.207,2.2529.4355,4.5034.6562,6.7548.5528-2.8945-.1836-5.7968.17-8.7153,5.0019.354,9.5253,1.2256,13.53121,4.0698.11719-2.4082-1.01951-3.8208-3.46681-4.5127-5.0664-1.4321-10.15619-2.7949-15.20119-4.3022-9.01361-2.6929-17.998-5.4863-27.00391-8.2114-9.3086-2.8169-18.6582-5.4981-27.9297-8.4346-7.2265-2.2896-14.3496-4.9014-21.5332-7.3291q-11.22645-3.7932-22.4804-7.5024c-5.76079-1.8946-11.5557-3.6812-17.3115-5.5865-2.5752-.852-5.0596-1.9819-7.6446-2.8008-5.09469-1.6142-10.21869-3.142-15.3545-4.6254-5.7578-1.6641-11.5508-3.1739-17.6484-2.378a1.06722,1.06722,0,0,1-.6836-.0586c-1.8213-1.3193-3.6231-.1855-5.5996-.145,1.1357.6196,2.0459,1.1914,3.0166,1.6289a4.25684,4.25684,0,0,1,2.5732,3.7398,14.06606,14.06606,0,0,1-.8398,6.5532,15.614,15.614,0,0,0-.4395,2.0132c1.5713.1167,2.8731.2134,4.1651.3091.8935-3.7583,1.7177-7.2266,2.5752-10.8335a23.0526,23.0526,0,0,1,3.3261.0234c4.167.6602,8.2481,1.855,12.5049,1.9678a3.65086,3.65086,0,0,1,2.8155,1.5351,14.10573,14.10573,0,0,1,2.8105,7.5064c.3105,2.4531.3809,4.9355.5928,7.4023.7031,8.1983,1.5693,16.3858,2.0927,24.5952.5332,8.3628,1,16.7471.99611,25.1221-.00481,6.9346-.74021,13.8691-1.14941,20.8037a41.96531,41.96531,0,0,1-4.1435,16.3584c-1.3516,2.7295-3.91409,4.1543-6.3575,5.5405-1.51559.8604-3.47259.9283-5.2187,1.4004-5.1602,1.3951-10.3145,2.815-15.4697,4.2246a2.02776,2.02776,0,0,1-2.792-1.917c-.0469-.7124.0625-1.434.083-2.1518.04781-1.7564.1142-3.5127.1221-5.2695q.02925-6.1041.0078-12.2085a4.4405,4.4405,0,0,0-.1563-2.1055,5.89243,5.89243,0,0,1-.5117-3.7134c.2695-5.0239.5283-10.0483.8164-15.0713.0449-.7934.2227-1.58.3174-2.3896q.7983-7.848,1.5996-15.6953c.5479-5.3145,1.1191-10.626,1.6631-15.9405q.72945-7.1367,1.414-14.2783c.0616-.6504.0079-1.3125.0079-1.9692a18.58832,18.58832,0,0,0-1.251,4.977q-.99765,8.18115-1.8897,16.375-.55365,5.1123-.9521,10.2412-.5655,7.14855-1.0029,14.3062A7.31775,7.31775,0,0,0,109.14939,196.4155ZM93.876,197.542c1.29289-1.6318,2.72359-3.439,4.15819-5.2427a7.90038,7.90038,0,0,1,1.5195-1.8227,8.03861,8.03861,0,0,0,3.4395-6.2925c.6201-5.6782,1.0703-11.3755,1.5713-16.8711-1.7002.5937-3.2647,1.7051-4.6143,1.4858a60.30489,60.30489,0,0,0-6.8955-.456c-2.5244-.1216-2.6924-.3628-2.457-2.9151q.8349-9.06585,1.6875-18.1303a6.13352,6.13352,0,0,0-.3956-3.3745c-1.01359,2.4643-2.913,2.458-4.7119,2.4262a22.96776,22.96776,0,0,1-3.7666-.6172c-2.1894-.4121-2.6894-1.0166-2.7373-3.1948-.0205-.9365.3223-1.6582,1.335-1.5752q3.90375.3216,7.791.8379a28.15167,28.15167,0,0,1,3.2617.8408c.1914-1.4311.334-2.5029.4844-3.6406.9697-.1021,1.8213-.1914,2.61911-.2754,1.90139-4.1235,1.90139-4.1274,6.57619-3.9512.8789.0332,1.7539.148,2.6309.1646,1.4941.0278,2.9902.0073,4.5918.0073a13.37635,13.37635,0,0,0,.6054-7.7749,4.102,4.102,0,0,0-2.27729-3.2085,13.5059,13.5059,0,0,0-4.582-1.0967,57.95527,57.95527,0,0,0-8.30961.7046c-2.6777.3965-5.3145,1.0747-7.9649,1.6475-5.3017,1.1455-10.6552,2.1025-15.8837,3.519-4.3145,1.169-8.5606,2.5498-13.0176,3.1123a9.6497,9.6497,0,0,0-2.0703.584,22.61778,22.61778,0,0,1-4.21589,1.5601c-2.42281.352-3.60931,1.8769-4.43451,3.8642-4.81249,11.5869-9.2578,23.2779-11.1328,35.7945-.8506,5.6782-2.086,11.2983-3.1328,16.9477-.504,2.7217-.9727,5.4497-1.58889,8.916,2.39939-1.852,4.53319-.9848,6.63179-.9795,6.86921.0181,13.7403.1504,20.6065.0015,5.1855-.1123,10.3603-.646,15.5459-.8843,4.54681-.2085,9.0996-.3003,13.6513-.3735C90.03609,197.2529,91.68069,197.4297,93.876,197.542Zm95.69919-47.8438c-13.916-4.3701-27.9805-8.3711-42.3467-12.5918.1787,1.3853.2822,2.3125.4209,3.2349.3067,2.0459.6358,4.0879.9463,6.1328q.5742,3.78225,1.1318,7.5669c.1289.8657.2442,1.7334.3711,2.5991q.6123,4.1346,1.2285,8.2681c.2735,1.8125.6641,3.6143.8106,5.436a31.3136,31.3136,0,0,0,1.3877,8.4371c.7529,2.0654.5947,2.1352,2.7158,2.4174,8.1416,1.0826,16.2813,2.1826,24.42581,3.2466,2.99019.3911,5.99019.6997,8.92189,1.0381C191.51859,181.5112,191.46579,158.7085,189.57519,149.6982Zm35.7324,39.2046c-.0605-.7251-.0937-1.1093-.125-1.4936-.4258-5.2471-.7793-10.5015-1.2988-15.7398-.42579-4.3115.7676-8.75-1.2363-13.1025-10.125-2.9971-20.5489-5.8369-31.02149-8.5054.16989,11.9956.33589,23.7334.50389,35.6577C203.03609,186.624,214.06349,188.1284,225.30759,188.9028ZM138.72169,188c-.22269-13.0015.2148-26.1421-1.4483-39.1367-6.1396-.7686-12.0048.2427-17.8925.3823-1.3702.0322-1.7647.6519-1.917,1.8628-.4375,3.4795-.9453,6.9507-1.4532,10.4214-.30069,2.0513-.7304,4.0859-.96869,6.144q-1.1865,10.221-2.26371,20.4541a29.06545,29.06545,0,0,0,.0332,7.6729C121.51069,193.1821,130.02249,190.6191,138.72169,188Zm112.6562-21.7676c-8.7383-2.2973-17.58589-4.6245-26.3672-6.9336a124.72474,124.72474,0,0,0,2.0684,29.9087c8.7793,1.0571,17.3691,2.0923,26.08791,3.1426,0-3.0415.123-5.7397-.03131-8.4219-.1972-3.4238-.6503-6.832-.9336-10.2519C252.00489,171.269,252.94629,168.7783,251.37789,166.2324Zm-61.7871,76.0557v8.2036c2.41021-.1265,4.57421-.0767,6.6875-.3823,6.6309-.9585,13.2324-2.1197,19.8633-3.0762,10.9043-1.5737,21.81841-3.0703,32.73441-4.5527,3.47459-.4717,6.98039-.7071,10.44919-1.2115,2.9102-.4233,2.8926-.5566,3.0527-3.4638.0567-1.0283.291-2.0464.4082-3.0733a13.96054,13.96054,0,0,0,.0098-1.4824c-1.8184.3213-3.3711.6455-4.9395.8628-2.8378.3931-5.69139.6831-8.5253,1.0894-2.6875.3847-5.3536.9057-8.04109,1.292-4.65821.6694-9.32421,1.2768-13.98631,1.9174-2.2129.3042-4.4141.7149-6.6348.9214-6.6757.6196-13.3632,1.1333-20.039,1.7481C196.98339,241.416,193.34669,241.873,189.59079,242.2881Zm64.03521-75.561c-.63871,8.9106,1.125,17.2187,1.084,25.8784,7.02729.5713,13.62109,2.144,20.69919,2.0483-.1055-2.0561-.1309-3.8706-.3047-5.6714-.3516-3.6445-.9824-7.2734-1.1367-10.9243-.21679-5.1216-1.3535-6.0747-5.5547-7.2676-1.9942-.5664-4.0254-.997-6.0254-1.5488C259.55569,168.4604,256.73929,167.624,253.626,166.7271ZM137.958,196.1318c-5.03421,1.4629-9.58981,2.7867-14.33011,4.1641,0,1.7969.08211,3.4668-.0127,5.1265-.5068,8.917-1.0664,17.8315-1.5791,26.7485a27.10074,27.10074,0,0,0,.1485,2.9087c4.9756-1.6001,9.31541-3.6724,12.56641-7.5015a5.5765,5.5765,0,0,0,1.25579-2.7187c.2813-2.1284.2549-4.2954.41021-6.4424.32029-4.4448.09759-8.9092.96869-13.3423C137.93069,202.2983,137.77639,199.3848,137.958,196.1318Zm-25.03911,7.5586c-2.0683,11.6392-1.4677,22.7984-1.7871,34.0674,3.3506-.6655,6.4414-1.2793,9.375-1.8618a288.80289,288.80289,0,0,0,1.1465-35.1626C118.51459,201.7964,115.61819,202.7769,112.91889,203.6904Zm-21.205-36.8545a12.17152,12.17152,0,0,0,1.9004.3985c1.9873.0552,3.9785.0923,5.9668.0547,2.5566-.0479,3.0136-.354,3.25-2.7871.6191-6.4219,1.1377-12.8536,1.6543-19.2852a14.23042,14.23042,0,0,0-.1416-2.8623,2.44118,2.44118,0,0,0-3.5762-2.1494c-.3291.123-.7764.3979-.9932.2798-1.6133-.8755-3.1933-.1499-4.7812-.1236C92.67289,149.0278,92.41989,157.8145,91.71389,166.8359Zm184.9609,8.9585c.2168,5.7461.4219,11.3321.6426,16.917.0644,1.6192.6211,2.2329,2.3789,2.2803,2.9492.0801,5.9023.022,8.8476.022.6309-.7261,1.24811-1.4356,1.8985-2.1841-.1992-1.645-.4766-3.3013-.5762-4.9688-.1035-1.7461-.0039-3.5034-.0488-5.2544-.084-3.1552-1.3613-5.5302-4.9082-6.4956a15.448,15.448,0,0,0-2.2793-.7148C280.72749,175.1953,278.77249,174.5337,276.67479,175.7944Zm-100.8535,83.0713c1.22071-1.852,2.4551-3.1816,3.0703-4.7534a26.02563,26.02563,0,0,0,.7168-17.7729,6.51569,6.51569,0,0,0-2.873-3.688,2.91522,2.91522,0,0,0-4.0938.4663c-1.8027,1.8994-3.6582,3.7973-3.47459,6.7573a3.24566,3.24566,0,0,1-.5,1.3252c-2.18561,4.8257-1.043,9.3667,1.36129,13.6938.8106,1.461,2.1602,2.6919,4.13671,2.043C175.65139,256.4492,175.40329,257.5869,175.82129,258.8657Zm-14.1426-14.9658c-6.6289.4829-12.9004.9395-19.38869,1.4121-.20891,3.145-.41211,6.1997-.61321,9.2402,5.1757.8291,16.7656.1275,19.166-1.0957C161.11619,250.3413,161.38479,247.2666,161.67869,243.8999Zm-56.1582-4.4248c0-1.8613.0254-3.2881-.0098-4.7134a7.56624,7.56624,0,0,0-.25969-2.7978c-.57131-1.2759-1.70121.0503-2.55671-.2368a1.82253,1.82253,0,0,0-.706-.0806c-3.0127.2402-6.042.3642-9.03029.7759-3.09281.4267-6.12691,1.5156-9.34371.2329-1.2051,2.2134-2.3389,4.2939-3.5039,6.4341a7.58228,7.58228,0,0,0,4.5644,1.3208c2.294.0258,4.5918.0053,6.8828-.1089C96.07909,240.0752,100.59569,239.7715,105.52049,239.4751ZM33.86039,209.252c.2998.3789.5019.8769.84761,1.0175a10.98445,10.98445,0,0,0,2.09179.4659c4.4141.831,8.8818.769,13.3457.8823,3.9863.1015,7.9649.6294,11.9502-.0186,1.8125-.2949,3.6357-.5249,5.4502-.81,3.4648-.544,6.9316-1.0889,10.3887-1.6783a12.31867,12.31867,0,0,0,2.0146-.7812C69.64749,207.2461,37.42579,207.8872,33.86039,209.252Zm42.2783-82.9122c-2.6514-.5058-17.5782,2.9932-19.76269,4.4996C63.15039,130.1943,69.30859,127.9033,76.13869,126.3398Zm30.5517,14.17v13.4819c.0547.0078.1104.0161.166.0244.7793-4.396,1.5577-8.7925,2.3672-13.3638C108.32709,140.6021,107.64939,140.564,106.69039,140.5098Zm-36.7783,107.956c-.0283-2.5068-.4258-2.81-3.0098-2.4219C67.27249,247.6792,69.18649,247.188,69.91209,248.4658Zm200.2393-12.7676c-.2325-.0078-.4629-.0156-.6953-.0239q-.15825,1.52565-.3204,3.0513c.1914.0244.3848.0493.5762.0737Q269.93164,237.24875,270.15139,235.6982Zm-83.0645-10.1181c.5508,1.0317-1.1973,2.4873.5137,3.9199C187.38569,227.8574,187.23729,226.7188,187.08689,225.5801Zm-2.0176,1.1059c-.57029-1.937-.57029-1.937-1.7246-1.9795.2969.5074.5469.9908.8574,1.4331C184.31929,226.3086,184.57319,226.3828,185.06929,226.686Zm-71.0039,34.584c2.3262-.0571,2.3262-.0571,2.7325-1.6118C115.88479,260.1968,115.085,260.6685,114.06539,261.27Zm14.3692-26.5976q.1098.21315.2207.4267,1.4619-.7683,2.92671-1.5371c-.05951-.1142-.11811-.2285-.17671-.3428Q129.91985,233.9458,128.43459,234.6724ZM48.002,206.3174c.01259.1806.02439.3603.038.5405q1.41809-.12015,2.836-.2407l-.02051-.2998ZM87.47749,122.396c-.0166.1558-.0332.311-.0488.4663q1.1631-.17505,2.3281-.3496c-.00779-.0737-.0136-.1475-.0205-.2217Q88.60694,122.3438,87.47749,122.396ZM29.52639,233.5957c-.0762.0064-.15239.0132-.2295.0195v2.6363c.1162-.0054.2334-.0103.3496-.0157Q29.58634,234.9161,29.52639,233.5957ZM132.335,128.9917c.01359-.123.02729-.2461.04-.3691q-1.07086-.12315-2.14161-.2456c-.0146.1362-.0293.2724-.0449.4091Q131.26219,128.8887,132.335,128.9917ZM60.64549,251.0723q.2856.12525.5723.25.4131-.8709.82421-1.7427-.32522-.1428-.65041-.2861Q61.01809,250.1833,60.64549,251.0723Zm50.6992-64.6407c.0899.0323.1787.0645.2686.0967q-.0483-1.00785-.0977-2.0156c-.0439.0327-.0869.0654-.1709.1289Zm-49.2168,68.6036c0-.1055-.00089-.211-.00189-.3169H60.51659c0,.1059.002.2114.002.3169ZM135.21,146.3496c.58789.7979,1.12689,1.1084,1.57219-.0913C136.14549,146.2949,135.67769,146.3223,135.21,146.3496ZM124.88769,133.002q.0717.25635.1436.5126.6693-.2709,1.3388-.5415c-.0469-.1323-.0957-.2651-.1435-.3974Zm-26.2305,4.3164-.2558-.1045-.5391,1.0971c.1211.0523.2412.104.3613.1563Q98.44049,137.8931,98.65719,137.3184ZM167.29,256.8735a2.3424,2.3424,0,0,0-.79881-.2671c-.1201.0108-.2139.3208-.3193.4957a3.50052,3.50052,0,0,0,.70411.354C166.93459,257.4722,167.07709,257.1792,167.29,256.8735Zm-.38671-17.6469q.2256.03945.4512.0796.205-.81885.4082-1.6377c-.1172-.0318-.2334-.0635-.3506-.0953Q167.15874,238.3994,166.90329,239.2266Zm-41.7627-3.6773c.0342.1436.06941.2871.1045.4307.3223-.103.6485-.1987.961-.3262a2.40909,2.40909,0,0,0-.0928-.3999Q125.627,235.4018,125.14059,235.5493Z"/><path class="f" d="M32.73339,230.7271a421.32621,421.32621,0,0,0,45.1777.1357c-.4384,3.4033-2.0156,5.79-3.455,8.4731-2.129,0-4.3477.0069-6.5665-.0014-3.7441-.0137-7.4912.0517-11.2314-.0767-6.1416-.2104-12.2764-.5879-18.417-.8032-1.2998-.0454-1.7324-1.082-2.28219-1.7666a36.20071,36.20071,0,0,1-2.87211-4.6655A6.20642,6.20642,0,0,1,32.73339,230.7271Z"/><path class="f" d="M145.91889,209.835c.5782,0,1.1543.0029,1.7315,0q11.50335-.0579,23.0068-.1167c7.2715-.0381,14.543-.1255,21.8145-.1079,8.789.0219,17.5801.0698,26.3672.2202,9.3457.1601,18.6875.4614,28.0332.686,7.9785.1919,15.957.4272,23.9375.52,5.8261.0679,11.6562-.0678,17.4843-.0996a10.70912,10.70912,0,0,1,1.3243.1499c.1972.9151-.1895,1.1856-.8575,1.1865-5.3476.0079-10.6953.0616-16.041-.0044-5.0273-.0615-10.05269-.2544-15.0781-.3828q-9.457-.2424-18.9121-.4731c-2.1543-.0532-4.3106-.0567-6.4629-.1533-20.84959-.9356-41.709-.8672-62.5703-.6421-7.1875.0771-14.375.1714-21.5625.2373-.75979.0068-1.5195-.1245-2.2793-.1919Q145.88676,210.24925,145.91889,209.835Z"/><path class="f" d="M169.13569,193.0063a36.12855,36.12855,0,0,0,1.0235-3.8076,36.3996,36.3996,0,0,0,.2031-4.0434c2.2441.3486,4.252.6489,6.2559.9751,2.5839.4209,5.17181.8281,7.7461,1.31,1.1621.2173,2.291.6006,3.4511.9131.5918,2.2153-.25,4.2085-.4062,6.2344-.084,1.0684-1.0274,1.0762-1.836,1.0508-2.4668-.0762-4.9316-.1612-7.3964-.2813-1.5899-.0781-3.1739-.2676-4.7657-.3281C171.67479,194.9634,170.13569,194.5635,169.13569,193.0063Zm2.1504-.3066c4.9141.4619,9.334.877,13.9727,1.3125.5117-1.2622,1.0039-2.4756,1.6621-4.0976-5.2773-.5826-10.084-1.7872-15.207-1.6924C171.56149,189.8218,171.43649,191.1265,171.28609,192.6997Z"/><path class="f" d="M286.61819,230.1294V217.1851c2.6269-.6924,3.6933.0376,3.6582,2.5776-.0489,3.5688-.1602,7.1367-.2481,10.8159-4.5762.7241-9.0312,1.4287-13.4707,2.1314-.4258-1.0811.1328-1.4214.7793-1.5171,1.3418-.1983,2.7012-.27,4.0508-.4229C283.124,230.5728,284.85839,230.3462,286.61819,230.1294Zm1.7871-1.5723a15.30128,15.30128,0,0,0,.50971-7.1587C288.251,223.7485,288.44629,226.1616,288.40529,228.5571Zm.6836-9.9048c-.3731-.2163-.6172-.4746-.8184-.4428a.77963.77963,0,0,0-.543.5254c-.0117.1899.3379.5776.4844.5566C288.46389,219.2554,288.68069,218.9707,289.08889,218.6523Z"/><path class="f" d="M100.00289,248.6719c.0547.914.1016,1.7182.1485,2.5229q-.1743.16185-.3487.3238c-1.4189-2.3521-3.542-1.6231-5.5078-1.584-1.0361.021-2.0771-.0098-3.1084.0796a2.30433,2.30433,0,0,0-1.4883.5034c-.4589.5859-.7138.499-1.3457.271-1.5058-.542-1.5371-.4571-2.06049,1.8335,3.97659-.3374,7.86129-.6665,12.02339-1.0191-.8379,1.2115-.8398,1.1856-6.5273,1.6826-2.1934.1915-4.3662.8536-6.91209.1636.27729-1.2676.541-2.4692.80859-3.6909A59.79307,59.79307,0,0,1,100.00289,248.6719Z"/><path class="f" d="M208.11429,233.311c-.1094,1.3394-.5137,1.7373-1.545,1.6978-.9218-.0352-1.2558-.5205-1.2129-1.3755.05861-1.1338.8125-2.1152,1.6231-1.9946A1.29083,1.29083,0,0,1,208.11429,233.311Z"/><path class="f" d="M230.86619,233.3662c-1.7246-2.206-1.5898-3.0268.502-3.9228C232.458,231.3447,232.43259,231.5986,230.86619,233.3662Z"/><path class="f" d="M252.16889,229.0737c1.1543,1.3965,1.1543,1.3965-.0761,2.75C251.19039,230.9414,251.16309,230.1055,252.16889,229.0737Z"/><path class="f" d="M136.31539,248.3296c.34961-.249.6778-.647,1.05761-.7051.38579-.0591,1.09479.1187,1.18459.3657.2598.7207-.3369.9512-.9375.9693a6.47141,6.47141,0,0,1-1.1445-.1631Q136.395,248.5627,136.31539,248.3296Z"/><path class="f" d="M173.458,248.4883c.52539.937.75389,1.4321,1.06059,1.8716.6386.915,1.3261.9663,2.1699.2114,2.2812-2.0444,2.5429-8.2241.4219-10.4888a5.87932,5.87932,0,0,0-1.045-.7036c-3.1797,1.8828-2.9511,5.2188-3.60539,8.3545-.35551-.2954-.74611-.4634-.75591-.6494-.1406-2.8633.3691-5.5903,2.3828-7.7471,1.62311-1.7373,3.3613-1.5508,4.4024.6055a14.215,14.215,0,0,1,1.248,5.0503,9.17733,9.17733,0,0,1-1.9961,6.2646,2.44488,2.44488,0,0,1-2.9726.7788C173.59079,251.5498,173.13569,250.5693,173.458,248.4883Z"/><path class="f" d="M172.65529,236.6147c-.1289-1.3251-.19529-2.0146-.2891-2.9746,1.1875.2906,1.7129.7569,1.6367,1.5376C173.96779,235.5356,173.40919,235.8423,172.65529,236.6147Z"/><path class="f" d="M154.80959,247.6323a3.088,3.088,0,0,1,3.2929-.4385C157.18159,248.4468,156.20209,248.2925,154.80959,247.6323Z"/><g class="g"><path class="e" d="M212.76269,306.3032c-3.084-11.1587-5.1494-22.3935-7.2109-33.3662-3.17779-2.4678-6.1622-4.7436-9.0782-7.102a2.16209,2.16209,0,0,1-.6572-1.6011c.251-3.6626.6045-7.3184.919-10.9766.3623-4.2221.705-8.4458,1.082-12.6665.5898-6.603,1.1152-13.2138,1.8515-19.8008a25.19675,25.19675,0,0,1,1.6348-5.9726,9.661,9.661,0,0,0,.7109-5.3643c-.8945-.0395-1.83-.126-2.76359-.1113a2.15935,2.15935,0,0,1-2.31841-1.6689c-.4267-1.3736-.8105-2.7618-1.2773-4.1211-1.8379-5.3526-3.7012-10.6968-5.69529-16.4527.63079-.4682,1.24019-.9873,1.914-1.4043a6.976,6.976,0,0,0,2.95609-4.4702c.247-.9263.5283-1.8486.6963-2.79a8.49116,8.49116,0,0,1,5.4472-6.7002,1.6631,1.6631,0,0,0,1.2588-1.5352,3.56539,3.56539,0,0,1,.208-.6855c1.0782-3.9976,1.0772-3.9961-2.5996-5.7666a6.89371,6.89371,0,0,1-1.0332-.5938,3.41866,3.41866,0,0,1-.5137-.6421c.8575-1.6435,2.5069-1.914,4.0137-2.0092a104.911,104.911,0,0,1,10.5332-.2344,86.299,86.299,0,0,1,9.7481,1.0303,8.68878,8.68878,0,0,1,5.8418,3.7827,19.54218,19.54218,0,0,1-1.93169,2.1372,2.45827,2.45827,0,0,0-.96291,2.9585c1.2852,3.3008.168,6.3691-.7422,9.4809a29.1436,29.1436,0,0,0-1.2226,4.8657c-.1924,1.7432,1.2558,2.9825,2.04,4.376,1.8741,3.334,4.0205,6.5132,6.0108,9.7837,1.3691,2.2486,2.789,4.482,3.9238,6.8477a8.028,8.028,0,0,1,.53911,3.7124c-.16411,3.4219-.64261,6.8315-.73641,10.2534a29.7981,29.7981,0,0,1-1.9658,9.332,11.01913,11.01913,0,0,0-.71779,2.9966c-.27931,4.6191-.63081,9.2432-.63861,13.8657a61.237,61.237,0,0,0,1.1601,13.5689c.5957,2.6479,1.0918,5.3198,1.5567,7.9936a14.698,14.698,0,0,1,.0214,2.4717c-.1582.044-.3144.0884-.47159.1323-.37991-.521-.75981-1.042-1.20221-1.6489-.0781.8008-.1484,1.542-.207,2.1455-1.875.5943-3.5986,1.1411-5.418,1.7178,0,1.6221-.039,3.0503.0069,4.4756.2177,6.6963.4775,13.3921.666,20.0893a13.60349,13.60349,0,0,1-.4512,2.5122c-.1436.8555-.251,1.7163-.376,2.5747-.1191.816-.2402,1.6319-.4433,3.0049-.6953-.8217-.9786-1.1577-1.2813-1.5136-.0898.0434-.2627.0703-.293.1508-.2226.5909-.2773,1.1211-1.2675,1.0078a3.01927,3.01927,0,0,0-3.3662,2.1421c-1.0557-1.0908-1.9014-1.9658-2.8448-2.9414-.3408,1.8379-1.5918,2.25-3.3593,1.857C214.10449,305.3521,213.62789,305.8369,212.76269,306.3032Z"/><path class="e" d="M156.59079,162.4614a3.12781,3.12781,0,0,1-1.3066,2.9854c-1.127,1.0127-1.9278,1.9922-.5518,3.3911a.77846.77846,0,0,1,.169.6509c-.4688,1.4756.6211,1.7373,1.5879,2.1631,1.0546.4648,2.3261.6181,3.0029,1.8422-.96,1.5494-2.6397.9307-4.1553,1.5308.1836,1.4785.37211,2.9961.57911,4.6621-1.78611,1.9356-.92671,4.8193-2.04881,7.4111-.7881.085-1.7647.1895-2.7315.2935,0,.2944-.0586.5405.0079.5806,1.9609,1.1845,2.7656,3.0005,3.4726,5.145,1.09181,3.3208,2.8223,6.4263,4.1026,9.6933,1.36621,3.4903,1.1728,7.1851,1.0283,10.8501a45.25354,45.25354,0,0,0-.166,5.9478q.7821,8.46975,1.8964,16.9077c.4161,3.1065,1.1739,6.167,1.8096,9.4165-.4658.2056-1.0898.4829-1.78809.792a9.83923,9.83923,0,0,0-.46971,1.7876c-.5918,7.7813-2.7051,15.249-4.667,22.7456a25.83825,25.83825,0,0,0,.293,14.3989c.8672,2.8443,2.3086,4.7276,5.5312,5.0371,2.5977.2496,5.1553.9078,7.7354,1.3848.2822,1.5601-.2334,2.7515-1.6035,3.168-2.02539.6152-3.0791,2.3276-4.4239,3.6455a7.542,7.542,0,0,1-3.4951,2.3745,67.57119,67.57119,0,0,1-8.25,1.2573,34.269,34.269,0,0,1-5.5019-.271c-2.0469-.1596-2.1602-.3217-2.084-2.3022.0244-.624.0039-1.25.0039-2.0601-.7578.0542-1.3379.0957-2.0996.1504-.3184-.9057-.6407-1.8667-.9922-2.8164a18.30519,18.30519,0,0,0-1.4024-3.5557c-2.40819-3.7675-2.5429-7.9809-2.7011-12.2231-.295-7.9868-.5684-15.9746-.9805-23.9551-.127-2.4594-.6719-4.8969-1.0312-7.3437a1.62775,1.62775,0,0,0-1.3848-1.4419c-1.1592-.2754-2.3008-.6197-3.6953-1.002a59.80883,59.80883,0,0,1,.0332-5.9819c.4297-4.2061,1.0566-8.3921,1.5859-12.5889.2481-1.9775.4668-3.9599.6797-5.9424a13.9789,13.9789,0,0,1,.16891-2.146c1.14749-4.2089-.53511-7.8535-2.25481-11.4751a28.89185,28.89185,0,0,0-2.377-4.1386c-1.0849-1.5528-2.459-2.9053-3.5176-4.4737a7.393,7.393,0,0,1,1.2871-9.5058c2.7588-2.4185,5.5674-4.7822,8.3868-7.1309a16.44246,16.44246,0,0,1,2.3857-1.5937c1.63381-.9322,1.751-1.107,1.1514-2.7803-.2403-.6709-.6465-1.2808-.9141-1.9434-.56049-1.3852-1.0801-2.7861-1.6133-4.1816-.36719-.959-.7295-1.9199-1.1289-2.9712a9.354,9.354,0,0,1,4.1348-3.3892c3.1318-1.1909,6.1933-2.5834,9.373-3.621a20.95613,20.95613,0,0,1,5.1953-.667A5.48271,5.48271,0,0,1,156.59079,162.4614Z"/><path class="f" d="M212.76269,306.3032c-3.084-11.1587-5.1494-22.3935-7.2109-33.3662-3.17779-2.4678-6.1622-4.7436-9.0782-7.102a2.16209,2.16209,0,0,1-.6572-1.6011c.251-3.6626.6045-7.3184.919-10.9766.3623-4.2221.705-8.4458,1.082-12.6665.5898-6.603,1.1152-13.2138,1.8515-19.8008a25.19675,25.19675,0,0,1,1.6348-5.9726,9.661,9.661,0,0,0,.7109-5.3643c-.8945-.0395-1.83-.126-2.76359-.1113a2.15935,2.15935,0,0,1-2.31841-1.6689c-.4267-1.3736-.8105-2.7618-1.2773-4.1211-1.8379-5.3526-3.7012-10.6968-5.69529-16.4527.63079-.4682,1.24019-.9873,1.914-1.4043a6.976,6.976,0,0,0,2.95609-4.4702c.247-.9263.5283-1.8486.6963-2.79a8.49116,8.49116,0,0,1,5.4472-6.7002,1.6631,1.6631,0,0,0,1.2588-1.5352,3.56539,3.56539,0,0,1,.208-.6855c1.0782-3.9976,1.0772-3.9961-2.5996-5.7666a6.89371,6.89371,0,0,1-1.0332-.5938,3.41866,3.41866,0,0,1-.5137-.6421c.8575-1.6435,2.5069-1.914,4.0137-2.0092a104.911,104.911,0,0,1,10.5332-.2344,86.299,86.299,0,0,1,9.7481,1.0303,8.68878,8.68878,0,0,1,5.8418,3.7827,19.54218,19.54218,0,0,1-1.93169,2.1372,2.45827,2.45827,0,0,0-.96291,2.9585c1.2852,3.3008.168,6.3691-.7422,9.4809a29.1436,29.1436,0,0,0-1.2226,4.8657c-.1924,1.7432,1.2558,2.9825,2.04,4.376,1.8741,3.334,4.0205,6.5132,6.0108,9.7837,1.3691,2.2486,2.789,4.482,3.9238,6.8477a8.028,8.028,0,0,1,.53911,3.7124c-.16411,3.4219-.64261,6.8315-.73641,10.2534a29.7981,29.7981,0,0,1-1.9658,9.332,11.01913,11.01913,0,0,0-.71779,2.9966c-.27931,4.6191-.63081,9.2432-.63861,13.8657a61.237,61.237,0,0,0,1.1601,13.5689c.5957,2.6479,1.0918,5.3198,1.5567,7.9936a14.698,14.698,0,0,1,.0214,2.4717c-.1582.044-.3144.0884-.47159.1323-.37991-.521-.75981-1.042-1.20221-1.6489-.0781.8008-.1484,1.542-.207,2.1455-1.875.5943-3.5986,1.1411-5.418,1.7178,0,1.6221-.039,3.0503.0069,4.4756.2177,6.6963.4775,13.3921.666,20.0893a13.60349,13.60349,0,0,1-.4512,2.5122c-.1436.8555-.251,1.7163-.376,2.5747-.1191.816-.2402,1.6319-.4433,3.0049-.6953-.8217-.9786-1.1577-1.2813-1.5136-.0898.0434-.2627.0703-.293.1508-.2226.5909-.2773,1.1211-1.2675,1.0078a3.01927,3.01927,0,0,0-3.3662,2.1421c-1.0557-1.0908-1.9014-1.9658-2.8448-2.9414-.3408,1.8379-1.5918,2.25-3.3593,1.857C214.10449,305.3521,213.62789,305.8369,212.76269,306.3032Zm-10.0439-130.2026c.999,1.1963.5761,2.3857-.0225,3.5703-.4199.8301-.8506,1.6548-1.2051,2.3437a27.77514,27.77514,0,0,1,2.0313,2.6031,25.68783,25.68783,0,0,1,1.2949,2.9765c.0879-.2055.0029.003-.0899.2071-.8379,1.8261-.4961,2.6162,1.3946,3.0986a15.49132,15.49132,0,0,0,3.04291.625c1.36329.064,2.38479.4458,2.68359,2.2207,3.5528-2.2768,6.90041-4.2651,9.6719-7.0527.916-.9214.5879-2.9434-.5469-3.7769a18.90758,18.90758,0,0,0-1.97159-1.1323c-2.10451,1.5937-2.10451,1.5937-3.10651.772,2.4512-1.2168,3.1719-3.459,1.7813-5.7622-1.2979.8906-2.7676,1.5366-3.3887,3.1943a1.34539,1.34539,0,0,1-1.1543.583c-.3281-.0532-.666-.5796-.832-.9687-.3106-.7227-.4922-1.4996-.7403-2.2496-.7402-2.2358-3.0849-2.8462-4.4394-4.6103-1.416.9858-2.7227,1.8808-4.0069,2.8066-.1709.1231-.2295.4004-.3427.6055-.8672.0522-1.2364.5669-1.3692,1.3789-.123.7437-.1562,1.5776-1.2099,2.0249-.0479-.6528-.085-1.1567-.1436-1.9517-.4941,1.044-.8281,1.7481-1.1611,2.4517q-.24765-.093-.4951-.1855c.10641-.9341.2128-1.8687.375-3.2911-1.3692,2.0997-.9483,3.8414-.2842,6.0772-.9346-.9946-1.4717-1.5664-2.3106-2.4605-.5263,3.002-3.0576,5.1846-1.29979,8.3023a11.02476,11.02476,0,0,0,1.959-.0195,15.22182,15.22182,0,0,0,4.08689-1.0113c1.6826-.8593,1.6856-2.375.3125-3.6626-.5498-.5151-1.0498-1.082-1.6377-1.6909a7.79465,7.79465,0,0,0,2.6309-4.957A3.5988,3.5988,0,0,1,202.71879,176.1006Zm.4384-4.689c7.0391.5547,13.835.1773,20.5235.4424.8711-2.6904.5957-3.1821-1.7315-3.4009-1.8906-.1772-3.7881-.2881-5.49119-.4145a15.767,15.767,0,0,1-1.48441,2.6372c-.3398.3999-1.2715.7832-1.59959.5928a2.91559,2.91559,0,0,1-1.04291-1.6807,4.52113,4.52113,0,0,1,.2753-1.6792c-2.9082-.2808-5.6601-.5464-8.5957-.8291C203.73139,168.5005,203.47659,169.7915,203.15719,171.4116Zm12.4121,106.7627c.6719-.8359,1.26371-1.5044,2.4375-1.2446a1.23988,1.23988,0,0,0,1.503-1.188c.1435-.915.3486-1.8208.54-2.7896-2.6221-.9746-4.9941-1.8564-7.46579-2.7753-1.78611,2.9736-.65531,5.8457-.35061,9.0527C213.65529,277.4858,213.65529,277.4858,215.56929,278.1743Zm-3.6445-79.2656q.29595.096.5918.1914c3.1172-3.1724,6.3857-6.2119,8.6426-10.1606-3.0938,2.0434-6.1875,4.0869-9.4844,6.2646C211.74709,196.2886,211.83689,197.5986,211.92479,198.9087Zm-1.7402-5.2593c-.4444-.3642-.6348-.6406-.8799-.7016-1.3096-.3287-2.6221-.6553-3.9512-.8848-1.8974-.3276-1.9111-.2896-2.2431-2.106-.1192-.6533-.0635-1.3857-1.1436-1.875-.5557,2.7735.1436,5.1294.9189,7.7593C205.30959,195.1138,207.54689,194.4414,210.18459,193.6494Zm-1.9942,26.7251c.6797-2.6474.0352-3.6479-2.539-4.2544-.4453,1.2144-1.2676,2.3399-.7715,4.0537C205.99119,220.2412,207.12209,220.3096,208.19039,220.3745Z"/><path class="f" d="M156.59079,162.4614a3.12781,3.12781,0,0,1-1.3066,2.9854c-1.127,1.0127-1.9278,1.9922-.5518,3.3911a.77846.77846,0,0,1,.169.6509c-.4688,1.4756.6211,1.7373,1.5879,2.1631,1.0546.4648,2.3261.6181,3.0029,1.8422-.96,1.5494-2.6397.9307-4.1553,1.5308.1836,1.4785.37211,2.9961.57911,4.6621-1.78611,1.9356-.92671,4.8193-2.04881,7.4111-.7881.085-1.7647.1895-2.7315.2935,0,.2944-.0586.5405.0079.5806,1.9609,1.1845,2.7656,3.0005,3.4726,5.145,1.09181,3.3208,2.8223,6.4263,4.1026,9.6933,1.36621,3.4903,1.1728,7.1851,1.0283,10.8501a45.25354,45.25354,0,0,0-.166,5.9478q.7821,8.46975,1.8964,16.9077c.4161,3.1065,1.1739,6.167,1.8096,9.4165-.4658.2056-1.0898.4829-1.78809.792a9.83923,9.83923,0,0,0-.46971,1.7876c-.5918,7.7813-2.7051,15.249-4.667,22.7456a25.83825,25.83825,0,0,0,.293,14.3989c.8672,2.8443,2.3086,4.7276,5.5312,5.0371,2.5977.2496,5.1553.9078,7.7354,1.3848.2822,1.5601-.2334,2.7515-1.6035,3.168-2.02539.6152-3.0791,2.3276-4.4239,3.6455a7.542,7.542,0,0,1-3.4951,2.3745,67.57119,67.57119,0,0,1-8.25,1.2573,34.269,34.269,0,0,1-5.5019-.271c-2.0469-.1596-2.1602-.3217-2.084-2.3022.0244-.624.0039-1.25.0039-2.0601-.7578.0542-1.3379.0957-2.0996.1504-.3184-.9057-.6407-1.8667-.9922-2.8164a18.30519,18.30519,0,0,0-1.4024-3.5557c-2.40819-3.7675-2.5429-7.9809-2.7011-12.2231-.295-7.9868-.5684-15.9746-.9805-23.9551-.127-2.4594-.6719-4.8969-1.0312-7.3437a1.62775,1.62775,0,0,0-1.3848-1.4419c-1.1592-.2754-2.3008-.6197-3.6953-1.002a59.80883,59.80883,0,0,1,.0332-5.9819c.4297-4.2061,1.0566-8.3921,1.5859-12.5889.2481-1.9775.4668-3.9599.6797-5.9424a13.9789,13.9789,0,0,1,.16891-2.146c1.14749-4.2089-.53511-7.8535-2.25481-11.4751a28.89185,28.89185,0,0,0-2.377-4.1386c-1.0849-1.5528-2.459-2.9053-3.5176-4.4737a7.393,7.393,0,0,1,1.2871-9.5058c2.7588-2.4185,5.5674-4.7822,8.3868-7.1309a16.44246,16.44246,0,0,1,2.3857-1.5937c1.63381-.9322,1.751-1.107,1.1514-2.7803-.2403-.6709-.6465-1.2808-.9141-1.9434-.56049-1.3852-1.0801-2.7861-1.6133-4.1816-.36719-.959-.7295-1.9199-1.1289-2.9712a9.354,9.354,0,0,1,4.1348-3.3892c3.1318-1.1909,6.1933-2.5834,9.373-3.621a20.95613,20.95613,0,0,1,5.1953-.667A5.48271,5.48271,0,0,1,156.59079,162.4614ZM149.917,177.4653c-1.584,2.0552-4.75491,2.9986-5.47361,6.356-.2735,1.2778-1.4756,2.3574-2.31739,3.623a43.8267,43.8267,0,0,0,7.02239,3.647c.2725-1.9097.4952-3.4687.7315-5.1255,1.0547-.0635,2.0596-.124,3.1758-.1909.0312-1.1436.4375-1.9902.11031-3.2314-.30561-1.1612.81349-2.6973,1.34279-4.1719-.2754-1.0073-.5957-2.1773-.9453-3.4541-.64749.4658-1.27249.915-1.6211,1.1665.05661.793.0918,1.2681.126,1.7431C151.44039,177.7217,150.81349,177.6162,149.917,177.4653Zm-4.52151,2.6875a42.36461,42.36461,0,0,0,3.3184-3.1421c1.0478-1.206,2.8994-1.539,3.7617-3.5874-.7852.2652-1.2149.3824-1.6211.5538-.4961.2099-1.0156.7299-1.4512.6577-3.2226-.5337-5.1015,1.7539-7.2949,2.9741C143.21389,178.4644,144.15719,179.1938,145.39549,180.1528Zm8.93951,31.9898c.17479.0205.34959.041.52339.0615a39.86813,39.86813,0,0,0,1.0937-4.5122,6.30245,6.30245,0,0,0-.455-2.7529c-.58009-1.6514-1.293-3.2574-1.9893-4.8653-.3623-.8374-.8076-1.6386-1.21579-2.456-.19341.0737-.38481.1479-.57811.2217.5429,1.7168,1.123,3.4228,1.6152,5.1543a14.33359,14.33359,0,0,1,.4277,2.5073C153.97359,207.7124,154.14549,209.9282,154.335,212.1426Zm-2.15241-43.2085c-.332-.2764-.5527-.6172-.7637-.6123a10.06063,10.06063,0,0,0-6.3046,2.3452c-.6465.5322-.3926,1.1001.1425,1.562C147.53609,171.1445,149.77639,170.0786,152.18259,168.9341Zm-8.7363,20.8315c1.2812,1.7349,2.5088,3.396,3.9219,5.3101.3554-1.1572.6074-1.9746.875-2.8477A11.26064,11.26064,0,0,0,143.44629,189.7656Zm-1-5.9311a2.90438,2.90438,0,0,0-1.8428-3.2134c-.8056-.3682-1.5039-.3794-1.9463.7793C139.85639,182.1709,141.02439,182.9214,142.44629,183.8345Zm-3.7012-8.4214c1.002,1.8682,1.1231,1.9033,2.3106.9936C140.24509,176.0581,139.49509,175.7354,138.74509,175.4131Zm10.7422,23.8281c-.2207-1.5395-.3711-2.5976-.5234-3.6558C148.27639,197.5093,148.27639,197.5093,149.48729,199.2412Zm-6.0977-17.9678c-.01359-1.8862-.1699-1.9917-1.9882-1.4062C142.083,180.3496,142.68849,180.7773,143.38959,181.2734Z"/><path class="f" d="M206.54389,179.1724a19.72427,19.72427,0,0,1-1.9824.4814c-.0488.0083-.4062-.7978-.2773-.9717.6387-.8598,1.4023-.6826,2.1289-.1914C206.45609,178.7178,206.499,178.9453,206.54389,179.1724Z"/><path class="f" d="M203.64159,176.4912c.3926-.2187.7773-.4531,1.1875-.6308a1.80716,1.80716,0,0,1,.33591.4853c-.33591.2939-.70311.5508-1.06251.8159Q203.871,176.8262,203.64159,176.4912Z"/></g><path class="e" d="M252.666,83.834a16.80417,16.80417,0,0,1-22.99021,22.9912A16.8159,16.8159,0,1,0,252.666,83.834Z"/></g><path class="h" d="M9.69256,158.02c1.58181-9.99515,6.28779-19.36609,8.39677-29.27931C24.65258,97.89037,5.6455,65.11379,16.22058,35.21228c1.47583-4.173,3.60592-8.30178,7.19334-11.2088,5.84425-4.7358,14.28229-5.35551,22.07515-5.74377l57.232-2.85143c10.24783-.51057,20.53676-1.02065,30.76078-.20249,7.08024.56658,14.08791,1.76747,21.17269,2.28425,20.07667,1.46444,40.11143-2.58666,60.23419-3.35582a184.67822,184.67822,0,0,1,51.696,5.34316c4.25984,1.06493,8.60278,2.34555,11.96272,4.969,6.58347,5.14043,7.74923,13.99694,7.396,21.91237-1.01478,22.74168-4.68548,44.75626-4.82123,67.51657-.099,16.597-1.08035,32.82107.23088,49.37483.59077,7.45815.3858,15.20979-2.94781,22.03623-6.078,12.4463-20.94677,19.0252-35.07244,23.33859-58.52053,17.86971-121.94267,14.02239-183.47324,9.97378-6.73486-.44315-13.6472-.92732-19.75478-3.56372-5.64807-2.43805-10.11632-6.49193-15.17727-9.74274-4.30669-2.76633-8.11323-3.6284-10.00671-8.29342C10.1269,185.18784,7.71638,170.507,9.69256,158.02Z"/></svg>