<svg xmlns="http://www.w3.org/2000/svg" xmlns:xlink="http://www.w3.org/1999/xlink" viewBox="0 0 300 300"><defs><style>.a{fill:none;}.b{clip-path:url(#a);}.c{fill-rule:evenodd;}</style><clipPath id="a"><rect class="a" x="8.9326" y="9.5342" width="281.8369" height="281.8359"/></clipPath></defs><title>gl_nav26</title><g class="b"><path class="c" d="M80.8232,257.2295c-1.7255-1.7378-3.4365-3.4912-5.1953-5.1963a1.672,1.672,0,0,0-1.0927-.3389q-7.5528.0843-15.1026.2329a12.8153,12.8153,0,0,0-1.8115.3155v3.4385a5.44431,5.44431,0,0,1-1.2295.3906c-2.6211.2075-5.2529.3066-7.8672.5771a4.24877,4.24877,0,0,1-3.1055-.876c-1.1455-.8188-2.3847-1.5073-3.9199-2.4619a120.72363,120.72363,0,0,1,3.7647-14.9614c-2.1758-.8774-4.2754-.1841-6.3662.0191-1.1866.1152-2.3672.291-3.5537.4052-3.8165.3677-7.6417.6504-11.4493,1.0948-4.5185.5283-9.0234,1.1806-13.5302,1.8007a3.84189,3.84189,0,0,1-2.6895-.3095c.4815-.3111.794-.6641,1.1543-.7237,9.3066-1.5434,18.6855-2.4218,28.0879-3.1123,2.4473-.1797,4.8769-.5957,7.7002-.9521-.5742-.5869-.8594-1.0489-1.2715-1.271q-4.21725-2.2668-8.4893-4.4302a2.965,2.965,0,0,0-1.4033-.2314c-4.0713.1655-8.1406.3603-12.2099.5556a3.07516,3.07516,0,0,0-.6631.2539c0,.5869-.0303,1.2608.0068,1.9312.0703,1.2788-.3389,1.7358-1.4482,1.3096-2.085-.8013-4.1241-1.7247-6.169-2.6275a3.00327,3.00327,0,0,1-.6992-.6357A39.04982,39.04982,0,0,0,9.125,228.542a2.67255,2.67255,0,0,1-1.2568-3.0801c.4589-1.6079,1.0156-3.1904,1.5859-4.7641a27.745,27.745,0,0,1,1.3047-3.0904,2.65909,2.65909,0,0,0-.1504-3.2138c1.6699-.4664,2.7832.2934,3.8926,1.0332,2.3086,1.5385,4.6094,3.0888,7.414,4.9697-.1728-1.1987-.2226-1.8511-.3652-2.4824-1.5488-6.8521-3.3457-13.6578-4.6113-20.5606-1.6582-9.0332-2.8789-18.1455-4.3369-27.2163a12.44189,12.44189,0,0,1,.9228-6.0781c.5078-1.5039.9912-3.0161,1.4746-4.4922-.9131-.7432-1.6709-1.3589-2.6552-2.1597,2.2001-.2163,4.6835,1.5376,5.121,3.2788a158.91774,158.91774,0,0,1,4.0577,21.398c.9316,8.4897,2.2578,16.9414,3.6064,25.3784.7178,4.4917,1.7959,8.9292,2.8096,13.3687.5097,2.2304,1.1152,2.7963,3.0176,3.3598-.127-.771-.2286-1.4551-.3516-2.1357-1.3184-7.3111-2.8125-14.5952-3.9199-21.9375-1.586-10.5073-2.8809-21.0576-4.3213-31.5864-.3994-2.9209-1.1387-5.8204-1.2549-8.7481-.1318-3.3374.2588-6.6948.4219-10.0435.0761-1.5766.1504-3.1533.2295-4.7973-3.1875-.6509-6.169-1.2588-9.1494-1.8667.8789-1.042,1.5117-1.3486,2.7792-.7246,1.5215.7485,3.3917.7905,5.1104,1.1362a19.00745,19.00745,0,0,0,2.543.4761,3.2,3.2,0,0,0,2.0537-.6651c-1.8457-.5708-3.6778-1.187-5.5401-1.6997-1.7841-.4907-3.5966-.8745-5.3974-1.3051q.0264-.2835.0527-.5674a3.34,3.34,0,0,1,1.1826-.2007c2.1084.4526,4.2051.9668,6.3028,1.4697,1.5517.3726,3.084.8516,4.6533,1.1084,1.0849.1778,1.7978.5982,2.0234,1.6797.3887,1.8696.8115,3.7358,1.1094,5.6211.6592,4.1694,1.249,8.3501,2.3018,12.5566a3.263,3.263,0,0,0,.1826-.8891c-.3672-4.5376-.7032-9.0786-1.1817-13.605a11.1879,11.1879,0,0,0-1.2187-2.8589c2.9482-1.9394,6.0273-3.6128,9.9472-3.5547,4.1436.0611,8.294-.3769,12.4424-.5556,1.5078-.065,3.0196-.0103,4.5332-.0103,1.7246,2.3843,2.1504,5.1782,2.7012,7.8691,1.9219,9.3926,4.2051,18.6817,6.7168,27.941,2.7988,10.3222,4.877,20.8418,7.2061,31.2895.8691,3.8975,1.6084,7.8257,2.3076,11.7573a3.01245,3.01245,0,0,0,2.0703,2.6309c2.4726.9062,4.8428,2.4126,7.3779,2.749,2.9512.3916,5.7412,1.294,8.6319,1.8159,1.1777.2124,2.3437.5049,3.5293.6382,1.0341.1167,2.2685.3975,2.0976-1.5937,3.8916.5732,7.4414,1.083,10.9863,1.6216,4.1084.6245,8.2637,1.0556,12.3047,1.979,3.5547.8125,6.9258.1567,10.6299-.1392a20.30057,20.30057,0,0,0-.7676-1.9922c-2.1416-4.0908-4.25-8.2012-6.4873-12.2392a11.34475,11.34475,0,0,1-1.1074-7.1963c.8945-7.2964,2.1426-14.524,3.498-21.7515.7559-4.0317,1.5118-8.0679,3.2247-11.6924,1.1005-2.3291,1.9355-4.3716,1.6132-6.9385-.0742-.5947.6885-1.3505,1.1719-1.9462a1.852,1.852,0,0,0,.0342-2.4122c-1.1533-1.8242-2.3066-3.6474-3.4356-5.4858a2.00529,2.00529,0,0,0-2.0498-.9077c-1.6777.0732-3.3574.1001-5.0361.0957-2.1025-.0049-4.2256-.0176-4.956-2.9107-.4844.6241-.7549.9844-1.0372,1.3355a3.09907,3.09907,0,0,1-4.2353.7041,2.384,2.384,0,0,1-1.2246-2.4243,2.1726,2.1726,0,0,1,1.8008-2.0015,35.0201,35.0201,0,0,1,3.6435-.209c-.3857-1.935-.7265-3.8667-1.1875-5.7695-.0918-.3843-.5996-.7197-.9863-.9692a17.085,17.085,0,0,0-1.7256-.8638c.2559-1.0449.4766-1.9458.7295-2.979-1.293-.8477-2.543-1.6665-3.9258-2.5728.6153-1.3427,1.211-2.6235,1.792-3.9111a4.26483,4.26483,0,0,0,.2686-2.749c-1.2178-6.2578-2.2793-5.2764.331-12.0713a8.094,8.094,0,0,0,.3369-5.5967,4.508,4.508,0,0,1,1.0508-3.4531c2.5615-3.1875,5.2832-6.2588,9.6777-7.002a3.0601,3.0601,0,0,0,1.4102-1.0722c.7969-.8653,1.4356-1.8882,2.29-2.6846a5.10126,5.10126,0,0,1,7.2549-.0552,3.58941,3.58941,0,0,0,2.7403,1.0806c6.4668-.1392,11.7285,2.6255,16.3632,6.8789,2.0264,1.8584,2.918,4.3642,3.8555,6.8159a48.34171,48.34171,0,0,1,2.6895,12.1284c.6504,5.9522,1.6992,11.8599,2.4961,17.7979a60.31149,60.31149,0,0,0,2.7265,12.3804,10.97733,10.97733,0,0,1,.2852,2.8208c.334,4.5722,2.4453,8.5722,4.1133,12.7089,1.3418,3.3311,2.706,6.6597,4.2285,9.9102,1.25,2.6684,2.7011,5.2471,4.1484,7.8174,1.6074,2.8515,3.2598,5.6806,4.9932,8.457a11.48749,11.48749,0,0,1,1.5791,5.4619c.4277,6.0835,1.8857,11.9824,3.207,17.9058a4.23174,4.23174,0,0,0,.5283,1.3247c1.1221,1.7734,2.2032,3.5469,1.5332,5.9224,1.0088.1035,1.7627.1806,2.7588.2827a8.75946,8.75946,0,0,0-.3633-1.8868c-2.0088-4.4672-1.2968-8.8984.0938-13.3315,1.3379-4.2646,2.4902-8.5991,4.0644-12.7749,1.9151-5.0776,4.1661-10.0293,6.3077-15.0195,1.2275-2.8594,2.5185-5.6905,3.7988-8.5269.2275-.5034.5381-.9687.874-1.563a4.1573,4.1573,0,0,1,.1524-4.8296c.6923-.9062.0136-1.684-.5313-2.3569a5.7898,5.7898,0,0,1-1.3516-4.2285,2.21125,2.21125,0,0,1,1.4346-2.2573c3.8174-1.3345,6.2725-4.3077,8.6377-7.3506,2.1816-2.8057,2.1328-2.8174.1289-5.7241-2.1348-3.0967-4.6113-5.2032-8.75-3.7491a16.02166,16.02166,0,0,1-4.4599.7657c-1.9737.0986-2.1338-.1495-2.5479-2.0391-.2881-1.3169-.6172-2.6245-1.0029-4.2564-2.5108,1.1324-4.918,1.8257-5.7969,4.7012-.5586,1.8296-1.4375,2.272-3.2412,2.1001a2.30793,2.30793,0,0,1-2.332-2.4956c-.0567-3.3408,2.2431-4.7607,5.2294-3.229.211.1084.4229.2144.8184.4141,1.4688-.9151,3.0107-1.875,4.7803-2.9766-1.8789-1.4062-1.0869-2.9629-.2051-4.6973-1.625-.7294-3.1152-1.3989-4.6455-2.0854.0732-1.1939.1416-2.2837.206-3.333-1.456-.523-2.8183-.9141-4.0947-1.4966-1.5459-.7065-1.5078-.7739-.9541-2.3784.9356-2.7134,1.8809-5.4243,2.7774-8.1504a3.66666,3.66666,0,0,0,.1601-1.6094c-.2344-1.6543-.5517-3.2969-.8486-4.9419a23.71208,23.71208,0,0,1,1.1279-12.0449,5.89966,5.89966,0,0,0,.3028-2.9971,6.98817,6.98817,0,0,1,1.8066-5.5263,27.41786,27.41786,0,0,1,3.6064-3.4815,41.43055,41.43055,0,0,1,5.0098-3.7007,32.77792,32.77792,0,0,1,4.9941-2.2143,4.382,4.382,0,0,0,2.5235-1.605,3.48739,3.48739,0,0,1,4.3076-1.0513,3.64242,3.64242,0,0,0,2.7246.1211c2.7256-.602,5.4414-1.2842,8.1953-1.7134,3.0313-.4726,5.666.878,8.0381,2.5123a26.67135,26.67135,0,0,1,9.2295,11.4321,41.63519,41.63519,0,0,1,3.0527,13.7397q.72375,9.43065,1.9229,18.8213a39.42044,39.42044,0,0,0,3.0166,10.0576c3.3711,8.1114,6.4824,16.3311,9.7002,24.5064.1748.4458.3974.875.5576,1.3262a46.90447,46.90447,0,0,1,2.5195,8.122,84.034,84.034,0,0,0,3.3985,12.1973,34.18437,34.18437,0,0,1,1.7011,9.6396,11.31611,11.31611,0,0,1-.3535,3.0816,41.071,41.071,0,0,0-1.0722,15.2124c.2773,2.292.1464,4.6323.2148,6.9497.0859,2.8765.126,5.7559.2969,8.6274a44.91162,44.91162,0,0,1-1.5733,14.7198c-.9863,3.5669-.4287,6.9506.6328,10.354.8555,2.7431,1.6319,5.5112,2.5186,8.2441a3.98753,3.98753,0,0,0,1.0996,1.6504c.6641.5962.457,1.0513.0918,1.6626-.7295-.3862-1.375-.7275-2.0254-1.0713.1192-3.1811-1.0303-6.1099-2.1406-8.9824a20.15416,20.15416,0,0,1-.7051-13.8018c1.291-4.0893,1.3535-8.3364,1.2012-12.5869-.1709-4.7134-.3399-9.4277-.4746-14.1426-.0869-3.0312-.291-6.0747-.1094-9.0923a72.075,72.075,0,0,1,1.2148-8.2763,19.35868,19.35868,0,0,0-.3408-7.8418c-.5205-2.2539-1.2549-4.46-1.9394-6.6738-.9668-3.125-2.0293-6.2217-2.9424-9.3624a9.31,9.31,0,0,0-2.6201-3.9306c-.8858-.8989-1.6504-1.9185-2.4649-2.8882-1.3867-1.6509-2.7187-3.3516-4.1699-4.9443a3.72051,3.72051,0,0,0-5.5215-.5503,48.45776,48.45776,0,0,0-4.4824,3.9673c-1.959,1.8769-3.7598,3.9272-5.7861,5.7246-5.4317,4.8188-10.3789,10.2153-16.6758,14.0171-1.2695.767-2.3535,1.8369-3.5567,2.7202-2.2773,1.6714-3.4277,1.2627-4.2089-1.5327a46.83256,46.83256,0,0,0,4.3086-3.6407,15.993,15.993,0,0,0,2.9531-4.7143c-.7129.2475-1.4258.4946-2.2324.7744-1.3311-1.3237-1.3086-3.0464-1.5733-4.6636-.3545-2.1645-.7207-2.6206-2.7217-3.0464a4.28488,4.28488,0,0,0-1.4658.312c.251.6646.4033,1.1768.6319,1.6529,1.455,3.0293,1.3759,3.9863-.9952,6.3369-1.5966,1.5825-2.4131,3.2886-1.6836,5.644-.8173.4009-1.1992,1.6055-2.5302,1.2271-.1856-.0528-.6817.6079-.8731,1.0141-3.6142,7.6504-7.5869,15.1377-9.9687,23.3306-1.5352,5.2857-3.5879,10.4341-4.3164,15.9233a14.85894,14.85894,0,0,0,.1728,5.1973c1.0576,4.5884,2.3643,9.1201,3.5889,13.6699a7.3904,7.3904,0,0,0,.5185,1.1192,10.56237,10.56237,0,0,0,1.1983-.3487c2.3574-1.0029,4.6748-1.5693,7.1015-.0708a3.879,3.879,0,0,0,2.3311.3794,51.10876,51.10876,0,0,0,12.4834-3.3042c-2.1807-2.4262-1.044-4.5722.1572-6.6884,1.419-2.5005,2.7979-5.0288,4.3457-7.4488a17.8177,17.8177,0,0,0,2.3389-13.9931c-.7754-3.6397-1.5332-7.3887-1.0039-11.1607a26.62671,26.62671,0,0,1,1.4551-5.7676c1.7207-4.5117,4.5761-8.4038,7.1523-12.4428,1.0742-1.6836,2.1152-3.3897,3.1914-5.0718.3311-.5181.6465-1.1675,1.5684-.7085-1.9287,2.9331-3.9239,5.7817-5.7207,8.75-1.9004,3.1387-3.7071,6.3428-5.375,9.6099a15.65579,15.65579,0,0,0-1.3282,9.5918c.4747,3.2421.8741,6.4956,1.3565,9.7363a15.849,15.849,0,0,1-2.3086,11.0093c-1.9287,3.1284-3.7451,6.3266-5.5645,9.521a2.88749,2.88749,0,0,0,1.8077,4.5791,6.06494,6.06494,0,0,1,4.9472,4.2641c-.376-.2646-.7734-.5049-1.124-.7998-1.0869-.9126-1.876-2.6465-3.7451-1.2993-4.3555-1.4136-7.8281,1.9404-11.9111,2.2358-2.3526.17-4.5831.5743-6.7471-.6406a3.953,3.953,0,0,0-3.4785-.0556c-1.7207.6406-3.4024,1.4213-5.1641,1.914-2.3711.6641-4.7969,1.1509-7.2148,1.6367a8.58826,8.58826,0,0,1-4.8848-.7983,16.318,16.318,0,0,0-4.3848-.8794c-1.5576-.144-3.1386-.0322-4.832-.0322a2.4759,2.4759,0,0,0,.4658,2.6474,17.895,17.895,0,0,1,3.4502,11.6817q-.246.0813-.4932.1635c-.1318-.3037-.4062-.6245-.372-.9082.4424-3.6489-1.2315-6.4917-3.4473-9.1186a2.52625,2.52625,0,0,0-1.1719-.6992,3.39052,3.39052,0,0,0-1.6523-.1963c-3.7012.8882-7.2002-.4551-10.7793-.8926a10.5949,10.5949,0,0,1-5.1152-1.8584,10.27947,10.27947,0,0,0-5.1114-1.8135c-4.6757-.5-9.3222-1.2837-13.9853-1.9111a3.25942,3.25942,0,0,0-3.2168.9858c-.9629,1.1695-1.9424,2.3257-3.1465,3.7662a3.16411,3.16411,0,0,0,2.0488-1.3106,2.99,2.99,0,0,1,3.1182-1.2729c1.8105.2783,3.6318.5029,5.4316.8388a1.71625,1.71625,0,0,1,1.1192,1.1328c-1.6641-.2558-3.3487-.4204-4.9854-.7939a3.9765,3.9765,0,0,0-3.9599.9077c-2.1778,1.9927-4.5049,3.8203-6.7354,5.7568-.6963.6055-1.583,1.1768-1.2363,2.646a6.285,6.285,0,0,0,1.7002-.3237c2.3428-1.1733,4.6465-2.4248,6.9668-3.644a38.45424,38.45424,0,0,0,3.5967-1.9004c2.0283-1.3584,3.6757.0742,5.4931.476a2.37376,2.37376,0,0,1-2.5664.3062,3.41755,3.41755,0,0,0-2.7578.3086c-1.8193.998-3.6602,1.9619-5.4346,3.0352-.4599.2788-.707.9101-1.0517,1.3798.0937.1485.1865.2969.2802.4453,1.1397-.2358,2.2901-.4296,3.418-.7153,2.5986-.6587,5.1133-.9228,7.4912.7832a3.013,3.013,0,0,0,1.8545.2344,9.6202,9.6202,0,0,1,6.5938,1.7676c5.5371,3.9829,11.748,4.6875,18.2763,4.1338,2.3106-.1963,4.6211-.3951,6.9336-.564a12.56685,12.56685,0,0,1,1.7344.1748c-.6387.4136-.8643.6807-1.1084.6997-5.7246.4482-11.4307,1.3423-17.2002.4141-3.1777-.5108-5.8437-2.0767-8.5107-3.6953-1.9131-1.1612-2.2959-1.2959-3.9522-1.3199.2354,1.0972,2.2012.9683,1.7344,2.7007-5.5156-.123-11.0684-.3677-16.6191-.3369-5.584.0308-11.1651.3359-16.917.5264a2.41172,2.41172,0,0,0-2.3116-2.0904c-.914-.1294-1.6738-1.3603-2.2685-1.8891-.3526-1.9756-.6582-3.6836-.9287-5.1997.459-1.2388.8974-2.4204,1.4531-3.916-1.2266,0-2.0176.0346-2.8047-.0064-2.373-.123-4.8379.54-7.0332-1.0937a5.59836,5.59836,0,0,0-2.543-.6128,8.39613,8.39613,0,0,1-4.7304-2.1333,4.01818,4.01818,0,0,0-3.045-1.1016c-2.8632.0972-5.7675-.2061-8.4824,1.1147a4.612,4.612,0,0,1-1.5449.1758c.0996.8438.1895,1.6118.2813,2.3867H97.4365c-.1621,1.0718-.8955.8233-1.4746.8228-3.3574-.0034-6.7139-.0254-10.0713-.0293a3.662,3.662,0,0,0-1.7265.3643,3.59657,3.59657,0,0,0,1.1308.3969c3.1924-.0312,6.3838-.1308,9.5762-.1626,1.1055-.0117,2.2139.0977,3.3203.1724.9268.062,1.8525.1533,2.8867.2412-.1689,1.2549-1.126,1.2022-1.9316,1.0498-4.9961-.9468-10.042-.269-15.0586-.4121-1.7031-.0483-3.4424.355-5.1348-.1943a18.59561,18.59561,0,0,1-2.1513-1.0152c-3.8194.7735-7.4815.3848-10.8497-2.3803-1.6123-1.3243-3.7412-2.0201-5.499-2.9302a4.83507,4.83507,0,0,0-2.2724,4.2441c-.045,2.4751-.3106,4.9463-.4639,7.4195-.0371.6157-.0059,1.2358-.0059,1.8037,2.9121,0,5.6026.0395,8.2911-.0108,2.7949-.0527,5.5869-.2627,8.3789-.2485a3.63912,3.63912,0,0,1,2.3398.8838c1.8721,1.852,3.6211,3.834,5.3496,5.8252,1.3106,1.5112,1.2149,2.2578-.4492,4.2529-.1445-.4531-.2588-.772-.3477-1.0986-.08-.2989-.1328-.6055-.2226-1.0244-7.6465-1.2408-15.3174-.6778-22.9531-.6812-7.5879-.0039-15.1758.3643-22.8321.7944a13.51724,13.51724,0,0,0,2.2139.4288c2.9551.0913,5.9141.1669,8.8701.144,10.6231-.0835,21.2324-.9966,31.8633-.4585.8223.041,1.7685-.2871,2.4502.8896a4.81979,4.81979,0,0,1-1.2891.396c-6.3095-.0683-12.6191-.2011-18.9287-.2392-1.8301-.0112-3.6621.2231-5.4932.353a127.12485,127.12485,0,0,1-19.1503-.1221c-.7911-.0629-1.5918-.0087-2.7383-.0087-1.3897-2.669-3.9571-5.0518-3.6895-8.6861,2.1416-1.1201,9.6104-1.9678,11.7354-1.1811a11.56593,11.56593,0,0,1-3.7871.9135,31.81669,31.81669,0,0,0-3.5616.274,15.39774,15.39774,0,0,0-3.0029,1.5078c.0342,1.5815,1.1377,2.7929,1.9824,4.3457,15.9063.1616,31.8604-1.1963,47.8164-.0967C80.6445,257.5928,80.7344,257.4111,80.8232,257.2295Zm71.0498-78.6909q.2535.08715.5059.1748c-.085.3564-.1416.7226-.2588,1.0679-.6387,1.8867-1.4219,3.7353-1.9111,5.6596a36.03745,36.03745,0,0,1-3.5469,8.6182c-.4258.768-.8389,1.5444-1.2617,2.3144a3.06467,3.06467,0,0,0-.0117,3.1905,32.18158,32.18158,0,0,1,3.3574,8.6797c.0195.0859.2637.1201.6006.2617,1.0537-1.6382,2.126-3.3081,3.2021-4.9756.3203-.4981.5235-1.2344,1.5528-.6694-.2754.5-.503.976-.7871,1.4155a54.08768,54.08768,0,0,0-3.6231,5.6328c-2.3867,4.9565-2.3691,10.5371-3.7851,15.7563-.0411.1495.0136.3218-.0137.4776-.4219,2.5151-.8291,5.0332-1.3067,7.5381-.0625.3305-.498.5893-.7607.8818-.1006-.0537-.2002-.1074-.3008-.1611.3242-1.5596.6485-3.1187,1.0889-5.2398-3.9375,1.8506-7.5147,1.4673-11.0957,1.0718a8.80062,8.80062,0,0,0-1.6738-.0332c-3.0245.2485-6.045.5439-9.0704.7808a57.58961,57.58961,0,0,1-7.8808.4638,34.39349,34.39349,0,0,0-10.9512,1.3589c-.4834,2.6987-1.2021,5.3882-.9307,8.4224,3.3995.2041,6.6358.5195,9.8868-.044,1.1777-.2036,2.4209-.3022,3.2353-1.3418a4.80876,4.80876,0,0,1,3.6045-1.6137,38.843,38.843,0,0,0,7.3115-1.0288c1.8916-.5708,3.8438-1.8262,5.9492-.5088.0879.0547.2979-.1285.4463-.1206a12.63144,12.63144,0,0,1,2.0088.1753c.8496.1865,1.6553.6225,2.5078.7353,3.7979.5034,7.6036.9458,11.4121,1.3623a4.74832,4.74832,0,0,0,1.4229-.2934q.0396-.2439.0771-.4878c-.8183-.4605-1.6367-.9205-2.5312-1.4234.8887-1.2763,1.8926-.1118,2.8398-.4643.3057-.5127.6641-1.1133,1.087-1.8223a5.07558,5.07558,0,0,1,1.1377.0122,13.68962,13.68962,0,0,0,5.4628.04,44.98262,44.98262,0,0,1,6.8868-.7348c1.3711-.0181,2.1123-.4141,2.4648-1.666.6289-2.2271,1.3672-4.4307,1.8594-6.6875,1.3594-6.2369,2.2871-12.584,4.9668-18.4663a6.87708,6.87708,0,0,0,.3916-1.3809c.6474-2.9522,1.2334-5.9102.4043-9.2837a3.47739,3.47739,0,0,1,1.3183,3.4873,27.87247,27.87247,0,0,1-2.0507,9.5615,22.42043,22.42043,0,0,0-1.4385,4.0601c-1.3477,5.5029-2.6231,11.0244-3.9102,16.543-.3008,1.292-.54,2.5991-.875,4.229a20.953,20.953,0,0,0,2.7539-.4761c2.4326-.7847,4.8164-1.7305,7.2627-2.4683,3.4121-1.0293,6.8643-1.9267,10.5645-2.9541a4.26024,4.26024,0,0,0-.9805-4.1152,5.10324,5.10324,0,0,1-1.1699-3.0527,20.4752,20.4752,0,0,0-.5645-3.0596c-.7275-3.6792-1.8642-7.334-2.0849-11.043a27.43557,27.43557,0,0,0-4.6826-13.373c-2.3155-3.6343-4.7901-7.1768-6.3936-11.2281-1.4121-3.5644-2.9961-7.06-4.4219-10.6191-1.3027-3.2568-2.6328-6.5142-3.6885-9.8545-.749-2.3662-.8105-2.5264-3.2724-3.0957-3.7422-.8647-7.2227.1397-10.4356,1.6973-3.9101,1.8945-7.3281,4.3178-7.7871,9.438-.3642,4.0669-2.1015,7.853-4.0761,11.4487-.8379,1.5254-2.2832,2.4629-3.6612,3.5757a55.04938,55.04938,0,0,1,1.3311-6.4375c.5127-2.1431.9707-4.2989,1.4629-6.4907-.8047-.0435-1.3125-.0713-1.8409-.1001-.1494-1.8936-.5605-3.5122-2.3037-4.6104a8.33622,8.33622,0,0,0-.4687,2.0298,9.95254,9.95254,0,0,1-1.4014,4.7309,58.6786,58.6786,0,0,0-2.9619,7.5206c-.584,1.8906-.6221,3.9423-1.0703,5.8833a140.42393,140.42393,0,0,0-3.2617,21.0527,14.64525,14.64525,0,0,0,.5117,4.7031,18.93927,18.93927,0,0,0,1.8008,4.1621c2.1875,4.0332,4.4521,8.0244,6.7011,12.0562,2.9415.2114,5.7901.4145,8.542-.8496a2.4457,2.4457,0,0,0,1.6084-2.1226c.1993-1.5796.4952-3.1499.8135-4.7114.7168-3.5181,1.5049-7.0225,2.1865-10.5469a7.50816,7.50816,0,0,0-.0683-2.3794,22.03451,22.03451,0,0,0-3.0713-8.5058,3.98084,3.98084,0,0,1-.0488-4.523,42.86444,42.86444,0,0,0,5.5019-13.4604A22.40791,22.40791,0,0,1,151.873,178.5386ZM50.627,145.251c0,.4223-.0235.7392.0039,1.0512.3291,3.6607.8086,7.314.9677,10.9815a80.35141,80.35141,0,0,0,2.5928,17.2451c1.418,5.3262,2.6309,10.7066,4.0098,16.044.957,3.7099,1.9736,7.4082,3.0879,11.0742,1.3222,4.3554,2.8955,8.6372,4.1523,13.0107,2.2051,7.6773,4.2178,15.4092,6.4004,23.0933a10.1744,10.1744,0,0,0,1.7227,3.0718c.8203,1.1152,1.9218.894,3.0068.3051,1.2949-.7031,1.8525-1.6225,1.6133-2.8359-.9561-4.855-1.8877-9.7149-2.9209-14.5532a10.6859,10.6859,0,0,0-1.1221-2.4131,10.88582,10.88582,0,0,0,.1377-2.3989c-.8262-4.6382-1.6084-9.2891-2.6221-13.8877-2.0302-9.2085-3.8838-18.4732-6.3994-27.5513-2.6699-9.6333-5.1133-19.2998-7.0781-29.0967-.416-2.0771-.5274-4.3052-2.1875-6.1182-1.2705.6475-2.5547,1.2779-3.8125,1.9546C51.6299,144.5234,51.1318,144.9146,50.627,145.251Zm-5.8418,17.6343a18.31023,18.31023,0,0,0-2.1036-.337c-2.5556-.0893-5.1123-.144-7.6689-.1894a4.15671,4.15671,0,0,0-3.7451,4.7139c1.5722,7.1005,3.1142,14.208,4.7568,21.2924,1.1348,4.8897,2.4326,9.7417,3.625,14.6187.7197,2.9463,1.3125,5.9248,2.0801,8.8579,1.1514,4.4048,2.4062,8.7822,3.6172,13.1714a8.0663,8.0663,0,0,0,4.3203,5.1567c3.0469,1.584,6.0732,3.2066,9.1162,4.7979.5156.27,1.0703.4663,1.9199.8301a8.79963,8.79963,0,0,0-.4883-1.2173,41.13475,41.13475,0,0,1-4.5205-10.7901c-1.8213-6.1235-3.957-12.1635-5.5302-18.3481-2.8731-11.3032-5.4395-22.6851-8.1143-34.0386a5.50894,5.50894,0,0,1,.5518-4.1626C43.3535,165.9282,43.9658,164.5352,44.7852,162.8853Zm176.9336-39.1094a19.53239,19.53239,0,0,1,.1992-2.7251,2.247,2.247,0,0,0-.9063-2.2871,44.03182,44.03182,0,0,0-8.8437-6.5166,25.08943,25.08943,0,0,1-8.3819-6.6651c-2.1904-2.8418-4.2841-5.7588-6.4121-8.6484-.6279-.853-1.2314-1.7241-1.9619-2.7495a24.67468,24.67468,0,0,0-3.1308,13.2407,7.99149,7.99149,0,0,0,.7177,3.6924c1.125,1.7441.8233,3.4609.3965,5.1289-.5898,2.3076-1.541,4.5215-2.3076,6.7861-.2695.7989-.4512,1.628-.6084,2.2046,1.5986,1.9771,3.7334.8662,5.5732,1.6953-.1142,1.2652-.2256,2.5049-.3623,4.0283a11.50144,11.50144,0,0,0,2.6944.7022,28.09873,28.09873,0,0,0,4.5-.3721c1.4736-.2168,1.6328-.1445,1.9726,1.6577-2.2422-.0249-2.4785.126-5.4551,3.5523.6202.4463,1.2266.8828,1.7383,1.2519,5.0703-2.9497,9.9785-5.7807,14.8574-8.6621a15.35908,15.35908,0,0,0,2.6387-1.999C219.6055,126.186,220.4531,125.1514,221.7188,123.7759ZM27.2412,144.8389c-3.0332-.001-4.375.8203-4.4707,2.7143-.3496,6.9302-.8467,13.8223.4805,20.7676,1.166,6.1089,1.5879,12.3584,2.3818,18.54.4678,3.6436,1.001,7.2793,1.5361,10.9141.4415,3.0024.8575,6.0122,1.4102,8.9956.9316,5.022,1.8652,10.0474,2.9902,15.0278.6231,2.7603,3.3858,4.4234,6.5284,4.2149a8.0697,8.0697,0,0,0,.1621-1.5679c-.1553-1.8306-.3643-3.6562-.5752-5.4814q-.9903-8.5701-1.9961-17.1372c-.4649-3.9654-.9824-7.9253-1.3819-11.897-.1416-1.4043.2393-2.8858-.0351-4.2485-1.0703-5.3233-2.2529-10.6265-3.5117-15.9087-.4385-1.837-1.3955-3.5508-.3828-5.5064.2148-.415-.0459-1.0932-.128-1.644-.7451-5.0576-1.4814-10.1162-2.2685-15.1675A20.83523,20.83523,0,0,0,27.2412,144.8389Zm5.6709,16.2163c3.3672.1206,6.4678.3266,9.5664.3198,4.7598-.0098,5.2715.2393,6.334,4.896,1.9395,8.4868,3.7803,16.9961,5.6436,25.5,2.0673,9.4341,4.0712,18.8828,6.1933,28.3052.7002,3.1128,1.876,6.125,2.4873,9.2509A22.9192,22.9192,0,0,0,67.5127,239.5a5.0377,5.0377,0,0,0,4.4746,1.9854,13.86966,13.86966,0,0,1-.8066-1.8052c-1.4795-5.3096-2.9131-10.6323-4.3965-15.9409-1.3321-4.7666-2.6768-9.5308-4.0772-14.2779-1.5136-5.1318-3.2168-10.2109-4.6211-15.372-1.7597-6.4722-3.288-13.0074-4.9414-19.5093a71.37337,71.37337,0,0,1-2.665-18.1948,102.17545,102.17545,0,0,0-.9209-10.3008c-6.0674-.2735-11.8291-.8804-17.666-.0088C31.457,151.1528,32.166,155.8711,32.9121,161.0552ZM139.9697,132.752c-.9697-.2593-1.8095-.4605-2.6347-.7076-3.9522-1.184-8.2198-1.6338-11.4854-4.4922-3.2959-2.8857-6.4805-5.8989-9.7119-8.8569-.3799-.3486-.7529-.7041-1.417-1.3257a55.92536,55.92536,0,0,0-2.1133,6.6499c-.3828,2.0318-.2851,4.1446,1.7012,5.626a1.88778,1.88778,0,0,1,.2441,2.8882c-1.3281,1.3252-1.6543,3.0225-2.3701,4.8511,1.5596.9292,3.0606,1.8232,4.5195,2.6923-.4687,1.0494-.8095,1.8121-1.288,2.8838,2.0791.4351,3.8906.814,5.7558,1.2037-.456,1.5297-2.7939,1.4218-2.5254,3.3002.209,1.4629.4102,2.9263.6573,4.6944,1.6591-.419,2.9892-.6387,4.2314-1.0943,2.0938-.768,4.1738-1.6001,6.1846-2.5629a76.09271,76.09271,0,0,0,7.373-3.9048,13.16731,13.16731,0,0,0,2.9483-3.0493,1.66391,1.66391,0,0,0,.1513-1.5015A8.04075,8.04075,0,0,1,139.9697,132.752Zm61.0869,6.6245c.2217,1.3032.3848,2.3247.5713,3.3418.419,2.2851.8799,2.6411,3.2002,2.2778a20.83234,20.83234,0,0,0,4.2071-.8936c3.2773-1.2524,5.4072.1827,7.165,2.7354,1.9951,2.8984,4.8096,5.5044,3.458,9.6138-.0215.0659.1582.1982.418.5053,1.4756-1.7216,2.8769-3.435,4.3672-5.0678a7.68966,7.68966,0,0,1,2.6582-2.3233c1.6367-.5576,1.9873-1.5976,2.1191-3.0464.3848-4.2138.8379-8.4214,1.2246-12.6352.1641-1.7891.2305-3.5869.333-5.2447a19.9897,19.9897,0,0,1-4.081-.0585,19.71191,19.71191,0,0,1-3.6192-1.5865,18.1363,18.1363,0,0,1-2.1914,1.4297c-.8281.3936-1.7656.5513-2.626.8858a17.8,17.8,0,0,0-2.3759,1.1079c-3.3868,1.9336-6.7725,3.8716-10.1231,5.8676C204.1943,137.2188,202.707,138.2856,201.0566,139.3765ZM46.4229,163.3086c-.7276.9595-1.1807,1.5107-1.5831,2.0977a8.6196,8.6196,0,0,0-1.4658,7.8735c.8487,2.7363,1.2823,5.5996,1.9444,8.396,1.5849,6.6855,3.0039,13.4175,4.8457,20.0322,2.2675,8.1528,4.9394,16.1934,7.3476,24.3086a36.20507,36.20507,0,0,0,4.291,8.7998,2.54616,2.54616,0,0,0,2.2608,1.5713c-.6514-1.7183-1.3311-3.1685-1.749-4.6904q-1.333-4.8399-2.4346-9.7427c-1.8486-8.1738-3.6875-16.3506-5.4404-24.5454-1.8223-8.5137-3.4815-17.0625-5.3331-25.5698A38.6207,38.6207,0,0,0,46.4229,163.3086Zm147.2773,67.2676c-2.0166-.2652-3.8975-.5342-5.7842-.7461a3.72761,3.72761,0,0,0-1.417.1426c-2.833.8198-5.667,1.6381-8.4795,2.5278-1.9785.6265-3.8886,1.4912-5.8925,2.0107a10.4881,10.4881,0,0,1-4.2413.3623c-4.288-.728-8.2705.8467-12.9619,1.0503,1.9668,2.4116,3.5616,4.3789,5.1739,6.3311a1.13766,1.13766,0,0,0,.5996.3481,43.76424,43.76424,0,0,0,6.0449,1.1866,41.9473,41.9473,0,0,0,5.9433-.396c.1563-1.2867.3047-2.5.4493-3.69,2.9277.1748,5.541.3013,8.1474.5088a5.26545,5.26545,0,0,1,1.8155.5781c4.3281,2.1094,8.3437.6817,12.3027-.7378A19.67415,19.67415,0,0,0,193.7002,230.5762ZM16.0264,160.8765c-1.4864,3.1152-2.5723,5.8154-2.2705,8.8466.3623,3.6495.8369,7.2872,1.2666,10.9302,1.2089,10.2432,3.5761,20.2671,5.7754,30.3213.5605,2.5689,1.3134,5.1011,2.08,7.6187a4.76379,4.76379,0,0,0,4.1748,3.6049c-.6103-2.8378-1.3545-5.6171-1.791-8.4438-1.6679-10.8037-3.3437-21.6084-4.8037-32.4419C19.5498,174.5752,18.5225,167.8911,16.0264,160.8765ZM36.1943,194.353q-.2841.0228-.5664.0459,1.9365,16.24815,3.877,32.5117a7.66025,7.66025,0,0,1-6.8457-.0488c-2.626-1.353-5.2412-2.7265-7.8809-4.0508a13.21013,13.21013,0,0,0-1.8769-.6303,9.18145,9.18145,0,0,0-1.8067,7.5966c4.7168-.1362,9.4707-.2729,14.3076-.4121,2.8926,3.0293,7.2969,3.5137,10.6065,6.1665.5635-1.788,1.0381-3.2915,1.5693-4.978-2.5468-1.6001-3.3066-4.2417-3.7226-7.083a19.6838,19.6838,0,0,0-.6905-2.543c-1.582-5.5273-3.2343-11.0356-4.7226-16.5883C37.5596,201.0464,36.9346,197.6841,36.1943,194.353Zm95.1377-39.2251c.9063,3.4888,3.1924,5.8194,4.9678,8.7007a18.10794,18.10794,0,0,1,2.8428-2.2988,2.0849,2.0849,0,0,0,1.1562-2.1201c.2305-4.6275.4942-9.2534.7227-13.8809a15.27831,15.27831,0,0,0-.1992-1.9639,70.59531,70.59531,0,0,1-20.5342,9.708,1.79208,1.79208,0,0,0,1.8359,1.9708,33.42321,33.42321,0,0,0,3.584.1464C127.5391,155.353,129.3672,155.2246,131.332,155.1279ZM57.8223,235.8311c-1.4473-.6998-3.0723-1.4859-4.7246-2.2842a7.5545,7.5545,0,0,0-2.1885,3.9975c-1.0576,3.8365-2.2158,7.6451-3.2305,11.4917-.5361,2.0318-.8564,4.1192-1.3584,6.5899,3.4707-.3018,6.5147-.5669,9.7754-.8501C56.6592,248.5898,57.2197,242.4351,57.8223,235.8311Zm43.9433,4.1381c.3477-2.5727.6446-4.771.9532-7.0654-.834-.2578-1.502-.4814-2.1797-.6704-3.7608-1.0474-7.5069-2.1514-11.295-3.0855a6.277,6.277,0,0,0-3.2832.0855c-2.3447.7632-4.6093,1.7764-6.8916,2.7227-.7236.3002-.8369.8325-.3818,1.4853,5.9092-2.9014,11.4385-3.5981,13.9707-1.5185a20.86427,20.86427,0,0,1-2.2812-.0118,18.072,18.072,0,0,0-8.8956,1.3941c-2.039.7978-2.7412,2.1953-2.0419,4.1416,4.5419-5.2764,8.5146-4.3394,13.2744-2.959-.8994.0928-1.3262.1582-1.7549.1782-1.9863.0908-3.9863.0518-5.9531.2876a2.92493,2.92493,0,0,0-2.8457,1.978c2.4687-.1616,5.0039-.3466,7.5429-.4873a4.333,4.333,0,0,1,3.4502,1.208C95.5225,239.8286,98.541,240.063,101.7656,239.9692Zm117.2891-69.8798c1.79-1.0376,3.583-1.8882,4.4648-3.9971,1.3223-3.1646,2.9102-6.2188,4.2364-9.3823a10.495,10.495,0,0,0,.6855-6.2525c-1.6875.1079-2.3184,1.2261-3.0781,2.0889-2.9473,3.3501-5.5596,7.0351-9.5479,9.3232-.1611.0923-.2021.3926-.3447.689,1.7344.8374,2.2871,2.3179,2.4941,4.0913C218.0967,167.7827,217.9629,169.0688,219.0547,170.0894Zm1.7773-73.4937c-.999,1.3892-.4091,2.2109-.1757,2.9771,1.1367,3.7412,2.3642,7.4541,3.5175,11.1904a44.74121,44.74121,0,0,1,1.2061,4.626,2.22906,2.22906,0,0,1-.4111,1.6836,6.64483,6.64483,0,0,0-.9395,8.2114c1.1768,2.2339,4.9658,2.9087,6.8086,1.1338.2148-.2071.1523-.7017.2559-1.2705-1.293.3803-2.5098,1.3452-3.4571-.2784,2.7207-.6987,3.4785-2.2631,2.3369-4.4228a2.4467,2.4467,0,0,0-2.5879-1.3189,2.13417,2.13417,0,0,0-1.9755,1.7994c-.1739.623-.2364,1.2768-.4004,2.2187-.9668-1.7392-.7647-3.2578.3398-4.3433a2.92907,2.92907,0,0,1,3.1016-.7436,27.74384,27.74384,0,0,1,3.1093,1.4565,4.30737,4.30737,0,0,0-3.0459-3.4057,2.91774,2.91774,0,0,1-2.0205-1.8457c-1.3232-4.1841-2.7089-8.3487-4.0605-12.524C221.9258,100.1665,221.4492,98.5825,220.832,96.5957ZM19.0264,233.5151c.1132-.9526.1699-1.5713.2617-2.184.4258-2.8326.8223-5.6705,1.3076-8.4922.2842-1.6548-.71-3.0835-2.7393-3.7041-1.0546-.3228-1.9882.2661-2.5273,1.9404-.7812,2.4228-1.334,4.9189-2.0859,7.3516a2.38965,2.38965,0,0,0,1.1328,2.8667A40.24089,40.24089,0,0,0,19.0264,233.5151Zm32.3554-.7968c-2.4853-1.6675-2.8935-1.5616-3.7685,1.1674-.461,1.441-.8281,2.9126-1.2363,4.3706-1.1387,4.0611-2.3262,8.1094-3.3965,12.1885-.5332,2.0332.0918,2.7959,2.4179,3.3692C47.373,246.855,49.3467,239.8945,51.3818,232.7183Zm92.1241-96.3931c-.7481-.9761-1.1914-1.5547-1.8438-2.4058a18.03451,18.03451,0,0,0-.8125,3.1358,2.81483,2.81483,0,0,0,.6641,1.917,5.60751,5.60751,0,0,0,7.3652.7173c2.2461-1.5489,2.9629-4.8399,1.3203-6.6441a10.47934,10.47934,0,0,0-2.3242-1.5332c-.3652.5576-.6172,1.3267-.9277,1.3516C145.0352,133.0171,144.2139,134.3027,143.5059,136.3252Zm-28.503,117.3281q-.00285.342-.0068.6841a2.5978,2.5978,0,0,0,.7949.27q14.5767-.15165,29.1533-.3305c-.0146-1.6558-.3076-1.9688-1.9736-2.1426-.7773-.0816-1.8232.102-2.2812-.3296-1.6368-1.542-3.5821-.9463-5.42-1.0747-.2451-.0176-.5175.3564-1.0976.7871,1.8789.1567,3.3945.1914,4.8301,1.081-4.1397-.0517-8.0733-.2744-11.9903-.1015A73.65943,73.65943,0,0,0,115.0029,253.6533Zm-3.9345-6.0874c1.0097-2.269,2.7246-3.3911,2.9199-5.5356a5.00605,5.00605,0,0,0-3.1836,2.8657,8.1862,8.1862,0,0,0-.6719,3.6694c-.1299,1.5562.7754,2.2632,2.127,2.6856.3281.103.5029.6294.8281.8349a2.39856,2.39856,0,0,0,1.2773.4829c2.8418-.1835,5.6797-.4414,8.5899-.6806-.3155-1.9409-.5957-3.666-.9258-5.69-1.5322.9849-3.0117,1.8702-4.4199,2.8584-1.4571,1.0215-2.8985.939-4.6328.2413.5693-.8111,1.0351-1.4742,1.5566-2.2173C113.4434,247.2334,112.5,247.3652,111.0684,247.5659Zm107.2011-88.7641v-4.2652c-1.4756,1.607-2.8144,3.2476-4.3457,4.6822-1.5332,1.436-3.2578,2.6669-4.8906,3.9809a13.05514,13.05514,0,0,1,.5098,1.9307c.1269,1.0996,0,2.2402.2236,3.313a4.30552,4.30552,0,0,1-.7139,3.6113,2.183,2.183,0,0,0-.0586,2.8838c.4561-.7056.8047-1.3013,1.21-1.854.4707-.6411.9775-1.2569,1.4941-1.8623,1.751-2.0557,1.836-2.8037.542-5.0987-1.2343-2.1914-1.1855-2.3925.8692-3.792C214.9355,161.0884,216.7549,159.8379,218.2695,158.8018Zm-86.1211,78.538c-1.8545.2867-3.3027.4673-4.7343.7408a10.243,10.243,0,0,0-6.125,3.4458c-1.5489,1.8213-3.252,3.5092-4.8555,5.2856a20.25413,20.25413,0,0,0-1.3301,1.9297c3.375-.8057,5.1006-3.9004,8.2735-3.7456a10.87367,10.87367,0,0,0,.8183-1.5884c.7813-2.4927,2.7891-3.4634,5.0645-3.624C130.7275,239.6797,131.4082,239.1045,132.1484,237.3398Zm-30.125-6.1235c.8985-.1636,1.6289-.5444,2.0713-.3301,1.3096.6333,2.4844.0816,3.7256-.0688,1.7246-.2095,3.461-.3941,5.1953-.437,2.2354-.0552,4.4981.2876,6.836-.5806-2.793-1.0185-16.6446-2.8726-18.837-2.5254C101.3457,228.5693,101.6738,229.8511,102.0234,231.2163Zm-48.4785-89.269c-.3066-.189-.4355-.3379-.5566-.3326-5.1778.2198-10.3604.3619-15.5264.7339a8.75812,8.75812,0,0,0-5.3789,2.2984c.8516.0415,1.3125.0869,1.7715.083,3.9111-.0342,7.8486-.3779,11.7226-.0235A10.16766,10.16766,0,0,0,53.5449,141.9473ZM80.2686,229.624c.0722.1382.1455.2769.2177.4151,1.7793-.6104,3.5782-1.1739,5.334-1.8457a4.97143,4.97143,0,0,1,4.3379.1367,18.00616,18.00616,0,0,0,4.0537,1.3828,25.49867,25.49867,0,0,0,6.2197,1.1684c.0098-2.2451-.0156-2.2387-1.664-2.5683-3.502-.7002-7.0196-1.3472-10.4873-2.1978a5.63506,5.63506,0,0,0-5.1485,1.0459C82.1426,227.938,81.2207,228.8003,80.2686,229.624ZM13.2061,216.0044a24.90034,24.90034,0,0,0-1.7393,2.8301c-.7627,1.7368-1.4258,3.5205-2.0576,5.3105-.8487,2.4033-.2481,3.4488,2.5322,4.3604,1.2012-3.5557,1.4668-7.4522,3.8008-10.7002C14.96,217.2505,14.2627,216.7554,13.2061,216.0044ZM141.2744,112.9453c-.4346.6856-.6885.9028-.6533,1.0576,1.3086,5.9698,2.6445,11.9331,3.9844,17.939,1.748-.2656,1.1943-1.4502,1.0332-2.2285q-1.4121-6.8028-3.002-13.5679A22.05667,22.05667,0,0,0,141.2744,112.9453ZM77.666,229.7007a15.3958,15.3958,0,0,0,5.3242-4.1172,19.13965,19.13965,0,0,0-6.8535-2.5669C76.6826,225.4023,77.1494,227.4419,77.666,229.7007Zm35.5557,16.0762c4.6142-.4278,5.998-3.7886,8.4131-6.4502-3.7676-.229-4.7344.4404-4.416,2.7744C114.8066,241.9585,114.7324,244.2417,113.2217,245.7769ZM216.749,88.3101c.1573-.0103.3155-.0201.4717-.0298q-.7779-3.5874-1.5576-7.1748a19.05674,19.05674,0,0,0-.5674-2.3145c-.3398-.956-1.1348-1.021-1.9697-.7441-.9365.3105-.9102,1.0215-.5635,1.7378C213.9424,82.6338,215.3516,85.4692,216.749,88.3101Zm-81.1084,77.205c.9785,1.5352,1.8828,2.9541,3.0615,4.8057,1.3165-2.2754,1.2032-4.2954,1.3526-6.2988C137.9668,163.063,137.0898,164.8252,135.6406,165.5151Zm22.584,76.0972c-1.3066-1.5571-2.5351-3.1899-3.9473-4.6455-.9384-.9688-1.8085-.6362-2.2578.6982a4.45475,4.45475,0,0,0-.0175,1.2554C154.1758,239.5845,155.54,241.7778,158.2246,241.6123Zm-29.3789-.0449q-.1758-.3237-.3496-.6475c-.7168.3819-1.6621.5918-2.1055,1.1797-1.2275,1.624-2.416,3.332-2.4531,5.5523.5859-.3716,1.3223-.9859,1.2178-1.3697-.3633-1.3257.4795-1.9048,1.2314-2.5854C127.1904,242.9692,128.0244,242.2759,128.8457,241.5674Zm79.2627-76.6958c-.7314,1.4004-.7334,1.4009.5234,2.4814C208.4238,166.3682,208.2656,165.6196,208.1084,164.8716Zm-74.0107-64.127c.082-.1372.1621-.2749.2431-.4121q-1.1484-.6723-2.2969-1.3452-.1098.18465-.2177.3696Q132.9629,100.0505,134.0977,100.7446Zm-6.2969-.0215q.0264.37215.0517.7447,1.0884-.29745,2.1768-.5948-.0645-.26655-.1279-.5327Q128.8511,100.53155,127.8008,100.7231Zm.6133,150.1924q-.14655-.2211-.293-.4419c-.3516.2505-.7051.5015-1.0566.7525q.11415.1779.2294.3559Q127.85355,251.24885,128.4141,250.9155Z"/><path class="c" d="M178.0947,255.8125c.5713.084,1.1436.1646,1.7139.2524,3.2246.4961,6.4434,1.0381,9.6777,1.4732,1.6602.2231,3.3555.1807,5.0196.3906a46.97265,46.97265,0,0,0,10.041.0781c5.0937-.4443,10.2207-.498,15.3301-.7592,3.7509-.1924,7.496-.5699,11.247-.6387,2.5469-.0464,5.1006.2998,7.6524.4658,1.5146.0991,3.0293.2124,4.5459.2764a3.04267,3.04267,0,0,0,3.373-2.4478,25.17929,25.17929,0,0,1,6.2324-10.646,11.205,11.205,0,0,0,2.7657-6.1836,152.89075,152.89075,0,0,1,4.5927-21.5341c.9327-3.0533,1.6426-6.1739,2.4903-9.254a21.4591,21.4591,0,0,1,.8242-2.1225c.2002.0605.3994.1211.5996.1821-.2568,1.086-.4522,2.1924-.7822,3.2559-2.7491,8.8618-5.2715,17.7993-6.4951,27.0005-.5889,4.4287-1.6944,8.2319-5.1309,11.3559-2.7217,2.4751-3.8535,5.9693-4.5879,9.6797a11.97232,11.97232,0,0,0,1.4268.3145c1.3886.1313,2.8398-.212,4.041.9775.3603.3564,1.2226.25,1.8584.2783,5.0302.2217,10.0605.5244,15.0937.6128,10.5479.187,21.0967.2568,31.6455.3853.1358.0014.2696.1406.4961.2661-.2207,1.143-1.125.8154-1.8222.7934-3.2715-.102-6.5411-.2968-9.8125-.3437-7.1143-.1021-14.2334-.0059-21.3428-.2339-6.459-.207-12.9111-.5962-19.3643-1.063-11.3584-.8218-22.7578-1.2876-34.1533-.2632-4.5342.4073-9.0869.6177-13.6348.856a34.52343,34.52343,0,0,1-4.5507-.0752c-4.461-.3565-8.9229-.7217-13.3711-1.2119a36.38812,36.38812,0,0,1-4.8985-1.1143,3.25074,3.25074,0,0,1-.8759-.5805C177.9912,256.0942,178.043,255.9536,178.0947,255.8125Z"/><path class="c" d="M8.9502,243.2705a24.51909,24.51909,0,0,1,5.9863-.8721,76.15755,76.15755,0,0,0,11.3487-1.6601c3.7236-.8194,7.5576-1.1577,11.3544-1.6094,1.9454-.2319,3.9161-.251,5.8643-.3657.1709,1.2207-.5,1.185-1.1592,1.2456-3.9736.3633-7.9629.6201-11.9121,1.1616-3.709.5083-7.3574,1.4453-11.0635,1.9688-3.1552.4448-6.3545.5761-9.5361.8237a3.17267,3.17267,0,0,1-.8848-.19C8.9482,243.6055,8.9492,243.438,8.9502,243.2705Z"/><path class="c" d="M10.3418,230.8516c-1.3486.2509-2.3145.4301-3.3105.6152C7.2002,229.709,8.1035,229.4927,10.3418,230.8516Z"/><path class="c" d="M37.751,168.6885c-1.3008-.2759-2.6006-.5508-4.1114-.8711C35.0938,166.8877,35.7197,166.979,37.751,168.6885Z"/><path class="c" d="M206.002,112.7285c-1.4122.6489-2.8243,1.2984-4.0225,1.8486-1.5283-.6044-1.2119-3.0957-3.3857-2.0322.1816-1.2524.3085-2.1245.4238-2.914,2.4179.8379,4.7207,1.6357,7.0234,2.4336Q206.02045,112.39615,206.002,112.7285Z"/><path class="c" d="M202.9102,106.0703c-.7842,1.6704-1.5938,2.0049-4.795,2.2549.2774-1.0181.2735-1.0288,1.9981-1.5293C200.9648,106.5488,201.8281,106.3491,202.9102,106.0703Z"/><path class="c" d="M119.8936,128.5435c1.3232.3398,2.4482.5708,3.5283.9345a5.11618,5.11618,0,0,1,1.2383.8946c-.4297.3628-.8077.9253-1.2989,1.0546C120.6055,132.1523,119.4639,131.1113,119.8936,128.5435Z"/><path class="c" d="M118.958,125.4087c1.0986-.0899,2.1963-.1807,3.4736-.2857C121.1963,126.6421,120.7949,126.6948,118.958,125.4087Z"/></g></svg>