<svg xmlns="http://www.w3.org/2000/svg" viewBox="0 0 300 300"><defs><style>.a{fill:none;}.b{fill-rule:evenodd;}</style></defs><title>gl_nav24</title><rect class="a" x="9.20018" y="9.1763" width="281.83692" height="281.8359"/><path class="b" d="M176.6523,151.5669c-.375.3472-.75.6948-1.5888,1.4717,0-1.2906-.0742-2.0445.0127-2.7793q.75585-6.427,1.582-12.8467a48.86781,48.86781,0,0,0,.5244-11.8706c-.4648-4.1787-.0361-8.4551-.0381-12.689-.0019-3.1928.0235-6.3891-.123-9.5766-.2871-6.2281-.7637-12.4473-1.0176-18.6763-.293-7.188-.6035-14.3833-.581-21.5742A37.24251,37.24251,0,0,1,180.123,44.626c2.9483-5.2217,6.8125-9.6817,12.337-12.375a23.78572,23.78572,0,0,1,14.6865-2.0557,75.02772,75.02772,0,0,1,12.1748,3.5073,2.50625,2.50625,0,0,1,1.7412,1.4444,4.78029,4.78029,0,0,0,1.6406,1.6494c4.2012,3.103,6.7666,7.3691,8.6992,12.0962a6.41491,6.41491,0,0,0,.2491.6743c3.0156,5.4302,1.7822,10.9927.5136,16.9595,1.25.834,2.6797,1.8027,4.128,2.7426a7.34986,7.34986,0,0,0,1.0879.4942c2.7832,1.2134,5.0859,2.9165,6.3134,5.8418.6797,1.6186,1.5987,3.1362,2.2764,4.7554a13.17022,13.17022,0,0,1,1.1055,5.3515,33.003,33.003,0,0,0,.5429,5.4746,83.07345,83.07345,0,0,0,6.4307,21.5113c2.3936,5.3144,4.4775,10.7685,6.8691,16.0839,3.21,7.1353,6.5811,14.1978,9.8936,21.2862.375.8022.4072.7871-.2187,1.9194a10.51826,10.51826,0,0,1-.92-1.3857c-3.6816-8.1475-7.3965-16.2823-10.998-24.4649-2.5762-5.8506-5.0059-11.7656-7.4844-17.6582a75.20167,75.20167,0,0,1-5.373-24.1885,11.60391,11.60391,0,0,0-1.1836-3.8603c-.9258-2.0293-2.0586-3.9629-3.0586-5.9595a2.8255,2.8255,0,0,0-2.6778-1.6811,22.297,22.297,0,0,0-2.3984.021,3.55955,3.55955,0,0,0-3.0967,1.8754,16.182,16.182,0,0,1,1.8897-.1655,2.15,2.15,0,0,1,1.3193.2998c1.4717,1.4849,2.8613,3.0503,4.4385,4.7603-1.7656-.0454-1.7656-.0454-3.3535-1.3848-.8848,2.9077-1.7618,5.7803-2.6289,8.6563-.1143.3803-.1368.792-.2764,1.1611-.6182,1.6348-1.2822,1.9814-2.9463,1.4761-1.0391-.3155-2.0488-.7261-3.376-1.2027a7.929,7.929,0,0,0,.2471,1.5586c1.1289,2.7251,2.2676,5.4458,3.4521,8.147a13.10191,13.10191,0,0,0,6.004,6.2993,5.21081,5.21081,0,0,1,2.8349,3.833c1.7129,8.1148,3.5801,16.1992,5.5352,24.2598,1.2226,5.042,2.6914,10.0259,4.0742,15.0293.4658,1.6855,1.041,3.3418,1.499,5.0293a11.17207,11.17207,0,0,1,.0195,2.1885c-1.6845-2.5435-3.4794-1.7891-5.2724-1.2642q-8.84175,2.58765-17.6953,5.1299a3.18023,3.18023,0,0,1-.8535.0097c-.1485-1.1059.6201-1.1552,1.1875-1.3149,2.2304-.6265,4.4804-1.1816,6.708-1.8154,3.1455-.8955,6.2802-1.8262,9.4121-2.7652,1.4511-.435,2.8857-.9257,4.3672-1.4038-.3614-.8388-.7247-1.6816-1.1768-2.7314-1.7471-.4507-3.5586.3682-5.3496.9258-4.2695,1.3296-8.4512,2.9536-12.7461,4.188a80.16325,80.16325,0,0,1-11.5098,2.2993c.294-.2696.545-.6719.8907-.7832a19.53756,19.53756,0,0,1,3.247-.8326,67.6786,67.6786,0,0,0,12.4649-3.4145c4.3642-1.4961,8.7744-2.8545,13.3134-4.3213-1.8496-7.1572-3.7597-14.5498-5.6523-21.873-1.9844.5869-4.0019,1.2246-6.0449,1.7734-1.4434.3877-2.669.937-2.7481,3.2192-1.3945-1.9941-2.6767-1.5991-4.1504-.9458-1.7441.7725-3.6171,1.2481-5.4267,1.875-1.5381.5328-1.5332.5464-2.3154,2.2354-2.4454-1.9595-4.8887-.5083-7.1885.2529-3.9356,1.3023-7.7158,3.0654-11.6074,4.5083-4.8623,1.8023-9.583,4.0156-14.7481,4.9536-3.5283.6407-7.0234,1.4678-10.5322,2.2154-2.042.435-2.1074.4712-2.2656,2.6904-.0996,1.3994-.6914,2.8501.2705,4.188Zm2.4747-20.0703c-1.0948,1.5996-1.5313,4.5488-1.043,7.2978,3.039-.9853,6.1348-1.7924,9.0723-2.9873,4.5683-1.8584,9.0078-4.0293,13.541-5.9751,3.5117-1.5073,7.0888-2.8584,10.623-4.3125,1.0078-.415,1.9668-.9482,3.1201-1.5107-1.0752-1.2388-1.9463-2.2412-2.9541-3.4019a23.84916,23.84916,0,0,0-2.6474,1.0035,121.98044,121.98044,0,0,1-23.6905,8.8281c-1.6855.4687-3.3349,1.0649-5.0068,1.582-.5195.1611-1.1689.46-1.0869-.5933a18.20018,18.20018,0,0,1,2.3516-1.0708c3.0566-.9126,6.1132-1.833,9.207-2.6025,5.2998-1.3193,10.1777-3.7319,15.1963-5.7656a34.60132,34.60132,0,0,0,4.8447-2.9688c-1.1572-1.0639-2.1348-1.9624-3.0147-2.7715-9.583,2.8936-18.3369,7.504-28.3388,9.2442C179.2402,127.5991,179.1836,129.5479,179.127,131.4966Zm34.1464-75.6787c-2.9189,1.8603-5.3388,3.4717-6.9043,6.0766-.5722.9536-.7558,2.3599-2.4316,2.0816-.1543-.0259-.4434.4145-.584.6831-1.0742,2.0498-2.2168,4.0713-3.1504,6.185a8.16336,8.16336,0,0,0-.7558,3.4644,38.23264,38.23264,0,0,0,.7949,8.083c1.456,5.6338,3.2266,11.1904,5.0098,16.7334,1.0566,3.2852,2.455,6.4531,5.2773,8.6865,3.7734,2.9864,5.6045,7.4707,8.5527,11.1016,1.7588,2.166,2.709,4.9883,4.1201,7.7026,2.4356-.5434,5.085-.1411,7.6124-1.5132a12.76852,12.76852,0,0,0-1.2012-1.5078c-2.3838-2.1259-4.7383-4.291-7.2246-6.2905a4.30038,4.30038,0,0,1-1.7334-2.7026c-1.21-6.3565-2.4209-12.7134-3.7373-19.0479-.2989-1.4385.4814-3.3838-1.002-4.2295a11.68075,11.68075,0,0,0-4.6211-1.0796c-2.8818-.269-5.3379-1.56-7.7871-2.9048-.2099-.1152-.2109-.6118-.4805-1.4882,1.3145.6494,2.1211,1.1118,2.9747,1.457a38.01834,38.01834,0,0,0,4.4726,1.6387c1.7676.4663,3.6309.5742,5.3916,1.0595a13.19,13.19,0,0,0,7.5459-.122c3.624-1.1011,4.5859-2.2432,5.0986-5.9952a93.08318,93.08318,0,0,1,1.5987-9.9326c1.3271-5.33-.3906-10.0107-2.4766-14.7802-.8027.2641-1.543.5546-2.3096.7495-.9853.2505-1.5341-.2022-1.541-1.187a2.06275,2.06275,0,0,1,2.417-2.1944c.3477.0293.6953.0562,1.3965.1128-.708-1.4175-1.2598-2.5239-1.8125-3.6328-1.2783.1768-2.3291.3218-3.4453.4761-.043-1.9141,1.9639-1.0528,2.7266-2.5801-.4737-.4648-.9463-.9297-1.5079-1.481a24.75652,24.75652,0,0,1-11.1543,8.6372C212.6328,57.4814,212.8613,56.8857,213.2734,55.8179Zm-35.9736,87.7348c2.6543-.3159,5.3174-.5849,7.9619-.9702,1.0947-.1596,2.1387-.6528,3.2305-.8462,5.3906-.955,10.3916-3.1152,15.3828-5.1865,4.8633-2.0176,9.6387-4.2148,14.7813-5.4585a8.5992,8.5992,0,0,0,1.4238-.6245c-.6211-2.125-2.0528-3.4116-3.375-4.7852a1.64113,1.64113,0,0,0-2.1524-.3608c-.7793.3989-1.5634.7993-2.3769,1.1196-3.1836,1.253-6.418,2.3867-9.5645,3.73-4.9052,2.0942-9.7129,4.4224-14.6425,6.457-2.792,1.1524-5.7647,1.8604-8.6182,2.875C177.0547,140.3188,176.9639,140.5977,177.2998,143.5527Zm29.002-28.2871c-1.9522-3.0083-2.1202-3.0713-4.9131-2.0371-.0742.0278-.1446.0698-.2198.0947-5.4521,1.8077-10.9013,3.6289-16.3632,5.4073-1.1182.3642-2.2891.5664-3.6358.8921-.3965,1.2973-.8301,2.7094-1.3769,4.4956C189.2949,122.4658,197.5068,118.3154,206.3018,115.2656Zm-23.6387,1.9224c.0889.1626.1767.3257.2656.4888,2.2354-.0332,16.9151-4.9429,19.916-6.6988-.5625-.6684-1.167-1.2817-1.6474-1.98a2.22508,2.22508,0,0,0-3.0996-.8017c-1.3135.5498-2.7305.8457-4.0762,1.3218-1.9453.687-4.1104,1.0927-5.7393,2.2436C186.1807,113.2476,184.5156,115.3506,182.6631,117.188Zm52.6904-12.437c.0508-.1055.1016-.211.1533-.3164a42.64186,42.64186,0,0,1-3.8134-4.8506,69.00137,69.00137,0,0,1-2.96-6.5161c-.4834-1.0689-1.0146-2.1148-1.5391-3.2007-1.4472.4531-2.6591.8286-3.8681,1.2119a1.56722,1.56722,0,0,0-1.2637,1.9717c.4385,2.0044.918,4,1.3262,5.7637a9.9538,9.9538,0,0,1,2.8095.5146C229.2891,101.0669,232.3086,102.9316,235.3535,104.751Zm-.0137,21.2929c2.7452-.9794,5.254-1.875,7.9415-2.8339-.3399-1.4478-.6739-2.8711-1.0391-4.4317-2.6162.9219-4.9766,1.7534-7.3594,2.5928C235.0381,122.957,235.168,124.2866,235.3398,126.0439Zm-3.6835-10.1621c3.0947-1.2636,5.9453-2.4277,9.0234-3.6845-.3867-1.1924-.7031-2.167-1.0742-3.3096-3.3926,1.75-7.0928,1.9746-9.9717,4.4609C230.3867,114.2915,230.9727,115.0259,231.6563,115.8818Zm1.4716-27.2617a17.012,17.012,0,0,0,.8213-1.8984c.792-2.7578,1.5801-5.5186,2.2969-8.2964.4336-1.6841.1826-2.5396-.6816-2.5874-1.3497-.0757-1.335,1.1089-1.6133,1.9795-.8731,2.7207-1.7344,5.4453-2.5791,8.0986-.7979.0567-1.3623.0962-2.0821.147C229.8398,88.1162,231.4521,88.1289,233.1279,88.6201Zm.8741,31.7529a36.23443,36.23443,0,0,0,7.9238-3.2724c-.3164-1.2061-.5899-2.249-.9151-3.4922a56.78109,56.78109,0,0,1-5.6289,1.957c-1.3584.3233-1.2568,1.6065-1.9267,2.3516C233.1748,118.2295,233.7373,119.3008,234.002,120.373Zm-6.9219-12.0122c2.414-1.0498,4.8779-1.0888,6.7402-2.7959-3.9316-2.9711-5.3965-3.0463-8.1523-.4243C226.0869,106.0967,226.5215,107.0869,227.0801,108.3608Zm1.9053,3.4219c3.1435-1.3149,5.9257-2.4785,9.2373-3.8638-1.3653-.6831-2.1836-1.0927-2.7041-1.3525-2.7823,1.0713-5.2413,2.0186-7.9209,3.0508C228.1973,110.5547,228.6094,111.1963,228.9854,111.7827Zm-37.0518-3.6343c.0801.1866.1592.3741.2383.5606,1.958-.5635,3.916-1.1275,5.8945-1.6973-.0254-1.2666.457-2.438-1.207-3.1172C195.2627,105.2734,193.5977,106.7109,191.9336,108.1484Zm39.6367,18.8887c-.0635-.0986-.1269-.1963-.1914-.2949-2.7344.4429-5.4697.8857-8.3359,1.3496.1172.6025.2129,1.0991.3593,1.8467C226.25,128.9268,228.9102,127.9824,231.5703,127.0371Zm5.2559-56.2168c-1.9199-.2344-3.3242-.4053-5.0908-.6206C233.46,72.0449,234.1035,72.1274,236.8262,70.8203Zm-8.917,31.4951c-1.1572-1.2133-2.167-1.4199-3.1162-.5337-.2549.2383-.0157,1.0054.0039,1.8306C226.0449,103.0928,226.8848,102.7427,227.9092,102.3154Z"/><path class="b" d="M176.7139,151.6299a.81882.81882,0,0,1,.334-1.3692,10.2834,10.2834,0,0,1,1.833-.5434c8.6259-2.0415,17.2441-4.1177,25.8847-6.0947,4.75-1.0865,9.5928-1.7969,14.294-3.0503,5.1621-1.375,10.2187-3.1514,15.3027-4.8096,2.7334-.8916,5.4229-1.9185,8.1455-2.8438a14.41528,14.41528,0,0,1,2-.3798c.0039,1.3286-.8125,1.4062-1.4629,1.6215-3.8574,1.273-7.7519,2.4449-11.5761,3.8082a129.19309,129.19309,0,0,1-19.6495,5.226c-4.5507.8535-9.0517,1.98-13.5625,3.0366-5.288,1.2383-10.5654,2.522-15.8408,3.8086-1.9336.4717-3.8506,1.0079-5.7695,1.521Z"/><path class="b" d="M246.3145,139.6323c-20.0342,6.2329-40.2344,10.0586-60.1133,15.1836q-.09825-.25125-.1963-.5024a5.287,5.287,0,0,1,1.2851-.7334c3.3321-.8003,6.6866-1.5059,10.0147-2.3242,3.2519-.7994,6.4648-1.7583,9.7207-2.5381,7.0635-1.6919,14.1709-3.2032,21.2051-5.0015,5.1015-1.3037,10.1123-2.9546,15.166-4.439C244.2598,139.0244,245.1621,138.5659,246.3145,139.6323Z"/><path class="b" d="M198.9424,155.8232a13.53918,13.53918,0,0,1,2.0029-.9462,42.24489,42.24489,0,0,1,4.1856-1.0118,166.21292,166.21292,0,0,0,19.3945-5.1816c4.8623-1.5239,9.8633-2.6006,14.8076-3.8604,2.0108-.5122,4.0244-1.0136,6.0518-1.4541.7607-.166,1.6191-.2343,1.6679.9224-3.5644.7852-7.0625,1.458-10.5088,2.3394-4.8603,1.2426-9.6669,2.6933-14.5214,3.957-6.1719,1.6069-12.3721,3.1059-18.5537,4.6753-1.4278.3628-2.8321.8218-4.2471,1.2368C199.1289,156.2744,199.0352,156.0488,198.9424,155.8232Z"/><path class="b" d="M237.6211,89.2227c-.8477-.5567-.8477-.5567-.9131-1.5074C237.5225,88.2334,237.5225,88.2334,237.6211,89.2227Z"/><path class="b" d="M227.6543,74.7246c.124,1.8198-.7588,3.084-1.4258,4.3604-.2178.417-1.0683.6464-1.6553.7036a19.61255,19.61255,0,0,1-9.2753-1.7466c-.3458-.1392-.5459-.6411-1.0264-1.2422C218.9023,76.082,223.21,75.4141,227.6543,74.7246Zm-9.1328,2.6983c-.0098.2226-.0186.4453-.0274.6669,1.7139.167,3.4278.4541,5.1426.4664,1.627.0112,1.7529-.2671,1.8154-2.3414C223.1182,76.6221,220.8203,77.0225,218.5215,77.4229Z"/><path class="b" d="M207.8271,62.127c1.7579-3.7598,4.0811-4.063,7.7334-1.0147-.291.3213-.5185.7861-.875.9287A11.76327,11.76327,0,0,1,207.8271,62.127Z"/><path class="b" d="M224.9902,65.373a22.10055,22.10055,0,0,1,1.9649,2.5064c.6933,1.1831.2558,1.7812-1.8281,2.3945,1.5078-1.8652-.4766-3.1103-.5899-4.6621Q224.7642,65.4924,224.9902,65.373Z"/><path class="b" d="M221.9375,70.0811a3.60426,3.60426,0,0,1-.5547-.6407c-.0254-.0468.3233-.4087.4121-.3774a2.50176,2.50176,0,0,1,.6328.4673C222.2969,69.6768,222.166,69.8232,221.9375,70.0811Z"/><path class="b" d="M96.0635,106.332c1.4013,3.1739,2.6797,5.9605,3.8457,8.793a3.74509,3.74509,0,0,1,.0625,2.019c-.5928,2.9996-1.2305,5.92-3.5059,8.3013-2.1387,2.2363-6.2685,3.6465-8.8926,2.2632a38.4599,38.4599,0,0,1-8.9951-6.1787c-3.9795-3.8394-6.9287-8.479-10.417-12.6953-1.6865-2.0396-3.4824-3.9893-5.1914-6.0108-.8799-1.0405-1.7177-2.1225-2.5049-3.2358-1.1533-1.6299-1.5009-1.7432-3.3935-1.1621a7.82762,7.82762,0,0,1-1.8389.1118,2.30112,2.30112,0,0,0-.916.0742c-3.9482,2.1709-7.0381,4.9033-8.0244,9.7027-.874,4.2421-.1094,8.2968.3906,12.4179.3086,2.5474.6944,5.0855,1.0762,7.6226.2129,1.4082.4912,2.8071.7793,4.4311,1.0361-.3007,1.7549-.4716,2.4492-.7163a30.96116,30.96116,0,0,1,13.6621-1.6928c2.7012.2836,5.3223.457,7.3633-1.8472.1279-.1455.4697-.1016.665-.1372.1953.1357.4522.2334.4522.3296-.001,1.9297,1.0703,3.313,2.3125,4.6093,2.7226,2.8453,5.4306,5.7056,8.1885,8.5157a22.11781,22.11781,0,0,0,2.3681,1.8169c6.5098-8.0513,14.0918-14.9551,19.3096-23.9078,1.2314.8453.5752,1.6446.1445,2.2637-1.6142,2.3169-3.1748,4.6895-4.9961,6.8374-4.2617,5.0274-8.7099,9.897-12.9853,14.9126-1.8789,2.2031-3.5205,4.6084-5.2383,6.8828-.7148-.9209-.7217-.9257.4639-2.7016.6601-.9888,1.3457-1.96,2.0078-2.9219-4.418-4.6997-8.7451-9.3018-13.2061-14.0464-2.2324,1.294-4.873.8467-7.4941.6113a24.87153,24.87153,0,0,0-9.4522.7959c.9746,1.3985,1.7002,2.625,2.6094,3.6953,1.0498,1.2339,2.2725,2.3204,3.4014,3.4893,3.7461,3.877,7.3554,7.8975,11.2597,11.6069,4.1563,3.9473,8.5469,7.6534,12.92,11.3643a19.384,19.384,0,0,0,7.4238,3.7197c.6875-.8677,1.4951-1.7519,2.1514-2.7368,3.7002-5.5508,7.665-10.9292,10.3925-17.0893,2.003-4.5215,4.2579-8.9327,6.462-13.3624a25.31856,25.31856,0,0,1,2.29-3.7041,4.6616,4.6616,0,0,1,1.7744-1.3671c5.7451-2.6163,10.1162-6.9668,14.375-11.4278.584-.6123.5928-1.7729.8691-2.6787-.1884-.1348-.3769-.2695-.5634-.4043-2.2764,1.6641-4.5547,3.3277-6.9248,5.0611-.6289-.9317.0048-1.4253.5703-1.8848,1.7246-1.4048,3.3926-2.9009,5.2334-4.1387,1.582-1.0644,1.8701-2.4624,1.8457-4.5058-4.0069.8198-6.6143,4.0146-10.6768,5.206.4219-.7134.5694-1.2871.9365-1.5356,2.6963-1.8203,5.4327-3.5801,8.167-5.3423a2.43675,2.43675,0,0,1,.9395-.3477c2.5723-.3735,2.9629-.9145,2.376-3.3657-.0586-.2451-.1426-.4824-.251-.8452-1.8193-.4068-3.5469.2558-5.1807.8188a33.02877,33.02877,0,0,0-4.7549,2.441c-2.165,1.1723-4.3173,2.3686-6.457,3.5449-.8496-1.062-.0644-1.354.4024-1.7969a17.97469,17.97469,0,0,0,2.2783-2.3101c2.5185-3.458,4.9531-6.978,7.4326-10.4643a4.51309,4.51309,0,0,0,1.2568-3.6968c-2.0556,1.7788-3.8867,3.2549-5.5957,4.8628-3.8623,3.6338-7.6279,7.3716-11.5049,10.9902a11.63658,11.63658,0,0,0-3.8281,8.8892,36.93242,36.93242,0,0,1-.4726,4.1216c-1.1768-.521-.8838-1.3911-.8291-2.0928.1728-2.2212.3222-4.4541.708-6.6431a5.31218,5.31218,0,0,1,1.3974-2.6132q6.1011-6.2433,12.3516-12.3394c4.5684-4.4375,3.7285-3.146,3.1807-9.6772-.3086-3.6944-.5577-3.6548,3.121-3.9527,4.0108-.3247,8.0186-.6894,12.0284-1.0346.4258-.0367.8545-.0816,1.2812-.0796,2.5518.0141,3.169.5605,3.3067,3.1567.1757,3.3354.3398,6.6743.3662,10.0127a9.20479,9.20479,0,0,0,1.2675,4.5893,54.79234,54.79234,0,0,1,4.086,8.8057c.7226,2.1382.3574,4.6255.9609,6.8252.8604,3.1431-.333,5.1924-2.6396,7.0733-1.8545,1.5112-3.4639,3.3251-5.3155,4.8403-2.7646,2.2607-3.6503,5.5322-4.8515,8.6177-2.1397,5.4961-4.1367,11.0468-6.2031,16.5708-2.5498,6.812-7.2872,11.9174-12.8252,16.3906-1.711,1.3804-2.3037,1.3266-3.9082-.249a13.70543,13.70543,0,0,1-4.4073-8.1919,35.9702,35.9702,0,0,0-1.0371-3.9702,16.80514,16.80514,0,0,1-.2099-7.1387,6.52167,6.52167,0,0,0-.2705-2.916c-4.6143,7.7705-8.8262,15.6709-14.6153,22.5913-3.6992-.4741-6.5517-2.4712-9.1445-4.6138a153.79077,153.79077,0,0,1-19.7051-18.7383c-3.0801-3.6279-6.8262-6.6889-10.6016-10.3247a15.41522,15.41522,0,0,0-.2636,2.1968c.2832,6.8476.664,13.6909.8652,20.5405a67.97772,67.97772,0,0,1-.4375,7.4165c-.1123,1.3872-.1699,1.3828,1.21,2.3804-.8135,1.2983-1.5948,1.4673-1.9766.3452a9.47469,9.47469,0,0,1-.291-3.248c.04-1.3619.4023-2.7207.374-4.0762-.1396-6.6792-.3066-13.3599-.5888-20.0347a57.67813,57.67813,0,0,0-.9307-6.1274c-1.2764.5625-2.2412.9873-3.5713,1.5722-.1836-.9516-.3877-1.7241-.4717-2.5087-.1367-1.2759-.0937-2.5767-.3037-3.8374-.6475-3.8775-1.8066-7.6797-1.5518-11.6841a6.66611,6.66611,0,0,0-.3349-2.0235c-1.3486-5.2006.4336-9.6074,3.5303-13.6318a10.96124,10.96124,0,0,1,2.3857-1.9194,13.022,13.022,0,0,0,2.1377-1.4038c2.0137-2.208,4.5127-1.9903,7.0781-1.6314a5.23935,5.23935,0,0,0,1.0039.0825,3.48666,3.48666,0,0,0,.7744-.2417c0-.2558.0948-.5581-.0136-.7275-2.3145-3.5928-3.4297-7.6499-4.376-11.731-2.3438-10.1123-2.8965-20.2734-.4189-30.4673.3447-1.415.5761-2.8559.8701-4.2827,1.2529-6.0634,4.3945-11.0766,8.5859-15.5185a3.2884,3.2884,0,0,1,2.4141-1.2144c2.7031-.1079,5.2509-.7212,7.2109-2.8061a11.11121,11.11121,0,0,1,.9912-.8184c2.5401-2.1333,5.1983-2.3911,8.3506-1.1767,5.8613,2.2578,10.5107,6.1865,14.6074,10.6572,2.0635,2.2505,3.0401,5.5014,4.4756,8.3169.3096.6054.4639,1.2886.7139,1.9258,1.7793,4.5385,3.6006,9.061,5.3398,13.6147a40.28017,40.28017,0,0,1,2.9571,13.9897c.0136,1.2769.2714,2.5499.3955,3.8267a8.88092,8.88092,0,0,1-2.3926,7.0674c-1.0703,1.1938-2.0576,2.4629-3.334,4.0005,2.5478.2817,4.6963.5229,6.8457.7554,2.0264.2187,2.9697,1.6137,3.7969,3.2558-.9737.6304-1.4522.0391-1.8252-.5015a4.26108,4.26108,0,0,0-3.3389-1.6386,7.8815,7.8815,0,0,0-1.0254-.0777c-2.5039.023-5.2021-.768-7.2148,1.4834-1.6299,1.8243-3.834,3.1802-4.669,5.6675a3.407,3.407,0,0,1-.5254.8379c-.8339,1.1567-1.666,2.3164-2.5185,3.4605C97.1328,104.9785,96.4951,105.7744,96.0635,106.332ZM61.543,98.1694c.8769,2.3433,2.3838,3.6441,3.6963,5.086,1.0361,1.1386,2.1884,2.1889,3.1093,3.4135,3.4932,4.6475,6.7666,9.4683,10.9737,13.5337,2.2197,2.1455,4.4824,4.2315,7.6308,4.9761a1.83523,1.83523,0,0,1,1.0157.6978c1.0478,1.5879,2.5478,1.3676,3.8935.7983a10.34289,10.34289,0,0,0,6.1484-6.4258c1.3145-3.8916.0264-7.209-1.8261-10.4829-.0586-.105-.2617-.1294-.3623-.1748-.1592.6182-.3194,1.2461-.5303,2.0669-1.4258-.8428-1.2705-1.9526-1.3281-2.9194-.2569-4.3521-.4424-8.7085-.6953-13.0606-.2676-4.5962.4843-8.7817,3.8857-12.2861a15.16426,15.16426,0,0,0,4.1777-9.4458c.2383-2.6387.7129-5.2549.9756-7.8916.1895-1.8862.1436-3.7173-1.5283-5.148a8.43683,8.43683,0,0,1-1.7734-2.5053,19.01722,19.01722,0,0,0-4.4893-5.0259c-1.8525.4331-3.4141.7998-5.2275,1.2241.7255-2.0332,2.583-1.7178,4.1474-2.6235-4.2158-2.1885-5.0732-6.7544-7.9375-9.7549a72.48522,72.48522,0,0,1-3.5293,7.0845,79.12659,79.12659,0,0,1-4.9746,6.4082c.1279.353.2852.789.5694,1.5786-3.4952.1274-5.2686,2.5156-7.1661,4.7348a2.7701,2.7701,0,0,1-.5478.5401c-1.1387.7373-1.1758,1.7622-.8516,2.9331.8711,3.1323,1.6094,6.3042,2.5996,9.3965a46.478,46.478,0,0,0,2.9102,7.3203c.8418,1.6157,2.2939,2.9077,3.4394,4.3721,1.0674,1.3667,2.1289,2.6635,4.0372,2.9218.3837.0523.6796.7564,1.0156,1.1597-.4795.2285-1.0332.7368-1.4239.6333a31.97582,31.97582,0,0,1-3.6552-1.4634c.8388,1.9146,1.3095,3.6861,2.3095,5.0762a31.83826,31.83826,0,0,0,4.1182,4.0068c-.7832.961-.5234,1.8848.5176,2.6953a2.47474,2.47474,0,0,1,.7236,1.0122c.5244,1.3365,1.0108,2.688,1.4688,4.0484a15.31348,15.31348,0,0,1,.7646,2.7114c.1602,1.1226-.5097,1.6123-1.5547,1.1421a23.73142,23.73142,0,0,1-3.1357-1.73,50.06,50.06,0,0,0-9.9531-5.2651c-3.3633-1.2324-6.7588-2.4497-9.5909-4.7979C63.1689,98.3911,62.4473,98.4067,61.543,98.1694Zm74.2373-1.8613a8.78318,8.78318,0,0,0,1.5888,6.3691c2.0108,2.7652,2.7862,6.0435,3.9561,9.1519a7.09287,7.09287,0,0,1-.9492,5.5024,41.85963,41.85963,0,0,0-.6631-6.0156,32.067,32.067,0,0,0-2.3379-5.9678c-.8691-1.7993-1.9971-3.4736-3.0811-5.3252a2.96323,2.96323,0,0,0-.2978,3.0801,12.32865,12.32865,0,0,1,.5527,2.1924c.6934,3.6943,1.3936,7.3877,2.0342,11.0913a4.17227,4.17227,0,0,1-.7197,3.8115c-.5059-2.6118-.9287-4.8476-1.375-7.0786-.4463-2.2339-.1621-4.6523-1.6065-6.6909a9.26447,9.26447,0,0,0-.9658,3.2173c-.2422,3.0728-.2881,6.1626-.5732,9.2305a18.20349,18.20349,0,0,1-1.0205,3.9238c-.1055.3179-.6407.4946-1.3086.9731.3642-1.8281.6386-3.2133.915-4.5986q-.34275-.08205-.6875-.1636a19.32513,19.32513,0,0,0-2.293,7.2022c-.0214.2768.2637.6167.4776.8667a1.30866,1.30866,0,0,1-.2305,2.0205c-4.0342,3.8252-6.709,8.6377-9.623,13.271-1.1368,1.8056-2.1065,3.7153-3.2256,5.5317-.3594.5811-.7891,1.4507-2.0039.5625.498-.6836.9883-1.3432,1.4658-2.0117.4922-.689,1.0195-1.3584,1.4463-2.0864a55.695,55.695,0,0,1,3.3476-5.7564c1.8379-2.4092,3.0079-4.8764,2.544-7.9756-.1817-1.2197-.167-2.4682-.2627-4.0371-3.9942,1.9927-7.5928,3.6416-9.1465,7.8731-.8809,2.3974-2.1973,4.6323-3.2129,6.9858-.3223.75-.7158,1.9136-.376,2.4282,1.4942,2.2735.8536,4.5201.3741,6.8331a4.39842,4.39842,0,0,0,.0761,1.789c.7198,3.2529,1.3125,6.5488,2.2959,9.7217a9.232,9.232,0,0,0,4.2159,4.9692,10.68231,10.68231,0,0,0,1.2246-.6064c.4257-.2837.7929-.6528,1.2011-.9634,7.4209-5.6387,11.3594-13.5244,14.3526-22.0576,1.8672-5.3223,3.8867-10.5908,5.8818-15.8672a4.43533,4.43533,0,0,1,1.1289-1.6299c2.084-1.9004,4.2695-3.6904,6.3252-5.6196,1.7588-1.6499,3.334-3.4209,2.2442-6.189a6.76775,6.76775,0,0,1-.1954-2.2949,19.87361,19.87361,0,0,0-3.1689-10.4429c-1.3613-2.166-2.7695-4.3022-4.1807-6.437a3.11535,3.11535,0,0,0-.7461-.5649c-.1103,1.0947-.2002,1.9946-.291,2.9101,2.0088,2.9434,4.0586,5.8985,6.0449,8.8951a4.52379,4.52379,0,0,1,.8457,2.1088c.1299,2.6289.1094,5.2652.1221,7.899,0,.0683-.2744.1386-.7041.3427a14.81308,14.81308,0,0,1-.3574-1.8999c-.0801-1.3667.0215-2.7519-.1484-4.1049a8.36323,8.36323,0,0,0-.918-3.4239c-2.1416-3.2993-4.4766-6.4731-6.7578-9.6811A13.10526,13.10526,0,0,0,135.7803,96.3081Zm5.1679-2.7305c0-3.1464.0938-6.1401-.0332-9.125-.082-1.915-.7089-2.3266-2.6416-2.2866-1.0244.0205-2.0488.0557-3.0713.1138-3.8193.2158-7.6904.0181-11.6982,1.3467.2109,2.2226.416,4.3784.6494,6.8364,1.0879-.3892,1.7715-.6895,2.4834-.8779,1.6006-.4229,2.6055.5278,2.0567,2.0927a7.991,7.991,0,0,1-1.7959,3.0577c-2.0342,1.9707-1.3604,4.2827-1.462,6.643,2.4581-.4878,4.6211-.917,6.8272-1.3545.7285-1.2402,1.498-2.5205,2.2344-3.8193.3281-.5806.4472-1.4131.9267-1.7378.4395-.2969,1.2373-.063,1.8545-.063.3545-.7905.6914-1.5464,1.1446-2.5576C139.3428,92.4775,140.0752,92.979,140.9482,93.5776Zm-18.3593,38.6846c1.2968-1.5102,2.7207-2.666,3.0322-4.457a45.77506,45.77506,0,0,0,.3262-5.4429C121.4834,125.5947,121.6318,126.5859,122.5889,132.2622Zm-2.3926-28.2764c.165.1407.331.2808.4961.4209,1.1543-.6743,2.3086-1.3501,3.5527-2.0776a15.671,15.671,0,0,0-.1894-4.2017C122.541,100.4258,121.3682,102.2061,120.1963,103.9858Z"/><path class="b" d="M98.1191,70.3325c-.6474,3.5132-1.9384,5.5947-4.8359,6.416-1.3916.3946-2.7666.856-4.1396,1.3169-2.2676.7627-4.3526.6831-6.1387-1.1582a12.25033,12.25033,0,0,0-1.5713-1.1445,7.43168,7.43168,0,0,1,1.4023-.8398C87.7549,73.4243,92.6846,71.9585,98.1191,70.3325Zm-13.374,5.6099v.7055c.6299.169,1.335.6099,1.877.4605,2.6914-.7451,5.3584-1.5957,7.9931-2.5239.7315-.2574,1.045-1.0117.8164-2.0479C91.7627,73.7056,88.2529,74.8242,84.7451,75.9424Z"/><path class="b" d="M73.7783,64.1602a5.8943,5.8943,0,0,1,8.3946-2.7115c-1.6856.3452-3.0313.5064-4.3008.9112A44.109,44.109,0,0,0,73.7783,64.1602Z"/><path class="b" d="M92.0752,59.2432c1.2061-2.1695,2.251-2.4786,5.1836-1.7095C96.3623,59.0566,95.8613,59.2305,92.0752,59.2432Z"/><path class="b" d="M129.8037,85.1235c-.4883.5459-.8408.9419-1.1933,1.3369-.3233-.3002-.9668-.7192-.9083-.8793a2.95685,2.95685,0,0,1,1-1.211C128.7891,84.3032,129.2773,84.7549,129.8037,85.1235Z"/><path class="b" d="M80.9482,239.2764c-.3125,1.5693-.9394,2.6474-2.7519,2.2304a1.41886,1.41886,0,0,0-1.1377.6338,1.75908,1.75908,0,0,1-2.1934.8994,4.69208,4.69208,0,0,0-2.3545.1485c-2.7138.9219-5.4423,1.8408-8.0576,3.0029a36.62647,36.62647,0,0,0-4.622,2.9482,3.98255,3.98255,0,0,1-.8438-1.208c-.334-1.1679-.4687-2.3906.5635-3.3505.7363-.6856.8076-1.8262,2.3349-2.0411a6.9883,6.9883,0,0,0,3.5625-1.7783c1.0372-.9619,2.8047-1.1445,4.2637-1.6328.1836-.0615.6035.2188.6465.1553,1.2812-1.8447,3.6006-1.7285,5.2461-2.8154,1.416-.9366,1.5264-3.0342.3828-4.7276a6.54527,6.54527,0,0,1-.3125-7.4053c.3486-.6201.5967-1.2968.9453-2.0683-.7109-1.1914-1.414-2.4405-2.1846-3.6455a3.404,3.404,0,0,1-.2255-3.5557c3.1875-7.5166,7.9492-14.0078,13.0185-20.2881,2.6563-3.292,5.4619-6.4853,8.4219-9.5039a40.57856,40.57856,0,0,1,13.4326-9.4629,10.05984,10.05984,0,0,1,3.2139-.5,25.57974,25.57974,0,0,1,9.2217,1.1045,3.793,3.793,0,0,1,2.2441,1.5488c3.1836,4.6495,2.9609,2.9073,1.0811,8.6182a3.33012,3.33012,0,0,0-.2178,1.7471c.9424-1.2822,1.8965-2.5547,2.8242-3.8467,2.3789-3.3096,4.7773-6.6055,7.0996-9.9541a2.82361,2.82361,0,0,1,3.2041-1.3027c5.4531.8076,10.9424,1.3652,16.4141,2.0478,3.9638.4951,7.917,1.0781,11.8818,1.5508,7.54.8994,15.0957,1.6777,22.626,2.6465,4.3564.5596,8.6758,1.3994,13.0146,2.0937a17.5971,17.5971,0,0,0,2.586.252,1.41807,1.41807,0,0,1,1.6259,1.2275c-2.665.5908-3.79,2.7119-4.9912,4.7783-1.4052,2.4161-2.8769,4.794-4.2666,7.2188-.5068.8828-.8623,1.8506-1.3086,2.8262,6.2549,1.916,12.7334,2.2685,18.8457,5.0293-.207,7.9824-.2744,15.9589-.6601,23.9209-.3819,7.8818-1.083,15.749-1.6436,23.6054-2.4121,1.4405-4.8437,2.7959-7.1758,4.3047-3.6181,2.3408-7.1152,4.8711-10.7636,7.1631-4.0557,2.5479-8.2061,4.9473-12.3623,7.3301a2.88877,2.88877,0,0,1-2.003.1162c-2.9179-.8164-5.789-1.7949-8.707-2.6113-5.1523-1.4405-10.416-2.5411-15.4717-4.2588-9.705-3.2989-19.7939-5.166-29.5478-8.2364-4.7227-1.4863-9.3477-3.2793-14.0537-4.8232-6.9834-2.292-14.0069-4.4619-20.9981-6.7324C87.6064,241.6406,84.4561,240.4922,80.9482,239.2764Zm121.8409-56.2725c-4.0303-.7344-7.5381-1.5146-11.086-1.9883-5.541-.7392-11.1172-1.207-16.665-1.9023q-18.3135-2.29545-36.6133-4.7178a3.17124,3.17124,0,0,0-3.1992,1.1152c-.4453.5645-.9375,1.0957-1.3467,1.6846-3.458,4.9922-6.9209,9.9815-10.3369,15.0029-.791,1.1622-1.4082,2.4424-2.2383,3.9024,1.542.4844,2.8076.9433,4.1055,1.2793,8.6562,2.2402,17.3252,4.4336,25.9785,6.6875,4.0166,1.0459,8.0029,2.208,12.0098,3.291,5.3173,1.4385,10.6269,2.9092,15.9697,4.252,2.6035.6542,5.2724,1.0507,8.0674,1.5937C191.6924,202.6455,195.7744,192.3242,202.7891,183.0039Zm-84.5078,13.1377c-3.7764,2.9131-7.3721,5.6563-10.9268,8.4522a21.54605,21.54605,0,0,0-2.4014,2.331,61.74736,61.74736,0,0,0-7.6357,10.1172,19.95624,19.95624,0,0,0-2.6778,6.0684c-.4218,1.9482-.0253,2.541,1.9659,3.0664,1.6181.4277,3.3037.6318,4.8847,1.1572,3.8614,1.2822,7.6602,2.751,11.5196,4.0381,4.6953,1.5674,9.4091,3.0859,14.1474,4.5185,6.8789,2.0811,13.75,4.2041,20.6934,6.0518,6.0137,1.6015,12.124,2.8418,18.1894,4.248,1.1407.2647,2.2735.5576,3.4414.8457,3.3907-5.4941,6.5391-10.8965,9.9883-16.0996,3.5176-5.3037,7.3311-10.4111,11.1729-15.8261-1.2383-.2002-2.1709-.292-3.0752-.5069-4.2617-1.0127-8.5225-2.0283-12.7695-3.1006q-7.7637-1.9599-15.503-4.0185c-2.1543-.5713-4.2646-1.3155-6.4248-1.8604-3.8633-.9756-7.7617-1.8125-11.625-2.7929-4.5508-1.1543-9.0791-2.3956-13.6152-3.6084-2.3086-.6172-4.6201-1.2286-6.9141-1.8975a13.05311,13.05311,0,0,1-1.8945-.9082c2.1182-1.9297,2.2119-2.0996,2.1855-4.124-3.3613,2.1201-6.9941,3.4775-9.6992,6.2773a2.66375,2.66375,0,0,1-2.9375.9385c-1.7949-.5381-3.5859-1.0879-5.5273-1.6777a68.94343,68.94343,0,0,0-7.792,10.9306,2.54161,2.54161,0,0,0-.2393,1.9707,44.85585,44.85585,0,0,0,2.1797,4.1709,11.84449,11.84449,0,0,0,1.1123-1.2539,60.41684,60.41684,0,0,1,12.585-13.7246,61.882,61.882,0,0,1,5.2275-3.7969C116.585,195.6738,117.4004,195.0889,118.2813,196.1416Zm94.4921,8.9238a5.085,5.085,0,0,0-.8398.251,7.24746,7.24746,0,0,0-.7734.5606,128.813,128.813,0,0,0-20.9805,21.9013c-4.6514,6.1797-9.252,12.4033-13.6504,18.7637-1.8652,2.6963-3.874,5.3184-4.7031,8.7314a9.61559,9.61559,0,0,0,2.3916,9.4336,13.30714,13.30714,0,0,0,4.5918,2.8887,3.353,3.353,0,0,0,3.5429-.0791c2.6817-1.5801,5.4707-2.9873,8.0957-4.6514,6.1289-3.8847,12.1758-7.8994,18.2862-11.8134a3.948,3.948,0,0,0,1.9424-3.1084q.38085-3.92145.666-7.8526c.4004-5.4883.8613-10.9746,1.1289-16.4707.2646-5.4199.3281-10.8515.4599-16.2773C212.9482,206.6533,212.8389,205.9609,212.7734,205.0654ZM81.0557,237.5029l-.3516.4278c30.2949,10.8066,60.9551,20.4082,92.3623,27.8183a13.25958,13.25958,0,0,1-2.7842-10.1142c-31.1562-8.1016-61.7734-17.2237-91.6513-28.5264-1.3145,2.2236-1.377,3.0332-.3838,4.8838.5293.9844,1.1875,1.8994,1.6992,2.8906C80.3809,235.7227,80.6904,236.627,81.0557,237.5029Zm27.9394-38.9687c1.2051-.9317,2.1524-1.8028,3.2266-2.4688,2.7138-1.6826,5.4883-3.2666,8.2295-4.9052.4619-.2764,1.0937-.5313,1.2842-.9581,1.0429-2.3261,2.0683-4.6708,2.8789-7.083a3.45168,3.45168,0,0,0-.4688-2.4336,7.4524,7.4524,0,0,0-5.1309-3.8427,18.61134,18.61134,0,0,0-10.1503.2695c-2.7139.9307-5.1651,2.793-7.5381,4.5117-3.7657,2.7266-6.7949,6.2481-9.8545,9.7256a130.99151,130.99151,0,0,0-12.8506,17.5547c-.9404,1.5137-1.624,3.1865-2.4805,4.8965,6.4229.3789,6.4229.3789,6.876,1.4736q-3.561-.17-7.0234-.332c-1.3965,2.291-.9786,3.6045,1.9023,6.1904,1.2647-.2666,2.416-1.874,3.9297-.1943-.6621.7236-1.2764,1.3935-2.1406,2.3379,3.3857.6386,6.4912,1.2246,9.7011,1.83,1.8536-2.5546,3.5567-5.0429,5.4141-7.4101a3.018,3.018,0,0,0,.2861-3.7305c-.7138-1.2158-1.5595-2.3554-2.4589-3.6933.6425-1.0254,1.3525-2.1661,2.0693-3.3018a72.0955,72.0955,0,0,1,10.6211-13.5449,26.02552,26.02552,0,0,1,2.4883-1.8545A9.4593,9.4593,0,0,0,108.9951,198.5342ZM78.1143,224.4639c-.1006.207-.2002.415-.3008.623.2705.3223.4775.8135.8203.9424,2.2383.8398,4.5058,1.5986,6.7637,2.3887,7.8379,2.7451,15.664,5.5273,23.5175,8.2275,5.0596,1.7393,10.127,3.4697,15.2481,5.0117,7.874,2.3701,15.8262,4.4815,23.6914,6.8799,5.7324,1.7481,11.4414,3.5488,17.3242,4.7315,1.709.3437,3.4307.6289,5.1318.9384,1.7706-2.8496,3.3184-5.6533,5.1641-8.2441,4.2627-5.9863,8.7442-11.8174,13.001-17.8076,5.8301-8.2032,13.0029-15.1328,20.3672-21.8936.9795-.8994,2.0576-1.6904,3.3545-2.748-.9971-.3369-1.7022-.5752-2.4219-.8174a4.81535,4.81535,0,0,1-.5186,1.2178,33.77507,33.77507,0,0,1-2.5879,2.7246,1.64553,1.64553,0,0,1-1.2929.3574,28.269,28.269,0,0,1-2.9102-1.0244c.9824-2.6377,2.8028-3.4932,5.1953-3.7071a72.41725,72.41725,0,0,0-13.2011-2.7519c-.8028,1.9824-1.5664,3.8682-2.3614,5.8301,2.3106.4385,4.4532.8447,6.6836,1.2666-.2119,1.3623-.4804,2.3027-1.5634,3.0068a9.91454,9.91454,0,0,0-2.377,2.3262c-3.7705,4.9609-7.5772,9.8974-11.1953,14.9687a139.967,139.967,0,0,0-10.376,16.3838c-.9443,1.8096-2.0195,3.5518-3.0547,5.3584-.7422-.2158-1.2744-.3535-1.7949-.5244-2.1934-.7226-4.3516-1.584-6.585-2.1504-2.622-.666-5.333-.9785-7.9619-1.6211-6.2812-1.5361-12.6396-2.8623-18.7812-4.8476-9.2627-2.9942-18.711-5.4375-27.7461-9.1348a50.02074,50.02074,0,0,0-10.583-2.9687c-3.1407-.5362-4.0254-1.7686-3.7295-4.5967-1.3633,1.0107-1.543,3.334-3.4004,3.4238a23.0136,23.0136,0,0,1-4.9531-.7969c-.1563-.0273-.3057-.1035-.4629-.125Q81.1665,224.88235,78.1143,224.4639Zm114.288-11.6543c1.0791-1.3711,2.212-2.8125,3.5127-4.4649-1.5429-.708-2.8154-1.291-4.248-1.9482-.4883,1.0869-.9268,2.0635-1.3652,3.039.166-.0078.332-.0166.498-.0244C191.3008,210.4717,191.8008,211.5322,192.4023,212.8096Zm-85.3759-14.9512c-.3145-1.4072-.5176-2.3174-.7578-3.3955-.9698.7685-1.6641,1.3184-2.6514,2.1006C104.917,197.0576,105.6963,197.3535,107.0264,197.8584Zm99.4062,5.9922c-.6269.2265-1.2539.4531-2.2656.8193C205.6426,205.6777,206.2754,205.3662,206.4326,203.8506ZM68.0889,243.3584q.3369-.0732.6748-.1465-.2886-.75735-.5782-1.5156l-.4804.1582Q67.897,242.606,68.0889,243.3584Zm5.6562-4.1777c-.1875.0078-.376.0146-.5644.0214q.02775.6036.0547,1.2061h.3808Q73.6807,239.7944,73.7451,239.1807Zm-9.8222,4.4765q-.2754.01755-.5499.0352c.0401.3555.0684.7129.1436,1.0615a4.88035,4.88035,0,0,0,.5801-.0596Q64.0103,244.17575,63.9229,243.6572Z"/><path class="b" d="M159.4824,212.2715a73.92565,73.92565,0,0,1-5.25,8.3965c-8.2744-2.5576-16.3711-5.0596-24.4609-7.5606a20.84571,20.84571,0,0,1,4.1367-6.5107,1.99728,1.99728,0,0,1,2.001-.2119c4.4678,1.1845,8.9394,2.3584,13.4316,3.4443,2.3145.5605,4.6817.8975,7.0088,1.4092C157.3252,211.4531,158.2588,211.8604,159.4824,212.2715Zm-6.333,2.0371a10.0566,10.0566,0,0,0-1.8135-.5693,27.58209,27.58209,0,0,1-8.2138-2.334,47.277,47.277,0,0,0-5.9239-1.7686c-1.1543-.3213-1.8144.166-2.0214,1.3584,5.455,1.8418,10.8574,3.6651,16.414,5.541C152.0928,215.8193,152.5703,215.1367,153.1494,214.3086Zm4.3672-1.0772c-4.0586-1.7988-8.2266-1.9746-12.2949-2.6152a16.10172,16.10172,0,0,0,7.4922,2.0225c.7353.0625,1.459.2695,2.6484.498-1.2148,1.9072-2.1816,3.4238-3.2139,5.043.5704.2217,1.0674.415,1.708.6641C155.0635,216.9932,156.2275,215.209,157.5166,213.2314Zm-26.168-.9736c6.0596,1.8174,11.6602,3.4961,17.2608,5.1748-.0889-.4697-.2725-.6445-.4893-.7168q-6.4746-2.1372-12.959-4.248c-1.6699-.541-1.9834-1.3438-.8769-2.7647a18.13483,18.13483,0,0,1,2.1113-1.9326c-.7021,0-1.4512-.2119-1.6641.0352C133.6201,209.1035,132.6436,210.5176,131.3486,212.2578Z"/><path class="b" d="M96.8447,223.7734a2.7262,2.7262,0,0,1,.0957-.7802,84.0958,84.0958,0,0,1,9.4131-15.8243c.9932-1.2626,2.0713-1.998,3.8858-1.4951,3.5341.9785,7.1386,1.6983,10.7031,2.5723a7.72062,7.72062,0,0,1,1.9746.8516c1.9258,1.1162,2.0508,1.8623.9014,3.8447-2.6827,4.6269-5.3526,9.2617-7.9717,13.9238-.5947,1.0586-1.1768,1.8936-2.5625,1.6358-5.3457-.9952-10.7031-1.9375-15.71-4.1954A4.23654,4.23654,0,0,1,96.8447,223.7734Zm1.3213-.5361a51.71615,51.71615,0,0,0,15.9082,3.9531c2.5362-4.3056,4.8828-8.2793,7.2158-12.2607.4424-.7549.8125-1.5518,1.2442-2.3135a1.701,1.701,0,0,0-.6953-2.6172,6.70791,6.70791,0,0,0-1.7041-.8291c-3.3301-.7881-6.6787-1.4922-10.0118-2.2695a2.41013,2.41013,0,0,0-2.6943.8984C103.5303,212.3203,100.8838,217.5635,98.166,223.2373Z"/><path class="b" d="M163.9443,213.5586c2.0371.5791,4.3985.1299,4.7539,3.166,1.2315-1.1601,2.5157-.9297,3.8067-.3408a2.25321,2.25321,0,0,1,.6152,3.873,1.3754,1.3754,0,0,1-1.0703.333c-1.2344-.3252-2.7051-.4658-3.5781-1.246a4.196,4.196,0,0,0-2.6406-.9434,24.5865,24.5865,0,0,1-3.9258-1.2744C162.7197,215.7021,163.3193,214.6523,163.9443,213.5586Z"/><path class="b" d="M141.4951,221.6631c.0098,1.9726-2.3623,5.25-4.2822,5.918-1.2305.4277-5.1006-.628-6-1.6368a4.81164,4.81164,0,0,1-.2207-5.1757c.9814-1.7471,4.7881-3.629,6.7558-3.3418A4.188,4.188,0,0,1,141.4951,221.6631Zm-4.4765-2.5762q-.19635-.23-.3926-.4599a32.3282,32.3282,0,0,0-3.1621,1.4707,4.17958,4.17958,0,0,0-1.9112,3.6533,1.64819,1.64819,0,0,0,1.3418,1.9414c.6905.1806,1.3448.498,2.0186.7441a3.092,3.092,0,0,0,3.0967-.748c.9267-.7041.1396-1.4141.1123-2.127-.0078-.2041.1855-.416.3213-.6972h1.54c.4092-1.5782.1582-2.7735-1.3135-3.583-.6845.5205-.6474,2.1845-2.2187,1.373C136.6592,220.082,136.8389,219.585,137.0186,219.0869Z"/><path class="b" d="M166.5264,224.5381c.8632.7705,1.292,1.1523,1.9043,1.6992-.625.8965-1.0586,2.1133-1.9102,2.5996-1.4062.8027-2.8476.0713-4.3262-.6709.3057-.6357.4688-1.0713.709-1.459.9844-1.5869,2.1192-3.0654,2.9707-4.7539.8428-1.6728,1.335-1.75,3.0879-1.1758.7988.2618,1.5586.6397,2.4932,1.0303-.7197,1.2764-1.2959,2.3008-1.9463,3.4561C168.6943,225.0654,167.8994,224.8721,166.5264,224.5381Z"/><path class="b" d="M161.9248,224.0127c-1.4814,2.7021-2.8662,5.2285-4.3125,7.8672a21.09027,21.09027,0,0,1-2.8037-.2637,1.4812,1.4812,0,0,1-.9971-2.5019,20.40882,20.40882,0,0,1,2.4649-2.3555,3.85207,3.85207,0,0,1,1.7461-3.4346C159.125,222.7031,160.4834,223.1553,161.9248,224.0127Z"/><path class="b" d="M110.3789,204.6338c2.6533-3.9297,4.3106-4.5684,9.5166-1.374-.2256,2.6435-.459,2.8584-2.9892,2.4746C114.8193,205.418,112.7412,205.0342,110.3789,204.6338Zm8.2275.2725c-.7304-2.1983-1.0585-2.3272-3.1064-1.626C116.4463,203.7754,117.2998,204.2227,118.6064,204.9063Z"/><path class="b" d="M171.1543,225.5371a13.33948,13.33948,0,0,1,.4678-1.3174,3.26221,3.26221,0,0,1,5.2422-1.2041,1.45743,1.45743,0,0,1,.5234.9834,2.69114,2.69114,0,0,1-3.1787,2.4785C173.2451,226.251,172.3105,225.8984,171.1543,225.5371Z"/><path class="b" d="M170.1592,235.4736c-1.5488-.2216-3.0205-.4316-4.6778-.6689a14.05541,14.05541,0,0,1,.4239-1.8936c.8125-2.1465,1.4414-2.416,3.6113-1.6445,2.0391.7246,2.1582.9658,1.3477,2.9141A14.15273,14.15273,0,0,1,170.1592,235.4736Z"/><path class="b" d="M176.6543,217.7607a16.16676,16.16676,0,0,1,1.9619.6387c.877.3926,1.7979.8652,1.3438,2.1192a2.38111,2.38111,0,0,1-2.8868,1.3496,5.42469,5.42469,0,0,0-1.3291-.4883c-1.1689-.0166-1.8505-.4717-1.7334-1.6875A2.444,2.444,0,0,1,176.6543,217.7607Z"/><path class="b" d="M145.1064,222.7236c1.5674.5039,3.0489.8653,4.4278,1.461a1.51852,1.51852,0,0,1-.125,2.6992c-1.336.8223-5.5459.1084-6.5-1.1025a1.41958,1.41958,0,0,1,.3037-2.253A12.49144,12.49144,0,0,1,145.1064,222.7236Zm-1.7753,2.3301c2.0449.7402,3.5546,1.5225,5.2255.3057C147.0029,225.0127,145.5879,223.5947,143.3311,225.0537Z"/><path class="b" d="M163.0586,234.0908c-1.3369-.5351-2.4854-.9941-3.8565-1.5429.7413-1.2627,1.4043-2.3926,2.1504-3.6641,1.0586.2783,1.9776.458,2.8516.7666.9141.3232,1.2383.9717.6455,1.8584C164.2832,232.3564,163.6885,233.1865,163.0586,234.0908Z"/><path class="b" d="M172.8311,231.0371c-1.129-.2334-2.1397-.3965-3.1231-.6592-.9961-.2656-1.1484-.9463-.7842-1.8554.7178-1.7891,1.6201-2.2422,3.5479-1.6641.6601.1973,1.292.4922,2.2236.8535C174.0488,228.8652,173.5244,229.8008,172.8311,231.0371Z"/><path class="b" d="M127.8857,222.5605c-1.7119-.788-3.3886-1.496-4.9804-2.3593-.2598-.1407-.3731-1.1162-.1573-1.4463.3985-.6094,1.2256-1.544,1.6377-1.4365a31.84057,31.84057,0,0,1,5.544,2.0429,1.09923,1.09923,0,0,1,.0723,1.8545A16.21033,16.21033,0,0,1,127.8857,222.5605Zm.9981-2.2568c-2.9219-2.0039-3.8994-2.1474-4.9004-.8164C126.7969,221.3398,127.2744,221.4346,128.8838,220.3037Z"/><path class="b" d="M154.6377,236.8115c.4746-.7607.8887-1.4258,1.2988-2.082a7.018,7.018,0,0,1,5.4278,1.3555c-.0694,1.7285-.7247,2.7558-1.959,3.1035C158.1768,239.5342,155.8096,238.4082,154.6377,236.8115Zm5.2676.1485c-2.1992-1.4668-2.1992-1.4668-3.3946.3623C158.6104,238.3975,158.6104,238.3975,159.9053,236.96Z"/><path class="b" d="M159.2314,221.7695c.7403-2.9336,1.8321-3.6279,4.1993-2.9365.9775.2852,1.2812.8545.9082,1.7666-.2071.5059-.5118.9727-.7676,1.46a1.55645,1.55645,0,0,1-2.3594.7441C160.5879,222.4834,159.9678,222.1543,159.2314,221.7695Z"/><path class="b" d="M128.9033,227.7617c1.9658-.5254,3.5879.3789,5.125,1.3076a1.552,1.552,0,0,1-.5,2.6787c-1.4844.543-2.5752-.3593-3.6914-1.1376C128.8301,229.9072,128.2393,229.1006,128.9033,227.7617Zm4.5459,2.7276c-1.9541-1.4414-1.9541-1.4414-3.4219-1.2217C131.5752,230.7842,131.5752,230.7842,133.4492,230.4893Z"/><path class="b" d="M150.3369,235.2783c.6035-1.0488,1.5176-1.4228,2.5186-.7197.7549.5303.3545,1.2803-.2354,1.793C151.8545,237.0195,151.3965,236.7979,150.3369,235.2783Z"/><path class="b" d="M162.8486,236.7295c.4414.96.8965,1.4844.7813,1.8066-.1797.5078-.7432.8789-1.1445,1.3086-.3301-.374-.9825-.8115-.9239-1.1064C161.6748,238.1748,162.1943,237.6924,162.8486,236.7295Z"/><path class="b" d="M87.7363,215.1719c-.9619-.8623-.3418-1.4893-.0732-2.0889a63.56687,63.56687,0,0,1,8.7764-14.2197,93.886,93.886,0,0,1,15.7919-15.3184c1.4571-1.1133,2.9961-2.122,4.5372-3.1172a10.056,10.056,0,0,1,2.0214-.6425c-.5195.707-.6562,1.0791-.916,1.2197-6.2226,3.3418-11.0273,8.3789-15.957,13.2715a67.46853,67.46853,0,0,0-12.1465,17.1045c-.4394.8457-.668,1.7988-1.085,2.6582A5.94179,5.94179,0,0,1,87.7363,215.1719Z"/><path class="b" d="M88.9961,221.667c-.6475-1.46-2.0068-2.5684-1.0527-4.3916a9.7023,9.7023,0,0,1,1.5185,3.6943C89.5137,221.1357,89.1611,221.4307,88.9961,221.667Z"/><path class="b" d="M193.6699,209.1846q-.45255-.50685-.9072-1.0117a5.46308,5.46308,0,0,1,.6504-.4219,10.56154,10.56154,0,0,1,.7422,1.0644Q193.91215,209,193.6699,209.1846Z"/><path class="b" d="M104.8486,219.9521a28.27038,28.27038,0,0,1,6.7569,1.6592c.1748.0528.2353.4815.584,1.2578-2.8233-.7968-5.1788-1.4619-7.5352-2.1269C104.7188,220.4785,104.7842,220.2158,104.8486,219.9521Z"/><path class="b" d="M106.8311,216.0713c2.7324-.2129,5.1923.9043,8.1484,1.7617-1.8145,1.4316-2.9961.0361-4.2383-.1113a39.55074,39.55074,0,0,1-4.0781-.8985C106.7178,216.5732,106.7744,216.3223,106.8311,216.0713Z"/><path class="b" d="M114.04,210.7227c-2.2109-.5088-4.2666-.6055-5.8711,1.5117-.3154-.4698-.6738-.8369-.6093-.9365a7.08073,7.08073,0,0,1,1.5488-2.0313C109.8838,208.7061,113.0752,209.6367,114.04,210.7227Z"/><path class="b" d="M115.1689,214.6465c-2.457-.4756-4.3789-.8467-6.7031-1.2959C110.667,212.2676,113.8838,212.8232,115.1689,214.6465Z"/><path class="b" d="M134.6748,225.7793c-.2773-.4385-.6133-.7656-.5478-.9082a1.58137,1.58137,0,0,1,.7685-.7275c.1348-.0567.4414.2919.6699.456C135.3096,224.9385,135.0537,225.2773,134.6748,225.7793Z"/></svg>