<svg xmlns="http://www.w3.org/2000/svg" viewBox="0 0 300 300"><defs><style>.a{fill:none;}.b{fill-rule:evenodd;}</style></defs><title>gl_nav23</title><rect class="a" x="-0.33692" y="-0.57367" width="299.33692" height="299.33584"/><path class="b" d="M101.24948,197.0549c-.50917-.38639-1.01642-.77278-1.45719-1.1067.293-1.56053.56524-3.011.90235-4.808-6.61737.19766-13.03453,1.23947-19.5787.33977.29917-1.75192,1.37582-1.37021,2.27148-1.379,3.80282-.03834,7.60416-.07106,11.40454-.14827a22.51031,22.51031,0,0,0,2.50271-.3164c.15666-.46573.24843-.77533.36462-1.07452,2.06248-5.36856,1.29543-10.52342-.48495-15.88943-2.53278-7.62912-4.44072-15.4646-6.63808-23.2063a24.33434,24.33434,0,0,0-.9749-2.35286,50.01432,50.01432,0,0,0-5.41263,12.02841c-2.32907,6.89691-4.6457,13.79786-7.09606,20.65165a12.69367,12.69367,0,0,0,.14477,8.00563,28.99141,28.99141,0,0,0,2.26523,5.756c1.04234,1.94522.55377,4.62117,2.84237,5.96386.109.06426.06957.39988.08348.61092.20127,3.01464.22049,3.17226,2.95294,2.83834a5.08911,5.08911,0,0,1,5.27785,2.21382,66.732,66.732,0,0,0,5.26214,5.79648,9.447,9.447,0,0,1,2.71386,6.109c.20955,3.14008.74994,6.25689,1.07866,9.39187a3.85954,3.85954,0,0,1-.72392,2.71429,3.78654,3.78654,0,0,1-.50819-1.03565c-.49793-3.55238-1.072-7.10009-1.38828-10.66915a10.426,10.426,0,0,0-2.89176-6.40155c-1.85142-1.98834-3.74738-3.93569-5.59617-5.92658a2.8808,2.8808,0,0,0-2.94-.90756c-1.15385.238-2.33894.32883-3.40772.46987-3.47825-5.45363-1.84879-4.36137-8.38575-4.38315-4.19293-.01349-6.99176,2.5623-9.45613,5.72585a21.00488,21.00488,0,0,0,1.17042,2.3041,4.16187,4.16187,0,0,1,.35995,4.308,8.65517,8.65517,0,0,0-.16229,6.06922,54.5863,54.5863,0,0,1,1.62938,6.64169c.529,3.32116,2.68845,5.00862,5.6382,6.30777.07424-.39722.25989-.74527.15719-.93921a9.66617,9.66617,0,0,1-.89248-6.33517,26.57432,26.57432,0,0,0,.37545-4.87745,26.09135,26.09135,0,0,0-.71107-3.96628,5.19843,5.19843,0,0,1,1.40494.948c1.57136,2.22062,3.16238,4.43763,4.5585,6.76924a21.48081,21.48081,0,0,1,1.50031,3.89937c.7286,2.04644,1.36755,4.12857,2.17857,6.1407.34072.84437.77277,1.94533,2.11282,1.52007,1.13208-.36048,2.31706-2.61328,1.5651-3.46741-1.52984-1.73621-1.11138-3.90713-1.57647-5.81188A23.75752,23.75752,0,0,0,80.017,217.316a5.75939,5.75939,0,0,1-.89351-3.23131c2.06713,3.28941,5.087,5.94357,5.79433,10.03125a40.64935,40.64935,0,0,0,1.99811,6.874c1.00612,2.76675,1.35831,2.80881,4.473,1.18763.21263-4.82243-1.69946-9.24923-3.08366-13.78182-.44334-1.45411-1.04863-2.85851-1.56672-4.29138-.42152-1.16894-.38267-2.15733,1.26549-2.59087,2.70759,2.78066,5.04122,5.78649,5.16835,10.023a17.079,17.079,0,0,0,.57513,3.20539c1.00187,4.39781,1.01174,4.39675,4.91421,5.53244-2.22585,1.24414-3.18734,1.14823-5.58323-.55483-.07264,3.21113-1.40589,4.867-4.50346,4.8836a5.40511,5.40511,0,0,0-3.77034,1.27781,10.84982,10.84982,0,0,1-2.41765,1.14355,21.00789,21.00789,0,0,1-4.393-9.82234c-.53891-2.54934-2.00545-4.43551-3.82216-6.87758-.70427,3.49269-1.0263,6.36884-.02071,9.328a26.72914,26.72914,0,0,1,.627,4.25772c-4.1171-1.94172-7.73852-2.99553-8.61961-7.52546-.57875-2.97832-1.68184-5.85138-2.33216-8.81983a26.50791,26.50791,0,0,1-.16856-4.69593c-4.69434,1.66939-9.00187-.10579-13.3711-1.04755a3.01729,3.01729,0,0,1-2.42232-3.40613c.07052-2.06194.05863-4.13324.249-6.18541.70416-7.57984,1.11179-15.21416,2.33989-22.711a127.40918,127.40918,0,0,1,4.52473-16.98774c3.30141-10.62921,8.42887-20.51687,12.76954-30.726,2.80764-6.59867,5.1144-13.41146,7.63018-20.133.306-.8142.53359-1.65751.79805-2.48668.73848-2.3109,2.22689-3.582,4.55075-4.60991,5.95356-2.63293,11.73124-5.68124,17.47472-8.75961a5.65356,5.65356,0,0,0,2.12939-3.08782c2.93426-8.79487,5.31821-17.73195,6.13146-27.0071.627-7.14056.93868-14.31383,1.75383-21.43165A23.66134,23.66134,0,0,1,118.78027,27.0366a5.44167,5.44167,0,0,1,2.93425-1.23479,7.83247,7.83247,0,0,0,5.0579-1.75394c7.81742-5.478,17.41152-2.86266,22.92314,2.76463a63.89649,63.89649,0,0,1,15.59173,26.07883c.98276,3.1661,1.26379,6.36587-.39773,9.5257a11.72915,11.72915,0,0,0-.86658,3.74632c-.50832,3.552-.94654,7.11368-1.40855,10.6718-.26605,2.04538-.44757,4.1052-.81165,6.133-.32254,1.79642-.8707,3.55132-1.26952,5.33531a9.97573,9.97573,0,0,0-.07668,1.68544A14.61852,14.61852,0,0,0,162.13,91.00378c5.77258,2.53755,11.38744,5.62835,17.39283,7.36986a11.5279,11.5279,0,0,1,8.02953,7.026,17.33487,17.33487,0,0,1,1.1855,2.6547c2.17708,8.64193,4.29967,17.29788,6.43841,25.94968,2.61062,10.55721,5.27,21.10134,7.807,31.67564,1.04032,4.33026,1.36755,8.88409,2.8481,13.04123,1.31626,3.69969.85682,6.92219-.35006,10.3331a15.38307,15.38307,0,0,0-.40551,2.0868c7.04826.31119,13.93691.85052,20.82594.8536,6.90562.00319,13.8088-.52892,20.71388-.82557.05343.21678.10791.43408.16134.65139a11.08858,11.08858,0,0,1-2.47638.70629c-6.61259.30546-13.22836.63014-19.84677.75557-3.35592.06277-6.718-.42006-10.07482-.39149-4.87745.042-9.75126.34274-14.62661.49781-5.97321.18777-11.94907.25617-17.91665.53264-4.12644.19032-8.23685.69652-12.36021.961-2.16157.13892-4.33759.03313-6.50691.0907-2.25334.05969-4.50455.1831-7.06175.29144-.21061-.364-.5751-.99518-.95992-1.66568a4.1581,4.1581,0,0,0-.934-.02751,20.74928,20.74928,0,0,1-4.097.36717,8.753,8.753,0,0,0-5.10919,1.12741,12.35368,12.35368,0,0,1-10.23974,1.81458c-2.70972-.70013-5.59936-.69131-8.39563-1.08386a11.94056,11.94056,0,0,0-5.74348.67942c-2.86319.99465-5.826,1.7243-8.77841,2.43219-1.7139.40965-3.43512.32-4.75605-1.29023-1.82648,1.02832-3.63491,1.72484-5.52724.61134-.19967-.11821-.08454-.77427-.11672-1.18179,4.70943-8.2292,12.6337-11.6074,21.07075-14.316.60157,1.18816.55494,1.97379-.63683,2.13926-3.95534.54921-7.41808,2.43273-10.7967,4.3002a17.53646,17.53646,0,0,0-7.68148,8.07881c4.30073-.53986,6.75831-3.64372,10.03953-5.17823,8.224-3.84648,8.34742-3.94037,10.97928-3.22781-5.65278,2.41987-11.12606,4.26038-15.2748,8.42888.3267.278.52425.559.643.52945,3.65923-.9117,7.29827-1.90741,10.96791-2.76622a15.5136,15.5136,0,0,1,4.739-.60359c3.78477.3215,7.5399,1.00655,11.32106,1.39761a9.054,9.054,0,0,0,4.12028-.30546c2.20968-.87856,4.22862-2.22221,6.35854-3.31022a2.528,2.528,0,0,0,1.33069-3.53114c-1.03979-2.8326-2.09-5.66106-3.20646-8.68346-3.01209-.56524-6.12625-.77172-8.96353-1.7653-4.76017-1.66781-9.34461-1.30638-14.09915-.17429a71.748,71.748,0,0,0-11.40976,3.79772,22.4555,22.4555,0,0,0-2.60744,1.5309c.641.516,1.046.51087,1.39453.36972q4.22866-1.71279,8.43705-3.47358c.7577-.31682,1.50753-.86911,2.35753.3112a11.74842,11.74842,0,0,1-1.39188.87123c-3.0893,1.35353-6.2605,2.54169-9.27206,4.04817C104.92593,187.88607,101.878,191.62,101.24948,197.0549Zm34.68614-96.92636c.09644-.31948.19394-.63789.29038-.95737a14.49129,14.49129,0,0,0,2.7335.72042c2.4613.16643,5.33851,1.01589,7.29828.05756a16.83042,16.83042,0,0,0,6.53336-6.15684c5.5267-9.06719,7.95687-18.96207,6.56182-29.35847-1.476-1.43861-2.58628-3.11629-4.14259-3.87133-1.56457-.75876-3.57466-.599-5.76788-.89152.835-.76545,1.3432-1.23214,1.97483-1.8114-2.48145-1.32719-4.418-3.331-7.53788-3.4124.80442,2.41616,1.53461,4.60672,2.50441,7.51866-4.0145-2.0578-4.87076-5.951-7.512-8.14359-2.71173-2.25026-5.56505-4.32931-8.8245-6.84445-1.08334,4.19495-2.74126,7.72248-2.49656,11.77479,2.9488-.44183,5.68539-1.4163,8.35464.27327a26.22357,26.22357,0,0,1-4.40907.71362c-1.45834.2308-2.87933.696-4.49212,1.102-.06638,2.022-.13019,3.90351-.20435,6.14229,3.77024-3.70022,6.96478-3.94291,10.21744-1.09735q-5.15743,1.25316-10.4135,2.53129c-.12649,1.616-.29611,2.7968-.2977,3.9787-.00924,5.21966.23291,10.4477-.02018,15.65344a8.20533,8.20533,0,0,0,3.85529,7.66746c.70894.50152,1.47025.93454,2.13969,1.48374.27285.22506.363.67464.53572,1.02216-.35262.19128-.60771.42155-.70321.3677-1.55469-.88271-3.08984-1.80067-4.66374-2.731a9.72656,9.72656,0,0,0,2.59191,9.02672,64.729,64.729,0,0,0,5.35255,4.77836,2.74853,2.74853,0,0,0,2.31651.48283,22.75258,22.75258,0,0,0,8.8567-7.42371C142.88638,101.368,138.91022,102.54629,135.93562,100.12854Zm15.68445-1.12125c-3.85943,4.291-7.43879,8.27168-11.22768,12.48384.862.47241,1.881,1.00452,2.87411,1.57911,1.87523,1.0844,3.76193,2.15425,5.58121,3.3252.38786.24843.51393.90342.75863,1.37074q-.20754.21-.41687.41847c-1.33494-.78415-2.66978-1.56829-4.28681-2.51727-1.0792,2.52353-2.108,4.88265-3.08464,7.26248a2.0679,2.0679,0,0,0-.09695,1.26273c.95682,3.29312,1.96135,6.57222,2.95132,9.85547a67.97021,67.97021,0,0,0,4.20483-10.304c1.72388-5.02115,3.48451-10.03029,5.144-15.07258a13.37172,13.37172,0,0,0-.53519-9.31413C152.76724,99.22257,152.0448,99.08716,151.62007,99.00729Zm21.55931,70.79931c1.9738-.16134,3.48494-.22973,4.98164-.42165,2.52823-.32511,3.61409-1.84305,3.02909-4.29914a48.14206,48.14206,0,0,0-1.68225-5.91724c-.73486-1.94575-1.12123-4.15448-3.122-5.65586C173.60509,158.64007,173.67251,164.07193,173.17938,169.8066ZM60.91747,209.8c2.60032-7.28893,7.30762-10.58672,14.859-10.6821.88993-.01147,1.77616-.17843,3.31331-.3439a8.77,8.77,0,0,0-8.27062-1.79282A51.31442,51.31442,0,0,0,63.40882,199.4C57.50921,201.95827,55.86531,202.7885,60.91747,209.8Zm94.16375-18.08828c.8365-4.61395-.98116-8.33541-2.72055-12.031-.6996-1.48534-2.02467-1.73578-3.58669-1.20367-1.48268.50407-1.56977,1.62425-1.39346,2.87455a11.96611,11.96611,0,0,0,.46785,2.21446c1.006,2.92851,2.06088,5.83939,3.21687,9.0947C152.31192,192.36672,153.72567,192.0328,155.08122,191.71173ZM130.76408,114.724c-1.04085,2.91449-3.191,5.0237-1.71815,8.24725a53.34909,53.34909,0,0,1,1.79334,5.87582c.30761.95726.77693,1.86174,1.17362,2.78948a41.64112,41.64112,0,0,0,2.86319-8.40859c.08656-.34688-.19915-.82089-.38786-1.19793C133.34571,119.75707,132.17985,117.49492,130.76408,114.724Zm3.06339-4.30806c-1.80269-1.55937-3.38383-2.928-5.52936-4.78611.31534,3.20646.46732,5.59829,1.61449,8.19288C131.30088,112.61386,132.41786,111.64247,133.82747,110.416ZM90.67635,220.1637c-.09655-3.25627-.38586-3.8418-2.25387-5.173C89.246,216.87939,89.96167,218.52181,90.67635,220.1637Zm-27.003-8.99051q.44337-.203.88674-.40805-.48-1.08748-.961-2.174c-.24057.09283-.47964.18565-.71925.279Q63.27659,210.02136,63.67339,211.17319Zm65.77454-49.47333c-.13382.00254-.26871.0052-.40253.00669-.02271.488-.04408.97659-.06681,1.46452.19076-.00149.38321-.00361.5746-.00563C129.51792,162.67634,129.48319,162.18884,129.44793,161.69986Zm14.40463-6.75895c-.07987-.015-.15825-.03006-.23759-.04408q-.16647.88293-.3319,1.7669c.07987.01243.15868.02539.23908.03728Q143.687,155.82048,143.85256,154.94091Z"/><path class="b" d="M203.643,257.28511c.74052,1.68077,1.48,3.36206,2.38145,5.41158-18.18475,3.3081-36.14495,4.56827-54.16673,7.58812-1.26282-4.7364-2.28755-9.25125-3.6858-13.64906a124.64582,124.64582,0,0,0-4.9759-13.43951c-1.85505-4.11348-2.30782-8.90745-5.909-12.72227,17.27876-2.02042,34.45471-4.02852,52.0711-6.08834,1.72644,3.78317,3.60785,7.782,5.38048,11.82767,2.3539,5.37323,4.56931,10.80764,6.96168,16.16272.73167,1.63721,2.20246,2.95962,1.96859,4.95933a10.6642,10.6642,0,0,1-1.85091-2.18324c-2.85076-6.21441-5.58172-12.48373-8.41008-18.70855-1.60769-3.53528-3.32636-7.01926-5.01074-10.55656-15.9983,2.13661-31.71969,2.88549-47.49232,5.65586a40.97852,40.97852,0,0,0,1.09629,5.00447c1.23214,3.4808,2.71068,6.87355,3.96416,10.34808,1.83742,5.09167,4.21523,10.00077,5.08073,15.42891.33445,2.10815,1.06,4.15289,1.67142,6.45965,2.38769-.34125,4.40449-.65234,6.42863-.91638,12.72334-1.65686,25.45124-3.275,38.16789-4.98,2.20246-.29516,4.35724-.94335,6.81078-1.49a19.47349,19.47349,0,0,1-1.52262-2.9643C202.52481,258.18428,203.27367,257.67458,203.643,257.28511Z"/><path class="b" d="M102.25507,229.74325c8.59785.18151,17.19315.36249,26.30708.55388,3.68824,14.05509,6.39847,28.77506,11.68918,42.715-2.76824,1.311-28.44571,3.31171-31.4307,2.37261,4.72544-1.42459,9.69253-.95323,14.52123-1.574,4.81629-.61813,9.69733-.73847,14.97455-1.1067-1.185-4.4132-2.21275-8.351-3.307-12.2711-.49579-1.77666-1.24467-3.48759-1.66993-5.27775-1.58539-6.6505-3.07728-13.32289-4.62488-19.98274-.17111-.73635-.50715-1.43435-.712-2.16507a2.27481,2.27481,0,0,0-2.93424-1.80163c-7.39259,1.1393-14.74068-.377-22.11511-.46159-.28474-.00308-.56588-.25044-.849-.38479C102.15343,230.154,102.20579,229.94865,102.25507,229.74325Z"/><path class="b" d="M88.14655,272.15069c-1.20928-3.46624-1.57646-31.8067-.45532-34.94316a1.69314,1.69314,0,0,1,.29664.10674c.08508.05034.222.13488.21837.19871-.5969,11.36716.02337,22.71254.56992,34.05951.00934.16643-.21051.3558-.35007.5098C88.37161,272.14092,88.241,272.13,88.14655,272.15069Z"/><path class="b" d="M123.57106,259.29884c-3.65509.21306-7.31018.42569-11.00148.641C114.32758,258.385,119.64535,257.86279,123.57106,259.29884Z"/><path class="b" d="M114.37525,239.385q2.74067.00558,5.47954.01253c.00213.24938.0016.49727.00362.74676C118.03246,240.51818,116.20748,240.73867,114.37525,239.385Z"/><path class="b" d="M114.91564,248.44139c1.7944-1.74045,3.99071-1.15705,6.11075-1.01547Q117.96915,247.934,114.91564,248.44139Z"/><path class="b" d="M114.97172,252.07311q2.42857-.21,4.85822-.42155.03505.33759.0684.67517-2.43319.36245-4.86757.72658C115.01112,252.72661,114.99083,252.40034,114.97172,252.07311Z"/><path class="b" d="M114.33276,242.63206q2.231-.21158,4.461-.42378c.029.25522.05916.50928.09028.765q-2.2264.27227-4.44857.545Q114.38257,243.0749,114.33276,242.63206Z"/><path class="b" d="M150.98175,83.67959c-.19871.61145-.21942,1.41843-.63011,1.8a25.945,25.945,0,0,1-3.83142,2.9934c-2.50388,1.55947-5.0118,1.80779-7.52386-.20021a30.93121,30.93121,0,0,0-3.87706-2.31238c-.81112-.47147-1.56415-1.11244-.83343-2.01639.27848-.34433,1.37172-.34741,1.92037-.1078A16.37425,16.37425,0,0,0,150.98175,83.67959Zm-11.19923,3.234c1.95829,1.28407,3.33614,1.43807,5.13054.266-1.32761-.24938-2.25694-.46573-3.19923-.58033A9.74269,9.74269,0,0,0,139.78252,86.91356Z"/><path class="b" d="M149.16919,66.53519c3.18628-2.37983,5.6751-2.21956,7.98077.51235A7.04794,7.04794,0,0,1,149.16919,66.53519Z"/><path class="b" d="M140.92862,77.38531c2.11537,2.12578,4.65908,1.32613,7.5809.49738-2.18321,2.81858-4.29861,3.2568-7.10582,1.96551C140.27575,79.32958,139.93812,78.63306,140.92862,77.38531Z"/><path class="b" d="M161.36775,241.97494c5.18439-.9288,10.31283-1.84825,15.4407-2.7677.03738.16334.07265.32723.10844.49q-6.66968,1.986-13.36378,3.97977C163.032,243.27144,162.2291,242.64555,161.36775,241.97494Z"/><path class="b" d="M166.366,257.89231a23.26884,23.26884,0,0,1,3.33519-1.09109c4.753-.81834,9.52251-1.54651,14.292-2.271.25044-.03887.55335.26552,1.35459.68091-6.41663,1.91888-12.741,1.65229-18.69506,3.37458Q166.51045,258.23877,166.366,257.89231Z"/><path class="b" d="M172.08352,237.43928c-3.9393.57671-7.87807,1.15438-12.17934,1.78505C162.00819,237.53837,168.02133,236.56177,172.08352,237.43928Z"/><path class="b" d="M169.83071,252.05654a4.67811,4.67811,0,0,1,.85682-.33966,20.317,20.317,0,0,1,5.662-.4704q-3.17929.73364-6.35909,1.46771C169.9365,252.49476,169.88414,252.276,169.83071,252.05654Z"/></svg>