<svg xmlns="http://www.w3.org/2000/svg" viewBox="0 0 300 300"><defs><style>.a{fill:none;}.b{fill-rule:evenodd;}</style></defs><title>gl_nav15</title><rect class="a" x="11.20018" y="2.4521" width="281.83692" height="281.836"/><path class="b" d="M154.6113,284.3276c-.6767,2.273-1.8925,2.5274-3.5742,2.1538.2061-8.6562,2.4522-17.3022.7949-26.291-.5664.3433-1.1064.6123-1.5918.9737-4.2675,3.1811-8.5556,6.3305-12.7685,9.6001a4.64378,4.64378,0,0,1-3.7481,1.1235c-8.1494-1.1377-15.9931-3.6563-23.831-6.3081a126.971,126.971,0,0,0-13.3369-3.5669,15.03963,15.03963,0,0,1-8.6172-5.1558,40.34524,40.34524,0,0,0-3.2442-3.5747c-2.0634-1.9258-2.5595-3.435-1.8593-6.726a18.43708,18.43708,0,0,0-7.9414.3559,11.27285,11.27285,0,0,0-2.5733.8804c-5.4678,2.6318-10.8769,1.8926-16.2715-.2871a2.66785,2.66785,0,0,1-.9912-.4478c-2.5342-2.6919-5.1045-5.3462-7.5195-8.167a3.223,3.223,0,0,1-.1856-4.5473c-3.8545-.8697-7.6992-.0103-10.8955-2.3921.9405-3.8296,1.9112-4.8741,5.1475-4.9668,3.8564-.1114,7.7187.0132,11.5781.0024a8.75537,8.75537,0,0,0,2.8653-.477c-2.6368-1.9605-7.1143-1.878-5.9493-7.8326,2.4698,0,4.8731.0137,7.2764-.0029,3.3252-.0239,6.6494-.1103,9.9736-.0947a12.275,12.275,0,0,1,7.6582,2.3804c2.7559,2.0849,5.587,4.0493,8.418,6.0048a2.82331,2.82331,0,0,0,2.9648.5967c.9776-.3799,2.3409.4976,3.6534.8477.0351-.417.0547-.6817.0781-.9458.1416-1.6196.7353-2.2031,1.7422-1.3989,1.9873,1.5864,4.2724,1.5683,6.4609,1.6787a18.76307,18.76307,0,0,1,8.2676,2.4882c5.4961,3.0523,11.3652,4.3018,17.3916,4.9473,1.3594.1455,2.5049.0205,3.2705-1.4228.1357-.2569.3106-.6128.5244-.6744,2.4082-.6987,2.5371-3.1396,3.084-5.1879,1.3672-5.1363,2.7461-10.2749,3.916-15.4712a33.75577,33.75577,0,0,0,.9981-8.0655,16.29808,16.29808,0,0,1,1.7187-8.1352,39.58793,39.58793,0,0,0,4.0205-16.228c.3819-6.2603,2.6123-11.9571,4.6231-17.7017.4277-1.2222,1.1299-2.3389,1.4551-3.5879a7.59566,7.59566,0,0,1,5.0644-5.3857c5.168-2.0274,10.3965-3.8584,15.5225-6.0069a43.9907,43.9907,0,0,0,6.9609-3.9223c2.2461-1.4722,4.3623-3.1958,6.4971-4.8721a3.65208,3.65208,0,0,0,.8642-1.3823c.5108-1.1534.9639-2.3389,1.5508-3.7832a13.344,13.344,0,0,0-1.5781-1.6084c-2.9121-2.188-5.9141-4.23-8.7832-6.4864-4.2852-3.3686-8.5293-6.8125-9.9531-13.0141-.4483-1.9561-1.1202-3.8477-1.6768-5.7739-.6348-2.1998-1.248-4.2349-3.2109-5.6768-1.2364-.9087-1.9014-2.8638-2.7266-4.4146-2.167-4.0664-4.6729-7.9355-5.6475-12.6923a18.55714,18.55714,0,0,1,.5596-10.1465,180.82782,180.82782,0,0,1,10.6338-23.5191c1.708-3.1953,4.0957-4.3872,8.085-4.2158a7.12969,7.12969,0,0,1,5.1455-3.5,66.68161,66.68161,0,0,1,10.3945-1.5942,9.73146,9.73146,0,0,1,7.8906,3.1318c3.0996,3.2144,6.5684,5.9707,9.7852,9.0464a50.83261,50.83261,0,0,1,9.9013,13.8999,15.72351,15.72351,0,0,1,1.2608,8.8374,8.60062,8.60062,0,0,0-.0459,2.6479,25.72009,25.72009,0,0,1-1.6172,17.0684,6.36362,6.36362,0,0,0-.5332,1.7134c-.7129,4.8862-1.915,9.6963-1.6855,14.7324a15.07489,15.07489,0,0,1-.6104,3.2754c.3584,1.2432,1.4395.8076,2.2285.71a4.12668,4.12668,0,0,1,4.7266,2.4799,10.29784,10.29784,0,0,0,2.4912,3.1304c.6738.5713,1.708.6016,3.0967,1.0347,3.205,4.8872,6.7451,10.2236,10.2129,15.6201.9941,1.5474,2.4472,2.0132,3.8886,2.5034,3.8702,1.315,7.7647,2.5337,11.6494,3.791,4.2969,1.3907,7.9883,4.1006,11.6983,6.7803,1.458,1.0532,1.8691,2.6509,1.9394,4.4336.1563,3.9355.0801,7.897.4581,11.8047.6884,7.1391,1.6728,14.2417,2.4658,21.3691.3789,3.4102.6396,6.8389.8818,10.2661q.69585,9.84315,1.3037,19.6944c.3701,5.8594.8076,11.7173,1.0176,17.5854.1592,4.4405-.0098,8.895-.0059,13.3438.0049,4.5552.003,9.1108.084,13.665a8.831,8.831,0,0,1-1.4355,5.105q-3.249,5.0295-6.5196,10.042c-1.4345,2.1846-3.0175,4.2563-4.332,6.5268-.9346,1.6148-2.2832,2.417-3.6191,1.7344-1.9707-1.0078-3.7793-.0532-5.6494-.1621-3.8233-.2222-7.6446-.5303-11.4698-.6567a83.1183,83.1183,0,0,0-10.0918.08,23.5772,23.5772,0,0,1-3.9248.2847,21.71209,21.71209,0,0,0-4.2968.2681c-3.1543.3979-6.2842.4321-9.2237-1.1148a1.93887,1.93887,0,0,0-2.664.2691c-.7666.7514-1.5782.5659-2.6543.2383a11.02911,11.02911,0,0,0-4.9161.1889c-1.038.1812-1.8925.791-3.0068-.1123-.624-.5063-1.7353-.3345-2.625-.3198a15.74791,15.74791,0,0,1-2.668.2803c-1.0019-.1651-1.9941-1.145-2.9091-1.0181-.92.127-1.7071,1.249-2.6211,1.7871-.3409.2007-1.1338.1743-1.2793-.0752-.8907-1.5361-1.7647-.6943-2.8907-.4023-1.1582.3017-2.6455,1.5083-3.8095-.3677-.1709-.2749-.9932-.0981-1.5049-.0317-1.6729.2163-3.3369.5405-5.0137.6884a5.66525,5.66525,0,0,1-1.7236-.4716,3.73,3.73,0,0,0-1.4365-.2832c-2.3428.392-4.6631,1.6987-7.0244-.0723-.3018-.2261-1.004.1211-1.4815.3218C155.9492,286.4385,155.2988,286.0054,154.6113,284.3276Zm51.834-195.6743a9.20352,9.20352,0,0,1-.8301-2.2524c.0137-3.7403-2.1631-5.8062-4.5644-7.6626-2.294-1.7744-3.6787-4.4956-5.1494-6.9346a11.62145,11.62145,0,0,0-3.4024-4.0249c-2.6367-1.7085-5.3515-3.2646-7.9658-4.8433-4.8955,3.1988-21.6572,24.2232-21.2559,30.0445,1.5743-.1431,3.2237-.6763,4.7022-.315,1.3682.3345,3.1074.7144,3.9258,2.8223-1.8223-.5737-3.3828-1.3857-4.9756-1.4761a22.13162,22.13162,0,0,0-4.9844.8076c-.79,2.2115-1.3799,4.2071-.5312,6.5406,1.2597,3.459,2.415,6.9853,3.3408,10.5727a13.2332,13.2332,0,0,0,3.2783,6.1646,106.85193,106.85193,0,0,0,8.0049,7.1279c3.0469,2.4932,6.289,4.6875,9.3076,7.2197,1.9238,1.6138,3.7373,3.4742,3.917,6.5411a11.94156,11.94156,0,0,0,.8027,2.5273c1.3662-1.4756,2.5117-2.7329,3.6787-3.9673,1.7608-1.8642,3.4288-3.8672,5.3301-5.5283,2.4776-2.1631,5.1768-3.9981,7.7207-6.0698,1.874-1.5274,3.6494-3.208,5.6397-4.9707-.9825-1.2246-1.8028-2.273-2.6485-3.293a9.07232,9.07232,0,0,1-2.3593-7.6699,43.52994,43.52994,0,0,0,.0293-6.6685c0-1.8188.0322-3.6377.04-5.4556.0068-1.3857.4678-2.3955,1.7939-2.5385,2.0889-.2241,2.9932-2.0557,3.3848-3.8345.7725-3.5132,1.5234-7.1157.7217-10.7969a8.46072,8.46072,0,0,0-.5547-2.021c-.5039-.9843-.6924-2.7807-2.0313-2.3379-.8125.2686-1.3554,1.6714-1.9462,2.6226-.1856.2983-.1143.7881-.1905,1.1826-.3672,1.876-.7041,3.7603-1.1347,5.6177A25.75185,25.75185,0,0,1,206.4453,88.6533ZM51.3408,220.1558c-.248,1.8608.6934,2.4233,1.6553,2.9975,3.2998,1.9697,6.8896,2.0357,10.4902,2.0791a15.38766,15.38766,0,0,1,1.667.1973c.0205.1777.043.3545.0645.5317-.7803.3946-1.5615.7891-2.6035,1.3159,1.9121,1.7432,3.5752,3.2603,5.2373,4.7759-.1172.1748-.2354.3501-.3545.5244a8.81693,8.81693,0,0,1-4.0381-2.9985c-1.7754-2.0337-3.7588-2.1807-5.917-1.6528a24.10794,24.10794,0,0,1-7.7588.2182,57.8808,57.8808,0,0,0-7.792.0352,3.87241,3.87241,0,0,0-3.749,3.2729,19.27517,19.27517,0,0,0,2.5068.6187c2.5811.2695,5.1709.437,7.7539.6977a4.86492,4.86492,0,0,1,2.5791.5704c1.3994,1.1709,2.8828.8813,4.376.8291.8789-.0313,1.752-.2193,2.5889-.3311a26.31311,26.31311,0,0,1,1.6045,3.0054c.4023,1.0615.4648,2.2915.8945,3.334a13.0775,13.0775,0,0,0,1.7324,2.894c.9453,1.2397,2.0117,2.3638,3.2871,3.8389,2.8672-.5513,6.3389.5049,9.5655-1.2871a4.64025,4.64025,0,0,1,2.1269-.2696c2.4229-.0371,4.8447-.0307,7.2666-.0371,1.5039-.0039,3.0059-.0005,4.8008-.0005a22.5769,22.5769,0,0,0-.041-4.1738c-.6963-3.3379-1.5459-6.6392-2.4346-9.9209a3.02337,3.02337,0,0,0-1.2139-1.4824c-3.2851-2.2725-6.6377-4.4204-9.8984-6.7334a15.35012,15.35012,0,0,0-9.416-2.9634c-2.7793.0493-5.5586-.0767-8.3379-.064C55.7842,219.9883,53.585,220.0918,51.3408,220.1558ZM215.9189,119.5767c-3.1328,2.749-5.7734,5.5214-8.7861,7.6152a72.334,72.334,0,0,0-15.5918,14.7559c-3.0498,3.8696-3.2578,5.7236-1.3115,10.3842,1.3711,3.2857,2.6035,6.648,3.8203,10.0122.1621.4473-.1387,1.107-.2256,1.668-.1894.0166-.3808.0337-.5703.0513-.585-1.2447-1.1699-2.4898-1.8135-3.8579-2.1093,3.3432-4.6826,13.2441-4.2539,16.6206,4.1621-6.3091,8.2852-12.2871,12.1436-18.4756,4.4853-7.1909,9.4795-13.9956,13.0888-21.8687,1.7295-3.7715,3.7276-7.3881,5.6319-11.0561.4853-.9336.8359-1.8838.2012-2.8198C217.4658,121.4487,216.5576,120.397,215.9189,119.5767ZM87.6377,229.605c.3955,1.7085.6582,2.9565.9766,4.1865.6015,2.3228,1.413,4.5962,1.8164,6.9595.8173,4.7866-.5557,8.122-4.2598,10.5898a111.95894,111.95894,0,0,0,12.9873,2.7749c.0518-1.6675.2051-2.9516.1094-4.2114a43.971,43.971,0,0,0-4.5244-15.7046C93.1934,230.9316,91.0889,229.876,87.6377,229.605Zm126.5186-49.0152c-5.3604-.4604-10.2579-.9907-15.1661-1.2592-2.6338-.1436-2.7529.1728-3.0966,3.25-.1524,1.3657-.2891,2.7339-.4815,4.5483H212.71C213.1201,185.2773,213.5674,183.25,214.1563,180.5898Zm-33.1192-28.2729q.2637.09735.5264.1958c1.4355-1.9341,2.9043-3.8384,4.2861-5.8193a3.67776,3.67776,0,0,0,.832-2.1211c-.3398-3.0498-.8652-6.0728-1.3252-9.105-.2265-.0132-.455-.0259-.6826-.0391A66.79739,66.79739,0,0,0,181.0371,152.3169ZM58.0244,235.4204c-3.3584-.2876-6.5898,1.7466-9.5547-.7392-.5185,4.5078.1905,5.5102,3.6485,5.1669,1.9472-.1928,3.8711-.6992,5.7597-1.0561C57.9268,237.668,57.9658,236.7935,58.0244,235.4204Zm118.3438-59.7085c.9257-2.29,1.6943-4.6841,2.8134-6.8467,1.7725-3.4228,1.6202-7.1621,1.7989-10.8667a3.15416,3.15416,0,0,0-.3282-1.0244C178.3818,163.0649,176.2363,169.0791,176.3682,175.7119ZM51.6084,241.3467c.0059.2929.0127.5864.0195.8789,2.503,1.084,5.1123.4497,7.6504.6714.2676-2.2769.0625-2.7832-1.2197-2.6348C55.8975,240.5122,53.7578,240.9741,51.6084,241.3467Zm11.0957,3.8032c-2.5742-1.5522-5.3213-.6309-8.3301-1.0034C55.9131,246.3887,58.9648,246.731,62.7041,245.1499Zm22.0605,1.231c.2911,1.3217.4805,2.1713.6944,3.1406,1.501-.3848,2.9961-.4458,3.164-2.9512C87.418,246.5117,86.3057,246.4565,84.7646,246.3809Zm124.4639-23.1973q.29745.38235.5928.7637,2.05665-2.4807,4.1123-4.9639c-.1182-.1362-.2344-.272-.3506-.4082Q211.4062,220.87935,209.2285,223.1836Zm2.4746-106.0342q-.1011.282-.2041.563c.6026.6099,1.2041,1.2202,2.0254,2.0503.3291-.8789.5332-1.4219.8545-2.2783C213.2881,117.3477,212.4961,117.2485,211.7031,117.1494ZM149.2813,236.6992q-.2682-.208-.5352-.4155c-.9277.9184-1.8975,1.8061-1.4971,3.6489Q148.2657,238.31545,149.2813,236.6992ZM203.25,260.5596c.1553.167.3096.3354.4629.5029q1.0767-1.25535,2.1533-2.5098-.24615-.268-.4912-.5351Q204.313,259.289,203.25,260.5596Zm38,22.5092c.1982.1973.3945.3946.5918.5928q1.00335-1.13235,2.0078-2.2641-.2124-.2373-.4228-.4727Q242.3384,281.9964,241.25,283.0688Zm-.0654-22.9262q.1875.19335.375.3847.65175-.76245,1.3047-1.5253c-.1387-.1426-.2784-.2847-.417-.4268Q241.816,259.3582,241.1846,260.1426Zm-17.1465-5.8306c.1338.0943.2666.1885.4004.2818.5224-.688,1.0449-1.3765,1.9131-2.522C225.29,253.0991,224.665,253.7056,224.0381,254.312Zm-4.8027-6.2803q.1728.2556.3457.5098c.4921-.5264.9892-1.0478,1.4648-1.5928a3.70783,3.70783,0,0,0-.3252-.688C220.1865,246.8979,219.7109,247.4653,219.2354,248.0317Zm1.6074,7.7471c.1396.1729.2783.3467.4179.52q.6549-.80415,1.3106-1.6089c-.0723-.0805-.1445-.1601-.2168-.2407Q221.60015,255.1143,220.8428,255.7788Zm-53.0645-35.6484c-.1435-.0171-.289-.0347-.4336-.0518q-.1713,1.0569-.3457,2.1138c.2031.0254.4073.0513.6104.0766C167.665,221.5557,167.7227,220.8433,167.7783,220.1304Zm-26.8105-16.5552c-.1983-.0186-.3955-.0371-.5928-.0552q.041.79185.083,1.5825c.1328-.0009.2656-.0024.3984-.0034Q140.9107,204.33665,140.9678,203.5752Zm25.2353,40.0864c.1367.1065.2715.2124.4063.3189q.29445-.98655.5898-1.9727c-.1269-.0532-.2519-.1069-.3769-.1601Q166.51315,242.7543,166.2031,243.6616Zm41.585,11.3843c.0967.1128.1943.2261.291.3394q.583-.6519,1.1699-1.3018c-.0859-.1016-.1728-.2036-.2588-.3052Q208.3896,254.41265,207.7881,255.0459Zm-9.6279-25.1494c.1142.1323.2304.2656.3447.3984.1933-.31.3877-.6191.5801-.9292-.0938-.0888-.1885-.1782-.2832-.2671Q198.481,229.49715,198.1602,229.8965Zm24.6943,50.4214.0059.2387c.4658.024.9296.0474,1.3955.0708.0019-.103.0048-.2065.0078-.3095Zm24.9473-17.8257a13.32967,13.32967,0,0,0-.5225,1.4599.67277.67277,0,0,0,.2324.4351,2.192,2.192,0,0,0,.7901-.4351A7.87288,7.87288,0,0,0,247.8018,262.4922Zm-59.9112,4.5571c.1006.0899.2022.1792.3028.2695q.3501-.495.7011-.9897c-.0908-.0815-.1826-.1626-.2744-.2437Q188.25545,266.5681,187.8906,267.0493Z"/><path class="b" d="M86.9053,171.9492c-.2032,2.3692-.5059,4.6196-.5625,6.8789-.0928,3.6529-.2256,3.792-3.3389,3.5728a39.63857,39.63857,0,0,0-4.8135.2236c-.9756.0513-1.9511.0977-3.1015.1553-1.211-3.2178-.1631-6.6651-.8799-9.9121H64.3965c-.6358-3.1089-.1006-6.1533-.0156-9.5532,2.7568,0,5.2334.0107,7.7099-.004,1.419-.0087,1.419-.0278,1.7022-2.1313-3.2295.1689-6.3994.334-9.6485.5034-.3896-2.4912-.8027-4.7534-1.081-7.0376-.1924-1.5981.4502-2.2226,2.1416-2.2685,1.3135-.0362,2.6279-.0074,4.2519-.0074-2.622-6.229-7.4101-10.2778-10.2099-16.3598a16.49324,16.49324,0,0,1,3.1933-1.0235c2.4102-.2392,4.8418-.2075,7.2539-.4316,1.3672-.1265,2.0176.5059,2.7588,1.769,1.9268,3.2769,4.084,6.3829,6.1924,9.5201a15.32429,15.32429,0,0,0,1.793,1.8437c.7549-1.2056,1.4414-2.2197,2.0488-3.2895,1.5479-2.7261,3.1309-5.4336,4.5576-8.2398a3.39962,3.39962,0,0,1,2.7412-2.1069c2.6768-.3081,5.3555-.6612,8.0391-.7725.7471-.0312,1.5195.7158,2.4746,1.2066-2.6728,6.3203-6.9648,11.061-10.1338,17.4848,2.6719-.1928,4.7481-.3427,7.082-.5112-.1181,2.9111-.2314,5.6538-.3466,8.4702-3.5342,1.2349-7.334-.8237-11.0655,1.9317a7.566,7.566,0,0,0,2.1495.6254c2.1406-.2221,4.2695-.6045,6.4101-.8471a26.21205,26.21205,0,0,1,2.8926-.0176c0,2.8037-.0488,5.2017.0176,7.5962.039,1.4516-.5596,2.0288-1.7481,2.0801-1.2549.0537-2.5127.0903-3.7646.186C90.2773,171.5991,88.7656,171.7695,86.9053,171.9492Z"/><path class="b" d="M177.6963,118.6733c.8945-.4614,1.4873-.7719,2.083-1.0752,3.749-1.9067,7.5352-3.7294,11.2227-5.7763.8994-.5,1.4775-1.7354,2.5839-3.1026.3487.1138,1.2246.4024,2.2149.7286-1.833,4.9365-5.0088,8.3598-8.0938,11.8144-.5478.6138-1.8623.6553-2.7597.5a15.33965,15.33965,0,0,1-3.2725-1.3306C180.54,119.938,179.4102,119.4312,177.6963,118.6733Zm3.8613-.0014c1.7959,1.4717,3.6836,2.5879,5.1826,1.3462a16.16888,16.16888,0,0,0,5.3233-7.1421C188.6846,114.7397,185.3057,116.604,181.5576,118.6719Z"/><path class="b" d="M192.2891,88.5718c-2.0498,4.3471-5.4356,5.2842-8.7139,7.0366-.3047-1.5898-.5381-2.8135-.7715-4.0264A10.963,10.963,0,0,1,192.2891,88.5718Zm-5.6338,3.6636c-1.3809-.9039-1.3809-.9039-1.9385,1.2319C185.459,92.9951,186,92.6519,186.6553,92.2354Z"/><path class="b" d="M164.4189,101.9854c-.6679-3.1431.0459-4.6343,2.2911-4.8526,1.914-.186,3.9267-.3843,5.6914,1.6636C170.2891,101.7959,167.46,101.9609,164.4189,101.9854Z"/><path class="b" d="M189.4141,82.7075a27.2572,27.2572,0,0,0-4.7823,1.8164,33.76246,33.76246,0,0,0-4.2304,3.6861C181.7207,83.7861,186.2314,81.1533,189.4141,82.7075Z"/><path class="b" d="M178.1494,111.8428a10.25879,10.25879,0,0,1-1.164-5.5547c1.6728.8198.6972,2.9839,2.5058,4.063.6582-.0899,1.9248-.2617,3.2676-.4439C181.9014,111.7021,181.9014,111.7021,178.1494,111.8428Z"/></svg>