<svg xmlns="http://www.w3.org/2000/svg" viewBox="0 0 300 300"><defs><style>.a{fill-rule:evenodd;}</style></defs><title>gl_nav02</title><path class="a" d="M186.5332,235.0156c-.0644,1.3028-1.0078,1.2657-1.7871.959a8.484,8.484,0,0,1-2.8731-1.6621,4.85645,4.85645,0,0,0-3.9062-1.4023c-2.2988.0878-4.4824-.2286-6.1641-2.1778-2.166,1.9649-4.4882,2.9336-7.4082,2.2949a26.808,26.808,0,0,0-4.7832-.2324c-4.2304-.1445-8.4629-.4629-12.6894-.3691-3.4864.0762-7.0156-.8106-10.2813.2969a42.0951,42.0951,0,0,1-1.5996,3.9355,2.17466,2.17466,0,0,1-2.3652,1.1211c-3.0195-.1895-6.0606-.0508-9.0918-.0176-1.1152.0117-2.2402.2168-3.3438.127-7.5996-.627-15.1757.1445-22.7617.2773-1.3515.0235-2.7051-.1211-4.0586-.1347-4.3144-.045-8.6269-.1055-12.9394-.0625a10.18245,10.18245,0,0,0-2.5801.7949c-.3477-.2676-.8965-.6914-1.4707-1.1348-1.0137,2.459-.7207,8.8926.3144,10.6621,1.3594,0,2.5723-.0351,3.7813.0059,3.0351.1035,6.0703.2363,9.1055.3672,2.3867.1015,2.4238.1445,2.5117,2.4179.039,1.002.039,1.002,1.2148,2.0703-.5488.875-1.3554.8204-2.2656.793-5.1016-.1601-10.2051-.3203-15.3086-.3437-5.6484-.0274-11.2969.1582-16.9453.1269-5.1875-.0293-10.375-.2519-15.5645-.3281-1.8339-.0254-3.6718.123-5.5078.2012-1.9043.08-2.1582-.1895-1.9922-2.1661.0469-.5507.1055-1.0996.1641-1.707,5.6621-.6855,11.2637-1.3652,17.1484-2.0781-.4043-2.9238-.7812-5.6563-1.2011-8.7012-2.2032,0-4.3282.002-6.4532,0q-6.3456-.00585-12.6914-.0176c-1.2675-.0039-2.5332-.039-3.7988-.041q-5.4843-.0087-10.9668-.0039-.4218,1.09275-.8418,2.1895c-.1582-.0196-.3144-.0371-.4726-.0567a3.584,3.584,0,0,1-.3829-.9941c-.6425-9.4082-1.8574-18.7422-3.2109-28.0742-1.248-8.6055-1.9629-17.2891-2.9863-25.9278-.6211-5.2324-1.4004-10.4453-2.0703-15.6699-.2012-1.582-.3379-3.1797-.3946-4.7734a11.45565,11.45565,0,0,0-1.5742-6.2383c.3535-.207.6094-.4844.8731-.4902,4.9902-.1094,9.7695-1.4082,14.5957-2.4961,2.5644-.5782,5.1894-.8828,7.7832-1.3321,8.1836-1.416,16.3554-2.8945,24.5488-4.248,4.9551-.8184,9.9609-1.3477,14.9102-2.1934,5.4277-.9277,10.8281-2.0351,16.2246-3.1308,6.1836-1.2539,12.3437-2.6133,18.5273-3.8672,5.1602-1.0449,10.3399-2.002,15.5098-2.9981a2.30173,2.30173,0,0,0,.4687-.1015c3.2031-1.3789,5.9082-.5899,8.3106,2.1543-.5313,8.0781,1.1543,16.2441,2.0683,24.4746.9883,8.8887,2.168,17.7558,3.1328,26.6484.6875,6.3516,1.1582,12.7266,1.7344,19.0918.0332.3848.1367.7617.293,1.5879.6465-1.5059,1.0098-2.6387.5566-3.8008a3.30077,3.30077,0,0,1,.168-2.5215c1.7402-4.8867,3.3809-9.8105,5.123-14.6972,1.6329-4.5879,3.3672-9.1387,5.0293-13.7188,1.9063-5.2539,3.6836-10.5586,5.6954-15.7715a75.521,75.521,0,0,1,8.5253-16.0371,2.93374,2.93374,0,0,1,2.7813-1.4414,9.15521,9.15521,0,0,0,4.7851-1.2519c2.0489-1.0117,4.254-1.7051,6.3438-2.6387a41.6176,41.6176,0,0,0,3.7773-2.0586c.7539-.4336,1.4649-.9434,2.5332-1.6367.0508-3.2813,1.8985-6.0567,4.7735-8.4356-2.1563-2.3613-4.0664-4.498-6.0254-6.5878a10.57166,10.57166,0,0,1-3.0684-5.834c-.2519-1.8164-.6718-3.6094-1.0371-5.4082a4.60937,4.60937,0,0,0-.4023-1.375c-3.1875-5.5996-3.6934-11.7032-2.8184-17.8555a24.83412,24.83412,0,0,1,4.9278-11.3359,43.061,43.061,0,0,1,6.2539-6.2168,14.42374,14.42374,0,0,1,11.8945-3.2481,35.837,35.837,0,0,1,15.2519,5.2656,10.19881,10.19881,0,0,1,3.7247,3.9688c.9863,2,1.9414,4.0156,2.8359,6.0566a5.43187,5.43187,0,0,1,.3125,1.8653,30.439,30.439,0,0,1-.8887,10.4472,10.9127,10.9127,0,0,0-.2265,1.4903c1.8183,1.1699,1.9882,2.832,1.1425,4.5918-.9472,1.9707-1.7109,4.2675-4.4257,4.0625-.6602,3.1308-1.3672,6.2246-1.9258,9.3437a3.6012,3.6012,0,0,0,.4687,2.1934,52.11368,52.11368,0,0,1,4.7071,11.2402c.5371,1.9082.9043,3.8633,1.2656,5.4336,2.8476,1.2051,5.4941,2.2754,8.0976,3.4414,2.8457,1.2754,5.6778,2.4863,8.9063,2.3926.9844-.0293,2.1172.0449,2.5449,1.3359.0859.2578.4688.416.707.627a12.17041,12.17041,0,0,1,3.5118,5.2578c1.3632,3.8203,3.2929,7.4355,4.9707,11.1445.5566,1.2324,1.1093,2.4707,1.5839,3.7363q4.4181,11.76855,8.7989,23.5547,3.14055,8.3994,6.3047,16.795a9.82821,9.82821,0,0,1-.1114,7.8945,34.63158,34.63158,0,0,0-1.4257,4.0566,7.0039,7.0039,0,0,1-4.2032,4.8711c-2.0918.8399-4.0859,1.7676-5.5332,3.8633-1.2011,1.7402-3.2695,2.8809-5.2265,4.5137a8.35605,8.35605,0,0,0,5.0957.916c7.1679-.4785,14.332-1.1231,21.5097-1.3692,9.4239-.3203-.1543-.123,9.2617.67,3.3829.2832,6.8418-.2637,10.2598-.5176.7969-.0606,1.5176-.4844,2.002.5898.1113.2481.8183.2793,1.2597.3164.8203.0684,1.0957.461.9493,1.334-1.3086,0-2.5547.0528-3.793-.0078-6.2246-.3027-12.4414-.7598-18.668-.9199-5.5781-.1445,7.834-.0684,2.2559.0898-5.334.1524-10.6602.5176-15.9864.8301-4.6152.2695-9.2246.627-13.8398.8906-1.9824.1133-3.9727.0586-5.957.1387-6.5235.2637-13.0352-.2285-19.5528-.2695-1.2597-.0078-2.5195-.1446-3.6797-.2168-.3945-.9453-.0234-1.252.668-1.2305,2.3945.0762,4.7891.1934,7.1836.2774,2.7109.0976,5.4336.0703,8.1348.2871,4.125.33,7.8574-1.1192,11.5801-2.4688a7.46936,7.46936,0,0,0,3.082-2.5703c2.2109-2.9394,5.2558-4.6445,8.5-6.0293a5.5881,5.5881,0,0,0,3.5293-4.1621,23.32375,23.32375,0,0,1,1.4707-4.0449,9.03413,9.03413,0,0,0,.293-6.9942c-.377-1.0527-.7872-2.0937-1.1719-3.1425-1.7344-4.711-3.4336-9.4317-5.2012-14.1289-2.1367-5.6797-4.3437-11.334-6.4902-17.0098-.6485-1.7149-1.0879-3.5137-1.8125-5.1895-1.836-4.2441-3.8047-8.4297-5.668-12.6601-.7383-1.6739-1.3809-3.3946-1.9863-5.1211-.5645-1.6192-1.8672-2.5449-3.1231-3.5039a14.37965,14.37965,0,0,0-2.0449-1.1114c-1.1035.6485-.0898,2.0469-1.2891,2.8125-.7793.4961-1.0097,1.9317-1.3691,2.9864a17.90442,17.90442,0,0,0-.8184,3.2324c-.5351,3.877-1.3867,7.7617-1.3906,11.6426a56.907,56.907,0,0,0,1.9317,16.5976c1.2246,4.0762,2.4394,8.045,5.0507,11.5469,1.25,1.6758,1.7227,3.9238,2.5957,5.8906.8379,1.8848,1.7442,3.7383,2.5977,5.6172a2.854,2.854,0,0,1,.0566.834c-.4648.0762-.916.1289-1.3574.2246a4.11109,4.11109,0,0,0-3.584,3.9043,3.42842,3.42842,0,0,1-3.0488,3.5899c-1.7031.4043-3.5742.9277-4.6445,2.6894a1.28923,1.28923,0,0,1-1.2324.2852c-.8594-.5938-1.5625-.1328-2.25.1836-1.5254.6992-2.9883,1.5332-4.5137,2.2304-1.5899.7285-3.1973,1.4356-4.8457,2.0137a6.341,6.341,0,0,0-3.4805,2.2832c.0723.2129.0781.4297.1738.4844,2.0782,1.1601,2.7188,2.9394,2.4473,5.2363a32.66038,32.66038,0,0,0-.0273,3.8125,7.69155,7.69155,0,0,1-5.5118,1.4492c-2.8964-.2949-5.5175.6817-8.2558,1.0977-2.3106.3496-4.4531,1.0859-6.9688.1367a4.66071,4.66071,0,0,0-5.4121,2.043c-.8652-.5254-1.6308-.9903-2.3926-1.4649a3.49192,3.49192,0,0,1,1.9258-3.5722c2.6133-1.5352,5.1992-3.125,7.8711-4.5547,1.7676-.9453,3.6641-1.6543,5.5137-2.4727.4824,1.1777-.0527,1.3906-.6934,1.6836-1.7382.7969-3.4707,1.6211-5.1445,2.543-2.0898,1.1523-4.1113,2.4238-6.1777,3.6191-.6563.3789-1.4121.6289-1.5078,1.6211,1.2031-.1973,2.2714-.4551,3.3535-.5332a14.21414,14.21414,0,0,0,6.9355-2.3281,55.25375,55.25375,0,0,1,6.0391-3.0176c.1094.1445.2168.2891.3242.4316-.2188.3379-.3613.8204-.6719.9844-.7715.4102-1.6289.6485-2.4336,1a6.58606,6.58606,0,0,0-3.5722,2.961c1.0937-.1817,1.873-.293,2.6425-.4414,2.3457-.4571,4.7188-1.4043,7.0215-1.254a10.34025,10.34025,0,0,0,6.0117-1.2168c0-1.4062.0821-2.9179-.0429-4.414a2.61076,2.61076,0,0,0-.9141-1.5586c-1.5898-1.3516-4.0176-1.418-5.2422-3.3652-3.4961-.9668-7.0468-1.8829-10.4687.0468-4.1699,2.3477-8.25,4.8594-12.3379,7.3477a10.25481,10.25481,0,0,0-1.6055,1.5234c.1016.1328.2051.2637.3086.3946a13.99678,13.99678,0,0,0,1.9512-1.1641,39.16976,39.16976,0,0,1,8.5742-5.1875,8.436,8.436,0,0,1,2.248-.7754c.6563-.0996,1.2715.1856,1.0704,1.0938-3.8555.8222-11.209,5.2031-13.0293,7.8496C185.1367,233.1641,185.8359,234.0898,186.5332,235.0156Zm-62.998-95.6914a15.48919,15.48919,0,0,0-2.5567.0196c-4.8633.8828-9.7265,1.7695-14.5683,2.7539-6.8028,1.3847-13.5801,2.8886-20.3809,4.2832-5.3125,1.0879-10.6348,2.1445-15.9746,3.0957-2.5078.4453-5.082.5019-7.5977.9179-9.2129,1.5176-18.416,3.1153-27.623,4.6797-3.9336.668-7.8809,1.2598-11.7988,2.0078-4.543.8692-9.0625,1.8614-13.5879,2.8243a7.33353,7.33353,0,0,0-1.291.5449q4.494,38.4462,9.1933,76.4531c5.8496,1.7031,11.4688.5195,17.0254.7305,5.6348.2129,11.2852-.0059,16.8828-.0352,0-1.6601.1113-3.0195-.0215-4.3555-.5508-5.5586-1.1054-11.1171-1.7988-16.6601-.4727-3.791-1.1582-7.5567-1.793-11.3281-.1015-.6094-.2656-1.4629-.6933-1.7188-1.2578-.7578-1.0391-1.7539-.8047-3.1855,2.2676-.3789,4.5703-.9161,6.9023-1.1231,5.3164-.4765,10.6895-.3965,15.9063-1.7871a1.88858,1.88858,0,0,1,1.3808.1992c1.1504.7715,2.418.6641,3.6856.7598a5.3069,5.3069,0,0,1,1.5273.5391,20.6374,20.6374,0,0,0-.6797,3.0175c-.082,1.3516.002,2.7168.0547,4.0743.3086,7.7421.6485,15.4843.9278,23.2285.0839,2.2988.0136,4.6035.0136,7.08,19.0723,1.168,37.9473.3321,56.1231-.1718,2.2519-1.3321,1.0644-2.6992,1.0117-3.9434-.168-3.9863-.2812-7.9805-.6328-11.9531q-1.04295-11.80965-2.334-23.5996-1.4853-13.57335-3.1855-27.1211c-.7051-5.6192-1.6172-11.211-2.4004-16.8184a20.35882,20.35882,0,0,1-.0762-2.6328A48.1285,48.1285,0,0,0,123.5352,139.3242Zm52.1875,81.2559a11.55583,11.55583,0,0,0-4.5039-2.2559c-1.8985-.5625-4-.8574-5.6016-1.9004-2.5117-1.6367-5.3887-2.8711-7.25-5.414-.582-.795-1.332-1.0743-2.3184-.1075-.0683-2.6425-3.1699-1.9453-3.9511-4.3984,1.7636.6816,3.125,1.207,4.4843,1.7344a4.3119,4.3119,0,0,0,.4668-.6445c1.834-4.1485,2.6172-8.7168,5.0489-12.629a1.95136,1.95136,0,0,0,.1503-.9355c.0899-3.1133.2461-6.2266.2305-9.3398q-.04395-9.334-.2578-18.6661c-.125-5.3496-.3496-10.6953-.5762-16.0429a18.82015,18.82015,0,0,0-.5605-2.7305c-.6055.7227-.9219,1.0664-1.2012,1.4395a60.32334,60.32334,0,0,0-7.6777,14.8457c-3.4004,8.8632-6.5235,17.8339-9.6875,26.7871-1.543,4.3593-2.7481,8.8457-4.4258,13.1523a15.961,15.961,0,0,0-.6367,9.457,18.32112,18.32112,0,0,1,.2187,2.1563c-.1582.0234-.3164.0469-.4726.0723-.2442-.3926-.4883-.7852-.8672-1.3926-.8438,2.25-1.5176,4.2304-.9649,6.6015.3868-.539.6641-.9257.6543-.9101a33.10469,33.10469,0,0,1,3.9707,3.1894c2.1465,2.3301,4.0879,4.8496,6.125,7.2852a4.45637,4.45637,0,0,0,3.6407,1.4434c5.1093.0996,10.2168.289,15.3242.414,1.3262.0332,2.9687.707,3.4277-1.4238.0176-.0801.2793-.1738.4102-.1524.9922.1543,1.1191-.6601,1.4922-1.25,1.3632-2.1582,2.7695-4.291,4.1484-6.4394C174.9453,221.9316,175.2891,221.3105,175.7227,220.5801ZM74.75,248.5664a8.13282,8.13282,0,0,0,.1836-1.1621c-.1738-7.4219-.3242-14.8418-.5469-22.2598-.2324-7.8183-.5293-15.6367-.8086-23.4531-.0644-1.7832-.5918-2.2441-2.3476-2.1758-.9453.0391-1.8907.0645-2.836.0547a13.574,13.574,0,0,0-2.5703-.0898c-5.7168,1.0761-11.4199,2.2304-17.1367,3.3593a5.4319,5.4319,0,0,0,.0039.7872c.5078,2.9043,1.1758,5.7871,1.5137,8.7089.9062,7.8516,1.6504,15.7207,2.5254,23.5762a7.56874,7.56874,0,0,0,.9648,2.1211,13.75775,13.75775,0,0,0-.3652,2.9844,44.201,44.201,0,0,0,.8554,4.9433c.4278,2.1172,1.2364,2.7129,3.3731,2.7188,4.0742.0137,8.1465.0898,12.2207.0918C71.4297,248.7715,73.0801,248.6387,74.75,248.5664ZM180.4824,89.6895c-2.5976,2.8574-3.7715,6.1054-4.7851,9.3632a16.957,16.957,0,0,0-.5762,5.418,28.18706,28.18706,0,0,0,.9375,4.1016c.418,2.2656.8398,4.5371,1.0781,6.8242a9.86657,9.86657,0,0,0,2.8926,5.6406c2.3984,2.668,4.9004,5.252,7.1699,8.0254a6.45409,6.45409,0,0,0,6.084,2.5c4.0703-.3848,7.6191-1.6191,9.9473-5.2891.8515-1.3437,1.914-2.5527,2.8574-3.8398,2.4746-3.3731,4.6133-6.8887,4.8828-11.2266.125-1.9824.3086-3.9609.3984-5.1093-1.2246-1.5274-2.1601-2.625-3.0214-3.7774a14.5207,14.5207,0,0,0-7.8692-5.0976c-2.8203-.8477-5.5879-1.8809-8.3711-2.8555-2.0273-.709-4.0097-1.5781-6.0742-2.1445C184.0762,91.6875,181.9258,91.7285,180.4824,89.6895Zm-1.3808,66.1074c.7812.3047,1.291.4922,1.7929.6992,1.6348.6719,3.0293.6504,4.1856-.9922a4.21737,4.21737,0,0,1,3.3828-1.5566,6.05172,6.05172,0,0,0,4.8574-2.4043c.0801-.1094.2813-.1328-.0332.0039,2.2305.2383,4.0234.5429,5.8223.5937,3.1113.086,5.8261.918,7.7246,3.5547a1.711,1.711,0,0,0,2.4824.5567,1.56034,1.56034,0,0,0,.2227-.4297c.832-5.9258,1.7636-11.8399,2.4355-17.7813a16.92921,16.92921,0,0,0-1.3965-8.1816c-.6308-1.5664-.9062-1.6074-2.8047-1.0449.0938.6875.1797,1.3945.2911,2.0976a7.25413,7.25413,0,0,1-1.1094,5.2285c-1.6446,2.5254-3.459,4.9414-5.0703,7.4883a29.66153,29.66153,0,0,1-5.8907,6.2363,1.35241,1.35241,0,0,1-2.1074.0118,25.044,25.044,0,0,1-2.6328-3.0665c-1.4492-2.1953-2.75-4.4882-4.1113-6.7402a15.37763,15.37763,0,0,1-2.3653-6.9414,4.91387,4.91387,0,0,0-.4882-1.2793,3.3121,3.3121,0,0,0-1.9532,2.7051c-.5156,2.3301-1.0019,4.6738-1.3437,7.0332C180.3164,146.2383,179.7461,150.9043,179.1016,155.7969Zm12.0859,25.959c2.5723-4.1641,4.9902-8.0801,7.4688-12.0918-.6719-.709-1.3379-1.3828-1.9708-2.0879-1.2519-1.3887-1.246-1.4043-.5839-2.5196,3.9902,5.0137,8.789,8.0039,15.7031,6.2266-.6211-2.0488-1.1856-3.9336-1.7695-5.8105a16.33845,16.33845,0,0,0-.7286-2.0254c-.9023-1.9473-.9589-4.3887-3.2207-5.5606a.66843.66843,0,0,1-.164-.6113c.3574-1.0176-.4668-1.4649-.9824-2-1.4903-1.5488-3.4883-1.8789-5.4922-2.0156-1.8418-.125-2.5996.5175-3.002,2.3554a11.153,11.153,0,0,0-.1172,1.7871c1.2266.8692,2.3692,1.6036,3.4199,2.4532.5997.4843.3731.9648-.332,1.2148-1.0547-.7637-2.1035-1.5215-3.3457-2.4219-.3555,1.2266-.584,2.0684-.8457,2.9004a11.10532,11.10532,0,0,1-.8613,2.4551c-1.8594,3.0586-3.8262,6.0527-5.707,9.0996a2.712,2.712,0,0,0-.543,1.7403A15.70289,15.70289,0,0,0,191.1875,181.7559Zm3.9688-32.8965a66.37279,66.37279,0,0,0,4.9902-5.1895c1.9082-2.4433,3.543-5.1015,5.2617-7.6894,2.2891-3.4492,1.0703-6.9024.0664-10.9082-1.082,1.5117-1.8008,2.6484-2.6582,3.6679a9.66876,9.66876,0,0,1-2.3887,2.2539,16.12977,16.12977,0,0,1-8.2793,1.8164,6.02793,6.02793,0,0,1-4.9453-1.8613,7.96293,7.96293,0,0,0-1.1347-.9004C185.5391,135.0645,190.5117,145.5078,195.1563,148.8594Zm-17.1524,23.2988c1.5352.5625,2.7168,1.041,3.9297,1.4277,2.8809.9141,4.7324.418,6.5039-2.0214,1.3965-1.9258,2.5488-4.0293,3.7969-6.0606a5.79749,5.79749,0,0,0,.5664-5.2363,18.43416,18.43416,0,0,1-.4512-3.0664c-.1387-.834-.3457-1.6582-.582-2.7735-1.6133.3438-3.0254.5313-4.3594.959-1.4668.4707-1.7578,1.1406-1.623,2.8574-2.1954.5391-2.2872.4942-3.3106,2.6075-1.4609,3.0117-2.7969,6.0859-4.1172,9.1601A9.18963,9.18963,0,0,0,178.0039,172.1582ZM36.7715,251.3711c.1523.2461.3027.4922.4551.7383,17.7988.2168,35.5957.6719,53.4824.2832a11.40669,11.40669,0,0,0-.0098-1.2774,6.74207,6.74207,0,0,0-.2656-.9336c-3.0566-.1523-6.0156-.6367-9.0977-.3671.2403.625.3789.9863.7325,1.9043-2.1563-1.9102-4.0313-2.6426-6.3282-1.6934a5.62463,5.62463,0,0,1-2.1347.0156c-4.4649-.1308-8.9278-.3379-13.3926-.3691-2.1172-.0137-4.2383.3066-6.1621.4609a15.7217,15.7217,0,0,0-2.4942-1.0058,6.71123,6.71123,0,0,0-2.1425.0507c-2.9317.336-5.8653.6778-8.7891,1.0723a22.36578,22.36578,0,0,0-2.793.6563A7.36924,7.36924,0,0,0,36.7715,251.3711Zm96.666-31.3731c.1543-.0097.3086-.0195.4609-.0273,0-.9355.045-1.873-.0058-2.8047-.3242-5.7402-.5645-11.4883-1.0352-17.2168-.5371-6.5254-1.2304-13.039-1.9668-19.5449-.4843-4.2832-1.3164-8.5293-1.7304-12.8184-.8243-8.5-2.5821-16.916-2.4297-25.5078.0175-.9707-.5274-1.1953-1.5098-1.289.0898,1.5605.1543,3.0625.2656,4.5605.3399,4.5274.5782,9.0664,1.0782,13.5781.748,6.7344,1.7187,13.4453,2.539,20.1739q1.128,9.2754,2.1309,18.5664c.4668,4.3672.7969,8.748,1.2207,13.1191C132.7539,213.8613,133.1074,216.9277,133.4375,219.998Zm56.0137,4.2715c-2.875-.7617-5.4024-1.498-7.9649-2.0781a13.89886,13.89886,0,0,0-2.9433-.0332c-.1446-.3789-.3457-.9023-.6797-1.7734-2.5078,2.998-4.9356,5.5957-6.2461,8.8105,2.7949,3.3887,6.668,2.166,9.9687,2.7988C182.2402,227.5898,186.2754,226.6797,189.4512,224.2695Zm41.4843-11.9863c.9024-.2852,1.4922-.5156,2.1036-.6562a2.48245,2.48245,0,0,0,2.2363-2.836c-.0684-1.8652,1.2324-3.0371,2.6641-3.9922a21.30849,21.30849,0,0,1,2.1269-1.08c-1.4297-3.0176-2.8047-5.9161-4.334-9.1426-.3203.9668-.5156,1.5605-.7207,2.1797-.3496-.3282-.5722-.5352-.9199-.8594C232.9492,201.4297,230.7871,206.4824,230.9355,212.2832Zm-72.7714-3.8652a29.79174,29.79174,0,0,0,2.6718,3.2207,26.50075,26.50075,0,0,0,3.3516,2.1972c.1602-5.6933-1.123-10.75-1.7539-15.8867-.2031-.0254-.4063-.0527-.6094-.0781C160.5703,201.4883,159.3145,205.1055,158.1641,208.418Zm-22.3477,13.6152c-.2031.127-.4062.2559-.6094.3828.3184,2.793.6368,5.584.9785,8.5742h9.1465c-2.5722-2.916-4.8105-5.5586-7.1894-8.0644C137.627,222.3809,136.6055,222.3184,135.8164,222.0332Zm76.7871-114.6484a4.80173,4.80173,0,0,0,3.502-5.4532,2.35216,2.35216,0,0,0-2.5469,1.6954C213.1777,104.7695,212.957,105.9629,212.6035,107.3848Zm-18.5937,52.4941c.1933-.0019.3847-.0059.5781-.0078.2363-1.9648.9902-3.8652.6934-5.957-1.6661.3027-1.7325.3066-1.6915.9785C193.6953,156.5566,193.8652,158.2168,194.0098,159.8789Zm-60.4746,62.9082q.40125,5.04495.8007,10.0879A19.57033,19.57033,0,0,0,133.5352,222.7871Zm94.2343-54.998c0,1.3828.3496,2.7109-.0742,3.7129-.8652,2.0488.3262,3.4335.9902,5.0332-.0371-2.5215-.166-5.0254-.3515-7.5254A4.32868,4.32868,0,0,0,227.7695,167.7891Zm2.4864,14.1933a10.35835,10.35835,0,0,0,2.1425,7.0039C231.627,186.4668,230.9414,184.2246,230.2559,181.9824ZM213.1914,161.748c.0645,1.8125-.5098,3.8125,1.5117,5.045Q213.94725,164.27045,213.1914,161.748Zm-33.3613,14.0274c-.6914-.6504-1.3164-1.2383-2.3067-2.1699.1114,1.1836.1797,1.9082.2539,2.709C178.5605,176.1094,179.1191,175.9629,179.8301,175.7754Zm38.5039,9.0156c-.0918-.1465-.1856-.293-.2793-.4414a7.13439,7.13439,0,0,0-3.6192,2.9004Q216.38385,186.01955,218.334,184.791Zm.0801,24.7188c-.1211-.1563-.2422-.3145-.3653-.4707-.998.7558-2.4179.9824-2.9863,2.2812.1094.1465.2188.293.3301.4395Q216.9043,210.6348,218.4141,209.5098Zm-4.2305-35.3086c-1.3184-.8789-2.2285-.5821-3.541.0234C211.9961,174.8066,212.9199,175.1172,214.1836,174.2012Zm-2.8613-93.0137c-2.3438-1.5723-2.4024-1.5586-2.7481.1875.3828-.0645.7481-.1484,1.1172-.1797C210.0547,81.1641,210.4219,81.1875,211.3223,81.1875ZM172.1836,207.2734c1.9082-.7773,1.9082-.7773,1.2988-2.6933C173.1035,205.3652,172.7285,206.1426,172.1836,207.2734Zm19.6484,5.5704c-.123-.1836-.248-.3653-.3711-.5469q-1.0956.7968-2.1855,1.5918c.0918.1347.1836.2715.2773.4062Q190.6924,213.5683,191.832,212.8438ZM186.8652,77.2617c.0469.1797.0957.3574.1446.5352.6933-.2442,1.3867-.4883,2.5332-.8926A1.99209,1.99209,0,0,0,186.8652,77.2617Zm16.5157,118.3164c.4941-.3242.9863-.6484,1.6113-1.0605C203.6504,193.9609,203.6504,193.9609,203.3809,195.5781Zm7.6816,6.4571c-.1738-.0899-.3496-.1797-.5234-.2696-.2813.8008-.5606,1.6016-.961,2.7383C211.2422,203.8828,210.4668,202.6836,211.0625,202.0352Zm4.7539-.4336c-.1445-.1621-.2891-.3223-.4336-.4844-.7734.1367-1.3242.4629-1.1601,1.9238C214.9375,202.3945,215.377,201.998,215.8164,201.6016Zm4.4688,11.6132.2109.4512q.9024-.50685,1.8008-1.0156c-.0684-.1211-.1367-.2441-.2051-.3672Q221.1894,212.7491,220.2852,213.2148Zm-25.9961-30.8242c1.1211.0137,1.6308-.457,1.5625-2.0058C195.1328,181.3066,194.7109,181.8477,194.2891,182.3906Zm3.7148,8.4219-.4336-.3516q-.52725.85845-1.0566,1.7168c.1133.0723.2246.1446.3359.2168Q197.4268,191.60355,198.0039,190.8125Zm34.3574,5.2715c-1.0293,1.0957-1.0293,1.0957-.4355,2.5078C232.123,197.457,232.2422,196.7695,232.3613,196.084Zm-6.1699-50.5469c-.0762.2461-.1523.4922-.2266.7363a13.6386,13.6386,0,0,0,1.3223.3633,3.01388,3.01388,0,0,0,.2324-.5898Q226.8574,145.79205,226.1914,145.5371Zm-47.2461-4.2383c.3379-.8418.5274-1.3203.918-2.2968C178.8145,139.6582,178.0176,139.8047,178.9453,141.2988Zm33.4922,4.6133c.1641.0176.3301.0371.4941.0567q.06165-.93165.1211-1.8633c-.1191-.0117-.2402-.0215-.3613-.0332C212.6074,144.6855,212.5215,145.2988,212.4375,145.9121Zm-4.6406,58.5508q.26655.1992.5332.3984.33975-.794.6816-1.584c-.1445-.0722-.289-.1425-.4316-.2128Q208.18755,203.7647,207.7969,204.4629Zm-21.2383-.4102c-.1699-.0507-.3398-.0996-.5078-.1504q-.15525.72075-.3106,1.4375c.1114.0293.2227.0567.334.086C186.2363,204.9688,186.3984,204.5098,186.5586,204.0527Zm35.6269-63.5175c.084-.1504.17-.3028.2559-.4551-.5371-.1406-1.0762-.2813-1.6133-.4238-.0351.1132-.0683.2265-.1035.3378C221.2109,140.1758,221.6992,140.3555,222.1855,140.5352Zm-6.8691,19.4824c.1231-.0879.2481-.1758.3711-.2617a8.43524,8.43524,0,0,0-.6816-.7383c-.0664-.0567-.2637.0351-.4004.0605C214.8418,159.3906,215.0801,159.7031,215.3164,160.0176Zm1.8711-1.5254-.1758.3867q.5274.2403,1.0547.4824c.0586-.1308.1152-.2636.1719-.3945C217.8887,158.8086,217.5371,158.6504,217.1875,158.4922Zm8.8652,6.5683c.1133-.0195.2286-.041.3438-.0605q-.0996-.6855-.1953-1.375l-.4219.0703Q225.914,164.378,226.0527,165.0605Zm-9.9824,4.4063c-.1914-.1543-.3789-.4063-.4902-.375-.1836.0469-.3164.2812-.4688.4375.1875.1836.377.3672.5664.5527C215.7949,169.8984,215.9121,169.7148,216.0703,169.4668Zm-34.0332,22.8027c.1074-.0488.2168-.0976.3262-.1465-.1856-.4121-.3692-.8242-.5547-1.2382-.1074.0488-.2148.0957-.3223.1445Q181.7617,191.64745,182.0371,192.2695ZM191.9746,83.043c-.0273.082-.0527.164-.0801.248a2.93811,2.93811,0,0,0,.7618.3985c.2031.041.4453-.1133.6699-.1817-.0176-.1074-.0352-.2129-.0528-.3203C192.8398,83.1387,192.4082,83.0918,191.9746,83.043Zm13.082,4.6211c.1504-.0762.3028-.1504.4551-.2266-.2207-.4199-.4394-.8398-.6601-1.2598q-.211.10545-.4219.211C204.6387,86.8145,204.8477,87.2383,205.0566,87.6641Zm3.5157,9.539c-.1328-.0136-.2657-.0254-.3965-.0371v1.3145l.3359-.0117C208.5313,98.0469,208.5527,97.625,208.5723,97.2031Z"/><path class="a" d="M200.2734,119.4941c-.123.7774-.039,1.3457-.2734,1.5469-3.2676,2.8301-10.0156,3.2656-13.8887.9375-.1054-.0644-.123-.2715-.2656-.6113a3.242,3.242,0,0,1,1.1895-.3067,9.52022,9.52022,0,0,1,1.7988.6075c3.7656,1.4492,7.1406.5078,10.3164-1.6758A10.21264,10.21264,0,0,1,200.2734,119.4941Z"/><path class="a" d="M204.1309,105.9004c-2.8145.543-5.2618,1.0156-7.8711,1.5195-.1524-1.7949,1.2832-2.3105,2.4316-2.9336C200.2168,103.6582,202.2168,104.1484,204.1309,105.9004Z"/><path class="a" d="M179.377,107.8047a1.80832,1.80832,0,0,1,1.3183-2.2676c1.0469-.3437,3.6504.1817,5.0586,1.0156-.5332.6211-1.0508,1.2246-1.4121,1.6465C182.584,108.0586,180.9922,107.9336,179.377,107.8047Z"/><path class="a" d="M201.1992,101.0508a7.92222,7.92222,0,0,1-5.7109,1C196.6738,100.9805,198.252,100.6719,201.1992,101.0508Z"/><path class="a" d="M183.6172,103.6738c-1.8535-.33-3.125,1.086-4.5742-.0078A3.07731,3.07731,0,0,1,183.6172,103.6738Z"/><path class="a" d="M189.2383,117.0781c-1.6035.2559-1.7461-.4902-1.3789-1.9883C188.4551,115.9492,188.8457,116.5137,189.2383,117.0781Z"/><path class="a" d="M192.1758,157.5254c-1.0762,1.5351-1.0762,1.5351-2.2559,2.041C189.916,157.6426,190.3262,157.2266,192.1758,157.5254Z"/><path class="a" d="M64.2178,96.9746c-1.7324-2.7969-2.1924-5.9473-2.8789-8.9961-.5567-2.4726-1.6211-4.9043-1.4395-7.5097.166-.0547.332-.1114.4981-.168.3261.793.6523,1.5879.9921,2.416a3.60247,3.60247,0,0,0,.3399-.3848c.5391-.8457.8877-2.2148,2.1064-1.8808.7295.2011,1.3721,1.25,1.7608,2.0586,1.3857,2.8808.5215,4.6504-2.793,5.8261C62.8232,91.2676,64.3018,93.9902,64.2178,96.9746Zm-.5782-15.4141a5.28044,5.28044,0,0,0-1.1835,4.7754c.8857.6114,1.7451.7032,2.2617-.2695C65.584,84.4395,64.8721,83.0684,63.6396,81.5605Z"/><path class="a" d="M27.1523,99.1172c-.8476-1.8516-1.6562-3.6172-2.5351-5.5371-1.293.6465-2.334,1.2187-3.418,1.6914a2.29769,2.29769,0,0,0-1.4443,1.9902c-.2569,1.6992-.6592,3.3789-1.0742,5.4317-.584-2.4278,1.3369-12.8067,2.6884-14.8809a11.72711,11.72711,0,0,1,1.8008,1.418c2.1475,2.5,3.2559,5.582,4.6299,8.5136C28.1416,98.4707,27.8916,98.9219,27.1523,99.1172Zm-5.1269-9.4043q-.30765.03225-.6152.0644c-.2579,1.3321-.5176,2.6641-.8848,4.5469,1.4639-.8222,2.4219-1.3613,3.541-1.9902C23.248,91.2832,22.6367,90.498,22.0254,89.7129Z"/><path class="a" d="M85.2373,80.7129c-1.6602.8965-1.6699-1.2266-2.7432-1.5059a16.22088,16.22088,0,0,1-1.0322,2.7774c-.3047.5215-1.1074,1.1875-1.5449,1.0996a2.44291,2.44291,0,0,1-1.6895-1.375,7.34581,7.34581,0,0,1,1.4786-6.6973,2.67437,2.67437,0,0,1,2.0703-.7109c.4023.0586.6826,1.0469.9892,1.6308C83.5547,77.4375,84.3271,78.9512,85.2373,80.7129Zm-4.2324-5.2051c-2.3047,2.6973-2.5039,4.7188-.7774,6.3926C81.6934,80.0078,81.5449,77.9961,81.0049,75.5078Z"/><path class="a" d="M112.5811,69.0176c-1.295.5664-2.4444,1.0664-3.8223,1.6679.4141.961.7178,1.8536,1.165,2.6641.7666,1.3906,1.4268,1.4902,2.6104.375.5049-.4746.8359-1.1367,1.5039-1.4844a3.38215,3.38215,0,0,1-1.9238,3c-1.0235.6543-2.1075.2657-2.8809-.8652-1.9551-2.8555-1.7432-6.002-1.0703-9.1426.2744-1.2832,1.4277-1.5644,2.3799-.6328A6.14648,6.14648,0,0,1,112.5811,69.0176Zm-2.9004-4.1914a5.76387,5.76387,0,0,0-.7071,4.5078c.8614-.293,1.6368-.5567,2.7481-.9356C111,67.1348,110.4512,66.1758,109.6807,64.8262Z"/><path class="a" d="M88.3408,75.4629c1.8653-4.3438,1.8653-4.3438,3.5625-5.5098a7.84867,7.84867,0,0,1,.8535,1.3203c.5547,1.4024,1.0176,2.8399,1.5528,4.2481.2949.7793.2812,1.3711-.8203,1.6933-.628-1.8261-1.2491-3.6328-1.9366-5.6328-2.2841,2.2227-1.7685,5.0469-2.6318,7.4864-1.7422-1.8477-2.0625-4.1348-2.9082-6.5938C88.0498,72.9219,87.3154,74.8086,88.3408,75.4629Z"/><path class="a" d="M67.0557,77.4766c1.3623-.752,2.7246-1.5039,3.8984-2.1504.6318-.9492-.5977-2.1328.9277-2.7735.1905.6055.3653,1.1602.5743,1.8243.875-.3145,1.7646-.6348,3.1347-1.127-.625,1.6719-1.8945,1.7559-2.6426,2.4648-.541,3.0918.6719,6.8887,2.8047,8.5469-.8281.9082-1.5654.7168-2.0127-.2558a31.99428,31.99428,0,0,1-1.4873-4.002c-.3213-1.0488-.4746-2.1504-.7138-3.2734C69.8398,76.4609,68.8662,78.5449,67.0557,77.4766Z"/><path class="a" d="M56.4395,88.0762c.8564.7285,1.0214,1.3769.081,1.957a3.63675,3.63675,0,0,1-4.9394-1.2715c-.3262-.5371-.6065-1.0996-.9082-1.6523.3261-.8828.6074-1.7871.9921-2.6446a3.31544,3.31544,0,0,1,2.8487-2.2226,1.90809,1.90809,0,0,1,1.5302.7012,1.78986,1.78986,0,0,1-.3378,1.6132,12.36708,12.36708,0,0,1-2.251,1.7364c-.7979.539-1.3975,1.1113-.7637,2.1328a1.84337,1.84337,0,0,0,2.6748.5488A10.16411,10.16411,0,0,0,56.4395,88.0762Zm-1.3682-4.2949q-.2139-.2433-.4268-.4864a1.91379,1.91379,0,0,0-1.6513,2.0742Q54.03165,84.57515,55.0713,83.7813Z"/><path class="a" d="M36.2949,88.2793C33.751,89.5137,33.7354,91.8633,33.4131,94a2.36545,2.36545,0,0,0,.709,2.0215,3.23245,3.23245,0,0,0,2.4082-.166,8.93762,8.93762,0,0,0,1.9765-1.7852c-.3418,2.668-3.041,4.2129-5.0039,2.9981a2.56265,2.56265,0,0,1-1.1035-1.668,11.10465,11.10465,0,0,1,1.418-6.6504C34.333,87.8379,35.0332,87.3281,36.2949,88.2793Z"/><path class="a" d="M104.7529,72.4141c.1172.1836.2032.2558.1953.3164-.2812,2.5547-1.0195,3.6562-2.5156,3.7851-1.3379.1133-2.5156-.832-3.1269-3.0879a17.13723,17.13723,0,0,1-.5371-5.1621c.0781-1.75,1.2031-2.3105,3.371-1.6484a2.70564,2.70564,0,0,0-2.4902,2.8867,7.96935,7.96935,0,0,0,1.5156,5.3984c.7461.9141,1.6524.8184,2.3672-.2031A21.08025,21.08025,0,0,0,104.7529,72.4141Z"/><path class="a" d="M48.2627,92.5762a2.48507,2.48507,0,0,1-2.0078,2.1347,2.45841,2.45841,0,0,1-2.7031-1.0781c-1.5332-2.1172-1.5743-6.5547-.0284-8.6348.5596-.7558,1.208-1.2207,2.1573-.4375a5.94786,5.94786,0,0,0-1.7129,7.6016c.9033,1.8809,1.5605,1.9883,3.1543.5371a5.75029,5.75029,0,0,1,.7275-.4844C47.9873,92.3359,48.126,92.4551,48.2627,92.5762Z"/></svg>