<svg xmlns="http://www.w3.org/2000/svg" viewBox="0 0 300 300"><defs><style>.a{fill-rule:evenodd;}</style></defs><title>gl_nav13</title><path class="a" d="M253.49218,146.833c.978,1.7549.6343,3.2197-.6885,4.7324a21.22257,21.22257,0,0,0-2.6562,4.125c-1.2622,2.3994-.6983,4.1514,1.4799,5.6963,3.3843,2.4043,6.8443,4.7305,10.0235,7.3867a38.69384,38.69384,0,0,1,5.1977,5.8272c2.6831,3.3906,3.36142,7.3994,2.8911,11.5615a43.34042,43.34042,0,0,0,.4527,11.3037,58.91182,58.91182,0,0,1-.0513,17.418,8.16324,8.16324,0,0,1-.5698,2.5488,11.11524,11.11524,0,0,0-.8482,8.669,44.54206,44.54206,0,0,1,.9258,6.6123c.0366.2871.20512.6465.0928.8525-1.4155,2.6113.0151,5.1074.2778,7.6445a8.01129,8.01129,0,0,0,1.877,4.7725,4.441,4.441,0,0,1,.9023,2.915c-.1264,2.6123-.5083,5.212-.8257,7.8135-.205,1.6826-.9399,2.9209-2.788,3.2539-1.6958.3047-2.7872,1.8682-4.7705,1.8926-5.6368.0693-11.2569.457-16.7349-1.4229a2.99559,2.99559,0,0,1-2.0786-2.1982c-.95608-3.457-1.9199-6.916-2.7232-10.4111-.4531-1.9766-.6157-4.0176-3.1235-5.4014,1.0112.0732,1.4224.1025,2.0957.1514-.1738-1.1084-.3306-2.1094-.4976-3.1768-2.3491.3457-3.3203,1.8428-3.976,3.6074a24.38577,24.38577,0,0,1-9.0503,12.0713,13.55235,13.55235,0,0,1-5.6446,2.1367c-4.2539.5704-5.1748-1.4052-3.7963-4.9277.6972-1.7793,1.7128-3.4316,2.5869-5.1494-4.127-1.6533-8.0367-3.1904-11.9146-4.7969a13.59012,13.59012,0,0,1-2.7832-1.5771,6.17109,6.17109,0,0,1-2.4502-7.1748,36.804,36.804,0,0,1,1.5015-3.7764c.4868-1.1592,1.00632-2.3047,1.7388-3.9727-1.9664,1.2198-3.5396,2.167-5.08348,3.1573-1.92,1.2314-3.72612.1045-5.53372-.3897-.7378,2.8594-1.7657,5.5205-2.0039,8.25a8.83252,8.83252,0,0,0,1.5004,5.167c3.649,5.5576,2.3536,10.9111-.1879,16.3115-.608,1.2891-1.8833,1.3682-3.0747,1.7627-2.5503.8438-4.983,2.0391-7.5284,2.9043a5.58889,5.58889,0,0,1-2.9619-.1943c3.6875-1.3535,8.0176-1.2432,10.4102-5.3779.3794.1611.7925.3379,1.2148.5175,3.0176-3.1279,4.3858-9.3701,2.3618-12.874-1.9321-3.3428-3.6372-6.6299-3.0761-10.6289-1.542-.4707-2.8125-.8603-4.0909-1.251-1.1035,1.0127-.6728,2.044-.311,3.0215.67532,1.8174,1.3589,3.6358,2.1372,5.4112a8.44715,8.44715,0,0,1,.3589,5.6914c-.4517,1.7812-.7437,3.6025-1.2065,5.3808a15.79205,15.79205,0,0,1-1.0289,2.336c-.9306-.4454-1.5712-.751-2.393-1.1446-.3252,1.2041-.5918,2.1983-.8902,3.3135-.8627-.2256-1.5815-.4121-2.3393-.6084a3.76,3.76,0,0,0-.0117-.8691c-.1265-.4786-.3199-.9385-.4854-1.4063-.4687.2578-1.2783.4512-1.3437.7881a11.79948,11.79948,0,0,0-.1133,3.1611c.32322,3.9014-1.5635,7.0557-3.5249,10.1182-.4942.7725-1.7451,1.1426-2.7183,1.5059-2.0893.7763-4.2124,1.4648-6.3437,2.1181a21.3011,21.3011,0,0,1-3.9522.9571c-6.2124.6484-12.3935.6445-18.4839-1.0704a5.52554,5.52554,0,0,1-3.8501-3.2597,29.186,29.186,0,0,1-1.7905-4.9063,86.761,86.761,0,0,1-1.4946-8.8877,17.68444,17.68444,0,0,1,.4131-3.9384c1.7187-.1797,3.0566-.3204,4.7466-.4961-3.3257-1.459-2.9297-4.793-4.2769-7.1631-1.3145-2.3155-2.9121-4.6289-2.5889-7.5469,0,0,1.75152,2.8848,1.8384,3.0283,2.9688-1.8642,5.9336-3.7256,8.9653-5.6279-.40718-3.7168-3.3964-6.6416-3.3964-10.3428.2514-.0791.5024-.1562.7539-.2344.5322,1.4717,1.0639,2.9454,1.7177,4.75.6319-.6211,1.355-1.0224,1.3228-1.3486-.273-2.7939,1.147-5.1045,2.2309-7.4131,2.4971-5.3203,3.3047-10.9472,3.4947-16.6933.1909-5.8223.0171-11.6553.2456-17.4756.187-4.7442.6235-9.4854,1.165-14.2041.271-2.3653.1114-4.4366-1.9565-6.4287-1.3872.4228-2.96488.9004-4.6836,1.4228-.4902-4.1914.8296-7.8633,1.6865-11.8984-.7427.1992-1.2944.1777-1.5649.4433-4.0142,3.9356-8.2764,7.626-11.5181,12.3086-2.2764,3.2852-2.8506,6.9942-3.0234,10.7783-.5313,11.6407-.9146,23.2881-1.3785,34.9327-.1127,2.8125-.3686,5.6201-.4614,8.4326a24.959,24.959,0,0,0,1.5571,10.5654,8.00031,8.00031,0,0,1,.4517,5.6826,3.19186,3.19186,0,0,0,.5161,3.0088,26.36833,26.36833,0,0,1,1.8745,3.8086c-.5991.2041-1.16988.3975-1.7763.6035-.875,1.4776-1.7989,3.0528-2.7383,4.6182a5.23515,5.23515,0,0,0,.7729,6.8525c.2515.2725.7315.5694.7095.8194-.2598,2.9521,1.9038,3.7285,4.0005,4.6006a1.59569,1.59569,0,0,1,.77782.7968,7.57563,7.57563,0,0,1-6.70552-4.1201c-4.1954-.3359-8.1831-.6572-12.2989-.9892.773.9931,1.522,1.955,2.1695,2.7861-.7637,3.4209-3.1607,4.375-5.9185,4.2226a45.75323,45.75323,0,0,1-8.6035-1.3369c-3.8457-.9677-7.7017-2.0107-11.0908-4.2558a36.79332,36.79332,0,0,0-3.7744-1.8858c.2324-1.7383.4838-3.6172.7578-5.666-.8955-.6201-1.6714-.0264-2.4341.5596a31.32971,31.32971,0,0,0-2.9619,2.3428c-2.9873,2.9306-6.7652,3.5517-10.6861,3.9209a38.28534,38.28534,0,0,0-4.4502,1.0156c1.1075,1.1953,1.7691,1.9092,2.6797,2.8935-1.3852,1.0069-2.893,2.1026-4.5512,3.3067a5.522,5.522,0,0,1,2.5898,4.709,7.87123,7.87123,0,0,1-1.457,4.2724,7.3872,7.3872,0,0,1-6.1802,3.4815c-3.082.248-6.1401.7851-9.2187,1.1181a2.13291,2.13291,0,0,1-1.5455-.4736,6.81751,6.81751,0,0,1-1.0337-7.5156c.6993-1.3262,1.525-2.585,2.3921-4.0381-1.22068-.0684-2.2573-.1279-3.5449-.2002v-8.917c-1.1084-.3594-2.0957-.6699-3.0737-1.002-1.7432-.5957-3.5249-1.1044-5.2095-1.8339a9.77434,9.77434,0,0,1-5.7114-5.8526c-1.166-3.2871-2.8423-6.3994-3.9053-9.7138-2.2881-7.1329-.854-10.3438,5.6397-14.2344,2.3208-1.3897,4.4482-3.1065,6.6347-4.7149a4.22486,4.22486,0,0,0,1.814-3.4873c.07572-5.4091,1.27-10.7685.1514-16.249-.5103-2.498.0708-5.2158.1342-7.834.087-3.5801.20612-7.1601.2115-10.7402.0058-3.2979-.2022-6.5947-.1646-9.8906.0283-2.4639.1343-2.462-1.2432-4.9278-1.0439,1.3604-2.0673,2.6944-3.3515,4.3672a41.83953,41.83953,0,0,1-2.4429-3.8662c-.6523-1.3428-1.9634-2.292-1.7075-4.2217.186-1.4082-.65768-2.9804-1.1563-4.4414-.5332-1.5596-1.1567-3.0928-1.81338-4.6054-3.01862-6.9668-3.48342-14.4825-4.80722-21.8194-.6831-3.79-.8003-7.6767-2.2734-11.3525-.5771-1.4424-.21238-3.2617-.2642-4.9102-.1826-5.7178-.2524-11.4082,1.2232-17.0283.9585-3.6494,1.5102-7.4043,2.3735-11.083.7486-3.1826,2.125-5.8193,5.2364-7.6279,3.4882-2.0293,6.5722-4.7461,9.8715-7.1065A7.11873,7.11873,0,0,1,53.771,70.8564a12.68269,12.68269,0,0,1-1.32282,1.4239c-4.518,3.1767-9.0854,6.2861-13.5507,9.5351a6.03274,6.03274,0,0,0-2.0362,2.7305,68.69318,68.69318,0,0,0-2.6162,8.918c-.8652,4.2705-1.3872,8.6084-2.0542,12.9179a3.06431,3.06431,0,0,0-.082.5752q.2775,5.78625.5698,11.5684a20.6414,20.6414,0,0,1,3.8252.0517,21.44667,21.44667,0,0,1,3.6123,1.4034c.0654,1.8642,1.1255,3.6103-.019,5.5605-.3457.5928.0493,1.7129.2885,2.5381,1.1065,3.8213,2.3448,7.6045,3.4058,11.4385,1.29052,4.6679,2.4414,9.375,3.6729,14.0586.6884,2.6181,1.416,5.2265,2.1362,7.8369.0771.2773.2607.5254.33542.8027.31158,1.167.32568,3.1494.94928,3.3594a22.27734,22.27734,0,0,0,6.2075.8721c3.7641.1484,6.2265-1.9209,7.9223-5.3477-.4458-2.2021-.8569-4.626-2.7397-6.6006a6.34057,6.34057,0,0,1-1.543-5.164c.2769-2.6045.6612-5.1963.8882-7.8018a8.158,8.158,0,0,1,2.8525-5.2441c.2701-.2588.6822-.6289.9605-.5782,2.0185.3721,3.43942-1.0634,5.1553-1.5742,2.4555-.7295,4.7978.1397,7.1108.8819a19.84921,19.84921,0,0,0,1.8482.7851c3.9228.8193,5.7397,2.6543,6.5683,6.5733a30.15025,30.15025,0,0,0,1.2695,4.4472c1.5118,4,1.0425,6.1582-2.2993,9.1846a11.3241,11.3241,0,0,1-1.0942,9.8662c2.48682,1.7139,4.0664,7.1201,3.4277,11.6064-1.8535-.4277-4.00488-1.5048-4.8413,1.4922a7.76277,7.76277,0,0,0-1.2197-.5566c-1.8735-.4395-2.56688.1787-2.2637,2.0566a32.67574,32.67574,0,0,0,.73,3.416c1.2964,4.75,1.1152,9.6084,1.208,14.459a19.36191,19.36191,0,0,0,.9277,5.9619,20.7347,20.7347,0,0,1,1.3243,7.1006c-.0123,1.6504-.0127,3.3096.1372,4.9502.16162,1.7705.5053,3.5225.7954,5.459-1.0752.0186-1.3726-.8652-1.4644-1.6445a65.65975,65.65975,0,0,1-.5298-6.668c-.0512-3.3183-.2412-6.5273-1.63858-9.6699a12.63045,12.63045,0,0,1-.71392-5.4141,50.80073,50.80073,0,0,0-2.7969-19.8183c-.7388.7607-1.354,1.3935-2.0654,2.1279a8.73672,8.73672,0,0,1-4.5767-5.2266c-1.3437-3.7187-2.7592-7.4121-4.16108-11.1093a12.36162,12.36162,0,0,0-.74172-1.3731c-.4819.4453-.8521.7393-1.165,1.086a84.17858,84.17858,0,0,1-5.8682,6.4492,13.16122,13.16122,0,0,0-4.26808,9.2275c-.58542,6.4766-1.51322,12.9238-2.02542,19.4043-.4931,6.2559-.64058,12.54-.95458,18.8106-.01852.373-.22362.7392-.24752,1.1142-.2056,3.2617.5049,6.0098,3.35252,8.1768,2.687,2.0439,4.99318,4.584,7.48388,6.8896a5.72454,5.72454,0,0,0,3.2188,1.8037,7.56723,7.56723,0,0,1,2.7846,1.4375,13.82509,13.82509,0,0,0,7.2896,2.5811c.8257-2.0742,1.6059-4.0391,2.49612-6.2744a8.94836,8.94836,0,0,0-2.65332-1.4561,4.83659,4.83659,0,0,1-3.1734-2.3164c-2.2612-3.0264-4.5766-6.0137-6.75-9.1025a17.85377,17.85377,0,0,1-1.937-3.8916c-.7964-2.0821-1.5146-4.2012-2.105-6.3477a11.70183,11.70183,0,0,1-.3447-3.4492c.1377-4.1738.3569-8.3447.5713-12.5147.0483-.9335-.06788-2.0293,1.6308-2.2128-.0708.8945-.1293,1.7128-.1972,2.5312q-.46665,5.6601-.93748,11.3184a9.49671,9.49671,0,0,0,1.47118,6.166,27.0948,27.0948,0,0,1,5.08982.0703,29.78948,29.78948,0,0,1,4.88278,1.8359,6.35847,6.35847,0,0,1,3.4658,3.3545c1.625,3.293,3.3047,6.5586,5.0586,10.0293.7417-.5088,1.5059-1.0322,2.2686-1.5576,1.5928-1.0967,3.1133-2.1836,5.291-1.9473.7359.0801,1.7319-.7461,2.3555-1.3994,1.6738-1.7529,3.1855-3.6611,4.8154-5.4619,1.1001-1.2148,1.3145-1.1963,2.7017-.3935a34.64946,34.64946,0,0,1,4.15962-2.6241,2.88038,2.88038,0,0,0,1.87748-3.458c-.2437-1.7285-.2417-3.499-.5791-5.207-.9912-5.0303-1.6421-10.1514-3.8238-14.8858a12.55383,12.55383,0,0,1-.581-2.332q.2937-.0996.5889-.2012c.2324.4512.5034.8858.6933,1.3545q2.4024,5.9385,4.7754,11.8897c.8574,2.1621,1.6289,4.3603,2.5044,6.5156a7.52441,7.52441,0,0,1-.32858,6.1914,25.17182,25.17182,0,0,0-2.21392,9.2871c-.09908,2.1182-.22308,4.2442-1.9248,6.0742,2.22372,1.0684,4.2569,2.044,6.1821,2.9678,2.5718-4.0732,5.3252-8.2695,7.9048-12.5713,1.5415-2.5732,2.8457-5.2929,4.1949-7.9795a6.8551,6.8551,0,0,0-.1646-6.3984c-3.23048-6.751-7.1846-13.0742-11.043-19.4678a77.71066,77.71066,0,0,1-5.0673-10.7705c-1.69-4.1308-4.2081-7.3222-8.4024-9.1152a29.90859,29.90859,0,0,1-4.0049-2.3604c-1.79588-1.1308-3.45988-2.4941-5.7588-2.5468-1.1328-.0254-1.4873-.9532-1.8217-1.9288,3.9648-.0224,4.2329-.0273,4.1611-4.1904a110.53979,110.53979,0,0,0-1.1528-14.7392c-.7115-4.6866-2.1524-9.2588-3.1368-13.9092-.561-2.6543-.646-5.417-1.2978-8.043a66.49955,66.49955,0,0,1-1.7236-19.6504c.0454-.8701.1787-1.7363.271-2.6035q.40128.00735.8032.0166v12.4717c2.0918-1.2149,3.6142-2.0996,5.4756-3.1807a51.52333,51.52333,0,0,0-.9971-6.7285c-1.4561-5.2227-2.9194-10.4678-4.8516-15.5234-1.476-3.8623-4.0097-7.1162-8.2519-8.4229a12.24021,12.24021,0,0,1-2.7715,1.2344,6.10621,6.10621,0,0,0-5.124,4.084,6.65434,6.65434,0,0,1-.8994,1.2031c-.7745-.6328-1.4937-1.1924-2.1807-1.7891-2.687-2.3359-3.6177-2.2832-6.0166.3301a15.66093,15.66093,0,0,1-1.4116,1.1641c-.5923-1.7197-1.1602-3.127-1.5552-4.5821-.457-1.6855-.7725-3.4091-1.1279-5.121-.1182-.5665-.4375-1.3077-.2071-1.6983,1.3296-2.248-.13468-4.334-.2246-6.4863-.0556-1.3262-.2514-2.541-1.8867-2.8418a1.046,1.046,0,0,1-.6626-.5342c-1.1479-2.7012-2.1059-5.6113-1.4512-8.4248a10.01927,10.01927,0,0,0,.1953-4.7217c-.64588-2.8242.6485-5.1064,2.1695-7.2842.206-.2919.7803-.3252,1.8139-.7168-2.3696,3.4336-4.1635,6.4288-1.9555,10.2413.3779-1.2012.7207-2.2862,1.062-3.3702.1919.0323.3833.0635.57422.0957v6.2657H51.05568c.3398,2.0488.58,3.9463,1.0107,5.7978a2.21664,2.21664,0,0,0,1.2285,1.4092,2.78154,2.78154,0,0,1,2.0235,2.8496,14.936,14.936,0,0,0,3.2841,8.2666,4.27521,4.27521,0,0,1,.7559,1.2393,12.59587,12.59587,0,0,0,7.126,7.5283,19.50287,19.50287,0,0,0,3.479-8.6074,57.45951,57.45951,0,0,1,2.0654-8.3809c.22322-.7344,1.1641-1.2471,1.76122-1.873,1.71288-1.7969,1.67338-2.9073.01758-4.8819a3.60276,3.60276,0,0,1-.6489-1.8086c-.3589-2.8818-.6631-5.7734-.96-8.6631-.456-4.4726-2.55468-5.2539-6.6118-4.5341a8.01976,8.01976,0,0,1-4.7617-.5186c-.3604-.1504-.7363-.2617-1.1055-.3906.1719-.252.3438-.5049.5147-.7559.4717.0547.9428.1309,1.4165.1602a21.58443,21.58443,0,0,0,3.05812.1289c1.27288-.1026,2.52928-.3984,4.01458-.6494-2.0312-1.7617-4.5693-1.833-6.9091-2.4248-2.7374-.6914-4.48148,1.0234-6.3096,2.8984a4.19133,4.19133,0,0,1,3.2148-3.9004,10.99437,10.99437,0,0,1,3.1699-.1523c4.67242.3076,8.4981,2.5713,11.938,5.5088a8.37365,8.37365,0,0,1,1.6582,2.9746c1.6968,3.7353,2.5274,7.5459.772,11.5224.4214,3.1856-.8711,5.67-2.7827,8.1602-1.1665,1.5215-1.5068,3.6777-2.1738,5.4326.8032.9443,1.6855,1.5713,1.9765,2.4043a5.76708,5.76708,0,0,0,3.8267,3.5967c3.9653,1.5332,6.3672,4.7275,7.959,8.4736,1.4761,3.4756,2.7192,7.0615,3.8608,10.6641a37.63019,37.63019,0,0,1,.7974,5.1396,6.924,6.924,0,0,0,1.0654,2.8155c.4028-2.2237.793-4.4483,1.2114-6.668.3081-1.6192.6636-3.2295.98-4.8467.9307-4.749,3.6602-8.1953,7.52352-10.9932,3.19818-2.3173,6.17718-4.9404,9.331-7.4912-1.20562-1.8203-1.791-3.7265-4.53512-3.5722-1.9766.1113-2.8497-1.4375-3.0518-4.085-2.3599-1.2471-2.9419-3.4043-1.2246-5.6611a10.14116,10.14116,0,0,1,3.3901-2.6211,5.57225,5.57225,0,0,0,2.85942-3.1074,23.69606,23.69606,0,0,1,1.63818-3.4082,8.96157,8.96157,0,0,1,10.104-4.6368c1.98582.4034,3.9097,1.1162,5.855,1.711,2.4443.749,3.7881,2.582,4.69582,4.832a5.294,5.294,0,0,1,.20308.5469c.85792,3.0488,1.7358,5.9258,4.60892,8.0039a5.69168,5.69168,0,0,1,2.43208,6.4082,3.50734,3.50734,0,0,1-2.9546,2.8086c-1.6279.2705-3.251.5703-4.8613.8535-1.5151,1.9893-3.0156,3.96-4.59518,6.0332,2.07958,1.2832,3.84518,2.4111,5.646,3.4805,4.42378,2.625,7.79288,6.0263,8.80558,11.3349a6.14739,6.14739,0,0,1-.0175,2.4151,32.18993,32.18993,0,0,0-.3433,6.0634c.11522,7.96.3403,15.919.4341,23.878a53.45722,53.45722,0,0,1-.4917,5.497,5.17565,5.17565,0,0,0-.0708,1.4112c1.0761,5.6103,2.292,11.1963,3.24662,16.8281.67178,3.959.99748,7.9766,1.51508,12.2881,1.6621-1.583,3.3018-3.0449,4.7964-4.6436a2.39508,2.39508,0,0,0,.24752-1.8271c-.32912-1.6104-.97162-3.167-1.19622-4.7861a32.44444,32.44444,0,0,1-.5577-7.5079,20.4364,20.4364,0,0,0-.3364-7.9668,11.24967,11.24967,0,0,0-.90668-2.6923c-.96292-1.5684-1.252-3.3037-.22022-4.669,2.32122-3.0752,3.1284-6.7715,4.623-10.293,1.1377-.1445,2.24022-.2841,3.3784-.4267a41.264,41.264,0,0,1-2.271-20.044c.1934-1.332.0962-2.705.1983-4.0537.24752-3.2724,2.3364-5.416,5.43452-6.6289,1.88968-.7392,3.45658-2.3076,5.45168-3.7011-2.4072-2.2266-4.2319-4.5225-7.3325-5.2442-5.61618-1.3056-7.7617-5.3525-5.8555-10.7617a11.56561,11.56561,0,0,1,4.3154-6.0625,3.36112,3.36112,0,0,0,1.58792-3.1856c-.03022-.958.32128-1.9238.31788-2.8867-.0137-3.3457,1.7988-5.2158,4.8286-6.08,4.27252-1.2168,8.4829-1.8497,12.6289.6738,2.4478,1.4902,3.5884,3.7803,4.4678,6.2441a5.92754,5.92754,0,0,0,2.334,3.1143,17.17351,17.17351,0,0,1,6.7666,8.8701c.4907,1.5449.5776,2.7725-1.1489,3.6455a17.77263,17.77263,0,0,0-2.5943,1.8887c-1.4155,3.2392-2.98,6.2383-4.042,9.4052a46.16994,46.16994,0,0,1-5.5517,10.6924c-3.4566,5.2618-6.3042,10.9229-9.4297,16.4034-.76318,1.3388-1.6031,2.6347-2.4658,4.0439,2.2959,1.7158,4.4462,3.1494,7.4707,2.0693,4.7363-1.6904,11.9853,2.3721,13.0766,8.1465.0894.4756,0,1.0508.2368,1.4268,2.3169,3.6562,1.3682,7.5713,1.0791,11.4717-.1899,2.5439-1.0864,4.4404-3.4389,5.6298a5.95827,5.95827,0,0,0-3.4903,4.4834c-.479,2.3907-1.8652,4.5996-2.9746,7.1661.1241.0869.7979.7089.91122.6191,1.63228-1.29,2.94578-.1436,4.30068.4961,1.2188.5742,2.397,1.2363,3.8755,2.0068.2666-2.1133-.6147-3.7265-1.166-5.4043a12.44848,12.44848,0,0,1-.9863-5.4355c.4092.1074.789.0898.896.2529,2.5488,3.8887,5.1528,7.7451,7.5478,11.7275.8799,1.4659,2.0459,1.3985,3.23832,1.1456,3.11568-.6602,6.19628-1.4893,9.38968-2.2745,0-1.6416.0922-3.0849-.0181-4.5127a123.0034,123.0034,0,0,0-1.1831-12.458,49.79751,49.79751,0,0,0-2.9732-8.7959c-1.9521-5.0634-3.9995-10.0908-6.0395-15.1201a4.957,4.957,0,0,0-4.0249-3.125c-4.9575-.7676-8.35988-3.3076-9.9131-8.1855-.57078-1.791-2.2563-3.1719-2.0464-5.4717,2.45662-.1436,3.1187,2.4268,5.0474,3.2168,1.7827-3.419,2.4263-7.3897,5.4971-10.5957.7924,3.1914-1.0772,5.75-.691,8.6045,2.7544-.9112,3.3589-4.8281,6.8745-4.7012a29.19593,29.19593,0,0,0-5.018-9.9756,7.869,7.869,0,0,0-5.21138-2.9277,2.41924,2.41924,0,0,1-1.56212-.8555c.4585-.1611.9458-.5156,1.3702-.4521a9.76961,9.76961,0,0,1,6.7866,4.0527,26.215,26.215,0,0,1,3.29932,6.124c1.12158,3.1407,3.66408,5.2852,5.42328,8.1836.0826-1.5879.1929-3.1738.2403-4.7636a11.83276,11.83276,0,0,1,3.811-8.5284c2.0186-1.9306,3.9277-3.9775,6.1211-6.2129-2.125-.6738-3.8325-1.2558-5.5635-1.7548a21.91417,21.91417,0,0,1-9.7998-6.6006c-4.2998-4.6465-3.915-12.7246,4.5552-15.8623,2.9092-1.0772,5.1738-2.3389,6.8037-4.9395,1.51372-2.415,3.9038-3.6465,6.5664-4.5195a21.43291,21.43291,0,0,1,13.1392-.5391c3.832,1.124,5.7812,3.8467,6.978,7.1865a7.24829,7.24829,0,0,0,3.2002,4.2481,15.8766,15.8766,0,0,1,1.8398,1.4277c4.1949,3.3565,5.375,7.1563,3.9712,12.3272-.7739,2.8418-2.3823,4.9472-5.1899,5.8193-3.6934,1.1475-7.4614,2.0567-11.2324,3.0781,1.5761.7286,3.32222,1.4004,4.938,2.3057,4.3281,2.4209,8.5146,5.0986,11.6494,9.0127a10.00667,10.00667,0,0,1,1.8593,4.5019,116.1393,116.1393,0,0,1,1.2154,20.0176,20.13106,20.13106,0,0,1-.4092,2.624c2.5747-.4746,4.1099,1.4825,6.1138,2.4112.3442.1601.85452.3769.9214.6543.8154,3.4053,5.1049,4.6152,5.29,8.4004a.6423.6423,0,0,0,.2739.4931c2.4575.9698,2.4375,3.1944,2.815,5.2852a4.62152,4.62152,0,0,0,1.2119,1.9385,2.95392,2.95392,0,0,1,.3315,3.7402,4.41783,4.41783,0,0,0-.7016,2.4014c.374,3.0459-.74658,5.042-3.6871,5.9775.3121-.4521.52352-1.0488.9458-1.3271,1.6451-1.0909,1.834-2.6348,1.524-4.3604-.11528-.6494-.3457-1.2773-.5025-1.8379,2.1109-2.4853,2.0855-2.4658.3448-4.8896a3.82459,3.82459,0,0,1-.8833-2.0772c.05172-1.6972-.0498-3.0976-2.0826-3.5596a1.3918,1.3918,0,0,1-.7832-1.0908c.1089-2.2343-1.0166-3.6133-2.8266-4.6845a2.502,2.502,0,0,1-.9326-1.4073c-.5171-1.8418-1.5044-2.9023-3.5337-2.3379-.5235-1.0058-.3365-2.581-1.8257-2.3867a6.52566,6.52566,0,0,1-4.5708-.9678c-.5669-.3505-1.68308.0508-2.49808.2823a7.833,7.833,0,0,0-1.66312.8994c-2.8134-1.3291-3.66888-1.0889-5.0981,1.3183a6.94987,6.94987,0,0,1-1.2153,1.9405c-2.1656,1.7646-3.08548,4.1621-3.7564,6.7304-.1709.6504-.2129,1.6104-.6484,1.8721-2.8609,1.7149-2.53368,4.5342-2.7881,7.2178-.2393,2.5059.5112,4.3691,2.8931,5.4346.1255.0566.15232.3369.2241.5068-.9204,2.6494-.4614,3.335,3.09522,4.2061.20608-.8936.42628-1.7833.61478-2.6778.6171-2.9306,1.0751-5.9053,1.88522-8.7822.63038-2.2402,1.30178-2.5078,3.41848-1.9004a6.1953,6.1953,0,0,0,4.7861-.1748,1.93618,1.93618,0,0,1,1.6206.0068c3.354,2.1094,6.834.3535,10.4111.4405,1.03472,3.0507,2.1656,6.1298,2.1861,9.4804C251.78808,144.3516,251.96388,145.875,253.49218,146.833Zm-133.0195-36.9756c1.3647-1.5156,1.3569-3.4482,1.3076-5.375q-.6204,2.72025-1.2329,5.4512c-.4468.8164-1.3423,1.5205-.31938,2.6602Q120.35037,111.2255,120.47268,109.8574Zm-27.5918,128.043a5.24284,5.24284,0,0,1-3.9454,2.334c-.64248-1.3965-1.1718-2.543-1.8554-4.0303a21.66528,21.66528,0,0,1,2.6748-2.3174,19.37133,19.37133,0,0,1,3.1582-1.3271,10.00879,10.00879,0,0,0-4.0723.3183c-1.6401.4414-2.0454-.4179-1.98678-1.8037-7.52732,2.1016-10.50152,5.2188-9.92822,10.7705-.57178-.084-1.1519-.1328-1.7139-.2607-2.8281-.6426-2.8306-.5977-4.23,2.0029a6.30168,6.30168,0,0,1-2.0522,2.6699c-3.6416,1.9131-7.09668,4.4805-11.5986,3.96-2.1128-.2441-4.254-.2725-6.358-.5674a3.48165,3.48165,0,0,1-1.9707-1.1348c-3.4497-4.0732-6.37638-8.4521-5.5615-14.1318a24.68567,24.68567,0,0,1,2.0977-6.5908c.8115-1.7852,1.456-3.7822,3.5761-4.7588,1.2115-.5586.7671-1.7412.2798-2.9629-3.2939,2.168-6.4277,4.2158-9.5439,6.2901-3.7783,2.5136-4.6851,6.1298-3.3418,10.1904,1.30222,3.9404,3.0879,7.7187,4.6099,11.5879a7.62645,7.62645,0,0,0,4.1298,4.2871c6.4429,2.8965,13.0181,4.9062,20.2466,3.4414,4.8916-.9922,8.8145-2.9756,10.10892-8.2529.47218-1.9278.84468-3.8799,1.26318-5.8213a5.80232,5.80232,0,0,1,5.2334-.6504,5.33852,5.33852,0,0,0,2.8677.1513,9.91067,9.91067,0,0,1,5.955.7237c2.108.7588,4.2471,1.4316,7.0181,2.3574a16.66677,16.66677,0,0,1-1.8603-2.2695c-.8379-1.5909-3.2295-1.9815-3.2037-4.2041,1.6573,1.1201,3.30862,2.25,4.981,3.3486a2.97083,2.97083,0,0,0,1.0581.3936c3.83452.7431,7.2358.4169,9.7554-3.1817,1.7246-2.4599,1.3135-4.9375-1.4824-6.1279a27.04187,27.04187,0,0,0-3.3633-.9912c-2.6099.9209-.503,3.8681-2.7158,5.0244-.2398-.709-.4498-1.3272-.5743-1.6895-2.0522.1289-4.3432-.58-5.6255,1.7911.4688.2001.9673.413,1.4673.625q-.2409.40275-.48088.8066Zm84.9043-10.1524q.6408-1.264,1.2812-2.5224c-1.98438-1.3877-2.06438-3.1377-1.3872-5a31.34236,31.34236,0,0,1,1.4951-3.1445,5.96283,5.96283,0,0,0-.2988-6.2452,75.3071,75.3071,0,0,1-23.70948,1.3477c-1.37212,3.6455-2.68062,7.1211-4.13282,10.9766,4.4844,0,8.46.2382,12.3926-.0684,3.8721-.3008,7.7021-1.1514,12.2334-1.8691-.833.7343-1.1441,1.207-1.5586,1.332-.8262.251-1.7681.1631-2.56058.4726-4.01172,1.5723-8.16162,1.3985-12.34622,1.2452-2.58978-.0938-5.1889.1289-7.6655.205-.8994,1.8721-1.6572,3.4483-2.563,5.335,4.3091.7871,8.0996,1.5801,11.9263,2.1309a15.61454,15.61454,0,0,0,4.9243-.1377c3.3296-.6036,6.5952-1.5772,9.93212-2.1231,1.38138-.2265,1.72558-.9951,2.08988-2.0058Zm72.1733,3.7735c.1733.1621.3481.3252.522.4873-1.4268,1.293-2.85348,2.585-4.147,3.7578q10.5996-1.2099,21.832-2.4932c-.3344-3.4111-.6577-6.7304-1.0127-10.3574-4.623,2.9287-8.5337,6.2383-13.56778,7.3574,3.08688-1.9336,6.27-3.6914,9.35008-5.6113,3.4882-2.1767,5.3081-5.5752,6.1167-9.4658a28.63316,28.63316,0,0,0,.5649-6.6572c-.1426-4.4551-.6216-8.8995-.8086-13.3545-.18508-4.3555-.0972-8.7227-.2998-13.0772a11.86566,11.86566,0,0,0-1.062-4.167c-3.0371-6.8164-8.9785-10.6494-15.29-14.8134a47.6169,47.6169,0,0,0-.461,5.2285,18.40776,18.40776,0,0,1-1.7827,8.4756c-1.7944,3.7685-3.6021,7.541-5.6475,11.1738a25.67893,25.67893,0,0,1-7.145,7.9717c-1.6626,1.2343-2.3022,1.2968-3.8525-.087a19.02629,19.02629,0,0,1-3.4488-3.9082,51.8628,51.8628,0,0,1-7.8139-26.7656c-.0293-.9951-.0034-1.9912-.0034-3.1504-2.313,1.1494-4.2906,1.96-6.0757,3.0801a7.20263,7.20263,0,0,0-2.7569,2.8272,21.97722,21.97722,0,0,0-1.6044,5.8447c-.4781,3.3525-.4771,6.7803-1.0352,10.1181-1.6104,9.5987-2.06928,19.2833-2.4946,28.9766-.0943,2.1484.4214,4.1465,2.2734,5.3984,2.4092,1.627,4.9282,3.0967,7.4546,4.5391a2.61533,2.61533,0,0,0,1.9009.1992c2.91942-.9795,5.7978-2.0791,8.81442-3.1826-1.18552-2.8105-2.14012-5.8603-4.71732-7.8057a6.09555,6.09555,0,0,1-2.4853-5q-.167-4.21275-.1397-8.4335a21.04648,21.04648,0,0,1,.4234-2.9737c.688.3174.8911.6299.8843.9385-.0782,2.9043-.23438,5.8086-.2823,8.7148-.041,2.4219.5054,4.5801,2.7237,6.0772a6.49518,6.49518,0,0,1,1.76122,2.2646c1.03948,1.8643,1.88958,3.837,2.97308,5.6719a1.68464,1.68464,0,0,1-.6206,2.6416c1.1621,1.5254,2.1807,2.8682,3.04252,3.9981,1.59468-1.0635,2.91548-2.3604,4.49758-2.9151a17.14165,17.14165,0,0,0,8.2217-6.1191,9.37662,9.37662,0,0,1,4.8828-3.4981q-4.46412,4.6554-8.95508,9.336c1.44578,3.7422,2.83448,7.3379,4.21578,10.917C247.30368,234.6094,248.209,232.0713,249.95848,231.5215ZM221.25488,78.8428c-1.6797,2.7461-3.27,5.2607-4.7695,7.8271-1.5381,2.6328-2.9859,5.3174-4.6392,8.2774-.5669-.752-1.0054-1.083-1.09618-1.4932-1.06542-4.7969-2.07762-9.6074-3.09962-14.3906-3.6143,1.1875-9.2158,7.2178-9.6655,10.9433a61.23225,61.23225,0,0,0-.0542,7.2998c.15232.0362.3061.0713.4594.1075q.57645-1.8516,1.1543-3.7022c.2271.042.4527.085.6802.1279a8.72837,8.72837,0,0,1-.6894,4.7793c-2.1524,5.3379-2.3755,10.5313,1.33,15.4219a3.74713,3.74713,0,0,1,.28082,2.3985,116.56369,116.56369,0,0,0-.50052,22.3632c.8208,9.4414,2.5449,18.8106,2.3003,28.3379-.0112.4834.0596.9688.0908,1.4532.4912,8.0371.8902,16.083,1.5176,24.1093.293,3.7549,1.00982,7.4785,1.5825,11.209a7.395,7.395,0,0,0,.6719,1.6231,3.47234,3.47234,0,0,0,.6216-1.7959c.4336-4.6368.8354-9.2745,1.2925-13.9092.5488-5.5957,1.06932-11.1963,1.7402-16.7783.5142-4.293,1.644-8.2745,6.6538-9.4727a2.498,2.498,0,0,0,.7852-.3779c1.6635-1.1192,3.811-1.916,4.8608-3.458,1.5967-2.3496,2.7646-4.9912,4.9111-6.9717a.66479.66479,0,0,0,.1446-.4902c-.8057-1.4952-1.4258-2.7833-2.1827-3.9844a5.08884,5.08884,0,0,0-1.7241-1.9092c-1.8784-.9385-2.6435-2.2061-1.8525-3.7549-.9234-1.4941-2.1279-2.583-2.2232-3.7617-.29388-3.626-.8706-7.4287,2.2256-10.4023a4.53189,4.53189,0,0,0,.9297-1.7764,31.41121,31.41121,0,0,1,7.8916-11.9697c.2476-1.8555-1.083-3.7901.5996-6.1202.2129,1.8184.3052,3.1202.5322,4.3975.2803,1.5654,1.2442,2.4854,2.4839,2.3008,1.77252-.2617,3.52152-.6797,5.2994-1.0362a95.86266,95.86266,0,0,0-1.0684-21.2197,8.212,8.212,0,0,0-2.0928-4.3447c-2.2329-2.2529-4.8359-4.1406-7.2856-6.1768A19.0116,19.0116,0,0,0,221.25488,78.8428Zm-42.6016,150.6054c2.8091,1.085,6.0742-.2031,8.4043,2.085a3.89578,3.89578,0,0,1-1.643.0772c-1.731-.1836-3.4625-.3731-5.1929-.5577a2.25542,2.25542,0,0,0-2.4278,1.1778c-.58588.999-1.3691,1.8818-2.0327,2.8359-2.2929,3.2881-1.6909,6.8701-1.42818,10.416.20508.0655.40968.1299.61378.1963.7241-1.2109,1.4458-2.4228,2.3369-3.915,1.2515,2.3759,2.2788,4.3252,3.4321,6.5176.2251-1.2149.3799-2.0635.5371-2.9112q.378-.02925.7583-.0576c.4224,1.3301.857,2.6572,1.2632,3.9932.4331,1.4297.502,3.0156,1.9068,4.0693a23.53041,23.53041,0,0,0-.4439-4.2256c-.2436-1.4209-1.0469-2.8193-.2656-4.6455,2.5141,2.4902,2.3574,5.9024,4.2207,8.7578,1.1357-3.5732-1.8106-6.0234-1.7129-9.2412,2.0776.7793,1.4131,3.2305,3.1338,4.2979a9.78429,9.78429,0,0,0,.0058-6.4551c-.7353-1.8994-1.4702-3.7998-2.1469-5.7217-.6118-1.7353-.7701-3.3838.8989-4.7578a4.13421,4.13421,0,0,0,.9873-1.752c1.0107-2.7207,1.9595-5.4648,2.9639-8.1884a11.79732,11.79732,0,0,1,.8198-1.5205c.1987.0849.396.1699.5962.2548-.3975,4.3262-2.6074,8.1016-4.2608,12.0157a6.13143,6.13143,0,0,0,.9634.5693c2.9668.9424,3.7974.3359,4.2149-2.7207.4223-3.0986.7163-6.1484-.3477-9.1953a6.46818,6.46818,0,0,1-.0527-2.3076c.1367-3.2002.2514-6.4024.4609-9.5987.3545-5.3935-.583-10.6191-1.7554-15.8476-.8691-3.874-1.52488-7.7989-2.1665-11.7198-.3598-2.1992-.5366-4.4306-.7236-6.6533a32.74226,32.74226,0,0,0-6.63178-16.8291,14.07135,14.07135,0,0,0-9.64312-5.8017c.8516,3.1074,1.6533,6.0312,2.43212,8.8701-.55472.2734-.72122.4258-.88622.4267-2.5957.0108-3.2095.8067-2.4917,3.2784a8.3639,8.3639,0,0,0,.4165,1.0879c3.4819,7.7324,4.7056,15.9677,5.209,24.3203.25242,4.2236.0415,8.4756.0415,12.4736.9565.627,1.5508,1.0166,2.3403,1.5352-.8037.6025-1.3813,1.0341-2.0058,1.5029.25142,1.0303.4809,1.9687.7089,2.9082.9473,3.916,1.793,7.8203-1,11.4141a2.75826,2.75826,0,0,0-.3203.8095c-.4174,1.2422-.4487,2.3008,1.1577,2.7139.3082.0801.5386.458.8306.7207C180.02248,225.9531,179.36128,227.6406,178.65328,229.4482ZM112.20118,72.5a21.60459,21.60459,0,0,0-3.0899,1.4775c-3.0879,2.1758-6.11328,4.4395-9.1631,6.668a14.027,14.027,0,0,0-5.478,8.0098c-.6479,2.5293-1.1831,5.0967-1.5918,7.6767a119.28376,119.28376,0,0,0-1.8398,13.5479c-.3081,7.4199-.4873,6.457,6.2173,10.1631a7.55187,7.55187,0,0,0,5.2358.9218c1.19632-1.6113.5386-4.4228,3.6338-4.915-.5571,1.7363-2.4063,2.7725-1.4302,4.9844a13.60731,13.60731,0,0,0,3.8623-.3565,10.24791,10.24791,0,0,1,9.7051.7852c.1099.0664.3516-.083.52732-.1299,1.44188-2.0439-1.85742-1.7978-1.62892-3.4385.8296.0469,1.6006.0899,2.4815.1377-1.3618-3.4912-3.3155-4.6562-6.5801-3.9795-1.4189.295-2.7842.834-4.1914,1.1924a6.06636,6.06636,0,0,1-1.4663.0195q-.044-.33105-.0869-.663c3.3032-1.3252,6.6128-2.6192,10.2988-1.71,2.2827-3.2646,2.04832-6.8594,1.5098-10.251a80.396,80.396,0,0,0-4.524-17.7334,14.40679,14.40679,0,0,1-1.25-6.7158C113.49708,76.4727,112.68018,74.6748,112.20118,72.5Zm23.7695,57.832c.1816-.0869.3647-.1738.5464-.2607a38.64035,38.64035,0,0,0,1.1792-6.4854c.0942-6.3964-.0532-12.7978-.1758-19.1972-.0698-3.5869-.6518-7.208-.2949-10.7422a11.32287,11.32287,0,0,0-.7993-6.1504,15.20473,15.20473,0,0,0-7.9912-7.7637,36.78674,36.78674,0,0,0-1.3125,4.1875c-.5074,2.7588-.8965,5.541-1.2554,8.3242a111.08851,111.08851,0,0,1-4.9776,21.5108c-.24358.7148-.6191,1.666-.34958,2.2285,1.14508,2.3789.03958,4.5713-.54682,7.0654C126.36568,123.3857,132.18508,124.6094,135.97068,130.332Zm-51.6138,30.3623c-.3003-3.3056-.5356-6.1054-.8125-8.9013-.2705-2.7139-.04638-5.4366-1.9897-7.8887-1.2549-1.5859-1.5923-3.8828-2.4473-5.8125a3.38589,3.38589,0,0,0-1.3188-1.3652,8.10379,8.10379,0,0,0-9.7432.3359,4.28062,4.28062,0,0,0-2.1006,3.2314,15.44668,15.44668,0,0,1-.7246,3.3653c-.4389,1.29-1.3398,7.1865-1.0024,8.4502,1.0439,3.9277,1.9853,7.8974,3.3203,11.7275a13.306,13.306,0,0,0,3.2964,5.377,17.83916,17.83916,0,0,1,4.4018,6.0068,2.89031,2.89031,0,0,0,3.2598,1.8408c2.709-.3095,3.5205-.6826,3.8428-2.7148a39.03458,39.03458,0,0,0,.37012-6.6465,8.34019,8.34019,0,0,1,.97408-4.7393A7.63837,7.63837,0,0,0,84.35688,160.6943Zm91.94-23.4443c-.0518.2109-.1045.4219-.1558.6318.3687.1953.8428.6455,1.0933.544,1.7451-.7041,3.4135-1.6846,3.7734-3.6885.4414-2.4648.6211-4.9805.8516-7.4785a3.74523,3.74523,0,0,0-.3365-1.3936c-.5366-1.6425-1.2114-3.2519-1.623-4.9257a9.59588,9.59588,0,0,0-12.1055-7.2588,6.72394,6.72394,0,0,1-5.0205-.667,8.978,8.978,0,0,0-3.2002-.876c-2.7739-.2139-4.7212,1.3555-6.40668,3.3271a4.85815,4.85815,0,0,0-.51512.919c-.75788-.5703-1.1861-.8926-1.94-1.4619-.7236,1.5371-1.8686,2.8457-1.8081,4.0986.1001,2.0479-.9014,3.1367-2.1069,4.4297-1.8443,1.9824-1.752,3.0879-.3091,5.4004a6.06034,6.06034,0,0,1,.7607,2.666c.12852,1.6543.459,3.0127,2.2569,3.6758.6264.2324,1.0859.9668,1.5742,1.5137.4609.5156.8628,1.0869,1.4209,1.8017.602-1.9023,1.0044-3.4873,1.60552-4.9912.63668-1.5957,1.46238-3.1162,1.91988-4.0703,2.1435-.6328,3.749-1.1065,5.3535-1.5801.9028-.2666,1.9517-.9619,2.6782-.7119,1.6812.5781,3.0039.0332,4.357-.2891q2.49525.315,4.9887.6299c1.625,2.9756,2.0908,6.6533,5.32472,9.1465C177.65668,136.9102,176.97848,137.0801,176.29688,137.25Zm73.0542-2.1367c-2.1968,0-3.9756.0068-5.7549-.0039a5.30576,5.30576,0,0,1-2.01118-.1026,9.63084,9.63084,0,0,0-5.93272-.5429,8.25385,8.25385,0,0,1-2.3208-.0684c-2.2304-.2236-2.8012-.1016-3.3964,2.0723a44.76934,44.76934,0,0,0-1.2622,7.706,4.5789,4.5789,0,0,1-.875,2.9434c-.8526.956-.6104,1.8174.0839,2.8613a15.89771,15.89771,0,0,1,1.9673,4.1055,24.86931,24.86931,0,0,0,5.7246,10.3008c2.5992,2.705,5.6499,2.9902,7.5332.4941a81.094,81.094,0,0,0,4.5577-7.3066c1.3803-2.3057,1.935-5.1045,4.1943-6.8887a1.96778,1.96778,0,0,0,.2822-3.0645,8.77813,8.77813,0,0,1-1.6089-5.166C250.37738,140.1592,249.81878,137.8936,249.35108,135.1133ZM70.791,240.4199c-1.543-.8535-3.05082-2.1836-4.74312-2.4863a8.03289,8.03289,0,0,1-4.1656-2.3184c-4.0429-3.6718-8.0698-7.3613-12.3364-11.2578a27.80209,27.80209,0,0,0-2.7241,3.4151c-4.708,8.248-2.0005,13.9287,2.7807,19.6318a3.39779,3.39779,0,0,0,1.981,1.0469c4.8027.6621,9.4512,1.1963,14.0244-1.7002C68.14748,245.1436,70.02688,243.5469,70.791,240.4199Zm63.48488-95.6054c-.482-.3487-1.1641-.8428-2.00688-1.4512-.956,1.2588-2.039,1.8183-3.59962.6523.5801-.6396,1.0298-1.1386,1.8687-2.0674-1.62308-.1582-2.7739-.2685-3.9126-.3789-.3618-1.6416-.356-1.7109-1.5747-1.8281-4.353-.4131-8.0654,1.2744-11.4541,3.25,0,1.4453-.0391,2.5049.00632,3.5615.189,4.4317,1.28658,8.4297,5.40088,10.919,1.1694.709,1.2857,1.7773,1.3057,3.0068a28.0746,28.0746,0,0,0,1.1411,8.0342,26.69635,26.69635,0,0,0,2.7456.1445c3.6348-.1787,3.9892-.5332,4.9199-4.0644a48.78076,48.78076,0,0,1,2.022-6.6514C132.89058,153.8076,134.42528,149.6602,134.27588,144.8145Zm-1.1397,85.0039a36.09438,36.09438,0,0,0-4.9878.4541,7.68734,7.68734,0,0,0-3.3408,1.625c-3.2002,2.8974-4.5322,6.872-5.7783,10.8496a2.885,2.885,0,0,0-.001,1.4336c.5376,2.3574,1.0064,4.7412,1.729,7.042.61972,1.9707,1.6782,3.7714,3.90772,4.3261a15.06991,15.06991,0,0,0,7.49808.0147,10.56812,10.56812,0,0,0-.4307-1.5303,6.194,6.194,0,0,1,.9561-6.792,8.78266,8.78266,0,0,0,1.4492-8.4512,6.60147,6.60147,0,0,1,.022-3.1279A8.21028,8.21028,0,0,0,133.13618,229.8184Zm78.3501-138.2461c.2388.0293.479.0595.7168.0898,2.1055-3.4521,4.2398-6.8877,6.2881-10.374a5.942,5.942,0,0,0,.7437-2.4541,18.92832,18.92832,0,0,1,2.9194-9.0195c1.8784-2.9024,1.2168-6.0684.4346-9.3311a9.77008,9.77008,0,0,1-7.19188,4.1719c-.05132-.0733-.14162-.1436-.14852-.2207a3.82718,3.82718,0,0,1,.0132-.5694c.0635-1.0351-1.1025-3.2021-1.9565-3.4404-1.4307-.3994-1.753.7705-2.2779,1.6914a4.374,4.374,0,0,1-4.7978,2.5068,6.83467,6.83467,0,0,0-1.3892.0645c-.7671,3.5039-.0942,6.3828,2.7012,8.4639a5.06285,5.06285,0,0,1,2.1353,5.3076C208.96918,83.0283,210.75778,87.2197,211.48628,91.5723Zm-37.2177,49.8154a16.39352,16.39352,0,0,1-1.9122.8291c-2.0117.54-3.0141.0898-4.2226-1.7715-.5752-.8867-1.169-1.7656-1.80178-2.6123a1.34583,1.34583,0,0,0-2.37892-.0342,3.62839,3.62839,0,0,0-.8979,1.4746c-.1529.793-.376,1.9278.0293,2.3926.7993.9151,1.4922-.039,2.1006-.6592a3.856,3.856,0,0,1,.8823-.4482c-.0982,1.4863-.6216,2.456-1.9566,2.6143-1.8501.2197-2.8012-.9385-3.2304-2.6456-2.4077.0635-4.7212.0547-6.1158-2.4296-.1503.1328-.3007.2646-.45058.3974.35488.8897.71238,1.7783.88028,2.2002-.2192,1.3203-.6445,2.3106-.4687,3.1807a14.17714,14.17714,0,0,0,1.50442,4.0459,6.99459,6.99459,0,0,1,.82368,4.7265,42.75686,42.75686,0,0,0-.3306,5.4952,1.88077,1.88077,0,0,0,2.0694,2.2021c1.3452.0283,2.687.2529,4.0303.3965,3.8901.4121,6.645-1.7461,6.6611-5.6026a11.36672,11.36672,0,0,1,2.5254-6.9082A10.58522,10.58522,0,0,0,174.26858,141.3877ZM33.13278,120.6211c.63622,4.6562,1.1631,9.4512,1.97322,14.1982a118.4498,118.4498,0,0,0,2.97308,14.2061c1.3892,4.6162,3.5205,9.0078,5.2891,13.4072.2656-.3291.6567-.8144,1.3759-1.707.0992,1.5801.1617,2.582.2295,3.6494.4952-.2441.81942-.4043,1.1997-.5898.2525.6464.4756,1.2207.8892,2.2822a12.41692,12.41692,0,0,0,.4668-7.3604c-.4424-1.6894-.8486-3.3847-1.2744-5.0771-1.1328-4.4971-2.1494-9.0293-3.4297-13.4854-1.8159-6.3213-4.0845-12.5234-4.625-19.2363C36.72408,119.7979,35.21728,119.2109,33.13278,120.6211Zm120.9951-8.044a5.01017,5.01017,0,0,0,2.8047-2.248c3.5679-6.7578,7.3208-13.4189,10.9546-20.1436a22.744,22.744,0,0,0,1.1914-3.291c-.9531.2686-1.3027.9483-1.8491,1.1905-.4741.2129-1.5684.1211-1.7026-.1612-.96-2.0283-3.0406-2.1435-4.7505-3.1924-1.2266,1.043-2.3789,2.0215-3.836,3.2608-.3012-1.2861-.5283-2.2578-.8369-3.582a23.70914,23.70914,0,0,0-2.8061,2.0576c-1.0445,1.0244-2.1109,2.1513-.4488,3.6445.2813.252.19342,1.0811.0708,1.5947-1.3891,5.7647-.9145,11.5498-.1523,17.3203A16.5656,16.5656,0,0,0,154.12788,112.5771Zm11.9073-26.4111q.4284-.04395.8569-.0859c.48092-.8047.9424-1.6211,1.4487-2.4102a13.635,13.635,0,0,1,1.9644-2.8496,12.79851,12.79851,0,0,0,4.08982-8.6592,6.42741,6.42741,0,0,0-1.85542-5.7861c-1.4634-1.3887-2.566-3.5039-5.107-3.3291-.2124.0137-.4819-.2559-.664-.4492-1.6055-1.7129-3.1973-3.4404-4.8057-5.1768-2.771-.1543-3.3936.5498-3.62788,2.9551a54.17765,54.17765,0,0,0-.31352,7.2041c.0649,1.8047.0903,3.8965.9824,5.334C161.64208,77.1719,164.80318,81.1104,166.03518,86.166Zm-51.7915-12.918a9.34077,9.34077,0,0,0,.02632,2.0704c.27978,1.4951.35648,3.3222,1.92378,3.9941,1.80822.7754,3.7549,1.5244,5.97222,1.0273a33.50981,33.50981,0,0,0,1.03078-3.9775,7.15518,7.15518,0,0,1,2.605-4.9932,5.05514,5.05514,0,0,0,1.7817-4.1386c.0161-1.6299.0049-3.2608.0049-5.1319a15.99556,15.99556,0,0,0-2.75338-.3369,4.66054,4.66054,0,0,1-3.31452-.9609c-1.5332-1.0723-3.6338-1.9805-5.7593-.461a1.99314,1.99314,0,0,1-2.8281-.3515c-.3882-.4541-1.1894-.5537-1.7998-.8125-.79828,2.8574-1.4976,5.3555-2.2656,8.1055C110.49068,69.083,112.13768,70.9121,114.24368,73.248Zm-17.8121,65.6817c-.2719.1846-.542.3691-.8144.5557.0415.665.0513,1.3349.1294,1.997a103.67305,103.67305,0,0,0,3.1089,16.5303c1.1484,4.0166,1.2959,8.3799,5.2729,11.041.5933.3965.8599,1.2695,1.3008,1.9072.5151.7432,1.0557,1.4707,1.7085,2.375,1.043-1.9882,1.9282-3.6757,2.7104-5.1679a12.55329,12.55329,0,0,1-1.5795-2.0967c-.8487-1.8652-1.5601-3.794-2.5323-6.208a3.2147,3.2147,0,0,0,.5376-1.7656c-.355-1.8819.6699-3.9004-.6733-5.6983a2.073,2.073,0,0,1-.1533-1.9248c1.1733-1.5478-.1617-2.9541-.01128-3.7666-1.40962-1.5039-2.31692-3.3125-3.58932-3.626a8.21028,8.21028,0,0,1-4.3418-2.4463A10.65314,10.65314,0,0,1,96.43158,138.9297Zm21.104-15.5996c-3.24358-2.6201-3.8002-2.6416-7.0258-1.8281a36.65127,36.65127,0,0,1-7.128,1.1894,5.772,5.772,0,0,0-4.8564,2.666,20.58333,20.58333,0,0,0-2.2861,4.3438c-1.6348,4.5088-.7525,7.5332,2.8779,10.6162,1.2641,1.0742,2.5205.9424,3.3843-.4502,2.0351-3.2803,3.9726-6.6211,6.0468-9.877C110.604,126.7627,112.89258,123.7559,117.53558,123.3301Zm64.5777-61.8809a7.59031,7.59031,0,0,0-4.2178-5.1709,4.15219,4.15219,0,0,1-2.4141-3.2646c-.7451-3.3037-2.4921-5.9981-5.8266-7.041a14.38127,14.38127,0,0,0-11.4946,1.289,3.16717,3.16717,0,0,0-1.5049,1.6738c-.6514,2.5645-1.3531,5.1758-.4536,7.5879,3.7329-.2412,7.2021-.6084,10.6762-.6494a17.59384,17.59384,0,0,1,9.2539,2.0489C178.13278,59.085,180.12108,60.2734,182.11328,61.4492Zm-24.5029,129.499c6.8623-1.3398,13.6992.5157,19.9897-2.2871.17192-1.5654.37892-3.0791-.8193-4.7861-6.438,2.7158-13.4195,2.25-20.3619,3.2998v8.8037c7.8477,1.1543,13.355.543,21.5826-2.458-.065-.8975-.1353-1.8682-.2066-2.8516C164.98488,191.9912,159.83638,192.124,157.61038,190.9482Zm.1538,11.7588c3.3466-.3125,6.65182.3946,9.9555-.7646,3.2608-1.1436,6.6885-1.8135,10.05232-2.6944v-3.8183c-7.21492,1.8848-14.23292,2.9287-21.51962,2.0742-.1455,2.9004-.2749,5.4912-.4013,8.0059,3.3344,1.4023,11.71292,1.2685,15.6113-.1143,1.5493-.5498,3.1274-1.0283,4.7109-1.4746,1.9029-.5342,1.9312-.5498,1.1319-3.084-3.2447.832-6.5098,1.6572-9.7696,2.5039A13.75337,13.75337,0,0,1,157.76418,202.707Zm36.8662-104.414a15.16689,15.16689,0,0,1-6.1997,6.9316,3.98237,3.98237,0,0,1,.9135-5.1758c-1.75-.0029-1.97118,2.2256-3.9663,1.6992.8955-1.8652,1.731-3.6064,2.5689-5.3476a8.47047,8.47047,0,0,0-2.5274,2.0801c-.6801.7295-1.3652,1.4531-2.23338,2.3759-1.52682-2.6064.34378-4.6796-.03712-7.0205a9.42112,9.42112,0,0,0-1.6938,7.8702c-2.1885.4843-3.01608-1.42-4.5127-2.0411.7388,1.5098,1.3994,2.878,2.0732,4.2383,1.4947,3.0137,3.1553,3.6905,6.3291,2.6543a10.16679,10.16679,0,0,1,1.9068-.1826c-.4952.8428-.7862,1.3379-1.3028,2.2188a4.13,4.13,0,0,1,4.9234,1.7617c.8652,1.5781,2.0796,1.5312,3.268,1.8984,1.2774.3936,2.6382.7959,3.9317-.4834-.77-2.3799-1.84178-4.833-1.0254-7.5059C197.80808,101.7715,196.72168,99.9951,194.63038,98.293Zm-18.1206,132.9072c-4.5796.6904-8.8389,1.7744-13.1162,1.8535-4.2784.0801-8.5733-.8447-12.7549-1.3183-1.8882,3.2763-.2139,5.4375,2.0464,7.4873,1.5136-.2012,2.978-.2803,4.3837-.6094a18.52,18.52,0,0,1,9.4595.0049c2.0108.5722,4.03272,1.1035,5.7315,1.5673C173.63378,237.2793,174.97358,234.4473,176.50978,231.2002Zm-66.2881-65.2656c2.7597.541,5.4541.7343,7.5386-2.375,1.6108-2.4053,1.7251-3.8994-.5538-5.7871-2.3012-1.9053-4.0004-4.1329-4.28948-7.2784a52.377,52.377,0,0,0-1.01562-5.3125c-.209-.0488-.4175-.0966-.6265-.1455-.9751,1.9327-2.7378,3.3311-3.23388,5.6075-.24512,1.1181-1.40722,2.1738.08988,3.3037.20112.1513-.1324,1.0468-.2603,1.5898-.1064.458-.5268,1.1641-.375,1.3125,1.41942,1.3731.15142,2.416-.2353,3.0801C108.332,162.1035,109.23238,163.9297,110.22168,165.9346Zm-25.7818-55.4502c.1495,1.0156.2515,1.9736.4366,2.916.5771,2.9473,1.18752,5.8887,1.7827,8.833.5586,2.7549,1.1274,5.5088,1.6679,8.2676.9864,5.039,2.17292,10.0527,2.8702,15.1318a71.08459,71.08459,0,0,1,.1684,15.6006c.5781-.5586,1.1167-.8262,1.1958-1.1934.8003-3.707,1.4854-7.4287,1.0034-11.2597-.5551-4.4307-1.2998-8.8535-1.5512-13.3028-.51568-9.123-2.5908-17.9716-4.3369-27.0849C86.583,109.0996,85.56348,109.7578,84.43988,110.4844ZM63.51758,214.3066c.85642,2.5801,1.0185,5.085,3.7163,5.9385a8.40483,8.40483,0,0,1,6.0762,7.0459c.47992,2.7998,2.4375,3.957,4.6543,4.9619,1.145.5196,1.7724.1006,1.8837-1.2402a10.99131,10.99131,0,0,0-1.1015-6.4697c-.9854-1.7705-1.8237-3.6231-2.711-5.4473-1.5078-3.0996-6.6523-5.9844-10.0727-5.5693A14.92738,14.92738,0,0,0,63.51758,214.3066ZM177.189,182.2021c-.20712-1.0117-.37312-1.8232-.60552-2.9589-3.4146.6211-6.6177,1.2793-9.8462,1.7705-4.8638.7422-8.6245.6914-9.9111-.1104,2.1596-1.1494,4.4321-.4638,6.5312-.876,2.0864-.4091,4.20462-.6455,6.3042-.9951,2.15242-.3554,4.4048-.3818,6.6782-1.9209-.6523-.5224-1.0791-1.1455-1.56-1.1894a16.2396,16.2396,0,0,0-3.1812.1924c-2.6909.2968-5.3725.7216-8.0717.9072-2.2027.1504-4.42288.0312-6.9522.0312v8.5137C163.46828,185.291,170.33248,185.1162,177.189,182.2021Zm50.50778,56.7911c.1606.166.3213.332.48.497a23.44743,23.44743,0,0,0,2.2031-2.1474c.5962-.7451.8125-1.8721,1.5117-2.4434,1.7856-1.4619,1.3022-3,.5049-4.6416a40.49232,40.49232,0,0,0-2.0923-4.1289,22.24989,22.24989,0,0,0-2.7437-3.3193,1.98121,1.98121,0,0,0-1.519-.626c-1.7329.4189-3.6763.4141-5.1758,2.1719a23.67566,23.67566,0,0,0,1.71,3.5566,4.77382,4.77382,0,0,1,.50632,5.1543,7.06337,7.06337,0,0,0-.37792,5.8594c2.71192-.584,1.9106-3.5283,3.772-5.3604-.12308,1.8057-.20608,3.0235-.291,4.2412a5.49067,5.49067,0,0,0,1.89892-2.3115c.42528-.834.80318-1.6914,1.20208-2.539C229.87738,235.3779,228.40428,237.0654,227.69678,238.9932Zm-91.5825-77.4395q-.16992-.4086-.337-.8144a25.43852,25.43852,0,0,1,2.689-1.4952c1.3926-.5791,1.9653-1.3779,1.4888-2.9384a11.65289,11.65289,0,0,1-.09908-2.585c-.03962-.667.08978-1.5908-.28522-1.9463-1.3437-1.2695-1.44678-2.7988-1.1406-4.5195-1.0288-.3819-1.8941-.7022-2.9751-1.1045.1567,5.7881-2.8008,10.4404-4.1826,15.0254.60152,1.5322,1.125,2.6172,1.4472,3.7568.2881,1.0195.21632,2.1514.583,3.1299.1514.4014,1.3155.8848,1.5298.7148a9.55041,9.55041,0,0,0,1.54452-2.1406c-.79642.0938-1.22422.1446-1.59482.1885a14.41217,14.41217,0,0,0-.0737-3.7861c-.3106-1.0674-1.2261-1.9571-2.1079-3.2686,3.2417.6113,3.2607,3.4346,4.7348,5.3086,1.39462-1.8496,3.3047-2.9853,4.1778-5.5498C139.416,160.3154,137.76608,160.9346,136.11428,161.5537Zm31.5942,85.2227c-.7944-3.7285-1.3887-4.3037-4.7534-4.333a50.26006,50.26006,0,0,0-5.1983.291c-2.1997.209-4.5464.2197-4.8359,3.3349-.0557.5889-.7671,1.0948-1.0742,1.6905a21.86289,21.86289,0,0,0-.82468,2.0781C155.33978,250.3711,163.10638,248.9287,167.70848,246.7764Zm-46.9702,7.582c-.856-2.6816-1.8198-5.3154-2.5054-8.0186a7.86067,7.86067,0,0,1-.1665-4.2255c1.22362-3.5284,2.3565-7.1592,4.8887-10.0713.7954-.9151,1.62692-1.7989,2.5053-2.7666a2.70856,2.70856,0,0,0-2.9096,1.584c-3.1211,5.124-6.2779,10.2275-9.3067,15.4052a9.157,9.157,0,0,0-.9174,6.3672C116.58108,254.8711,116.58108,254.8711,120.73828,254.3584Zm34.7441-44.043c8.03662,2.1221,15.5991.7207,23.4951-1.0039-.3486-1.4297-.6601-2.7011-1.0673-4.3701-1.7349.4326-3.2959.794-4.8399,1.2188a17.9517,17.9517,0,0,1-3.6035,1.08c-4.2495.2188-8.50878.2315-12.7647.3311a9.41223,9.41223,0,0,0-.9619.1357C155.665,208.4805,155.59128,209.2227,155.48238,210.3154Zm-56.4521-45.248C95.18258,150.249,92.813,135.5,94.748,120.3242c-1.25292-.709-2.31832-1.3115-3.73872-2.1142.122.9013.1826,1.3535.2436,1.8066.4678,3.46.9556,6.917,1.3985,10.3809.3574,2.7851.7114,5.5732.978,8.3681.4404,4.626.98,9.253,1.1338,13.8907.0796,2.3867-.6499,4.7919-.877,7.2011-.0849.8985-.1103,2.1768.4141,2.6807A7.72119,7.72119,0,0,0,99.03028,165.0674Zm73.1084-36.336c-1.6172-.1826-3.1924-.6855-4.6524-.455-2.7651.4384-5.8115-.3057-8.2568,1.7343-.2642.2217-.7398.1905-1.1182.2735-1.851.4121-1.851.4121-1.6264,3.1113.61812-.5625,1.0014-1.1357,1.5268-1.3301a3.91491,3.91491,0,0,1,1.9522-.1494c.4873,1.8399,2.59812,1.834,3.5092,3.25.7198,1.1211,2.0406.9043,3.0552.0303.8638-.7442,1.6724-1.5508,2.6118-2.4268,1.63092.5821,3.3936,1.21,5.1548,1.8379q.23655-.26505.4727-.5293C173.90188,132.3164,173.03468,130.5557,172.13868,128.7314Zm-41.1114,34.7256c-1.3754,1.8448-.6064,4.8868-3.2539,5.8135a14.28058,14.28058,0,0,1-7.0371.5654c-.96628-1.663-.4399-3.6982-1.6435-5.2265-2.4834,2.6172-2.8443,5.1865-1.2061,7.6445a5.73236,5.73236,0,0,0,7.437,1.8955,24.2578,24.2578,0,0,0,4.5381-3.0683C131.98628,169.3506,132.39208,166.4434,131.02728,163.457Zm25.6978,12.2891c6.4492.1455,12.5132.0635,18.6396-1.8936-.3364-1.2119-.5849-2.1054-.8183-2.9453-5.855.4619-11.5083.9092-17.3867,1.3731C157.03128,173.3008,156.90428,174.3105,156.72508,175.7461Zm-41.20608-8.333c-3.41942,3.6621-1.73822,9.8428,2.419,11.3906,5.77828,2.1524,10.90328-1.6767,12.98778-6.7832-1.0435.6885-1.7036,1.165-2.4029,1.5772a21.09455,21.09455,0,0,1-3.5307,1.9531,6.81993,6.81993,0,0,1-9.1426-5.752C115.76858,169.166,115.67478,168.5352,115.519,167.4131Zm117.65578,74.5361c.6338-.9131,1.436-1.5605,1.4927-2.2676a10.01148,10.01148,0,0,0-.6709-2.9804c2.3813-2.9512,4.7793-5.9258,7.436-9.2168-.1513-1.7813-2.126-2.5733-3.5107-3.791a6.33717,6.33717,0,0,0-4.0752,2.9043c-.9234,1.5312.0244,2.7119.4902,4.0732a4.54853,4.54853,0,0,1-.583,4.3525c-.9468,1.2364-2.0117,2.3829-3.4541,4.0704C233.33148,238.5938,232.248,240.6338,233.17478,241.9492Zm-34.7925-112.039q.3714-.07035.74172-.1387c.211-4.708.47558-9.416.57718-14.125.019-.8594-.626-1.7334-1.2036-3.2061-1.7554,3.3233-3.9927.4463-6.0743,1.1534C194.43508,119.1006,196.40868,124.5059,198.38228,129.9102Zm-47.5322,109.5556c-.9844-1.4248-1.939-2.8076-2.9346-4.249-1.9028,1.0811-3.5366,1.9219-5.0757,2.9072a2.92727,2.92727,0,0,0-1.3369,3.7383c.5,1.3604,1.0098,2.7178,1.5899,4.044.3535.8115.2231,2.1972,1.5688,2.0712,1.3433-.1259,1.1289-1.4775,1.15242-2.333a5.34051,5.34051,0,0,1,4.17038-5.542C150.23048,240.0303,150.42478,239.7852,150.85008,239.4658Zm3.8853-180.1035c-1.8702.8184-3.4893,1.8486-4.2896,3.6621-.8823,2-1.7974,4.0801-.8032,6.3662.9238,2.1299,3.3325,3.336,4.9961,2.5664-.15868-2.0449-.4468-4.0498-.43068-6.0507C154.22508,63.8066,154.53318,61.7109,154.73538,59.3623Zm2.2412,104.4941c.916,3.0743.916,3.0704,3.5029,2.8575,1.2519-.1026,2.5049-.2002,3.7588-.2774,2.022-.125,4.0503-.1816,6.0659-.376a7.2935,7.2935,0,0,0,1.88282-.7919c-.35792-.959-.646-1.7354-.98142-2.6329C166.36618,163.0518,161.69868,163.4521,156.97658,163.8564Zm16.6797,5.6172c.1142-.2998.2285-.6015.3422-.9023-.5908-.4248-1.2002-1.2393-1.7719-1.2139-4.1333.1807-8.2603.5293-12.3892.8301a2.39012,2.39012,0,0,0-1.12838.1719c-.41162.291-.94292.7685-.94922,1.1738a1.47551,1.47551,0,0,0,.9873,1.0576,15.30616,15.30616,0,0,0,3.46092.0723C166.02778,170.3096,169.84128,169.876,173.65628,169.4736Zm-19.7481-7.0136a16.17921,16.17921,0,0,0,.7739-11.5723,18.7167,18.7167,0,0,0-3.82708,12.3936C152.168,162.9287,153.07808,162.6836,153.90818,162.46Zm-68.8911-8.2256a4.23626,4.23626,0,0,0,1.8227-4.8809c-.7255-2.9941-1.7573-5.914-2.6831-8.8564a5.51429,5.51429,0,0,0-.5444-1.0274c-.71628-1.2578-1.6948-1.7217-3.3369-.9697a47.227,47.227,0,0,0,3.0347,5.6152,6.39125,6.39125,0,0,1,1.3027,3.7227C84.67428,149.7588,84.84908,151.6758,85.01708,154.2344Zm153.5063,84.6894c1.4463-4.3779,1.4463-4.3779,3.5518-5.5674q.5838,1.1001,1.1724,2.1983c.14942-.0762.2978-.1524.4467-.2295-.4257-1.6367-.8501-3.2754-1.2529-4.8291-2.5386.582-3.98338,2.2402-5.334,4.0205C235.50678,236.627,235.73928,237.4541,238.52338,238.9238Zm-79.2285-99.54c1.8604-.0274,3.2974-1.1826,3.2124-2.584-.0908-1.4795-1.6704-2.6435-3.5864-2.6455-2.02388-.0029-2.88088.7041-2.8628,2.3613C156.07958,138.3271,157.30318,139.4121,159.29488,139.3838Zm11.2437-56.7334c1.6191.5654,2.769.9658,4.2949,1.498.8144-2.0566,1.6108-4.0654,2.47752-6.2578-.91842-.3115-1.52052-.5176-2.09572-.7119C173.63378,79.0283,172.15038,80.7646,170.53858,82.6504Zm-66.8164-17.252c.73482.4454,1.4399.875,1.8667,1.1329,4.0014-1.0176,2.0703-4.3399,2.9282-6.7266-1.3359.6016-2.6719,1.2031-3.9468,1.7764C104.30418,62.7793,104.05758,63.8887,103.72218,65.3984ZM74.48928,54.2227c2.5156-2.8243,1.0996-10.8653-1.75928-12.795C73.291,45.5068,73.873,49.7373,74.48928,54.2227ZM55.81348,69.6504c-.0669,4.7764.4678,6.8682,2.1787,8.7812.7344-.581,1.4731-1.164,2.5039-1.9785C58.97118,74.2383,57.51318,72.1191,55.81348,69.6504Zm160.187-13.8955c-2.563-1.0957-4.9961-1.458-7.3657-.0029,1.25922,1.1259,2.3764,2.123,3.4629,3.0966C214.35738,59.0693,214.31978,56.4053,216.00048,55.7549Zm-48.0474,81.5556c1,.3067,2.4717.4278,2.5596.8428.3921,1.835,1.6621.9561,2.4878.9033.4292-.0263,1.2266-1.0175,1.12252-1.3281-.27782-.8349-.81832-1.9931-1.49852-2.1933a9.0743,9.0743,0,0,0-3.9136-.0577C167.54878,135.6699,167.66208,136.6396,167.95308,137.3105Zm-83.0454,30.709c-.28268.0469-.5659.0928-.8476.1387v7.1231h2.7465C86.13128,172.6982,85.52,170.3594,84.90768,168.0195Zm94.3267-105.9863q1.188,2.97945,2.3755,5.9688c1.7622-.8995,2.0219-1.1075,1.915-2.0889C183.271,63.5781,181.43308,62.6943,179.23438,62.0332ZM62.70208,149.0195c.2222-.2529.6377-.5068.6373-.7578a16.77133,16.77133,0,0,1,1.1513-6.7578,8.47436,8.47436,0,0,0,.1734-2.7695q-.3252-.0411-.6514-.083C62.16108,141.8105,62.60788,145.3945,62.70208,149.0195ZM74.27,177.9658c-.45362-2.7178-1.374-5.1123-3.83252-6.5879C71.189,173.8887,71.458,176.6631,74.27,177.9658Zm25.12938-55.583c-1.2529-.3515-2.1313-.5976-3.457-.9697-.2031,1.8623-.3706,3.3935-.5386,4.9267q.2835.09975.5669.1993C96.98338,125.3105,97.998,124.082,99.39938,122.3828Zm58.7798-37.3213c1.4673-2.5429,3.5117-1.3056,5.7954-.8008-.7207-1.3505-1.1924-2.2353-1.7602-3.3017C160.38528,82.0254,158.32908,82.2959,158.17918,85.0615Zm-33.6655-7.4844c-1.2451,3.1934-1.2339,3.5831.1684,5.9659C126.10888,79.957,126.07278,78.6885,124.51368,77.5771ZM90.21678,238.375c2.5737-2.1768,4.7725-4.0391,6.7798-5.7373-1.6778-.0772-2.1323.1436-5.1245,2.417A3.74169,3.74169,0,0,0,90.21678,238.375Zm11.998-7.6445c.0249-.1875.0484-.378.0723-.5664-2.37108-.7715-3.98-3.6446-7.0893-2.4366,1.4135.7784,2.7543,1.5098,4.0854,2.2559a21.02222,21.02222,0,0,0,2.0161,1.1328C101.51418,231.2061,101.90528,230.8711,102.21478,230.7305Zm70.6763-77.1836c-.3574,1.6963-.12108,4.6767.4668,5.5146.2056.2949.7559.3467,1.3662.6016A7.52735,7.52735,0,0,0,172.89108,153.5469ZM73.46478,74.666c-.8579-1.4541-.33978-3.1416-2.2451-3.917-.289,1.4668-.5439,2.749-.8291,4.1973a13.02906,13.02906,0,0,0,1.4102.0566C72.17038,74.9727,72.53318,74.8604,73.46478,74.666Zm56.9551-11.4844c-1.8935.127-2.0283.7637-1.124,4.9297.7129-.5703,1.2949-1.0351,2.08012-1.6621-.91262-.5107-1.45312-.8125-2.02442-1.1328C129.73048,64.5576,130.04788,63.9238,130.41988,63.1816Zm105.188,110.8164c-.1748-.1191-.3486-.2412-.52288-.3623-.47422.4248-.94932.8497-1.49272,1.337-.5357-.6582-.9277-1.1407-1.3945-1.7159-.4195,1.8848.3486,2.7696,2.1684,3.209C234.81878,175.5664,235.21288,174.7822,235.60788,173.998Zm-1.3354,7.879c.16652-.1446.3354-.2872.5029-.4317a10.54866,10.54866,0,0,0-3.561-4.6562c-.1597.122-.3213.2441-.481.3652Q232.50368,179.5156,234.27248,181.877ZM201.729,62.165c-.22512.0323-.45172.0664-.67822.0987q.21825,2.3013.4365,4.5986C202.94578,65.1826,202.11078,63.6914,201.729,62.165Zm-30.07182,96.0401c-.15618-.0342-.312-.0684-.4687-.1016-.69,1.0313-1.3794,2.0625-2.18948,3.2744,1.02348-.1045,1.84908-.1884,2.84868-.29C171.77638,160.0088,171.71778,159.1064,171.65718,158.2051Zm57.7324,5.2597c-1.1914.2276-1.8422.8926-1.3388,2.0157.3159.7021.789,1.7509,2.0683,1.122C229.85738,165.4727,229.625,164.4727,229.38958,163.4648ZM71.21438,226.9336c.07762-2.0791-.6768-3.5938-2.84038-4.1543Q69.79417,224.855,71.21438,226.9336ZM247.81978,165.21c-1.645-.208-2.0522.7968-2.3867,1.7207-.0806.2187.4356.6543.8994,1.2978C246.89358,167.0898,247.29638,166.2715,247.81978,165.21Zm-57.9551-67.9629c.7832-.4698,1.5665-.9385,2.606-1.5616C190.40918,95.1572,190.40918,95.1572,189.86468,97.2471ZM97.42378,230.5908c-2.1352-.9814-2.1352-.9814-3.3813.8252C95.21388,231.1299,96.14448,230.9023,97.42378,230.5908Zm41.6289-91.6982c-1.2563,1.6103-1.2563,1.6103.6958,2.999C139.50438,140.8398,139.29978,139.9531,139.05268,138.8926Zm97.3677,30.8301c1.416,1.9277,1.416,1.9277,2.312,0Zm-96.4009-19.4073c.3316-.0351.6621-.0693.9951-.1045q-.3573-1.3974-.7099-2.7949c-.1406.0235-.2822.0488-.4234.0733Q139.95088,148.90275,140.01948,150.3154Zm-16.955-17.5947c.0058-.1299.0097-.2607.0141-.3916q-.857-.1905-1.7178-.3828c-.0293.1572-.0576.3115-.0859.4687Q122.16918,132.5689,123.06448,132.7207Zm14.2441-1.8125q-.38235.1347-.7671.2705c.2837.582.5649,1.1641.8486,1.7461.17292-.0771.3438-.1533.5176-.2305C137.70748,132.0996,137.50928,131.5039,137.30858,130.9082Zm12.708,114.1455c-.1201.999-.1963,1.6416-.3232,2.7188C150.626,246.8057,151.28558,246.25,150.01658,245.0537Zm46.4131-27.7539c-.0444.8076-.0806,1.4307-.1431,2.5117C197.51118,218.7754,197.82228,218.1641,196.42968,217.2998Zm14.0908,2.7344c-.2324.0722-.4658.1435-.6982.2158.1504.4482.30272.8975.4526,1.3457.2554-.0967.5103-.1943.76512-.291Q210.78077,220.669,210.52048,220.0342Zm14.915,19.8252c-.2031-.1533-.4082-.3076-.6113-.461-.2549.4395-.5093.8809-.76318,1.3204.17578.1103.35258.2197.52878.3281C224.87258,240.6523,225.15328,240.2559,225.43548,239.8594Zm-66.5629-77.5918c-.0083-.1084-.0181-.2168-.0264-.3262-.5.0615-.9985.1231-1.4985.1846.0048.0469.0102.0947.0141.1416Zm67.9331-99.5762c-.1568-.0117-.3125-.0215-.4698-.0332v1.8877h.3462C226.72268,63.9277,226.76508,63.3096,226.80568,62.6914Z"/><path class="a" d="M62.498,52.2441a11.47817,11.47817,0,0,1,.879,5.6309c1.27828,1.0264,1.68158-.5684,2.65568-.7002.6909,1.1514-.1416,1.7773-.8906,2.2871-1.3013.8858-2.1089-.2217-2.7647-.6592-.1928-2.3261-.3637-4.3818-.5336-6.4365C62.06148,52.3252,62.28028,52.2861,62.498,52.2441Z"/><path class="a" d="M68.40428,59.21c.3638,1.5205.6538,2.7285,1.13872,4.75-1.545-1.2129-2.41122-1.2237-3.41362-.4795-.9033.6689-1.9731.5019-2.8848-.7539a16.02,16.02,0,0,0,2.8325-1.1465A16.91,16.91,0,0,0,68.40428,59.21Z"/><path class="a" d="M54.50978,44.0059a6.117,6.117,0,0,1,3.5703-5.3204C57.70308,41.1543,55.45558,42.1523,54.50978,44.0059Z"/><path class="a" d="M61.248,59.5928q.62412,1.98195,1.24908,3.9668C60.75238,63.4727,60.26948,62.2988,61.248,59.5928Z"/><path class="a" d="M57.08638,50.5742c.583-.9189,1.3614-1.2597,2.5943-.3691q-1.15515.5259-2.3111,1.0478C57.27438,51.0273,57.18068,50.8008,57.08638,50.5742Z"/><path class="a" d="M66.31248,49.7275q1.0401.422,2.0796.8438c-.0767.2266-.1519.4521-.2275.6787q-1.08987-.31935-2.1807-.6406Q66.148,50.16705,66.31248,49.7275Z"/><path class="a" d="M66.94378,52.9922c.2056-.1465.4288-.4375.6128-.4141a10.55085,10.55085,0,0,1,1.5298.4141c-.1396.293-.2002.5488-.2739.5537-.6074.0322-1.2168.0176-1.8262.0176Z"/><path class="a" d="M252.01268,211.7783c4.2319-2.1406,4.8916-5.9404,4.7866-10.1113-.0395-1.5469-.0644-3.0957-.0322-4.6397a17.5178,17.5178,0,0,1,.2768-2.0761c.1939.0088.3882.0156.58112.0234.03808.6943.11128,1.3877.105,2.0801-.02392,2.418-.18612,4.8389-.09282,7.251C257.78958,208.2813,255.65628,210.5215,252.01268,211.7783Z"/><path class="a" d="M205.01508,86.7344c-.7348-.8692-.7094-1.6143.1822-2.1856a1.0009,1.0009,0,0,1,.9043.3428C206.44728,85.8613,206.16018,86.5488,205.01508,86.7344Z"/><path class="a" d="M215.52338,98.792a3.69812,3.69812,0,0,1-1.3379.4424c-.3266-.0225-.8632-.4707-.874-.7471a1.24388,1.24388,0,0,1,.688-.9805c.2676-.083.6934.3428,1.0498.543Q215.28736,98.42045,215.52338,98.792Z"/><path class="a" d="M208.62988,96.6641c.2524.7695.4668,1.4199.8115,2.4697-.8442-.2305-1.5039-.21-1.7212-.5098C207.231,97.9453,207.30468,97.2158,208.62988,96.6641Z"/><path class="a" d="M220.86378,87.4072c-.0909.752-.1685,1.3926-.272,2.2549-.5303-.3125-.86178-.3896-.9546-.584C219.17818,88.1172,219.28418,87.4297,220.86378,87.4072Z"/><path class="a" d="M206.13478,90.5576c.23922,2.4541.23922,2.4541-1.5591,2.2959C205.02828,92.1875,205.40628,91.6309,206.13478,90.5576Z"/><path class="a" d="M215.93948,93.5c.5957-.3428.9882-.7451,1.2924-.6875.26812.0508.566.6045.5992.9609.0185.1963-.5254.6621-.7315.6172C216.749,94.3145,216.46438,93.9297,215.93948,93.5Z"/><path class="a" d="M224.31488,84.7949a8.39905,8.39905,0,0,1-1.0957.5127c-.0454.0147-.2324-.3984-.3564-.6142.38922-.1661.7759-.3321,1.165-.4991C224.12258,84.3945,224.21968,84.5957,224.31488,84.7949Z"/><path class="a" d="M104.17578,98.2012c-.4453,2.7412-.958,5.4736-1.3164,8.2265-.3921,3.0254,2.0532,4.9922,3.0044,7.5401-.5713.747-1.1402.6416-1.5694-.1026-.8652-1.5039-1.7119-3.0224-2.477-4.5781a3.06509,3.06509,0,0,1-.2647-1.6758c.3687-2.7763.773-5.5478,1.2661-8.3047.09622-.5449.6338-1.0127.9673-1.5146C103.91548,97.9277,104.04488,98.0645,104.17578,98.2012Z"/><path class="a" d="M78.64838,159.5527c.2754,1.3203.5518,2.6397.9561,4.5782-2.7202-2.0352-4.812-1.5479-7.0693.08-.357-.9248-.68218-1.7675-1.1148-2.8906h5.7749c.2461-.6484.4649-1.2187.6812-1.7871C78.13428,159.54,78.39108,159.5459,78.64838,159.5527Z"/><path class="a" d="M75.64648,157.8359c-1.082,1.3428-1.9229,1.3995-3.1001.6973C73.38088,157.2451,74.27728,157.458,75.64648,157.8359Z"/><path class="a" d="M79.49368,151.1631a2.40045,2.40045,0,0,1-3.1319.0185C77.47068,150.2529,78.34378,150.5557,79.49368,151.1631Z"/><path class="a" d="M68.55178,153.6943c-.377-1.6425.3261-1.873,1.6064-1.3564Q69.35541,153.0147,68.55178,153.6943Z"/><path class="a" d="M239.55618,130.4053c-2.6778-.6074-1.9473-2.378-2.4151-3.7041,1.6997-.4844,1.44292.4033,1.4902,1.29A9.62468,9.62468,0,0,0,239.55618,130.4053Z"/><path class="a" d="M241.39448,129.6641c-1.4868-.8809-1.6172-1.6368-1.26948-2.4746q.44232-.07485.88818-.1495C241.12258,127.7979,241.23438,128.5566,241.39448,129.6641Z"/><path class="a" d="M235.84858,156.0527c2.0806-.1455,3.56942-.25,5.2891-.3691.3311,1.4365-.6592,2.126-1.7988,2.582C237.38128,159.0479,237.07518,157.2227,235.84858,156.0527Z"/><path class="a" d="M236.62988,150.8721a8.64269,8.64269,0,0,1,1.07812.4336,6.12637,6.12637,0,0,1,.78608.6699c.3575-.292.7022-.5742,1.04792-.8555.28608-.2295.57318-.457.97508-.7773.105.4277.27392.7119.2104.9267-.3154,1.0918-.8984,2.0469-2.1919,1.875A1.91753,1.91753,0,0,1,236.62988,150.8721Z"/><path class="a" d="M234.81488,151.8066v4.083C233.26068,154.5469,233.27288,153.4883,234.81488,151.8066Z"/><path class="a" d="M243.292,152.8672a2.23833,2.23833,0,0,1-.23932,3.1445q-.27315-1.5117-.5449-3.0224C242.76858,152.9492,243.03128,152.9082,243.292,152.8672Z"/><path class="a" d="M235.54048,146.5771c-1.37248-.1689-2.3012-.2841-3.8833-.4804C233.92188,145.0645,233.92188,145.0645,235.54048,146.5771Z"/><path class="a" d="M243.377,146.0313c1.64588-1.2208,1.64588-1.2208,3.24068-.4737C245.73828,146.5088,244.80178,146.376,243.377,146.0313Z"/><path class="a" d="M243.94778,141.582c.6347.2412,1.2719.4844,1.9086.7246-.0766.21-.1533.418-.229.626q-.969-.31935-1.94038-.6377C243.77388,142.0576,243.86078,141.8193,243.94778,141.582Z"/><path class="a" d="M232.32318,141.9238c.5171-.122,1.0347-.2461,1.55182-.3681.04788.1826.09718.3662.14448.5478q-.7653.21975-1.5307.4375C232.43408,142.3359,232.37838,142.1309,232.32318,141.9238Z"/><path class="a" d="M177.83788,227.6768c-8.42188,2.7675-22.7398,2.8427-26.9082-.2051a20.14817,20.14817,0,0,1,2.166.0117c3.6465.4775,7.2954,1.4189,10.9302,1.3564,3.5249-.0615,7.0312-1.1425,10.5469-1.7793,1.1669-.2119,2.4716-1.08,3.2085.6895Z"/><path class="a" d="M153.99268,217.8848c7.3335.0449,14.6445.292,21.8784-1.2442.06792.2334.1338.4668.2002.6992a9.01442,9.01442,0,0,1-1.811.8731C168.95508,219.4531,156.60988,219.4082,153.99268,217.8848Z"/><path class="a" d="M121.85348,149.1875c.2617,1.9082.459,3.3496.6763,4.9268-.8174.3545-1.2905-.2686-1.4985-1.0137C120.65528,151.749,120.458,150.3662,121.85348,149.1875Z"/><path class="a" d="M120.05808,145.2217c-.9995.2842-1.9995.5703-3.0913.8818-.8779-.6406-.9922-1.3906.0981-1.8428a5.66911,5.66911,0,0,1,2.49612-.2021c.18408.0137.316.7529.47068,1.1582Z"/><path class="a" d="M128.98878,153.8301c-.4624-1.8213-.8203-3.2334-1.2115-4.7676C129.64788,149.8867,130.043,151.3447,128.98878,153.8301Z"/><path class="a" d="M123.29978,151.3672c1.7915.1562,2.981.2607,4.5059.3935C125.63478,153.4434,125.21288,153.4229,123.29978,151.3672Z"/><path class="a" d="M125.98488,145.2754c1.8803,1.6601,1.8803,1.6601.2675,3.0596C126.16358,147.3086,126.09178,146.4893,125.98488,145.2754Z"/><path class="a" d="M123.17678,145.876c.3789.7793.7265,1.4931,1.3711,2.8183-1.0752-.3994-1.7818-.4443-2.0655-.8144C121.94868,147.1826,122.20458,146.4668,123.17678,145.876Z"/><path class="a" d="M120.03168,145.2168c-.0229,1.3721-.2968,2.54-2.3481,2.1992.7852-.7305,1.5703-1.4609,2.3652-2.1933C120.05808,145.2217,120.03168,145.2168,120.03168,145.2168Z"/><path class="a" d="M130.51758,146.5117q-.6123-.5214-1.22458-1.042c.12638-.1758.25288-.3525.37988-.5273.4628.3174.9277.6338,1.3906.9502Q130.79093,146.2031,130.51758,146.5117Z"/><path class="a" d="M119.874,142.1875q-.82623.2607-1.65432.5215c-.0664-.2217-.1323-.4414-.19868-.6611q.832-.2403,1.66308-.4825C119.748,141.7725,119.81048,141.9805,119.874,142.1875Z"/><path class="a" d="M214.88478,70.9326c-1.6592-.0185-1.6592-.0185-3.335-1.4902,1.0483-.9717,2.3184-1.0342,3.82622-1.2695C215.18458,69.2549,215.03418,70.0957,214.88478,70.9326Z"/><path class="a" d="M210.66058,68.8789c.1348,1.2334.2691,2.4658.4581,4.1846a3.4025,3.4025,0,0,1-1.2701-4.1123Q210.25433,68.9146,210.66058,68.8789Z"/><path class="a" d="M216.06008,66.6543c1.6552.8926,1.9482,2.0605.809,3.5117Q216.46483,68.41115,216.06008,66.6543Z"/><path class="a" d="M210.53318,65.0391c1.0259.6699,1.7573,1.1474,2.5156,1.6425C210.98538,67.4395,210.792,67.335,210.53318,65.0391Z"/><path class="a" d="M169.53858,143.4766c1.1509-.168,2.1645-.3164,3.7739-.5498a18.66771,18.66771,0,0,0-2.8574,2.9853c-.6094,1.0459-.2398,2.6192-1.8858,3.5606C168.92288,147.2881,169.22408,145.4248,169.53858,143.4766Z"/><path class="a" d="M159.45558,149.3457c-1.063-1.168-.7202-2.332-.0567-3.8994A3.76326,3.76326,0,0,1,159.45558,149.3457Z"/><path class="a" d="M166.50878,147.4775c-1.9551,1.3565-2.624,1.3506-4.5269,0Z"/><path class="a" d="M156.96778,143.4541c1.0884.2002,2.0703.3809,3.1103.5723C158.522,145.5352,158.01558,145.4531,156.96778,143.4541Z"/><path class="a" d="M164.11518,73.8203c-1.7363-1.7822-2.1377-5.0254-1.0429-7.7168a8.19439,8.19439,0,0,0,.8374,1.8545,7.28145,7.28145,0,0,0,1.5239,1.0986C163.71678,70.4355,163.71678,70.4355,164.11518,73.8203Z"/><path class="a" d="M169.27588,68.7617c.3535.8574.707,1.7139,1.0434,2.5283-4.0922,2.6114-4.0922,2.6114-5.394.9659,1.2519-.3575,2.4082-.6875,3.5923-1.0264.04442-.7627.0898-1.5342.1328-2.3076C168.85838,68.8672,169.06838,68.8145,169.27588,68.7617Z"/><path class="a" d="M169.30178,65.5117c-.6211.0606-1.2427.1201-2.1045.2022C167.77588,64.1855,168.50878,64.4385,169.30178,65.5117Z"/><path class="a" d="M159.45558,65.3652c-.4405-2.0156-.4405-2.0156,1.58742-1.6914C160.46728,64.2871,160.02638,64.7578,159.45558,65.3652Z"/><path class="a" d="M160.73678,66.3828q-.70017.16695-1.4033.332a5.53327,5.53327,0,0,1-.1348-.747c.46632-.1465.9541-.2334,1.4361-.334C160.66888,65.8838,160.70258,66.1328,160.73678,66.3828Z"/><path class="a" d="M117.17528,68.2041c.2456-.3857.4961-1.1094.7363-1.1074,1.5552.0195,3.1065.1963,4.7241.3271-2.01268,1.7403-3.2031,1.877-5.5312.6914Z"/><path class="a" d="M122.14988,64.4434c-1.7593.999-3.44288,1.0761-4.2876.291-.3701-.3457-.3579-.5176.0576-1.7217C119.25778,63.4648,120.57958,63.9131,122.14988,64.4434Z"/><path class="a" d="M117.10448,68.1152c.0381,1.4209-.7481,1.2491-1.355.5362-.7388-.8662-.60248-1.8955.1836-3.1817.5156,1.1358.8784,1.9336,1.2412,2.7334Z"/><path class="a" d="M122.71878,65.209c2.1289.0664,2.3339,1.0361,1.78222,2.5644C123.98678,67.0352,123.47358,66.2959,122.71878,65.209Z"/><path class="a" d="M158.22168,136.4717c.8447-.7735,1.7451-.8086,2.7759.2939q-1.317.24615-2.6343.4932C158.31588,136.9961,158.269,136.7344,158.22168,136.4717Z"/></svg>