<svg xmlns="http://www.w3.org/2000/svg" xmlns:xlink="http://www.w3.org/1999/xlink" viewBox="0 0 300 300"><defs><style>.a{fill:none;}.b{clip-path:url(#a);}.c{fill:#fff;}.c,.d{fill-rule:evenodd;}</style><clipPath id="a"><rect class="a" x="7.1455" y="9.2588" width="281.8369" height="281.8359"/></clipPath></defs><title>gl_nav27</title><g class="b"><path class="c" d="M110.9746,170.666c-1.0098,1.2608-1.6211,2.1543-2.3613,2.9238a13.961,13.961,0,0,1-17.7393,2.1924c-1.4502-.9824-2.8213-2.0879-4.3056-3.0146a4.31106,4.31106,0,0,0-2.1573-.6338c-6.5459-.043-13.0937.0351-19.6396-.0322-3.834-.0391-7.6738-.1631-11.4942-.458-3.6562-.2803-7.29-.8321-10.9345-1.2598-1.6651-.1953-3.3604-.2383-4.9903-.5908-4.0634-.8789-8.2138-.9346-12.3173-1.4004-4.7012-.5332-7.2618-3.3975-8.2735-7.6123a35.47234,35.47234,0,0,1-1.1094-12.0655c.2422-2.2793.1143-2.5712-1.3584-4.2011,1.6006-.4268,1.6153-1.6797,1.6338-2.9658a177.77945,177.77945,0,0,1,2.5938-26.6788c1.2246-7.3164,2.3437-14.6513,3.6474-21.9541,1.0489-5.8759,2.3057-11.7148,3.5362-17.9082-1.5615-.5468-3.2461-1.205-4.9776-1.7002-.4365-.125-1.0361.2315-1.5361.4288-1.4629.5751-2.8711,1.4033-4.6777.8378-.458-1.3867.3574-2.4316,1.0195-3.4648,1.2432-1.9395,2.5352-3.8594,5.0234-4.5664,1.3545,1.7148.3174,3.3779-.0703,5.2764,1.4248.5283,2.7969,1.0371,3.9981,1.4814,3.7324-2.9277,4.2783-7.1875,5.7353-10.9473,1.6416-4.2382,2.8682-8.6416,5.1778-12.6025a33.48925,33.48925,0,0,1,1.915-3.0264,3.62853,3.62853,0,0,1,1.3086-.9004,55.37036,55.37036,0,0,1,15.9492-4.8544c3.2881-.5508,6.4649-1.7334,9.7285-2.4639,5.0567-1.1328,10.1055-2.4268,15.2295-3.0938a194.08535,194.08535,0,0,1,19.5674-1.5527c3.6953-.1016,7.4258.6973,11.125,1.2109,5.3955.75,10.5244,2.5352,15.6836,4.2032,3.3379,1.0781,6.7646,1.8857,10.082,3.0195,4.5283,1.5469,8.9707,3.3467,13.4883,4.9248,2.6309.918,5.3662,1.5322,8.0078,2.4248,11.1973,3.7793,22.375,7.6201,33.5645,11.4209,6.3515,2.1572,12.6816,4.3877,19.082,6.3857,5.709,1.7823,11.5195,3.2373,17.2559,4.9336,4.5156,1.336,8.9765,2.8584,13.4824,4.2286q8.8212,2.6835,17.6758,5.25c5.2871,1.5322,10.5937,2.9882,15.8906,4.4814.3066.0869.6074.1982.9082.3096a3.91,3.91,0,0,1,2.9531,4.0381c.0215,4.2978.2344,8.6005.5235,12.8906.2949,4.3818.7578,8.751,1.1777,13.122.4062,4.2129.9766,8.4151,1.2246,12.6368.1094,1.873-.4824,3.7773-.6094,5.6777-.2617,3.8945-.4316,7.7949-.6289,11.6934-.0801,1.5918-.1621,3.1855-.1914,4.7812a1.74933,1.74933,0,0,1-1.3711,1.751c-1.7519.5068-3.5234.9502-5.3086,1.3164-2.7265.5596-5.4746,1.0244-8.209,1.542a2.95848,2.95848,0,0,0-2.0761,1.6875c-1.5469,2.5957-3.1778,5.3027-6.2735,6.3125a45.89653,45.89653,0,0,1-6.9277,1.5937,18.38905,18.38905,0,0,1-4.3105.0098,5.72957,5.72957,0,0,1-5.4454-5.5684c-.0468-.538-.1113-1.0752-.1816-1.7441a22.05713,22.05713,0,0,0-6.6992.0938q-6.51855.94035-13.0391,1.8476c-2.209.3106-4.4219.5928-6.6269.918-5.9961.8847-11.9981,1.7422-17.9844,2.6933-4.5664.7246-9.1152,1.5606-13.666,2.3848a8.1122,8.1122,0,0,0-1.6289.7227,3.1496,3.1496,0,0,0-3.3828-.1934,12.33586,12.33586,0,0,1-3.4825.332c-.5175,1.1621-1.1875,2.5996-1.7968,4.0625a12.44082,12.44082,0,0,1-3.6211,4.9903c-1.2383,1.0078-2.4493,2.0625-3.7754,2.9414a6.81838,6.81838,0,0,1-2.8301,1.1933c-4.1855.4688-8.373,1.3125-12.6074.3184a11.62206,11.62206,0,0,0-3.0664-.3867c-3.9239.1601-6.917-1.6172-9.4102-4.4073-1.3262-1.4853-2.5224-3.0898-3.7363-4.6718a2.22266,2.22266,0,0,0-2.0586-.9073q-6.0879.2256-12.1826.334C115.5498,170.7041,113.0049,170.666,110.9746,170.666Z"/><path class="d" d="M111.125,171.8633c-1.0098,1.2607-1.6201,2.1543-2.3604,2.9238a13.96134,13.96134,0,0,1-17.7392,2.1924c-1.4512-.9824-2.8223-2.0879-4.3057-3.0147a4.31425,4.31425,0,0,0-2.1572-.6337c-6.5469-.043-13.0937.0351-19.6406-.0323-3.833-.039-7.6729-.1631-11.4942-.458-3.6552-.2803-7.289-.832-10.9336-1.2597-1.665-.1954-3.3613-.2383-4.9902-.5909-4.0644-.8789-8.2139-.9345-12.3184-1.4004-4.7011-.5332-7.2617-3.3974-8.2734-7.6123a35.5194,35.5194,0,0,1-1.1094-12.0654c.2422-2.2793.1153-2.5713-1.3574-4.2012,1.5996-.4267,1.6152-1.6796,1.6338-2.9658a177.64872,177.64872,0,0,1,2.5938-26.6787c1.2236-7.3164,2.3427-14.6514,3.6474-21.9541,1.0488-5.876,2.3047-11.7148,3.5361-17.9082-1.5615-.5469-3.247-1.2051-4.9775-1.7002-.4375-.125-1.0371.2315-1.5371.4287-1.4619.5752-2.8711,1.4033-4.6777.8379-.4571-1.3867.3574-2.4316,1.0195-3.4648,1.2441-1.9395,2.5352-3.8594,5.0234-4.5664,1.3555,1.7148.3184,3.3779-.0703,5.2763,1.4258.5283,2.7979,1.0371,3.9981,1.4815,3.7334-2.9278,4.2793-7.1875,5.7363-10.9473,1.6416-4.2383,2.8672-8.6416,5.1777-12.6025a33.47623,33.47623,0,0,1,1.9151-3.0264,3.616,3.616,0,0,1,1.3076-.9004A55.38219,55.38219,0,0,1,54.7207,42.166c3.2891-.5508,6.4648-1.7334,9.7295-2.4639,5.0557-1.1328,10.1045-2.4267,15.2295-3.0937a194.06565,194.06565,0,0,1,19.5664-1.5527c3.6953-.1016,7.4268.6972,11.125,1.2109,5.3965.75,10.5254,2.5352,15.6836,4.2031,3.3379,1.0782,6.7656,1.8858,10.082,3.0196,4.5293,1.5468,8.9707,3.3466,13.4893,4.9248,2.6299.9179,5.3662,1.5322,8.0068,2.4248,11.1973,3.7793,22.375,7.6201,33.5654,11.4209,6.3506,2.1572,12.6807,4.3877,19.0811,6.3857,5.71,1.7822,11.5195,3.2373,17.2568,4.9336,4.5157,1.3359,8.9766,2.8584,13.4825,4.2285q8.8197,2.68365,17.6757,5.25c5.2862,1.5322,10.5928,2.9883,15.8897,4.4815.3076.0869.6084.1982.9082.3095a3.90914,3.90914,0,0,1,2.9531,4.0381c.0225,4.2979.2354,8.6006.5244,12.8906.294,4.3819.7569,8.751,1.1778,13.1221.4052,4.2129.9765,8.4151,1.2236,12.6367.1094,1.8731-.4824,3.7774-.6094,5.6778-.2617,3.8945-.4306,7.7949-.6279,11.6933-.0801,1.5918-.1621,3.1856-.1924,4.7813a1.74835,1.74835,0,0,1-1.3711,1.751c-1.751.5068-3.5234.9501-5.3086,1.3164-2.7265.5595-5.4736,1.0244-8.209,1.542a2.96,2.96,0,0,0-2.0761,1.6875c-1.5469,2.5957-3.1768,5.3027-6.2725,6.3125a45.92126,45.92126,0,0,1-6.9287,1.5937,18.38975,18.38975,0,0,1-4.3106.0098,5.72794,5.72794,0,0,1-5.4443-5.5684c-.0469-.5381-.1123-1.0752-.1826-1.7441a22.06036,22.06036,0,0,0-6.6992.0937q-6.5172.9405-13.0391,1.8477c-2.208.3105-4.4209.5927-6.6269.9179-5.9961.8848-11.9971,1.7422-17.9834,2.6934-4.5674.7246-9.1163,1.5605-13.667,2.3848a8.10868,8.10868,0,0,0-1.628.7226,3.15016,3.15016,0,0,0-3.3828-.1933,12.35347,12.35347,0,0,1-3.4834.332c-.5166,1.1621-1.1875,2.5996-1.7968,4.0625a12.44075,12.44075,0,0,1-3.6211,4.9902c-1.2373,1.0078-2.4493,2.0625-3.7754,2.9414a6.81988,6.81988,0,0,1-2.8301,1.1934c-4.1856.4687-8.3731,1.3125-12.6074.3184a11.617,11.617,0,0,0-3.0664-.3868c-3.9229.1602-6.9161-1.6172-9.4092-4.4072-1.3272-1.4853-2.5225-3.0898-3.7373-4.6719a2.22206,2.22206,0,0,0-2.0576-.9072q-6.0894.2256-12.1827.334C115.7012,171.9014,113.1563,171.8633,111.125,171.8633ZM96.9395,112.167c-.8399.2519-.6778.9492-.7188,1.5752-.1133,1.75-.2432,3.499-.3769,5.248-.379,4.9336-.9317,9.8604-1.1016,14.8008-.209,6.0713-.0801,12.1533-.1406,18.2295-.0245,2.3906-.2657,4.7822-.2286,7.1699.043,2.7129.2969,5.4219.4366,8.1328.041.8047.3427,1.75-1.0264,2.2442-.2441-4.541-.4824-8.9453-.7275-13.4873-1.2725.3183-2.1817,1.6592-3.4405.6377-3.8105.2549-7.6191.5693-11.4336.7422a52.742,52.742,0,0,1-6.9404-.0801,15.87117,15.87117,0,0,1-3.8838-1.1602c-.8506-.3086-1.3652-.9941-.8779-1.8886,1.3271-2.4405,2.7363-4.835,4.1201-7.2588,2.2891.1142,4.5488.5459,6.7188.2705a146.7427,146.7427,0,0,1,16.08-1.5293c.0645-1.3194.1543-2.5821.1836-3.8457.1016-4.5508.0606-9.1094.3067-13.6524.2256-4.1425.834-8.2636,1.1347-12.4043.6524-9.0039,1.0684-18.0273,1.8633-27.0175.6817-7.7149,1.7559-15.3946,2.6563-23.0899.164-1.4062.4902-2.6894,2.2304-2.8105a29.04154,29.04154,0,0,1,.5743-3.1797,20.92445,20.92445,0,0,1,1.1562-2.6172c-1.5-.2227-2.9746-.4395-4.625-.6836-.2051.9062-.376,1.583-.5088,2.2676Q97.0708,65.47165,95.791,72.168c-.2383,1.249-.4092,2.5127-.6572,3.7607-.6358,3.1953-1.5127,6.3594-1.9014,9.584-.6201,5.1523-.958,10.3398-1.3418,15.5186a11.15122,11.15122,0,0,1-2.0918,5.0224c-.5078.8301-.9902,1.6738-1.6533,2.7969-1.4892-.0811-2.4443,1.1787-3.3506,2.5459a15.12349,15.12349,0,0,1-1.3711,1.6631c-2.8672,3.207-5.7285,6.4189-8.6299,9.5957a4.83732,4.83732,0,0,1-1.8544,1.4336,68.94223,68.94223,0,0,1-8.7432,2.4814c-5.0195.9043-10.0928,1.5303-15.1582,2.1426a56.79529,56.79529,0,0,1-6.9326.3232c-1.9893-.0058-3.9766-.2588-5.9678-.3711-4.1377-.2343-8.2764-.4746-12.417-.6562a3.46607,3.46607,0,0,1-3.6426-2.7813,7.08268,7.08268,0,0,0-.8222-1.5185c-.1905.0283-.3809.0576-.5723.0869-.2188,1.5371-.5332,3.0693-.6416,4.6152-.3779,5.419-.6943,10.8428-1.002,16.2657a1.87027,1.87027,0,0,0,.3252,1.3222c1.5411,1.4395,1.2744,3.375,1.4375,5.1475a3.64638,3.64638,0,0,1-.6855,2.4267,3.7871,3.7871,0,0,0-.7852,3.128c.1514,1.1875.3535,2.3701.4795,3.5595a9.52157,9.52157,0,0,0,9.0948,8.3565c3.4921.1221,6.9638.7744,10.4462,1.1758,2.0225.2334,4.0479.4394,6.1592.667.6221-3.5401-.0918-6.8262.4121-9.9805a22.499,22.499,0,0,1,2.8545-.3682c3.3311.0176,6.6748-.7041,9.9893.3789,2.041.667,2.2148.7022,2.4531,2.9141.0772.7148.1035,1.4355.1504,2.1533.1338,2.0508.2656,4.1006.4053,6.2539,2.4248.1797,4.7197.4453,7.0185.502a209.313,209.313,0,0,0,25.8721-.6778c1.0391-.1035,1.8857-.2675,1.9893-1.5224.0048-.0518.2626-.084.5273-.1612.1934.4532.3935.92.6152,1.4375,10.793-.9521,21.5742-.0673,32.3848-.9101.1768-3.2227,1.1016-6.1533.5234-9.0723-5.6865.3418-11.1777.6983-16.6718.9922-5.4688.294-10.9141,1.4649-16.4278.5586,11.0703-1.4961,22.2803-1.4199,33.4551-3.0039.084-2.7129.166-5.1855.2383-7.6582.0713-2.3926.0527-4.793.2226-7.1797.17-2.373.5254-4.7334.7998-7.0996q.315.0264.6319.0527c-.1699,3.5323-.3653,7.0635-.5039,10.5967-.1416,3.6436-.2266,7.2891-.3399,11.042a15.04716,15.04716,0,0,0,1.8262.0899c5.332-.4161,10.6582-.9043,15.9941-1.2559a2.58641,2.58641,0,0,0,2.6016-2.25c.6699-2.3818,1.4434-4.7363,2.2383-7.0801a29.4629,29.4629,0,0,1,9.7041-14.2578,7.6827,7.6827,0,0,1,8.9248-.4385,9.75232,9.75232,0,0,1,4.7402,7.6504c.3858,4.5244.4903,9.0733.7227,13.6123.0224.4444.1055.8867.1523,1.253,3.3965-.4229,6.6328-.9131,9.8877-1.212,7.5498-.6933,15.1299-1.1152,22.6592-1.9785,8.5605-.9814,17.082-2.3047,25.6152-3.5137,5.2871-.75,10.5664-1.5673,15.8184-2.3496.2451-.7959.4102-1.3173.5664-1.8418.8496-2.8242,1.6582-5.6621,2.5664-8.4677a7.786,7.786,0,0,1,1.2363-2.3057c1.0918-1.4209,2.3711-1.6152,3.6934-.3926a7.7626,7.7626,0,0,1,1.9668,2.9082c1.8769,5.1094,2.0244,10.4717,2.0703,15.836.0078.8574.001,1.7168.001,2.7812,2.1933-.5117,4.1113-1,6.0488-1.4013,2.416-.5,4.8858-.7842,7.2608-1.4268,2.415-.6543,2.4335-.8848,2.539-3.3535.1436-3.3477.2285-6.7002.4766-10.0401.2011-2.7002.6201-5.3838.9062-8.0781a8.24421,8.24421,0,0,0-.082-1.666c-.2432-2.4639-.5332-4.9248-.7451-7.3906-.3067-3.5616-.5606-7.126-.8164-10.4307a18.77022,18.77022,0,0,0-3.7793-.6543,33.23857,33.23857,0,0,1-10.3594-.6865,3.81683,3.81683,0,0,0-1.1895.0264,14.45265,14.45265,0,0,1-2.3203.1484c-3.2539-.3262-6.5009-.7178-9.749-1.0986-7.7656-.9112-15.5351-1.8106-23.2978-2.753-3.7256-.4531-7.4327-1.0664-11.1612-1.4765-5.4746-.6035-10.9668-1.0625-16.4453-1.6348-9.8515-1.0312-19.7051-2.0371-29.5439-3.1738-6.8194-.7871-13.6153-1.7852-20.4239-2.6709-3.3515-.4356-6.7089-.8301-10.2216-1.2627-.4102-4.0254-.7295-8.1426-1.2696-12.2324-.6474-4.9004-1.455-9.7793-2.2441-14.6602q-1.3125-8.127-2.7236-16.2383c-.1827-1.0566-.2881-2.0312.7148-2.8926,1.499.4747,3.0049.9727,4.5234,1.4297q7.91175,2.3877,15.8291,4.751c7.043,2.0986,14.0664,4.2666,21.1387,6.2529,6.6895,1.8789,13.4453,3.5147,20.1475,5.3467,7.0049,1.9151,13.9765,3.9561,20.9717,5.9053q8.30415,2.31585,16.6328,4.5449c7.8632,2.1113,15.7363,4.1914,23.6035,6.293.539.1435,1.0547.374,1.5879.541a4.63866,4.63866,0,0,1,3.5351,4.3144c.2071,2.254.4365,4.504.6573,6.7559.5517-2.8945-.1846-5.7969.1689-8.7158,5.0029.3545,9.5254,1.2256,13.5322,4.0693.1162-2.4082-1.0195-3.8203-3.4668-4.5117-5.0674-1.4326-10.1562-2.7949-15.2021-4.3027-9.0137-2.6934-17.9981-5.4864-27.003-8.211-9.3085-2.8173-18.6591-5.498-27.9296-8.4355-7.2266-2.2891-14.3506-4.9004-21.5342-7.3281q-11.2266-3.794-22.4805-7.503c-5.7598-1.8945-11.5547-3.6806-17.3105-5.5869-2.5762-.8515-5.0606-1.9814-7.6446-2.8008-5.0957-1.6132-10.2187-3.1416-15.3545-4.625-5.7587-1.664-11.5517-3.1738-17.6494-2.3779a1.05752,1.05752,0,0,1-.6826-.0586c-1.8213-1.3193-3.624-.1855-5.6006-.1455,1.1367.6201,2.0469,1.1914,3.0176,1.6289a4.25511,4.25511,0,0,1,2.5723,3.7402,14.06279,14.06279,0,0,1-.8399,6.5528,15.62224,15.62224,0,0,0-.4394,2.0137c1.5722.1171,2.873.2128,4.166.3085.8926-3.7578,1.7168-7.2265,2.5742-10.833a23.03493,23.03493,0,0,1,3.3262.0235c4.1679.6601,8.249,1.8545,12.5058,1.9677a3.64941,3.64941,0,0,1,2.8145,1.5352,14.10148,14.10148,0,0,1,2.8105,7.5059c.3116,2.4531.3819,4.9355.5938,7.4023.7031,8.1992,1.5693,16.3867,2.0918,24.5957.5332,8.3633,1.001,16.7471.9961,25.1221-.0039,6.9346-.7393,13.8691-1.1485,20.8037a41.98443,41.98443,0,0,1-4.1445,16.3584c-1.3516,2.7295-3.9141,4.1543-6.3574,5.54-1.5156.8614-3.4727.9287-5.2188,1.4004-5.1601,1.3955-10.3134,2.8155-15.4687,4.2246a2.028,2.028,0,0,1-2.793-1.916c-.0459-.7129.0635-1.4346.084-2.1523.0479-1.7559.1133-3.5127.1221-5.2696q.02925-6.10395.0068-12.2089a4.42944,4.42944,0,0,0-.1562-2.1055,5.89565,5.89565,0,0,1-.5108-3.7129c.2695-5.0234.5283-10.0488.8154-15.0713.0459-.7939.2227-1.5801.3184-2.3896q.7983-7.84875,1.5996-15.6954c.5479-5.3144,1.1192-10.6259,1.6621-15.9404q.7296-7.1367,1.4141-14.2783c.0625-.6504.0078-1.3125.0078-1.9688a18.58249,18.58249,0,0,0-1.25,4.9766q-.999,8.18115-1.8906,16.375-.5538,5.1123-.9512,10.2412-.56535,7.1484-1.0029,14.3057A7.35344,7.35344,0,0,0,96.9395,112.167ZM81.666,113.293c1.294-1.6319,2.7246-3.4385,4.1582-5.2432a7.96076,7.96076,0,0,1,1.5205-1.8223,8.04407,8.04407,0,0,0,3.4395-6.2929c.6201-5.6778,1.0693-11.375,1.5713-16.8711-1.7012.5937-3.2657,1.7051-4.6143,1.4863a60.07835,60.07835,0,0,0-6.8955-.456c-2.5244-.1221-2.6934-.3624-2.457-2.9151q.8349-9.06585,1.6875-18.1308a6.13329,6.13329,0,0,0-.3965-3.3741c-1.0137,2.4639-2.9121,2.458-4.7109,2.4268a23.13206,23.13206,0,0,1-3.7676-.6172c-2.1885-.4121-2.6895-1.0176-2.7364-3.1953-.0214-.9365.3223-1.6582,1.334-1.5752q3.90525.32085,7.792.8379a28.05057,28.05057,0,0,1,3.2617.8408c.1905-1.4316.333-2.5029.4834-3.6406.9707-.1016,1.8223-.1914,2.6202-.2754,1.9013-4.1231,1.9013-4.127,6.5761-3.9512.878.0332,1.753.1485,2.6299.1641,1.4942.0283,2.9902.0078,4.5928.0078a13.39424,13.39424,0,0,0,.6055-7.7754,4.106,4.106,0,0,0-2.2774-3.208A13.50453,13.50453,0,0,0,91.5,38.6162a57.86812,57.86812,0,0,0-8.3086.7051c-2.6777.3965-5.3144,1.0742-7.9648,1.6465-5.3028,1.1465-10.6563,2.1035-15.8848,3.5195-4.3145,1.169-8.5605,2.5498-13.0176,3.1123a9.66757,9.66757,0,0,0-2.0703.584,22.64791,22.64791,0,0,1-4.2148,1.5596c-2.4229.3525-3.6094,1.8769-4.4356,3.8652C30.791,65.1943,26.3457,76.8857,24.4707,89.4023c-.8496,5.6788-2.0859,11.2979-3.1318,16.9483-.5039,2.7207-.9727,5.4492-1.5889,8.916,2.3984-1.8525,4.5332-.9853,6.6309-.9805,6.8691.0186,13.7402.1504,20.6074.002,5.1855-.1123,10.3603-.6465,15.5449-.8848,4.5469-.208,9.0996-.2998,13.6523-.373C77.8262,113.0039,79.4717,113.1807,81.666,113.293Zm95.7002-47.8438c-13.917-4.3701-27.9805-8.3711-42.3467-12.5918.1778,1.3858.2823,2.3125.42,3.2354.3066,2.0449.6367,4.0879.9472,6.1328q.5742,3.78225,1.1319,7.5664c.1289.8652.2431,1.7334.371,2.5996q.61095,4.13385,1.2286,8.2676c.2724,1.8125.664,3.6142.8095,5.4355a31.34988,31.34988,0,0,0,1.3887,8.4375c.752,2.0655.5938,2.1348,2.7158,2.418,8.1416,1.082,16.2803,2.1816,24.4248,3.2461,2.9903.3906,5.9912.6992,8.9219,1.0381C179.3086,97.2627,179.2559,74.46,177.3662,65.4492Zm35.7315,39.2041c-.0606-.7246-.0938-1.1094-.125-1.4931-.4248-5.2471-.7793-10.501-1.2979-15.7393-.4268-4.3125.7666-8.75-1.2373-13.1035-10.125-2.9961-20.5488-5.836-31.0205-8.5049.1689,11.9951.335,23.7334.5039,35.6572C190.8262,102.375,201.8535,103.8799,213.0977,104.6533Zm-86.586-.9023c-.2226-13.002.2149-26.1426-1.4472-39.1367-6.1407-.7686-12.0059.2421-17.8926.3828-1.3711.0312-1.7647.6513-1.917,1.8623-.4385,3.4795-.9453,6.9502-1.4541,10.4209-.2998,2.0517-.7305,4.0859-.9688,6.1445q-1.185,10.22175-2.2636,20.4541a29.06631,29.06631,0,0,0,.0341,7.6729C109.3008,108.9326,117.8125,106.3701,126.5117,103.751ZM239.168,81.9834c-8.7373-2.2969-17.586-4.625-26.3672-6.9336a124.71637,124.71637,0,0,0,2.0693,29.9082c8.7783,1.0576,17.3692,2.0928,26.0869,3.1426,0-3.041.1231-5.7393-.0312-8.4219-.1973-3.4238-.6504-6.832-.9326-10.2519C239.7949,87.0205,240.7363,84.5293,239.168,81.9834Zm-61.7862,76.0557v8.2041c2.4092-.127,4.5733-.0772,6.6866-.3828,6.6308-.959,13.2324-2.1192,19.8632-3.0762,10.9043-1.5742,21.8184-3.0703,32.7354-4.5528,3.4736-.4716,6.9795-.707,10.4482-1.2109,2.9102-.4238,2.8936-.5566,3.0528-3.4648.0566-1.0274.291-2.0459.4091-3.0723a14.24385,14.24385,0,0,0,.0088-1.4824c-1.8173.3203-3.3711.6445-4.9394.8623-2.8379.3935-5.6904.6826-8.5254,1.0888-2.6875.3848-5.3535.9063-8.04,1.293-4.6582.669-9.3252,1.2764-13.9873,1.917-2.2129.3037-4.4141.7149-6.6348.9209-6.6758.6201-13.3633,1.1338-20.0391,1.7481C184.7734,157.167,181.1377,157.624,177.3818,158.0391ZM241.416,82.4775c-.6377,8.9112,1.125,17.2188,1.084,25.8789,7.0273.5713,13.6211,2.1446,20.6992,2.0489-.1054-2.0567-.1299-3.8711-.3037-5.6719-.3525-3.6445-.9834-7.2734-1.1377-10.9238-.2168-5.1221-1.3535-6.0752-5.5547-7.2676-1.9941-.5664-4.0254-.9981-6.0254-1.5488C247.3467,84.2119,244.5303,83.375,241.416,82.4775ZM125.748,111.8828c-5.0332,1.4629-9.5898,2.7861-14.3291,4.1641,0,1.7969.0811,3.4668-.0126,5.126-.5079,8.9179-1.0665,17.832-1.5801,26.749a27.6232,27.6232,0,0,0,.1484,2.9092c4.9766-1.6006,9.3164-3.6729,12.5664-7.502a5.58023,5.58023,0,0,0,1.2569-2.7187c.2802-2.129.2548-4.295.4091-6.4424.3213-4.4444.0987-8.9092.9688-13.3428C125.7217,118.0498,125.5664,115.1357,125.748,111.8828Zm-25.039,7.5586c-2.0674,11.6397-1.4668,22.7979-1.7871,34.0674,3.3515-.666,6.4414-1.2793,9.376-1.8613a288.63338,288.63338,0,0,0,1.1455-35.1631C106.3047,117.5479,103.4082,118.5283,100.709,119.4414ZM79.5039,82.5869a12.209,12.209,0,0,0,1.9004.3985c1.9883.0546,3.9785.0917,5.9668.0546,2.5576-.0478,3.0146-.3535,3.25-2.7871.6201-6.4218,1.1387-12.8535,1.6543-19.2851a14.21142,14.21142,0,0,0-.1406-2.8623,2.44142,2.44142,0,0,0-3.5762-2.1494c-.3301.123-.7773.3984-.9941.2793-1.6133-.875-3.1934-.1495-4.7813-.1231C80.4629,64.7783,80.2109,73.5654,79.5039,82.5869Zm184.9609,8.959c.2178,5.7461.4219,11.332.6436,16.916.0645,1.6192.6201,2.2334,2.3789,2.2813,2.9482.08,5.9014.0214,8.8467.0214.6308-.7265,1.248-1.4355,1.8984-2.1835-.1982-1.6456-.4756-3.3018-.5752-4.9688-.1035-1.7461-.0039-3.5039-.0498-5.2549-.084-3.1553-1.3613-5.5303-4.9082-6.4951a15.37305,15.37305,0,0,0-2.2793-.7148C268.5186,90.9463,266.5635,90.2842,264.4648,91.5459ZM163.6113,174.6162c1.2207-1.8516,2.4551-3.1816,3.0703-4.7529a26.03009,26.03009,0,0,0,.7178-17.7725,6.52368,6.52368,0,0,0-2.873-3.6885,2.91727,2.91727,0,0,0-4.0948.4659c-1.8027,1.9004-3.6582,3.7978-3.4746,6.7578a3.24155,3.24155,0,0,1-.499,1.3252c-2.1865,4.8252-1.0439,9.3662,1.3604,13.6943.8105,1.4609,2.1611,2.6914,4.1367,2.043C163.4414,172.2002,163.1934,173.3379,163.6113,174.6162Zm-14.1416-14.9648c-6.6299.4824-12.9004.9394-19.3896,1.4121-.209,3.1445-.4121,6.1992-.6133,9.2402,5.1758.8281,16.7656.127,19.167-1.0957C148.9063,166.0928,149.1758,163.0176,149.4697,159.6514Zm-56.1592-4.4258c0-1.8613.0254-3.2871-.0097-4.7129a7.54781,7.54781,0,0,0-.2598-2.7979c-.5703-1.2763-1.7002.0498-2.5566-.2373a1.82936,1.82936,0,0,0-.7051-.08c-3.0137.2402-6.042.3642-9.0313.7754-3.0917.4277-6.1269,1.5156-9.3437.2334-1.2051,2.2138-2.3379,4.2939-3.5039,6.4345a7.58572,7.58572,0,0,0,4.5644,1.3203c2.295.0254,4.5928.0059,6.8829-.1093C83.8691,155.8262,88.3867,155.5225,93.3105,155.2256ZM21.6504,125.0029c.3008.3789.5019.877.8486,1.0176a10.98386,10.98386,0,0,0,2.0908.4658c4.4141.8311,8.8829.7686,13.3467.8819,3.9854.1015,7.9639.6298,11.9502-.0176,1.8125-.2949,3.6348-.5254,5.4492-.8106,3.4659-.5439,6.9317-1.0888,10.3897-1.6777a12.48554,12.48554,0,0,0,2.0146-.7812C57.4385,122.9971,25.2168,123.6377,21.6504,125.0029ZM63.9297,42.0908c-2.6514-.5058-17.5781,2.9932-19.7637,4.5C50.9414,45.9453,57.0996,43.6543,63.9297,42.0908ZM94.4805,56.2607V69.7432l.166.0234c.7793-4.3955,1.5586-8.792,2.3672-13.3633C96.1182,56.3525,95.4395,56.3154,94.4805,56.2607ZM57.7031,164.2168c-.0293-2.5068-.4258-2.8096-3.0097-2.4219C55.0635,163.4307,56.9766,162.9385,57.7031,164.2168Zm200.2383-12.7676q-.3471-.0117-.6943-.0244-.15975,1.5264-.3213,3.0518c.1924.0244.3847.0498.5771.0732Q257.72265,153,257.9414,151.4492ZM174.877,141.3311c.5507,1.0312-1.1973,2.4873.5146,3.9199C175.1758,143.6084,175.0273,142.4697,174.877,141.3311Zm-2.0176,1.1054c-.5703-1.9365-.5703-1.9365-1.7246-1.9785.2968.5068.5478.9902.8574,1.4326C172.1104,142.0596,172.3643,142.1338,172.8594,142.4365Zm-71.003,34.584c2.3252-.0566,2.3252-.0566,2.7315-1.6113C103.6758,175.9482,102.876,176.4189,101.8564,177.0205Zm14.3682-26.5976c.0742.1425.1465.2851.2207.4277q1.4634-.769,2.9277-1.5371c-.0595-.1153-.1191-.2285-.1777-.3438Q117.71,149.6963,116.2246,150.4229ZM35.793,122.0684c.0117.1806.0244.3603.0371.54q1.41795-.12015,2.8359-.2402c-.0058-.0996-.0137-.1993-.0195-.2998ZM75.2676,38.1475c-.0156.1552-.0322.3105-.0488.4658q1.16445-.1743,2.3281-.3496c-.0069-.0733-.0137-.1475-.0196-.2217C76.7734,38.0771,76.0215,38.1123,75.2676,38.1475ZM17.3174,149.3467c-.0772.0058-.1533.0137-.2295.0195v2.6367c.1162-.0058.2324-.0107.3496-.0156Q17.3775,150.666,17.3174,149.3467ZM120.125,44.7432l.041-.3692q-1.0722-.123-2.1416-.2461c-.0146.1367-.0303.2725-.0449.4092Q119.0532,44.6397,120.125,44.7432Zm-71.6895,122.08q.28725.126.5723.25.4131-.87.8242-1.7421-.3252-.14355-.6504-.2872Q48.8096,165.9346,48.4355,166.8232Zm50.6993-64.6406.2695.0967q-.0498-1.00785-.0977-2.0156c-.0439.0322-.0878.0654-.1718.1289ZM49.9189,170.7861c-.0009-.1054-.0009-.2109-.0019-.3164H48.3066c.001.1055.002.211.002.3164ZM123.001,62.1006c.5869.7978,1.126,1.1084,1.5713-.0918C123.9355,62.0459,123.4688,62.0732,123.001,62.1006ZM112.6777,48.7529c.0489.1709.0957.3418.1446.5127q.66945-.2709,1.3388-.542c-.0478-.1318-.0966-.2646-.1435-.3965C113.5703,48.4688,113.125,48.6104,112.6777,48.7529ZM86.4473,53.0693c-.084-.0351-.17-.0693-.2549-.1045q-.27105.54945-.5401,1.0967c.1211.0528.2422.1045.3623.1563Q86.2315,53.6436,86.4473,53.0693ZM155.0801,172.624a2.36232,2.36232,0,0,0-.7988-.2666c-.1192.0108-.2129.3213-.3184.4951a3.44153,3.44153,0,0,0,.7031.3545C154.7246,173.2236,154.8682,172.9307,155.0801,172.624Zm-.3867-17.6465c.1504.0264.3007.0528.4511.0801.1368-.5469.2735-1.0918.4092-1.6387-.1172-.0312-.2334-.0625-.3506-.0947Q154.94825,154.1504,154.6934,154.9775Zm-41.7618-3.6777c.0342.1445.0694.2871.1045.4316.3223-.1035.6475-.1992.96-.3261a2.26323,2.26323,0,0,0-.0918-.4004Q113.418,151.1528,112.9316,151.2998Z"/><path class="d" d="M20.5234,146.4775a421.199,421.199,0,0,0,45.1778.1368c-.4375,3.4023-2.0147,5.789-3.4541,8.4726-2.1289,0-4.3477.0069-6.5664-.0019-3.7442-.0137-7.4912.0527-11.2315-.0762-6.1416-.2109-12.2773-.5879-18.4179-.8027-1.2989-.0459-1.7315-1.0821-2.2813-1.7676a36.09747,36.09747,0,0,1-2.8721-4.6651A6.256,6.256,0,0,1,20.5234,146.4775Z"/><path class="d" d="M133.71,125.5859c.5771,0,1.1543.003,1.7314,0q11.5035-.057,23.0068-.1162c7.2706-.039,14.542-.1259,21.8135-.1084,8.7891.0225,17.5801.0694,26.3682.2198,9.3447.1601,18.6875.4619,28.0322.6865,7.9785.1924,15.957.4267,23.9375.5205,5.8272.0674,11.6572-.0684,17.4854-.0996a10.4867,10.4867,0,0,1,1.3232.1494c.1982.915-.1885,1.1855-.8564,1.1865-5.3477.0078-10.6954.0615-16.042-.0039-5.0264-.0625-10.0518-.2549-15.0782-.3828q-9.45555-.24315-18.9121-.4736c-2.1543-.0537-4.3105-.0567-6.4629-.1534-20.8496-.9355-41.7089-.8671-62.5703-.6425-7.1875.0781-14.375.1718-21.5625.2382-.7588.0059-1.5195-.125-2.2793-.1923C133.666,126.1377,133.6885,125.8623,133.71,125.5859Z"/><path class="d" d="M156.9268,108.7568a36.34831,36.34831,0,0,0,1.0224-3.8066,36.64926,36.64926,0,0,0,.2041-4.0439c2.2432.3486,4.251.6494,6.2549.9755,2.585.42,5.1729.8282,7.7461,1.3096,1.1621.2178,2.291.6006,3.4512.9131.5918,2.2148-.2491,4.209-.4063,6.2344-.083,1.0683-1.0263,1.0761-1.8359,1.0507-2.4668-.0761-4.9317-.1611-7.3965-.2812-1.5898-.0781-3.1738-.2676-4.7647-.3281C159.4648,110.7139,157.9258,110.3145,156.9268,108.7568Zm2.1494-.3066c4.914.4629,9.3349.8769,13.9726,1.3125.5117-1.2617,1.0039-2.4746,1.6621-4.0977-5.2773-.582-10.0839-1.7871-15.207-1.6914C159.3516,105.5732,159.2266,106.8779,159.0762,108.4502Z"/><path class="d" d="M274.4082,145.8799V132.9365c2.6279-.6933,3.6934.0371,3.6582,2.5772-.0488,3.5693-.1601,7.1367-.2471,10.8154-4.5771.7246-9.0312,1.4297-13.4716,2.1318-.4258-1.081.1337-1.4209.7793-1.5166,1.3418-.1992,2.7021-.2705,4.0507-.4238C270.915,146.3232,272.6494,146.0967,274.4082,145.8799Zm1.7881-1.5723a15.2987,15.2987,0,0,0,.5088-7.1582C276.042,139.499,276.2363,141.9131,276.1963,144.3076Zm.6836-9.9043c-.3731-.2168-.6182-.4746-.8184-.4433a.78133.78133,0,0,0-.5439.5254c-.0108.1904.3388.5781.4844.5566C276.2549,135.0068,276.4717,134.7217,276.8799,134.4033Z"/><path class="d" d="M87.7939,164.4229c.0538.914.1006,1.7187.1485,2.5234-.1162.1074-.2334.2148-.3486.3232-1.419-2.3525-3.543-1.623-5.5079-1.584-1.0371.0206-2.0781-.0097-3.1093.0791a2.30188,2.30188,0,0,0-1.4873.504c-.46.5859-.7139.499-1.3467.2714-1.5059-.5429-1.5362-.457-2.0606,1.833,3.9766-.3369,7.8623-.6669,12.0235-1.0185-.8379,1.2109-.8399,1.1855-6.5274,1.6816-2.1933.1914-4.3652.8535-6.9121.1641.2774-1.2676.541-2.4688.8086-3.6914A59.79614,59.79614,0,0,1,87.7939,164.4229Z"/><path class="d" d="M195.9053,149.0615c-.1104,1.3399-.5147,1.7383-1.5459,1.6983-.9209-.0352-1.2559-.5205-1.2129-1.376.0586-1.1328.8125-2.1152,1.623-1.9942A1.29178,1.29178,0,0,1,195.9053,149.0615Z"/><path class="d" d="M218.6563,149.1172c-1.7247-2.2061-1.5899-3.0264.5019-3.9229C220.248,147.0957,220.2227,147.3496,218.6563,149.1172Z"/><path class="d" d="M239.96,144.8252c1.1533,1.3965,1.1533,1.3965-.0762,2.75C238.9805,146.6924,238.9531,145.8564,239.96,144.8252Z"/><path class="d" d="M124.1055,164.0811c.3506-.25.6777-.6475,1.0586-.7051.3847-.0596,1.0937.1181,1.1836.3652.2607.7207-.336.9512-.9375.9688a6.46046,6.46046,0,0,1-1.1446-.1621C124.2129,164.3916,124.1592,164.2354,124.1055,164.0811Z"/><path class="d" d="M161.249,164.2393c.5244.9375.753,1.4316,1.0596,1.8711.6387.916,1.3271.9667,2.1699.2119,2.2813-2.044,2.543-8.2237.4219-10.4893a5.94673,5.94673,0,0,0-1.044-.7031c-3.1806,1.8828-2.9521,5.2187-3.6054,8.3545-.3565-.2959-.7471-.4639-.7569-.6494-.1396-2.8633.3692-5.5899,2.3829-7.7471,1.624-1.7373,3.3623-1.5508,4.4023.6055a14.21614,14.21614,0,0,1,1.249,5.0498,9.19156,9.19156,0,0,1-1.9961,6.2656,2.44747,2.44747,0,0,1-2.9736.7783C161.3809,167.3008,160.9258,166.3203,161.249,164.2393Z"/><path class="d" d="M160.4453,152.3662c-.1289-1.3262-.1953-2.0156-.289-2.9746,1.1875.29,1.7138.7559,1.6367,1.5371C161.7578,151.2861,161.1992,151.5928,160.4453,152.3662Z"/><path class="d" d="M142.6006,163.3838a3.08684,3.08684,0,0,1,3.292-.4395C144.9727,164.1982,143.9922,164.0439,142.6006,163.3838Z"/><path class="c" d="M144.5527,301.3525h-2.8642c-.4024-2.1699-.834-4.4912-1.3213-7.1142a37.60421,37.60421,0,0,0-2.7988,3.0596,3.82591,3.82591,0,0,0-.3174,1.8164c-.0928,1.0761-.1387,2.1543-.2295,3.625-1-.7676-1.7559-1.3184-2.8545-.2032-.1445-2.4316-.2598-4.3945-.3857-6.5136-.2803-.1104-.7842-.3399-1.3057-.5088a3.13366,3.13366,0,0,1-2.2881-3.0401c-.0225-.3183-.1123-.6347-.1064-.9521.041-2.3877-.4961-4.3233-3.1543-5.1563a3.009,3.009,0,0,1-1.5723-1.956,18.39217,18.39217,0,0,1-.5547-4.9434c.2637-6.2246.7969-12.4414.957-18.6679.045-1.7549-.8925-3.5215-1.2851-5.3028a25.15507,25.15507,0,0,1-.7783-4.6836c-.2139-8.3066-.212-16.6191-.5118-24.9219-.1816-5.0244-.7724-10.0351-1.1836-15.0517-.2353-2.8682-.5712-5.7334-.6709-8.6065a6.622,6.622,0,0,1,.7833-3.166,41.10779,41.10779,0,0,1,2.8886-4.3965c.9668-1.371,2.3623-2.5585,2.9278-4.0664.9687-2.5839,2.9306-3.9921,5.0527-5.332a2.58266,2.58266,0,0,0,1.3623-2.5439c-.1406-3.0342-.043-6.086-.3272-9.1045a34.58833,34.58833,0,0,0-1.3457-5.7959c-1.5058-5.4844-3.1015-10.9502-1.8847-16.7412a9.21189,9.21189,0,0,0,.2851-2.1358c-.1425-4.6426,2.6133-7.5361,6.0157-10.0234a24.7219,24.7219,0,0,1,9.6689-4.0303,14.73236,14.73236,0,0,1,1.9053-.0176,46.92783,46.92783,0,0,0,5.6836-.5117,18.07886,18.07886,0,0,1,10.1465.6113,8.71305,8.71305,0,0,1,3.7119,2.8829,65.48058,65.48058,0,0,1,5.459,8.7187,6.59468,6.59468,0,0,1-.4571,6.8594c-.2607.3896-.5556.7549-.999,1.3535,1.0547,1.1426,2.0371,2.2715,3.0889,3.333,1.7002,1.7148,1.7343,1.9482.1299,3.6396a10.92846,10.92846,0,0,1-1.0079.834c1.0391,1.9551.7754,3.7832.125,5.7461-.4004,1.2071-.0742,2.6543-.0742,4.1035-2.1504.7442-4.2392,1.4688-6.499,2.252a6.29419,6.29419,0,0,0,.7754,1.7637c1.5517,1.6865,2.7783,3.7168,4.9287,4.7988a2.06832,2.06832,0,0,1,.833.8086c1.7588,3.2197,5.042,4.334,7.8672,5.959a38.24161,38.24161,0,0,0,2.4141,4.873,15.21956,15.21956,0,0,1,2.3457,7.2051c.6035,5.7988,1.1757,11.6035,1.7978,17.4004.6465,6.0381,1.2471,12.082,2.0371,18.1016.6856,5.2285,1.6045,10.4267,2.4258,15.6367.2988,1.8965.5176,3.8105.9414,5.6777.7441,3.2773,1.5869,6.5303,3.5303,9.3711a13.57271,13.57271,0,0,1,2.1611,7.2314,36.02168,36.02168,0,0,0,1.3281,7.2647c.92,3.4726,2.0088,6.9053,3.1426,10.3164.5528,1.6602,1.3848,3.2266,2.0606,4.8477a3.45107,3.45107,0,0,1,.2617,2.1035Z"/><path class="c" d="M220.3818,301.5752c-.8496-2.6191-1.6943-5.0781-2.4394-7.5645-1.3057-4.3574-2.7686-8.6836-3.7393-13.1171-.6074-2.7715-.4345-5.7129-.622-8.7422-.4512.1504-.8487.2822-1.2559.417-.1211-.0909-.3418-.1758-.3457-.2705-.2607-6.4571-.7656-12.92-.6445-19.3711.0683-3.6299,1.1582-7.2422,1.8125-10.8584a19.511,19.511,0,0,0,.2851-7.6104,11.35123,11.35123,0,0,0-.414-1.2627c-1.8125-.4189-3.5-.9053-5.2227-1.1728a2.55516,2.55516,0,0,1-2.0459-1.6739c-2.3203-4.4043-2.5361-9.1718-2.7217-13.9765-.0801-2.0703-.3515-4.1348-.5654-6.2002q-1.2774-12.3984-2.5625-24.7959a15.706,15.706,0,0,1,.0225-2.1543,6.17053,6.17053,0,0,1,3.4423-5.5996c5.1709-2.8535,10.3077-5.7735,15.3741-8.8067a46.13081,46.13081,0,0,0,4.75-3.7021,9.89924,9.89924,0,0,0-2.5342-5.169,8.02535,8.02535,0,0,1-1.7744-2.8105,31.45658,31.45658,0,0,1-2.3741-12.8731,3.58487,3.58487,0,0,0-.5556-2.1855c-2.542-3.3301-2.3028-6.917-.8272-10.4443a17.24726,17.24726,0,0,1,8.544-9.3487,10.914,10.914,0,0,0,2.2529-1.7636c5.3643-4.6651,11.4307-5.6299,18.1172-3.5196a14.727,14.727,0,0,1,9.5703,9.0703c2.0049,4.9932,3.5371,10.0723,3.2461,15.5752-.3936,7.419-.6436,14.8467-.917,22.2705a12.09879,12.09879,0,0,0,.1856,4.2803c.5292,1.5186,2.4667,1.1533,3.7226,1.7647,2.0645,1.0058,4.2754,1.7226,6.0723,3.2324.3662.3076.9277.5029,1.1133.8887,1.1201,2.3281,3.373,3.3164,5.332,4.6543a7.47333,7.47333,0,0,1,3.6631,6.7089c-.001,2.5606.9677,5.1543,1.6963,7.6797q4.5849,15.88485,9.3076,31.7324c.6133,2.0606,1.4795,4.0469,2.2763,6.0489a2.64242,2.64242,0,0,1-.7793,3.4218c-1.4375,1.1348-2.8457,2.3047-4.5546,3.6924.6377,3.9229,1.3105,8.0616,2.0332,12.5127-.9004,2.1494-2.9551,3.5489-5.2832,4.4492-2.8233,1.0918-5.7393,1.9649-8.6524,2.8008-2.1269.6094-2.5605,1.003-1.7539,2.9336a15.90872,15.90872,0,0,1,.8477,7.2754c-.4405,8.1504-1.4493,16.2324-2.6543,24.2969-.2276,1.5234-.3282,3.0664-.4864,4.6006-.1914-.0049-.3818-.0088-.5722-.0147Z"/><path class="d" d="M195.7324,300.1924c-1.8183-1.6377-1.5761-3.5664-2.2959-5.0664-.7558-1.5781-1.2461-3.2852-1.8506-4.9356-.5771-1.5761-1.1445-3.1552-1.7314-4.7285-.6133-1.6406-1.2461-3.2754-1.9141-5.0312a3.84686,3.84686,0,0,1-.957.3125c-4.4648.0703-8.1523,2.5127-12.1191,4.0449a48.70879,48.70879,0,0,1-22.5489,3.3457c-2.917-.2832-5.789-1.0293-9.0058-1.625-.6309,5.1103.4433,9.998,1.2431,14.8437h-2.8642c-.4024-2.1699-.834-4.4912-1.3213-7.1142a37.60421,37.60421,0,0,0-2.7988,3.0596,3.82591,3.82591,0,0,0-.3174,1.8164c-.0928,1.0761-.1387,2.1543-.2295,3.625-1-.7676-1.7559-1.3184-2.8545-.2032-.1445-2.4316-.2598-4.3945-.3857-6.5136-.2803-.1104-.7842-.3399-1.3057-.5088a3.13366,3.13366,0,0,1-2.2881-3.0401c-.0225-.3183-.1123-.6347-.1064-.9521.041-2.3877-.4961-4.3233-3.1543-5.1563a3.009,3.009,0,0,1-1.5723-1.956,18.39217,18.39217,0,0,1-.5547-4.9434c.2637-6.2246.7969-12.4414.957-18.6679.045-1.7549-.8925-3.5215-1.2851-5.3028a25.15507,25.15507,0,0,1-.7783-4.6836c-.2139-8.3066-.212-16.6191-.5118-24.9219-.1816-5.0244-.7724-10.0351-1.1836-15.0517-.2353-2.8682-.5712-5.7334-.6709-8.6065a6.622,6.622,0,0,1,.7833-3.166,41.10779,41.10779,0,0,1,2.8886-4.3965c.9668-1.371,2.3623-2.5585,2.9278-4.0664.9687-2.5839,2.9306-3.9921,5.0527-5.332a2.58266,2.58266,0,0,0,1.3623-2.5439c-.1406-3.0342-.043-6.086-.3272-9.1045a34.58833,34.58833,0,0,0-1.3457-5.7959c-1.5058-5.4844-3.1015-10.9502-1.8847-16.7412a9.21189,9.21189,0,0,0,.2851-2.1358c-.1425-4.6426,2.6133-7.5361,6.0157-10.0234a24.7219,24.7219,0,0,1,9.6689-4.0303,14.73236,14.73236,0,0,1,1.9053-.0176,46.92783,46.92783,0,0,0,5.6836-.5117,18.07886,18.07886,0,0,1,10.1465.6113,8.71305,8.71305,0,0,1,3.7119,2.8829,65.48058,65.48058,0,0,1,5.459,8.7187,6.59468,6.59468,0,0,1-.4571,6.8594c-.2607.3896-.5556.7549-.999,1.3535,1.0547,1.1426,2.0371,2.2715,3.0889,3.333,1.7002,1.7148,1.7343,1.9482.1299,3.6396a10.92846,10.92846,0,0,1-1.0079.834c1.0391,1.9551.7754,3.7832.125,5.7461-.4004,1.2071-.0742,2.6543-.0742,4.1035-2.1504.7442-4.2392,1.4688-6.499,2.252a6.29419,6.29419,0,0,0,.7754,1.7637c1.5517,1.6865,2.7783,3.7168,4.9287,4.7988a2.06832,2.06832,0,0,1,.833.8086c1.7588,3.2197,5.042,4.334,7.8672,5.959a38.24161,38.24161,0,0,0,2.4141,4.873,15.21956,15.21956,0,0,1,2.3457,7.2051c.6035,5.7988,1.1757,11.6035,1.7978,17.4004.6465,6.0381,1.2471,12.082,2.0371,18.1016.6856,5.2285,1.6045,10.4267,2.4258,15.6367.2988,1.8965.5176,3.8105.9414,5.6777.7441,3.2773,1.5869,6.5303,3.5303,9.3711a13.57271,13.57271,0,0,1,2.1611,7.2314,36.02168,36.02168,0,0,0,1.3281,7.2647c.92,3.4726,2.0088,6.9053,3.1426,10.3164.5528,1.6602,1.3848,3.2266,2.0606,4.8477a3.45107,3.45107,0,0,1,.2617,2.1035c-.2285-.168-.5664-.2871-.6651-.5117-.8964-2.0459-1.872-4.0684-2.5888-6.1778-1.0537-3.1015-1.8516-6.289-2.8721-9.4023a41.42305,41.42305,0,0,1-2.0127-10.3184,7.7591,7.7591,0,0,0-1.0244-3.6006c-2.6738-4.1396-3.8525-8.7295-4.5693-13.5127-.461-3.082-1.1348-6.1347-1.5567-9.2207-1.0303-7.5195-2.039-15.0449-2.9267-22.582-.8789-7.458-1.6221-14.9316-2.3838-22.4023-.7129-6.9981-4.6895-11.6748-10.627-14.9024a16.35421,16.35421,0,0,0-3.166-.9746,2.90222,2.90222,0,0,0-2.3291.7832,39.75735,39.75735,0,0,1-13.4853,8.5049,2.23026,2.23026,0,0,0-1.7237,2.4717c.2188,3.1015.1865,6.2343.6201,9.3047a16.3956,16.3956,0,0,0,1.8946,4.8457c.6621,1.3144.5654,2.248-.7032,2.917a5.13744,5.13744,0,0,1-1.1201.4228,26.72484,26.72484,0,0,1-15.3545-.2529,5.16885,5.16885,0,0,1-3.416-3.6143,40.61486,40.61486,0,0,1-2.6728-15.709c.1396-3.039-.1768-3.2353-3.3985-4.3457a8.20189,8.20189,0,0,0-.7705,3.8848c-.1836,14.1523-.4004,28.3047-.501,42.457a15.03773,15.03773,0,0,0,1.2393,6.4453,5.31029,5.31029,0,0,1,.2598,3.9707,3.38991,3.38991,0,0,0-.1035,2.2676,46.099,46.099,0,0,0,3.3085,5.5362c.669.9638,1.545.8505,3.8584-.0684.21-3.3467.8008-6.7861.5137-10.1504-.2178-2.5518-1.4658-5.042-2.4111-7.5-1.6602-4.3232-3.4463-8.5967-5.1563-12.9014a3.80834,3.80834,0,0,1-.0908-1.0918q.23445-.0834.4688-.167c.6181,1.3233,1.3349,2.6104,1.8379,3.9756,3.0107,8.1719,6.0185,16.3477,8.9189,24.5596a41.83553,41.83553,0,0,1,1.7754,6.958c.4551,2.6992,1.2148,5.1172,3.543,6.8115a10.71582,10.71582,0,0,1,1.4628,1.8369c-1.8828-.3828-2.3925-1.6855-3.332-2.3945a5.4467,5.4467,0,0,1-1.9648-3.4629,14.32608,14.32608,0,0,0-1.2198-3.789c-.1416.6211-.5585,1.3398-.3808,1.8496,1.4599,4.2021,1,8.2617-.3789,12.3984-.4287,1.2871-.0899,2.8623.04,4.293.2237,2.4668.6153,4.9179.8262,7.3847a2.68272,2.68272,0,0,0,2.2402,2.6856,45.259,45.259,0,0,0,23.6778.2383,124.00062,124.00062,0,0,0,14.3515-5.3867c1.3018-.5333,2.6641-.918,4.3233-1.4805a15.2645,15.2645,0,0,0-.7041-2.124c-2.5-5.1788-4.918-10.4004-7.5918-15.4893a58.71921,58.71921,0,0,1-6.0899-20.8066c-.4824-4.125-1.2177-8.2198-1.6933-12.3457-.4571-3.9688-.7403-7.959-1.0625-11.9424a12.44162,12.44162,0,0,1,.1367-1.9424c.1631.0098.3252.0195.4873.0283.1553,1.9258.3838,3.8486.4531,5.7783.3311,9.1426,2.2139,18.0801,3.6192,27.0762a43.83749,43.83749,0,0,0,5.0595,13.6611,213.70914,213.70914,0,0,1,10.7881,23.7881c1.7158,4.4766,3.3174,8.9961,4.9424,13.5059A13.2488,13.2488,0,0,1,195.7324,300.1924Zm-57.4951-10.959c.5098.6729,1.0195,1.3457,1.8252,2.4082-.083-1.1367-.1377-1.8809-.1992-2.7168-.7774.1563-1.2324.2481-1.6885.3398a4.22045,4.22045,0,0,1,2.3203-2.7402c.5039.4531.9219.8262,1.4209,1.2735.9854-1.7344-.6142-2.7891-.3838-4.2959-1.915,1.0498-3.541,2.0566-5.2656,2.8544-1.7109.7911-3.5195,1.3711-5.4453,2.1036.1299,1.2988.2734,2.5566.375,3.8173a2.17422,2.17422,0,0,0,1.7676,2.2608c1.1543.168,1.9902-.4873,2.7998-1.4317.9736-1.1347.0439-2.2578.3301-3.4423C136.832,289.5186,137.5195,289.3838,138.2373,289.2334Zm-9.4062-97.7383a28.14194,28.14194,0,0,0-5.9278,8.1875,6.66533,6.66533,0,0,0-.5586,3.0156c.1143,3.0313.4043,6.0547.5938,9.084.3711,5.8965.7773,11.792,1.0547,17.6934.1582,3.3398.0683,6.6914.1269,10.0371.0684,3.9121.1875,7.8223.2637,11.7324a5.84572,5.84572,0,0,0,1.3369,3.669,33.46724,33.46724,0,0,0,.9385-9.3897,14.0593,14.0593,0,0,1,.9844-6.0674,10.234,10.234,0,0,0,.7568-2.706c.1475-1.5059.1142-3.0313.1279-4.5489q.15825-17.6103.3008-35.2197C128.8418,195.335,128.8311,193.6875,128.8311,191.4951Zm46.9121-31.3105c-1.625-1.6797-2.9727-3.0742-4.3116-4.4571-5.6103,4.8418-6.4716,10.0918-4.0712,17.3965,2.2246.1963,3.5771-.2265,6.1591-2.0049-.9345-1.6064.7725-3.6298-.8623-5.3193.6309-.6084,1.2608-1.1973.6856-2.2305a1.46989,1.46989,0,0,1,.6289-2.0605C174.4961,161.1455,174.9951,160.7461,175.7432,160.1846ZM155.8916,179.707c-.5684,2.5948-.8457,11.6953-.457,12.9873,4.3896-.8632,11.5527-5.3828,12.5957-7.9248-1.2569,0-2.5274-.0556-3.791.0108a8.02583,8.02583,0,0,1-6.7637-2.916C156.96,181.2764,156.5439,180.6025,155.8916,179.707Zm-27.6562,61.8741c-.5743,1.5322-1.0567,2.8496-.0567,4.1992.3467,0,.6611-.0078.9746.0019.292.0108.583.041.8692.0625C130.3135,243.5869,130.1494,243.1748,128.2354,241.5811Zm11.7207,6.1914c-.1622.0117-.3243.0224-.4864.0341a8.87116,8.87116,0,0,0,.0567,5.3291c.6924-.5918,1.2011-1.0273,1.7256-1.4765C140.79,250.2734,140.3721,249.0225,139.9561,247.7725Zm-8.2872-59.1602c.6924.3906,1.4024.793,2.3965,1.3535v-3.5039C132.3496,187.0283,132.3496,187.0283,131.6689,188.6123Zm10.7979,108.0684c.1475-.0215.2959-.044.4434-.0664q-.3429-2.5167-.6856-5.0352c-.2041.0293-.4092.0586-.6133.0879Q142.0391,294.17485,142.4668,296.6807Zm-4.6455-4.1407c.1865-.0507.373-.1035.5586-.1543q-.22275-.58875-.4453-1.1777c-.1094.0332-.2168.0664-.3262.0986Q137.71535,291.9234,137.8213,292.54Z"/><path class="d" d="M220.3818,301.5752c-.8496-2.6191-1.6943-5.0781-2.4394-7.5645-1.3057-4.3574-2.7686-8.6836-3.7393-13.1171-.6074-2.7715-.4345-5.7129-.622-8.7422-.4512.1504-.8487.2822-1.2559.417-.1211-.0909-.3418-.1758-.3457-.2705-.2607-6.4571-.7656-12.92-.6445-19.3711.0683-3.6299,1.1582-7.2422,1.8125-10.8584a19.511,19.511,0,0,0,.2851-7.6104,11.35123,11.35123,0,0,0-.414-1.2627c-1.8125-.4189-3.5-.9053-5.2227-1.1728a2.55516,2.55516,0,0,1-2.0459-1.6739c-2.3203-4.4043-2.5361-9.1718-2.7217-13.9765-.0801-2.0703-.3515-4.1348-.5654-6.2002q-1.2774-12.3984-2.5625-24.7959a15.706,15.706,0,0,1,.0225-2.1543,6.17053,6.17053,0,0,1,3.4423-5.5996c5.1709-2.8535,10.3077-5.7735,15.3741-8.8067a46.13081,46.13081,0,0,0,4.75-3.7021,9.89924,9.89924,0,0,0-2.5342-5.169,8.02535,8.02535,0,0,1-1.7744-2.8105,31.45658,31.45658,0,0,1-2.3741-12.8731,3.58487,3.58487,0,0,0-.5556-2.1855c-2.542-3.3301-2.3028-6.917-.8272-10.4443a17.24726,17.24726,0,0,1,8.544-9.3487,10.914,10.914,0,0,0,2.2529-1.7636c5.3643-4.6651,11.4307-5.6299,18.1172-3.5196a14.727,14.727,0,0,1,9.5703,9.0703c2.0049,4.9932,3.5371,10.0723,3.2461,15.5752-.3936,7.419-.6436,14.8467-.917,22.2705a12.09879,12.09879,0,0,0,.1856,4.2803c.5292,1.5186,2.4667,1.1533,3.7226,1.7647,2.0645,1.0058,4.2754,1.7226,6.0723,3.2324.3662.3076.9277.5029,1.1133.8887,1.1201,2.3281,3.373,3.3164,5.332,4.6543a7.47333,7.47333,0,0,1,3.6631,6.7089c-.001,2.5606.9677,5.1543,1.6963,7.6797q4.5849,15.88485,9.3076,31.7324c.6133,2.0606,1.4795,4.0469,2.2763,6.0489a2.64242,2.64242,0,0,1-.7793,3.4218c-1.4375,1.1348-2.8457,2.3047-4.5546,3.6924.6377,3.9229,1.3105,8.0616,2.0332,12.5127-.9004,2.1494-2.9551,3.5489-5.2832,4.4492-2.8233,1.0918-5.7393,1.9649-8.6524,2.8008-2.1269.6094-2.5605,1.003-1.7539,2.9336a15.90872,15.90872,0,0,1,.8477,7.2754c-.4405,8.1504-1.4493,16.2324-2.6543,24.2969-.2276,1.5234-.3282,3.0664-.4864,4.6006-.1914-.0049-.3818-.0088-.5722-.0147a4.99809,4.99809,0,0,1-.1377-1.1816c.5615-4.6006,1.2705-9.1865,1.7021-13.7988.5274-5.6465.9336-11.3116,1.1592-16.9776.0635-1.5898-.6943-3.2119-1.0928-4.8926-3.3281.0918-5.9902,1.4278-8.7246,2.458-5.0781,1.9112-10.0566,4.1221-15.2168,5.7715-5.08,1.6231-10.1894,3.3321-15.6015,3.6289a8.47088,8.47088,0,0,0-1.4102.3223c-1.1269,3.2129-.4834,6.5469-.8965,9.8076-2.9843.8779-5.8047,1.376-8.7168.0596a10.97427,10.97427,0,0,0-2.9355-.4063v-1.8867c3.4277,1.4395,6.6191,3.1641,10.4346,1.3399.1923-2.4825.3945-5.0801.5878-7.5801a6.8519,6.8519,0,0,0-4.6025-1.3477c-1.834.0088-3.668-.166-5.5-.2724-1.3965-.0811-1.7266.1113-1.8926,1.499a21.03272,21.03272,0,0,0-.0976,3.3476c.2031,5.0782,1.7773,9.8624,3.2597,14.6563.8496,2.7441,1.8272,5.4492,2.7696,8.1641C221.0732,300.2598,221.3975,300.9033,220.3818,301.5752Zm5.2403-128.584c-5.6045-.6611-10.7442-.4609-15.5537,1.9629a60.94241,60.94241,0,0,0-7.0205,4.124c-2.4727,1.6924-2.754,4.3018-1.0118,6.5948a5.77616,5.77616,0,0,1,1.2452,2.0234c1.0185,4.8262,3.4228,9.1777,4.2119,14.1523,1.2246,7.7168,3.3486,15.2891,5.0019,22.9434.711,3.2891,2.4043,6.3086,2.1231,9.9062-.1582,2.044.0918,4.1485-.4922,6.1563-2.5899,8.9072-2.6856,17.9551-1.6514,27.0801.2529,2.2285.5654,2.5957,2.7412,2.8359a69.05883,69.05883,0,0,0,12.9004.252c7.7568-.5977,15.0332-2.8907,22.2344-5.5489,4.5703-1.6865,9.0781-3.542,13.6221-5.3027,1.4482-.5605,2.9209-1.0586,4.8564-1.7578-.8535-.2725-1.2051-.4102-1.5693-.4981a74.23088,74.23088,0,0,0-7.6807-1.7832c-3.668-.4785-5.0234-2.7519-5.625-6.0117-.623-3.3769-1.6992-6.7178-1.1904-10.1894.8916-6.0752,1.8154-12.1504,2.9599-18.1817a45.87416,45.87416,0,0,1,3.2266-10.9629c2.3174-4.9648,3.1865-10.3535,4.4355-15.6406,1.6338-6.9199.7364-13.6523-.9384-20.3799a6.73978,6.73978,0,0,0-.7549-2.0107,9.48064,9.48064,0,0,0-1.4199-1.4903c-1.3428.6583-2.378,1.2208-3.4551,1.6836-3.1992,1.377-4.3037,3.0821-4.252,6.667.0078.5147.001,1.0303.001,1.8252-2.3682-.8105-.4502-2.8789-1.6865-3.8945-.374.3437-.7617.707-1.1563,1.0625-1.5898,1.4346-3.164,2.8877-4.789,4.2822-.3291.2823-1.1133.5987-1.2403.4668-1.0234-1.0635-1.8545-.1084-2.7597.1338a18.99484,18.99484,0,0,1-1.9239.2617c1.0997-1.8828,1.9483-3.334,3.0684-5.25-.8447.2832-1.1172.3653-1.3838.4659-2.0068.7607-4.0078,1.5361-6.0205,2.2792-.3623.1338-1.0215.3116-1.1211.17-.9512-1.3418-2.0996-.4854-3.1865-.3916-.6416.0547-1.292.0097-2.4531.0097,2.0166-2.0498,2.7422-3.9082,1.7431-6.7343-.6426,1.7265-1.0996,2.9531-1.583,4.248-.8076.2637-1.6435.5371-2.4521.8018Zm42.5761,55.4971c.3741,2.1943.752,3.9883.9688,5.8017.209,1.7452-.1484,2.4981-1.0781,2.5118-1.4043.0214-1.25-1.1905-1.4414-2.0664-.4356-2.0079-.8291-4.0254-1.2793-6.2315-3.7657.5117-7.1973,1.3154-10.1573,3.5303a1.29414,1.29414,0,0,0-.498.7539c-.46,3.4687-1.3135,6.958-1.1914,10.4101.1084,3.045,1.2422,6.0704,2.0908,9.0567a3.21742,3.21742,0,0,0,1.6553,1.8398,36.09483,36.09483,0,0,0,11.5488,2.8985c3.7979.2334,7.2002-1.2373,10.6514-2.4248,4.9863-1.7159,6.0664-3.6475,5.2041-8.876q-.46725-2.83-1.0615-5.6406c-.5762-2.7207-1.2403-5.4239-1.8086-8.1475a3.61207,3.61207,0,0,0-2.7207-2.75C275.6045,228.1279,272.0244,228.2959,268.1982,228.4883Zm6.6885-43.4981a10.37786,10.37786,0,0,0-.9795,1.3623,27.209,27.209,0,0,0-2.0859,16.126,116.36256,116.36256,0,0,0,3.7539,13.8291,16.77826,16.77826,0,0,0,1.8066,3.0479,19.04212,19.04212,0,0,1,.9473,2.0634,15.13762,15.13762,0,0,0,.6533,1.7608,51.33788,51.33788,0,0,1,4.4903,11.3076c.3955,1.3633,1.04,1.7559,2.2646,1.0488,2.5957-1.498,3.8457-2.8027,2.6006-5.705a58.52088,58.52088,0,0,1-2.2666-6.5274c-1.1035-3.7461-2.0361-7.543-3.1358-11.2891-2.3349-7.9531-4.7304-15.8886-7.1005-23.83C275.5469,187.2178,275.2607,186.251,274.8867,184.9902Zm-61.8369,46.669c-.2519-1.5-.417-2.9024-.7363-4.2696-.4727-2.0175-1.1338-3.9941-1.5752-6.0175-1.3936-6.3887-2.5381-12.8389-4.1358-19.1758-1.2441-4.9346-3.0117-9.7373-4.5742-14.5899-.1035-.3164-.4385-.5585-.9238-1.1484a14.11419,14.11419,0,0,0-.126,1.7637c.3858,4.6074.7432,9.2168,1.2041,13.8164.5957,5.9473,1.4707,11.873,1.8496,17.832a26.04466,26.04466,0,0,0,2.4912,9.6348c.2266.4814.5362,1.1543.9473,1.2773C209.1787,231.2998,210.8623,232.1748,213.0498,231.6592Zm42.2559-2.0029c8.2002-3.2354,16.2109-5.1329,24.6142-1.8292a9.07094,9.07094,0,0,0-4.001-6.1367,7.5902,7.5902,0,0,1-2.0078-1.6816,3.79146,3.79146,0,0,0-3.6054-1.3887,33.32686,33.32686,0,0,0-4.9473.4024c-2.5732.582-5.3164,1.0254-6.7881,3.7187-.5605-.041-1.1045-.081-1.6484-.1211C256.1982,224.9033,254.8799,226.9941,255.3057,229.6563Zm8.664-56.0264c-.1699.0449-.3398.0879-.5097.1308.1191.5196.248,1.0352.3554,1.5547,1.1309,5.501,1.9492,11.0362,1.0596,16.6494a93.50962,93.50962,0,0,1-4.9004,18.7295c-1.0166,2.67-1.8096,5.4258-2.6816,8.1495a6.44943,6.44943,0,0,0-.0108,1.3652c1.1172-1.2139,2.002-2.0928,2.792-3.0488,2.1934-2.6514,4.4444-5.3213,5.0322-8.8428.6309-3.7715,1.2305-7.5664,1.5059-11.375a74.59681,74.59681,0,0,0-1.6562-19.5254C264.71,176.1396,264.3027,174.8916,263.9697,173.6299Zm10.9463,44.9648a9.16483,9.16483,0,0,0-.2236-1.3886c-3.043-7.8194-4.25-16.0352-5.2578-24.293-.5996-4.916-1.1573-9.836-1.752-14.752a5.01481,5.01481,0,0,0-2.0879-3.8593c.0918.8203.1201,1.2089.1797,1.5918.4942,3.1562,1.1348,6.2988,1.4629,9.4726.7041,6.832,1.2637,13.6807,1.8535,20.5254a23.43724,23.43724,0,0,0,4.625,11.873C273.8838,217.9971,274.21,218.1162,274.916,218.5947Zm-5.7939-40.5449c-.1123,3.2598,1.0293,12.4834,1.6484,13.5352,1.2568-3.1387,2.5137-6.2774,3.7949-9.4795A10.489,10.489,0,0,0,269.1221,178.0498Zm.2675,35.0859c-.6582-4.1074-1.2607-7.8613-1.9365-12.0712-.8037,3.8154-1.5029,7.1416-2.2256,10.5771C266.5752,212.125,267.8301,212.5752,269.3896,213.1357Zm-45.1953-46.5878c-2.5185,1.6279-4.9785,3.2177-7.6591,4.9492h8.7558C225.1377,169.6758,225.2959,168.0811,224.1943,166.5479Zm-3.165-9.1055c-.9395-4.3711-1.8545-8.6289-2.8301-13.168C217.4307,148.126,218.9102,154.8389,221.0293,157.4424Zm43.1172,56.3789c-1.8389,2.1631-3.5029,4.1191-5.166,6.0762.0957.0937.1924.1855.2881.2783,1.6142-.7334,3.2285-1.4658,4.8779-2.2139Zm3.4306-.3242c-.1699,1.6992-.2773,2.7675-.3857,3.8457a8.21953,8.21953,0,0,0,4.7031.0078q.09525-.2607.1924-.5215C270.749,215.8408,269.4131,214.8525,267.5771,213.4971Zm-.4433,15.8515c-.2324,2.9844-.166,3.3028,1.0762,5.2139C267.7949,232.5518,267.4639,230.9502,267.1338,229.3486Zm-10.6211-59.5215c-.2852.8555-.4834,1.4493-.8477,2.543,1.1338-.6465,1.7784-1.0137,2.7032-1.539C257.6396,170.4365,257.2529,170.2275,256.5127,169.8271Z"/><path class="d" d="M267.7705,264.7266a15.3969,15.3969,0,0,1,.5293,2.3076c.2002,2.6953.417,5.3945.4492,8.0937.0274,2.3858-.2021,2.5547-2.4726,2.9571a25.32661,25.32661,0,0,1-11.8262-.2715c-.6826-.2031-1.3848-.3428-2.1367-.5254-.9531-3.0283-1.9033-6.0449-2.9395-9.334a14.284,14.284,0,0,1,2.2178-.7383C256.8467,266.3799,262.1084,265.5908,267.7705,264.7266ZM250.999,268.376c.1494,2.8984,1.3965,5.082,2.1065,7.4092a1.45421,1.45421,0,0,0,.8857.6953,19.04554,19.04554,0,0,0,13.5801-.1631,32.05528,32.05528,0,0,0-.668-10.3399C261.6162,266.7744,256.457,267.5537,250.999,268.376Z"/><path class="d" d="M245.9004,299.001a7.87044,7.87044,0,0,1-.7686-1.5039c-.4111-1.5391-.7461-3.0987-1.0869-4.6543a3.08373,3.08373,0,0,0-2.8135-2.7813,48.72949,48.72949,0,0,1-5.3886-.9336c-2.3496-.5654-4.6602-1.2929-7.5508-2.1113.9082-.5547,1.3457-1.0215,1.5859-.9355,1.6104.5752,3.1524,1.3476,4.7715,1.8945a23.547,23.547,0,0,0,3.0449.5293c1.8702.3652,3.7432.7246,5.5918,1.1816a3.84572,3.84572,0,0,1,1.2852.9043c.0996.0801.0937.2959.1269.4512.1172.5449.2354,1.0918.3457,1.6387q.627,3.07755,1.2471,6.1582C246.1611,298.8936,246.0303,298.9473,245.9004,299.001Z"/></g></svg>