<svg xmlns="http://www.w3.org/2000/svg" viewBox="0 0 300 300"><defs><style>.a,.b{fill-rule:evenodd;}.b{fill:#fff;}</style></defs><title>gl_nav04</title><path class="a" d="M182.26558,181.272q-6.09375-.11278-12.18358-.334a2.22306,2.22306,0,0,0-2.05762.90721c-1.2139,1.582-2.4101,3.1865-3.7373,4.6719-2.49219,2.79-5.48629,4.5674-9.40819,4.4072a11.62359,11.62359,0,0,0-3.0674.38669c-4.2334.99421-8.4209.15041-12.6064-.31829a6.81978,6.81978,0,0,1-2.83009-1.1934c-1.32621-.8789-2.53911-1.9336-3.77541-2.9414a12.43991,12.43991,0,0,1-3.6211-4.9902c-.6094-1.4629-1.2812-2.9004-1.7969-4.0625a12.36049,12.36049,0,0,1-3.4843-.3321,3.15052,3.15052,0,0,0-3.3828.1934,8.10415,8.10415,0,0,0-1.627-.7227c-4.5508-.8242-9.0996-1.6601-13.668-2.3847-5.9863-.9512-11.9863-1.8086-17.9824-2.6934-2.207-.3252-4.4199-.6074-6.6269-.9179q-6.52155-.9171-13.0391-1.8477a22.06352,22.06352,0,0,0-6.6992-.0938c-.0703.669-.1367,1.2061-.1836,1.7442a5.72624,5.72624,0,0,1-5.4434,5.5683,18.38878,18.38878,0,0,1-4.3105-.0097,45.93134,45.93134,0,0,1-6.9297-1.5938c-3.09569-1.0097-4.7246-3.7168-6.2715-6.3125a2.96209,2.96209,0,0,0-2.07619-1.6875c-2.73631-.5175-5.48241-.9824-8.209-1.542-1.78511-.3662-3.55851-.8095-5.30851-1.3164a1.74724,1.74724,0,0,1-1.3711-1.75091c-.0313-1.59569-.1133-3.18949-.19339-4.78129-.19731-3.8984-.36521-7.7988-.627-11.6934-.12691-1.90031-.71871-3.8046-.60931-5.6777.2461-4.2217.81831-8.4238,1.2226-12.6367.4219-4.3711.8848-8.7402,1.1778-13.1221.289-4.29.50191-8.5927.5254-12.8906a3.90807,3.90807,0,0,1,2.9531-4.0381c.2988-.1113.5996-.2226.9082-.3096,5.2969-1.4931,10.6035-2.9492,15.8887-4.4814q8.85645-2.56635,17.6757-5.25c4.5059-1.37011,8.96681-2.8926,13.4825-4.2285,5.7382-1.6963,11.5468-3.1514,17.2578-4.93361,6.4004-1.99809,12.7304-4.22849,19.08-6.38579,11.19151-3.8007,22.3692-7.6416,33.56651-11.4209,2.64059-.8925,5.37589-1.5068,8.00579-2.4248,4.5195-1.5781,8.961-3.3779,13.49021-4.9248,3.31648-1.1338,6.74418-1.9414,10.08108-3.0195,5.1592-1.668,10.2881-3.4531,15.6846-4.2031,3.6972-.5137,7.4287-1.3125,11.124-1.211a194.11469,194.11469,0,0,1,19.5674,1.5528c5.125.667,10.1728,1.9609,15.2285,3.0937,3.2646.7305,6.44142,1.9131,9.7295,2.4639a55.38028,55.38028,0,0,1,15.9502,4.85449,3.60512,3.60512,0,0,1,1.3066.90041,33.47084,33.47084,0,0,1,1.916,3.0263c2.3106,3.961,3.5352,8.36429,5.1778,12.6026,1.457,3.7598,2.0019,8.0195,5.73632,10.9473,1.19918-.4444,2.57228-.9532,3.998-1.4815-.38862-1.8984-1.42572-3.5615-.07032-5.2764,2.48832.7071,3.77932,2.627,5.0225,4.5664.6621,1.0332,1.4775,2.0782,1.0205,3.46489-1.8076.56541-3.2168-.26269-4.67768-.83789-.501-.1973-1.09962-.5537-1.53712-.4287-1.7305.4951-3.4161,1.1533-4.9786,1.7002,1.2325,6.1933,2.4883,12.0322,3.5372,17.9082,1.3037,7.3027,2.4228,14.6377,3.6464,21.9541a177.38664,177.38664,0,0,1,2.5938,26.6787c.0195,1.2861.0351,2.5391,1.6348,2.9658-1.4727,1.6299-1.6006,1.9219-1.3584,4.2012a35.51888,35.51888,0,0,1-1.1084,12.06539c-1.01268,4.21491-3.5723,7.07911-8.2745,7.61231-4.1044.4658-8.2529.5215-12.3173,1.4004-1.62988.3526-3.3262.3955-4.9903.5908-3.6445.4278-7.2793.97949-10.93358,1.2598-3.82222.2949-7.66212.4189-11.49512.458-6.54588.0674-13.0928-.0107-19.6396.0322a4.32093,4.32093,0,0,0-2.1582.6338c-1.4834.9268-2.8545,2.0323-4.3047,3.01469a13.96286,13.96286,0,0,1-17.7403-2.19239c-.7402-.7695-1.3505-1.6631-2.3603-2.9238C187.35348,181.28081,184.80858,181.31881,182.26558,181.272ZM204.041,119.54741q-.43068-7.15725-1.00192-14.3057-.40575-5.1255-.9522-10.2412-.8892-8.19435-1.8896-16.375a18.54612,18.54612,0,0,0-1.251-4.9766c0,.6563-.0537,1.3184.0088,1.9688q.6855,7.141,1.414,14.27829c.543,5.31441,1.1133,10.626,1.6622,15.94041q.81,7.84575,1.5996,15.6953c.0957.8096.2714,1.5957.3173,2.3897.2881,5.0224.5459,10.0478.8155,15.0713a5.88875,5.88875,0,0,1-.5098,3.7129,4.404,4.404,0,0,0-.1562,2.10539q-.0147,6.10547.0058,12.209c.0098,1.75691.0742,3.51371.1231,5.26961.0195.7177.1289,1.43939.0839,2.1523a2.02822,2.02822,0,0,1-2.7929,1.916c-5.1563-1.4092-10.30958-2.8291-15.4697-4.2246-1.7452-.4717-3.7032-.5391-5.2188-1.4004-2.4424-1.3857-5.0059-2.8105-6.3564-5.54a41.9849,41.9849,0,0,1-4.1446-16.3584c-.41008-6.9346-1.1445-13.8692-1.1484-20.8037-.0059-8.375.4629-16.75881.9951-25.1221.5225-8.209,1.3897-16.3965,2.0928-24.59571.2109-2.46679.2812-4.94919.5928-7.40239a14.11007,14.11007,0,0,1,2.8115-7.5058,3.64922,3.64922,0,0,1,2.8144-1.5352c4.2559-.1133,8.3379-1.30761,12.5059-1.9677a23.02251,23.02251,0,0,1,3.3252-.0235c.8574,3.6065,1.68162,7.0752,2.5752,10.833,1.2929-.0957,2.5937-.19141,4.166-.3086a15.60408,15.60408,0,0,0-.4404-2.0136,14.08756,14.08756,0,0,1-.8399-6.5528,4.25746,4.25746,0,0,1,2.5733-3.7402c.9707-.4375,1.8808-1.0088,3.0166-1.6289-1.9756-.0401-3.7784-1.1738-5.6006.1455a1.05692,1.05692,0,0,1-.68258.0586c-6.09772-.7959-11.88972.7139-17.64952,2.3779-5.1347,1.4834-10.2578,3.01169-15.35348,4.625-2.584.8194-5.06931,1.9492-7.64451,2.8008-5.7559,1.9062-11.5508,3.6924-17.31049,5.58689q-11.256,3.70322-22.48051,7.50291c-7.1836,2.4278-14.3086,5.03909-21.5352,7.3282-9.2695,2.9375-18.6211,5.6181-27.9297,8.4355-9.0039,2.7246-17.9882,5.5176-27.0019,8.211-5.0469,1.5078-10.1348,2.8701-15.2031,4.3027-2.4473.6914-3.5821,2.1035-3.4668,4.51169,4.0078-2.84369,8.5293-3.71479,13.53321-4.06929.35349,2.9189-.38281,5.82129.16789,8.7158.2207-2.252.4512-4.502.6582-6.7559a4.63749,4.63749,0,0,1,3.5352-4.3144c.5332-.167,1.0488-.3975,1.5879-.541,7.8672-2.1016,15.7402-4.1817,23.6035-6.293q8.3262-2.23831,16.6328-4.5449c6.9942-1.9492,13.9668-3.99031,20.9707-5.90531,6.7031-1.832,13.459-3.46779,20.1485-5.34669,7.0722-1.98631,14.0957-4.15431,21.1377-6.2529q7.9188-2.35995,15.8291-4.751c1.51851-.457,3.02529-.9551,4.52339-1.4297,1.0029.8614.8975,1.836.7148,2.8926q-1.3974,8.1123-2.7236,16.2383c-.78808,4.8808-1.59669,9.7597-2.24319,14.6601-.541,4.0899-.8603,8.2071-1.2695,12.2325-3.5137.4326-6.8711.8271-10.2226,1.2627-6.8086.8857-13.6036,1.8837-20.4239,2.6709-9.83789,1.1367-19.6914,2.1425-29.54289,3.1738-5.47861.5722-10.97071,1.0312-16.44541,1.6347-3.7285.4102-7.4355,1.0235-11.1621,1.4766-7.7617.9424-15.5312,1.8418-23.2968,2.7529-3.2481.3809-6.4961.7725-9.75,1.0987a14.47909,14.47909,0,0,1-2.3204-.14851,3.81581,3.81581,0,0,0-1.1894-.02629,33.23677,33.23677,0,0,1-10.3594.6865,18.7807,18.7807,0,0,0-3.7793.6543c-.2558,3.3047-.5097,6.8691-.8164,10.4307-.2109,2.46579-.5019,4.9267-.7441,7.3906a8.103,8.103,0,0,0-.0821,1.666c.2852,2.6943.7051,5.3779.9063,8.0781.248,3.3399.332,6.6924.4766,10.04009.1054,2.46871.123,2.69921,2.539,3.35351,2.375.6426,4.8438.9267,7.2598,1.4267,1.9375.4014,3.8555.8897,6.0488,1.4014,0-1.0645-.0058-1.9238.002-2.7813.04491-5.3642.1933-10.7265,2.0703-15.8359a7.7626,7.7626,0,0,1,1.9668-2.9082c1.3222-1.2226,2.6015-1.0283,3.6933.3926a7.80771,7.80771,0,0,1,1.2364,2.3056c.9082,2.8057,1.7168,5.64359,2.5664,8.4678.1562.5244.3203,1.0459.5664,1.84179,5.2519.78221,10.5312,1.59961,15.81831,2.34961,8.53319,1.209,17.05469,2.5323,25.61529,3.5137,7.5293.8633,15.1093,1.2852,22.6582,1.9785,3.2558.2988,6.4922.7891,9.8886,1.2119.04691-.3662.12891-.8086.1524-1.2529.2324-4.5391.3359-9.0879.7226-13.6123a9.75017,9.75017,0,0,1,4.7403-7.6504,7.68088,7.68088,0,0,1,8.9238.4385,29.46432,29.46432,0,0,1,9.7051,14.2578c.7949,2.3437,1.5683,4.6982,2.2383,7.0801a2.58566,2.58566,0,0,0,2.6015,2.25c5.336.35149,10.66209.8398,15.99419,1.2558a15.03085,15.03085,0,0,0,1.8261-.0898c-.1132-3.7529-.1992-7.3984-.3408-11.042-.1377-3.5332-.333-7.06451-.5039-10.5967.2109-.0176.4219-.0351.6318-.0527.27452,2.3662.6309,4.7265.7999,7.0996.1709,2.3867.1513,4.7871.22262,7.1797.07328,2.47259.15428,4.9453.23928,7.6582,11.1738,1.584,22.3838,1.5078,33.4541,3.0039-5.5137.9062-10.958-.2647-16.4268-.5586-5.4951-.294-10.9863-.6504-16.6728-.9922-.5782,2.919.3466,5.8496.5234,9.07229,10.8115.84271,21.59282-.042,32.3857.91011.2207-.5175.4209-.9843.6153-1.4375.2636.0772.5215.10939.5263.1612.10452,1.2548.9502,1.4189,1.9893,1.5224a209.32321,209.32321,0,0,0,25.8721.67779c2.2998-.05669,4.5937-.32229,7.0185-.502.1397-2.15329.2715-4.20309.4053-6.25389.0469-.7178.0732-1.4385.1514-2.1533.2373-2.2119.4111-2.2471,2.4531-2.9141,3.3144-1.083,6.6582-.3613,9.9883-.3789a22.51023,22.51023,0,0,1,2.8554.36819c.5039,3.15431-.21088,6.44041.41212,9.98041,2.11138-.2275,4.13678-.4336,6.15828-.667,3.4824-.4013,6.955-1.0537,10.4472-1.1757a9.5197,9.5197,0,0,0,9.0938-8.3565c.1269-1.1894.3281-2.372.4804-3.5595a3.7905,3.7905,0,0,0-.7851-3.128,3.64141,3.64141,0,0,1-.68558-2.42671c.16208-1.77249-.10452-3.708,1.43748-5.14749a1.87015,1.87015,0,0,0,.3243-1.3223c-.3067-5.4228-.6231-10.8466-1.002-16.2656-.1074-1.5459-.4219-3.0781-.6416-4.6152-.1904-.0293-.3818-.0586-.5723-.0869a7.12456,7.12456,0,0,0-.8213,1.51849,3.46734,3.46734,0,0,1-3.6425,2.78131c-4.1407.1816-8.2793.4218-12.418.6562-1.9902.1123-3.9785.3653-5.9678.3711a56.82465,56.82465,0,0,1-6.9326-.3232c-5.0654-.6123-10.13868-1.2383-15.1582-2.1426a69.02014,69.02014,0,0,1-8.7432-2.4815,4.84464,4.84464,0,0,1-1.8545-1.4335c-2.9003-3.17681-5.7617-6.3887-8.6289-9.5957a14.91,14.91,0,0,1-1.3711-1.66311c-.9062-1.36719-1.8613-2.627-3.3515-2.54589-.6621-1.12311-1.1455-1.9668-1.65328-2.7969a11.16163,11.16163,0,0,1-2.09182-5.0225c-.3838-5.17871-.7217-10.3662-1.3409-15.5185-.3886-3.2246-1.2656-6.3887-1.90228-9.584-.248-1.2481-.418-2.5117-.65622-3.7608q-1.2774-6.6957-2.5801-13.3876c-.1328-.6846-.30368-1.3614-.5078-2.2676-1.6504.2441-3.125.4609-4.625.6836a21.05942,21.05942,0,0,1,1.1562,2.61719,29.26125,29.26125,0,0,1,.5742,3.17961c1.7403.1211,2.0664,1.4043,2.2305,2.8106.9004,7.6953,1.9746,15.375,2.65622,23.08979.795,8.99031,1.21,18.01371,1.86328,27.01761.3008,4.1406.9082,8.2617,1.1338,12.4043.2471,4.543.2061,9.1016.3076,13.6524.0284,1.2636.1182,2.5263.1827,3.84569a146.724,146.724,0,0,1,16.08,1.52931c2.17.2753,4.4297-.15631,6.7198-.2706,1.38282,2.4239,2.7929,4.8184,4.1191,7.2588.4883.8946-.02728,1.5801-.8779,1.8887a15.85824,15.85824,0,0,1-3.8838,1.1602,52.72987,52.72987,0,0,1-6.9395.08c-3.8144-.1728-7.623-.4873-11.4345-.7421-1.2588,1.0214-2.168-.3194-3.4405-.6377-.24408,4.542-.4824,8.9462-.7265,13.4873-1.3702-.4942-1.0684-1.4395-1.0274-2.2442.1397-2.7109.3946-5.4199.4365-8.1328.0381-2.3877-.2041-4.7793-.2275-7.16991-.0605-6.07619.0684-12.15819-.1406-18.22949-.1709-4.9404-.7227-9.8672-1.10158-14.8008q-.20208-2.6235-.37792-5.248c-.041-.626.1221-1.3233-.7178-1.5752A7.35531,7.35531,0,0,0,204.041,119.54741Zm20.28318,2.9004c4.55182.07319,9.1045.165,13.6514.373,5.1846.2383,10.3603.7725,15.5459.8848,6.8662.14839,13.7383.0166,20.6074-.002,2.0977-.0049,4.2315-.8721,6.6309.9805-.6172-3.4668-1.086-6.1953-1.5899-8.916-1.04488-5.6504-2.2812-11.2696-3.1318-16.9483-1.875-12.5166-6.3203-24.208-11.1318-35.7939-.8262-1.9883-2.0137-3.5127-4.4356-3.8653a22.61476,22.61476,0,0,1-4.2148-1.5595,9.698,9.698,0,0,0-2.0704-.584c-4.457-.5625-8.7031-1.9434-13.01848-3.1123-5.22852-1.416-10.582-2.3731-15.88382-3.5195-2.6504-.57231-5.2871-1.25-7.9648-1.6465a57.88028,57.88028,0,0,0-8.3086-.7051,13.51265,13.51265,0,0,0-4.584,1.0967,4.10815,4.10815,0,0,0-2.2774,3.208,13.40256,13.40256,0,0,0,.6055,7.7754c1.6035,0,3.0986.0205,4.5928-.00781.8779-.01569,1.7529-.13089,2.6299-.16409,4.6757-.1758,4.6757-.17191,6.5761,3.9512.7989.084,1.6504.1738,2.6202.2754.1513,1.1377.2939,2.2089.4834,3.6406a28.07692,28.07692,0,0,1,3.26172-.8408q3.88467-.51855,7.79288-.8379c1.0118-.083,1.3545.63859,1.334,1.5752-.04688,2.1777-.5488,2.7832-2.7363,3.1953a23.14477,23.14477,0,0,1-3.76758.6172c-1.79882.0312-3.69822.0371-4.71092-2.4268a6.12284,6.12284,0,0,0-.3965,3.374q.85113,9.0645,1.6875,18.1309c.2353,2.5527.0664,2.793-2.457,2.915a60.10953,60.10953,0,0,0-6.8965.4561c-1.3477.21869-2.9121-.8926-4.6133-1.48631.502,5.49611.9512,11.19331,1.5703,16.87111a8.04662,8.04662,0,0,0,3.4395,6.29289,7.98481,7.98481,0,0,1,1.5214,1.82231c1.4336,1.80469,2.8633,3.6113,4.1573,5.2431C221.03708,122.59811,222.68258,122.42141,224.32418,122.44781Zm-101.19329-11.7959c2.9296-.33891,5.9316-.6475,8.9218-1.0381,8.1446-1.0645,16.2832-2.1641,24.4239-3.2461,2.123-.2832,1.9638-.3526,2.7168-2.418a31.34859,31.34859,0,0,0,1.3877-8.4375c.1455-1.8213.538-3.623.8095-5.4355q.62115-4.13385,1.2285-8.2676c.12891-.8662.24219-1.7344.37109-2.5996q.5625-3.78376,1.13282-7.5664c.31058-2.045.63968-4.0879.94628-6.1328.13772-.9229.2422-1.8497.4209-3.2354-14.36718,4.2207-28.42969,8.2217-42.34759,12.5918C121.25389,83.87741,121.20119,106.68021,123.13089,110.65191Zm-2.543.2353c.1699-11.9238.3359-23.6621.5039-35.65721-10.4707,2.66891-20.8945,5.50881-31.0195,8.50491-2.0039,4.3535-.8106,8.791-1.23829,13.1035-.51761,5.2383-.87311,10.4922-1.29691,15.7392-.0312.3838-.0644.7686-.125,1.4932C98.65629,113.29741,109.68359,111.79251,120.58789,110.88721Zm79.31839,10.082a29.0699,29.0699,0,0,0,.0351-7.6728q-1.09275-10.23195-2.2637-20.4541c-.2382-2.0586-.6699-4.0928-.96868-6.1445-.50982-3.4707-1.01662-6.9415-1.45512-10.4209-.1523-1.211-.54488-1.8311-1.916-1.8623-5.8877-.1407-11.75288-1.1514-17.8926-.3829-1.6621,12.9942-1.2246,26.1348-1.44728,39.1368C182.69628,115.78761,191.209,118.35011,199.90628,120.96921ZM60.51559,98.84421c-.2812,3.42-.7343,6.8282-.93159,10.252-.15431,2.6826-.03131,5.3809-.03131,8.4219,8.7168-1.0498,17.3086-2.085,26.086-3.1426A124.723,124.723,0,0,0,87.709,84.46731c-8.78131,2.3086-17.63091,4.63669-26.36721,6.9336C59.77339,93.94681,60.71479,96.438,60.51559,98.84421Zm51.5742,67.4043c-6.6757-.6142-13.3632-1.1279-20.039-1.748-2.2207-.2061-4.4219-.6172-6.63479-.9209-4.66211-.64061-9.33011-1.2481-13.98831-1.917-2.6855-.3867-5.3515-.9082-8.039-1.293-2.836-.4062-5.6875-.6953-8.5254-1.0888-1.5684-.21781-3.1231-.542-4.9395-.8623a14.59389,14.59389,0,0,0,.0078,1.4824c.1192,1.0263.3536,2.0449.4102,3.0722.15821,2.9082.1426,3.0411,3.0527,3.46489,3.4688.50391,6.9746.73921,10.4473,1.21091,10.918,1.4824,21.832,2.9785,32.7363,4.5528,6.63091.957,13.2324,2.1171,19.8633,3.0761,2.1133.3057,4.2774.2559,6.68561.3828v-8.2041C119.37109,167.04151,115.73629,166.58451,112.08979,166.24851ZM50.332,94.41061c-2,.5508-4.03121.9825-6.02541,1.5489-4.2011,1.1924-5.3378,2.14549-5.55459,7.2676-.15431,3.6503-.78521,7.2792-1.13871,10.9238-.1738,1.8008-.19729,3.6152-.3028,5.6719,7.0782.0957,13.6719-1.4776,20.6993-2.0489-.041-8.6601,1.7207-16.9677,1.084-25.87891C55.97849,92.79251,53.16209,93.62941,50.332,94.41061Zm125.001,35.8321c.87008,4.4336.64748,8.8984.96878,13.3427.15522,2.1475.1298,4.3135.4091,6.4424a5.58866,5.58866,0,0,0,1.2569,2.7188c3.251,3.8291,7.5908,5.9013,12.5674,7.5019a27.60418,27.60418,0,0,0,.1474-2.9091c-.5127-8.917-1.0722-17.8311-1.5791-26.7491-.0937-1.6591-.0137-3.3291-.0137-5.1259-4.7382-1.378-9.2949-2.7012-14.3291-4.1641C174.94238,124.55321,174.78708,127.46731,175.333,130.24271Zm15.73338-4.3408a288.61184,288.61184,0,0,0,1.1445,35.163c2.9356.58209,6.0254,1.1954,9.376,1.8614-.3193-11.2696.2803-22.4278-1.7871-34.0674C197.10158,127.94581,194.20508,126.96531,191.06638,125.90191Zm26.6602-60.3721c-1.5879-.0264-3.168-.752-4.7813.123-.2178.11919-.664-.1562-.9941-.2793a2.441,2.441,0,0,0-3.57618,2.1494,14.21061,14.21061,0,0,0-.14062,2.8624c.51562,6.4316,1.0332,12.8632,1.6543,19.2851.23432,2.43359.6914,2.7393,3.25,2.7871,1.98732.0371,3.9785,0,5.9668-.0547a12.19562,12.19562,0,0,0,1.9004-.3984C220.29878,82.98291,220.04688,74.19581,217.72658,65.52981ZM30.08979,100.56491a15.39163,15.39163,0,0,0-2.2793.7149c-3.5468.9648-4.8242,3.3398-4.9082,6.4951-.0468,1.751.0528,3.5088-.0507,5.2549-.09959,1.667-.377,3.32319-.5743,4.9687.6504.7481,1.2676,1.4571,1.8985,2.1836,2.9453,0,5.8984.0586,8.8457-.0215,1.7598-.0478,2.3144-.6621,2.3789-2.2812.22261-5.584.4258-11.1699.6445-16.916C33.94529,99.70171,31.99019,100.36381,30.08979,100.56491ZM138.55469,182.106c1.9746.64841,3.3262-.58209,4.1367-2.043,2.4043-4.32809,3.5459-8.86919,1.3594-13.69429a3.25625,3.25625,0,0,1-.4981-1.3252c.1836-2.96-1.6718-4.85751-3.4746-6.7579a2.91831,2.91831,0,0,0-4.0957-.4658,6.53169,6.53169,0,0,0-2.873,3.6885,26.03612,26.03612,0,0,0,.7187,17.7725c.6153,1.5713,1.8496,2.9013,3.0703,4.7529C137.31639,182.75541,137.06839,181.61771,138.55469,182.106Zm13.32031-3.48049c2.40139,1.2226,13.99218,1.9238,19.168,1.0957-.20222-3.041-.40432-6.0957-.61332-9.24021-6.4902-.47269-12.76079-.92969-19.39059-1.41219C151.334,172.43511,151.60349,175.51031,151.875,178.62551Zm69.28608-13.1563c2.2901.1153,4.58892.13479,6.8828.1094a7.5902,7.5902,0,0,0,4.5655-1.3203c-1.166-2.1406-2.2989-4.2207-3.5039-6.4346-3.2178,1.28229-6.252.1944-9.3438-.2334-2.9902-.4111-6.0185-.5351-9.0312-.7754a1.83622,1.83622,0,0,0-.7061.08009c-.85638.28711-1.9853-1.039-2.5566.23731a7.54739,7.54739,0,0,0-.25978,2.7979c-.03512,1.42579-.00882,2.8515-.00882,4.7129C212.123,164.93991,216.64058,165.24371,221.16108,165.46921Zm11.6084-31.9707a12.44271,12.44271,0,0,0,2.0137.7813c3.459.5889,6.92382,1.1338,10.3897,1.6777,1.8144.2852,3.6376.5156,5.45012.8106,3.98538.6474,7.96388.1191,11.94928.0175,4.4648-.1132,8.9336-.0507,13.3466-.8818a10.95979,10.95979,0,0,0,2.0909-.46581c.3476-.14059.5488-.63869.8496-1.01759C275.293,133.05521,243.07028,132.41461,232.76948,133.49851Zm23.5733-77.4902c-2.1846-1.5068-17.1123-5.0059-19.7627-4.5C243.41018,53.07181,249.56838,55.36281,256.34278,56.00831Zm-52.8477,9.8125c.8096,4.5713,1.58892,8.9678,2.3682,13.3633l.166-.0235V65.67821C205.07028,65.73291,204.39058,65.77,203.49508,65.82081Zm42.3213,105.3916c-2.584-.3877-2.98138-.085-3.0098,2.4219C243.53318,172.356,245.44528,172.84811,245.81638,171.21241Zm-202.81049-7.2451c.1933-.0235.3847-.0488.57811-.07331q-.16112-1.52489-.32231-3.05169c-.2304.0088-.4629.0166-.6933.0244Q42.788,162.418,43.00589,163.96731Zm82.1113-9.2988c1.7129-1.4327-.03519-2.8887.5156-3.92C125.48239,151.88721,125.334,153.02591,125.11719,154.66851Zm3.4004-3.3604c.3086-.4424.5605-.9258.85741-1.4326-1.15431.042-1.15431.042-1.72461,1.97849C128.14449,151.55131,128.39839,151.47711,128.51759,151.30811Zm67.40429,33.5186c.4062,1.5546.4062,1.5546,2.7304,1.61129C197.63278,185.83641,196.834,185.36571,195.92188,184.82671Zm-14.6074-26.4395c-.0596.1152-.1192.2285-.1778.34379q1.4634.76756,2.9278,1.53711c.0732-.1426.1464-.2852.2207-.4278Q182.79973,159.11385,181.31448,158.38721Zm80.5488-26.9014-.0205.2998q1.41795.12015,2.8369.2403c.0117-.1797.0244-.3594.0371-.5401Zm-38.8809-84.0263c-.0068.0742-.0136.1484-.0195.2217q1.1631.1743,2.32712.3496c-.01662-.1553-.03222-.3106-.04782-.4659Q224.11133,47.51226,222.98238,47.45951Zm60.0899,113.9453c.1172.0049.2324.0098.3496.0156v-2.6367c-.0762-.0059-.1533-.01371-.2305-.0195Q283.13273,160.0839,283.07228,161.40481Zm-100.543-107.4502c-.0137-.1367-.02928-.2725-.0449-.4092q-1.06935.123-2.1406.2461.0204.18465.041.3691Q181.457,54.05816,182.52928,53.95461Zm68.7988,120.5068-.6504.2871q.41025.87015.82332,1.7422.28557-.1245.57318-.25Q251.69918,175.35151,251.32808,174.46141ZM201.375,109.81011c-.085-.0635-.12892-.0967-.17192-.1289-.0332.67179-.0644,1.3437-.0976,2.0156l.26952-.0967Zm50.82518,70.3935c.001-.1055.001-.2109.0029-.3164h-1.6113c0,.1055-.001.2109-.002.3164Zm-76.2627-108.7773c.4443,1.2002.9844.8896,1.5703.0918C177.041,71.49071,176.57318,71.46341,175.93748,71.42631Zm10.5547-13.6817c-.0479.1319-.0957.2647-.1445.3965.4472.1817.8925.3613,1.3398.542l.1436-.5127Q187.16163,57.95651,186.49218,57.74461Zm28.0019,5.8907c.1211-.0518.2422-.1036.3623-.15631q-.2694-.54778-.54-1.09669c-.084.0352-.1699.0694-.2549.1045Q214.27688,63.061,214.49408,63.63531Zm-68.65029,118.9892a3.44157,3.44157,0,0,0,.7031-.35451c-.1055-.17379-.1992-.48439-.3194-.49509a2.37613,2.37613,0,0,0-.7988.2666C145.64059,182.34811,145.78419,182.64111,145.84379,182.62451Zm-.5372-19.8828c-.1171.0322-.2343.0635-.3515.0947.1367.5469.2734,1.0918.4092,1.6387.1503-.0273.30071-.0537.4511-.08011Q145.56054,163.56882,145.30659,162.74171Zm41.29889-2.3193a2.17019,2.17019,0,0,0-.0918.4004c.3115.1269.6367.2226.959.3261.0351-.1445.07032-.2871.1054-.4316Q187.09178,160.57076,186.60548,160.42241Z"/><path class="a" d="M279.98628,155.895a421.18714,421.18714,0,0,1-45.1787.13671c.4385,3.4024,2.0147,5.7891,3.4541,8.4727,2.1289,0,4.3477.0068,6.5664-.002,3.7442-.0136,7.4922.0528,11.2324-.0761,6.1407-.211,12.2764-.5879,18.418-.8028,1.2988-.0459,1.73052-1.082,2.2813-1.76751a36.10822,36.10822,0,0,0,2.8711-4.66509A6.18987,6.18987,0,0,0,279.98628,155.895Z"/><path class="a" d="M166.79878,135.00341c-.5761,0-1.1543.0029-1.7304,0q-11.505-.05715-23.00789-.1162c-7.26949-.0391-14.541-.126-21.81249-.1084-8.789.0225-17.58.0693-26.36911.2197-9.3437.1602-18.6875.4619-28.0312.6866-7.9786.1923-15.9571.4267-23.9375.5205-5.82819.0673-11.65819-.0684-17.4864-.09961a10.4709,10.4709,0,0,0-1.3222.14941c-.1993.915.1875,1.1855.85541,1.1865,5.34769.0078,10.69529.0615,16.043-.00391,5.02539-.06249,10.05079-.25489,15.07809-.38279q9.4542-.24315,18.9121-.4737c2.1543-.0537,4.3106-.0566,6.4629-.1533,20.8496-.9355,41.709-.86721,62.5703-.6426,7.18661.0782,14.3741.1719,21.56161.2383.75878.0059,1.52048-.125,2.28018-.1924C166.84278,135.55521,166.82028,135.27981,166.79878,135.00341Z"/><path class="a" d="M139.30659,120.19781c-1.5898.0605-3.1738.25-4.76359.3281-2.46491.12009-4.92971.20509-7.39651.2812-.8106.0254-1.7539.0176-1.836-1.0508-.1582-2.02531-.998-4.0195-.4062-6.23431,1.1602-.31249,2.2891-.69529,3.4512-.91309,2.5722-.4815,5.1601-.8897,7.7461-1.3096,2.0039-.3262,4.0117-.6269,6.2539-.9756a36.88171,36.88171,0,0,0,.205,4.044,36.59477,36.59477,0,0,0,1.02151,3.8066C142.584,119.73191,141.04489,120.13131,139.30659,120.19781Zm1.6993-6.8067c-5.1231-.0957-9.9297,1.1094-15.2071,1.6914.65821,1.6231,1.1504,2.836,1.6621,4.0977,4.6368-.4356,9.0586-.8496,13.9727-1.3125C141.28319,116.29541,141.15819,114.99071,141.00589,113.39111Z"/><path class="a" d="M31.332,155.938c1.34769.15331,2.709.22461,4.05079.42381.6445.0957,1.2051.4356.7793,1.5166-4.4414-.7021-8.8945-1.4072-13.4726-2.1318-.086-3.6787-.1973-7.2461-.2461-10.8154-.0352-2.5401,1.0293-3.2706,3.6582-2.57721v12.94341C27.85939,155.51421,29.59379,155.74071,31.332,155.938Zm-7.52731-9.37109a15.29854,15.29854,0,0,0,.5078,7.1582C24.27339,151.33061,24.46679,148.91651,23.80469,146.56691Zm.7031-2.1074c.1445.02149.49421-.3662.4844-.5567a.78336.78336,0,0,0-.5449-.5254c-.19929-.0312-.44529.22659-.8184.4434C24.03709,144.13921,24.25389,144.42431,24.50779,144.45951Z"/><path class="a" d="M212.71478,173.84031c-.0527.9141-.1005,1.7188-.1484,2.5235q.1758.1611.34962.32319c1.418-2.35249,3.542-1.623,5.50778-1.584,1.0371.02051,2.07822-.00969,3.1084.07911a2.30063,2.30063,0,0,1,1.4873.50389c.461.586.7149.49911,1.3477.27151,1.5049-.5429,1.5351-.457,2.0596,1.833-3.9766-.3369-7.8623-.667-12.0235-1.01851.8379,1.21091.8408,1.18551,6.5274,1.68161,2.19432.19139,4.3662.8535,6.9131.1641-.2784-1.2676-.5411-2.4688-.8096-3.6914A59.7978,59.7978,0,0,0,212.71478,173.84031Z"/><path class="a" d="M104.60349,158.479c.1113,1.33981.5156,1.73831,1.5469,1.69821.9199-.0351,1.2559-.5205,1.2129-1.3759-.0586-1.1328-.8125-2.11531-1.6231-1.9942A1.29278,1.29278,0,0,0,104.60349,158.479Z"/><path class="a" d="M81.85349,158.53471c1.7246-2.2061,1.5899-3.0264-.5019-3.9229C80.26169,156.51321,80.28709,156.76711,81.85349,158.53471Z"/><path class="a" d="M60.54879,154.24271c-1.1523,1.3965-1.1523,1.3965.07621,2.75C61.52929,156.10991,61.55659,155.27391,60.54879,154.24271Z"/><path class="a" d="M176.40328,173.49851c-.3506-.25-.6777-.6474-1.0576-.705-.3848-.0596-1.09468.1181-1.1836.3652-.2617.7207.33592.9512.9375.9687a6.43121,6.43121,0,0,0,1.1436-.1621C176.29688,173.80911,176.34958,173.65281,176.40328,173.49851Z"/><path class="a" d="M139.25979,173.65671c-.5235.9375-.752,1.4317-1.0586,1.8711-.6387.916-1.32819.9668-2.1699.2119-2.28129-2.0439-2.543-8.2236-.4219-10.4892a5.97582,5.97582,0,0,1,1.0429-.7031c3.18171,1.8828,2.9532,5.2187,3.6055,8.3545.3574-.29591.7481-.46391.7578-.6495.1387-2.8632-.3691-5.5898-2.3828-7.747-1.625-1.7373-3.3633-1.5508-4.4023.6054a14.21622,14.21622,0,0,0-1.25,5.0498,9.20143,9.20143,0,0,0,1.9961,6.2657,2.44893,2.44893,0,0,0,2.9746.7783C139.12889,176.71831,139.584,175.73781,139.25979,173.65671Z"/><path class="a" d="M140.06449,161.78371c.1289-1.3262.1953-2.0156.289-2.9746-1.18749.29-1.7148.7558-1.6367,1.5371C138.752,160.70361,139.31049,161.01031,140.06449,161.78371Z"/><path class="a" d="M157.90819,172.80131a3.08537,3.08537,0,0,0-3.291-.4395C155.53709,173.61571,156.51759,173.46141,157.90819,172.80131Z"/><path class="b" d="M47.252,151.519c-1.34971,2.80281-2.34481,5.294-1.209,8.04591a41.56662,41.56662,0,0,1,2.874,10.5909,34.41506,34.41506,0,0,0,1.29589,5.3486c1.6094,5.4043,1.5918,11.0449,2.4375,16.5615.6133,4.0039.8301,8.0664,1.22361,12.1035a1.21655,1.21655,0,0,0,.05759.4707c1.1036,1.8887.0176,3.2813-.9921,4.7461a5.9095,5.9095,0,0,1-4.2559,2.38479c-1.5772.25391-3.1699.41411-4.752.64651-1.7812.2617-1.7519.2793-1.8652,2.0351a8.771,8.771,0,0,1-.3828,1.8496c-1.9434,6.6641-3.97459,13.3047-5.8184,19.9961-.9316,3.3789-1.57319,6.8418-2.2558,10.2871-.3672,1.85159-.4043,3.7579-1.1641,5.5411a3.36374,3.36374,0,0,0,.5606,3.1601,60.93338,60.93338,0,0,1,4.2949,7.7422,17.94385,17.94385,0,0,1,1.5801,9.5625c-.293,1.9336-1.1534,2.3652-2.7813,1.3262a33.28709,33.28709,0,0,1-5.041-3.6426c-2.041-1.9238-3.1973-4.5098-4.4082-7.0156-.3086-.6367-.4727-1.5078-.98539-1.8535-2.35051-1.586-1.88961-3.7481-1.42671-5.9454.0625-.2949.4219-.6347.34371-.8339-.75781-1.92.43949-3.56251.68949-5.3321.6152-4.3437,1.2324-8.6875,1.8769-13.02341.3399-2.28709.7422-4.56249,1.125-6.90429-2.81439,1.0664-4.0742,2.98629-3.9687,5.6289.0625,1.5859-.1455,3.1797-.1416,4.7695.00491,2.3047.1367,4.6075.126,6.9102a35.24045,35.24045,0,0,1-.2823,4.5176,2.59264,2.59264,0,0,1-4.1396,1.8105c-.127-.0879-.2119-.2461-.3447-.3203a5.59569,5.59569,0,0,1-3.0752-6.0977,21.2903,21.2903,0,0,0-.3116-3.8105c-.0791-1.416-.2861-2.8535.7022-4.125a2.92992,2.92992,0,0,0,.3262-1.375,13.40764,13.40764,0,0,0,.12891-1.9141,13.02057,13.02057,0,0,1,3.14649-8.4921c3.166-4.1036,6.0273-8.4454,9.0078-12.6915.0781-.1113.0439-.3007.0781-.5918h-8.918c0-.7187-.0166-1.4785.003-2.2363.2548-9.9824.5517-19.9629.747-29.9463.0537-2.705-.3183-5.4189-.27439-8.1259.05569-3.5108.33689-7.0186.51169-10.5284.0264-.5371.003-1.0771.003-1.7773-2.2188.248-4.3164.4814-6.5762.7334-1.2119-3.8623-1.0469-7.5889-1.0069-11.4043-.7255-.15531-1.47159-.3154-2.3447-.5029a5.63168,5.63168,0,0,1,.125-1.2256c2.5918-7.374,4.8115-14.8789,8.1485-21.9864,1.2402-2.6406,3.2675-4.48241,5.2304-6.4492.78621-.7881,1.6201-1.5283,2.5078-2.3613-.3242-1.5771-.64059-3.1182-.9863-4.8008a12.1124,12.1124,0,0,1-6.61129-2.9258,4.90109,4.90109,0,0,1-1.90431-4.8447c.9609-7.8437,5.90231-12.499,12.5879-15.6777a9.483,9.483,0,0,1,7.0508-.1035,16.44349,16.44349,0,0,1,9.5097,7.6103,6.67594,6.67594,0,0,1,.67091,5.3242,10.89833,10.89833,0,0,1-4.07911,5.7608c-.5244.3974-1.1152.7636-1.5967-.2852.6797-.5693,1.3799-1.1572,2.2061-1.8506-.7598-.2314-1.332-.4052-1.94529-.5927-.17581.1601-.43751.2822-.5.4716a9.33177,9.33177,0,0,0-.54591,2.0303,13.48607,13.48607,0,0,1-3.6699,8.6221,12.19811,12.19811,0,0,0-1.0479,1.417,3.96287,3.96287,0,0,1,.55671.7412,8.6107,8.6107,0,0,0,5.54879,4.7842,3.081,3.081,0,0,1,1.4111,1.5263c1.0029,1.9952,1.9004,4.044,2.8252,6.0782.2881.6347.5352,1.289.9297,2.249a16.56264,16.56264,0,0,0,2.0723-1.3447c5.6797-5.1495,11.417-10.2413,16.9687-15.52641,3.2793-3.12209,6.2549-6.56349,9.5899-10.09769.3828.1944,1.0546.5352,1.44331.7325.50289,2.0019.93259,3.69619,1.35349,5.3925,1.7657,7.127,3.3653,14.3008,5.3594,21.3633,1.0996,3.8955,2.8779,7.5967,4.3027,11.4033.3262.87109,1.1446,1.78709.0645,2.9795-.3506-.4551-.6162-.7988-.9238-1.1982-.3965.3349-.8184.6777-1.2266,1.0361a74.45909,74.45909,0,0,1-18.8008,11.752c-.7148.3242-1.3711.7802-2.3896,1.3681-1.0694-3.5263-1.919-6.9521-3.15629-10.23241a104.53331,104.53331,0,0,0-4.49411-10.042c-1.6104-3.20209-3.4834-6.27239-5.3135-9.52929a13.32336,13.32336,0,0,0-1.3379,1.042c-1.1992,1.2139-1.3096,1.7031-.2344,3.0938a3.54765,3.54765,0,0,1,.9493,2.8086c-.6602,4.0625.6435,7.6748,2.4121,11.21189a16.19842,16.19842,0,0,1,.9541,2.69721,4.40826,4.40826,0,0,1-.2842,3.6954,11.54756,11.54756,0,0,0-.7471,2.6982C51.457,157.02,49.69039,154.22611,47.252,151.519Z"/><path class="a" d="M47.252,151.519c-1.34971,2.80281-2.34481,5.294-1.209,8.04591a41.56662,41.56662,0,0,1,2.874,10.5909,34.41506,34.41506,0,0,0,1.29589,5.3486c1.6094,5.4043,1.5918,11.0449,2.4375,16.5615.6133,4.0039.8301,8.0664,1.22361,12.1035a1.21655,1.21655,0,0,0,.05759.4707c1.1036,1.8887.0176,3.2813-.9921,4.7461a5.9095,5.9095,0,0,1-4.2559,2.38479c-1.5772.25391-3.1699.41411-4.752.64651-1.7812.2617-1.7519.2793-1.8652,2.0351a8.771,8.771,0,0,1-.3828,1.8496c-1.9434,6.6641-3.97459,13.3047-5.8184,19.9961-.9316,3.3789-1.57319,6.8418-2.2558,10.2871-.3672,1.85159-.4043,3.7579-1.1641,5.5411a3.36374,3.36374,0,0,0,.5606,3.1601,60.93338,60.93338,0,0,1,4.2949,7.7422,17.94385,17.94385,0,0,1,1.5801,9.5625c-.293,1.9336-1.1534,2.3652-2.7813,1.3262a33.28709,33.28709,0,0,1-5.041-3.6426c-2.041-1.9238-3.1973-4.5098-4.4082-7.0156-.3086-.6367-.4727-1.5078-.98539-1.8535-2.35051-1.586-1.88961-3.7481-1.42671-5.9454.0625-.2949.4219-.6347.34371-.8339-.75781-1.92.43949-3.56251.68949-5.3321.6152-4.3437,1.2324-8.6875,1.8769-13.02341.3399-2.28709.7422-4.56249,1.125-6.90429-2.81439,1.0664-4.0742,2.98629-3.9687,5.6289.0625,1.5859-.1455,3.1797-.1416,4.7695.00491,2.3047.1367,4.6075.126,6.9102a35.24045,35.24045,0,0,1-.2823,4.5176,2.59264,2.59264,0,0,1-4.1396,1.8105c-.127-.0879-.2119-.2461-.3447-.3203a5.59569,5.59569,0,0,1-3.0752-6.0977,21.2903,21.2903,0,0,0-.3116-3.8105c-.0791-1.416-.2861-2.8535.7022-4.125a2.92992,2.92992,0,0,0,.3262-1.375,13.40764,13.40764,0,0,0,.12891-1.9141,13.02057,13.02057,0,0,1,3.14649-8.4921c3.166-4.1036,6.0273-8.4454,9.0078-12.6915.0781-.1113.0439-.3007.0781-.5918h-8.918c0-.7187-.0166-1.4785.003-2.2363.2548-9.9824.5517-19.9629.747-29.9463.0537-2.705-.3183-5.4189-.27439-8.1259.05569-3.5108.33689-7.0186.51169-10.5284.0264-.5371.003-1.0771.003-1.7773-2.2188.248-4.3164.4814-6.5762.7334-1.2119-3.8623-1.0469-7.5889-1.0069-11.4043-.7255-.15531-1.47159-.3154-2.3447-.5029a5.63168,5.63168,0,0,1,.125-1.2256c2.5918-7.374,4.8115-14.8789,8.1485-21.9864,1.2402-2.6406,3.2675-4.48241,5.2304-6.4492.78621-.7881,1.6201-1.5283,2.5078-2.3613-.3242-1.5771-.64059-3.1182-.9863-4.8008a12.1124,12.1124,0,0,1-6.61129-2.9258,4.90109,4.90109,0,0,1-1.90431-4.8447c.9609-7.8437,5.90231-12.499,12.5879-15.6777a9.483,9.483,0,0,1,7.0508-.1035,16.44349,16.44349,0,0,1,9.5097,7.6103,6.67594,6.67594,0,0,1,.67091,5.3242,10.89833,10.89833,0,0,1-4.07911,5.7608c-.5244.3974-1.1152.7636-1.5967-.2852.6797-.5693,1.3799-1.1572,2.2061-1.8506-.7598-.2314-1.332-.4052-1.94529-.5927-.17581.1601-.43751.2822-.5.4716a9.33177,9.33177,0,0,0-.54591,2.0303,13.48607,13.48607,0,0,1-3.6699,8.6221,12.19811,12.19811,0,0,0-1.0479,1.417,3.96287,3.96287,0,0,1,.55671.7412,8.6107,8.6107,0,0,0,5.54879,4.7842,3.081,3.081,0,0,1,1.4111,1.5263c1.0029,1.9952,1.9004,4.044,2.8252,6.0782.2881.6347.5352,1.289.9297,2.249a16.56264,16.56264,0,0,0,2.0723-1.3447c5.6797-5.1495,11.417-10.2413,16.9687-15.52641,3.2793-3.12209,6.2549-6.56349,9.5899-10.09769.3828.1944,1.0546.5352,1.44331.7325.50289,2.0019.93259,3.69619,1.35349,5.3925,1.7657,7.127,3.3653,14.3008,5.3594,21.3633,1.0996,3.8955,2.8779,7.5967,4.3027,11.4033.3262.87109,1.1446,1.78709.0645,2.9795-.3506-.4551-.6162-.7988-.9238-1.1982-.3965.3349-.8184.6777-1.2266,1.0361a74.45909,74.45909,0,0,1-18.8008,11.752c-.7148.3242-1.3711.7802-2.3896,1.3681-1.0694-3.5263-1.919-6.9521-3.15629-10.23241a104.53331,104.53331,0,0,0-4.49411-10.042c-1.6104-3.20209-3.4834-6.27239-5.3135-9.52929a13.32336,13.32336,0,0,0-1.3379,1.042c-1.1992,1.2139-1.3096,1.7031-.2344,3.0938a3.54765,3.54765,0,0,1,.9493,2.8086c-.6602,4.0625.6435,7.6748,2.4121,11.21189a16.19842,16.19842,0,0,1,.9541,2.69721,4.40826,4.40826,0,0,1-.2842,3.6954,11.54756,11.54756,0,0,0-.7471,2.6982C51.457,157.02,49.69039,154.22611,47.252,151.519Zm1.93749-12.36519.0039.002a4.01739,4.01739,0,0,0-4.0723-1.8467c-.3369.5176-.7422,1.1416-.9844,1.5137,1.2539,1.4453,2.3067,2.6601,3.3379,3.8505-1.4844,1.5616-1.459,1.5479-.6865,3.0039a5.90318,5.90318,0,0,1,.58691,1.7081c.67289,3.7656,3.03319,6.3173,5.99019,8.7158,2.6797-3.4043.1036-5.9815-.7558-8.751-2.0098.3682-2.4375-.0342-2.1992-1.7715a43.71587,43.71587,0,0,0,.6406-5.9287c-.0029-2.1045-.711-4.0088-2.92479-4.9355-.82521,1.1357-.15431,1.67959.66309,2.1621C49.81449,137.48291,50.11519,138.20851,49.18949,139.15381Zm38.539,5.8945c-.1582-.4365-.3613-1.0302-.5898-1.6132a74.80414,74.80414,0,0,1-2.84869-7.3604c-1.85251-6.7695-3.47751-13.6016-5.21971-20.4023-.623-2.4317-1.3281-4.8418-2.1465-7.8135-6.8945,8.7549-15.6113,14.789-23.00579,22.6455,4.998,9.1504,10.37689,18.1299,12.53609,28.6611C74.55759,155.66941,81.94239,151.72611,87.72849,145.04831ZM39.81449,216.894c-.1387-.05459-.2784-.10739-.418-.16209q-4.172,4.43264-8.334,8.87109a1.98651,1.98651,0,0,0-.4346.82421c-.9931,3.7657-2.2304,7.4571-2.5654,11.3965a90.11972,90.11972,0,0,1-1.584,11.1367c-1.3008,6.1075.6817,11.1563,4.4766,15.7325a10.04778,10.04778,0,0,0,1.7851,1.3847c.4629-.3144.7266-.4902.9873-.6699,2.461-1.6953,2.5733-1.9941,1.10451-4.63671a57.8107,57.8107,0,0,0-3.29591-5.28909,3.32249,3.32249,0,0,1-.4873-3.1093c.5918-2.14461.9834-4.3438,1.5117-6.5079q2.3556-9.6444,4.7569-19.2773C38.125,223.35111,38.98049,220.12451,39.81449,216.894Zm.6679-3.17379c-.0967-.1953-.1933-.3887-.289-.584-1.6436-.0683-3.293-.2519-4.9288-.1758a6.90014,6.90014,0,0,0-5.9794,3.4063c-1.709,2.7734-3.6758,5.3867-5.53719,8.0664-.91011,1.3086-1.77731,2.6504-2.76951,3.8945-.9648,1.209-.4824,3.1563-2.125,4.0137-.1836.09569-.2109.584-.22649.8945-.16611,3.3399-.418,6.6797-.43171,10.0215-.0117,2.4903,1.2149,3.1953,3.624,2.3438a7.46842,7.46842,0,0,0,1.085-.5606c.1602-2.789.3281-5.4004.4434-8.0097a3.64886,3.64886,0,0,0-.2266-1.875c-.3008-.5215-.9902-.8223-1.5029-1.2129Q31.07959,223.80036,40.48239,213.72021Zm-24.539-63.7334a24.34636,24.34636,0,0,0-.7442,3.4258,32.09226,32.09226,0,0,0,.0801,4.3086c.1523,2.58979.833,3.0859,3.3281,2.5215a3.632,3.632,0,0,0,.459-.1358c3.1289-1.1777,6.249-2.3798,9.3867-3.5312a34.61429,34.61429,0,0,0,9.8438-5.7539c.5176.1406,1.041.28419,1.626.4433-.1924-.5078-.3497-.9228-.542-1.4306.4726-.2276.8769-.4219,1.373-.6602v-2.664q.2607-.07335.5234-.1465c.3438.6181.6875,1.2373,1.0743,1.9326.8349-1.6377.7285-2.0693-.6875-3.3008-1.2715-1.1045-2.375-1.3213-3.4004-.35061-1.084,1.02541-1.92969,2.30081-2.9199,3.43171-.6075.69429-1.1739,1.65229-1.9571,1.9277-3.76169,1.3184-7.584,2.4668-11.4033,3.6182a6.60961,6.60961,0,0,1-1.81539.02339c-.12991-1.291-.24611-2.44429-.36721-3.65919Zm22.9043-48.6025a8.84809,8.84809,0,0,1-5.39069,3.6738c-2.12691.6533-4.47651,1.1807-6.22361,2.8643.8184,5.7548,1.3428,11.5068,6.5107,15.5605a6.34878,6.34878,0,0,0,.5225-1.6562,9.38106,9.38106,0,0,1,2.9111-6.6026c3.03131-3.1748,3.2959-7.1406,2.9971-11.1972C40.11909,103.26811,39.457,102.55521,38.84769,101.38431Zm-25.7696,47.3369h7.8614a17.23565,17.23565,0,0,1,.2031-3.6924c1.2929-4.5781.1543-9.0215-.5625-13.4912-.0723-.4502-.4766-.8477-.9033-1.5684C16.63279,136.12261,15.05859,142.34721,13.07809,148.72121Zm13.0957-42.834c3.876.75779,8.1289-2.6133,10.2403-8.1133C31.61619,96.71241,27.32519,99.91551,26.17379,105.88721Zm.1778,14.96679c.6543,1.23731,1.164,2.32131,1.7851,3.33691a1.30226,1.30226,0,0,0,2.043.4512c.44731-.3057.8877-.62211,1.4394-1.0108-.6045-.8642-1.1357-1.65031-1.6953-2.4169-.5371-.73641-1.1035-1.4512-1.7422-2.2862C27.48629,119.66061,27,120.17241,26.35159,120.854ZM37.582,129.45851H33.00389a9.59549,9.59549,0,0,0,2.3086,5.6816C36.084,133.20851,36.77439,131.481,37.582,129.45851Zm-9.22951.4316c1.7491-.7402,3.1592-1.3369,4.6719-1.9775-.5205-.5459-.8291-.8691-1.1396-1.1953.32421-.5381.6054-1.0069.9824-1.6309C30.27729,125.53961,28.96,126.90971,28.35249,129.89011Zm9.5069-5.6728c.0781-2.5625-.0948-2.9912-1.793-4.4414C35.05859,122.89311,35.51759,124.02981,37.85939,124.21731Zm1.7207,4.7851a3.13856,3.13856,0,0,0-3.45309-3.3027C35.96289,127.91161,36.00589,127.95261,39.58009,129.00241Zm5.9726,13.752a1.57944,1.57944,0,0,0-2.1806-.79,1.46015,1.46015,0,0,0-.8428,1.9414C43.57029,143.50931,44.52439,143.146,45.55269,142.75441Zm-8.3291,130.0029c.1446-.0625.2881-.125.4327-.1875v-2.8242c-.4366.4609-.99029,1.0449-1.5694,1.6543C36.46289,271.84911,36.84379,272.30221,37.22359,272.75731Zm-5.0888-3.0058c.248-.1661.4941-.3321.74221-.4981q-1.12066-1.47945-2.24131-2.959c-.165.1153-.3291.2305-.4951.3457Q31.13824,268.19576,32.13479,269.75151Zm-12.5664-162.8467c.09761,1.36719.9638,2.1064,2.2509,2.7236.1016-.8056.4893-1.4687-.6025-1.77341A7.67772,7.67772,0,0,1,19.56839,106.90481Zm5.4414,95.0205v3.4316C26.52729,204.03271,25.748,203.07371,25.00979,201.92531Zm-2.3047-32.4375c-.1006-.0293-.2012-.0596-.3018-.0889V172.604c.1006.00291.2012.00681.3018.00981Zm-.6133,37.5586c.07421.0312.1484.0605.2236.0918V203.314h-.2236Zm7.6504-2.041c-.418-.7559-.7949-1.4395-1.4238-2.5782.0859,1.3262.13861,2.1329.207,3.168C29.05079,205.33941,29.375,205.18311,29.74219,205.00541Zm-4.8115-20.667H25.123v-3.4668h-.19231Zm13.2685,11.7822c.1377-.01561.2754-.0293.4141-.0449V192.687h-.2451Q38.28314,194.40377,38.19919,196.12061Zm13.6279.7383c.2403-.9863.5538-1.8652-.5986-2.377Q51.52729,195.67141,51.82709,196.85891ZM38.752,91.87741q.15523-.28711.30949-.5742-1.23045-.4599-2.4619-.9199l-.22259.5771Q37.56483,91.419,38.752,91.87741Zm13.55849,111.1631c.129-.0293.2559-.0586.3848-.0859q-.0732-1.58792-.1445-3.1777c-.0801.0039-.1602.0058-.2403.0097ZM45.043,147.25241c.51949-1.0283.23239-1.788-.95511-2.1728Q44.56549,146.16651,45.043,147.25241ZM17.75589,249.40971c.7695-1.0879,1.0576-1.6993,0-2.6133Zm27.3984-62.0205.333-.0235-.1465-2.416-.1865.0234Zm-4.1816-85.2959c-.2481-1.86431-.2481-1.86431-1.3252-2.2764C40.02539,100.46631,40.40429,101.11671,40.97269,102.09331Zm-13.1084,107.6308c1.4365.2227,1.8916-.2265,2.1533-1.6699C29.15039,208.728,28.64649,209.11871,27.86429,209.72411ZM43.25389,158.27c.1895.043.3799.08691.5703.12991q.06735-.7017.1387-1.4043c-.0781-.01761-.1563-.0342-.2344-.0518Q43.49119,157.60606,43.25389,158.27Zm-3.0371,47.083c-.13479-.06829-.2686-.13469-.4023-.20309-.1446.4688-.2891.9355-.4336,1.4043.1259.041.2519.084.3769.125C39.91109,206.23781,40.06449,205.79441,40.21679,205.353Zm-14.7285-95.68359q-.2784.27988-.5567.55959c.3633.293.7256.58791,1.0879.88091.125-.1338.25-.2666.375-.4004Q25.94194,110.18946,25.48829,109.66941ZM28.80859,148.02q.19335.11716.3867.23631c.1328-.1621.335-.3066.3799-.4902a4.86929,4.86929,0,0,0-.1084-1.1455C29.10939,147.38131,28.959,147.70071,28.80859,148.02Z"/><path class="a" d="M74.10349,123.60011c-.9814.3496-1.7764.6328-2.5156.8965.0059.1953.1055,3.7031.1172,4.1181-.585-1.2294-1.0078-2.1181-1.53709-3.2285-2.76961,2.1446-6.14461,3.1426-8.29791,5.9737-.3467.455-1.1513.5634-1.9316.9179-.3233-1.7783.4101-2.4306,1.5732-3.0879,2.752-1.5556,5.40631-3.2861,7.9824-4.873.0997-1.5107-1.0996-2.6875-.1718-4.5615.6093,1.373,1.0293,2.3164,1.5468,3.4824.711-.3731,1.295-.7285,1.9161-.9941C73.77539,121.82081,73.97069,122.02981,74.10349,123.60011Z"/><path class="a" d="M67.57229,142.53661c3.50971.7578,5.6914-2.7304,9.1484-2.76661-.2109.64061-.2148,1.13771-.4473,1.29011-2.52339,1.6572-5.0781,3.2666-7.6386,4.8662-.1739.1084-.461.0332-.8819.05169v-1.81439c-.5478-.4502-1.75489-.89461-1.5634-2.2383a3.95635,3.95635,0,0,1,2.2421-2.9316c1.6465-.9131,3.2989-1.8145,4.9981-2.7491.82231,1.2598.1797,1.7315-.6963,2.1231-1.23139.5498-2.4775,1.0761-3.6826,1.6797A2.26965,2.26965,0,0,0,67.57229,142.53661Z"/><path class="a" d="M72.33589,133.32081a4.05031,4.05031,0,0,1-.54489,1.3887,8.35589,8.35589,0,0,1-6.21191,3.1318,1.75308,1.75308,0,0,1-1.8603-2.5381,6.20351,6.20351,0,0,1,1.8466-2.6845,13.43288,13.43288,0,0,1,3.792-1.9512C71.40819,129.95561,72.37109,130.76121,72.33589,133.32081Zm-2.1308-1.4863c-3.91209,1.04-5.2774,2.2343-5.3008,4.5342,2.4512.3437,5.6699-1.0791,6.0332-2.7022C70.71879,133.12061,70.48929,132.54541,70.20509,131.83451Z"/><path class="a" d="M77.65429,143.04351c-.11329.5859-.2266,1.1709-.3564,1.8418a11.275,11.275,0,0,1,2.1572,1.09569c.7265.57321,1.0722,1.374.126,2.11231-.878-.5821-1.668-1.5264-2.4834-1.5489a10.77761,10.77761,0,0,0-3.8653.9034c-1.0263.3808-1.9219,1.1015-2.9238,1.5693a4.54264,4.54264,0,0,1-1.43159.1641q-.13636-.2637-.27151-.5254a10.30551,10.30551,0,0,1,1.85251-1.5c2.417-1.17781,4.98339-2.0899,6.66409-4.4571C77.29879,142.814,77.47659,142.92821,77.65429,143.04351Z"/><path class="a" d="M32.86329,112.96921c1.3144-.122,2.459-.2285,3.8262-.3554C35.21779,114.24761,34.41409,114.31491,32.86329,112.96921Z"/><path class="a" d="M38.126,106.21141c.44819.1895.89739.3789,1.56739.6621C38.64939,107.65971,38.15429,107.46341,38.126,106.21141Z"/><path class="a" d="M31.88379,108.188H30.584a5.0512,5.0512,0,0,1,.03509-.64449c.42391-.0274.8516-.001,1.2774.0127C31.89259,107.76711,31.88769,107.978,31.88379,108.188Z"/><path class="a" d="M49.18949,139.15381a4.25091,4.25091,0,0,1-3.334-.0254c1.0918-1.1621,1.0918-1.1621,3.3379.0274Z"/></svg>