<svg xmlns="http://www.w3.org/2000/svg" viewBox="0 0 300 300"><defs><style>.a{fill:none;}.b,.c{fill-rule:evenodd;}.c{fill:#fff;}</style></defs><title>gl_nav19</title><rect class="a" x="9.29879" y="9.4521" width="281.83689" height="281.836"/><path class="b" d="M258.86229,141.4814a105.13525,105.13525,0,0,1-3.3877,20.2525c-.2139.769-.456,1.5307-.6572,2.3037a16.85311,16.85311,0,0,1-3.0918,6.6177,69.22117,69.22117,0,0,0-4.8965,7.6616,75.07825,75.07825,0,0,1-9.4453,11.7441,53.43313,53.43313,0,0,1-21.0801,13.7056c-2.3203.8643-4.6758,1.6382-7.0234,2.4302a32.31276,32.31276,0,0,1-11.9922,1.9536c-3.66209-.1763-7.3985.4224-10.99809-.0767-7.03121-.9751-14.11911-2.1674-20.51951-5.4228a127.9446,127.9446,0,0,1-11.97849-7.4312,62.88058,62.88058,0,0,1-12.47271-11.5127,39.879,39.879,0,0,1-4.9394-7.334c-2.543-4.6987-5.086-9.4209-6.5488-14.6191-.7559-2.6929-1.6192-5.356-2.3946-8.0439a15.329,15.329,0,0,1-.52149-2.5821c-1.28411-11.7925-.39061-23.3423,4.40139-34.3227a72.37331,72.37331,0,0,1,9.4619-16.3238c2.1221-2.666,4.30671-5.2983,6.6543-7.7636a39.09956,39.09956,0,0,1,5.1367-4.294,68.95585,68.95585,0,0,1,14.8399-8.2685A44.86773,44.86773,0,0,1,174.96,77.8569c4.05269-.8779,8.14839-1.6001,12.25189-2.2055,5.7676-.8511,11.4746-.0772,17.1445,1.0039a92.5545,92.5545,0,0,1,14.1641,4.4033c2.23051.8101,4.23151,2.2305,6.4102,3.2114a33.066,33.066,0,0,1,10.0117,6.8745c3.3203,3.3467,6.6269,6.709,9.8418,10.1563a16.18742,16.18742,0,0,1,3.84281,5.9971c.48529,1.4863,1.63759,2.7407,2.30659,4.1845,1.1045,2.3819,2.0869,4.8208,3.06741,7.2573.77539,1.9258,1.42579,3.9014,2.209,5.8238a17.77287,17.77287,0,0,1,1.54879,6.4638,72.58556,72.58556,0,0,0,.9414,7.3448C258.82519,139.3994,258.81149,140.4443,258.86229,141.4814Zm-129.4531,1.9498c-.6153,7.4907,1.96481,15.4521,4.9726,23.2934,2.9434,7.6763,8.2901,13.7793,13.6114,19.8399a55.10079,55.10079,0,0,0,5.7539,5.0546c3.9121,3.3589,8.455,5.7315,13.0136,8.0113,2.4707,1.2358,5.3379,1.667,7.8379,2.8574,2.8262,1.3467,5.8282,1.4497,8.7871,1.9243a64.9226,64.9226,0,0,0,10.96.3208c11.9805-.1142,22.6299-4.1655,32.5752-10.477a19.95541,19.95541,0,0,0,2.7949-2.2491c2.5645-2.3701,5.2471-4.6396,7.586-7.2187a103.64419,103.64419,0,0,0,7.1445-8.9771c2.5469-3.5273,5.2793-6.9839,6.5889-11.2407a36.87871,36.87871,0,0,0,1.1601-4.6284c.9961-5.8618,2.6026-11.5571,2.7139-17.6475.164-8.9648-1.8906-17.3652-4.9649-25.5424a47.62718,47.62718,0,0,0-8.1308-14.0298,74.88855,74.88855,0,0,0-14.47849-13.71,54.34648,54.34648,0,0,0-8.97071-4.9375,60.30677,60.30677,0,0,0-19.3536-5.2505,66.20388,66.20388,0,0,0-9.55069-.0913c-3.46291.2227-6.96881.3291-10.32041,1.5088a41.40221,41.40221,0,0,1-6.416,1.8765c-4.18159.7431-7.6777,2.9853-11.3359,4.8589-2.0469,1.0473-3.9395,2.3964-5.8789,3.6459a5.73209,5.73209,0,0,0-1.6582,1.3599c-1.5332,2.2051-3.9033,3.4805-5.8438,5.2056a25.82124,25.82124,0,0,0-4.1445,4.1943c-1.9375,2.7285-4.1348,5.2739-5.5644,8.3521-1.7442,3.7573-3.8897,7.3584-5.3165,11.2285A57.00948,57.00948,0,0,0,129.40919,143.4312Z"/><path class="b" d="M228.45019,112.8823a2.95808,2.95808,0,0,1-.44919.773q-6.00886,5.47635-12.04491,10.9262A134.068,134.068,0,0,1,199.251,136.9932c-2.125,1.3935-4.42781,2.5171-6.10351,4.5527a2.20262,2.20262,0,0,1-1.9161.2656,116.23732,116.23732,0,0,1-21.9179-10.0888c-.8262-.481-1.7071-.875-2.5039-1.398a1.73793,1.73793,0,0,1-.6289-1.3491c.5468.1929,1.10931.3496,1.6377.584,6.8525,3.0439,13.708,6.0776,20.542,9.1616a5.39709,5.39709,0,0,0,6.5625-1.0601c5.5273-5.4731,11.996-9.7719,18.0976-14.5224,4.4004-3.4253,8.9844-6.6158,13.5-9.8911a11.8128,11.8128,0,0,1,1.56251-.8199C228.20609,112.5791,228.32709,112.7305,228.45019,112.8823Z"/><path class="b" d="M189.64359,202.4985a4.06892,4.06892,0,0,1-.5508-1.269c-.2246-5.1729-.1641-10.3433.0361-15.6343h2.4238a10.63456,10.63456,0,0,1,.3145,1.8872c-.0596,4.3115-.1768,8.6226-.24319,12.9341C191.60449,201.6924,190.92089,202.2505,189.64359,202.4985Z"/><path class="b" d="M140.042,111.1865c.54489-1.2427,1.19729-1.7553,2.30859-1.0395q6.54195,4.21065,13.0703,8.437c.12011.0786.1738.2612.3145.4839a1.635,1.635,0,0,1-2.3741.6714c-4.2519-2.524-8.4541-5.1329-12.6611-7.731C140.45019,111.854,140.30759,111.5264,140.042,111.1865Z"/><path class="b" d="M132.12009,141.2637c.3731-2.1934.3975-2.2852,1.9112-2.2451,4.208.1118,8.415.2456,12.6201.4541,1.6504.082,1.6465.1826,1.6582,2.2714C142.88959,142.4868,137.53419,141.5234,132.12009,141.2637Z"/><path class="b" d="M161.67679,194.2568c-1.3672-.8769-1.7061-1.6963-1.0899-2.6923q3.89655-6.29445,7.8574-12.5499c.0674-.1069.2735-.1259.4805-.2128,1.4277.7177.9707,1.6943.3633,2.7275-1.9805,3.3662-3.9346,6.7471-5.918,10.1108C162.86229,192.5024,162.28419,193.3232,161.67679,194.2568Z"/><path class="b" d="M172.45209,103.1602c-.8212.3286-1.4492.5795-2.2675.9067-1.1875-2.4053-2.2969-4.6831-3.43559-6.9463-.96681-1.9209-1.97071-3.8223-2.94531-5.7383a4.54966,4.54966,0,0,1-.6523-1.5239,3.837,3.837,0,0,1,.4629-1.4028,5.76011,5.76011,0,0,1,1.1796.5302c.2325.1719.3204.5376.4747.8169q2.97945,5.44785,5.957,10.897C171.63569,101.4541,171.99509,102.2368,172.45209,103.1602Z"/><path class="b" d="M139.07519,171.3081c-.6836-1.1406-.6426-1.7852.25981-2.3086,3.84759-2.23,7.67769-4.4863,11.51559-6.7309.8867-.5181,1.6308-.44,2.334.7168-1.9668,2.0722-4.7285,2.7734-7.0567,4.1596C143.82909,168.5137,141.52049,169.8652,139.07519,171.3081Z"/><path class="b" d="M245.60939,114.0264c-.1338.3183-.1436.4282-.1973.4594q-6.40575,3.67755-12.8213,7.3384c-.9922.5645-1.7969.5664-1.9804-.6308,4.2597-2.6011,8.4101-5.0874,12.5039-7.6661C244.21779,112.8315,244.96,112.7661,245.60939,114.0264Z"/><path class="b" d="M213.09279,181.0972a1.25917,1.25917,0,0,1,2.0058.6289c.6953,1.3437,1.4287,2.667,2.1289,4.0083q1.6554,3.1779,3.2891,6.3677a4.621,4.621,0,0,1,.6973,1.4975,1.85445,1.85445,0,0,1-.5674,1.332c-.14749.1377-.8213-.1718-1.1709-.4062-.2344-.1567-.3262-.5342-.4668-.8193q-2.9766-5.98545-5.9404-11.9781C213.00879,181.6074,213.07519,181.4253,213.09279,181.0972Z"/><path class="b" d="M230.167,164.3994c1.293.7319,2.52149,1.4234,3.74609,2.1211,2.4258,1.3804,4.8642,2.7383,7.2656,4.1592.98831.5845,2.2207,1.0391,2.1572,2.7881a4.92529,4.92529,0,0,1-1.5615-.2744c-3.5937-2.0699-7.1582-4.1914-10.7305-6.2989C230.15039,166.3677,229.542,165.7256,230.167,164.3994Z"/><path class="b" d="M252.07709,143.3091c-.15909,1.3115-1.0937,1.2783-1.9707,1.3222a6.67036,6.67036,0,0,1-.7197-.0136c-4.2959-.2544-8.5908-.5108-12.84669-.7647-.35151-1.7446-.16891-2.2075.95709-1.9326,4.705,1.1489,9.5117.7544,14.2656,1.1128C251.82319,143.0381,251.87789,143.1313,252.07709,143.3091Z"/><path class="b" d="M216.17969,104.3555c-1.3799-1.2554-1.5479-1.7095-.71-2.6387a42.37157,42.37157,0,0,0,6.4278-9.9556c.31251-.6367.5498-1.6762,1.663-1.2119.8174.3403.7217,1.2188-.0927,2.4234q-2.93565,4.34025-5.8125,8.7197C217.14059,102.4771,216.73929,103.3364,216.17969,104.3555Z"/><path class="b" d="M194.53219,81.4409c.5381,1.6787.1504,14.0713-.4824,15.792-.9912.0747-1.2207-.5908-1.207-1.3574.0761-4.2285.1621-8.4575.3008-12.6841C193.17089,82.3599,193.23929,81.3579,194.53219,81.4409Z"/><path class="b" d="M182.666,86.6304c-1.92281-1.8145-2.03611-2.6387-.89351-4.6431C182.69529,83.3267,182.57909,84.7417,182.666,86.6304Z"/><path class="b" d="M158.835,91.689q1.59374,2.32245,3.18649,4.645A4.79454,4.79454,0,0,1,158.835,91.689Z"/><path class="b" d="M246.10639,154.7769c1.668-.7857,2.9424-.0918,4.3399.5551C249.20609,156.1392,248.03419,155.9873,246.10639,154.7769Z"/><path class="b" d="M170.47949,90.3354c-.7539-1.4472-1.791-2.3745-1.1094-3.9697C171.167,87.9497,171.29789,88.3516,170.47949,90.3354Z"/><path class="b" d="M188.03029,81.4756a3.76057,3.76057,0,0,1,.6338,4.0806A4.16848,4.16848,0,0,1,188.03029,81.4756Z"/><path class="b" d="M210.64749,89.6392c.3222-1.4112.64451-2.8228,1.0254-4.4903.9277,1.5122.707,2.8863-.4942,4.583Q210.91216,89.6851,210.64749,89.6392Z"/><path class="b" d="M237.78609,103.561a5.663,5.663,0,0,1-3.1982,3.2857A4.51306,4.51306,0,0,1,237.78609,103.561Z"/><path class="b" d="M200.31929,82.4458c.30471,1.481.7159,2.9771-.3857,4.7485A5.75913,5.75913,0,0,1,200.31929,82.4458Z"/><path class="b" d="M245.37209,127.0308a7.41235,7.41235,0,0,1,4.2793-1.6446A4.75047,4.75047,0,0,1,245.37209,127.0308Z"/><path class="b" d="M251.19819,137.105c-1.0488,1.1333-2.3359,1.4971-4.2675,1.3721A4.4701,4.4701,0,0,1,251.19819,137.105Z"/><path class="b" d="M207.13669,83.6851c-.2929,1.2993-.5849,2.5986-.96969,4.3042a3.657,3.657,0,0,1,.48629-4.4449Z"/><path class="b" d="M148.05959,108.3042a2.96846,2.96846,0,0,1-3.2198-2.4912C146.35449,106.1689,147.09079,107.3706,148.05959,108.3042Z"/><path class="b" d="M150.79589,184.5552q1.22175-1.66635,2.4443-3.3325c.21781,1.8662-.8818,2.7685-1.8896,3.7387C151.167,184.8262,150.98139,184.6904,150.79589,184.5552Z"/><path class="b" d="M238.36519,111.0732c.3614-1.875,1.0791-2.498,3.09381-2.771C240.82909,109.7471,239.57319,110.21,238.36519,111.0732Z"/><path class="b" d="M230.92679,101.7158c-.0821-1.9863.4765-2.5835,2.8437-3.2431C232.59279,99.8174,231.75879,100.7666,230.92679,101.7158Z"/><path class="b" d="M246.24509,167.6963c-1.1035-.2432-2.207-.4859-3.5957-.792.39261-.4287.5781-.8018.7598-.8003a3.56108,3.56108,0,0,1,3.0703,1.1167Q246.36234,167.458,246.24509,167.6963Z"/><path class="b" d="M214.14449,193.8677q.69585,1.8735,1.3916,3.7475-.26355.099-.5263.1983a5.89631,5.89631,0,0,1-1.5459-3.7295Q213.80364,193.97555,214.14449,193.8677Z"/><path class="b" d="M153.09669,95.8472c1.1992,1.3393,2.0146,2.2509,2.9336,3.2763C154.42189,99.1343,153.40229,98.0566,153.09669,95.8472Z"/><path class="b" d="M185.19239,197.4331a2.97412,2.97412,0,0,1-.377,3.6973q-.1113-1.81425-.2207-3.628Q184.89349,197.46805,185.19239,197.4331Z"/><path class="b" d="M196.38959,201.7769q-.35445-1.93875-.7109-3.8785c.1817-.0332.36131-.0669.542-.1005a5.9761,5.9761,0,0,1,.918,3.8657Q196.765,201.72075,196.38959,201.7769Z"/><path class="b" d="M201.72949,196.6162c1.7246,1.4077,1.2402,2.7803,1.2334,4.4692C201.71779,199.6836,202.10639,198.333,201.72949,196.6162Z"/><path class="b" d="M247.02439,132.3667c1.2402-1.3442,2.43561-1.4199,4.2481-1.2344A5.80829,5.80829,0,0,1,247.02439,132.3667Z"/><path class="b" d="M136.374,164.5391c1.55279-.6914,2.62109-1.1675,3.918-1.7461C139.42769,164.4565,138.78609,164.7651,136.374,164.5391Z"/><path class="b" d="M175.46779,84.374A3.72947,3.72947,0,0,1,177.04,87.8662,3.71842,3.71842,0,0,1,175.46779,84.374Z"/><path class="b" d="M167.38769,192.3711a2.9383,2.9383,0,0,1-1.127,3.499C165.64549,194.2588,166.749,193.3848,167.38769,192.3711Z"/><path class="b" d="M141.99319,117.7847a2.92242,2.92242,0,0,1-3.4688-.6451c.0527-.1591.1055-.3188.1582-.478Q140.33784,117.22335,141.99319,117.7847Z"/><path class="b" d="M134.48339,128.7676a4.27528,4.27528,0,0,1,3.9199.4546A4.38549,4.38549,0,0,1,134.48339,128.7676Z"/><path class="b" d="M151.22849,103.9194a3.5819,3.5819,0,0,1-2.7002-2.8247q1.51756,1.18365,3.0352,2.3667Q151.39639,103.69,151.22849,103.9194Z"/><path class="b" d="M251.65629,149.7095c-1.6436.5058-2.8194.6826-4.212-.5186A4.47834,4.47834,0,0,1,251.65629,149.7095Z"/><path class="b" d="M132.87789,145.9678c1.2617-.2617,2.4785-1.022,4.3399-.3574C135.48729,146.3921,134.23929,146.8003,132.87789,145.9678Z"/><path class="b" d="M139.62789,123.8784q-1.7841-.5376-3.5703-1.0762c1.4258-.5512,2.2012-.3691,3.7149.5533C139.72359,123.5298,139.67679,123.7041,139.62789,123.8784Z"/><path class="b" d="M239.06149,178.4312c-1.0049-.5694-2.0097-1.1382-3.3701-1.9087,1.8662-.3804,2.0283-.2998,3.6377,1.4238C239.24119,178.1079,239.15139,178.2695,239.06149,178.4312Z"/><path class="b" d="M179.19239,196.2593c.5918,1.2348.1211,2.3432-.3106,3.456-.1875-.018-.373-.0361-.5605-.0542q.13185-1.7322.2656-3.4638C178.78809,196.2178,178.98929,196.2388,179.19239,196.2593Z"/><path class="b" d="M234.834,182.7681c-.85651-.6934-1.71191-1.3868-2.85451-2.312C233.81149,180.3457,234.21189,180.645,234.834,182.7681Z"/><path class="b" d="M134.54389,157.8184c.9512-.6363,1.7832-1.5122,3.3125-1.1495A2.80444,2.80444,0,0,1,134.54389,157.8184Z"/><path class="b" d="M133.41889,152.0591q1.67295-.50025,3.3457-1.0005a2.79916,2.79916,0,0,1-3.2402,1.5527Q133.47174,152.33515,133.41889,152.0591Z"/><path class="b" d="M208.74219,199.3164a4.12613,4.12613,0,0,1-.8848-3.6074A3.3127,3.3127,0,0,1,208.74219,199.3164Z"/><path class="b" d="M171.76069,198.1392c.252-1.1412.5039-2.2818.8711-3.9502C173.38769,196.1982,173.333,196.498,171.76069,198.1392Z"/><path class="b" d="M137.291,134.9971a3.3738,3.3738,0,0,1-3.57911-.8946q1.79295.1173,3.584.2344Q137.29289,134.66645,137.291,134.9971Z"/><path class="b" d="M149.58109,177.3066c-.0704,1.8872-.3116,2.1543-2.4395,2.522C147.90139,179.0435,148.66019,178.2583,149.58109,177.3066Z"/><path class="b" d="M143.08109,174.8691c.7851-.7627,1.5712-1.5253,2.6777-2.6001-.0156,2.0108-1.1817,2.4664-2.1484,3.087Q143.34669,175.1121,143.08109,174.8691Z"/><path class="b" d="M155.88569,188.7646c.5655-.9462,1.1309-1.892,1.7657-2.9555C158.27049,187.1821,158.25289,187.2188,155.88569,188.7646Z"/><path class="b" d="M244.14749,120.8047c.8759-1.4326,2.166-1.3008,3.3281-1.4805C246.42579,120.52,246.42579,120.52,244.14749,120.8047Z"/><path class="b" d="M226.50679,97.4141c-.125-1.3687.7608-2.0391,2.2168-2.3389q-.81735,1.3089-1.6367,2.6186Q226.79694,97.554,226.50679,97.4141Z"/><path class="b" d="M218.00879,88.2661c-.3057.9956-.6113,1.9912-.96579,3.1475C216.38959,89.9863,216.38959,89.9863,218.00879,88.2661Z"/><path class="b" d="M245.32909,160.8311a2.95052,2.95052,0,0,1,3.2383.5097C247.16309,161.9194,246.19039,161.7725,245.32909,160.8311Z"/><path class="b" d="M228.874,184.1958c.57029.7695,1.14059,1.5396,1.97659,2.6665C228.89549,186.1211,228.69039,185.8608,228.874,184.1958Z"/><path class="b" d="M224.13379,187.7529q.75285,1.3176,1.5068,2.6358c-.1484.0849-.2959.1694-.4443.2539a4.71444,4.71444,0,0,1-1.5537-2.6294Q223.88724,187.88285,224.13379,187.7529Z"/><path class="b" d="M104.12839,114.3135c-1.0166-1.9116-.8926-3.9346-1.0029-5.8916-.1094-1.9121-.0098-3.835-.0767-5.751-.0659-1.8477-.9262-3.0967-2.1733-3.334-1.5274-.291-4.2861.8623-4.813,2.1084a3.745,3.745,0,0,0-.1709,1.6485c.1753,2.6269.3989,5.2504.5996,7.8759.083,1.0879.1494,2.1773.2276,3.3267-1.815.2519-3.3575.4658-5.1626.7168a13.69,13.69,0,0,1-.606-2.6841c-.1807-6.6143-.2954-13.23-.40919-19.8457-.01271-.7114.11279-1.4253.20309-2.4629,1.1338-.1123,2.2832-.2915,3.4361-.3193.9697-.0244,1.396.7246,1.5322,1.5522.168,1.0205.2022,2.063.2974,3.0957.0844.9336.1748,1.8672.2949,3.1441.8589-.524,1.4145-.9004,2.0034-1.2139a13.21823,13.21823,0,0,1,2.3682-1.1353,5.54858,5.54858,0,0,1,7.0913,4.5796c.6352,4.5484.7563,9.1685,1.10541,13.8462C107.10159,113.8472,105.65429,114.0742,104.12839,114.3135Z"/><path class="b" d="M78.69239,115.313c-1.7676-.0176-3.4102-.0342-5.4111-.0537a41.22637,41.22637,0,0,1,7.2788-19.6616,55.654,55.654,0,0,0-7.0308-.2681c-.3936-.002-.7876.1294-1.1831.1616-2.3037.1865-3.1914-.6445-3.0601-2.9404.06991-1.229,1.0108-1.5571,2.0171-1.606,2.7847-.1357,5.5713-.2656,8.3579-.2881,1.8262-.0146,3.6577.251,5.4825.2188a1.75561,1.75561,0,0,1,2.0102,1.5464c.3906,1.5425.45121,2.709-1.1016,3.9248-3.4394,2.6933-4.67619,6.7705-5.7543,10.7925C79.60009,109.7456,79.24319,112.4434,78.69239,115.313Z"/><path class="c" d="M67.64059,247.7617c-.6543,1.8623-1.8047,1.9199-3.1845,1.5088a16.9455,16.9455,0,0,0-2.5782-.5132c-1.6015-.2143-3.0781-.5376-3.0351-2.6035a55.62144,55.62144,0,0,0-5.6914-1.4922,7.23117,7.23117,0,0,1-4.3565-2.4131,9.86258,9.86258,0,0,1,1.042-5.2368,6.24488,6.24488,0,0,0,.6533-2.7583c.1192-2.5527.09181-5.1123.1573-7.6684a28.55373,28.55373,0,0,1,.22951-3.0992c.97649-7.2089,2.00579-14.4111,2.95889-21.623.7334-5.5474,1.4014-11.104,2.0606-16.6607.3086-2.6137.6562-5.2324.7539-7.8574.1299-3.4248,2.125-5.3467,5.0664-6.2094,6.7461-1.979,13.5508-3.7369,20.6455-4.0611,6.7022-.3061,13.3984-.77,20.09771-1.1577a4.3224,4.3224,0,0,1,1.18649.0273q10.15426,2.3109,20.2988,4.6597c2.17771.5054,4.3223,1.1646,6.5166,1.5733a10.44172,10.44172,0,0,0,3.292-.0757c2.4502-.3457,4.875-1.021,7.33011-1.1377a18.53275,18.53275,0,0,1,5.40329.8247c9.1221,2.3735,18.2744,4.6562,27.3154,7.31,6.28131,1.8438,12.3877,4.2749,18.5996,6.3609,2.1983.7378,3.1075,2.6987,4.2325,4.3374a3.51773,3.51773,0,0,0,2.1191,1.626c5.793,1.5351,11.5703,3.145,17.3955,4.5454,7.22361,1.7363,14.4951,3.2783,21.7354,4.9507a11.814,11.814,0,0,1,2.1621.8979,27.00366,27.00366,0,0,0-.88089,4.6846c0,4.8652.17579,9.7314.29879,14.5962.1446,5.7422.3165,11.4834.4288,17.2256a1.91442,1.91442,0,0,1-.5821,1.2329c-1.7519,1.7241-3.51849,3.4394-5.3662,5.0595a3.66207,3.66207,0,0,1-1.792.5161c-1.65529.2496-3.3388.3448-4.9726.6841-1.6436.3413-3.2412.8042-4.753-.226-4.17769,6.7421-12.0429,7.6826-15.205,1.8691a287.39783,287.39783,0,0,0-50.9991,5.7524c-.1923.6587-.4521,1.5464-.7548,2.5806-1.6856-.2456-2.8829.5225-4.0645,1.7324a8.62818,8.62818,0,0,1-5.53129,2.5205,27.665,27.665,0,0,1-9.52631-.2656,7.42642,7.42642,0,0,1-5.8154-6.4302c-.0547-.3691-.0616-.7446-.1094-1.3618-.8047.376-1.416.6626-2.1563,1.0078-.68259-1.0766-1.6582-1.0185-2.8525-.7627a34.3831,34.3831,0,0,1-4.28809.3482c-6.52731.5512-13.126.6933-19.55181,1.8222-4.1201.7232-7.8691-.0327-11.7646-.6088-2.2129-.3272-4.4551-.5206-6.6299-1.0127-3.4189-.7749-6.7881-1.7696-10.1885-2.6299-.9238-.2334-1.8994-.2588-2.82219-.4922C69.18949,249.4116,68.00979,249.4116,67.64059,247.7617Z"/><path class="b" d="M67.64059,247.7617c-.6543,1.8623-1.8047,1.9199-3.1845,1.5088a16.9455,16.9455,0,0,0-2.5782-.5132c-1.6015-.2143-3.0781-.5376-3.0351-2.6035a55.62144,55.62144,0,0,0-5.6914-1.4922,7.23117,7.23117,0,0,1-4.3565-2.4131,9.86258,9.86258,0,0,1,1.042-5.2368,6.24488,6.24488,0,0,0,.6533-2.7583c.1192-2.5527.09181-5.1123.1573-7.6684a28.55373,28.55373,0,0,1,.22951-3.0992c.97649-7.2089,2.00579-14.4111,2.95889-21.623.7334-5.5474,1.4014-11.104,2.0606-16.6607.3086-2.6137.6562-5.2324.7539-7.8574.1299-3.4248,2.125-5.3467,5.0664-6.2094,6.7461-1.979,13.5508-3.7369,20.6455-4.0611,6.7022-.3061,13.3984-.77,20.09771-1.1577a4.3224,4.3224,0,0,1,1.18649.0273q10.15426,2.3109,20.2988,4.6597c2.17771.5054,4.3223,1.1646,6.5166,1.5733a10.44172,10.44172,0,0,0,3.292-.0757c2.4502-.3457,4.875-1.021,7.33011-1.1377a18.53275,18.53275,0,0,1,5.40329.8247c9.1221,2.3735,18.2744,4.6562,27.3154,7.31,6.28131,1.8438,12.3877,4.2749,18.5996,6.3609,2.1983.7378,3.1075,2.6987,4.2325,4.3374a3.51773,3.51773,0,0,0,2.1191,1.626c5.793,1.5351,11.5703,3.145,17.3955,4.5454,7.22361,1.7363,14.4951,3.2783,21.7354,4.9507a11.814,11.814,0,0,1,2.1621.8979,27.00366,27.00366,0,0,0-.88089,4.6846c0,4.8652.17579,9.7314.29879,14.5962.1446,5.7422.3165,11.4834.4288,17.2256a1.91442,1.91442,0,0,1-.5821,1.2329c-1.7519,1.7241-3.51849,3.4394-5.3662,5.0595a3.66207,3.66207,0,0,1-1.792.5161c-1.65529.2496-3.3388.3448-4.9726.6841-1.6436.3413-3.2412.8042-4.753-.226-4.17769,6.7421-12.0429,7.6826-15.205,1.8691a287.39783,287.39783,0,0,0-50.9991,5.7524c-.1923.6587-.4521,1.5464-.7548,2.5806-1.6856-.2456-2.8829.5225-4.0645,1.7324a8.62818,8.62818,0,0,1-5.53129,2.5205,27.665,27.665,0,0,1-9.52631-.2656,7.42642,7.42642,0,0,1-5.8154-6.4302c-.0547-.3691-.0616-.7446-.1094-1.3618-.8047.376-1.416.6626-2.1563,1.0078-.68259-1.0766-1.6582-1.0185-2.8525-.7627a34.3831,34.3831,0,0,1-4.28809.3482c-6.52731.5512-13.126.6933-19.55181,1.8222-4.1201.7232-7.8691-.0327-11.7646-.6088-2.2129-.3272-4.4551-.5206-6.6299-1.0127-3.4189-.7749-6.7881-1.7696-10.1885-2.6299-.9238-.2334-1.8994-.2588-2.82219-.4922C69.18949,249.4116,68.00979,249.4116,67.64059,247.7617ZM101.875,176.6006c1.13869.208,1.90039.2969,2.63279.4892,3.2344.8501,6.4356,1.8467,9.6963,2.5772,9.04691,2.0264,18.126,3.9048,27.1748,5.9204,7.4063,1.6499,14.7852,3.418,22.1777,5.1235,3.2696.7544,6.5586,1.4341,9.8155,2.2412,3.2832.8135,6.6181,1.3707,9.8965,2.2315,3.5488.9321,7.18941,1.5225,10.7998,2.2134,6.041,1.1557,12.1064,2.1904,18.1289,3.4365,4.1132.8511,8.2841,1.3413,12.3945,2.2295a79.72218,79.72218,0,0,0,8.0957.8769,2.57163,2.57163,0,0,1,1.5098.4673,3.94725,3.94725,0,0,0,3.205,1.0581c.8594-1.9438.5352-2.9453-1.3652-3.5327a65.43312,65.43312,0,0,0-6.9717-1.7456c-5.958-1.1396-11.9365-2.1704-17.9052-3.2558-.462-.0845-1.1963-.1319-1.3164-.4078-.7559-1.7421-2.4122-1.6049-3.8184-2-2.3066-.6489-4.6348-1.2353-6.918-1.9565-2.1992-.6939-4.4902-.8306-6.5332-2.3945-1.6601-1.2705-4.0781-1.5826-6.1875-2.2276-4.0332-1.2334-8.0703-2.4599-12.13469-3.582-5.375-1.4844-10.74911-2.9844-16.17581-4.2559-4.8907-1.146-9.8545-1.9839-14.78319-2.9775-1.57521-.3179-2.00981-.9146-1.85161-2.4854.0772-.7544.2383-1.5004.3945-2.4541-1.8554.2789-3.4336.5162-5.2138.7837,3.6455,1.5269,3.7607,1.5948,3.75,2.3741-2.8116-.564-5.6065-1.0733-8.376-1.6895-5.5215-1.2285-11.0273-2.5303-16.5449-3.7734-5.32619-1.1993-10.627-2.6133-16.1436-2.5928-2.706.0102-5.4209.0879-8.1142.331-1.9746.1788-2.3516.7413-2.6866,2.7139a12.665,12.665,0,0,1-.46379,1.585c-.55961,1.8213-1.21881,3.6186-1.65821,5.4692-.5127,2.1602-1.336,2.936-3.5059,3.1533q-5.59575.5589-11.1777,1.2544c-3.2461.4048-6.5039.7857-9.7119,1.4024-1.7637.3388-2.668-.4639-3.4776-1.7256-.2285-.3555-.3935-.7515-.5879-1.1289-.1357.0205-.2715.04-.4072.06-.085,1.9097-.168,3.8199-.2539,5.7544a28.58691,28.58691,0,0,1,3.3769-1.2988,30.30279,30.30279,0,0,1,3.793-.5332c4.127-.4756,8.2451-1.0586,12.3848-1.3711,5.0957-.3852,10.208-.5493,15.3154-.79,1.752-.0826,3.5137-.2134,5.2617-.127,1.6104.0796,2.0371.5855,2.1953,2.2017.16221,1.6675.3057,3.3437.3243,5.0171.0566,4.9506.0195,9.9018.0703,14.8515.0469,4.6275.1748,9.2534.2304,13.8804a6.42393,6.42393,0,0,1-.29879,2.3633,6.57676,6.57676,0,0,1-1.42381,2.084,1.53439,1.53439,0,0,1-2.1719.1504c-.2226-.1612-.6182-.0987-.9355-.1075-3.1133-.0849-6.2266-.1738-9.3399-.2412-8.54489-.1836-17.0937-.1255-25.5801-1.5127-2.5341-.414-5.1875-.0991-7.8261-.1181-.17969.8047-.3106,1.3398-.417,1.8798-.4229,2.1387-.8203,4.2393,1.2471,5.9029a2.72156,2.72156,0,0,1,.6679,1.7319c.19731,2.0635.3106,4.1358.4024,6.2075a5.84322,5.84322,0,0,1-.334,1.4268c-.961-.3457-1.7608-.6333-2.6709-.9609a11.18379,11.18379,0,0,0-1.0235,1.5957,3.12285,3.12285,0,0,0,1.7471,4.4794,48.06085,48.06085,0,0,0,5.1074,1.4356c.3721-1.1802.67481-2.1382.96781-3.0674a25.97709,25.97709,0,0,1,8.21.6709,1.90571,1.90571,0,0,1,1.68749,1.7407c.2392,1.3994.56051,2.7842.8457,4.169,1.4707.3999,2.7724.7749,4.0859,1.1074,3.9434.999,7.8652,2.1016,11.8447,2.9341,3.3565.7021,6.7745,1.1264,10.1768,1.583,1.3027.1753,2.6641.5444,3.8828-.0444a3.55946,3.55946,0,0,0,.2481-.5791c2.3847-12.4498,3.0136-25.0508,3.22851-37.6856.16209-9.5869.35349-19.1743.40819-28.7617C102.96879,183.3022,103.376,180.1558,101.875,176.6006ZM52.89839,216.3857c15.4727,2.441,30.7442,1.5581,45.9239,2.6822.13471-1.4502.3369-2.5533.3232-3.6543-.0674-5.3506-.21-10.6997-.2871-16.0503-.0371-2.6299.0615-5.2627.0068-7.8921a32.91761,32.91761,0,0,0-.99019-8.0381c-1.65531-.0332-3.23441-.1387-4.80861-.0796-2.7119.1011-5.4219.294-8.1299.4663-6.126.3906-12.2851.4297-18.3427,1.5669-2.42779.4561-4.8184,1.1109-7.2344,1.6338a2.39242,2.39242,0,0,0-2.02539,1.7827,40.4784,40.4784,0,0,0-1.30671,4.8081c-.7304,5.0576-1.291,10.1397-1.9609,15.2066C53.74119,211.2661,53.31639,213.7007,52.89839,216.3857Zm78.0498,5.5801c-.457,9.6397-.9091,19.1514-1.36519,28.7681a12.70308,12.70308,0,0,0,1.59859.0605c2.11141-.207,2.4903-.5361,3.1016-2.5781.80081-2.6763,1.4863-5.395,2.4375-8.0171.9766-2.6968,2.168-5.3203,3.3564-7.935a4.94089,4.94089,0,0,1,2.9307-2.6641,16.35092,16.35092,0,0,1,9.6543-.418,2.39329,2.39329,0,0,1,1.0576.4883,25.49976,25.49976,0,0,1,2.9805,3.0864,5.65648,5.65648,0,0,1,1.1436,2.8199,50.84216,50.84216,0,0,1-.0137,7.164c-.2129,2.7613-.6992,5.502-1.1153,8.6079,6.2364-.6049,12.1563-1.6245,18.1055-2.5322,6.0606-.9243,12.2012-1.3252,18.2559-1.9497.332-1.3159.9609-2.4614.1074-3.6973-.1738-.2519.0547-.7729.0801-1.1714.2822-4.3842.57131-8.7675.833-13.1533.0849-1.4131.0947-2.831.1367-4.186C191.13089,223.7617,137.67379,221.4873,130.94819,221.9658Zm28.7901-29.4282c-9.5137-1.9048-18.77929-3.7598-28.4082-5.688q-.60645,16.1169-1.1983,31.8413c2.6075.2427,4.8877.5112,7.1768.6577,6.5859.4219,13.2266-.3569,19.77641.918,1.11419.2168,1.63569-.3794,1.70989-1.4443.0283-.3975.0352-.7964.0508-1.1953.207-5.1802.4258-10.3594.6172-15.5406C159.57419,199.0625,159.63869,196.0366,159.73829,192.5376Zm17.0918,27.3828a2.17123,2.17123,0,0,0,1.792-2.3066c.0322-1.5889.4111-3.1719.4394-4.7608.0811-4.7036.0752-9.4087.0791-14.1128.001-2.1909-.01359-2.2539-2.1582-2.6694-3.2881-.6367-6.5976-1.1636-9.8926-1.7642-1.38179-.2514-2.7509-.5727-4.0351-.8432-.2149.3847-.34569.5137-.3594.6543-.6797,7.2261-1.3721,14.4507-2.0019,21.6806-.1211,1.398.0048,2.8179.0195,4.5425,5.8652-.3349,11.4189.8819,17.0322.6406q.06015-.2373.1221-.4736C177.63569,220.3774,177.40429,220.2466,176.83009,219.9204Zm61.9101,6.4829c-10.7968-.4468-21.123-.8745-31.7275-1.3135a191.90435,191.90435,0,0,0-.80569,20.9981c1.18749-.002,2.19929-.0127,3.21289-.0039,2.6543.0224,2.53811-.0005,3.1485-2.6856.83-3.6533,1.8398-7.2671,2.8164-10.8867.25-.9238.5957-1.9673,1.7656-2.0112a45.77145,45.77145,0,0,1,5.0039.1123,1.96456,1.96456,0,0,1,1.9629,2.2353c.0019,3.1133.0557,6.2266.0859,9.3404.0078.7632.0088,1.5259.0137,2.415,3.0898.4385,5.74221-.789,8.5-.9267.2588-.0132.5137-.3492.749-.5572,1.0166-.8989,1.9834-1.8598,3.0479-2.6958a4.78016,4.78016,0,0,0,1.9648-3.6767C238.61329,233.4116,238.65329,230.0723,238.74019,226.4033Zm-57.6386-28.52c-.5977,7.7402-1.083,15.3218-.4121,23.1387,1.0429.0971,1.9013.2031,2.7626.2519,2.1524.1226,4.3096.167,6.4561.3482,1.1367.0952,2.2559.4092,3.6973.6841a9.20672,9.20672,0,0,0,.85351-2.523c.18359-2.9429.18549-5.897.24509-8.8472.0596-3.0234.124-6.0478.1416-9.0717a10.58873,10.58873,0,0,0-.3096-1.835c-1.4306-.3257-2.7353-.7095-4.0693-.9082C187.47559,198.6758,184.47069,198.3228,181.10159,197.8833Zm39.7519,6.7388c-4.7031-.3589-9.0039-1.8384-13.3242-2.1084-.1016,6.8623-.2002,13.4331-.2949,19.8681,4.8281,2.3311,9.7021.7036,14.72261,1.7237-.32221-5.8535-.62111-11.3057-.92481-16.7583C220.98829,206.5571,220.92969,205.7681,220.85349,204.6221Zm16.60551,2.625c-4.92971-.8247-9.84381-1.6475-15.04881-2.5176-.1836,6.7285,1.6386,12.9111,1.1533,19.3608,4.79-.0215,9.2314-.041,13.5498-.0605a5.30044,5.30044,0,0,0,1.0586-3.9458c-.1973-3.7427-.2774-7.4917-.42389-11.2378A12.83984,12.83984,0,0,0,237.459,207.2471Zm-41.835,17.3305c-.13081.8208-.24511,1.2867-.27441,1.7583q-.4893,7.99365-.9551,15.9888c-.0136.2383-.1386.5928-.0273.6982,1.2207,1.1553.4141,2.3838-.0527,3.9395,3.5957-.2266,6.9404-.437,10.35351-.6519.32419-7.121.63469-13.9311.94919-20.8022C202.24609,225.1943,199.03519,224.8955,195.624,224.5776Zm-81.91311-4.4799c.1602-8.6763.83111-17.0303,0-25.4361-2.0351-.5444-3.875-1.3691-6.1113-.7095-.5957,8.4419-1.1348,16.8472-1.18259,25.4659C108.92769,219.6519,111.18549,219.8623,113.71089,220.0977Zm28.4356,20.5747c-.7637.4038-1.43749.563-1.7676.9887a4.82427,4.82427,0,0,0-.5996,1.791c-.5996,2.42.0439,4.7676.6992,7.0298.666,2.3047,3.6309,3.9068,5.7774,3.6202a4.08331,4.08331,0,0,0,2.7666-2.0542c2.1816-2.9839,3.6992-6.1363,2.6279-9.9957-.8789-3.1684-2.8535-5.0092-5.6797-5.1748C142.86819,236.6958,141.84959,237.7617,142.14649,240.6724Zm52.0039-51.5157c-.4981-2.3252-2.3203-2.666-3.9531-3.2314-6.3301-2.1929-12.6055-4.5737-19.0166-6.5059-7.251-2.1855-14.6162-3.9956-21.9522-5.8965-1.9648-.5087-3.998-.7539-6.1172-1.1416-.2129,1.189-.36129,2.024-.5625,3.1514,5.9326,1.3067,11.69921,2.4658,17.4073,3.8652,5.8134,1.4253,11.5908,3.0171,17.3457,4.6641C182.90819,185.666,188.46879,187.4316,194.15039,189.1567Zm-87.8281,34.3662c-.8164,6.7208-2.336,13.1382-1.5645,19.814a17.30645,17.30645,0,0,0,7.3418-.436c.0996-6.2837.1953-12.4531.2949-18.8115C110.30469,223.8945,108.45409,223.7217,106.32229,223.5229Zm15.0283-27.1645c-.80859,4.3774-1.8652,21.9624-1.4268,23.8623a10.31408,10.31408,0,0,0,5.4864.3252c.09181-.9956.2246-1.9316.2597-2.8711.2022-5.5029.3174-11.0102.5889-16.5093.2285-4.6225.2217-4.7129-4.50879-4.9511A1.73166,1.73166,0,0,0,121.35059,196.3584Zm-4.167,46.3384c2.168-.0425,3.9766-.1074,5.7861-.1045,1.5655.0024,1.8194-.1148,1.8291-1.7207.0274-4.5459-.05079-9.0923-.0312-13.6382a1.5609,1.5609,0,0,0-1.711-1.8096c-1.4003-.0268-2.8027.0616-4.2734.1021C118.24509,231.3062,117.73629,236.7632,117.18359,242.6968Zm98.793,4.5517c1.0996-.6699,2.6191-1.1416,3.3769-2.1733.9551-1.3003,1.85351-3.0278.2901-4.7041-.0772-.0835.413-.5874.3466-.8076a10.46288,10.46288,0,0,0-1.07219-2.7818c-.57031-.8632-1.42781-.7373-2.28711-.1357-.29689.207-.8741.0137-1.3926.0015a26.89422,26.89422,0,0,1-.957,3.7553c-.53329,1.3096.706,2.1504.63671,3.1597C214.82809,244.8687,214.53519,246.0698,215.97659,247.2485Zm-155.7168-4.9936c-.0323,1.164-.0196,1.9971-.084,2.8237-.127,1.6353.0586,2.042,1.5781,2.3882,1.28711.2935,2.61911.3955,3.833.5684a13.47571,13.47571,0,0,1,.9365-1.5538c1.0567-1.2836.7842-2.896-.7236-3.269C63.98829,242.7646,62.11519,242.564,60.25979,242.2549Zm143.7187-35.1485c-1.9072,1.7808-2.43749,5.8707-1.873,12.7056.0273.3379.4082.6465.9482,1.4492A91.85085,91.85085,0,0,0,203.97849,207.1064Zm-5.7734-1.0126q-.48045,7.371-.961,14.7426.255.08205.5098.1646c.2686-.3037.6768-.5655.7832-.918C199.23439,217.7681,199.26949,207.5669,198.20509,206.0938ZM52.80079,229.6851c-.1797.0058-.3584.0107-.5371.0161-.752,3.5185-.586,5.2114.8554,6.0298C53.00589,233.5986,52.90329,231.6421,52.80079,229.6851Zm169.4101,11.0556q.37367.04395.74811.0879.00583-1.28325.01369-2.5659c-.13769-.0122-.2754-.0249-.4141-.0366Q222.38579,239.483,222.21089,240.7407Zm-61.1757-44.8618c.414-1.1269.414-1.1269-.1914-2.227C160.92379,194.5864,160.97949,195.2329,161.03519,195.8789Z"/><path class="b" d="M97.69629,232.7051c-.3125,1.5771-.541,2.8662-.8272,4.1426q-.4452,1.9848-.9814,3.9502c-.7256,2.6455-2.2539,3.8667-5.09469,3.7573-2.60551-.1006-5.20221-.4546-7.84381-.7007-.9033-3.709-.6679-7.2593-.5928-10.9956,2.6348.0976,5.14461.2798,7.6524.2583C92.45209,233.0952,94.89449,232.8647,97.69629,232.7051Zm-1.415,1.4848c-4.375.0625-8.1348.1163-12.23929.1753-.11331,2.5332-.28031,4.875-.26861,7.2163a1.72039,1.72039,0,0,0,1.0938,1.2647,58.79738,58.79738,0,0,0,6.8633.3984,2.65477,2.65477,0,0,0,2.5761-1.8325C94.98439,239.2339,95.51949,237.0117,96.28129,234.1899Z"/><path class="b" d="M80.667,249.3896c-.14941-3.0053.36819-3.5146,2.83789-3.2055,1.8662.2339,3.7353.4468,5.5683.665.003,2.4678-.4277,3.0864-2.4365,3.0625C84.68549,249.8892,82.73829,249.583,80.667,249.3896Zm2.98339-1.2587c-.6006-.9795-1.19139-1.0562-2.19339-.0279C82.46879,248.1162,83.05959,248.1235,83.65039,248.1309Z"/></svg>