<svg xmlns="http://www.w3.org/2000/svg" viewBox="0 0 300 300"><defs><style>.a{fill-rule:evenodd;}</style></defs><title>gl_nav18</title><path class="a" d="M70.3193,164.0732a2.41962,2.41962,0,0,0-2.7792-2.0293c-1.9.0508-3.8023.0127-5.9253.0127a17.05956,17.05956,0,0,0,3.4545,6.709c.3423.4405,1.2876.5323,1.9668.5684,1.5069.081,3.021.0254,4.5328.0254.0004.1738.0009.3476.0014.5205H65.7661c1.335,2.1162,2.3457,3.8965,3.5283,5.5547,2.2691,3.1816,4.5752,6.3398,6.9791,9.4199q3.495,4.47945,7.2431,8.7578c.8467.9648,2.2832,1.375,2.8569,2.666a3.47879,3.47879,0,0,1,.1617.961c-4.1524.1211-8.1831.2636-12.2149.3242a2.08456,2.08456,0,0,1-1.4018-.7002c-3.0459-3.5742-6.4058-6.9502-8.9781-10.8447-5.4487-8.2481-11.6191-16.0225-16.02-24.9844-1.9389-3.9492-3.5781-8-5.3559-12.002-.9566-2.1543-1.774-4.3691-2.7539-6.8037,7.1005-.1045,13.851-.249,20.602-.2881,6.6177-.039,13.2363.0547,19.854.0352,1.835-.0049,3.669-.2852,5.5039-.2949,4.2949-.0225,8.5904.0586,12.8853.0605,1.3491.001,2.6997-.1816,4.0483-.167,5.3477.0596,10.6948.1895,16.0425.2471,8.5518.0918,17.104.1211,25.6548.2314,2.7134.0362,5.4272.3975,8.1357.3487,5.5855-.1016,11.1655-.461,16.7505-.5528,3.25-.0547,6.481-.4853,9.7725.0176,2.4179.3711,4.9458-.0068,7.4243.0098,5.4277.0371,10.855.1084,16.28269.1748,6.793.083,13.5859.209,20.3789.249,3.669.0215,7.3399-.0664,11.0078-.1631a27.499,27.499,0,0,0,5.8672-.7334c2.3359-.5674,4.917-.1523,7.3906-.123.9414.0117,1.8809.1367,2.8203.209.05081-.1504.1006-.3008.1504-.4512a4.81012,4.81012,0,0,0-1.2187-.6709,30.664,30.664,0,0,0-10.0137-.2988c-1.1015.1308-2.2129.1953-3.3213.2265-3.5068.0947-7.0166.25-10.5224.211-3.9121-.0411-7.8218-.3418-11.7344-.3985-5.26709-.0781-10.53709.0196-15.8042-.0508-10.22269-.1347-20.44339-.3994-30.666-.4785-5.0279-.039-10.0572.2647-15.0874.3262-6.3799.0781-12.7622.0127-19.1421.1074-8.8687.1319-17.7359.3594-26.6035.5371-6.6333.1348-13.2671.3594-19.8999.3418-3.4961-.0078-6.9888-.5088-10.4883-.6699-2.3106-.1064-4.6314-.0264-6.9468.0098-3.5933.0566-7.186.1591-10.7793.2148-.7915.0117-1.5835-.1055-2.3765-.1406-.6342-.0264-1.4038-.2539-1.8823.0156-2.5478,1.4385-5.3301.4736-7.9653.9121a22.34334,22.34334,0,0,1-3.3467.1992,2.40945,2.40945,0,0,1-2.5322-2.04c-2.1909-11.2529-2.732-22.5039.0415-33.751a30.27672,30.27672,0,0,1,7.4995-13.7129A118.73613,118.73613,0,0,1,64.5816,76.8145c5.2475-3.7745,10.7368-7.2071,17.1362-8.879,3.7773-.9873,7.438-2.4218,11.2222-3.374a59.49337,59.49337,0,0,1,8.0288-1.2051c4.229-.4628,8.4658-.8964,12.7104-1.1669a56.10858,56.10858,0,0,1,6.2798.2128c1.8267.0899,3.6519.2198,5.4775.3331a47.4783,47.4783,0,0,1,13.0362,2.9834c3.0669,1.0957,6.1245,2.2207,9.1562,3.4091a16.44011,16.44011,0,0,1,3.1655,1.669,2.23219,2.23219,0,0,0,2.7979.0351,57.42922,57.42922,0,0,1,22.8765-8.0429c4.1987-.4864,8.395-1.1104,12.6098-1.3047a67.1625,67.1625,0,0,1,8.84039.5761c8.0903.7051,15.7578,3.2715,23.5434,5.3438,6.44731,1.7158,12.4414,4.542,18.3965,7.4023a21.39321,21.39321,0,0,1,7.96781,6.9297,9.86374,9.86374,0,0,0,1.16889,1.1973,45.30716,45.30716,0,0,1,9.6553,14.168,67.93786,67.93786,0,0,1,4.6494,14.58c1.5693,8.0332,2.3809,16.1231,1.3369,24.3047a14.76912,14.76912,0,0,1-.4306,2.1094,3.33824,3.33824,0,0,1-3.4278,2.5273c-2.7129.0137-5.4258.1016-8.1387.1827a10.40552,10.40552,0,0,0-1.5585.3574c4.0722,1.623,7.9707.0928,11.8847,1.1211a28.225,28.225,0,0,1-.8652,3.209c-1.52639,3.8496-3.0195,7.7187-4.7432,11.4824a44.12275,44.12275,0,0,1-3.2724,5.1963,51.00531,51.00531,0,0,1,3.0136-6.9776c2.1651-3.5312,2.89361-7.5625,4.4737-11.2851.041-.0957-.1123-.2754-.3282-.7598-3.206-.1289-6.581-.2656-9.956-.4023-1.2363,2.6201-2.6836,4.9609-3.4697,7.5058a75.502,75.502,0,0,1-6.7373,15.0391c-2.3711,4.1621-4.9161,8.2236-7.334,12.3574-.4512.7705-1.2207,1.4805-.9854,2.6602,1.833.2285,3.625.4511,5.418.6758a6.62117,6.62117,0,0,1-2.6358.2714c-.9511-.0849-1.88569-.3388-2.8359-.4355-.80079-.082-1.4375.1562-1.3301,1.5117,1.7412.1563,3.53231.3389,5.3272.4609a1.63056,1.63056,0,0,0,1.1103-.291c1.2159-1.1191,2.8194-1.7529,3.6983-3.3222a31.34427,31.34427,0,0,1,2.9248-4.0625c.8789-1.1055,2.0146-2.0274,2.7793-3.1973,1.48041-2.2686,2.6953-4.7109,4.19241-6.9688a21.1791,21.1791,0,0,1,2.76459-2.8671c-1.6328,2.8242-3.1191,5.747-4.9277,8.455a224.1985,224.1985,0,0,1-15.3535,20.1387c-1.5928,1.8867-3,3.9297-4.4893,5.9043-.2354.3125-.4092.8613-.6914.9209a4.14973,4.14973,0,0,0-3.2988,3.1318,4.65948,4.65948,0,0,1-1.5987,1.7539c-8.0498,6.6905-16.0239,13.4786-24.2148,19.9922-4.8081,3.8243-9.88139,7.335-14.99269,10.752-6.1059,4.081-12.3296,7.9932-18.6006,11.8164-3.6709,2.2383-7.5356,4.1602-11.311,6.2275a5.20263,5.20263,0,0,1-5.2427.1289c-1.6846-.8642-3.5952-1.2783-4.9263-2.7978a5.4855,5.4855,0,0,0-1.4204-.8789c-6.4043-3.7295-12.8628-7.3701-19.1914-11.2246-3.1987-1.9473-6.1518-4.2969-9.2378-6.4336-1.3755-.9531-2.7964-1.8418-4.2109-2.7363A171.73674,171.73674,0,0,1,89.792,211.2979c-2.2295-1.9415-4.4951-3.8418-6.6968-5.8145-1.6606-1.4883-3.2539-3.0518-4.853-4.6074a3.25045,3.25045,0,0,1-.4253-.9336,7.34238,7.34238,0,0,1,3.7681-.708c1.3413-.043,2.6982.0478,4.0215-.126a5.66782,5.66782,0,0,1,5.4438,1.9629c3.0908,3.3115,6.6182,6.2168,9.9824,9.2705,3.3125,3.0068,6.5254,6.1416,10.0137,8.9297a94.92271,94.92271,0,0,0,8.2139,5.3594.82342.82342,0,0,0,.4433.1709c1.9619-.1485,3.9224-.3155,6.293-.5118a16.4515,16.4515,0,0,0-1.2974-1.3945c-1.9194-1.5625-3.7929-3.1953-5.8081-4.6269-6.3476-4.5079-11.8725-9.9395-17.4985-15.2715-2.0122-1.9063-4.3198-3.5-6.4741-5.2598a6.11069,6.11069,0,0,1-.9209-1.0566c-4.2241-5.5098-8.5059-10.9766-12.6416-16.5508-2.8062-3.7832-5.4512-7.6904-8.0679-11.6094a2.78252,2.78252,0,0,0-2.71-1.4961c-1.895.0889-3.7973.0225-5.6967.0225-.0049-.1729-.0093-.3467-.0142-.5205h7.0127c-.7324-1.1407-1.1748-1.8301-1.6172-2.5196Zm91.0948,71.9825c.9272.1504,1.852.3164,2.7817.4453,1.0806.1504,2.1851.3554,3.21-.8721-1.4732-.2187-2.7735-.4463-4.083-.5947a1.4748,1.4748,0,0,0-1.8208,1.0996c-.8057-.0742-1.6231-.1641-1.4561,1.3115,1.1758.0576,2.3174.1143,3.8042.1865C162.7705,236.9336,162.0923,236.4951,161.4141,236.0557Zm69.79439-44.5049c.3848-.4483.7686-.8955,1.374-1.6026-2.3779-.3203-4.3965-.6181-6.42179-.8525-.81161-.0937-1.07521.4268-1.01271,1.3838,1.3086.1543,2.63471.2676,3.9433.4853a19.08225,19.08225,0,0,1,2.1699.6241c-2.47549.3007-4.9628-.626-7.4609.0468a45.63887,45.63887,0,0,0,4.7852.959A2.29694,2.29694,0,0,0,231.20849,191.5508ZM175.8892,68.0332c.1538.2852.3271.8262.459.8164,1.3877-.1045,2.7919-.1308,3.9419-1.1709a19.133,19.133,0,0,1,2.3056-1.5683c-.6001.6806-1.2002,1.3623-1.8677,2.1201,1.9976.83,3.4903-.2774,5.084-.7735.0943,1.2129.8277,1.0772,1.5718.6817a20.59247,20.59247,0,0,0,1.8652-1.2696c-.2885.6075-.4882,1.0293-.6948,1.4639,2.3242.8672,4.0156-.0996,5.6587-1.2617-.4385.4932-.8774.9873-1.5005,1.6885.6514.1699.9365.2715,1.2305.3164,4.251.6533,8.55169,1.0801,12.74019,2.0136a60.87427,60.87427,0,0,1,10.437,3.3438,132.78425,132.78425,0,0,1,11.979,5.9619,35.39745,35.39745,0,0,1,7.3575,4.8887,54.83106,54.83106,0,0,1,7.2968,8.5498,74.73017,74.73017,0,0,1,9.251,19.1338,15.04614,15.04614,0,0,1,.6816,3.7588c.09771,1.4629-.4697,2.0879-1.9404,2.1757a17.935,17.935,0,0,1-6.414-.2988c-2.1065-.6328-2.6905-.9726-2.96389-3.0703a46.83779,46.83779,0,0,0-2.14161-9.7764c-1.7012-4.7822-3.7363-9.417-7.48339-12.915-3.71191-3.4658-7.42481-6.9551-11.96581-9.458-3.4009-1.874-6.6299-3.9609-10.22019-5.5889a72.70877,72.70877,0,0,0-14.42681-4.8242,49.626,49.626,0,0,0-15.22359-1.1211c-2.2251.2031-4.4566.8399-6.6553.7217-3.6309-.1963-6.898,1.2197-10.2573,2.0205-2.9605.7061-5.6787,2.4697-8.4649,3.8447-1.5224.751-2.9638,1.6651-4.5185,2.5489-1.4785-.9942-3.0713-2.0401-4.6363-3.1241a31.16726,31.16726,0,0,0-10.2461-4.455,85.31278,85.31278,0,0,0-10.1186-1.7159,39.2002,39.2002,0,0,0-13.3003.9737c-3.0073.6543-5.8369,2.1064-8.8355,2.8281a82.98348,82.98348,0,0,0-16.7309,6.4453c-4.3843,2.1279-8.771,4.2402-12.6538,7.2607a31.81448,31.81448,0,0,0-7.2881,7.8897c-2.479,3.8633-4.6221,7.9453-5.251,12.6533-.272,2.0391-1.1679,3.9932-1.4643,6.0313-.396,2.7216-.3189,2.8095-2.9751,2.747-.627-.0136-1.2471-.2246-1.8755-.2675a21.75391,21.75391,0,0,0-2.7979-.0596c-.4575.0273-.8877.3877-1.3515.456-1.7119.251-2.4107-.6445-1.9458-2.3574.5019-1.8496,1.0039-3.7031,1.4111-5.5742a38.80618,38.80618,0,0,1,7.3965-16.4453c2.3349-2.9111,4.4214-5.9834,7.5444-8.2305,3.4937-2.5156,6.6924-5.4277,10.6812-7.2246,4.872-2.1963,9.7011-4.4873,14.5483-6.7383.3731-.1738.7412-.3584,1.207-.584-1.542-1.2187-2.895-2.289-4.2548-3.3642,1.3857.7422,2.7612,1.5049,4.1626,2.2158.5546.2813,1.2207.7168,1.7456.6152,1.8862-.3652,3.7338-.9296,5.7324-1.455-4.8062-4.4942-7.354-4.7696-12.1206-2.2735q.28335.49365.5664.9854a4.16908,4.16908,0,0,0-3.146-.4981,63.61716,63.61716,0,0,0-16.9038,7.7764c-5.6797,3.6445-10.6177,8.1953-15.4678,12.8203a76.57348,76.57348,0,0,0-6.9395,7.9024,24.51653,24.51653,0,0,0-4.3212,8.7363,88.24514,88.24514,0,0,0-1.7652,8.9199,33.139,33.139,0,0,0,.0459,11.7979c3.25,1.2216,8.1079,1.4365,9.8291.415-1.2783-1.4375-3.0117-.6289-4.4668-.9746-1.5127-.3584-3.0586-.5772-4.5898-.8574,3.0464-.1582,5.9775.6562,8.6172.4609.3535-1.5059.6264-2.666.8613-3.666a6.35643,6.35643,0,0,1,.8389-.1836q11.1459-.126,22.2924-.2383a2.71746,2.71746,0,0,1,1.1836.1191c1.9663.9834,4.0728.5333,6.1187.6622,1.2734.08,2.5513.1015,3.8276.1132,3.6704.0352,7.3438.1524,11.0113.0528,4.54-.1231,9.0737-.5518,13.6137-.6201,3.8301-.0577,7.6641.2666,11.4976.3212q6.3537.0909,12.7095-.0078c3.6616-.0527,7.3256-.3886,10.9819-.3047,12.6948.2891,25.3823.8311,38.0893.4698,7.3448-.21,14.69929-.1075,22.04889-.1016,7.5947.0068,15.1899.1299,22.78321.0772,4.07319-.0284,8.14259-.3838,12.21579-.4707,3.915-.084,7.832-.0254,11.748.0009.8409.0049,1.6797.1367,2.501.208.1817,1.1133.3203,1.9571.4981,3.043,1.1172-.1016,2.123-.1992,3.1308-.2812.9561-.0772,1.9141-.1368,2.8711-.2041,1.8516-.1299,1.8516-.1299,3.0156.3447-1.1953.1308-2.1259.2363-3.0576.3359-1.5107.1592-3.0224.3018-4.5322.4756-.9248.1065-1.543.4766-.998,1.9131,3.0976-.1426,6.31341-.2891,9.5742-.4375.2754-2.1143.2461-3.8057-1.293-5.0674,1.03321-1.167,1-1.165.8731-2.5225a71.603,71.603,0,0,0-4.502-18.3222,43.98931,43.98931,0,0,0-15.543-20.7598,5.61742,5.61742,0,0,1-1.333-.9941c-2.1006-2.9112-5.081-4.502-8.333-5.7168q-3.4629-1.29495-6.91989-2.6133c-1.10741-.4238-2.17681-.957-3.30081-1.3262-1.4375-.4736-2.90619-.8623-4.3745-1.2324-5.3398-1.3467-10.6973-2.625-16.0234-4.0234a5.77351,5.77351,0,0,0-5.9497,1.3593c.3217-.5644.643-1.1289,1.06441-1.8691a24.78727,24.78727,0,0,0-3.04391-.4023c-1.46489-.0088-3.05669-.461-4.25779.874-.2349-.4072-.4537-1.1533-.7071-1.1651-1.5815-.0752-3.2827-.4013-4.372,1.3164-.2344.3692-.731.5723-1.107.8536.2144-.5401.4287-1.0791.8291-2.087-1.5845.2667-2.7607.4649-3.937.6631-1.2329.1348-2.8047-.1621-3.6323.4883-2.0049,1.5781-4.4898,2.7598-5.7515,5.2715C173.9312,69.7842,174.6807,68.1953,175.8892,68.0332Zm4.0659,159.0508a7.73778,7.73778,0,0,0-8.0581,1.9267,19.51263,19.51263,0,0,1-2.0112,1.2891,11.73342,11.73342,0,0,0-1.2002,1.1563c3.2055.6855,4.1269.7011,5.3261.121-.6557-.2539-1.2983-.5019-1.9409-.7519,3.0943.2109,3.6782.1221,5.2788-1.1133-1.2207-.2383-2.2993-.4482-3.3779-.6582,2.3335-.5918,4.938.918,7.0102-1.3535-.4482-.2666-.7749-.4609-1.1142-.6621a5.27537,5.27537,0,0,1,1.7954-.2881,1.62683,1.62683,0,0,0,1.9961-1.0479c-5.1948-1.2539-5.1948-1.2539-6.5801.3604C178.063,226.4121,179.0088,226.748,179.9551,227.084ZM63.6416,184.5947a1.67941,1.67941,0,0,1,1.9151-.9795c2.2954.1905,4.6064.208,6.9126.2471a7.31547,7.31547,0,0,0,1.4882-.2773c-.3911-1.8204-1.4882-2.2832-3.0146-2.2735-1.9873.0147-3.9761-.0791-5.9634-.1406-.9102-.0293-1.8184-.0938-2.9019-.1504.5953,1.3574,1.0811,2.4639,1.5669,3.5713.8213.6807,1.5616,1.7939,2.4781,1.9658a36.16487,36.16487,0,0,0,10.5493.5293c-.6699-1.0478-1.1978-1.875-1.6221-2.539-1.2114-.0684-2.1597-.1817-3.1055-.1661C69.1758,184.4248,66.4087,184.5205,63.6416,184.5947Zm71.8994-54.5088-.0771-.0781c-.3008,1.8223,1.6953,1.6192,2.3296,2.5801a2.76578,2.76578,0,0,1-3.2847,2.2314c.0855.4375.0811.835.1802.8623a11.38765,11.38765,0,0,0,6.9609-.1211c.1655-.0585.1348-.6757.1909-1.0058-.7182-.2373-1.2724-.4199-2.2002-.7266.9815-.5713,1.6133-.9394,2.187-1.2724v-2.3955c-.7954-.4571-2.4531.7998-2.1904-1.377.771-.2988,1.5874-.6152,2.4043-.9316-1.7026-.0977-2.293-1.2246-2.6553-2.7754-.4814,1.0195-.81,1.7148-1.3544,2.8672-.4888-1.1348-.7359-1.708-1.0352-2.4024-.6289.9053-1.1123,1.6016-1.5352,2.211-2.2744-.0372-1.0454-2.3233-2.1772-3.0059-1.9478,1.3477-3.1807,2.9277-2.1274,5.5889.475-.6446.833-1.1299,1.1914-1.6162a7.198,7.198,0,0,1-.0669,2.9003c-.1997,1.2539-.4273,2.5039-.5445,3.7657-.0258.2773.3633.5937.5611.8925.3315-.2519.8603-.4462.9536-.7675a7.08966,7.08966,0,0,0,.3032-2.3614A2.61162,2.61162,0,0,1,135.541,130.0859Zm-69.8359,47.835c1.3501-.0283,2.7314.3535,4.397-.1055-1.3521-1.3203-2.71-1.2939-4.0323-1.4082-1.2998-.1133-2.5962-.2715-3.894-.4101,2.0566-.2881,4.0527.7373,6.2432-.043a7.2495,7.2495,0,0,0-.4385-.9014c-2.957-4.3447-5.9302-8.6748-8.0186-13.5381-1.6689-3.8867-3.4028-7.7441-5.0913-11.622a38.056,38.056,0,0,0-1.8818-4.378c-.5547-.9296-1.4937-2.081-2.4229-2.2529a22.42268,22.42268,0,0,0-9.0229.3721c1.0986,2.7285,2.1377,5.3008,3.1694,7.875.7427,1.8535,1.3237,3.79,2.2412,5.5517a141.98385,141.98385,0,0,0,11.2593,18.9317,2.6603,2.6603,0,0,0,2.1611,1.1943c1.812.1455,3.6065.5078,5.4175.7832H59.8189c.6435,1.5801,1.4541,2.4834,3.1743,2.5098,2.4575.0381,4.9111.293,7.3677.4258a12.59838,12.59838,0,0,0,1.6582-.1426,3.00627,3.00627,0,0,0-3.065-2.3682A28.29045,28.29045,0,0,1,65.7051,177.9209Zm119.4224,45.0625a5.02756,5.02756,0,0,0,4.2788-.9551c6.46189-5.3437,13.09079-10.498,18.935-16.541,1.81941-1.8809,3.4009-3.9902,5.1436-5.9492a2.29245,2.29245,0,0,1,1.3784-.752c1.8169-.1211,3.6426-.1162,5.4663-.1406.8828-.0107,1.8398.2774,2.6397-.6699-2.0977-.7695-4.2901.2773-6.44-1.002a23.00834,23.00834,0,0,1,1.9917-2.1757c5.8184-4.875,10.1504-10.9649,14.1904-17.2911,1.9776-3.0957,3.9424-6.206,5.73831-9.4082,1.18849-2.1191,2.794-4.0634,3.36819-6.7558-2.0215-.291-3.9063-.5567-5.7891-.836-1.041-.1543-1.4433.3653-1.5605,1.4707,1.5605.3496,3.0556.6846,4.9238,1.1036-2.27439.7968-4.7109-1.3926-6.4805,1.457,1.4004.2461,2.49811.4385,3.5977.6308a7.05338,7.05338,0,0,1-2.6484.3282c-1.9747-.0391-1.9971-.0254-2.5997,2.4843h5.8272c.0205.1563.04.3145.0615.4707a3.86148,3.86148,0,0,1-1.168.3614,30.45255,30.45255,0,0,1-3.8125-.2656c-1.4785-.2247-2.2656.3652-3.0878,1.6005-2.7823,4.1836-5.6407,8.3252-8.669,12.335-2.6933,3.5645-5.6626,6.9209-8.4858,10.3887-2.064,2.5361-3.9229,5.2597-6.1602,7.6289-6.9707,7.3769-14.08589,14.6152-22.35349,20.5937a13.36037,13.36037,0,0,0-1.332,1.3086c1.2832.2539,2.2046.4365,3.1406.627-1.0234.0097-2.0542-.0469-3.0693.0517a21.6781,21.6781,0,0,0-2.6499.6241c3.4418,1.8115,5.7109,1.7285,7.1015-.002Q185.86285,223.3438,185.1275,222.9834Zm-87.0064-25.29c-.0322.1328-.064.2646-.0962.3974a20.54307,20.54307,0,0,1,1.7114,1.6133,116.31775,116.31775,0,0,0,14.1646,13.5469c3.6045,3.0234,7.3091,5.9463,11.1309,8.6885,2.354,1.6884,4.5048,3.8164,7.5039,4.4638.2016.043.519.2227.5327.3633.1196,1.2256,1.2622,1.3623,2.0039,1.8633,2.625,1.7724,5.3012,3.4687,7.9648,5.1826,2.2676,1.46,4.5303,2.9277,6.8218,4.3486,1.7046,1.0577,3.4326,1.8399,5.0532-.2002.1743-.2197.5855-.2373.8623-.3916,3.1289-1.7539,6.335-3.3867,9.3604-5.3047,5.3193-3.373,10.5542-6.8808,15.769-10.414,2.3091-1.5645,4.5376-3.2617,6.7027-5.0215,2.1025-1.71,4.142-3.5098,6.0918-5.3926,2.63669-2.5449,5.19179-5.1787,7.72259-7.831,1.4282-1.4971,2.7549-3.0928,4.0933-4.6729.5307-.6269,1.2871-1.1816,1.1152-2.3222-2.5972-.1231-5.1318-.3155-7.6675-.336-1.3384-.0098-2.6767.3848-4.0195.4121-7.82859.1641-15.65919.2539-23.48779.4073-6.9448.1357-13.8882.3525-20.8335.4716-2.9521.0508-5.9092-.1328-8.8603-.0605-1.9078.0459-3.8067.4883-5.7139.5283-3.5884.0742-7.1802-.0088-10.7705-.0371-1.7544-.0147-3.5913.2705-5.2461-.1494-3.1958-.8106-6.3374-.5166-9.5195-.2529-2.4668.2041-4.9366.4501-7.4078.497A47.87928,47.87928,0,0,1,98.1211,197.6934Zm21.3872-6.1094c.0195.2392.0391.4795.0591.7187a7.58357,7.58357,0,0,0,1.9199.5557c4.3716.0791,8.7862.5645,13.0117-1.1035.2168-.086.4893-.2559.6617-.1904,1.3476.5097,2.122-.3721,2.8339-1.21a7.77105,7.77105,0,0,0,1.8116-2.6816,4.38846,4.38846,0,0,0-1.7852-5.0655c-.9492-.6553-1.9336-1.2588-3.0937-2.0088.9741-.7011,1.7744-1.2011,2.4897-1.8047,1.9209-1.6191,2.0029-3.5351-.021-4.9746a9.63121,9.63121,0,0,0-4.2866-1.8525c-3.957-.415-7.9522-.4668-11.9336-.6397-.7695-.0332-1.3911.2042-1.3535,1.1543,2.8716,1.0274,2.5874.2989,2.749,3.6172.2246,4.6045.3232,9.2149.4727,13.7305C121.7319,190.4795,120.6201,191.0322,119.5083,191.584Zm22.4199-20.5225q-.14355.26955-.2866.5391c2.2173.7617,2.4346,2.6445,2.5679,4.416a18.85634,18.85634,0,0,1-.1587,5.7227,15.01338,15.01338,0,0,0,.0933,5.1904c.2168,2.2744,1.7519,3.708,3.3886,5.001,1.3062,1.0332,2.7461.3037,4.1236.0175a9.40459,9.40459,0,0,1,1.394-.3369c1.082-.0517,2.168-.0166,3.3638-.0166-.0747.626-.1294,1.0889-.19,1.5967,2.3643-.3301,3.273-.6338,3.9942-1.6963,1.2627-1.8633,3.0439-3.5869,2.0478-6.2285a2.87553,2.87553,0,0,1,.0845-1.1836,25.95708,25.95708,0,0,0,.502-5.2236c-.2759-2.7276.9262-4.7237,2.4516-6.6944a4.25121,4.25121,0,0,0,.3374-.8261h-8.4238c-.291,1.1728.0674,1.7265,1.3008,1.5371,1.3764-.21,1.771.5429,1.9873,1.7539.6552,3.6709.2275,7.3613-.1597,10.9658-.3603,3.3584-1.874,5.1143-5.6396,5.3369a5.04858,5.04858,0,0,1-5.5874-4.4765c-.3072-4.043-.1055-8.125-.0455-12.1895a1.4984,1.4984,0,0,1,1.399-1.6387c.726-.1006,1.5898-.4648,1.1904-1.5664Zm41.2056,4.6699a24.43447,24.43447,0,0,0-.3164-3.1455,2.12481,2.12481,0,0,0-1.0337-1.2011,9.65166,9.65166,0,0,0-12.2349,2.6787,4.97625,4.97625,0,0,0,1.0054,6.7676c1.9561,1.3789,3.9981,2.6464,5.8809,4.1171a6.72348,6.72348,0,0,1,1.7695,2.4414,2.36378,2.36378,0,0,1-1.6938,3.4532c-1.5123.3457-3.1016.4209-4.3018-.7637a25.53815,25.53815,0,0,1-2.6729-3.2891c-.4311-.5996-.6962-1.2832-1.9331-.666.3711,1.6973.6827,3.4844,1.1919,5.2129a2.04637,2.04637,0,0,0,1.3311,1.1651c3.9443.7822,7.8135.6123,11.3301-1.5831a5.378,5.378,0,0,0-.1724-9.2714c-1.3047-.7696-2.6826-1.4161-4.0361-2.1016a6.26544,6.26544,0,0,1-3.2271-3.3828,2.84129,2.84129,0,0,1-.0791-1.8145,3.32758,3.32758,0,0,1,4.9019-1.6074,13.27148,13.27148,0,0,1,2.3491,2.2852C181.6675,175.5596,181.9639,176.3018,183.1338,175.7314Zm-35.6206-8.5136.312.498H166.582a15.153,15.153,0,0,0,.7872-5.4238c-.8072,1.0078-1.2608,1.5322-1.6675,2.0908a4.06264,4.06264,0,0,1-3.2798,1.7119,25.68747,25.68747,0,0,1-4.2988-.2051c-.521-.0722-1.3287-.6171-1.3921-1.0371-.3599-2.4043-.8506-4.8359-.2325-7.332,2.521-.2441,4.8624-.5371,6.4024,2.3145.8945-2.2159.5688-4.043.498-5.9512-.3159.1445-.4907.168-.5698.2676a4.40711,4.40711,0,0,1-5.2241,1.5371c-.5225-.21-1.2026-.7735-1.2671-1.2481-.2847-2.1035-.5679-4.2578.7031-6.3984a18.89663,18.89663,0,0,0,3.3262.2412,4.07719,4.07719,0,0,1,4.7505,3.0264c.022.0644.2778.0478.561.0888.5884-1.5039-.0483-2.872-.3413-4.165-2.8511-.1543-5.541-.3848-8.2344-.4258-2.6982-.041-5.4116-.9746-8.372.2578a1.57664,1.57664,0,0,0,.9472.709,3.48952,3.48952,0,0,1,2.044,3.7266c-.1465,3.9844-.416,7.9638-.6343,11.9453-.0884,1.6133-.7383,2.7197-2.4834,3.0049C148.21,166.5156,147.8755,166.9521,147.5132,167.2178Zm-30.103-.791.1513.4375a6.757,6.757,0,0,1,2.5713.2968c2.1411,1.2325,4.3931.3946,6.5777.5791.2885.0244.6298-.5683,1.2397-1.1591-2.5815-.4073-3.5249-1.961-4.1948-3.7305-.9302-2.4551-1.7681-4.9443-2.6929-7.4014q-1.47735-3.9228-3.0561-7.8066a13.97587,13.97587,0,0,0-1.0982-1.8252c-1.9028,1.5137-3.6572,2.6719-4.2251,5.0117a46.45964,46.45964,0,0,1-1.9409,5.3867c-.9883,2.6113-2.1011,5.1826-2.9482,7.8379-.3345,1.0488-.6578,1.7109-1.8008,1.8555-.687.0859-1.461.2402-1.2598,1.2734,3.6265.4981,5.3814.4473,7.2158-.293-.8169-.5273-1.5039-.9707-2.3418-1.5107.1441-.8389.2959-1.6904.4366-2.543.1948-1.1816.812-2.413,1.8652-2.5673,1.8428-.2676,3.7793-.8038,5.6499.0302a.34232.34232,0,0,1,.1772.1563c.6114,1.6689,1.9815,3.082,1.8233,4.9892C118.7617,165.8086,118.086,166.1182,117.4102,166.4268Zm11.9101-19.9063c1.9419,2.2139,1.9234,2.2139,1.9834,5.499.0523,2.876.1397,5.753.2398,8.628.039,1.1132.1006,2.2314.2505,3.3339.2153,1.5801.1914,1.7559-1.4131,2.0254-.9619.1631-1.4854.4483-1.1377,1.8252,1.7763-.1045,3.5801-.2744,5.3852-.2978,1.7159-.0215,3.4336.1113,5.1504.1758.0625-.2061.125-.4112.1875-.6172-.811-.4864-1.622-.9737-2.5434-1.5274-.3203-2.5088-.6499-5.0937-.9825-7.7031,2.8838-1.0215,5.3399-1.2246,6.8736,1.9414.959-1.7461.897-3.3535-.0923-5.6914-1.978,2.0273-3.4312,2.3477-6.1148,1.2959v-7.0068c3.8365-1.6856,5.3926-1.2578,7.649,1.9746.3232.4629.7436.8594,1.3896,1.5937a5.70491,5.70491,0,0,0-.313-4.5556C140.3862,146.8086,135.0733,145.5107,129.3203,146.5205Zm74.48729,9.2451a15.47713,15.47713,0,0,1-2.8911-5.4385c-.8262-2.1093-.81-2.1152.5918-3.9746-2.7905-.0498-5.4014-.1367-8.01069-.1035-.4278.0059-.8482.5449-1.272.836.335.3711.6357,1.0136,1.0112,1.0605,1.40869.1768,2,1.1133,2.58109,2.2168a51.93152,51.93152,0,0,0,3.416,6.0469,10.19487,10.19487,0,0,1,1.6514,6.3281c-.0035,1.5293-.0738,2.8945-1.97559,3.2959-.31941.0674-.53131.6436-.793.9844.35839.2568.70559.5322,1.08159.7607a.93436.93436,0,0,0,.4726.0215c2.23-.1221,4.4629-.209,6.688-.3945a10.56737,10.56737,0,0,0,2.145-.7227c-.5884-.5117-.7925-.8467-1.0293-.8711-1.8476-.1933-2.0708-1.4121-1.9541-2.914.05521-.7149.0327-1.4375.021-2.1582a9.05138,9.05138,0,0,1,1.981-6.0137c1.2925-1.6231,2.51221-3.3145,3.646-5.0527.9067-1.3916,1.894-2.5391,3.6841-2.6573.0747-.0049.1333-.249.1987-.3818-2.5283-1.0664-6.4658-.9219-7.7022.2842,1.2554.9912,1.3741,1.0527.7935,2.1894-1.04689,2.0498-2.2398,4.0264-3.4067,6.0127C204.59379,155.3623,204.23539,155.4775,203.80759,155.7656ZM102.8174,150.7158c.9102-3.2304.7998-3.1992-1.854-4.4297-2.8638-1.3271-5.314-.3769-7.6792,1.0489-3.4107,2.0556-4.2617,5.9257-.4805,8.8134,1.5225,1.1631,3.0777,2.292,4.5161,3.5537a9.99989,9.99989,0,0,1,2.1026,2.5567,2.5172,2.5172,0,0,1,.0302,1.9726,4.01241,4.01241,0,0,1-5.0664,1.9981,6.71337,6.71337,0,0,1-3.2685-2.6846c-.6665-.9082-1.0903-2.0908-2.6211-2.79.331,1.8291.5644,3.3105.875,4.7744a2.348,2.348,0,0,0,2.1064,1.7129,41.54,41.54,0,0,0,4.4766.706,7.67076,7.67076,0,0,0,7.5772-3.5273,4.83894,4.83894,0,0,0-.0591-6.1699,13.57877,13.57877,0,0,0-5.0542-4.294,12.41251,12.41251,0,0,1-2.939-2.0224,2.271,2.271,0,0,1-.0483-3.4219c2.1201-2.1602,4.184-1.9893,6.3291.4336A10.84037,10.84037,0,0,1,102.8174,150.7158Zm71.1001,16.1699a33.465,33.465,0,0,0,10.5078.21c-2.6382-.6553-2.4932-2.8398-2.8603-4.7002a10.78291,10.78291,0,0,1-.2349-2.3789q.1194-4.05465.353-8.1055c.1968-3.4414.6441-3.789,4.0586-3.664a2.50448,2.50448,0,0,1,2.4849,1.4922,10.67256,10.67256,0,0,0,.8647,1.2929c.9722-1.6875.4824-3.041.0088-4.4404-6.0815-.2061-12.0547-.4102-18.0273-.6025a14.48886,14.48886,0,0,0-1.4756.123c-.2417,1.5088-.48,2.9981-.7183,4.4863,1.5327-.7011,2.1646-2.4453,3.9507-2.2168,1.522.1934,3.1045-.705,4.3643.0274-.1446,4.1308-.4009,8.0244-.3741,11.916.0171,2.5244-.1626,4.7666-2.7729,5.9912C174.0049,166.3359,174.0112,166.459,173.9175,166.8857Zm-2.293-31.6669v-6.043c-.8437-.6309-1.6694-.9258-1.8408-1.4395-.4263-1.2754,1.0898-1.2949,1.8384-2.1963-.4829-.3037-.8657-.7236-1.2964-.7793-.8633-.1123-1.771.0889-2.6279-.0449-2.7867-.4355-4.9854.1944-6.253,2.9678a15.93469,15.93469,0,0,1-1.2866,1.7207,9.69419,9.69419,0,0,0-.6045,1.6094c.8789-.3028,1.4029-.4824,1.9966-.6875.5024,1.3076,1.0186,2.4238.231,3.8418-.5982,1.0781-.1812,1.4013,1.6167,1.3916-.1162-2.3018-.2852-4.5996-.3057-6.8975a2.36253,2.36253,0,0,1,.812-1.5273c.6157-.5508,1.3081-.4844,1.6445.1523a11.4292,11.4292,0,0,0-1.0752,8.3477C167.0303,135.4863,169.3765,135.3496,171.6245,135.2188ZM106.5044,122.959a5.99156,5.99156,0,0,0-.7661,1.1767,2.01126,2.01126,0,0,1-2.291,1.627,3.329,3.329,0,0,0-1.1758.2021c-1.2349.377-1.0674,1.0694-.4961,1.9629,1.4834-1.3974,1.9673-1.33,3.0981.5196-1.1147.4277-2.186.8388-3.3183,1.2734.5308.5107,1.4834,1.1367,1.3931,1.3887-.5484,1.5273.7749,2.0644,1.3652,2.8076-.1094,1.2139-3.145.6113-1.3228,2.7705a6.68176,6.68176,0,0,0,1.2896-.3613c1.9785-.9864,3.8901-1.8076,6.0356-.253.815.5909,1.48.0694,1.5992-.8847-.8599-.4444-1.6436-.8506-2.2359-1.1563.1997-2.3877,3.4663-2.6767,2.6362-5.4912-1.6176.0781-3.2504.1563-5.123.2451.0552-.5283-.084-1.2402.1899-1.4795,1.5127-1.3222,3.2476-.5263,4.941-.1728.4638-1.1475.3618-1.9541-.9126-1.8945C109.4141,125.334,107.6279,125.1035,106.5044,122.959Zm16.9419,7.7236c-.0493-.1972-.0977-.3945-.147-.5928,1.4204-.1035,3.0074.0977,3.7505-1.7236-1.6103-1.4443-3.2251-2.8926-4.9341-4.4248-1.9614,1.6563-3.8872,3.2813-5.8755,4.96,1.0874,1.9629,3.3238-.4463,4.3428,1.2177.0825,1.3243-2.6533.0762-1.79,2.0528.7109.2832,1.4306.5703,2.1504.8584-.0147.2031-.0298.4062-.044.6093q-2.10345.61965-4.2065,1.2393.0351.2769.0713.5518c3.3633.3603,6.7256.7568,10.2138.0713-.8774-1.8106-2.687-1.3438-4.3735-2.1055,1.1914-.5654,2.0064-.9512,3.2207-1.5264C124.7564,131.3369,124.1011,131.0098,123.4463,130.6826Zm59.3408-1.4853c1.147,1.3173.5469,1.9463-.0405,2.4472-1.2173,1.0371-2.5059,1.9903-3.7739,2.9864-.8091-1.9278-.8091-1.9278-2.9458-1.5791-.0547,2.2802.938,2.9687,4.8681,3.333.2325-.75.4688-1.5147.7051-2.2793.1699-.0108.3399-.0225.5098-.0332.3291.8222.6577,1.6455,1.0415,2.6064,1.4267.5918,2.4829-.5957,3.4761-1.458a1.44374,1.44374,0,0,0-.2725-2.0273c-.9419.6416-1.8149,1.2363-2.8506,1.9414-.3892-1.1973-.5469-1.8828.6284-2.1465a1.5347,1.5347,0,0,0,.8091-.6524,18.57465,18.57465,0,0,1,1.2954-2.164,4.05,4.05,0,0,0,.563-4.0684c-.3276-1.124-1.708-.9336-2.7256-.9707-1.0571-.039-2.1167-.0088-3.1753-.0088,4.565,1.5166,4.565,1.5166,4.1978,3.5645-.8765-.7364-1.627-1.3672-2.4556-2.0635a7.08274,7.08274,0,0,1-5.0063.5703c-.6382-.1553-1.6084-.3994-2.0591.832a8.03185,8.03185,0,0,0,5.748.1055c-.2055,1.2627-.3628,2.2266-.5195,3.1914.0938.0313.188.0625.2817.0938C181.6079,130.7373,182.1294,130.0566,182.7871,129.1973Zm7.9395-3.0371c0,.5878-.1631,1.1259.0259,1.3183,1.3964,1.418,3.3686,1.6817,5.18349,2.294-.121,1.4296-.2304,2.7246-.3374,3.9814-2.14739.2647-2.435-1.1562-2.57659-2.707a10.33606,10.33606,0,0,0-2.6538,4.4922c-.0254.1279.2827.3222.5381.5947.6318-.749,1.2163-1.4424,1.7934-2.127a8.67743,8.67743,0,0,0,8.92729.9463c-1.2627-.0742-1.9937-.1347-2.7256-.1552-1.8023-.0499-1.8545-.1143-1.5542-2.1446q1.02826-.30615,2.06051-.6123-.00871-.20655-.01661-.416-1.24365-.3135-2.4868-.6309c-.0391-.1562-.07859-.3144-.1177-.4716.8623-.4893,1.7242-.9795,2.6797-1.5225-2.1474-1.6016-4.59859-.7744-6.90669-1.4219a1.70242,1.70242,0,0,1,1.9917-.8047c2.02049.3204,4.31979-.3388,6.042,2.1465.18941-1.25.3003-1.9785.4458-2.9394h-3.8213c-.6734-.8633-1.3648-2.2119-2.5088-.3242-.10739.1777-.57859.1523-.88429.1875C192.8765,125.9492,191.9273,126.0391,190.7266,126.1602ZM40.8765,132.4609c-.0142-.1796-.0283-.3613-.0425-.542,3.0586-.1054,6.126.8633,9.2129.1163-.3443-1.4063-.3418-1.4629-1.3638-1.5069-1.7568-.0752-3.521-.0117-5.2744-.123-1.1509-.0733-2.2886-.3516-3.6924-.5801.1577,1.7988.2871,3.2754.4092,4.666,2.2476.9131,6.4707,1.1182,10.2944.5615-.1518-2.0205-.164-2.0576-1.9555-2.1699C45.936,132.7227,43.4058,132.5996,40.8765,132.4609Zm201.23629,25.9932c-2.1592.7393-4.4355-.5488-6.9727.7793,2.5762,1.1416,5.0088.8047,7.3321,1.6133.9346-2.043,1.8047-3.9463,2.8379-6.2051-2.6485-.1582-4.8418-.2949-7.0352-.418-.9375-.0517-1.2305.5118-1.2441,1.4981q2.7216.54195,5.4551,1.0879c-2.0333.4521-4.0157-.3037-5.9571.1455-.0137.1943-.0263.3887-.039.583Q239.30079,157.99515,242.11279,158.4541ZM123.814,227.5791q-.09675.3735-.1934.7461a33.25144,33.25144,0,0,1,3.7569,2.4434c2.9785,2.541,6.0854.9082,9.478.8105-1.6099-1.7393-1.6074-1.71-3.3198-1.5654-1.7676.1494-3.5411.2334-5.3116.3457-.0058-.1006-.0122-.2012-.0185-.3018,1.6875-.2168,3.375-.4355,5.3027-.6836a6.46213,6.46213,0,0,0-.6416-.8271C129.999,226.1865,126.8496,227.6631,123.814,227.5791Zm28.1797-99.2939c-.0767.1562-.1538.3105-.231.4668.5396.4394,1.0791.8789,1.9312,1.5722-1.1939.416-2.0601.7188-3.4932,1.2188,1.5112.5078,2.4434.8213,3.2559,1.0937.6113,1.2051-.3575,2.6563,1.205,3.8496.2222-1.4892.3999-2.6816.5689-3.8144.9331-.2598,1.7143-.4766,3.1855-.8858-2.5527-.8193-1.9497-2.3584-1.6806-3.8466-.7012.5615-1.1968.9589-1.7222,1.3798-1.4136-2.0713.98-2.6377,1.2978-4.2295-1.7651-.1562-3.3959-.3007-5.3159-.4707.2246.9981.3736,1.6602.4546,2.0196.5879-.2637,1.189-.7735,1.5142-.6348,1.1914.5068.687,1.5547.6323,2.5879C152.9815,128.4736,152.4878,128.3789,151.9937,128.2852ZM95.2417,64.791c.2402.5332.2637.7276.3711.8008,1.7056,1.1719,3.4058,2.3516,5.1489,3.4658a2.01058,2.01058,0,0,0,1.3389.2666c1.0454-.207,2.0625-.5576,3.4028-.9394-1.6655-1.4453-3.0215-2.6465-4.4131-3.8047a1.34559,1.34559,0,0,0-.8872-.2237C98.627,64.4697,97.0542,64.627,95.2417,64.791Zm149.96879,86.586h-5.0371c1.1308.2353,2.6416.5488,4.416.9169-2.4121.7959-4.6055-.7109-6.877.1758,1.2442,1.1875,4.9297,1.7813,7.8809,1.3574.373-1.1816.7636-2.4257,1.2978-4.123-2.956.2148-5.417-1.0234-8.4443-.1484C240.71239,151.3018,243.19679,150.0674,245.21049,151.377Zm8.5058-18.3223c3.4307-.1895,6.73241-.3731,10.1367-.5615v-2.4678c-3.455.25-6.7539.4902-10.1367.7353Zm10.1211-6.0293c-3.34669.2012-6.5029.3916-9.8086.5898-.0898.8106-.16109,1.459-.2676,2.4248,3.3047-.2236,6.3164-.3574,9.3086-.665C264.2827,129.252,264.15479,128.2578,263.83739,127.0254ZM40.624,135.8359c-.1499,1.2276.3306,1.5264,1.2588,1.7979,3.127.915,6.2534.4316,9.4243.4033-.434-1.8144-.6328-2.1162-2.2885-2.1738C46.2588,135.7656,43.4932,135.8359,40.624,135.8359Zm194.69579,50.0459c-2.0039-.2382-3.9482-.5058-5.9013-.6787-.71779-.0635-1.4991.0518-1.3135,1.3408,1.6562.2403,3.3564.4864,5.0576.7334a16.76518,16.76518,0,0,1-4.2978-.1123c-.8926-.082-1.959-.3964-2.3204,1.1211.7305.2051,1.3887.4444,2.0684.5645a17.603,17.603,0,0,0,2.377.2441C233.83939,189.2051,234.02689,189.0615,235.31979,185.8818ZM41.457,129.3125a18.81881,18.81881,0,0,0,8.4639.2988c.2632-1.1406-.1411-1.7597-1.0976-1.8613-3.0386-.3223-6.084-.584-9.0611-.8633-.3647,1.1817-.1186,1.6895.8999,1.5967.6758-.0615,1.3482-.1543,2.1524-.249C42.3457,128.6074,41.9966,128.8848,41.457,129.3125Zm19.3536,31.7588h7.5556c-1.9785-1.7715-4.415-.9473-6.6611-1.1152q.0147-.31935.0298-.6368,2.79495-.0879,5.5898-.1738a9.81653,9.81653,0,0,0-6.5942-.8115c-.4209-.5303-.7813-.9824-1.1411-1.4346q-.23295.1539-.4654.3086C59.6821,158.4873,60.2402,159.7646,60.8106,161.0713Zm76.2587,75.5625c1.6031,1.2031,5.4317,1.1992,7.731.1855-3.6255-2.9004-6.897-3.3496-10.1567-1.3144,2.4355,1.5644,4.9633-.4805,7.3823.6582C140.4492,236.3125,138.8726,236.4619,137.0693,236.6338ZM110.5288,67.752c-1.0586-.961-1.8457-1.7032-2.6611-2.4131-2.1441-1.8653-2.6182-1.9248-5.5474-.71C104.5855,66.499,106.457,69.0566,110.5288,67.752Zm17.2237.7539c-1.1265-1.4034-2.0347-2.46-2.8584-3.5791-1.0166-1.3799-2.3184-1.7647-4.2037-1.2959,1.3003,1.7207,2.5127,3.3261,3.6836,4.875Zm135.91689,64.8486c-3.3222.1572-6.3242.2725-9.3222.4795-.3447.0244-.6543.5664-.98049.8691.07619.1367.15239.2735.22659.4102h9.9375C263.57959,134.5,263.61479,134.0566,263.66939,133.3545ZM123.3906,68.2266c-1.0776-1.3692-1.9546-2.459-2.8042-3.5703-1.123-1.4698-2.5385-1.5469-4.4741-1.0206,1.1577,1.2676,2.1328,2.2842,3.0488,3.3526C120.1958,68.1934,121.4976,68.3838,123.3906,68.2266Zm-.9448,158.9033c1.3062-.0723,2.4136-.1045,3.5156-.2022,1.1119-.0976,2.2178-.2588,3.8057-.4511-3.0454-2.6084-5.8691-1.1153-9.0269-1.3145C121.604,226.1592,122.1074,226.7402,122.4458,227.1299ZM111.4859,63.6797c1.2788,1.124,2.3876,1.9805,3.3515,2.9766,1.0606,1.0966,2.189,1.2832,3.8696.7382-.996-1.0703-1.8266-1.9043-2.5883-2.7968C114.9234,63.1982,113.4868,63.1201,111.4859,63.6797ZM229.437,184.6396c1.9502.1885,3.7481.4063,5.55371.5196a1.52947,1.52947,0,0,0,1.85449-1.6504c-1.7148-.2481-3.3564-.5059-5.0049-.7139C230.73189,182.6553,229.76909,182.8438,229.437,184.6396ZM133.8316,69.6211c-1.7066-4.5283-2.9922-5.6572-5.7085-5.1025C129.9898,66.4258,130.9697,69.0469,133.8316,69.6211ZM79.7124,191.5576q.11055-.2886.2212-.5762c-.5054-.3222-.9941-.8857-1.519-.9218-1.4869-.1016-2.9883.0058-4.4834.0449-.7173.0176-1.438.0351-2.1504.1152-.71.0801-1.4112.2403-2.1162.3653C73.0059,192.0557,76.3721,191.5352,79.7124,191.5576Zm27.8921-127.665c4.3623,4.4004,4.2871,4.1347,6.7949,3.1953C112.4028,65.5723,110.9863,63.251,107.6045,63.8926ZM51.3652,139.7461c.0127-.2168.0259-.4336.0386-.6484-3.4131-.1875-6.8266-.3731-10.5425-.5762.3072.5596.4122,1.0039.5879,1.0332A26.98562,26.98562,0,0,0,51.3652,139.7461Zm201.64019-2.8184c2.0742.4737,8.5156.5391,9.5146.0879.294-.1328.4698-.5293.7676-.8867C260.28659,135.6309,254.49759,136.0254,253.00539,136.9277ZM77.9258,188.7041c-.6494-.3193-1.0244-.6523-1.4175-.6738-3.103-.1778-6.2095-.2979-9.3154-.418-.1035-.0039-.2144.1816-.4263.375.3638.4648.7334.9375,1.0064,1.2871C71.0986,187.9756,74.4312,189.9521,77.9258,188.7041Zm53.8369,44.1523c-.0493.1739-.0991.3467-.1484.5196.7275.3261,1.4692.9511,2.1792.9179,1.8813-.0908,3.7485-.4668,5.6499-.7324C137.9277,231.8096,137.2647,231.7529,131.7627,232.8564Zm-6.9033-168.957c2.0537,1.7588,2.7515,4.5088,5.6572,4.9834-.8574-1.417-2.1352-2.5488-2.8506-3.9639C127.0459,63.6924,126.3926,63.543,124.8594,63.8994Zm114.76319,83.6611q-.05565.30615-.1123.6143c2.1767.3174,4.3515.6563,6.5322.9424.8144.1064,1.4424-.1192,1.20021-1.4326C244.72709,147.876,242.188,147.0996,239.62259,147.5605Zm8.8066-1.7558c-2.9609-.2695-5.6211-.5908-8.5098.1709C242.59909,147.1211,246.85689,147.1104,248.42919,145.8047Zm4.7051-7.4766c.0039.1836.0068.3682.0098.5528,2.872.2089,5.7451.4755,8.5937-.5528Zm-23.793,55.3272c-2.2324-.3682-4.4248-1.2559-7.18359-.583C225.25729,194.2861,227.80419,194.5029,229.34129,193.6553ZM140.169,238.2236c-.0079.1993-.0157.4004-.0235.6016h7.0752c.0025-.2236.0054-.4473.0078-.6699A22.88765,22.88765,0,0,0,140.169,238.2236ZM57.0054,152.1533c2.271-.0312,4.5874.625,6.812-.3066A11.98765,11.98765,0,0,0,57.0054,152.1533Zm112.9453,82.3184c-4.7275-1.2617-4.7275-1.2617-5.4106.0693C166.2344,234.6377,167.8682,235.6963,169.9507,234.4717Zm2.4165-1.5576c-3.667-.9698-4.6826-.9502-5.7485.1884C168.543,233.1982,170.2871,234.3682,172.3672,232.9141ZM57.9888,153.5146c-.0098.211-.0195.4239-.0293.6348a18.236,18.236,0,0,0,6.4057-.1152c-.0034-.1729-.0068-.3457-.0097-.5196ZM141.895,72.543c-.9004-1.835-1.4116-3.9864-3.8178-4.9805C139.2178,69.5205,140.0816,71.373,141.895,72.543Zm-5.3364-2.2188c-.6509-1.6787-1.3018-3.3574-3.5068-4.5508C134.042,67.8994,134.897,69.4219,136.5586,70.3242Zm2.2002,1.1592c.1685-.1162.3369-.2334.5054-.3496-.8438-1.669-1.7368-3.2998-3.6314-4.1709Q137.1958,69.22175,138.7588,71.4834Zm36.936,54.2705a7.5962,7.5962,0,0,0,4.3433.2568C178.3125,125.1143,177.0747,124.3574,175.6948,125.7539Zm-.2754-61.2676q-.30975-.2958-.6206-.5908-1.43115,1.563-2.8632,3.1279c.1274.1241.2539.2481.3808.3711Q173.86845,65.94145,175.4194,64.4863ZM147.7573,133.041c-1.3984.8799-1.3984.8828-.3711,2.5528C147.4976,134.8262,147.6113,134.0449,147.7573,133.041Zm12.9112,106.6787a3.56505,3.56505,0,0,0-3.7627-.5644C158.1665,240.1123,159.2974,239.9678,160.6685,239.7197ZM148.8941,136.1992c.7407-.5322,1.3466-.7363,1.4506-1.0879.2564-.8672-.2334-1.4189-1.0859-1.6992C149.1538,134.2168,149.0659,134.8877,148.8941,136.1992Zm-3.9126-66.7295q-.28275.12315-.566.2451.6687,1.4796,1.3374,2.9561.21615-.09075.4317-.1816Q145.58325,70.979,144.9815,69.4697Zm26.9658-4.665c-1.8023.0898-2.4595.8008-2.9961,2.4453C170.1021,66.3105,170.8555,65.6953,171.9473,64.8047Zm4.6391,66.1523c1.7002,1.1797,1.7002,1.1797,2.9141.1368C178.3223,131.0381,177.4546,130.9971,176.5864,130.957ZM163.8228,70.6348c1.6113-.918,1.6113-.918,2.0747-2.4297C165.127,69.1074,164.4751,69.8711,163.8228,70.6348Zm4.4135-1.166q-.21015-.2433-.4209-.4864-.8547.77055-1.7104,1.5391c.1147.1308.2295.2637.3442.3945Q167.34275,70.1939,168.2363,69.4688ZM60.6392,125.6699c.5722-.0273,1.1445-.0547,1.9419-.0918C61.4556,124.8887,61.4556,124.8887,60.6392,125.6699Zm84.7158,67.835c.7959.2539,1.5581.7129,2.2988,0Zm76.208-65.2354v.1211h2.1904v-.1211ZM65.2402,155.7432c-.0043-.1446-.0087-.2901-.0131-.4356q-1.35435.06735-2.708.1328c.0029.1016.0058.2022.0083.3028Zm89.3272,37.331c-.0034-.1963-.0068-.3916-.0103-.5869-.5073.041-1.0146.0801-1.5224.1211.0054.1309.0107.2617.0166.3926C153.5567,193.0264,154.062,193.0498,154.5674,193.0742Zm23.3398-63.2119c-.0009-.0762-.0014-.1523-.0019-.2285q-1.16745-.05715-2.335-.1133c.0015.1143.003.2275.0039.3418ZM65.7339,157.2021c-.0005-.0527-.0005-.1054-.001-.1582H64.21c0,.0528.0005.1055.0005.1582Zm78.293,83.6114c.0381-.0645.0761-.128.1137-.1914q-.4467-.31065-.894-.6201c-.0586.0927-.1167.1855-.1753.2783Q143.5489,240.54685,144.0269,240.8135Zm68.40819-53.0469q-.16335-.1992-.3277-.3965-.42253.45705-.8452.9131c.0894.0869.1797.1729.2696.2588Q211.98359,188.1553,212.43509,187.7666Zm-11.2657-6.8672c.1148.1465.2295.291.3438.4356q.4416-.40575.8828-.8135c-.0727-.0889-.1455-.1787-.21829-.2676Q201.67384,180.5776,201.16939,180.8994Z"/><path class="a" d="M65.4014,164.1963c-.7417.1465-1.4834.292-2.5767.5078.8447-1.4531,1.7388-.8418,2.4829-.9756Z"/><path class="a" d="M70.2627,164.0068c-.8872,1.5157-2.0405.0762-3.0522.0664h3.1079Z"/><path class="a" d="M167.0933,95.748c-2.791,3.6524-7.0142,5.1036-10.0025,8.2784,1.2754,3.499,3.979,6.7138,4.4395,11.3886-3.729-2.1572-7.0098-4.0556-10.3218-5.9726a108.35292,108.35292,0,0,1-10.2881,7.2275q-.1992-.1509-.3984-.3008c.1694-.5507.311-1.1113.5122-1.6494q1.675-4.478,3.3779-8.9443a2.09078,2.09078,0,0,0-.4414-2.3389c-1.6572-2.124-4.0864-2.9756-6.2397-4.29-.7066-.4317-1.4204-.8516-2.1309-1.2774.0337-.1767.0674-.3545.1011-.5322.6543-.1377,1.3027-.3193,1.9634-.4033,2.6875-.3457,5.3755-.6875,8.0688-.9756a2.26528,2.26528,0,0,0,2.0669-1.6543c.9771-2.5107,2.0801-4.9726,3.3027-7.8555a9.25952,9.25952,0,0,1,1.3311,1.5743c.2705.5595.2519,1.2509.4839,1.8369,1.9897,5.0078,2.7334,5.5644,8.1816,5.872C162.9771,95.8379,164.8657,95.748,167.0933,95.748Zm-11.3907,7.5831c-.2402-.0674-.4682-.1426-.7016-.1944a4.60974,4.60974,0,0,1-3.9019-4.7822c.0054-1.5947.1319-3.1885.1685-4.7842.0298-1.291.0063-2.583.0063-3.875q-.24525-.0468-.4902-.0937c-1.0303,2.3808-2.061,4.7597-3.1538,7.2851-2.5962.2559-5.438-.2949-8.4214,1.3379,4.0151,1.207,7.6235,2.291,11.2056,3.3682-1.1172,2.0176-2.1802,4.1142-3.4092,6.1093-1.252,2.0323-2.6665,3.9659-4.0098,5.9424.0987.1094.1968.2188.2954.3272,2.8057-2.0205,5.6114-4.042,8.3653-6.0254-.1914-1.7783-.3599-3.3389-.5279-4.9014.1392-.0283.2784-.0566.4175-.0859q3.8028,4.47075,7.6055,8.9424c.1299-.0811.2598-.1612.3896-.2422C158.2905,108.9473,157.041,106.2354,155.7026,103.3311Zm6.4639-6.0372q-.0717-.2328-.1435-.4638c-2.1841-.2276-4.3682-.4551-6.6885-.6953-.4155,1.0273-.8042,1.9882-1.1929,2.9492q.20145.21675.4028.4336Q158.3553,98.40715,162.1665,97.2939Z"/><path class="a" d="M201.54439,65.1592q-.59385.43215-1.187.8642c-.0708-.0888-.1416-.1777-.2119-.2656q.56175-.49365,1.124-.9863Q201.40719,64.96485,201.54439,65.1592Z"/><path class="a" d="M58.8721,172.5771q2.7063.38385,5.4126.7667c-.0088.0751-.0171.1503-.0254.2255q-2.72025-.25485-5.4414-.5097C58.836,172.8994,58.854,172.7373,58.8721,172.5771Z"/><path class="a" d="M134.4849,185.4482a6.61816,6.61816,0,0,1-1.7534,4.5811,2.64038,2.64038,0,0,1-4.5923-.9658,30.1667,30.1667,0,0,1-.6226-5.6778,1.4026,1.4026,0,0,1,.6519-1.1484,10.00608,10.00608,0,0,1,3.6474-.6621c1.2325.1289,1.9336,1.3076,2.3438,2.4834A11.12374,11.12374,0,0,1,134.4849,185.4482Z"/><path class="a" d="M129.0029,172.3174c2.3448-.0615,4.854,2.3105,4.8169,4.5019-.0337,1.9854-3.291,3.9893-5.0796,3.0606a1.92523,1.92523,0,0,1-.9306-1.2403c-.2056-1.6582-.2861-3.3359-.3418-5.0078C127.4326,172.5908,128.1314,172.2803,129.0029,172.3174Z"/><path class="a" d="M112.3804,158.042c.4101-1.002.8325-1.9209,1.1626-2.8711.2998-.8652.4995-1.7637.7759-2.7656,1.0903.9941,1.5859,2.1484,2.3906,5.3066A3.45857,3.45857,0,0,1,112.3804,158.042Z"/><path class="a" d="M166.0347,134.2441a3.03827,3.03827,0,0,1,0-3.6865Z"/><path class="a" d="M168.1953,133.7705c-1.1455-1.0674-.6645-2.2275-.3071-3.6396C169.0025,131.4082,168.4951,132.5938,168.1953,133.7705Z"/><path class="a" d="M170.4541,130.6182c.0464.9248.0933,1.8486.1485,2.9384C169.5742,132.5186,169.5742,132.5186,170.4541,130.6182Z"/><path class="a" d="M108.1729,132.1035c-1.1079.5137-1.8951.4961-2.5498-.4433C107.103,130.6777,107.103,130.6777,108.1729,132.1035Z"/><path class="a" d="M135.541,130.0859c.1734-.4023.2427-1.0214.5406-1.164a1.52914,1.52914,0,0,1,2.1694.3808c-.7354,1.1133-1.9126.3653-2.7866.7051Z"/><path class="a" d="M124.1743,128.5488h-4.2856c.9497-1.0703,1.5664-1.7656,2.3931-2.6972C122.9512,126.8047,123.438,127.499,124.1743,128.5488Z"/><path class="a" d="M193.3443,63.752q-1.2291,1.106-2.4581,2.2128c-.0961-.1035-.1928-.205-.2895-.3076q1.2114-1.15275,2.4228-2.3076Q193.1821,63.5518,193.3443,63.752Z"/><path class="a" d="M185.9033,67.3965l1.9937-1.7549Z"/><path class="a" d="M187.8003,65.7207q1.12275-.747,2.2456-1.4971Q188.92315,64.97225,187.8003,65.7207Z"/><path class="a" d="M182.5225,66.1992q1.1235-.747,2.247-1.4941Q183.646,65.4521,182.5225,66.1992Z"/><path class="a" d="M175.7988,68.1191q1.06275-.75585,2.1255-1.5107Q176.86155,67.36275,175.7988,68.1191Z"/></svg>