<svg xmlns="http://www.w3.org/2000/svg" viewBox="0 0 300 300"><defs><style>.a{fill:none;}.b{fill:#fff;}.b,.c{fill-rule:evenodd;}</style></defs><title>gl_nav14</title><rect class="a" x="8.26068" y="9.4521" width="281.83599" height="281.8355"/><path class="b" d="M110.44288,185.7476c-1.0098,1.2602-1.6201,2.1543-2.3604,2.9238a13.96266,13.96266,0,0,1-17.7392,2.1929c-1.4512-.9834-2.82228-2.0884-4.3057-3.0152a4.32474,4.32474,0,0,0-2.1572-.6338c-6.5469-.0424-13.0938.0347-19.6407-.0322-3.833-.0391-7.6728-.1636-11.4941-.4575-3.6553-.2808-7.2891-.833-10.93358-1.2603-1.665-.1948-3.36132-.2382-4.99022-.5908-4.0645-.8789-8.2139-.9346-12.3184-1.4004-4.7012-.5332-7.2617-3.3979-8.27338-7.6128a35.51369,35.51369,0,0,1-1.10942-12.0649c.2422-2.2793.1152-2.5708-1.3574-4.2012,1.5996-.4263,1.6152-1.6797,1.63382-2.9663a177.6575,177.6575,0,0,1,2.59368-26.6782c1.2237-7.3164,2.3428-14.6519,3.6475-21.9541,1.04882-5.876,2.3047-11.7153,3.5361-17.9077-1.5615-.5479-3.2471-1.2051-4.9775-1.7007-.4375-.125-1.0371.2319-1.5371.4287-1.4619.5752-2.8711,1.4033-4.6778.8384-.457-1.3877.3575-2.4322,1.0196-3.4654,1.2441-1.9394,2.5351-3.8588,5.0234-4.5659,1.3555,1.7139.3184,3.3775-.0703,5.2759,1.4258.5283,2.7978,1.0371,3.998,1.4819,3.73342-2.9287,4.2793-7.188,5.73642-10.9482,1.64158-4.2373,2.86718-8.6411,5.17768-12.6021a33.43187,33.43187,0,0,1,1.915-3.0258,3.606,3.606,0,0,1,1.3077-.9009,55.38219,55.38219,0,0,1,15.9492-4.8545c3.289-.5508,6.4648-1.7334,9.7295-2.4644,5.0556-1.1318,10.1045-2.4262,15.2295-3.0927A193.65855,193.65855,0,0,1,98.564,48.9404c3.69528-.1025,7.42668.6968,11.125,1.2105,5.39638.75,10.52538,2.5346,15.68358,4.2026,3.3378,1.0791,6.7656,1.8862,10.082,3.0195,4.5293,1.5474,8.9707,3.3472,13.4892,4.9253,2.6299.918,5.3663,1.5328,8.0069,2.4244,11.1972,3.7797,22.375,7.6206,33.5654,11.4213,6.3506,2.1573,12.6807,4.3882,19.0811,6.3863,5.7099,1.7817,11.5195,3.2368,17.25682,4.9336,4.51558,1.3354,8.97658,2.8579,13.48238,4.2285q8.81985,2.6829,17.6758,5.2495c5.2861,1.5322,10.59282,2.9883,15.8897,4.4814.3076.087.6084.1988.9082.3091a3.91,3.91,0,0,1,2.9531,4.0386c.0224,4.2978.2353,8.6006.5244,12.8906.2939,4.3814.7568,8.751,1.1777,13.1226.4053,4.2129.9766,8.4145,1.22372,12.6357.10928,1.8736-.48252,3.7783-.60942,5.6782-.2617,3.8941-.4307,7.7945-.6279,11.6929-.0801,1.5928-.1621,3.1865-.1924,4.7813a1.7489,1.7489,0,0,1-1.3711,1.7514c-1.751.5064-3.5235.9507-5.3086,1.3164-2.72658.5591-5.47358,1.024-8.209,1.5425a2.95811,2.95811,0,0,0-2.0762,1.6875c-1.5468,2.5947-3.1767,5.3018-6.27238,6.312a45.92373,45.92373,0,0,1-6.92872,1.5943,18.36849,18.36849,0,0,1-4.3106.0088,5.72665,5.72665,0,0,1-5.4443-5.5674c-.0469-.5386-.1123-1.0757-.1826-1.7442a22.04821,22.04821,0,0,0-6.6993.0938q-6.517.939-13.039,1.8472c-2.208.3105-4.4209.5927-6.627.9179-5.9961.8843-11.997,1.7427-17.9834,2.6929-4.5674.7246-9.1162,1.5605-13.667,2.3848a8.08411,8.08411,0,0,0-1.6279.7236,3.14713,3.14713,0,0,0-3.3828-.1934,12.3712,12.3712,0,0,1-3.48338.3311c-.51662,1.1626-1.18752,2.6001-1.79692,4.0625a12.44062,12.44062,0,0,1-3.62108,4.9907c-1.23732,1.0073-2.44922,2.0625-3.77542,2.9409a6.82128,6.82128,0,0,1-2.83,1.1944c-4.18558.4682-8.3731,1.3125-12.6075.3183a11.58021,11.58021,0,0,0-3.0664-.3872c-3.9228.1607-6.916-1.6177-9.4091-4.4072-1.3272-1.4854-2.5225-3.0899-3.7374-4.6719a2.22053,2.22053,0,0,0-2.0576-.9067q-6.08925.2241-12.18258.3335C115.019,185.7861,112.47408,185.7476,110.44288,185.7476Z"/><path class="c" d="M110.59418,186.9448c-1.0097,1.2603-1.6201,2.1543-2.3603,2.9239a13.9639,13.9639,0,0,1-17.7402,2.1928c-1.4502-.9834-2.8213-2.0884-4.30468-3.0151a4.33045,4.33045,0,0,0-2.15822-.6338c-6.5469-.0425-13.09378.0347-19.6397-.0322-3.833-.0391-7.6728-.1636-11.49508-.4575-3.65432-.2808-7.28912-.8331-10.93362-1.2603-1.6641-.1948-3.3603-.2383-4.9902-.5908-4.0645-.8789-8.2129-.9346-12.3174-1.4004-4.7022-.5332-7.2617-3.398-8.2744-7.6128A35.51145,35.51145,0,0,1,15.272,164.9937c.24218-2.2793.11418-2.5708-1.35842-4.2012,1.5996-.4263,1.6152-1.6797,1.6347-2.9663a177.41376,177.41376,0,0,1,2.5938-26.6783c1.2236-7.3164,2.3428-14.6518,3.6465-21.9541,1.0488-5.8759,2.3047-11.7153,3.5371-17.9077-1.5625-.5478-3.2481-1.205-4.9785-1.7007-.4375-.125-1.03618.232-1.5371.4288-1.461.5752-2.8702,1.4033-4.6778.8383-.457-1.3877.3584-2.4321,1.0205-3.4653,1.24322-1.9394,2.53422-3.8589,5.0225-4.5659,1.3555,1.7139.3184,3.3774-.07028,5.2759,1.42578.5283,2.79878,1.0371,3.998,1.4819,3.73438-2.9287,4.27928-7.188,5.73638-10.9482,1.6425-4.2373,2.8671-8.6412,5.1777-12.6021a33.44314,33.44314,0,0,1,1.916-3.0259,3.59276,3.59276,0,0,1,1.3066-.9008,55.37471,55.37471,0,0,1,15.9502-4.8545c3.28812-.5508,6.4649-1.7334,9.7295-2.4644,5.0557-1.1318,10.1035-2.4263,15.2285-3.0928a193.68,193.68,0,0,1,19.5674-1.5527c3.6953-.1025,7.4268.6968,11.1241,1.2104,5.3964.75,10.5253,2.5347,15.6845,4.2027,3.3369,1.0791,6.7647,1.8862,10.08112,3.0195,4.52928,1.5474,8.97068,3.3472,13.49018,4.9253,2.6299.918,5.3652,1.5327,8.0059,2.4243,11.1972,3.7798,22.375,7.6206,33.5664,11.4214,6.3496,2.1572,12.6797,4.3882,19.0801,6.3862,5.7109,1.7818,11.5195,3.2369,17.2578,4.9336,4.51562,1.3355,8.9765,2.8579,13.4824,4.2285q8.81835,2.6829,17.6758,5.2496c5.2851,1.5322,10.5918,2.9882,15.8886,4.4814.3086.0869.6094.1987.9082.3091a3.909,3.909,0,0,1,2.9532,4.0386c.02342,4.2978.2363,8.6005.52542,12.8906.29288,4.3813.75578,8.751,1.17768,13.1225.40432,4.2129.9766,8.4146,1.2227,12.6358.1093,1.8735-.4825,3.7783-.60938,5.6782-.26172,3.8941-.42972,7.7944-.627,11.6929-.08012,1.5928-.16212,3.1865-.19332,4.7812a1.748,1.748,0,0,1-1.3711,1.7515c-1.75.5063-3.5235.9507-5.30858,1.3164-2.72662.5591-5.47272,1.0239-8.209,1.5425a2.96,2.96,0,0,0-2.07622,1.6875c-1.5469,2.5947-3.17578,5.3017-6.2715,6.312a45.92184,45.92184,0,0,1-6.9296,1.5942,18.363,18.363,0,0,1-4.3106.0088,5.72506,5.72506,0,0,1-5.4434-5.5674c-.0468-.5385-.1132-1.0756-.1835-1.7441a22.04824,22.04824,0,0,0-6.6993.0937q-6.51555.939-13.039,1.8472c-2.2071.3106-4.42.5928-6.627.918-5.9961.8843-11.9961,1.7427-17.9824,2.6929-4.5684.7246-9.1172,1.5605-13.668,2.3847a8.08526,8.08526,0,0,0-1.6269.7237,3.14752,3.14752,0,0,0-3.3828-.1934,12.38276,12.38276,0,0,1-3.4844.3311c-.5156,1.1625-1.1875,2.6-1.7969,4.0625a12.44185,12.44185,0,0,1-3.6211,4.9907c-1.2363,1.0073-2.4492,2.0625-3.77538,2.9409a6.81992,6.81992,0,0,1-2.83012,1.1943c-4.1855.4683-8.373,1.3125-12.6064.3184a11.57828,11.57828,0,0,0-3.0674-.3872c-3.9219.1606-6.916-1.6177-9.4082-4.4072-1.3271-1.4854-2.5234-3.0899-3.7373-4.6719a2.22142,2.22142,0,0,0-2.05758-.9068q-6.09093.22425-12.18362.3335C115.16938,186.9834,112.62448,186.9448,110.59418,186.9448ZM96.40768,127.248c-.8398.253-.67668.9502-.7178,1.5757q-.1713,2.625-.37788,5.2481c-.37892,4.9336-.93072,9.8603-1.10162,14.8008-.2089,6.0708-.08,12.1528-.1406,18.2295-.0234,2.3911-.2656,4.7822-.2275,7.1704.042,2.7124.2969,5.4209.4365,8.1318.041.8052.3428,1.75-1.0273,2.2446-.2442-4.5415-.48248-8.9448-.7266-13.4873-1.2725.3184-2.1816,1.6587-3.4404.6382-3.8116.2544-7.6201.5689-11.4346.7412a52.64219,52.64219,0,0,1-6.9395-.0801,15.89235,15.89235,0,0,1-3.8837-1.1591c-.8506-.3086-1.3663-.9947-.878-1.8897,1.3262-2.4399,2.7364-4.8345,4.1192-7.2583,2.29.1138,4.5498.5454,6.7197.27a146.96965,146.96965,0,0,1,16.0801-1.5293c.0644-1.3188.15432-2.5815.1826-3.8457.1016-4.5508.0605-9.1089.3076-13.6518.2256-4.1431.833-8.2637,1.1338-12.4048.65332-9.0034,1.0684-18.0264,1.86332-27.0166.68158-7.7149,1.75578-15.3945,2.65618-23.0903.1641-1.4058.4903-2.689,2.2305-2.8111a29.33359,29.33359,0,0,1,.5742-3.1797,21.17147,21.17147,0,0,1,1.1563-2.6172c-1.5-.2216-2.9746-.4394-4.625-.6835-.2041.9062-.375,1.5834-.5078,2.268q-1.29945,6.6921-2.5801,13.3877c-.23828,1.2495-.4082,2.5127-.65628,3.7603-.63672,3.1958-1.51362,6.3598-1.90232,9.584-.6192,5.1528-.957,10.3408-1.3408,15.519a11.167,11.167,0,0,1-2.0918,5.0229c-.5078.8291-.9912,1.6734-1.6534,2.7969-1.4902-.0815-2.4453,1.1782-3.3515,2.5454a14.88553,14.88553,0,0,1-1.3711,1.6626c-2.8672,3.2071-5.7285,6.4195-8.6289,9.5957a4.83649,4.83649,0,0,1-1.8545,1.4341,69.18172,69.18172,0,0,1-8.7432,2.4815c-5.01948.9043-10.0927,1.5297-15.1582,2.1425a56.52549,56.52549,0,0,1-6.9326.3228c-1.9893-.0059-3.9775-.2583-5.9678-.3706-4.1386-.2339-8.2773-.4741-12.41788-.6563a3.4677,3.4677,0,0,1-3.64262-2.7817,7.11543,7.11543,0,0,0-.8213-1.5181c-.1904.0288-.3818.0576-.5723.0865-.2197,1.538-.5341,3.0698-.6416,4.6157-.3789,5.4189-.6953,10.8427-1.0019,16.2661a1.87174,1.87174,0,0,0,.3242,1.3223c1.542,1.4389,1.2754,3.374,1.43752,5.1469a3.64207,3.64207,0,0,1-.68562,2.4268,3.7898,3.7898,0,0,0-.7851,3.1279c.1523,1.1875.3535,2.3696.4805,3.5591a9.5196,9.5196,0,0,0,9.0937,8.3569c3.4922.1221,6.9649.774,10.4473,1.1758,2.0215.2329,4.0469.4395,6.15822.6675.623-3.5405-.09182-6.8262.41208-9.981a22.59721,22.59721,0,0,1,2.8555-.3681c3.33.0175,6.6738-.7041,9.9882.3789,2.042.6675,2.2159.7016,2.45322,2.914.07808.7149.10448,1.4356.15128,2.1534.1338,2.0503.26572,4.1005.4053,6.2544,2.4248.1792,4.7188.4453,7.0186.5009a209.24289,209.24289,0,0,0,25.872-.6767c1.0391-.104,1.88482-.2686,1.9893-1.523.0049-.0522.2627-.084.5264-.1616.1943.4541.3945.9209.6152,1.4385,10.793-.9527,21.5742-.0679,32.3857-.9107.1768-3.2231,1.1016-6.1533.5235-9.0717-5.6866.3408-11.1778.6977-16.6729.9921-5.4687.2935-10.9131,1.4649-16.4267.5582,11.07032-1.4957,22.2802-1.4205,33.4541-3.004.0849-2.7133.166-5.1855.23922-7.6577.07128-2.3935.05178-4.7934.22268-7.1801.1689-2.3736.5254-4.7334.7998-7.0992.2099.0176.4209.0352.6318.0528-.1709,3.5317-.3662,7.063-.5039,10.5962-.1416,3.643-.2275,7.289-.3408,11.0424a15.32453,15.32453,0,0,0,1.8262.0899c5.332-.4165,10.65822-.9053,15.9941-1.2569a2.58492,2.58492,0,0,0,2.6016-2.2495c.6699-2.3818,1.4433-4.7363,2.2382-7.0796a29.46616,29.46616,0,0,1,9.7051-14.2583,7.68184,7.68184,0,0,1,8.9239-.4384,9.75067,9.75067,0,0,1,4.7402,7.6504c.3867,4.5249.4902,9.0737.7226,13.6118.02352.4448.10552.8867.1524,1.2534,3.3965-.4224,6.6328-.9131,9.8887-1.2119,7.5488-.6929,15.1289-1.1157,22.6582-1.979,8.5605-.981,17.082-2.3037,25.61522-3.5137,5.28708-.75,10.56638-1.5669,15.81838-2.3491.246-.7959.4101-1.3174.5664-1.8418.8496-2.8247,1.65822-5.6621,2.5664-8.4678a7.80564,7.80564,0,0,1,1.2363-2.3057c1.0918-1.4209,2.3711-1.6157,3.6934-.393a7.7658,7.7658,0,0,1,1.9668,2.9092c1.8769,5.1088,2.02532,10.4712,2.07032,15.8349.00778.8584.00188,1.7173.00188,2.7813,2.1934-.5117,4.1113-1,6.0488-1.4009,2.4161-.5,4.8848-.7842,7.2598-1.4268,2.416-.6538,2.4336-.8847,2.5391-3.354.1445-3.3476.2285-6.6997.4765-10.0395.2012-2.7002.6211-5.3838.9063-8.0781a8.10357,8.10357,0,0,0-.082-1.6661c-.2422-2.4638-.5332-4.9243-.7442-7.3906-.3066-3.561-.5605-7.1264-.8164-10.4306a18.77245,18.77245,0,0,0-3.7793-.6543,33.26394,33.26394,0,0,1-10.3594-.6866,3.81613,3.81613,0,0,0-1.1894.0269,14.52492,14.52492,0,0,1-2.3203.1479c-3.2539-.3261-6.502-.7177-9.75-1.0986-7.7657-.9111-15.5352-1.8105-23.2969-2.7534-3.7266-.4527-7.4336-1.0654-11.1621-1.4766-5.4746-.6035-10.9668-1.062-16.4453-1.6347-9.8516-1.0303-19.70508-2.0367-29.543-3.1729-6.8203-.7876-13.6152-1.7856-20.4238-2.6714-3.3516-.4355-6.709-.8301-10.2227-1.2632-.4092-4.0249-.7285-8.1425-1.2695-12.2319-.6465-4.8999-1.45508-9.7793-2.2432-14.6597q-1.3125-8.1276-2.7236-16.2392c-.1826-1.0567-.2881-2.0308.7148-2.8921,1.4981.4751,3.00492.9722,4.5235,1.4302q7.91013,2.38695,15.8291,4.7504c7.042,2.0992,14.0654,4.2662,21.1377,6.253,6.6894,1.8794,13.4453,3.5146,20.1484,5.3467,7.0039,1.9155,13.9766,3.9555,20.9707,5.9057q8.30565,2.31525,16.6328,4.544c7.8633,2.1123,15.7364,4.1914,23.6035,6.2934.5391.1436,1.0547.374,1.5879.541a4.63724,4.63724,0,0,1,3.5352,4.315c.207,2.2529.4375,4.5034.6582,6.7549.5508-2.8946-.1856-5.7969.168-8.7154,5.00392.354,9.5253,1.2256,13.5332,4.0699.1152-2.4082-1.0196-3.8208-3.4668-4.5127-5.0684-1.4322-10.1563-2.795-15.2032-4.3023-9.0136-2.6929-17.998-5.4863-27.0019-8.2114-9.3086-2.8169-18.6602-5.4981-27.9297-8.4346-7.2266-2.2895-14.3516-4.9013-21.5352-7.3291q-11.22645-3.7932-22.4804-7.5024c-5.7598-1.8946-11.5547-3.6812-17.3106-5.5865-2.5752-.852-5.06048-1.9819-7.64448-2.8007-5.09572-1.6143-10.21882-3.1421-15.35352-4.6255-5.7598-1.6641-11.5518-3.1738-17.6494-2.378a1.06376,1.06376,0,0,1-.6827-.0585c-1.8222-1.3194-3.625-.1856-5.6005-.1451,1.1357.6197,2.0459,1.1914,3.0166,1.6289a4.25684,4.25684,0,0,1,2.5732,3.7398,14.092,14.092,0,0,1-.8398,6.5532,15.57722,15.57722,0,0,0-.4405,2.0132c1.5723.1167,2.8731.2134,4.166.3091.89362-3.7583,1.7178-7.2266,2.5752-10.8335a23.03808,23.03808,0,0,1,3.3252.0234c4.168.6602,8.25,1.855,12.5059,1.9678a3.64945,3.64945,0,0,1,2.8145,1.5351,14.11516,14.11516,0,0,1,2.8115,7.5064c.3115,2.4531.3818,4.9355.5927,7.4023.7032,8.1983,1.5704,16.3858,2.0928,24.5953.5322,8.3627,1.001,16.747.9951,25.122-.0039,6.9346-.7382,13.8692-1.1484,20.8037a41.98362,41.98362,0,0,1-4.1445,16.3584c-1.3506,2.7295-3.9141,4.1543-6.3565,5.5406-1.5156.8603-3.4736.9282-5.2187,1.4004-5.16018,1.395-10.3135,2.8149-15.4698,4.2246a2.02876,2.02876,0,0,1-2.7929-1.917c-.0449-.7124.0644-1.4341.084-2.1519.0488-1.7563.1132-3.5127.123-5.2695q.02928-6.1041.0059-12.2085a4.40275,4.40275,0,0,0-.1563-2.1055,5.89143,5.89143,0,0,1-.5097-3.7134c.2695-5.0239.5273-10.0483.8154-15.0713.0459-.7934.2217-1.58.3174-2.3896q.7998-7.84785,1.5996-15.6953c.5488-5.3145,1.1191-10.626,1.6621-15.9404q.72945-7.13685,1.414-14.2784c.0625-.6504.0088-1.3125.0088-1.9692a18.552,18.552,0,0,0-1.2509,4.9771q-.99765,8.18115-1.8897,16.375-.55512,5.1123-.95208,10.2412-.5655,7.1484-1.002,14.3061A7.35186,7.35186,0,0,0,96.40768,127.248Zm-15.2724,1.1265c1.2939-1.6318,2.7236-3.439,4.1572-5.2427a7.95954,7.95954,0,0,1,1.52152-1.8227,8.04659,8.04659,0,0,0,3.43938-6.2925c.6192-5.6782,1.0684-11.3755,1.5703-16.8711-1.7011.5938-3.2656,1.7051-4.6133,1.4858a60.33515,60.33515,0,0,0-6.89638-.456c-2.52352-.1216-2.69242-.3628-2.45712-2.915q.835-9.066,1.6875-18.1304a6.12486,6.12486,0,0,0-.3965-3.3745c-1.0126,2.4643-2.9121,2.458-4.71088,2.4262a22.97235,22.97235,0,0,1-3.76762-.6171c-2.1875-.4122-2.68938-1.0166-2.7363-3.1949-.0205-.9365.3223-1.6582,1.334-1.5752q3.90525.3216,7.793.8379a28.20765,28.20765,0,0,1,3.2617.8408c.1894-1.4311.332-2.5029.4834-3.6406.9697-.102,1.8213-.1914,2.6201-.2754,1.9004-4.1235,1.9004-4.1274,6.5762-3.9511.8769.0332,1.7519.1479,2.6298.1645,1.4942.0278,2.9893.0073,4.5928.0073a13.40015,13.40015,0,0,0,.6055-7.7749,4.10671,4.10671,0,0,0-2.2774-3.2085,13.52423,13.52423,0,0,0-4.5839-1.0966,57.95007,57.95007,0,0,0-8.3086.7045c-2.6778.3965-5.3145,1.0748-7.9649,1.6475-5.3017,1.1455-10.6552,2.1025-15.88378,3.519-4.31542,1.169-8.56152,2.5499-13.01852,3.1124a9.69282,9.69282,0,0,0-2.0703.5839,22.57758,22.57758,0,0,1-4.2149,1.5601c-2.4219.352-3.6094,1.8769-4.4355,3.8643-4.8115,11.5869-9.2569,23.2778-11.1319,35.7944-.8505,5.6782-2.08688,11.2983-3.1318,16.9477-.5039,2.7217-.9727,5.4497-1.5898,8.9161,2.3994-1.8521,4.5332-.9849,6.6308-.9795,6.8692.018,13.7412.1504,20.6074.0014,5.1856-.1123,10.3614-.646,15.5459-.8842,4.5469-.2085,9.0997-.3003,13.6514-.3736C77.29538,128.0854,78.94088,128.2622,81.13528,128.3745Zm95.7001-47.8437c-13.9179-4.3702-27.98038-8.3711-42.3476-12.5918.1787,1.3852.28322,2.3125.4209,3.2348.3066,2.0459.6357,4.0879.94632,6.1328q.57417,3.78225,1.13278,7.5669c.1289.8658.24222,1.7334.3711,2.5992q.6093,4.13445,1.2285,8.268c.2715,1.8125.6641,3.6143.80962,5.4361a31.35192,31.35192,0,0,0,1.38768,8.437c.7529,2.0654.5937,2.1352,2.7168,2.4175,8.1406,1.0825,16.2793,2.1826,24.4238,3.2465,2.9902.3911,5.9922.6997,8.9219,1.0381C178.77688,112.3438,178.72408,89.541,176.83538,80.5308Zm35.7305,39.2046c-.0605-.7251-.0937-1.1094-.125-1.4937-.4238-5.2471-.7793-10.5015-1.29688-15.7397-.42772-4.3116.76568-8.75-1.23822-13.1026-10.125-2.9971-20.5489-5.8369-31.0196-8.5054.168,11.9956.334,23.7334.5039,35.6578C190.29438,117.4565,201.32178,118.9609,212.56588,119.7354ZM125.98,118.8325c-.22272-13.0014.21478-26.1421-1.44732-39.1367-6.1396-.7686-12.0049.2427-17.8926.3823-1.37108.0323-1.7636.6519-1.916,1.8628-.4385,3.4795-.9453,6.9507-1.45508,10.4214-.29882,2.0513-.73042,4.0859-.96872,6.144q-1.18365,10.221-2.2637,20.4541a29.06819,29.06819,0,0,0,.0352,7.6729C108.769,124.0146,117.28168,121.4517,125.98,118.8325ZM238.63618,97.0649c-8.7363-2.2973-17.5859-4.6245-26.36718-6.9336a124.71978,124.71978,0,0,0,2.07038,29.9087c8.7773,1.0572,17.3691,2.0923,26.0859,3.1426,0-3.0415.123-5.7397-.03128-8.4219-.19722-3.4238-.65032-6.832-.93162-10.2519C239.26318,102.1016,240.20458,99.6108,238.63618,97.0649Zm-61.7851,76.0557v8.2036c2.4082-.1264,4.5722-.0766,6.6855-.3823,6.6309-.9585,13.23242-2.1196,19.8633-3.0762,10.9043-1.5737,21.8184-3.0703,32.7363-4.5527,3.4727-.4717,6.9785-.707,10.4473-1.2114,2.9102-.4234,2.89452-.5567,3.0527-3.4639.0567-1.0283.291-2.0464.4102-3.0732a14.593,14.593,0,0,0,.0078-1.4825c-1.8164.3213-3.3711.6455-4.9395.8628-2.8378.3931-5.6894.6831-8.5253,1.0894-2.6875.3847-5.3536.9057-8.0391,1.292-4.6582.6694-9.3262,1.2768-13.98828,1.9175-2.21292.3042-4.41412.7148-6.63482.9213-6.6757.6197-13.36318,1.1333-20.039,1.7481C184.24168,172.2485,180.60688,172.7056,176.85108,173.1206Zm64.0332-75.561c-.6367,8.9106,1.125,17.2187,1.084,25.8784,7.0273.5713,13.6211,2.144,20.6992,2.0483-.10548-2.0561-.1289-3.8706-.3028-5.6714-.3535-3.6445-.9843-7.2734-1.1386-10.9243-.2168-5.1216-1.3535-6.0747-5.5547-7.2676-1.9942-.5664-4.02538-.997-6.02538-1.5488C246.81588,99.293,243.99948,98.4565,240.88428,97.5596Zm-115.667,29.4048c-5.0342,1.4628-9.5908,2.7866-14.3291,4.164,0,1.7969.0801,3.4668-.0137,5.1265-.5068,8.917-1.0664,17.8315-1.5791,26.7485a27.611,27.611,0,0,0,.1475,2.9087c4.9765-1.6001,9.3164-3.6724,12.5674-7.5015a5.58655,5.58655,0,0,0,1.2568-2.7187c.2793-2.1284.25392-4.2954.4092-6.4424.3213-4.4448.0986-8.9092.96872-13.3423C125.19088,133.1309,125.03558,130.2173,125.21728,126.9644Zm-25.0391,7.5585c-2.0674,11.6392-1.4678,22.7984-1.7871,34.0674,3.3506-.6655,6.4404-1.2793,9.376-1.8618a288.602,288.602,0,0,0,1.1445-35.1626C105.77288,132.6289,102.87648,133.6094,100.17818,134.5229Zm-21.206-36.8544a12.2048,12.2048,0,0,0,1.9004.3984c1.9882.0552,3.9795.0923,5.9668.0547,2.5585-.0479,3.01562-.354,3.25-2.7871.621-6.4219,1.13862-12.8535,1.6543-19.2852A14.22384,14.22384,0,0,0,91.603,73.187a2.4411,2.4411,0,0,0-3.57612-2.1494c-.3301.123-.7764.3979-.9942.2798-1.6133-.8755-3.1933-.1499-4.7812-.1236C79.93118,79.8604,79.67918,88.647,78.97218,97.6685Zm184.9609,8.9585c.2188,5.746.42192,11.332.6445,16.9169.0645,1.6192.6192,2.233,2.3789,2.2803,2.9473.0801,5.9004.022,8.8457.022.6309-.7261,1.2481-1.4356,1.8985-2.1841-.1973-1.645-.4746-3.3013-.5742-4.9687-.1036-1.7461-.0039-3.5035-.0508-5.2544-.084-3.1553-1.3613-5.5303-4.9082-6.4956a15.43658,15.43658,0,0,0-2.2793-.7149C267.98778,106.0278,266.03268,105.3662,263.93308,106.627Zm-100.8535,83.0712c1.2207-1.852,2.4551-3.1816,3.0703-4.7534a26.03744,26.03744,0,0,0,.7188-17.7729,6.5321,6.5321,0,0,0-2.8731-3.688,2.91739,2.91739,0,0,0-4.0957.4663c-1.8027,1.8994-3.6582,3.7974-3.4746,6.7573a3.25371,3.25371,0,0,1-.4981,1.3252c-2.1865,4.8257-1.0449,9.3667,1.3594,13.6939.8106,1.4609,2.1621,2.6919,4.1367,2.0429C162.90968,187.2817,162.66158,188.4194,163.07958,189.6982ZM148.939,174.7324c-6.62992.4829-12.90042.9395-19.39072,1.4121-.2089,3.1451-.4111,6.1997-.6132,9.2403,5.1757.8291,16.7666.1274,19.16792-1.0957C148.37448,181.1738,148.644,178.0991,148.939,174.7324Zm-56.16022-4.4248c0-1.8613.0264-3.2881-.00878-4.7134a7.5475,7.5475,0,0,0-.25972-2.7978c-.57128-1.2759-1.7002.0503-2.5567-.2368a1.82248,1.82248,0,0,0-.706-.0806c-3.0127.2402-6.0411.3643-9.0313.7759-3.0918.4267-6.126,1.5156-9.3437.2329-1.2051,2.2134-2.3379,4.2939-3.5039,6.4341a7.58694,7.58694,0,0,0,4.5654,1.3208c2.29392.0259,4.5928.0053,6.8828-.1089C83.33738,170.9077,87.855,170.604,92.77878,170.3076Zm-71.6601-30.2231c.3007.3789.5019.8769.8496,1.0176a10.95774,10.95774,0,0,0,2.0908.4658c4.4131.831,8.8818.769,13.3467.8823,3.9853.1016,7.9638.6294,11.94922-.0186,1.81248-.2949,3.63568-.5249,5.45018-.81,3.46582-.544,6.9306-1.0889,10.3896-1.6782a12.35811,12.35811,0,0,0,2.0137-.7813C56.90768,138.0786,24.68508,138.7197,21.11868,140.0845Zm42.2792-82.9121c-2.6503-.5059-17.5781,2.9931-19.7626,4.4995C50.40968,61.0269,56.56788,58.7358,63.39788,57.1724Zm30.5508,14.1699V84.8242c.0557.0078.1114.0161.166.0244.77932-4.396,1.5586-8.7924,2.3682-13.3637C95.58738,71.4346,94.90768,71.3965,93.94868,71.3423Zm-36.7773,107.956c-.0283-2.5068-.4258-2.81-3.0098-2.4218C54.53268,178.5117,56.44478,178.0205,57.17138,179.2983Zm200.2383-12.7675c-.2305-.0079-.4629-.0157-.6934-.024q-.1611,1.52565-.32228,3.0513c.19338.0244.38478.0493.57818.0737Q257.19193,168.08125,257.40968,166.5308Zm-83.0645-10.1182c.55082,1.0317-1.1973,2.4873.5156,3.9199C174.644,158.6899,174.49558,157.5513,174.34518,156.4126Zm-2.0176,1.106c-.5703-1.9371-.5703-1.9371-1.72458-1.9795.29688.5073.54888.9907.85738,1.4331C171.57958,157.1411,171.83348,157.2153,172.32758,157.5186Zm-71.0019,34.5839c2.3242-.0571,2.3242-.0571,2.7305-1.6118C103.144,191.0293,102.34518,191.501,101.32568,192.1025Zm14.3672-26.5976c.0742.1421.1474.2847.2207.4267q1.46475-.7683,2.9277-1.5371c-.0586-.1142-.1182-.2285-.1777-.3427Q117.17813,164.77825,115.69288,165.5049Zm-80.4317-28.355c.0127.1807.0254.3604.0371.5405q1.4181-.12,2.837-.2407l-.0206-.2998Zm39.4746-83.9214c-.0156.1558-.0312.3111-.04778.4663q1.16457-.175,2.32708-.3496c-.0058-.0737-.0127-.1474-.0195-.2217Q75.86623,53.1763,74.73578,53.2285ZM16.78658,164.4282c-.0771.0064-.1543.0132-.2304.0196v2.6362c.1171-.0054.2324-.0103.3496-.0156Q16.84713,165.74855,16.78658,164.4282Zm102.8067-104.604q.0204-.1845.041-.3691-1.07085-.12315-2.1406-.2456c-.01568.1362-.0313.2724-.045.4092Q118.521,59.72115,119.59328,59.8242ZM47.90378,181.9048q.2871.12525.5733.25.4116-.8709.8232-1.7427-.3252-.1428-.6504-.2861Q48.27788,181.0158,47.90378,181.9048ZM98.603,117.2642l.26958.0966c-.0332-.6718-.0645-1.3437-.0977-2.0156-.043.0327-.08688.0654-.17188.1289ZM49.38818,185.8677c-.001-.1055-.002-.211-.002-.3169h-1.6113c.002.1059.002.2114.0029.3169Zm73.082-108.6856c.586.7979,1.126,1.1084,1.5703-.0913C123.40478,77.1274,122.937,77.1548,122.47018,77.1821ZM112.147,63.8345q.07167.25635.14348.5127c.4473-.1807.8926-.3609,1.3399-.5415-.0489-.1324-.0967-.2652-.1446-.3975Q112.81648,63.62135,112.147,63.8345ZM85.91648,68.1509c-.085-.0347-.1709-.0694-.2549-.1045q-.27087.54855-.54,1.0972c.1201.0522.2412.104.3623.1562Q85.70063,68.7256,85.91648,68.1509Zm68.6328,119.5552a2.35146,2.35146,0,0,0-.7988-.2671c-.1201.0107-.2139.3208-.3193.4956a3.49321,3.49321,0,0,0,.7031.354C154.19378,188.3047,154.33738,188.0117,154.54928,187.7061Zm-.3867-17.647q.22563.03945.4512.0796.20355-.81885.4091-1.6377-.17565-.0477-.3515-.0952Q154.41653,169.23185,154.16258,170.0591Zm-41.7627-3.6773.1055.4307c.3222-.103.6474-.1987.959-.3262a2.188,2.188,0,0,0-.0918-.3999Q112.88613,166.23445,112.39988,166.3818Z"/><path class="c" d="M19.99168,161.5596a421.34636,421.34636,0,0,0,45.1787.1357c-.4385,3.4033-2.0146,5.7901-3.4541,8.4732-2.1289,0-4.3476.0068-6.5664-.0015-3.7441-.0137-7.4922.0518-11.2324-.0767-6.1406-.2104-12.2764-.5879-18.418-.8032-1.2988-.0454-1.73048-1.082-2.2812-1.7666a36.08476,36.08476,0,0,1-2.8711-4.6655A6.18544,6.18544,0,0,1,19.99168,161.5596Z"/><path class="c" d="M133.17918,140.6675c.5762,0,1.1543.0029,1.7305,0q11.50485-.0579,23.0078-.1167c7.26952-.0381,14.541-.1255,21.81252-.1079,8.789.0219,17.58008.0698,26.36908.2202,9.3438.1601,18.6875.4614,28.0313.686,7.9785.1919,15.957.4273,23.9375.52,5.82812.0679,11.6582-.0678,17.4863-.0996a10.696,10.696,0,0,1,1.3223.1499c.1992.9151-.18748,1.1856-.85548,1.1866-5.34772.0078-10.69532.0615-16.043-.0044-5.02542-.0616-10.05082-.2544-15.07812-.3828q-9.454-.24255-18.9121-.4732c-2.1543-.0532-4.3106-.0566-6.4629-.1533-20.8496-.9356-41.709-.8672-62.5703-.6421-7.1865.0771-14.374.1714-21.5615.2373-.7588.0068-1.5205-.1245-2.2803-.1919Q133.14653,141.08175,133.17918,140.6675Z"/><path class="c" d="M156.396,123.8389a36.62549,36.62549,0,0,0,1.02148-3.8076,36.85841,36.85841,0,0,0,.2051-4.0435c2.2421.3486,4.25.6489,6.2539.9751,2.5859.4209,5.1738.8281,7.7461,1.31,1.1621.2173,2.291.6006,3.4511.9131.5918,2.2154-.248,4.2085-.4062,6.2344-.0821,1.0684-1.0254,1.0762-1.836,1.0508-2.4668-.0762-4.9316-.1611-7.3964-.2813-1.5899-.0781-3.1739-.2675-4.7637-.3281C158.93308,125.7959,157.394,125.396,156.396,123.8389Zm2.14838-.3067c4.9141.4619,9.336.877,13.9727,1.3125.5117-1.2622,1.00392-2.4756,1.6621-4.0976-5.2773-.5825-10.084-1.7871-15.207-1.6924C158.81978,120.6543,158.69478,121.959,158.54438,123.5322Z"/><path class="c" d="M273.87648,160.9619V148.0176c2.6289-.6924,3.6933.0376,3.6582,2.5776-.0489,3.5689-.1602,7.1367-.2461,10.8159-4.5782.7242-9.0313,1.4287-13.4727,2.1314-.4258-1.0811.1348-1.4214.7793-1.5171,1.34182-.1983,2.7031-.27,4.05082-.4229C270.38428,161.4053,272.11868,161.1787,273.87648,160.9619Zm1.789-1.5723a15.299,15.299,0,0,0,.5078-7.1586C275.51118,154.5811,275.70458,156.9941,275.66548,159.3896Zm.6836-9.9047c-.373-.2163-.61908-.4746-.8183-.4429a.78261.78261,0,0,0-.545.5254c-.0097.1899.3399.5776.4844.5566C275.72408,150.0879,275.94088,149.8032,276.34908,149.4849Z"/><path class="c" d="M87.26318,179.5044c.0527.9141.1006,1.7183.1484,2.5229q-.1758.162-.34958.3238c-1.418-2.3521-3.542-1.6231-5.50782-1.584-1.0371.021-2.0781-.0098-3.1084.0796a2.29979,2.29979,0,0,0-1.4873.5034c-.4609.5859-.7148.499-1.3477.271-1.50478-.542-1.5351-.457-2.0595,1.8335,3.9765-.3374,7.8623-.6665,12.0234-1.0191-.8379,1.2115-.8408,1.1856-6.5273,1.6827-2.19438.1914-4.3662.8535-6.9131.1635.2783-1.2675.541-2.4692.8095-3.6909A59.79828,59.79828,0,0,1,87.26318,179.5044Z"/><path class="c" d="M195.37448,164.1436c-.1113,1.3393-.5156,1.7373-1.5469,1.6977-.9199-.0351-1.2558-.5205-1.2129-1.3755.0586-1.1338.8125-2.1152,1.6231-1.9946A1.293,1.293,0,0,1,195.37448,164.1436Z"/><path class="c" d="M218.12448,164.1987c-1.7246-2.206-1.5898-3.0268.502-3.9228C219.71628,162.1772,219.69088,162.4312,218.12448,164.1987Z"/><path class="c" d="M239.42918,159.9063c1.1523,1.3964,1.1523,1.3964-.07618,2.75C238.44868,161.7739,238.42138,160.938,239.42918,159.9063Z"/><path class="c" d="M123.57468,179.1621c.3506-.249.6777-.647,1.0576-.7051.3848-.0591,1.0948.1187,1.1836.3658.2617.7207-.33588.9511-.9375.9692a6.4868,6.4868,0,0,1-1.1435-.1631C123.68118,179.4731,123.62838,179.3174,123.57468,179.1621Z"/><path class="c" d="M160.71828,179.3208c.5234.937.7519,1.4321,1.0586,1.8716.6386.915,1.32812.9663,2.1699.2114,2.28122-2.0444,2.5429-8.2241.4219-10.4888a5.93059,5.93059,0,0,0-1.043-.7036c-3.18168,1.8828-2.9531,5.2188-3.6055,8.3545-.3574-.2954-.748-.4634-.7578-.6494-.1387-2.8633.3691-5.5903,2.3828-7.7471,1.625-1.7373,3.3633-1.5507,4.4024.6055a14.21788,14.21788,0,0,1,1.25,5.0503,9.19751,9.19751,0,0,1-1.9961,6.2646,2.44782,2.44782,0,0,1-2.9746.7789C160.84908,182.3823,160.394,181.4019,160.71828,179.3208Z"/><path class="c" d="M159.91358,167.4473c-.1289-1.3252-.1953-2.0147-.2891-2.9746,1.18752.2905,1.7149.7568,1.6367,1.5376C161.22608,166.3682,160.66748,166.6748,159.91358,167.4473Z"/><path class="c" d="M142.06978,178.4648a3.08483,3.08483,0,0,1,3.291-.4384C144.44088,179.2793,143.46038,179.125,142.06978,178.4648Z"/><path class="b" d="M106.34378,227.2173c-.4864,1.9131-1.626,2.0727-3.0372,1.7861a16.83209,16.83209,0,0,0-2.6142-.2817c-1.6133-.0713-3.1133-.2617-3.2539-2.3238a55.5836,55.5836,0,0,0-5.8018-.9799,7.23535,7.23535,0,0,1-4.55368-2.0166,9.86813,9.86813,0,0,1,.57228-5.3086,6.25919,6.25919,0,0,0,.4062-2.8057c-.1094-2.5532-.3633-5.0996-.5263-7.6518a28.4082,28.4082,0,0,1-.0459-3.107c.33-7.2676.7148-14.5327,1.0234-21.8008.23832-5.5908.4082-11.1845.57032-16.7778.07618-2.6309.18948-5.27.05368-7.8935-.1758-3.4224,1.6397-5.5142,4.4932-6.6353,6.5449-2.5713,13.166-4.9272,20.20312-5.8809,6.64838-.9004,13.27738-1.958,19.915-2.9399a4.29537,4.29537,0,0,1,1.18358-.0781q10.31985,1.39815,20.6338,2.8364c2.2139.3096,4.4092.7749,6.6309.9873a10.42982,10.42982,0,0,0,3.2715-.3682c2.4101-.562,4.7656-1.4506,7.2011-1.7846a18.516,18.516,0,0,1,5.45412.3408c9.29688,1.5527,18.61628,3.0127,27.85648,4.852,6.4219,1.2784,12.7187,3.1563,19.0937,4.6817,2.2539.5395,3.334,2.4116,4.5997,3.9438a3.5194,3.5194,0,0,0,2.2558,1.4312c5.90632,1.0141,11.8027,2.1035,17.7305,2.9805,7.3496,1.0869,14.7304,1.9765,22.08982,2.999a11.82348,11.82348,0,0,1,2.23438.7016,26.82709,26.82709,0,0,0-.4629,4.7447c.4336,4.8457,1.041,9.6772,1.5957,14.5117.6563,5.7065,1.3369,11.4097,1.959,17.1191a1.92139,1.92139,0,0,1-.4697,1.2798c-1.5909,1.8731-3.1983,3.7388-4.8946,5.5166a3.66528,3.66528,0,0,1-1.7392.6734c-1.627.3955-3.2949.6406-4.8926,1.1235-1.6074.4863-3.1562,1.0893-4.7539.1977-3.5625,7.087-11.3125,8.7232-14.9785,3.2134a287.41087,287.41087,0,0,0-50.2852,10.2647c-.1328.6733-.31248,1.5805-.5224,2.6377-1.7002-.0953-2.8252.7763-3.8936,2.0864a8.63487,8.63487,0,0,1-5.2871,3.0029,27.64741,27.64741,0,0,1-9.5117.582,7.42824,7.42824,0,0,1-6.3653-5.8876c-.0859-.3624-.1269-.7359-.2285-1.3467-.7675.4463-1.3525.7861-2.0576,1.1958-.7764-1.0113-1.7432-.8667-2.9092-.5059a34.55915,34.55915,0,0,1-4.2402.728c-6.4531,1.1294-13.0127,1.8575-19.3125,3.5533-4.04,1.0869-7.8418.6674-11.77338.4394-2.23152-.1284-4.48252-.1216-6.69342-.4184-3.47458-.4683-6.918-1.1592-10.3809-1.7139-.9414-.1504-1.916-.0889-2.8554-.2393C108.03418,228.7227,106.85838,228.8276,106.34378,227.2173Z"/><path class="c" d="M106.34378,227.2173c-.4864,1.9131-1.626,2.0727-3.0372,1.7861a16.83209,16.83209,0,0,0-2.6142-.2817c-1.6133-.0713-3.1133-.2617-3.2539-2.3238a55.5836,55.5836,0,0,0-5.8018-.9799,7.23535,7.23535,0,0,1-4.55368-2.0166,9.86813,9.86813,0,0,1,.57228-5.3086,6.25919,6.25919,0,0,0,.4062-2.8057c-.1094-2.5532-.3633-5.0996-.5263-7.6518a28.4082,28.4082,0,0,1-.0459-3.107c.33-7.2676.7148-14.5327,1.0234-21.8008.23832-5.5908.4082-11.1845.57032-16.7778.07618-2.6309.18948-5.27.05368-7.8935-.1758-3.4224,1.6397-5.5142,4.4932-6.6353,6.5449-2.5713,13.166-4.9272,20.20312-5.8809,6.64838-.9004,13.27738-1.958,19.915-2.9399a4.29537,4.29537,0,0,1,1.18358-.0781q10.31985,1.39815,20.6338,2.8364c2.2139.3096,4.4092.7749,6.6309.9873a10.42982,10.42982,0,0,0,3.2715-.3682c2.4101-.562,4.7656-1.4506,7.2011-1.7846a18.516,18.516,0,0,1,5.45412.3408c9.29688,1.5527,18.61628,3.0127,27.85648,4.852,6.4219,1.2784,12.7187,3.1563,19.0937,4.6817,2.2539.5395,3.334,2.4116,4.5997,3.9438a3.5194,3.5194,0,0,0,2.2558,1.4312c5.90632,1.0141,11.8027,2.1035,17.7305,2.9805,7.3496,1.0869,14.7304,1.9765,22.08982,2.999a11.82348,11.82348,0,0,1,2.23438.7016,26.82709,26.82709,0,0,0-.4629,4.7447c.4336,4.8457,1.041,9.6772,1.5957,14.5117.6563,5.7065,1.3369,11.4097,1.959,17.1191a1.92139,1.92139,0,0,1-.4697,1.2798c-1.5909,1.8731-3.1983,3.7388-4.8946,5.5166a3.66528,3.66528,0,0,1-1.7392.6734c-1.627.3955-3.2949.6406-4.8926,1.1235-1.6074.4863-3.1562,1.0893-4.7539.1977-3.5625,7.087-11.3125,8.7232-14.9785,3.2134a287.41087,287.41087,0,0,0-50.2852,10.2647c-.1328.6733-.31248,1.5805-.5224,2.6377-1.7002-.0953-2.8252.7763-3.8936,2.0864a8.63487,8.63487,0,0,1-5.2871,3.0029,27.64741,27.64741,0,0,1-9.5117.582,7.42824,7.42824,0,0,1-6.3653-5.8876c-.0859-.3624-.1269-.7359-.2285-1.3467-.7675.4463-1.3525.7861-2.0576,1.1958-.7764-1.0113-1.7432-.8667-2.9092-.5059a34.55915,34.55915,0,0,1-4.2402.728c-6.4531,1.1294-13.0127,1.8575-19.3125,3.5533-4.04,1.0869-7.8418.6674-11.77338.4394-2.23152-.1284-4.48252-.1216-6.69342-.4184-3.47458-.4683-6.918-1.1592-10.3809-1.7139-.9414-.1504-1.916-.0889-2.8554-.2393C108.03418,228.7227,106.85838,228.8276,106.34378,227.2173Zm27.7705-73.9234c1.1543.106,1.9199.1265,2.667.253,3.2978.5595,6.5751,1.2671,9.8876,1.7051,9.1915,1.2133,18.4004,2.2773,27.5938,3.4804,7.5215.9844,15.02932,2.0899,22.5439,3.1309,3.3243.4609,6.6602.8457,9.9776,1.3598,3.34182.5181,6.7129.7769,10.0547,1.3428,3.61812.6128,7.2968.877,10.95312,1.2442,6.12108.6137,12.25388,1.1049,18.36328,1.8105,4.1738.4824,8.3711.5996,12.5439,1.1187a79.72169,79.72169,0,0,0,8.1416.1538,2.56757,2.56757,0,0,1,1.5459.3315,3.94922,3.94922,0,0,0,3.2862.7686c.6826-2.0127.2705-2.981-1.67388-3.3975a65.63553,65.63553,0,0,0-7.09962-1.1186c-6.0351-.6055-12.082-1.1006-18.123-1.6509-.4688-.043-1.2041-.0249-1.3477-.2891-.9082-1.668-2.5469-1.3843-3.9805-1.6523-2.3574-.4414-4.7265-.8184-7.0664-1.334-2.2509-.4951-4.54678-.4278-6.7197-1.8037-1.7666-1.1182-4.20208-1.2139-6.3613-1.669-4.126-.8696-8.2569-1.7324-12.4053-2.4883-5.4844-1.0009-10.9707-2.017-16.4892-2.8007-4.9737-.7066-9.9922-1.0996-14.98928-1.6514-1.59772-.1763-2.084-.7324-2.06542-2.3106.0097-.7587.1025-1.5161.1738-2.4794-1.8233.4423-3.3731.8193-5.1231,1.2436,3.7676,1.1968,3.88772,1.2539,3.9463,2.0317-2.8515-.312-5.6797-.5708-8.4941-.9384-5.6074-.7325-11.207-1.5396-16.81448-2.2871-5.41212-.7212-10.81642-1.6582-16.30952-1.147-2.6944.251-5.3916.5698-8.0518,1.0513-1.9512.3535-2.2773.9472-2.4355,2.9419a13.00168,13.00168,0,0,1-.3203,1.6201c-.3965,1.8637-.8926,3.7124-1.1661,5.5947-.3183,2.1973-1.0683,3.0435-3.2109,3.4526q-5.5254,1.0548-11.0225,2.2432c-3.1982.6919-6.4082,1.3608-9.5488,2.2607-1.72658.4942-2.6982-.2251-3.6172-1.4101-.2588-.333-.459-.7129-.6865-1.0718-.1328.0327-.2656.0645-.3994.0962.0849,1.9097.1728,3.8193.2588,5.7544a28.4216,28.4216,0,0,1,3.248-1.5942,30.25511,30.25511,0,0,1,3.7305-.8687c4.0683-.8403,8.1191-1.7876,12.2139-2.4668,5.041-.8369,10.1191-1.4551,15.1845-2.1489,1.7383-.2378,3.4805-.5249,5.2285-.5938,1.6114-.0639,2.0821.4019,2.3829,1.9976.3105,1.646.6015,3.3032.7695,4.9682.4961,4.9263.9004,9.8609,1.3906,14.7867.459,4.605.9961,9.2011,1.4629,13.8047a6.39157,6.39157,0,0,1-.0879,2.3803,6.54687,6.54687,0,0,1-1.2324,2.2027,1.53225,1.53225,0,0,1-2.1484.3427c-.2364-.1406-.625-.0429-.9415-.0234-3.1093.1919-6.2187.3804-9.3251.5898-8.5264.5772-17.0362,1.3951-25.6124.7676-2.5625-.1865-5.1777.3628-7.8066.5786-.1064.8174-.1894,1.3623-.248,1.9092-.2305,2.168-.4395,4.2959,1.7675,5.7691a2.72164,2.72164,0,0,1,.8184,1.6655c.3809,2.0376.6777,4.0918.9531,6.147a5.80864,5.80864,0,0,1-.207,1.4511c-.98628-.2592-1.8086-.4741-2.7442-.7197a11.12259,11.12259,0,0,0-.8779,1.6802,3.12308,3.12308,0,0,0,2.1387,4.3066,48.06579,48.06579,0,0,0,5.2139.9756c.2666-1.209.4824-2.1899.6923-3.1411a25.97163,25.97163,0,0,1,8.2373-.062,1.907,1.907,0,0,1,1.836,1.5835c.3613,1.373.8047,2.7231,1.2129,4.0771,1.499.2681,2.8301.5259,4.167.7403,4.0166.6445,8.0224,1.394,12.0595,1.8691,3.4043.4009,6.8477.52,10.2774.6719,1.3125.0586,2.7012.3052,3.8633-.3897a3.724,3.724,0,0,0,.1953-.5986c1.2695-12.6128.7734-25.2197-.1367-37.8232-.6895-9.564-1.3516-19.1304-2.1495-28.6841C135.79978,159.8716,135.92678,156.7012,134.11428,153.2939Zm-45.2432,43.9825c15.62792,1.0551,30.7607-1.1817,45.9795-1.4121.0058-1.4566.10942-2.5733-.002-3.6685-.5429-5.3237-1.1621-10.6387-1.7138-15.9614-.2705-2.6157-.4073-5.2471-.6944-7.8614a32.98784,32.98784,0,0,0-1.7011-7.9179c-1.6524.1137-3.2344.1494-4.7969.3481-2.69238.3418-5.374.7749-8.0567,1.1875-6.0664.9336-12.1982,1.5205-18.1308,3.1919-2.377.6699-4.6992,1.5342-7.0596,2.27a2.39671,2.39671,0,0,0-1.86028,1.9561,40.63628,40.63628,0,0,0-.87312,4.9053c-.2773,5.1025-.3828,10.2143-.6015,15.3203C89.25488,192.1025,89.04788,194.5649,88.87108,197.2764Zm78.2363-1.3824c.4014,9.6421.7979,19.1568,1.1983,28.7754a12.59373,12.59373,0,0,0,1.5976-.0815c2.085-.3941,2.43172-.7559,2.8594-2.8438.5605-2.7373,1.0019-5.5058,1.7148-8.2021.7344-2.773,1.68752-5.4917,2.6387-8.2022a4.9358,4.9358,0,0,1,2.6817-2.914,16.35536,16.35536,0,0,1,9.58-1.2749,2.39193,2.39193,0,0,1,1.0957.3926,25.6127,25.6127,0,0,1,3.2442,2.809,5.67336,5.67336,0,0,1,1.3896,2.7071,50.98089,50.98089,0,0,1,.6231,7.1367c.0322,2.769-.208,5.5425-.3457,8.6728,6.15722-1.1567,11.9638-2.6987,17.8076-4.1318,5.9551-1.4595,12.0351-2.4048,18.0117-3.5654.21292-1.3404.7373-2.5371-.2227-3.6924-.1953-.2354-.0136-.7744-.02338-1.1738-.10942-4.3916-.21092-8.7832-.34082-13.1748-.041-1.4156-.15718-2.8282-.2354-4.1817C227.21188,192.3315,173.76268,194.8198,167.10738,195.894ZM193.167,164.0225c-9.64652-1.0513-19.03912-2.0747-28.80082-3.1397q.829,16.10745,1.6367,31.8218c2.6192.0102,4.91412.0747,7.20712.0171,6.59758-.1655,13.14248-1.5313,19.77928-.8438,1.1289.1167,1.59572-.5239,1.5752-1.5908-.0069-.3984-.0362-.7964-.0557-1.1953-.2539-5.1777-.4961-10.356-.7676-15.5342C193.583,170.5361,193.37888,167.5166,193.167,164.0225Zm19.459,25.7548a2.173,2.173,0,0,0,1.58008-2.457c-.1104-1.5854.12692-3.1963.0136-4.7812-.3379-4.6919-.76168-9.378-1.1758-14.0635-.1933-2.1826-.2148-2.2442-2.3867-2.4673-3.332-.3418-6.6758-.5723-10.0117-.8774-1.3984-.128-2.79-.3257-4.0937-.4815-.1797.4028-.2989.543-.2989.6836-.0351,7.2583-.082,14.5156-.0664,21.773.003,1.4038.2549,2.8066.4239,4.5229,5.8115-.855,11.4511-.1372,17.0214-.876.0254-.1616.0518-.3222.07822-.4829C213.46878,190.1606,213.22748,190.0508,212.626,189.7773Zm62.24118.9517c-10.794.5151-21.11718,1.0078-31.7197,1.5132a192.77558,192.77558,0,0,0,1.0644,20.9863c1.1836-.1074,2.1914-.208,3.2012-.2895,2.6445-.2139,2.5273-.2261,2.8965-2.9546.5019-3.7129,1.1875-7.4019,1.8369-11.0938.167-.9428.4189-2.0132,1.5801-2.1601a45.61536,45.61536,0,0,1,4.9941-.3335,1.96342,1.96342,0,0,1,2.15332,2.0517c.28028,3.1006.60938,6.1973.917,9.2954.07518.7598.14358,1.5196.22758,2.4048,3.1171.1616,5.6503-1.2968,8.3847-1.6787.2559-.0366.4805-.3935.6973-.6216.9316-.9863,1.8086-2.0288,2.7949-2.9565a4.77666,4.77666,0,0,0,1.6309-3.8364C275.36328,197.7207,275.10638,194.3916,274.86718,190.729Zm-59.9463-23.2817c.0918,7.7631.2832,15.3574,1.6465,23.0835,1.0488.0044,1.9121.0337,2.7734.0053,2.1553-.0693,4.3086-.2163,6.4629-.2265,1.1406-.0069,2.2822.206,3.7432.3525a9.22948,9.22948,0,0,0,.626-2.5893c-.0791-2.9473-.33988-5.8902-.543-8.8335-.209-3.0171-.4141-6.0352-.666-9.0489a10.57849,10.57849,0,0,0-.4707-1.7998c-1.4541-.1977-2.7881-.4638-4.1348-.5429C221.33978,167.6699,218.31538,167.5854,214.92088,167.4473Zm40.1934,3.1777c-4.7168.0605-9.1319-1.0303-13.459-.9155.5088,6.8442.9961,13.3974,1.4726,19.8154,5.0166,1.8931,9.7266-.1616,14.8184.4082-.8418-5.8018-1.625-11.206-2.4121-16.6099C255.42088,172.54,255.292,171.7593,255.11428,170.625Zm16.7734,1.1377c-4.9824-.3828-9.9512-.7651-15.2129-1.1694.4141,6.7182,2.7793,12.7143,2.8701,19.1816,4.7686-.4473,9.1924-.8618,13.4912-1.2646a5.30463,5.30463,0,0,0,.7032-4.0249c-.52928-3.71-.9414-7.4375-1.4219-11.1553A12.84219,12.84219,0,0,0,271.88768,171.7627Zm-40.1289,20.9819c-.0567.8291-.1289,1.3033-.1172,1.7759q.22563,8.00535.4707,16.0103c.0078.2382-.084.6025.0352.6982,1.3183,1.042.625,2.3374.2988,3.9282,3.5605-.5454,6.873-1.0527,10.2539-1.5698-.3106-7.1216-.6064-13.9326-.9043-20.8042C238.40918,192.77,235.18458,192.7578,231.75878,192.7446Zm-81.9863,2.8218c-.6123-8.6562-.68748-17.0371-2.2618-25.3354-2.0761-.3614-3.9824-1.0196-6.1503-.1631.1572,8.4609.3681,16.8813,1.0859,25.4697C144.96878,195.5474,147.23538,195.5562,149.77248,195.5664Zm30.1523,17.9644c-.7246.4702-1.3809.6889-1.67378,1.1421a4.81116,4.81116,0,0,0-.43652,1.8369c-.3819,2.4643.4677,4.7451,1.3212,6.9399.8682,2.2368,3.9629,3.5689,6.0762,3.0923a4.08082,4.08082,0,0,0,2.5723-2.292c1.9082-3.166,3.1396-6.4409,1.7295-10.1895-1.1573-3.0781-3.2881-4.7363-6.1162-4.6494C180.29,209.5059,179.37008,210.6582,179.92478,213.5308Zm47.2168-55.9356c-.7021-2.2715-2.5488-2.4492-4.22458-2.8672-6.5-1.6216-12.96292-3.4345-19.51952-4.789-7.417-1.5323-14.9141-2.6802-22.3887-3.9214-2.0029-.3321-4.04978-.3955-6.1963-.5928-.10448,1.2026-.1787,2.0479-.2793,3.1885,6.0254.7744,11.8721,1.4155,17.6826,2.3022,5.917.9029,11.8125,1.9746,17.6914,3.1031C215.63378,155.1177,221.33008,156.3823,227.14158,157.5952Zm-84.4248,42.0401c-.21578,6.7666-1.1572,13.2934.2041,19.8745a17.31,17.31,0,0,0,7.2744-1.0879c-.4599-6.2671-.9131-12.4204-1.3779-18.7627C146.71778,199.6509,144.85838,199.6436,142.71678,199.6353Zm12.5537-28.3936c-.416,4.4321.0957,22.041.7012,23.8945a10.30019,10.30019,0,0,0,5.4922-.164c.0039-.9995.0527-1.9439.0039-2.8828-.2871-5.4991-.6621-10.9952-.8809-16.4961-.1836-4.6245-.1992-4.7139-4.9316-4.5308C155.583,171.0654,155.51268,171.1265,155.27048,171.2417Zm-.0293,46.5249c2.1543-.2349,3.9512-.4604,5.7539-.6182,1.5596-.1367,1.8008-.2758,1.668-1.8764-.377-4.5303-.8594-9.0518-1.2432-13.5816a1.5617,1.5617,0,0,0-1.8662-1.6504c-1.3965.0977-2.7851.3106-4.2461.482C155.28418,206.3271,155.26458,211.8076,155.24118,217.7666Zm98.8047-4.2505c1.03712-.7651,2.5078-1.3701,3.1719-2.4653.8359-1.3799,1.5771-3.1802-.1299-4.711-.085-.0761.3584-.622.2734-.8349a10.43686,10.43686,0,0,0-1.3154-2.6758c-.6445-.8091-1.4863-.6074-2.29.0684-.2764.2324-.8692.0913-1.3868.125a26.81561,26.81561,0,0,1-.62008,3.8256c-.414,1.3521.89548,2.0791.916,3.0904C252.69038,211.2476,252.50588,212.4697,254.04588,213.5161Zm-155.543,8.8721c.0713,1.1626.1582,1.9912.168,2.8208.0195,1.6396.2383,2.0283,1.7832,2.2378,1.3086.1777,2.6445.1611,3.8691.2256a13.11239,13.11239,0,0,1,.795-1.6309c.9384-1.3726.5234-2.9546-1.0118-3.1919C102.26168,222.5645,100.37788,222.5313,98.50288,222.3882Zm140.0254-47.7886c-1.7422,1.9434-1.9082,6.0645-.73828,12.8223.05858.334.46588.6074,1.07428,1.3589A92.19025,92.19025,0,0,0,238.52828,174.5996Zm-5.8418-.4951q.1758,7.385.35352,14.77.26082.05865.52348.1182c.2402-.3262.623-.6236.6972-.9839C234.749,185.6411,233.87788,175.4775,232.68648,174.1045ZM89.95608,210.5317c-.1778.0215-.3555.0425-.5332.064-.4356,3.5713-.1202,5.2427,1.3867,5.9297C90.50878,214.4111,90.23138,212.4717,89.95608,210.5317Zm169.7216-4.0522c.251.0073.501.0142.753.0215q-.10845-1.2789-.2149-2.5576c-.1377.0004-.2763.0004-.414.0004Q259.73878,205.21175,259.67768,206.4795Zm-64.9228-39.2446c.3125-1.1592.3125-1.1592-.3877-2.2007C194.53028,165.9575,194.64258,166.5967,194.75488,167.2349Z"/><path class="c" d="M134.94238,209.5479c-.1719,1.5986-.2852,2.9023-.4551,4.1992q-.268,2.01705-.6269,4.0219c-.48738,2.6998-1.90138,4.0518-4.7403,4.1954-2.6045.1313-5.2226.0102-7.875-.0005-1.2305-3.6138-1.3105-7.1709-1.5683-10.8994,2.6328-.1368,5.1484-.1788,7.6445-.4229C129.75288,210.4023,132.165,209.9556,134.94238,209.5479Zm-1.2783,1.6044c-4.3506.4512-8.0909.8389-12.1748,1.2632.1132,2.5332.1543,4.8804.374,7.2115a1.72128,1.72128,0,0,0,1.2031,1.1626,58.856,58.856,0,0,0,6.8701-.2139,2.65513,2.65513,0,0,0,2.4043-2.0537C132.82128,216.2915,133.15718,214.0303,133.66408,211.1523Z"/><path class="c" d="M119.46388,227.6807c-.416-2.9805.0547-3.5342,2.541-3.4453,1.8808.0668,3.7597.1127,5.6055.1669.22262,2.4581-.15138,3.1123-2.15338,3.2671C123.51068,227.8203,121.54388,227.689,119.46388,227.6807Zm2.8593-1.5196c-.6855-.9218-1.2793-.9458-2.1865.1675C121.14548,226.252,121.73438,226.2065,122.32318,226.1611Z"/><path class="b" d="M187.51028,268.6909c-3.1299.375-6.0489.7251-9.1124,1.0918-.3017.4009-.8867.8545-1.0253,1.418-.501,2.0371-2.2764,2.5976-3.8174,3.1391-2.3946.8428-4.32618-.5922-6.0078-2.0771a5.80078,5.80078,0,0,1-2.0039-2.9175c-.3252-1.9414-1.6914-2.2959-3.086-2.8452-1.39648-.5493-2.7656-1.3013-4.25-.103a39.55545,39.55545,0,0,1-1.9121-14.0283,114.24927,114.24927,0,0,1,1.4473-12.1055,44.41592,44.41592,0,0,1,6.3095-15.9404c1.042-1.7046,2.1163-3.3907,3.2041-5.0665a7.542,7.542,0,0,1,4.2071-3.2221c13.2851-4.4492,26.9219-5.1538,40.748-4.2954,3.35062.208,6.709.3144,10.0655.3779a117.69733,117.69733,0,0,1,17.12012,1.9722c5.51068.9194,11.07418,1.5151,16.61128,2.2729,4.9043.6709,9.7988,1.4092,14.709,2.0318,1.4023.1772,1.8769.9702,2.1055,2.1792.6093,3.2109.913,6.5312,1.9589,9.5957,1.544,4.5244,1.5137,9.2905,2.6778,13.8544a10.1798,10.1798,0,0,1,.0234,3.5772,3.76121,3.76121,0,0,1-2.5371,3.396c-2.6504,1.0786-5.1172,2.6035-7.6836,3.897a17.6992,17.6992,0,0,1-2.0801.7636c-1.0996,1.6397-2.1562,3.3106-3.3164,4.9068a2.55618,2.55618,0,0,1-2.6543,1.1943,8.53821,8.53821,0,0,0-2.8017.5151,5.78853,5.78853,0,0,1-6.6104-2.6757c-.2129-.3272-.4512-.6377-.7754-1.0928-2.7441.4941-5.4765,1.0347-8.2256,1.4702-8.1181,1.2857-16.23728,2.5835-24.372,3.7583-2.4707.3569-4.1328,1.2803-4.8008,3.8643a11.69519,11.69519,0,0,1-3.5254,5.622c-.1758.1621-.4668.295-.5137.4883-.5488,2.2197-2.4277,2.2783-4.10538,2.3672-1.96982.105-3.95712-.0918-5.93562-.1768-.31438-.0131-.6465-.2309-.9355-.1748-2.21.4332-4.0391-.5043-5.8047-1.6015C188.91058,272.9448,188.22708,270.9526,187.51028,268.6909Z"/><path class="c" d="M187.51028,268.6909c-3.1299.375-6.0489.7251-9.1124,1.0918-.3017.4009-.8867.8545-1.0253,1.418-.501,2.0371-2.2764,2.5976-3.8174,3.1391-2.3946.8428-4.32618-.5922-6.0078-2.0771a5.80078,5.80078,0,0,1-2.0039-2.9175c-.3252-1.9414-1.6914-2.2959-3.086-2.8452-1.39648-.5493-2.7656-1.3013-4.25-.103a39.55545,39.55545,0,0,1-1.9121-14.0283,114.24927,114.24927,0,0,1,1.4473-12.1055,44.41592,44.41592,0,0,1,6.3095-15.9404c1.042-1.7046,2.1163-3.3907,3.2041-5.0665a7.542,7.542,0,0,1,4.2071-3.2221c13.2851-4.4492,26.9219-5.1538,40.748-4.2954,3.35062.208,6.709.3144,10.0655.3779a117.69733,117.69733,0,0,1,17.12012,1.9722c5.51068.9194,11.07418,1.5151,16.61128,2.2729,4.9043.6709,9.7988,1.4092,14.709,2.0318,1.4023.1772,1.8769.9702,2.1055,2.1792.6093,3.2109.913,6.5312,1.9589,9.5957,1.544,4.5244,1.5137,9.2905,2.6778,13.8544a10.1798,10.1798,0,0,1,.0234,3.5772,3.76121,3.76121,0,0,1-2.5371,3.396c-2.6504,1.0786-5.1172,2.6035-7.6836,3.897a17.6992,17.6992,0,0,1-2.0801.7636c-1.0996,1.6397-2.1562,3.3106-3.3164,4.9068a2.55618,2.55618,0,0,1-2.6543,1.1943,8.53821,8.53821,0,0,0-2.8017.5151,5.78853,5.78853,0,0,1-6.6104-2.6757c-.2129-.3272-.4512-.6377-.7754-1.0928-2.7441.4941-5.4765,1.0347-8.2256,1.4702-8.1181,1.2857-16.23728,2.5835-24.372,3.7583-2.4707.3569-4.1328,1.2803-4.8008,3.8643a11.69519,11.69519,0,0,1-3.5254,5.622c-.1758.1621-.4668.295-.5137.4883-.5488,2.2197-2.4277,2.2783-4.10538,2.3672-1.96982.105-3.95712-.0918-5.93562-.1768-.31438-.0131-.6465-.2309-.9355-.1748-2.21.4332-4.0391-.5043-5.8047-1.6015C188.91058,272.9448,188.22708,270.9526,187.51028,268.6909Zm83.6064-47.957c-1.3984-1.4766-3.2783-1.815-5.13568-2.043-5.86532-.7187-11.75-1.2993-17.61532-2.0259-3.247-.4018-6.4726-.9799-9.706-1.4931-3.1504-.5005-6.2813-1.2715-9.4502-1.482-8.1309-.5405-16.2783-.8598-24.4219-1.2211a104.90225,104.90225,0,0,0-23.1172,1.9697c-1.9101.3413-3.77438.9428-5.6601,1.4248,5.6015.3149,11.2128-.3814,16.5312,2.5879-.4131,1.5464-.8984,3.2163-1.3047,4.9048-1.1582,4.811-2.2363,9.6425-3.4531,14.4384a37.24955,37.24955,0,0,1-1.6328,4.291,8.585,8.585,0,0,0-2.334.4107c-2.7715,1.4731-5.6816,1.1909-8.6582,1.0405-5.4922-.2768-10.9961-.3237-16.4863-.4663a19.31006,19.31006,0,0,0-.9161,8.7642,77.79243,77.79243,0,0,0,28.1485.4604c.1484-1.5224.2207-2.8686.4258-4.1938.1953-1.2744-.3711-2.8091,1.2461-3.9751-.1553,4.3017-.9854,8.3305.0634,12.4048,3.1397.5815,6.336-1.292,9.3955.0185.0098.1983.0176.3965.02742.5947-3.12112.2969-6.24222.5928-9.66412.918v5.4942c-1.6972-1.5494-.4785-3.6622-1.5068-5.4366-1.0098.0616-2.4082.5752-2.9717.0996-1.7129-1.4472-3.4785-.6464-5.23238-.6504a115.02621,115.02621,0,0,1-11.72852-.1191c-2.7598-.291-5.4492-.7754-8.5293-.1982.3144.5874.4765,1.3877.8652,1.5205a2.38929,2.38929,0,0,1,1.72662,1.7509c.42178,1.3858-1.043,1.3262-1.42582,1.9195.1543,1.1367.623,1.7715,1.6523,1.9599a10.4726,10.4726,0,0,1,1.5957.5088c7.5479,2.7012,15.2266,4.2569,23.2803,2.7823q4.59228-.8409,9.2158-1.5113c1.0743-.1533,1.4102-.8217,1.792-1.6601,1.0918-2.3975,2.21-4.7862,3.4082-7.1319a9.75329,9.75329,0,0,1,4.4024-4.5918c2.1357-1.0312,5.5468-.4443,6.8164,1.3164a12.00928,12.00928,0,0,1,2.5283,6.1265c.0605.7857.2207,1.563.35942,2.5171,2.32218-.3301,4.51558-.6411,6.75188-.959a25.22552,25.22552,0,0,0,1.37112-7.0049c-1.68262,0-3.18652.0337-4.68752-.0097-1.4941-.043-2.97648.8745-4.5068-.0103,2.9228-1.6113,6.3681-.5918,9.6387-1.914.038-4.5538-.7959-9.0567-1.2149-13.6216a9.10978,9.10978,0,0,0-1.2334-.083c-5.4883.542-10.9765,1.0615-16.45508,1.6894a3.78334,3.78334,0,0,0-1.98242,1.1494q-3.2256,3.21105-6.30958,6.565a2.77744,2.77744,0,0,1-2.29592,1.018c-.9375-.0346-1.8769-.0078-3.0527-.0078a20.72148,20.72148,0,0,1-.2832-3.5332c.3623-3.6543.8223-7.3003,1.3047-10.9414.6396-4.8262,1.0879-9.6885,3.0146-14.2568a3.46722,3.46722,0,0,1,1.6329-1.8604c1.3935-.8003,2.8007-.3769,4.208-.4326,3.5918-.1426,7.18362-.4658,10.7714-.4233,7.0293.083,14.0547.3716,21.0831.5615,2.6357.0713,5.2744.0415,7.9072.1733,3.8281.1914,7.6504.4883,11.4765.7369C257.52978,220.0313,264.36378,219.0347,271.11668,220.7339Zm-39.127.5166c-7.4951-1.0586-30.5185-.6397-37.247.2588-.5508,1.917-1.30568,3.9365-1.6934,6.0244-.6269,3.3701-1.0185,6.7837-1.4922,10.1816-.0722.5161-.0547,1.045-.082,1.6612,9.7764-.8682,19.4004-1.3096,29.1504-2.8306,0-.8052.0449-1.5122-.0078-2.2119q-.4044-5.4939-.8516-10.9849c-.0586-.7451-.4824-1.5762.8848-2.2124.83012,5.1978,1.0537,10.312,1.3857,15.5991,3.8428-.2285,7.4746-.4448,11.3252-.6738A108.37864,108.37864,0,0,0,231.98968,221.2505Zm43.211,15.9668a308.243,308.243,0,0,0-40.01268,1.4082c.19328,4.4463.37888,8.6875.56738,12.9902,6.9951-.0722,13.6025-2.4551,20.5312-2.1826.3018-.4375.5889-.917.9375-1.3486,2.1553-2.6739,4.83692-2.3985,6.4678.6621.4492.8447.8867,1.6977,1.2852,2.5669.9277,2.019,1.7714,2.4345,3.707,1.5239,1.8008-.8467,3.5381-1.8364,5.2793-2.8066a4.339,4.339,0,0,0,2.375-4.5879C276.022,242.7642,275.604,240.0972,275.20068,237.2173Zm-90.8174.4023c.97172-2.7119,1.9531-5.5615,3.01172-8.3808a25.62339,25.62339,0,0,0,1.92578-8.1006c.07622-2.0654-.4512-2.9819-2.4434-3.3389a31.85925,31.85925,0,0,0-17.6103,1.6563,2.96924,2.96924,0,0,0-1.1992,1.0351,53.35822,53.35822,0,0,0-6.4121,10.8936,25.51923,25.51923,0,0,0-2.01078,6.75C167.93508,237.4077,176.09618,237.7773,184.38328,237.6196Zm67.1846-2.4175a45.34147,45.34147,0,0,0-1.1162-13.3398c-5.6485-.3003-11.3233-.7378-17.09768-.5903.46878,5.0078.916,9.7949,1.37888,14.7387C240.42238,235.7373,245.88528,235.4751,251.56788,235.2021Zm3.8994,15.3799c-6.8555-.0659-13.0645,1.9458-19.252,2.3306-1.1826,2.0459.4356,4.249-1.4756,6.3242-.1855-2.3281-.3369-4.2202-.4892-6.1347-3.4551-.4288-6.5469.5332-9.6914.8657a1.65493,1.65493,0,0,0-1.49608,1.6069c-.29592,1.8818-.61922,3.7598-.93262,5.6401,3.0664.4078,26.47562-3.4448,31.2881-5.1328C254.05418,254.3755,254.686,252.6792,255.46728,250.582ZM252.897,222.0156c.082,4.5742,1.28318,8.6416.06438,13.1255,4.7598-.3369,9.2012.3721,13.7344-1.3286-.4863-3.728-.9453-7.2451-1.4336-10.9868C261.12348,222.5547,257.10008,222.291,252.897,222.0156Zm-19.09572,16.7842c-3.8936.1294-7.5821-.1919-11.418.4946.4414,4.6094.8613,8.9927,1.293,13.4981,3.5859-.4253,6.9453-.8233,10.4765-1.2422A55.04536,55.04536,0,0,0,233.80128,238.7998Zm40.8144-2.9868c.5244-1.4258-.3174-2.6416-.664-3.9302-.3516-1.31-.7666-2.604-1.0811-3.9224-.3291-1.3784-.5703-2.7778-.833-4.082a7.657,7.657,0,0,0-5.2031-.0639c.7754,3.4135.5488,6.998,1.3467,10.3588C270.54738,234.3872,272.84028,233.6929,274.61568,235.813Zm-73.7988,32.9004c.5215.4062.9062.6885,1.2715.9931a3.546,3.546,0,0,0,5.8613-1.9536,16.26333,16.26333,0,0,0,.3262-3.5649,3.27119,3.27119,0,0,0-2.1768-3.3887c-1.5967-.5571-2.5517.584-3.4658,1.5571C200.981,264.1172,200.73288,266.3267,200.81688,268.7134Zm55.6328-13.1128a2.3255,2.3255,0,0,0,.0508.6221c.3301,2.0424,1.4609,2.5332,3.1914,1.396,1.8799-1.2354,2.1943-5.2657.541-6.8252a1.24538,1.24538,0,0,0-1.9004.0371A5.52477,5.52477,0,0,0,256.44968,255.6006Zm-73.6719-1.2051h-8.1299c-.331,1.3081-.2373,2.1401,1.1827,2.0723,2.2949-.1104,4.5879-.2681,6.8857-.4058a3.33254,3.33254,0,0,0,.209-.7812A5.44249,5.44249,0,0,0,182.77778,254.3955ZM161.313,255.4727c-.66022-2.066-1.18072-2.3404-3.61622-2.086v2.086Zm24.92578-1.3208q-.34575-.20805-.6895-.4161c-.4336.418-1.1738.7969-1.2334,1.2622-.1084.8472.2686,1.6763,1.7285,1.7452C186.11178,255.8501,186.17428,255.0015,186.23878,254.1519Zm-15.9424,2.3271c.8135-.0605,1.4892-.1108,2.165-.1611.1192-.2881.2403-.5762.3594-.8643-1.8672,1.2808-1.7646-.3594-2.6875-1.3061C170.20748,255.2026,170.24558,255.7549,170.29638,256.479Zm-3.02638.398c.38868-2.3492.38868-2.3492-1.14652-2.3125C166.47608,255.2759,166.78368,255.8945,167.27,256.877Zm94.63088-35.6832c-.041.0684-.084.1368-.125.2051.6269.0586,1.2519.1348,1.8808.169.5098.0283,1.0215.0058,1.5332.0058-.00288-.1264-.0058-.2529-.0078-.3799Zm-34.6787,16.46c.0009.021.0009.042.0009.063.29892-.0176.5957-.0352,1.0606-.063Z"/><path class="c" d="M162.41848,262.2085V258.811c4.2421-.8452,8.3769-.2319,12.7187.3697v4.6059C170.855,263.7852,166.61868,263.647,162.41848,262.2085Zm7.1933-2.5713c-1.666,0-3.168-.085-4.6562.0278-1.0791.0816-1.125.5127-.2637,1.6333.33012-.4394.6543-.8725,1.0449-1.3925,1.2969,2.559,1.6914,2.7407,4.6494,2.2597C170.15378,261.4072,169.92428,260.6592,169.61178,259.6372Zm1.5449.5498c.69732,2.1895.69732,2.1895,2.6192,1.9375C173.82278,260.1235,173.82278,260.1235,171.15668,260.187Z"/><path class="c" d="M182.021,260.0522v2.584c-2.78422.8736-3.73342.4893-4.74612-1.9311C178.71338,259.8735,180.26808,260.1113,182.021,260.0522Z"/><path class="c" d="M190.71728,262.9644c-.1582.2324-.2725.4013-.3867.5708q-.30765-.2184-.6143-.4361c.1338-.1592.2471-.4189.4063-.4497C190.27588,262.6196,190.47508,262.8252,190.71728,262.9644Z"/><path class="c" d="M274.86178,247.2749a13.84569,13.84569,0,0,1-5.1543,1.0313C271.03558,247.0952,272.103,246.8726,274.86178,247.2749Z"/><path class="c" d="M226.31688,245.0977a2.63,2.63,0,0,1-1.5723-2.5332c-.0254-.398.543-.834.8418-1.2525.3438.2744.877.4844.9981.8359A2.77849,2.77849,0,0,1,226.31688,245.0977Z"/></svg>