<svg xmlns="http://www.w3.org/2000/svg" viewBox="0 0 300 300"><defs><style>.a{fill-rule:evenodd;}</style></defs><title>gl_nav06</title><path class="a" d="M63.94557,76.429c3.11919-.25015,6.24031-.478,9.35777-.75585,3.49095-.31191,6.98555-.60223,10.46488-1.02046,6.23767-.74963,12.47707-1.35542,18.76926-1.50465,6.134-.14658,12.26169-.57012,18.39212-.873,7.15711-.35382,14.316-.66573,21.47041-1.07755,4.086-.23506,8.16138-.65145,12.24384-.94982,3.64558-.26626,7.29289-.54065,10.94469-.69254,1.35012-.05627,2.72256.39316,4.07085.32527,4.15668-.20815,8.30529-.56206,12.45831-.84616,3.86452-.2636,7.73253-.47715,11.59431-.7747q6.33959-.48789,12.67012-1.09008a145.85325,145.85325,0,0,1,22.57111-.62812,27.41793,27.41793,0,0,1,6.94713,1.79772c5.18418,1.76468,10.329,3.64914,15.47485,5.52554q4.32238,1.57612,8.59113,3.30155a4.195,4.195,0,0,1,2.65558,2.08456c-.21355.0786-.3905.19837-.4486.15637-3.4936-2.54826-7.63326-3.625-11.60676-5.06176-5.22-1.88893-10.48455-3.65454-15.709-5.53085-5.41822-1.947-11.04387-1.92472-16.6417-1.60567-7.21787.41009-14.4134,1.19549-21.625,1.72809-3.86361.2841-7.74058.37523-11.61124.553a14.63226,14.63226,0,0,0-1.75316.08491c-6.07681,1.03382-12.22774.923-18.3492,1.29111-2.09.126-4.1209-.28593-6.20994-.1-5.02342.4476-10.06376.70855-15.09871,1.00609-5.90974.35025-11.823.63792-17.73188.99356-5.034.303-10.06193.71129-15.09779.98112-2.76986.1474-5.55766-.01611-8.323.17247-6.1921.42262-12.37523.973-18.56111,1.47967q-6.65841.54541-13.31426,1.116c-1.45287.126-2.90308.2948-4.34881.48521-.34668.04556-.88276.16707-.97389.39581-.73984,1.86744-2.80747,2.36509-3.89307,3.90195-1.09192,1.54583-2.46967,2.887-3.69379,4.34158-1.22413,1.45379-2.48486,2.88607-3.5991,4.42293-1.62616,2.24276-3.1407,4.56676-4.68735,6.86762a1.69792,1.69792,0,0,0-.27522,1.30364c.90782-.98642,1.854-1.94165,2.719-2.96476A42.40266,42.40266,0,0,1,63.46567,85.442a4.49043,4.49043,0,0,1,3.15323-.58521c4.44169.87113,8.89407,1.703,13.29825,2.74214,2.47863.58438,4.85625,1.58874,7.30542,2.31421a34.485,34.485,0,0,0,3.60175.65136c-.05719.63984-.12864,1.44043-.18583,2.08731,1.98446,1.05074,3.89307,2.06223,6.042,3.20054a10.31818,10.31818,0,0,0-.10457-5.429,5.256,5.256,0,0,1,1.42523-.06076,90.58292,90.58292,0,0,1,15.79737,5.18509c1.863.84177,3.80817,1.50027,5.70424,2.26957,1.08112.43781,2.114,1.00874,3.21573,1.37958,1.8183.61119,2.593,2.07294,3.09962,3.69827,1.26072,4.04231,2.51615,8.089,3.6313,12.17422,1.63595,5.99007,3.18535,12.00531,4.70162,18.02759,1.68875,6.70942,4.28084,21.22639,4.75351,28.83742.24036,3.86086.7381,7.70572,1.15175,11.554a8.21583,8.21583,0,0,0,.56655,3.00044c1.05879,1.9291-.25555,3.20593-1.14105,4.641a3.9193,3.9193,0,0,0,.23057-1.0276c-.02324-.52537.01336-1.217-.29133-1.54043-2.64122-2.81277-5.28427-5.63-8.06219-8.30612-3.52672-3.39533-7.19014-6.64866-10.76956-9.99038a13.96145,13.96145,0,0,1-2.20615-2.42776,5.16542,5.16542,0,0,0-6.69954-1.21873,11.4076,11.4076,0,0,0-2.761-.70589c-6.35917.1269-12.71834.3002-19.07395.563a15.40377,15.40377,0,0,0-4.27186.8586c-.7166.24392-1.2438,1.04543-1.95327,1.68252-.1796-.386-.34128-.73362-.52894-1.13565-1.05165.04913-1.03564.80416-.93646,1.52616.61834,4.489,1.04809,9.02363,2.64927,13.30977,1.07225,2.86822,2.25621,5.69619,3.41327,8.53221a2.86652,2.86652,0,0,0,3.0514,1.981c3.72152-.16268,7.44926-.18409,11.16986-.35208,4.74371-.21355,9.48285-.52894,14.22657-.755a2.58979,2.58979,0,0,1,1.41179.4432c.92026.59235,1.76111,1.3063,2.66088,1.93176,2.21678,1.53952,4.38094,3.16843,6.69067,4.55423,2.68138,1.6075,5.49691,2.9933,8.49112,4.60345,1.21873-1.72718,2.33562-3.3096,3.45252-4.892.14292.101.28684.20193.42976.30294-.81039,1.49212-1.54135,3.03438-2.4554,4.46044a1.65471,1.65471,0,0,1-2.59208.67817c-3.76-2.10871-7.54844-4.17277-11.24041-6.39668a38.39936,38.39936,0,0,1-4.51762-3.46066,4.88055,4.88055,0,0,0-3.63844-1.15706c-6.27253.39938-12.5477.78183-18.82736,1.06236-2.25969.101-4.53281-.10367-6.80055-.16259a1.73206,1.73206,0,0,1-1.69323-1.14727,13.32674,13.32674,0,0,0-1.12934-1.68252c-.62729,3.09513-1.16877,5.76407-1.73257,8.54474-2.4607-.23231-4.17095-1.98456-6.50209-2.41962-.21-2.25264-.42445-4.49622-.62281-6.74254a1.90214,1.90214,0,0,1,.07329-.864c.612-1.4654,1.23126-2.929,1.90586-4.36666.797-1.69853,1.72534-1.87549,3.26761-.69509a4.84744,4.84744,0,0,0,1.3438.7746c-2.15867-5.91148-2.95039-12.02224-3.45078-18.28845.613-.24393,1.12229-.44769,1.62891-.64962a4.39,4.39,0,0,0-.00531-.71843c-.40569-2.22034-.92393-4.42649-1.1911-6.66385a11.44133,11.44133,0,0,1,.44413-2.97894,11.18061,11.18061,0,0,0,.23587-1.71646c.00714-3.172.3056-6.36274-.70324-9.79742a19.25383,19.25383,0,0,0-.772,3.02633c-.23679,2.9093-.32975,5.83023-.52546,8.74393-.27248,4.05932-.58787,8.1159-.8899,12.243a10.67647,10.67647,0,0,1-7.71285-3.34172c-4.8009-4.808-9.75-9.47041-14.4866-14.34011-4.58908-4.71773-8.97-9.63657-13.48233-14.4285-.93546-.99365-2.08813-1.77814-3.06559-2.736a3.289,3.289,0,0,1-.81312-1.46c-.8801-3.3623.16524-6.50565,1.21159-9.63208.35565-1.06154.83545-2.08008,1.11424-3.17739-2.2928,3.25242-3.72243,6.92032-5.26378,10.53286a10.52964,10.52964,0,0,1-.4744,1.22047c-3.32479,5.68192-4.59,12.13048-6.82562,18.21708-1.88354,5.12965-2.51523,10.5185-3.22287,15.85374a96.25982,96.25982,0,0,0-.33862,12.27156,28.9896,28.9896,0,0,0,.57542,4.04935c.29306.14393.9167.45126,1.56184.76848-2.28476.7273-1.98895,1.1276-1.66194,3.65628.07237.00091.18135.03211.21355-.00448.65228-.74881,1.242-2.06672,1.95409-2.13553a8.64983,8.64983,0,0,1,3.74292.91405c2.64571,1.05166,4.17726,3.22835,5.44156,5.66316a73.08662,73.08662,0,0,1,5.27805,13.68418c1.20263,4.21029,2.12207,8.501,3.16476,12.75677A274.1925,274.1925,0,0,0,54.585,235.20628a17.52214,17.52214,0,0,1,.72017,2.29994c.88276,4.15484,3.57851,7.06506,6.6031,9.76878A270.99955,270.99955,0,0,1,84.21591,269c3.01023,3.38637,6.09109,6.71034,9.12282,10.07795a4.14358,4.14358,0,0,1,.98642,1.81382c-9.01384-9.56236-17.62821-19.484-27.79463-28.13061a40.50282,40.50282,0,0,1-.73545,5.8338,7.467,7.467,0,0,1-7.02032,5.35482c-5.33432-.016-10.66947-.1894-16.00379-.29124-.94982-.01784-1.89964-.0107-2.85038-.01427a6.0393,6.0393,0,0,1-4.23079-1.528c-.30559-.27961-.76664-.74871-.69866-1.015.38867-1.53156-.63984-2.55375-1.3546-3.54191a29.37672,29.37672,0,0,1-5.07521-11.54253c-.9275-4.58286-2.14357-9.11741-2.8351-13.73331A106.7684,106.7684,0,0,1,24.54583,213.257c.13852-4.59979.47806-9.19427.56746-13.79406.03659-1.88089-.54148-3.77514-.50223-5.656.08043-3.86535.38511-7.7253.60315-11.58709.13669-2.40625.67368-4.87061.32618-7.20359-.445-2.98607.0473-5.90882-.10284-8.85829a78.50781,78.50781,0,0,1,.09653-8.77166,56.86678,56.86678,0,0,1,.95339-7.804c.898-4.42741,1.50557-8.9379,3.38646-13.12495a28.53375,28.53375,0,0,0,1.11058-3.55436,63.17841,63.17841,0,0,1,4.31661-10.993c1.74327-3.36587,3.05313-6.95426,4.74993-10.34776A149.44866,149.44866,0,0,1,51.72313,92.00489c3.1988-4.51763,7.07129-8.55728,10.62125-12.82914.5843-.70324,1.05166-1.50384,1.57255-2.25886Q63.93037,76.67163,63.94557,76.429ZM50.77331,132.82072a41.70778,41.70778,0,0,1,3.6938,3.13356c3.01654,3.17291,5.8811,6.49147,8.88419,9.67774a69.49527,69.49527,0,0,0,11.86148,10.35316,5.73812,5.73812,0,0,0,3.27025,1.32066c.28419-3.86627.68092-7.63509.80865-11.413A68.39363,68.39363,0,0,1,80.72222,133.515a2.49147,2.49147,0,0,0-.0688-1.45644,10.7047,10.7047,0,0,0-1.60476-2.82613,14.56425,14.56425,0,0,1-3.52132-9.67143c-.12242-4.46227-.227-8.98795,1.51893-13.36348,1.51362-3.79032,3.52581-7.00523,6.9355-9.30242,1.10354-.74432,2.11768-1.62177,3.51867-2.70555-7.44742-1.771-14.44908-3.43559-21.47837-5.10741a6.25406,6.25406,0,0,0-.82566,1.17051C59.98543,104.02356,54.34112,117.6479,50.77331,132.82072ZM93.1636,105.72219A4.12043,4.12043,0,0,1,92.329,106.831c-.76216.49856-1.78426.69693-2.38567,1.32148a7.11526,7.11526,0,0,1-3.21481,1.66194,6.0275,6.0275,0,0,0-2.58056,1.48324,28.64207,28.64207,0,0,0-4.86074,8.20968,2.65549,2.65549,0,0,0-.2108,1.27409c.2162,1.79781.50835,3.58574.75676,5.37989.73362,5.2968,3.83324,9.19875,7.5467,12.71742a5.84191,5.84191,0,0,0,1.71729.75329,3.71455,3.71455,0,0,0,3.09514,3.68666,17.55977,17.55977,0,0,0,8.844-.96236,16.9043,16.9043,0,0,0,5.55775-4.18879c.81843-.87205,1.28927-.59152,1.81291.3529-2.00679,1.48682-3.91092,2.92724-5.84716,4.32018a1.46942,1.46942,0,0,0-.47624,2.098,5.72451,5.72451,0,0,0,4.73026,3.121,10.72936,10.72936,0,0,0,2.45091-1.60567,24.57457,24.57457,0,0,0,5.12343-9.5964,2.08778,2.08778,0,0,0,.05993-1.07307c-.428-1.52881-.91863-3.0406-1.37968-4.56053-.46553-1.53147-1.00783-3.04774-1.33575-4.60876a1.95911,1.95911,0,0,1,.55666-1.69945c2.33471-1.32148,2.13818-3.51693,1.98181-5.59966a4.77037,4.77037,0,0,0-1.8764-3.90021c-.46105,1.6128-.86226,3.01471-1.29293,4.52211a1.52346,1.52346,0,0,1-1.82993-.85869c-.771-1.31078-1.6128-2.5823-2.4661-3.84211a2.529,2.529,0,0,0-.92923-.856c-1.43677-.68888-2.90483-1.31169-4.2264-1.89873-.22956-2.1078-1.84868-2.90217-3.23274-3.74741a8.50211,8.50211,0,0,0-3.13082-.94269C94.01864,107.60207,93.22518,107.14816,93.1636,105.72219ZM31.54035,238.41047c-1.3805-.772-1.47968-2.14183-1.67448-3.38472-.65676-4.18613-1.2911-8.37757-1.82544-12.57981-.27522-2.16947-.33423-4.36574-.47-6.55122-.1108-1.78436-.19031-3.56964-.2841-5.35491-1.23931,2.752-1.09191,5.61046-1.2599,8.42049a74.1412,74.1412,0,0,0,1.661,19.38576,28.32384,28.32384,0,0,0,5.64889,12.45035,5.27963,5.27963,0,0,0,3.2515,2.11585c1.68691-.96858,3.55618-1.8076,4.00744-4.01815a32.166,32.166,0,0,0,.66381-10.01728q-.36178-3.27025-.62813-6.5504c-.23944-2.987-.344-5.98742-.66563-8.96553-.54147-5.01-1.14013-10.01627-1.8442-15.00657a47.2309,47.2309,0,0,0-2.62255-11.07342c-.44852-1.12138-1.06859-2.174-1.5752-3.18718-3.37393.814-5.28519,4.04322-5.18784,8.36156.42985.084.86857.16973,1.83715.35922-1.58874.11345-2.3089.56645-2.493,1.712a18.35238,18.35238,0,0,0,.08042,8.01754c.96236-.4271.27348-1.93633,1.61107-2.20524,2.00953,9.10049,1.15706,18.37967,2.1605,27.5034C31.94778,237.99408,31.70916,238.17451,31.54035,238.41047Zm66.47146-143.415c-.13048,3.47219-.13048,3.47219,3.09961,3.47851.07238,0,.14566.00091.21886-.00092,4.35321-.0947,7.53865,1.68253,9.29529,5.77479a2.35719,2.35719,0,0,0,.60222.898c1.92911,1.56633,2.35978,3.51419,1.83258,5.89455a4.98978,4.98978,0,0,0,.932,4.48542c2.2972,2.95661,1.77631,7.32419-.78357,10.2183a4.60614,4.60614,0,0,0-.49774,1.32688c1.81657.7058,3.508,1.36256,5.29681,2.05775,1.326-.81669,2.59657.0893,3.7367.69876,3.34437,1.787,7.208,1.50731,10.95274,3.34172a150.4673,150.4673,0,0,0-8.341-29.61029,6.63039,6.63039,0,0,1-1.98007-.43332,25.61912,25.61912,0,0,0-7.47606-2.99962C109.29338,98.52573,103.73919,96.74769,98.01181,94.99544ZM64.76308,88.85788a5.88713,5.88713,0,0,1-1.86926-.52446c-1.16246-.91048-2.02463-.34311-2.886.40386-2.14449,1.86122-4.36574,3.6464-6.38424,5.63718a38.9432,38.9432,0,0,0-4.54,5.31016,70.6357,70.6357,0,0,0-4.82322,7.81827c-1.68427,3.22652-3.26669,6.54948-3.70185,10.23614-.23048,1.95234-.42262,3.92528,1.26073,5.513,2.60371,2.45539,5.1333,4.98947,7.70755,7.47524.12324.11968.38062.1.77552.192C53.85948,116.489,59.64323,102.87007,64.76308,88.85788Zm19.66638,99.96585c.55035-2.85926.97838-5.42719,1.55919-7.96027.30734-1.33676-.28153-2.38841-.62016-3.56871-.30285-1.05706-1.24911-.84085-1.8442-1.28049-.39764-.29307-.82474-.54679-1.19823-.79163a3.50948,3.50948,0,0,0-2.00231,2.99238c-.30111,1.87284-.57276,3.7519-.78906,5.63544-.25994,2.27039.068,2.81461,2.08374,3.73844C82.40914,187.95168,83.21064,188.28948,84.42946,188.82373Zm15.76966-44.83132c-.80956,1.32331-.09114,2.64479.01253,3.77961.12507,1.36348,1.03821,2.67874,1.7129,3.961.6165,1.17225,1.3697,2.273,2.097,3.46148,2.21064-.17869,4.44708-.35921,6.83276-.55135a4.74653,4.74653,0,0,0-3.19249-2.65193c-.814.51467.687,1.96753-.96053,2.2293-.63086-.74962-.1528-1.53686-.11977-2.28292.03752-.85512.1001-1.70933.14923-2.51523C102.69559,147.54594,102.69559,147.54594,100.19912,143.99241Zm9.818,3.24976c1.62168.4798,2.95213.77644,4.2058,1.26969,1.50731.59326,2.79311.63883,3.85639-1.007-.59418-3.17116-1.0383-6.51828-2.73775-9.61872C114.35779,141.38778,112.35009,144.256,110.01712,147.24217Zm3.07454,4.55331c1.53687,1.24554,2.97006,2.25794,4.21743,3.46331,1.21068,1.16869,2.03369,2.73327,3.77331,3.83315-.86665-3.155-1.64849-6.00087-2.37589-8.64475-1.745-.3163-3.26669-.59152-4.8643-.881C113.60185,150.28012,113.37311,150.9592,113.09166,151.79548ZM25.30982,191.46769c1.477-4.79376,2.501-9.70985,4.7062-14.26773a2.15048,2.15048,0,0,0,.1947-1.25442,1.5168,1.5168,0,0,0-.66737-.95613,1.01793,1.01793,0,0,0-.92576.32975,10.82435,10.82435,0,0,0-1.52076,2.63408,35.59111,35.59111,0,0,0-1.55827,9.843C25.49839,189.02127,25.38842,190.24357,25.30982,191.46769ZM40.379,218.57345c.43781,5.874.86849,11.66312,1.29916,17.45218a31.11912,31.11912,0,0,0,.40213-6.55479c-.07421-3.12112-.21621-6.24041-.33241-9.36053-.0205-.54952-.05536-1.09813-.08665-1.7075C41.13309,218.47336,40.79089,218.51892,40.379,218.57345Zm43.13636-75.47011c1.259-1.24106,2.21594-2.18557,3.02816-2.98525-1.0168-1.06419-1.94073-2.03186-3.02816-3.17016ZM29.68087,216.62559c-.1635.03211-.32792.06432-.49143.09653.49326,3.16476.33872,6.39842,1.35195,9.51231-.07594-2.90034-.261-5.79262-.48163-8.68134A3.27675,3.27675,0,0,0,29.68087,216.62559Zm25.88172,42.32057c-.81944-2.95661-2.04439-4.48725-3.80908-5.30394C53.08478,255.4963,54.3241,257.22164,55.56259,258.94616Zm63.15554-116.86227q-.27475.05888-.54769.11793.65411,3.31446,1.30812,6.62808C120.06112,146.42191,119.42137,144.247,118.71813,142.08389ZM25.686,212.14191c.91139-4.69275.91139-4.69275,0-5.748ZM31.744,177.23482c-.11794-.08665-.235-.17421-.3529-.26086a24.03765,24.03765,0,0,0-1.22678,2.40443c-.28511.74167-1.04809,1.52881-.15555,2.56354C30.63517,180.2433,31.1901,178.73865,31.744,177.23482Zm-2.1605,18.46274c-.24128-.06249-.48338-.12507-.72465-.18848q-.65535,2.39107-1.31078,4.78123c.11968.03486.23853.06963.3583.10449Q28.74537,198.04668,29.58352,195.69756Zm12.60754,49.70826.48429-.01345a3.56773,3.56773,0,0,0-.48429-3.4936Zm6.059-27.65263c-.537,2.878-.537,2.878.73535,3.10941C48.737,219.81277,48.493,218.78344,48.25,217.75319Zm35.335-62.36035c1.409,1.37866,1.60658,1.36521,3.06475,0ZM35.9641,195.73425c.41548,1.26165.72739,2.20964,1.12677,3.42306C37.85038,197.39079,37.85038,197.39079,35.9641,195.73425ZM84.80652,92.76788c-.47-1.81831-1.78354-.91762-2.84324-.98816Q83.384,92.27421,84.80652,92.76788Zm50.23179,55.3392c-.08582.00979-.17247.01967-.25911.03038q.24114,1.77978.48154,3.55975c.10724-.01336.21355-.02772.32079-.04108Q135.30951,149.88156,135.03831,148.10708ZM85.18,105.094c-1.35012.11355-1.45113.25738-1.69058,2.57608C84.20786,106.57457,84.65372,105.89548,85.18,105.094ZM34.31918,183.99163q.25732-.06835.51467-.135c.10366-.74871.32609-1.544-1.20986-2.03716C33.9251,182.75945,34.12173,183.376,34.31918,183.99163ZM37.89952,259.527c.10988,1.71373.10988,1.71373,1.82187,1.98272C39.0736,260.80463,38.58931,260.27752,37.89952,259.527Zm17.487-19.47159c-.14566.01611-.29132.0313-.43607.04648q.23592,1.43269.47359,2.86466c.14291-.02681.28684-.05362.42975-.08043Q55.62065,241.4707,55.38655,240.05539ZM89.0266,91.87707c-.30651.54687-.58256,1.03647-.85778,1.52616.08043.12242.16085.24392.24119.36635.37532-.13313.88815-.15729,1.09731-.4218C89.90314,92.84565,89.77806,92.30866,89.0266,91.87707ZM35.5326,253.77718c.25912,1.0963.77909,1.41535,1.89864.73087C36.61637,254.19357,36.074,253.98533,35.5326,253.77718ZM121.29238,136.159q-.19434.34173-.38868.68265a8.156,8.156,0,0,0,1.08917.45474c.06524.01875.22966-.31091.3476-.47981Q121.81648,136.48688,121.29238,136.159ZM47.12508,254.46605c-.30825,1.87906-.30825,1.87906,1.06859,2.24989C47.81844,255.927,47.53782,255.33545,47.12508,254.46605ZM113.54466,128.623q-.08838.21177-.17686.4218c.63974.32609,1.2804.65227,2.2552,1.14818C115.10568,128.83029,114.25056,128.85975,113.54466,128.623ZM43.576,207.99155l.28949-.08043q-.26145-1.19416-.52272-2.38933c-.1001.02059-.20019.04026-.29937.06084Q43.30887,206.78751,43.576,207.99155Zm53.057-109.74543c-.19388-.05279-.38685-.10458-.58073-.15728q-.18637.73974-.3744,1.4805c.17961.04922.35921.09744.53882.14658Q96.42439,98.98139,96.63305,98.24612Zm15.18453,9.64544c-.09122.02059-.18235.042-.2744.0635q.14479.74647.28776,1.49487c.126-.03038.25289-.06076.37889-.09113Q112.01411,108.62427,111.81758,107.89156ZM44.89212,257.51205c.2797.965.2797.965,1.25011.96236Q45.51763,257.99323,44.89212,257.51205ZM82.22779,99.46037c1.577-.40835,1.77722-.63261,1.2331-1.06511C83.06059,98.74112,82.64419,99.10115,82.22779,99.46037ZM74.6713,87.96972l.05362-.42088q-.76926-.10855-1.53778-.21794c-.01427.14831-.02855.29754-.04282.44668Q73.90822,87.87283,74.6713,87.96972ZM44.3748,220.98593c.60488-.65319,1.23392-1.29467,0-2.01484Zm78.72783-59.75756c.72383-.7961.72383-.7961-.16615-1.553C122.99723,160.24461,123.04188,160.66274,123.10263,161.22837Zm-20.046-54.165c.64423.34128,1.2062.49142,1.61189-.34586C103.90718,106.06255,103.4605,106.39853,103.05663,107.06334Zm-5.8865-.30029c.96318.81221.96318.81221,1.55736-.092C98.16991,106.70412,97.733,106.73,97.17013,106.76305ZM84.70194,152.7927c-.46462,1.27948.33954,1.24727.85687,1.41617.084.02681.22251-.11437.4486-.24127C85.62944,153.62815,85.28184,153.31541,84.70194,152.7927ZM27.56685,191.77686q-.19969-.09512-.40121-.19123-.21315.8269-.42619,1.65389c.10183.02864.20458.0581.30651.08665Q27.3059,192.55156,27.56685,191.77686ZM61.5813,250.47919c-.0849.03935-.17064.0786-.25555.117.13222.19928.26717.39672.39765.59774.13578.21.268.42354.402.63535q.1448-.1032.29133-.20641Q61.99858,251.052,61.5813,250.47919ZM112.95323,96.71548c-.03394.159-.0688.31813-.10275.47715q.54541.15812,1.09009.31631.06024-.28287.11876-.56737Q113.5072,96.82889,112.95323,96.71548ZM52.966,244.54447c-.101.04465-.20285.08839-.30386.13222q.27888.6983.55849,1.39659c.11254-.04739.22609-.09479.33863-.14209Q53.26311,245.23825,52.966,244.54447Zm-4.46584-6.71664c-.08665.026-.17339.05279-.25912.07868q.20244.77462.4057,1.54931c.11611-.03477.23231-.06881.34841-.10357Q48.74731,238.58957,48.50018,237.82783Zm5.68722,23.90073c-.00091-.08573-.00091-.17064-.00091-.25646q-.855-.09374-1.7119-.18848c-.00988.14831-.01885.29663-.02864.44494Zm-2.67068-9.65c.12681-.02141.2528-.04374.37971-.06524a11.41729,11.41729,0,0,0-.14292-1.31343c-.0215-.10009-.31191-.14209-.72648-.31273C51.23528,251.1064,51.37554,251.59252,51.51672,252.07855Zm69.4406-112.50367c.11529-.04648.23139-.09388.34668-.14027l-.42354-1.024c-.109.04465-.21712.09021-.32517.13587Q120.75622,139.06113,120.95732,139.57488Zm3.25333,14.44368c-.12956.02141-.26.042-.38959.06259q.07906.7197.15728,1.4385c.14832-.0205.29755-.04108.44669-.06158ZM86.89374,99.39605q-.11254-.1367-.22518-.27257-.53073.41419-1.05971.83014c.08582.10449.17064.20907.25647.31448Q86.38,99.83124,86.89374,99.39605Zm-52.16,88.76918.29489-.00265v-1.79864c-.09836.00266-.19662.00449-.29489.00622Zm4.809,69.12879c.15545-.17238.31-.34485.46553-.51732q-.48927-.34846-.97937-.69693c-.10358.12059-.20816.24036-.31182.36Q39.12987,256.86746,39.5427,257.294Zm36.954-142.802.20642.00805v-1.20629l-.12242-.00265Q76.53928,113.89157,76.49674,114.492Zm35.0179.53973c-.11977-.21355-.23854-.4271-.3583-.64065-.32436.24393-.6532.48246-.96236.74514a.91079.91079,0,0,0,.19306.32436C110.7694,115.33725,111.14115,115.18006,111.51464,115.03174Zm17.86591,18.52259q.07371-.19434.1474-.38776-.75731-.22521-1.51453-.4486c-.03212.09918-.06341.19836-.0947.29754Q128.64913,133.28492,129.38055,133.55433ZM49.055,253.54843c-.1259.05627-.25189.11346-.37788.16973q.27065.51069.54056,1.02128c.1108-.058.22069-.11611.33149-.17421Q49.30257,254.05728,49.055,253.54843Z"/><path class="a" d="M195.55538,298.56568a.79593.79593,0,0,0-.38071.17421c-1.8388,1.75572-4.13161,1.16694-6.27335,1.15889a38.04636,38.04636,0,0,1-7.0409-.69162c.50569-.24842,1.01148-.49765,1.56448-.7693a2.48949,2.48949,0,0,0-.57185-.19032c-2.18456-.134-4.36922-.285-6.55662-.36808a4.74085,4.74085,0,0,1-3.44895-1.82728c-.34045-.38154-.63974-.806-1.01414-1.15084-1.45552-1.33758-2.05866-1.37518-3.78584-.24667-.42619-.34128-.87205-.705-1.32505-1.06053a7.43476,7.43476,0,0,0-5.00823-1.87549,8.108,8.108,0,0,1-1.736-.22874c-2.29373-.41109-3.78941.93454-3.80552,3.29706-.00713.93464.36452,2.148-1.20894,2.70912-.12416-1.02128-.23322-1.91923-.34311-2.81726-.09021-.067-.17961-.13405-.26982-.20194-.218.49143-.43607.98286-.78367,1.76917-.58786-1.015-.79254-1.368-1.00069-1.72808-.48786.66746-.9748,1.33227-1.72983,2.36252-.33066-1.98629-.58173-3.49909-.84259-5.06541a6.23584,6.23584,0,0,0,.201,5.92319c.64688.06514,1.35635.13669,2.072.20815.27614.67369.00357,1.01231-.67011.92036-2.4607-.33689-4.91793-.69784-7.36884-1.10171a2.91459,2.91459,0,0,1-1.133-.60945c-1.45644-1.07042-1.44574-1.07847-1.89425.64066-.02681.10549-.21355.168-.596.44769a7.39117,7.39117,0,0,1-.54147-1.77457c-.18848-6.35286-.51732-12.70938-.43424-19.0605.08491-6.45478.94625-12.82823,3.95291-18.70494,2.29372-4.48,7.2304-7.72356,13.41261-5.79619a21.76526,21.76526,0,0,1,8.00236,4.7901c2.40626,2.131,4.69009,4.4006,7.10084,6.52542,5.01792,4.422,9.05574,9.725,13.36613,14.77874a45.2407,45.2407,0,0,1,3.52673,5.01711c1.694,2.64479,3.36669,5.30843,4.92679,8.03364C195.00494,293.95418,196.49981,295.78593,195.55538,298.56568Zm-40.085-32.27036c1.77182-.87113,1.9345-1.42066.69875-2.441-.23139.81934-.46013,1.62973-.68448,2.43928v4.23884C156.11722,268.816,156.44157,267.53555,155.47034,266.29532Zm14.79128-2.07833c8.24363,8.30529,14.69036,18.05806,21.85461,27.22818A103.90736,103.90736,0,0,0,170.26162,264.217Zm-8.56707-7.87362c-3.775-3.1568-9.95552-3.927-12.5789-1.63074.27787,0,.52986.07869.68531-.0107,2.87087-1.66642,5.42545-1.03382,7.84241.98642A3.72994,3.72994,0,0,0,161.69455,256.34337Zm-20.90469,25.12029c-.72822,3.15415-.185,12.59775.62007,14.17121.13587-.04108.39224-.09113.38959-.12325Q141.313,288.48718,140.78986,281.46366Zm27.68291,1.84694c-.12589.05179-.25106.10367-.377.15545a14.542,14.542,0,0,0,.9597,2.5242c1.19815,1.98364,2.50005,3.90561,3.7992,5.82575.17512.25912.57185.36992.86583.54953.084-.093.1689-.18583.25372-.27879Q171.22394,287.69863,168.47277,283.3106ZM155.985,288.47245a2.56275,2.56275,0,0,0,3.18453-.19031c-.69336-1.72717-2.761-.9016-3.65006-2.17038C155.667,286.86056,155.81528,287.61019,155.985,288.47245Zm14.09976,1.18122c-.63-1.778-1.8916-2.51258-3.54192-3.09687C167.61774,289.349,168.59346,290.18352,170.08476,289.65367Zm12.93271,7.29289c.07686-.218.1528-.436.22966-.65493-1.88171-.1108-3.08443-1.30986-4.39164-2.34724-.04017-.03221-.22517.11967-.419.22782.24576.65319.49591,1.31883.72913,1.93981.72548.21978,1.34024.45035,1.97559.588C181.75583,296.83219,182.39118,296.868,183.01747,296.94656Zm-28.311-10.25847c-.11355-2.06845-.20917-3.79837-.30478-5.5282-.08838.0054-.17686.00988-.26534.01519-.25289,2.02381-.50661,4.04761-.79967,6.39668C154.03266,287.12234,154.43652,286.8623,154.70644,286.68809Zm-1.01863-25.98794c.14474.0581.28858.11528.43332.17329a15.81308,15.81308,0,0,0,1.14554-1.94073,1.4866,1.4866,0,0,0-.11-1.17581.95937.95937,0,0,0-.931-.22426,1.78924,1.78924,0,0,0-.85512,1.06858A9.07989,9.07989,0,0,0,153.68781,260.70015Zm35.98913,35.73357a4.20455,4.20455,0,0,0,2.86364.856c-.76125-1.2858-1.44564-2.441-2.25428-3.80551C190.05756,294.59035,189.88957,295.40348,189.67694,296.43372Zm-26.78059-30.88894c-.08847.08939-.17686.17778-.26625.26625.52537,1.09366,1.04278,2.19006,1.577,3.27923.41906.85329.94534.88815,1.73614.185C164.87011,267.96174,163.88369,266.75372,162.89635,265.54478Zm3.46863,2.89146c-1.27327-3.67952-1.51893-3.99582-3.31491-4.32283C164.24913,265.67791,165.3071,267.05666,166.365,268.43624Zm14.69036,20.81357c-.02059-1.71016-1.0695-2.744-2.11229-3.78493C179.7043,286.70777,179.607,288.44208,181.05534,289.24981Zm-36.34743-28.236c-.453.14027-1.14105.14118-1.31974.44312a7.41239,7.41239,0,0,0-1.29824,4.44617C142.81193,264.2179,142.92264,262.19675,144.70791,261.01379Zm5.69976,23.77914c-.14566-.00174-.29133-.00265-.4369-.00448q.38058,3.14441.76308,6.28771c.17686-.02141.3529-.04291.52986-.06432Q150.83482,287.90243,150.40767,284.79293Zm9.25237-15.5356c-.77735,1.74145-.46645,2.52685,1.142,3.57229C160.37847,271.50457,160.01926,270.38136,159.66,269.25733ZM144.808,284.1014c-1.67621.663-1.67621.663-1.50649,2.50453C144.70617,286.42541,144.64094,285.34246,144.808,284.1014Zm17.35482-.11976c-.16533-.84168-.31457-1.59854-.55493-2.82175-.6379.70407-1.1803,1.02933-1.18478,1.36083C160.4115,283.40622,160.99589,283.90121,162.16283,283.98164Zm5.07072-20.06128c.8113.63443,1.30089,1.78344,2.86191,1.72543C169.168,264.65214,168.7641,263.42719,167.23355,263.92036Zm17.084,29.65676c.10907-.16085.21712-.32252.32528-.48338-.42-.545-.84077-1.091-1.31078-1.70128-.48255.31631-.85156.5585-1.46266.95962C182.86824,292.85155,183.59289,293.21434,184.31754,293.57712ZM147.39918,288.821c.672-1.84511.62547-2.1659-.402-3.51958C147.15077,286.6461,147.275,287.73353,147.39918,288.821Zm13.58417-21.60619c.13935-.0786.2797-.15728.419-.23588q-.8859-1.63114-1.77274-3.26047c-.14739.08226-.29571.16442-.4432.2475Q160.08445,265.59035,160.98335,267.21477Zm16.82048,13.23035.3422-.32344a10.31814,10.31814,0,0,0-2.06132-2.66455c-.13761.10906-.27522.21712-.41283.3271Q176.73745,279.11371,177.80383,280.44512Zm-18.04635-.67734c.16708-.02407.33415-.04731.50122-.07146q-.256-1.8388-.512-3.67769-.25061.03747-.50213.07329Q159.50189,277.92935,159.75748,279.76778Zm3.18984-1.13831q-.28684.11254-.57277.22426c.4057.94086.04648,2.132,1.36174,2.78688Q163.34089,280.13545,162.94732,278.62947Zm-5.13056.77644c-.26269,2.50544-.26269,2.50544.87205,3.382C158.37159,281.55845,158.07944,280.4228,157.81676,279.40591ZM187.93009,297.438c-.008-.17513-.01611-.35025-.02324-.52446q-1.04.07233-2.08017.14475c.00366.126.00631.25289.00988.37971ZM147.317,277.64744l-.3002.10458q.24786,1.62841.49408,3.25782c.13129-.02242.26268-.04383.39316-.06524Q147.6105,279.296,147.317,277.64744Zm3.24793,2.63418q.28272.07631.56554.15188c.13944-.797.27879-1.594.4691-2.686C150.09045,278.51959,150.64711,279.481,150.565,280.28162Zm10.44256-5.17887-.48256.13139q.34847,1.21159.69519,2.4241c.14567-.04026.29041-.08043.43608-.11977Q161.33177,276.32016,161.00751,275.10275Zm15.18617,18.70137q.71313.80548,1.42606,1.611C177.38835,293.94521,177.38835,293.94521,176.19368,293.80412Zm-17.50579-33.112c.59153-1.21067-.18766-1.29384-.906-1.33666-.18583-.0108-.38868.25994-.73627.51192C157.70239,260.1971,158.17506,260.43472,158.68789,260.69209Zm35.5924,36.59044c-.57093-1.36439-.57093-1.36439-1.7075-1.82C193.2215,296.154,193.75135,296.71782,194.28029,297.28253Zm-19.90491-7.45374c.71486,2.00423.71486,2.00423,1.82544,1.55562C175.67993,290.9412,175.20818,290.53917,174.37538,289.82879Zm-27.81878-7.71194c-.18227.97041-.28859,1.53686-.48247,2.56885C147.18654,283.48216,147.18654,283.48216,146.5566,282.11685Zm26.94408-7.26251c-.168-.94351-.445-1.7495-1.2804-1.97733q-.17568.17554-.353.35117Q172.68486,274.04161,173.50068,274.85434Zm-26.09162,19.58147c.09735-.98825.08573-1.6182-.66929-2.081C145.99993,293.31892,146.67545,293.71381,147.40906,294.43581Zm14.61616-4.49173c.02589-.1162.0527-.2314.07859-.34668q-.9596-.26542-1.91922-.52894c-.03843.159-.076.319-.11355.478Q161.04808,289.74489,162.02522,289.94408Zm-19.85395-22.841-.59509-.06158q-.06972.74785-.13853,1.49569c.15811.01876.31631.03843.47359.0581Q142.0412,267.84865,142.17127,267.10305Zm22.463,13.32862c-.12241.02947-.24393.0581-.36543.08757q.24937,1.19292.49856,2.38393.25871-.06039.51558-.12059Q164.95864,281.60708,164.63423,280.43167ZM174.95,295.11215c.24749-.91048.14831-1.58151-1.29477-1.83258C174.24582,294.11594,174.5979,294.61359,174.95,295.11215Zm10.04134.94717q.12324-.142.24658-.28327-.83774-.29618-1.67621-.59152c-.03486.09918-.07063.19836-.10549.29754Q184.22422,295.77028,184.99132,296.05932Zm-26.76091-32.58656c-.19927,1.10527-.40835,1.68874.806,2.06223C158.755,264.81565,158.58249,264.37253,158.23041,263.47276Zm32.57055,35.596c.03212-.10549.06341-.21273.09562-.31813-.27614-.042-.55044-.09653-.8274-.11977a2.51662,2.51662,0,0,0-.65585.01254,3.58823,3.58823,0,0,0-.58978.21181c.02415.07054.04831.142.07237.21355Zm-36.40369-43.4339c-.05.1474-.09918.29572-.14923.444q.79877.28012,1.59761.5585c.05271-.15728.10632-.31548.159-.47267Q155.20056,255.89924,154.39727,255.63482Zm-2.49474,8.38655c.093.08847.18675.17686.27879.26442a2.93055,2.93055,0,0,0,.44586-.71568,3.31593,3.31593,0,0,0,.01693-.8801l-.23945-.02947Q152.15407,263.34142,151.90253,264.02137ZM188.65382,290.575c-.22874-1.21077-.22874-1.21077-1.34206-1.96315C187.83713,289.38119,188.17219,289.87079,188.65382,290.575Zm-43.38568,2.96466c-.15362-.06341-.30825-.12691-.462-.19032q-.21836.57492-.43781,1.14819c.13761.05627.27522.11163.41191.16707Q145.0243,294.10295,145.26814,293.53961Zm11.97494-32.29177c-.1269.08756-.2529.17513-.37971.26269.07054.19214.08756.46105.22517.55666a2.49568,2.49568,0,0,0,.74963.22874Q157.54062,261.77194,157.24308,261.24784Zm.13312,5.65776c-.17777.00714-.35647.01519-.53433.02233q.07644.45977.15371.91853c.1269-.02855.35921-.04465.3637-.08665A7.35851,7.35851,0,0,0,157.3762,266.9056Zm-.05087-9.48916c-.051.12242-.101.24484-.152.36635.31721.13221.63178.269.95613.37888a2.61392,2.61392,0,0,0,.17065-.35024Q157.8136,257.61435,157.32533,257.41644Zm-1.74511,19.678c.06972-.00357.13944-.0054.20907-.00805q-.03609-.62734-.07237-1.25451c-.04557.00174-.09113.00357-.1367.00449Z"/><path class="a" d="M167.24782,164.286a27.31662,27.31662,0,0,0-8.25881,4.68653,61.7207,61.7207,0,0,1-5.46827,3.53743c-.236.14475-.638.01967-1.14014-.38959,1.25981-.90691,2.5188-1.813,4.13517-2.9772-1.06684.24924-1.71738.4003-2.30524.53791-.13761-.17869-.2002-.22792-.21539-.28867a.27.27,0,0,1,.02773-.21081,3.275,3.275,0,0,1,.61028-.59417c4.63465-2.89055,9.27643-5.7704,14.06571-8.744-.33149-.57451-.63709-1.10528-1.04269-1.80934-1.1491.62995-2.18822,1.13117-3.15506,1.745-2.22034,1.40822-4.63465,2.626-6.52625,4.39612a19.33047,19.33047,0,0,1-4.19235,3.19789,4.85722,4.85722,0,0,1-1.11159.29041,2.92354,2.92354,0,0,1-.13578-.369c-.01071-.06523-.02141-.15993.01427-.19836a3.7331,3.7331,0,0,1,.61568-.60763q6.91574-4.61183,13.83789-9.20415c-.462-1.96571-.92036-3.919-1.40465-5.98029-.553.06789-1.0114.12508-1.47693.18226-.06523-3.465-3.541-5.9553-6.58617-4.68378-2.05236.85778-4.01184,1.9389-6.11076,2.96741.26543.24923.30559.318.35656.32792.14209.02671.28858.02946.43241.042l-.04465-.03486c-.9963,1.01772-2.31239,1.16777-3.96719,1.59762,1.43851-2.0185,3.38463-2.60014,5.03321-3.55893,1.6333-.94982,3.40156-1.66907,5.34676-2.60188-2.06314-2.65293-5.018-3.50174-7.75393-4.69641l.05718.05453c-.21895-.33679-.4378-.67368-.9382-1.44216,2.0873,1.02137,3.85913,1.74959,5.48529,2.72256,1.73614,1.0383,3.21847,2.551,5.02424,3.40787,1.88.89182,2.78871,2.68148,4.322,4.04853,1.5913-2.039,3.0406-3.93416,4.53638-5.79263a16.26907,16.26907,0,0,1,1.51362-1.46266l-.04556-.04383c-1.27866,1.829-2.46793,3.73049-3.86535,5.46389-.974,1.208-1.3546,2.27038-.58347,3.72956a11.35405,11.35405,0,0,1,.49591,2.33206c.30193,1.13565.11162,2.53042,1.57438,3.10941.14117.05627.14831.47267.20366.72556a11.24754,11.24754,0,0,0,2.05153,4.01907,64.83615,64.83615,0,0,1,6.51645-3.38463c3.21308-1.24655,4.90539-4.04139,7.03734-6.36366,2.95661-3.2203,5.70241-6.63256,8.55984-9.9449a3.20322,3.20322,0,0,1,.898-.51641l-.04557-.04108a34.08373,34.08373,0,0,1-2.065,3.01288c-3.21389,3.7841-6.48424,7.52081-9.9966,11.57912a12.86169,12.86169,0,0,0,1.63421-.28949,25.0469,25.0469,0,0,1,12.78358-.64688,10.66066,10.66066,0,0,1,3.08443,1.08652c5.00009,2.70106,9.49356,6.0339,12.73079,10.81064a29.09112,29.09112,0,0,1,1.81208,3.25416,1.31173,1.31173,0,0,1-.19123,1.0124c-2.29628-3.25781-4.0003-6.94886-7.9416-9.33106.82027,1.80586,2.17039,2.7297,2.90043,4.04587a39.56914,39.56914,0,0,1,1.75307,4.1468c-.12873.07868-.25738.15636-.386.235-.46013-.37532-.91945-.75146-1.53859-1.25716.54586,1.49212,1.03106,2.81726,1.59312,4.35229.38777,0,.95871.03212,1.52607-.00539,8.75115-.57186,17.513-1.0168,26.248-1.779a149.95949,149.95949,0,0,1,17.28693-.84441c5.18417.14657,10.35948.58081,15.53917.85777,1.75307.09388,3.51062.08583,5.26551.13944a10.13272,10.13272,0,0,1,1.06328.14475c-.1743.96949-.81669.78449-1.35634.74871-3.57411-.23761-7.1464-.49856-10.72043-.7273a121.78172,121.78172,0,0,0-16.43007-.25463c-7.35629.52537-14.7082,1.11689-22.06541,1.62534-4.08512.28235-8.17747.46635-12.268.67185-2.99055.15015-5.99016.18409-8.97541.41018-3.34977.25372-6.68526.70233-10.03329,1.00069-4.6525.41467-9.306.84259-13.96654,1.12495-4.145.252-8.30346.27348-12.45117.479-1.36979.06789-2.72256.52354-4.09235.57808-4.1575.16533-8.31865.22608-12.4789.3163-1.082.02324-2.165.00357-3.45608.00357-.41366-1.87009-.90518-3.76169-1.2438-5.681-1.09008-6.18579-2.11137-12.38329-3.18361-18.57264-1.22138-7.05161-2.32849-14.12738-3.7411-21.14148-1.7603-8.73689-3.78319-17.42189-5.68814-26.13-.26543-1.21342-.428-2.45539-.772-3.64557a1.606,1.606,0,0,1,1.21882-2.17661,7.46576,7.46576,0,0,1,1.92187-.395c5.606-.46818,11.2244-.81843,16.8214-1.38406q12.09205-1.22093,24.15629-2.70911c3.83854-.47715,7.6199-1.42515,11.45935-1.88976,5.07338-.61477,10.17273-1.2438,15.27292-1.36531a227.45076,227.45076,0,0,0,27.05662-2.48037c2.57955-.37175,5.23423-.19041,7.846-.3798,2.62063-.19031,5.23147-.51732,7.84506-.80508,1.81556-.19919,3.62316-.53964,5.44422-.629,4.07084-.20194,8.14709-.2895,12.22243-.40744.176-.00448.35739.1528.84258.37441a10.0401,10.0401,0,0,1-1.612.50213c-2.10331.23587-4.21651.40029-6.31891.64605-.65493.07594-1.52972-.143-1.687.96227-.02946.20467-.53067.38154-.84167.49948a4.739,4.739,0,0,0-1.896,1.03207h3.93856c-.31988,1.007-.94443.83628-1.44839.8586-4.38358.19123-8.77614.25025-13.1481.588-5.90252.45574-11.78636,1.13656-17.68092,1.6968-3.47576.33057-6.956.60936-10.43359.92484-2.03725.18583-4.07176.39847-6.1501.604-.07146.64331-.13761,1.27591-1.03647,1.21342-5.28427-.37083-10.50687.49316-15.751.86134-5.68366.39847-11.34764,1.06145-17.02681,1.53687-4.65789.38959-9.33106.60845-13.98712,1.01771q-9.49854.835-18.97741,1.86835c-2.09179.23231-4.14506.8059-6.43429,1.26787a16.28607,16.28607,0,0,0,.19745,1.99882c1.32065,5.765,2.75211,11.50675,3.97981,17.29133,1.1061,5.211,2.0658,10.45509,2.96283,15.70624,1.00792,5.89995,1.79149,11.83732,2.82266,17.73279,1.0436,5.96336,2.291,11.89094,3.39808,17.84442.18756,1.01149.63169,1.68792,1.63869,1.7236,2.77262.09827,5.5487.11346,8.324.13222.15106.00091.30469-.25994.42711-.37166a5.29555,5.29555,0,0,1-1.09631-.96858,8.45785,8.45785,0,0,1-.61567-1.6709c.92932-.73536,1.94877-1.54126,2.96831-2.34633-2.61084.3636-4.47206,2.38384-7.14192,2.84132a5.21685,5.21685,0,0,1,.89172-.93729c2.41249-1.51536,4.86879-2.96017,7.26252-4.50326a22.28662,22.28662,0,0,0,2.03634-1.80494c.31987-.26809.75054-.402,1.07673-.6639.9328-.74871,1.838-1.53146,2.75376-2.29994.91587-.64331,1.83175-1.28662,2.84233-1.997-.445-.59774-.73005-.9802-1.16338-1.56184-2.15967,1.23749-4.24689,2.43307-6.33419,3.62764.0635.135.126.26992.18949.40478.52089-.17329,1.0436-.33862,1.56092-.5218.61477-.21712,1.22322-.45391,1.838-.67369C166.87342,163.38357,167.18707,163.64891,167.24782,164.286Zm.10275,2.32319a1.69178,1.69178,0,0,0-1.62982,1.58151q.78682-.82168,1.57081-1.64675,1.0414-.4665,2.08373-.9329c-.0742-.126-.14749-.252-.2216-.378C168.43444,165.51543,167.59185,165.612,167.35057,166.60918Zm28.09758-7.057q-1.26525.20642-2.5296.41366c.0054.16981.01071.33862.017.50927q3.00085.59385,6.00262,1.18752c.20467,1.20272,1.108,1.1589,2.25977,1.326a2.35956,2.35956,0,0,0-2.30534-1.27949c-.83271-.34942-1.66011-.71394-2.5027-1.04278-.55584-.21529-1.09192-.41191-.9909-1.17133,1.00426.26442,2.00861.52894,3.36761.88724C196.95994,158.64159,196.62754,158.58175,195.44815,159.55216ZM181.15452,98.7036c-2.31513-.18409-6.40291.33058-7.66464,1.2384,2.81726-.33149,5.14941-.60222,7.47972-.89446.0625-.008.09736-.24393.159-.361h3.818c-.00357-.09826-.00622-.19571-.00888-.29306Q183.04524,98.549,181.15452,98.7036ZM207.03523,173.742c-.21081-.65219-.285-.99621-.42884-1.30721-1.2277-2.65641-3.40613-4.53455-5.42545-6.53072a14.66381,14.66381,0,0,0-9.64727-4.19145,25.04246,25.04246,0,0,0-8.40183,1.09988,31.23769,31.23769,0,0,0-10.02076,5.07969c-1.69862,1.29915-3.30868,2.71451-4.959,4.07707q.1393.17156.27879.34229,1.45149-1.09233,2.903-2.18466c1.85765-1.3912,1.997-1.4439,3.2515-1.2965-1.25716.83993-2.54826,1.703-4.22721,2.8244,1.11954.12864,1.71015.19653,2.70828.31008-1.46366,1.13656-2.149,2.65284-3.94669,2.88423v-1.11506c-.8337.07146-1.58864.13578-2.4402.20815-.3002.79346-.61476,1.62534-1.0329,2.73153C179.50685,175.69173,193.17319,174.72315,207.03523,173.742Zm-27.82318-14.66529c1.3331-.29215,2.458-.53873,3.583-.78541,1.13566-.24841,2.56345-.15636,3.34264-.82291,1.39742-1.19549,2.77618-1.03464,4.28888-.77552a21.67561,21.67561,0,0,0,3.2247.58072,7.9573,7.9573,0,0,1,5.622,2.01493,1.883,1.883,0,0,0,.7381.44852c1.39834.38154,2.80738.72556,4.179,1.074C196.87686,153.17689,183.45354,154.91294,179.21205,159.07675ZM216.70666,93.7231c-1.00161,0-1.93268-.06341-2.85121.01692a5.52251,5.52251,0,0,1-2.89585-.17329c-1.61729-.6692-2.79046-.042-3.6679,1.45287A21.02145,21.02145,0,0,0,216.70666,93.7231Zm13.02577-1.03382c2.53581.89081,4.85982.65045,6.15449-.70763A13.45978,13.45978,0,0,0,229.73243,92.68928Zm-52.37,67.374c-.09205-.21986-.18318-.43964-.27522-.65941a19.736,19.736,0,0,0-5.17612,2.85834q.10045.19969.20009.4003Q174.73684,161.36237,177.36246,160.06326ZM201.113,95.2197a2.56707,2.56707,0,0,0,2.88332-.56023C203.02065,94.74264,201.944,94.14572,201.113,95.2197Zm-33.39164,3.53569-.00275-.16177h-3.54995c.00091.05362.00091.10724.00183.16177Zm-6.537,77.4403c1.07407-.10009,1.42158-.588,1.4073-1.59221C161.44349,174.64456,161.17458,175.19765,161.18437,176.19569Zm3.76086-4.2478c-1.42249.69876-1.42249.69876-1.45827,1.95052C163.99,173.22472,164.32242,172.77977,164.94523,171.94789Zm26.69293-76.02943c.00539.0947.01162.18857.017.28327q.73043-.06436,1.46266-.12864l-.02141-.236Q192.36726,95.8787,191.63816,95.91846Zm-21.993,2.18557.06432.35647q.7694-.05764,1.53869-.1152l-.02415-.31813Q170.43455,98.066,169.64512,98.104Z"/><path class="a" d="M59.1518,215.15213q4.195,4.00754,8.3892,8.01489c.15911-.07054.31722-.14118.47633-.21172,0-1.42789-.08848-2.86374.01427-4.2845.56829-7.86739,1.074-15.7411,1.83258-23.58974.32262-3.331,1.27592-6.596,1.82279-9.91087.89172-5.40047,1.96131-10.78027,2.12921-16.27992a13.2668,13.2668,0,0,1,.51292-2.38833q.2841.04818.56829.09735c-.05.57094-.12865,1.142-.14658,1.71464-.21977,7.04631-1.72534,13.90944-3.03795,20.79133a139.66767,139.66767,0,0,0-2.425,23.28414c-.05719,2.77079-.26269,5.54431-.52629,8.30439a6.19566,6.19566,0,0,0,2.442,5.67111c7.15794,6.2502,14.09884,12.75229,21.30774,18.94174,5.04034,4.32813,10.36835,8.324,15.61236,12.41091a26.64546,26.64546,0,0,0,3.39186,1.99078c.55932.31538,1.21251.54147.86848,1.72717-1.74419-1.099-3.42845-2.04887-4.99212-3.16842-2.66977-1.91035-5.36827-3.8046-7.86914-5.924-4.90273-4.15484-9.68579-8.45086-14.5027-12.7058-4.38184-3.87167-8.74045-7.76913-13.11507-11.64885-.85869-.76216-1.74327-1.49486-3.03529-2.59922V240.185c-1.20354-.50121-.8694-1.27857-.87388-1.84063-.02946-3.87248-.03569-7.7468.03669-11.61929a3.87379,3.87379,0,0,0-1.49221-3.36413c-2.65193-2.282-5.09845-4.80172-7.61276-7.24019-.12691-.12242-.10989-.39224-.15994-.59326Q58.95921,215.33985,59.1518,215.15213Z"/><path class="a" d="M162.19677,189.57345a5.97637,5.97637,0,0,1,1.31169.26268c7.94069,3.52764,15.9671,6.83541,23.45836,11.35039,9.32474,5.62015,18.87914,10.85886,28.32906,16.27361,9.57489,5.4862,19.215,10.86609,28.6944,16.5158,8.9745,5.34768,17.77918,10.9822,26.65093,16.50326a1.83282,1.83282,0,0,1,.831,1.2116,7.36531,7.36531,0,0,1-1.08825-.45209c-6.60228-4.04587-13.16155-8.165-19.80308-12.14475-8.01846-4.80529-16.0887-9.52576-24.16873-14.22748q-13.63866-7.93574-27.33807-15.76791c-6.84977-3.92345-13.6494-7.9469-20.63313-11.61746-4.6481-2.442-9.58212-4.34076-14.38658-6.48608-.65668-.29306-1.30365-.60762-1.955-.9123C162.13154,189.913,162.16457,189.74317,162.19677,189.57345Z"/><path class="a" d="M211.29822,283.40887c.16177-3.19606.218-6.402.52538-9.58295a49.21393,49.21393,0,0,1,1.16694-5.55766,2.12629,2.12629,0,0,1,1.41178-1.49752,25.07661,25.07661,0,0,1,11.42715-2.57965c1.30638.02946,2.61094.24128,3.91631.24485,5.39773.01519,10.79555-.0947,16.19054-.00266,3.42845.058,6.85059.44312,10.27905.5843,2.69128.1108,5.38885.10366,8.08277.09113,2.62961-.01153,5.25838-.10092,7.88707-.13752.18145-.00275.36544.151.747.32069-.80865.91231-1.79241.71843-2.64745.747-1.38141.04648-2.77261-.12956-4.14862-.03834a108.79158,108.79158,0,0,1-17.93921-.57011c-1.30363-.12956-2.63051-.01336-3.94577-.0366-5.9812-.10275-11.96332-.3163-17.94452-.28684a23.707,23.707,0,0,0-11.02419,2.37762,3.70068,3.70068,0,0,0-2.14623,2.81644,55.338,55.338,0,0,0-1.33584,12.17055c.01793.43333.18765.90691-.50744.93372Z"/><path class="a" d="M174.38792,209.71332c12.81212,12.444,24.922,25.51885,35.49322,39.96976-4.22814-4.13169-7.43051-9.14248-11.41114-13.49038-4.04588-4.41927-7.939-8.97889-12.04731-13.3375-4.0789-4.3264-8.3419-8.47859-12.52355-12.70672C174.06173,210.00373,174.22533,209.859,174.38792,209.71332Z"/><path class="a" d="M211.29292,283.4053c2.3294,2.69758,4.47471,5.58722,7.04091,8.03721,2.492,2.37945,5.41465,4.30673,8.41335,6.638-.63617.07238-.95788.21447-1.16338.11611-3.05222-1.47336-10.04491-7.93437-14.59566-13.45187.1001-.42088.20825-.87653.31365-1.334Z"/><path class="a" d="M78.80382,78.23041a5.101,5.101,0,0,1,3.68217-.26809c3.37667.54688,6.73623,1.19467,10.10933,1.762,1.07755.18134,2.18017.20458,3.26312.35921.67726.09561,1.45909.11163,1.76826,1.2384C91.33368,80.28816,85.196,79.28023,78.80382,78.23041Z"/><path class="a" d="M261.78465,274.73375c-4.90722-.71935-9.71251.82383-14.98251.6799C249.523,273.85721,259.9324,273.41492,261.78465,274.73375Z"/><path class="a" d="M162.15569,152.81411c-2.14988,1.18478-3.8788,2.05683-5.51749,3.07372a9.37059,9.37059,0,0,0-2.45805,2.09261,8.09838,8.09838,0,0,1-2.95222,1.93c-.10366-.10723-.20815-.21538-.31182-.32353.17513-.3163.27431-.73444.53791-.9328,1.39651-1.05075,3.07811-1.8335,4.19684-3.11481,1.418-1.62351,3.373-1.863,5.08857-2.70911C160.986,152.70953,161.34348,152.81411,162.15569,152.81411Z"/><path class="a" d="M231.69191,273.372q.13531,6.54189.27165,13.08561c-.11885.02946-.23678.05983-.35564.0893-.126-.20907-.36279-.41723-.3637-.62721-.02233-4.17992-.0161-8.36065-.0161-12.54057C231.38275,273.37649,231.53728,273.37466,231.69191,273.372Z"/><path class="a" d="M193.67093,141.50755a15.8795,15.8795,0,0,1,1.09182-2.01136q4.313-5.83289,8.69489-11.61389a3.08774,3.08774,0,0,1,.66564-.51018l.09917.0893c-.78988,1.29476-1.49212,2.652-2.38658,3.86891-2.16233,2.94508-4.39786,5.83563-6.6451,8.7163a11.89535,11.89535,0,0,1-1.56541,1.41984Z"/><path class="a" d="M152.77907,161.31145c0-.56114-.08491-.86308.01345-.94351a38.607,38.607,0,0,1,4.60336-3.60714,18.17618,18.17618,0,0,1,5.36287-1.90413C159.50367,156.96181,156.2486,159.06787,152.77907,161.31145Z"/><path class="a" d="M152.64411,164.60678a2.08966,2.08966,0,0,1,1.14013-2.22931c3.42132-2.467,6.75325-5.10109,10.984-6.10188-2.38211,1.36439-4.81335,2.65376-7.12665,4.12712a25.63917,25.63917,0,0,0-2.82265,2.57068C154.24447,163.47735,153.59668,163.89732,152.64411,164.60678Z"/><path class="a" d="M152.21344,150.13985a12.67849,12.67849,0,0,0,5.63543-1.53329c.143-.06972.38776.07411.89886.19031-.64861.352-1.0597.57094-1.46714.79611-1.963,1.08743-3.94934,2.13818-5.87662,3.28728-.63892.38154-1.34207.75411-1.43594,1.76194-.067.71669-.75054.923-1.62616.52455,1.04-2.36161,3.54282-2.98077,5.19131-4.68918-.55666-.14923-.95513-.25647-1.359-.36818C152.16879,150.105,152.21344,150.13985,152.21344,150.13985Z"/><path class="a" d="M183.8994,126.46877q4.39608-5.54343,8.79846-11.07964a1.10434,1.10434,0,0,1,1.02129-.35565c-.29041.35025-.5843.69693-.8694,1.05166-2.28292,2.83336-4.55331,5.67743-6.85591,8.49561-.5906.72373-1.28314,1.36348-1.93,2.04165C184.00929,126.57152,183.95476,126.51965,183.8994,126.46877Z"/><path class="a" d="M161.13432,151.01282a11.0398,11.0398,0,0,1-1.0534.61385c-2.26151.96226-4.6007,1.74675-6.16263,3.88767a1.85944,1.85944,0,0,1-2.32135.72639C153.24012,154.01316,158.86659,150.83587,161.13432,151.01282Z"/><path class="a" d="M95.48221,282.24467c2.12482,1.25451,5.66407,5.437,6.37353,7.42693C98.99466,287.4369,97.56594,284.53647,95.48221,282.24467Z"/><path class="a" d="M150.82764,140.84539c-.08491.35391-.05362.87123-.27614,1.03025-.705.50305-1.52881.8328-2.25968,1.30364-.5584.36013-1.39211.61568-1.01232,1.59853-.32883.08491-.65676.16972-1.10444.28593,1.00883-3.239,1.00883-3.239,4.716-4.15842C150.88482,140.89992,150.82764,140.84539,150.82764,140.84539Z"/><path class="a" d="M145.102,148.61461a5.9422,5.9422,0,0,1,.97837-1.07856c2.13461-1.43136,4.29877-2.819,6.46284-4.20571.06615-.04291.24567.0893.4896.18757-.17513.81138-.9426,1.01332-1.49478,1.36448-1.22413.77817-2.52063,1.44207-3.735,2.232-.58878.38245-1.64675.47807-1.32414,1.63339q-.5616.14466-1.12229.29032Q145.228,148.82643,145.102,148.61461Z"/><path class="a" d="M184.06382,126.6224q-3.1256,3.68445-6.251,7.36883l.04283.04474c.85511-1.22861,1.64592-2.509,2.58229-3.67239,1.08743-1.35185,2.30259-2.60105,3.4624-3.89481C183.95476,126.51965,184.00929,126.57152,184.06382,126.6224Z"/><path class="a" d="M223.98711,279.17c-2.34368-.956-4.473-1.82544-6.60219-2.69484A7.57645,7.57645,0,0,1,223.98711,279.17Z"/><path class="a" d="M238.21275,279.14322c-.38775,1.46092-.76033,2.86191-1.13656,4.27635C236.5553,281.30821,236.88679,280.00283,238.21275,279.14322Z"/><path class="a" d="M206.31415,123.966q1.6888-2.28513,3.37841-4.57125c.12068.08583.24036.17247.36013.25912q-1.65929,2.30667-3.32031,4.61415C206.59294,124.167,206.45359,124.067,206.31415,123.966Z"/><path class="a" d="M50.05223,167.36594c-1.28314-1.16694-2.56711-2.33389-3.99939-3.63661C47.53782,164.20648,48.44839,164.95877,50.05223,167.36594Z"/><path class="a" d="M221.80867,284.48468a3.01113,3.01113,0,0,1-3.12908-1.73971C220.3192,282.62886,220.66946,284.28092,221.80867,284.48468Z"/><path class="a" d="M133.17262,94.17436a5.98818,5.98818,0,0,1-3.90735-1.276c.067-.15454.134-.30917.2001-.4637Q131.319,93.3045,133.17262,94.17436Z"/><path class="a" d="M225.901,269.24663q1.46619.48515,2.93337.96857A2.11417,2.11417,0,0,1,225.901,269.24663Z"/><path class="a" d="M42.91745,160.317q1.26661,1.18483,2.53225,2.36957A4.45771,4.45771,0,0,1,42.91745,160.317Z"/><path class="a" d="M175.19116,137.48135q-1.07887,1.34294-2.15785,2.68679c-.13486-.10815-.27073-.21529-.4056-.32344q1.10838-1.32015,2.21586-2.64031C174.95977,137.29635,175.07506,137.38931,175.19116,137.48135Z"/><path class="a" d="M177.8128,133.99123q-.88866,1.276-1.77631,2.55283c-.11-.08939-.21895-.1796-.32883-.269.59948-.84341.95339-1.89067,2.148-2.23909Z"/><path class="a" d="M170.82816,142.38143q.40473-.75333.80865-1.50557l.36717.24119c-.24658.53342-.44586,1.10353-1.22138,1.22055Z"/><path class="a" d="M204.12328,127.37212q.49325-.86313.98824-1.72544a1.47173,1.47173,0,0,1-.88907,1.81474Z"/><path class="a" d="M53.53513,170.32978q-.48654-.42231-.973-.84442c.058-.075.117-.15015.17513-.22517q.50795.38607,1.0168.772C53.6817,170.13141,53.60841,170.2306,53.53513,170.32978Z"/><path class="a" d="M91.97068,136.97382a5.30828,5.30828,0,0,1,1.15266-.70232,16.45329,16.45329,0,0,0,7.69228-3.87789,1.60118,1.60118,0,0,1,1.47345-.27339c.68622.395.44321,1.01241.06249,1.67356a12.603,12.603,0,0,1-5.77744,4.81426,3.00322,3.00322,0,0,1-2.00953-.23945A21.59393,21.59393,0,0,1,91.97068,136.97382Zm3.282.0742c1.72443.59418,3.054-.13761,4.31927-1.99617C98.08509,135.739,96.66882,136.393,95.25264,137.048Z"/><path class="a" d="M94.08927,122.41842a26.59149,26.59149,0,0,1,2.60463-2.039,5.51371,5.51371,0,0,1,2.22838-.7273c.705-.07512,1.18214,1.1115.59958,1.40456-1.55562.78367-2.94325,2.02115-4.81874,2.05693C94.65755,123.11443,94.61016,123.01442,94.08927,122.41842Z"/><path class="a" d="M86.90535,126.24891c-1.40373.43781-2.79584.873-4.22365,1.31882-.12242-1.60649.285-2.3821,1.28754-2.65814A2.75416,2.75416,0,0,1,86.90535,126.24891Z"/><path class="a" d="M98.30221,115.44c-1.52881,1.98721-3.19971,3.34712-5.63808,3.67147-.14924-1.15889.84258-1.19192,1.418-1.59579.713-.50039,1.39743-1.0436,2.1283-1.51627C96.78228,115.62949,97.19337,114.6341,98.30221,115.44Z"/><path class="a" d="M80.84913,123.17436a3.72515,3.72515,0,0,1,3.82335-1.5074C83.32684,122.80444,82.27244,123.46294,80.84913,123.17436Z"/><path class="a" d="M90.90118,132.517c.93463.20376,2.24184-.89264,2.785.806C91.79473,133.81437,91.58831,133.767,90.90118,132.517Z"/><path class="a" d="M36.07133,209.74992c-.4164,1.55205-.747,2.78423-1.11863,4.16738-1.86213-.37257-.34494-1.745-.9382-2.74754-.168-.11977-.59692-.428-1.343-.96318C33.92959,210.03768,34.79716,209.92065,36.07133,209.74992Z"/><path class="a" d="M37.01219,244.39524c-2.37671-.96235-2.61707-2.82714-3.13082-4.86705.56828.12517,1.15615.09836,1.25.29938C35.77379,241.21877,36.31261,242.65819,37.01219,244.39524Z"/><path class="a" d="M31.55819,208.07106c-.55666.08216-.8435-.34851-.93555-.98468a5.50518,5.50518,0,0,1,2.33663-4.45862C32.45705,204.57828,32.02464,206.25724,31.55819,208.07106Z"/><path class="a" d="M34.71234,232.45517a7.74507,7.74507,0,0,1,3.64109,3.29258A4.20994,4.20994,0,0,1,34.71234,232.45517Z"/><path class="a" d="M33.80625,218.9979a1.80814,1.80814,0,0,1,2.5296-1.22147C35.28593,219.88514,35.18144,219.93071,33.80625,218.9979Z"/><path class="a" d="M31.09622,245.64792c-.1474-1.14279-.26808-2.06846-.41191-3.17821C32.18906,243.3176,32.29089,244.15662,31.09622,245.64792Z"/><path class="a" d="M34.00379,225.99773a2.06991,2.06991,0,0,1,2.84489.5477C35.73719,227.57293,35.06076,226.74736,34.00379,225.99773Z"/><path class="a" d="M140,51.83228a3.733,3.733,0,0,1-.72557-.965c-1.27052-3.961-2.50178-7.93355-3.56149-11.97759,1.37775,1.74145,1.60118,4.03334,2.91287,6.03216a18.97358,18.97358,0,0,1,1.04361-2.70115c.28052-.49591.95247-1.16694,1.34023-1.10253a2.01049,2.01049,0,0,1,1.20446,1.32322,7.83761,7.83761,0,0,1,.16625,2.79228,12.70736,12.70736,0,0,1-.72374,2.727c-.4432,1.28131-1.76295,2.20872-1.10619,3.94221Q140.27566,51.86668,140,51.83228Zm-.19389-3.08168c1.95052-2.54927,2.26325-4.72231.95339-6.73092A9.30719,9.30719,0,0,0,139.80609,48.7506Z"/><path class="a" d="M81.57286,42.73088a12.896,12.896,0,0,1-.04648,2.71277c-.13047.54239-.68439.98285-1.049,1.46805-.43068-.336-1.07225-.588-1.24819-1.02667a11.13114,11.13114,0,0,1-.89264-3.34712,24.293,24.293,0,0,1,.26268-4.557c.04465-.3583.59775-.78979.999-.90773.21447-.06167.70672.41987.89172.75585.42.76491.64157,1.645,1.10262,2.37853.57185.90783,1.33493,1.69323,1.9496,2.57782a3.813,3.813,0,0,1,.33424,1.13483c-.143.07951-.28419.1581-.42628.23761C82.92023,43.7549,82.38956,43.352,81.57286,42.73088Zm-1.9765-3.398c-.54148,2.10688-.67012,4.1682.74167,6.04644C80.90988,43.284,80.22723,41.31021,79.59636,39.33289Z"/><path class="a" d="M144.1119,38.55819c1.36714,1.51719.84177,3.21307,1.519,4.53016.68083,1.32331.83454,2.9245,2.15877,4.14414,1.25542-3.07107-.44861-5.76856-.68092-8.77613.46645.218.83994.2689.91853.44851,1.02494,2.35264,2.00871,4.72313,3.00227,7.09q-.19035.11268-.38246.227c-.402-.35564-.80507-.71211-1.40282-1.2384-.14474.96227-.2162,1.79955-.40743,2.6081-.25463,1.07765-.96053,1.26256-1.70658.46023a3.97374,3.97374,0,0,1-.84534-1.26613c-.75676-2.0453-1.48681-4.10214-2.14888-6.18047A8.27568,8.27568,0,0,1,144.1119,38.55819Z"/><path class="a" d="M165.36337,30.94c.27522.54953.55218,1.09814.90069,1.7915.5325-1.03739,1.02576-1.99517,1.58151-3.0772,2.03094.89254,2.4402,2.75824,3.14335,4.23966.62547,1.31892,1.628,2.71451.7015,4.50518-.4218-1.23044-.76939-2.49291-1.28579-3.68217-.54148-1.2492-1.24646-2.42685-2.0444-3.94852-2.13011,3.45526-.51823,6.68709-.27339,10.14775C166.76976,39.542,165.26867,34.32466,165.36337,30.94Z"/><path class="a" d="M107.99057,54.53965c.33423,2.71186,2.7038,4.35147,2.8825,6.83724-.16086.0786-.32253.15719-.48338.2367-.50122-.97745-.98285-1.9657-1.511-2.92806-.55575-1.01588-1.158-2.00679-1.82992-3.16659-1.21517.73984-2.40178,1.46092-3.7938,2.308-.07869-1.41179.89172-1.6128,1.48315-1.91392a3.10967,3.10967,0,0,0,1.78-3.927,7.02956,7.02956,0,0,1,.193-3.2149c.32884-1.19192,1.02037-1.27857,2.28293-.55218-1.91484,1.17948-2.224,2.45539-1.25716,5.19131,1.2384-.58072,2.47589-1.16694,3.72417-1.72982.075-.033.23679.12507.64514.35647C110.68275,52.90269,109.38268,53.69258,107.99057,54.53965Z"/><path class="a" d="M136.41963,26.37327c-.09735.579-.64065.92036-1.41443.28858a16.98785,16.98785,0,0,1-1.86744-2.16672c-.30917.98468-.545,1.83706-.8479,2.66538-.26186.71476-.67469,1.3858-1.57529,1.19018a1.41426,1.41426,0,0,1-1.0383-1.69771c.16442-1.49578-.12242-3.138.99713-4.3845a5.03535,5.03535,0,0,1,1.86478-1.3805c.93646-.34576,1.27509.20733.98825,1.31078a1.26249,1.26249,0,0,0,.09113.96144C134.44322,24.18413,135.34025,25.151,136.41963,26.37327Zm-4.741-3.29084a3.61956,3.61956,0,0,0-.59418,4.13343A4.5091,4.5091,0,0,0,131.67867,23.08243Z"/><path class="a" d="M118.92729,32.58678c-.81312-1.74858-1.48681-3.196-2.15876-4.6427-1.35991,2.53225-1.07581,5.05819-.50213,7.63152-.51467,0-.83728.0849-.90783-.01245-.67286-.92932-2.26956-6.965-2.073-8.53138.55045,1.21077.90518,1.989,1.39569,3.0675.58347-1.343.08939-2.87627,1.63339-3.77513a5.22718,5.22718,0,0,1,1.26338,1.14462c.74789,1.3126,1.3761,2.69483,1.99617,4.07441C119.63493,31.6763,119.31414,31.981,118.92729,32.58678Z"/><path class="a" d="M180.16,34.39713c-1.18121,1.61811-2.46966,1.77539-3.69827.51283a3.87894,3.87894,0,0,1-1.05431-1.63156c-.25555-1.05706-.94983-1.48233-2.38842-1.72717,1.60658-.68,2.14979-1.60119,2.06845-2.86374a.71428.71428,0,0,1,.04648-.21356c.25107-.9382.50936-1.89424,1.72187-1.96213a1.56164,1.56164,0,0,1,1.72269,1.06593c.37706,1.08478-.1635,1.78619-.97571,2.43133-.64963.51549-1.762.77817-1.59588,1.87009a5.31473,5.31473,0,0,0,.90783,2.173C177.78151,35.27805,178.96273,34.73484,180.16,34.39713Zm-4.305-4.99661c2.24275-.75951,2.28832-.90243.87031-2.06315C176.4162,28.0719,176.13558,28.7358,175.85506,29.40052Z"/><path class="a" d="M73.19345,37.52081c-2.04979.3002-2.6296,1.78262-2.84141,3.28819a16.93585,16.93585,0,0,0,.00631,4.78113c.41722,2.811,2.2552,4.33628,5.269,4.632-.41813,1.04635-1.24014.94269-1.95765.672a5.72014,5.72014,0,0,1-3.6205-3.247,12.89143,12.89143,0,0,1-.12243-8.57155A5.78634,5.78634,0,0,1,71.435,36.97842C71.97289,36.42358,72.60907,36.45488,73.19345,37.52081Z"/><path class="a" d="M108.86628,35.514c.73444-.5272,1.35808-.974,2.03716-1.46092-.09287,1.25533-.839,2.36957-1.66551,2.42858a2.23616,2.23616,0,0,1-2.11319-1.28579c-1.149-1.85225-.88276-3.742-.19031-5.63279a2.164,2.164,0,0,1,.82383-.98642,1.48233,1.48233,0,0,1,2.00862.00357,1.63315,1.63315,0,0,1,.10549,2.20433A7.02054,7.02054,0,0,1,108.75721,31.83C107.13636,33.265,107.13014,33.58491,108.86628,35.514Zm.18583-6.17069-.58439-.24658q-.48118.977-.96144,1.95591C108.45967,30.71669,109.47738,30.44687,109.05211,29.34333Z"/><path class="a" d="M102.66878,29.55688c.76665.98642,1.18478,1.52525,1.60393,2.06407q-.118.14342-.236.28766c-.47706-.21886-.95513-.43781-1.54125-.70672-1.41892,1.68335-2.41614,3.38994-1.4493,5.70864a3.15914,3.15914,0,0,1,.12507,3.06924c-1.33667-1.40548-1.08112-3.21756-1.75663-4.66411a23.81807,23.81807,0,0,1-1.51546-4.682c1.33319.44312,1.08295,1.88793,1.99261,2.75559C100.737,32.22226,101.57869,31.06154,102.66878,29.55688Z"/><path class="a" d="M119.36327,24.63631c.168-.26.27522-.60937.5111-.76573,1.68161-1.11516,1.68875-1.10263,2.01045-3.00941.48337.41192.8381.713,1.33493,1.13657.56023-.1054,1.36164-.25555,2.16315-.4057.06881.176.1367.353.20642.529q-1.03469.52661-2.072,1.05339a12.42766,12.42766,0,0,0,2.18823,7.09187c-.68183.47-1.24206.38154-1.55745-.3905a22.64434,22.64434,0,0,1-.82914-2.475c-.30834-1.10711-.55493-2.23022-.88459-3.575-1.08029.43251-1.9238.7694-2.76721,1.10711C119.56612,24.83376,119.46511,24.73549,119.36327,24.63631Z"/><path class="a" d="M114.98152,52.84551a5.608,5.608,0,0,1,.00714-.86757c.193-1.23218,1.208-1.60832,2.21768-.83453,1.39477,1.06776,2.46345,4.65972,1.90322,6.39485-.36636,1.13391-1.26165,1.47885-2.11942.61119a7.71009,7.71009,0,0,1-1.51006-2.55009,17.192,17.192,0,0,1-.63086-2.727C114.894,52.86344,114.93769,52.85448,114.98152,52.84551Zm3.21481,4.94565c.302-2.44826-.0107-4.30225-1.57611-6.02942C115.58192,54.37258,115.99118,56.022,118.19633,57.79116Z"/><path class="a" d="M191.73642,18.55593c-.67551.8747-1.16694,1.40455-1.535,2.00861-.822,1.34921-.70141,2.05153.554,2.98168.69693.51641,1.50731.87919,2.24358,1.34655,1.67182,1.06145,1.91218,1.84951,1.00966,3.62408a3.5982,3.5982,0,0,1-2.53307,2.257,11.85739,11.85739,0,0,1,.588-1.11241c.36269-.54422.82466-1.02668,1.14727-1.59048.65668-1.14553.53608-1.63787-.57459-2.35712-.73088-.47441-1.53238-.83994-2.27753-1.29293-1.94612-1.183-2.21055-2.39281-.98285-4.36126C190.01016,19.04287,190.04859,19.01515,191.73642,18.55593Z"/><path class="a" d="M155.70622,45.05589c.059-.613.14474-1.22413.17246-1.83889.0679-1.5279-.285-1.92289-1.82727-2.11137-2.69126-.32975-3.39441-1.234-2.81094-3.8949a12.972,12.972,0,0,1,1.18744-3.03439,1.28441,1.28441,0,0,1,1.71381-.7746,21.68181,21.68181,0,0,0-1.939,3.29972c-.84432,2.257-.20815,3.1729,2.15785,3.52855C156.97856,40.62308,157.82389,42.95339,155.70622,45.05589Z"/><path class="a" d="M187.02583,29.97237a3.54014,3.54014,0,0,1-2.459,3.07546c.56471-1.13565.95431-1.91749,1.25808-2.52777-1.07042-1.15166-2.05693-2.11493-2.92715-3.17464a3.43434,3.43434,0,0,1,.42975-4.875c.91853-.80416,1.32688-.73362,2.5242.51732-.73362.42262-1.72-.41274-2.32135.60579a2.58227,2.58227,0,0,0,.24128,3.39186C184.74291,28.04866,185.89283,28.9466,187.02583,29.97237Z"/><path class="a" d="M120.281,48.017c2.00862.20641,1.116,2.24184,2.45,2.67517.48163-1.09631.9963-2.26774,1.57968-3.59818,1.51188,1.351-.403,1.8344-.26891,2.78148a22.43793,22.43793,0,0,1-.252,2.80656,31.83069,31.83069,0,0,0,.38245,3.298c-1.60118-1.08469-1.45643-2.64122-2.07568-3.77953C121.43987,50.99326,120.9877,49.67443,120.281,48.017Z"/><path class="a" d="M89.2106,36.21808c-2.73409,1.30812-1.90495,3.84037-1.98355,6.10811-1.52615-1.01689-2.77077-4.41845-2.17578-6.16978.40121.80865.72291,1.45736,1.08295,2.18283C87.68005,35.40587,87.92938,35.23249,89.2106,36.21808Z"/><path class="a" d="M140.99893,24.42367c-.24128-.21447-.63261-.38959-.70233-.64962-.91578-3.44008-1.78966-6.89086-2.64479-10.346-.0161-.06524.32793-.21987.65319-.428,1.05166,3.801,2.07743,7.51358,3.104,11.22613C141.27232,24.29228,141.13471,24.35752,140.99893,24.42367Z"/><path class="a" d="M161.65347,40.99034a4.55566,4.55566,0,0,1-1.317-4.96348c.63261,1.679,1.22322,3.24345,1.81383,4.808Q161.90106,40.91257,161.65347,40.99034Z"/><path class="a" d="M159.54659,31.19384c-1.01323-.14831-1.77988-.52272-1.90679-1.79149C158.95689,29.41753,159.1731,30.42006,159.54659,31.19384Z"/></svg>