<svg xmlns="http://www.w3.org/2000/svg" xmlns:xlink="http://www.w3.org/1999/xlink" viewBox="0 0 300 300"><defs><style>.a{fill:none;}.b{clip-path:url(#a);}.c,.d{fill-rule:evenodd;}.d{fill:#fff;}</style><clipPath id="a"><rect class="a" x="8.80518" y="10.5938" width="281.40671" height="281.4062"/></clipPath></defs><title>gl_nav09</title><g class="b"><path class="c" d="M254.89712,191.52942a10.14507,10.14507,0,0,1-5.12687,1.98427,213.17064,213.17064,0,0,1-33.20131,1.80873c-7.9-.15216-15.80786-.078-23.705-.314-10.21391-.30413-20.42392-.79368-30.63193-1.25977-2.06814-.09456-4.12061-.5909-6.18585-.62894-2.3616-.04384-3.77065-1.34265-4.92319-3.125-1.51429-2.34212-2.93981-4.74476-4.48435-7.06741a87.74283,87.74283,0,0,1-7.33251-13.69589,3.88759,3.88759,0,0,0-2.81409-2.28161c-4.5867-1.332-9.14614-2.76538-13.6881-4.24352-1.5094-.49245-2.933-1.2481-4.40149-1.86635-8.9707-3.78522-17.92672-7.60159-26.91879-11.3323-6.70366-2.78085-13.47852-5.39406-20.17719-8.1867-4.19479-1.74733-8.28235-3.756-12.46826-5.52476-4.62673-1.956-9.31887-3.756-13.968-5.66126a30.065,30.065,0,0,1-2.74481-1.41773C31.8569,123.22162,21.6401,117.62856,11.31017,112.254q-16.67965-8.6806-32.61429-18.63664c-1.758-1.093-3.56875-2.10419-5.46436-3.21769-.18132.469-.33728.87077-.50113,1.29582-.09456-.08377-.24573-.15017-.25741-.23594a3.98171,3.98171,0,0,0-2.79264-3.22947,29.56949,29.56949,0,0,1-4.1889-2.64726c-.79369-.51391-1.58748-1.02873-2.38506-1.53575a6.19633,6.19633,0,0,1-2.12855-5.54034A14.01491,14.01491,0,0,1-37.6932,75.01a3.027,3.027,0,0,1,1.82631-.92439c5.66715-1.34075,11.38212-2.49229,17.01412-3.96654,11.8286-3.094,23.87466-5.1114,35.871-7.35018,7.21159-1.34654,14.52851-2.11687,21.79482-3.17775,2.84136-.41437,5.66715-.93507,8.50651-1.3748,7.49246-1.16133,15.01417-2.1579,22.47548-3.49766,7.61337-1.366,15.15945-3.10456,22.75036-4.60327,6.09719-1.20426,12.20017-2.39484,18.3324-3.402,6.456-1.06,12.948-1.89361,19.42444-2.82968,6.00064-.86588,11.99629-1.77659,18.00471-2.58985a21.78241,21.78241,0,0,1,8.09414.15407,10.01928,10.01928,0,0,0,2.61321.14338c6.54271-.1999,13.08542-.429,19.63013-.64162,8.26178-.26819,16.3666.95164,24.47143,2.39963a94.53774,94.53774,0,0,1,17.97455,4.929,34.271,34.271,0,0,1,12.10162,7.97322c.94576.97112,1.8341,2.00085,2.777,2.97686.783.81226,1.607,1.57769,1.40905,2.8775a1.39,1.39,0,0,0,.18811.68446c1.368,3.13581,2.7517,6.26393,4.11292,9.40164A22.62924,22.62924,0,0,0,245.982,78.456a71.91608,71.91608,0,0,1,7.201,8.61963,34.44747,34.44747,0,0,1,5.95281,14.97424,37.69155,37.69155,0,0,1,.03016,8.81953c-.05262.46609-.18522,1.17.05662,1.38559,1.33585,1.19347.67476,2.65314.70012,4.02405.02237,1.19348.01458,2.391.10135,3.57854.60168,8.1838-.34417,16.233-1.72876,24.291-1.13307,6.59353-1.95022,13.25126-2.63178,19.90909-.80348,7.85132-1.31829,15.73278-1.93645,23.60266C253.62276,188.99029,253.51253,190.35731,254.89712,191.52942Zm-25.32164-13.731c-3.55028-2.69318-9.32655-5.53934-11.47467-5.56959.37932.25151.61915.44462.88834.585,2.80621,1.46067,5.60175,2.94081,8.43632,4.345a11.36406,11.36406,0,0,0,2.2251.59279c.36854,1.291,1.05109.93807,1.74244.31013,1.645-1.49771,3.24016-3.05394,4.91929-4.51261,2.82089-2.45136,5.70319-4.83252,8.53187-7.27609a20.62079,20.62079,0,0,0,1.64009-1.78048q-.20922-.20474-.41636-.40947c-2.24367,1.85267-4.539,3.64872-6.71924,5.57548-2.621,2.31477-5.11918,4.76812-7.7275,7.09657A9.2225,9.2225,0,0,1,229.57548,177.79838Zm-17.8-18.24164c-1.72386-.96922-3.127-1.68882-4.45989-2.52055-5.07624-3.17-8.59827-7.77234-11.69114-12.76671a17.88638,17.88638,0,0,1-2.59664-9.34213,41.70545,41.70545,0,0,1,3.32013-16.07017c2.04568-5.166,5.77828-9.13944,9.40943-13.1635a17.91871,17.91871,0,0,1,3.403-2.60931,1.85886,1.85886,0,0,1,2.47082-.12092,10.58639,10.58639,0,0,1-1.35243.83663,14.46322,14.46322,0,0,0-5.67683,4.655c-1.0502,1.3066-2.1637,2.56638-3.1466,3.92171-1.07356,1.47824-2.07882,3.013-3.02468,4.576-2.19,3.61858-3.12413,7.69336-3.8632,11.76823-1.05509,5.82022-.56943,11.48826,2.92523,16.52747,1.27046,1.8312,2.74971,3.52,4.15187,5.25757a22.96384,22.96384,0,0,0,10.8048,7.61337c.4524.15017,1.0443.23205,1.30071.55775.94675,1.20716,2.23778,1.04331,3.49367,1.04141,5.02842-.00779,10.05694-.08187,15.08536-.039a100.31234,100.31234,0,0,0,16.68252-1.3114c1.92776-.30723,3.88078-.4593,5.97628-.70013.82484-5.31029,1.68582-10.85163,2.56348-16.5012-1.12528.31012-2.00384.55186-3.00331.82883-.49624-1.92576-.938-3.63894-1.40215-5.4351a76.83683,76.83683,0,0,1-2.90467,7.99659,34.80225,34.80225,0,0,1-4.5839,7.24973c-1.71019,2.01832-3.5375,4.10893-6.16928,5.16392,1.8965-2.40932,4.19579-4.43653,6.10687-6.77865a23.57876,23.57876,0,0,0,4.33908-8.02685c-.39-.52849-.67667-.9166-.7859-1.06477.69623-.62205,1.52117-1.00726,1.70739-1.59526a9.4828,9.4828,0,0,0,.53728-5.40575c-.80158-.17553-1.92486.22226-1.97938-1.135-.00589-.13459.11792-.27308.22815-.509h1.94813c-.18232-2.21632-.35485-4.31471-.5284-6.43358-.85419.19111-1.41683.31692-2.25735.50513.2009-.667.194-1.16811.43-1.34564,1.31239-.99059,1.21983-2.147.81126-3.58233-1.5758-5.53455-4.23184-10.30856-9.0409-13.69589a4.96824,4.96824,0,0,1-.86787-1.09013,1.3863,1.3863,0,0,1,1.3066.04093c2.90187,2.27383,5.62431,4.68225,7.2702,8.1223a37.88658,37.88658,0,0,1,3.33471,9.94581c.22426,1.30851.5227,2.60343.88934,4.41027.388-1.85267.55475-3.18953.95554-4.4512.94186-2.96917,2.41622-3.22558,4.497-.87567.078.08777.28176.0644.44272.09556,0-2.13155.09356-4.265-.04493-6.38475a13.3617,13.3617,0,0,0-1.10182-3.0832c.11113-1.33486.30234-3.22747.41736-5.125a33.16477,33.16477,0,0,0-2.27582-14.96744c-2.4923-6.05516-6.46283-10.94419-10.86521-15.58361a5.87249,5.87249,0,0,0-3.57764-1.74733c-4.1889-.56943-8.35824-1.29293-12.53935-1.93065-6.9396-1.057-13.87631-2.13534-20.8266-3.11824-3.0091-.42615-3.21488-.548-3.602-3.65652a41.221,41.221,0,0,0-.92918-6.12345c-.95464-3.36406-2.21342-6.64026-3.32313-9.96139-.0624-.19011.06341-.44362.14339-.9166,5.60663,1.28814,11.15776,2.5547,16.704,3.83984,5.59695,1.29692,11.18891,2.61321,17.015,3.97443-1.97549-4.03294-8.62553-8.15355-12.48873-9.79654-2.77606-1.1808-5.74323-1.91607-8.63232-2.82678-9.35-2.9476-19.02275-3.90225-28.73442-4.51651-3.09488-.195-6.21711-.00779-9.32566.08-5.82511.16575-11.64822.39-17.47232.58211a4.52545,4.52545,0,0,1-1.65278-.0654c-2.26414-.83263-4.59448-.57133-6.88109-.38411-3.09777.25351-6.18.72928-9.26216,1.16422-3.86909.54407-7.73239,1.13107-11.59559,1.71808-6.38675.96922-12.78328,1.878-19.15046,2.96227a64.7823,64.7823,0,0,1-8.23353,1.32608,12.01588,12.01588,0,0,0-2.115.38222c-5.67882,1.28324-11.31761,2.79073-17.04227,3.81647-8.94824,1.605-17.95209,2.894-26.93447,4.302-6.54281,1.02383-13.08452,2.04957-19.63312,3.03147C23.66531,62.77382,12.43536,64.32905,1.34,66.66728c-7.41543,1.56211-14.79093,3.30745-22.18394,4.9768-4.04752.9146-8.08425,1.876-12.14156,2.74581-2.13833.4583-3.08908,2.1578-4.47946,3.67408,2.66284,1.37091,5.01185.234,7.30225.01758.36275-1.00337.67577-1.87025.99069-2.74391,2.04568.29844,1.29982,1.75033,1.4402,2.96427.667-.59679,1.173-1.05119,1.84289-1.65078a2.80235,2.80235,0,0,0,2.8131,1.25878c3.19043-.00679,6.38375.09845,9.57029.25741,1.724.08676,3.2061-.00979,3.62927-2.0984a1.99667,1.99667,0,0,1,.314-.63573c2.03985.30234,1.30367,1.90439,1.92771,3.12713.391-.59579.80249-.93218.79859-1.26277-.04095-3.15339,1.80389-5.53645,3.22555-8.08915a1.39,1.39,0,0,1,1.80388-.82494A33.64985,33.64985,0,0,0-4.26764,72.902c-1.20128,3.2743-1.10378,3.30934-.7079,5.02253.7391-1.41574.3598-3.41169,2.268-3.89346,1.92285.782.51874,2.45915,1.00433,3.54539,5.76854.88535,26.3475.197,30.15509-1.00826.12291-.67277.20579-1.38648.3901-2.07493.34128-1.27735,2.29141-3.246,3.24695-3.25873,1.23641-.01747,1.6976.94007,2.12765,1.54265-.60258,1.3729-1.096,2.49619-1.7708,4.03094,1.31439-.09365,2.13155-.15217,2.86483-.20478,1.73954-6.91714,5.33365-13.7583,7.86688-14.863-1.29292,2.4893-2.581,4.82753-3.73549,7.23206-1.14965,2.39484-2.542,4.75833-2.13744,7.61337h3.36506c1.135-4.06409,1.78827-5.19517,4.07478-6.92792a4.56456,4.56456,0,0,0,.66009.92349c1.56012,1.34754,1.55623,1.33187.93028,3.36007-.21936.70792-.352,1.4411-.57632,2.38406,3.85062.1336,7.35308.34417,10.85752.35785,9.4972.04094,18.9964-.01557,28.4936-.00779,3.35128.0039,6.70845.23005,10.05105.08777,4.86067-.20868,9.71167-.6514,14.56565-1.01605A11.57161,11.57161,0,0,0,111.32535,75.4c.08777-.83362.14238-1.54544.24383-2.25046.10134-.71181.232-1.41973.38222-2.12076a2.53486,2.53486,0,0,1,2.88619-2.194c1.11749.10144,1.59227.72259,1.79026,2.43288.11992,1.02963.1345,2.07493.29835,3.09677.05851.36275.42225.67767.94386,1.46067.079-.99168.159-1.42941.13948-1.86145-.04782-1.02674-.20868-2.05057-.20189-3.07631.01268-1.66056.5938-2.01352,2.2271-1.79995,1.36122.17933,1.65368,1.19927,1.81952,2.17238.31782,1.87414.39879,3.78922.65331,5.67694a8.38893,8.38893,0,0,0,.69124,2.96417A38.93432,38.93432,0,0,1,128.2,97.93014a32.05948,32.05948,0,0,1-1.06866,9.23779,22.45085,22.45085,0,0,1-1.917,3.76386,3.91755,3.91755,0,0,0-.4534,1.73165c.08776,2.62879.21357,5.25957.42415,7.88257.24762,3.09677.53428,6.19554.92439,9.27783.309,2.43278.79958,4.8441,1.209,7.26521l-.29834.11123c-.29056-.58611-.58112-1.17212-1.04241-2.10229a6.38485,6.38485,0,0,0-.61526,1.80384,76.55619,76.55619,0,0,0,1.3125,12.6428c1.68492.68066,1.68682.6533,3.62047.28476a1.77733,1.77733,0,0,1,.87556.1336,47.47441,47.47441,0,0,0,6.19853,2.20852c6.86263,1.42553,13.7505,2.74971,20.66375,3.89446,6.06014,1.00426,12.16013,1.78337,18.25832,2.53123,4.50382.552,9.00086,1.27256,13.57976.941,1.8995-.13749,3.81847.01467,5.72766.01657C200.85664,159.56063,206.11521,159.55674,211.77546,159.55674Zm-99.394-50.04279c-.59389-.14917-.97411-.26809-1.36222-.33828-7.37544-1.32907-14.75487-2.63368-22.12541-3.98512C83.24523,104.154,77.61513,103.022,71.96366,102.004c-3.37575-.60847-6.77486-1.08045-10.16418-1.60695-2.00574-.312-3.94318-1.3066-6.06893-.51881a2.65258,2.65258,0,0,1-1.39817-.20858c-1.46267-.394-2.90966-.8464-4.37622-1.22572-.96822-.25062-1.9598-.41437-3.05483-.64063a12.00155,12.00155,0,0,0-.13649,1.42263c.22905,5.65836.49334,11.31482.699,16.97318.05272,1.45668-.0682,2.91935-.114,4.55744,2.973,2.13734,62.745,24.46465,66.77014,24.86244,0-2.13933.11113-4.28645-.03125-6.416-.14627-2.20174-.66888-4.37812-.79568-6.57886-.21058-3.66041-.20669-7.3315-.34707-10.9978C112.79291,117.649,112.57734,113.6737,112.38144,109.514ZM-2.88888,87.65283V99.90752c2.45426,1.01415,4.78858,2.36359,7.17459,3.47719,7.14149,3.33281,14.50125,6.19554,21.788,9.21243a18.92561,18.92561,0,0,0,2.4874.65331c-.21257-6.59833-.41536-12.86027-.62794-19.42444C17.46478,92.85189,7.49761,89.84479-2.88888,87.65283Zm-24.22088-.18521c5.26346,2.84915,10.14671,6.59532,16.199,8.61574V85.72508c-5.21764-1.04231-10.33772-1.86526-15.47148-2.43668C-26.64457,84.7939-26.84546,85.94943-27.10976,87.46762ZM117.91489,110.374c0,3.6682-.10724,7.081.03714,10.484.10135,2.41621-.33738,4.93776.96523,7.21648.12681.22136-.06041.61726-.09556.93318a64.98135,64.98135,0,0,0,1.016,18.83843c.88925.23,1.77469.4592,2.84726.73707,0-.74885.03314-1.20705-.0039-1.65956-.37053-4.40148-1.55722-8.762-.63872-13.2278a2.94172,2.94172,0,0,0-.02726-.71381q-.53394-10.02315-1.07456-20.04549c-.038-.68845-.14718-1.37291-.23794-2.19785C119.71394,110.61,118.8881,110.50074,117.91489,110.374ZM38.114,95.88636c-.24084,7.549.65909,14.71683,1.53375,22.03276,1.14376.43294,2.28362.86388,3.75407,1.41973.00579-7.89814-1.135-15.29894-1.603-22.76015a12.47333,12.47333,0,0,0-1.5084-.47976C39.67207,95.9897,39.03734,95.97213,38.114,95.88636Zm-5.42432-.88824c-.57432,7.00979.70592,13.67921.81705,20.497,1.46067.5246,2.86093,1.02863,4.57512,1.64489-.552-7.34229-1.08045-14.35209-1.62452-21.58514C35.27159,95.37933,34.05474,95.19991,32.68963,94.99812Zm224.39954,29.691c-1.88971.42415-2.38506,1.72487-2.63857,3.51513-.51291,3.61948.61037,7.04784.91071,10.56687.039.4593.52749.88045.80147,1.3085a2.76092,2.76092,0,0,0,2.00864-2.54292,38.39258,38.39258,0,0,0-.77612-12.5053C257.36894,124.90255,257.19351,124.80121,257.08917,124.68908ZM-9.183,86.41642a28.49443,28.49443,0,0,0-.25937,9.12087c.12773.99648.45536,2.05157,2.05058,2.18806V86.53444C-8.01289,86.4925-8.54431,86.45736-9.183,86.41642ZM-36.98817,81.35c.04772.41147.00878.64551.09066.702,2.25346,1.53675,4.497,3.08908,6.808,4.53507.29056.18232.94576-.21837,1.46646-.35785-.63373-1.27735-1.172-2.36359-1.74733-3.52292-.30813.2564-.58111.48466-.80926.67377C-32.62374,81.1881-35.12093,82.44788-36.98817,81.35ZM193.25694,182.96429c-3.76185-1.12518-7.625-1.05888-11.96223-.99647C183.38921,182.91168,191.67336,183.68979,193.25694,182.96429Zm-17.27442-17.18465c4.24252.79368,6.56807.87566,8.60985,0ZM91.429,90.18806c2.11586.71371,4.24541,1.58159,6.51445.63962Q94.68477,90.506,91.429,90.18806ZM58.1195,95.75955c.039-.13449.07708-.26909.11512-.40358q-2.60646-.59968-5.21274-1.19647-.05856.29984-.117.60158Q55.51269,95.26,58.1195,95.75955Zm138.27425,78.60078c-1.13307-1.0492-2.28661-.34038-3.43615,0ZM94.68576,97.01554c1.84678.50213,3.57365,1.41184,5.49261.897Q97.43157,97.465,94.68576,97.01554ZM6.58883,80.11165c.06631-.08387.13261-.16575.19794-.24962H.03049c-.001.08387-.002.16575-.002.24962ZM177.214,188.17514c.001.04972.001.09845.001.14727h5.24979c-.001-.04882-.002-.09755-.002-.14727ZM124.1301,125.004c-.667,1.10281-.667,1.10281,0,2.69508ZM90.18873,101.00944c.99947.18132,1.7034.4582,2.26215-.36475C91.28466,100.09084,91.28466,100.09084,90.18873,101.00944Zm60.88942,68.067c-.079.15886-.158.31682-.23694.47677a1.78594,1.78594,0,0,0,2.55081.37443C152.43737,169.57654,151.75781,169.32692,151.07815,169.0764ZM-5.859,91.72472c.06631.002.13261.002.19892.00389V88.31592c-.06631-.001-.13261-.002-.19892-.00389ZM74.34083,77.5901v-.03705h-2.4903l-.001.03705Zm40.74059-7.17465a4.16792,4.16792,0,0,0-.49535.08587c.02137.55186.06531,1.10372.10524,1.65567.15606-.01168.31113-.02346.46609-.03514C115.132,71.55921,115.10768,70.99667,115.08142,70.41545Zm88.9345,118.41489c-.02926-.05652-.05952-.113-.08977-.16964h-1.52108v.16964Zm-3.68578-18.50295c.00579-.115.01068-.22815.01558-.34128h-1.46267l-.00289.233C199.36282,170.2552,199.84648,170.29035,200.33014,170.32739ZM81.03181,139.68278c-.14917.09945-.21257.14039-.275.18332.05172.05462.09266.13061.156.15986.37443.16575.75375.32181,1.13118.48176.037-.08387.07408-.16774.11013-.25161C81.76509,140.05721,81.375,139.85832,81.03181,139.68278Zm42.71507-1.63809c-.08287.00389-.16584.00579-.24872.00868q.03671.62456.07219,1.25109l.17653-.00589Zm-.20968-17.83317c.04873,0,.09846-.001.14728-.001v-1.35433c-.04882.00189-.09855.00389-.14728.00679Zm-14.394-27.20946c0-.05851,0-.11891-.001-.17742H107.8853l.0059.17742Z"/><path class="c" d="M196.94072,51.93787a17.62723,17.62723,0,0,1,1.00626,3.93829c.14927,4.67745,1.78837,9.038,2.60932,13.56618.04872.26919-.16085.58411-.31392,1.09213-1.28714-.15017-2.52155-.313-3.76086-.43294a121.59217,121.59217,0,0,0-19.835.06041c-8.42953.56164-16.85606,1.16422-25.28749,1.68493-3.86819.23793-4.15486-.24862-4.18211-4.10114-.02736-3.88467-.36075-7.76744-.57532-11.96413C163.25386,54.51,179.89644,53.24058,196.94072,51.93787ZM169.391,59.2509c.02436.08577.04882.16964.07219.25451.33928-.04193.67666-.08387,1.016-.1258-.00589-.04294-.01168-.08577-.01657-.12871Z"/><path class="c" d="M170.32316,128.42747c-.00389-3.18753.57822-6.03468,2.64636-8.55823a7.53833,7.53833,0,0,1,9.63179-2.12366,12.19077,12.19077,0,0,1,6.44227,12.78807c-.21347,1.33487-.29545,2.6902-.45731,4.03385A7.46169,7.46169,0,0,1,180.85009,141.2a10.00491,10.00491,0,0,1-9.31977-6.98154C170.96868,132.3356,170.71516,130.361,170.32316,128.42747Zm2.623,2.62979c-.17064.02146-.34128.04293-.51092.0644.59868,1.85457.87457,3.91,1.876,5.515a7.2004,7.2004,0,0,0,6.25794,3.40789c1.69081.00489,3.58243-.25641,4.52728-1.71708a12.82258,12.82258,0,0,0,2.38995-7.38911,37.96918,37.96918,0,0,0-.9137-6.38c-.81316-3.80769-3.28888-5.45547-7.28867-6.22969-2.49419-.48176-5.5013,1.8-5.92745,4.13718C172.83892,125.316,171.74878,128.08519,172.94616,131.05726Z"/><path class="c" d="M141.84325,58.22906c.08,3.03047.21357,6.26384.22426,9.4991a2.04489,2.04489,0,0,1-2.37428,1.6986c-.85908-.11113-1.71128-.27687-2.659-.43483-.75865-2.1004.35485-4.0603.40657-6.07283.05173-2.04857.27788-4.09335.43684-6.25315C139.08766,57.14282,140.22652,57.59233,141.84325,58.22906Z"/><path class="c" d="M133.09491,58.699c1.34554-.34517,2.18416-.56164,3.29866-.8474a5.40246,5.40246,0,0,1,.51582,1.67614c-.10145,2.46693-.29645,4.932-.48367,7.3969a3.3396,3.3396,0,0,1-1.78637,2.73513,2.02987,2.02987,0,0,1-1.721-2.36938C133.05687,64.44507,133.04419,61.593,133.09491,58.699Z"/><path class="c" d="M214.52127,101.38a2.10677,2.10677,0,0,1,1.86535-1.55432c6.923-1.40406,13.73982-1.62832,20.11189,2.0925a7.66931,7.66931,0,0,1,3.62047,3.51413c-2.22809-.30323-3.04814-2.18216-4.63162-2.70477-1.72976-.57242-3.37185-1.4402-5.125-1.90439a22.04616,22.04616,0,0,0-5.17379-.73418,38.96486,38.96486,0,0,0-5.45158.48456C218.06276,100.78029,216.4022,101.08542,214.52127,101.38Z"/><path class="c" d="M195.20607,136.57034c.29355-.80937.52659-1.45478.83372-2.30309.88924.15986,1.75313.31592,2.66973.48167C197.79391,137.133,197.56087,137.247,195.20607,136.57034Z"/><path class="c" d="M197.03827,125.69434c1.22173.6602,1.993,1.07646,3.05393,1.64989a2.50035,2.50035,0,0,1-3.12223-.037C196.79833,127.19405,196.98954,126.531,197.03827,125.69434Z"/><path class="c" d="M199.54814,142.89079c.41147-1.413,1.18169-1.57869,2.37717-1.1155C201.43875,142.86642,200.67921,143.05653,199.54814,142.89079Z"/><path class="d" d="M182.18305,128.993c-.26529,4.24062,1.3753,7.42326,2.44786,10.72682,3.54779,10.93061,7.238,21.81529,10.761,32.75368,1.22174,3.794,2.07005,7.706,3.16257,11.542,2.86673,10.05684,5.79835,20.09132,9.9,29.74268a72.56794,72.56794,0,0,1,2.40113,7.01369c1.36551,4.422,2.66384,8.86437,3.98072,13.3a4.00954,4.00954,0,0,1,.13889,1.46746c-1.64639-1.91407-3.42487-1.05109-5.19417-.58211-4.46538,1.1798-8.94774,2.30119-13.40633,3.50934-2.54.68935-5.0416,1.52008-7.56844,2.25915-6.50966,1.9005-13.00854,3.83794-19.53757,5.66525-12.52148,3.50345-25.06383,6.92793-37.5916,10.40891-10.45813,2.90476-20.9533,5.68851-31.34224,8.82732-6.10148,1.84488-12.03242,4.2582-18.02767,6.44716q-8.99136,3.28508-17.95448,6.64225c-2.37967.896-4.71011,1.92377-7.32721,3.00122a11.9643,11.9643,0,0,1-1.01994-1.97738c-1.15983-3.81258-2.20653-7.6592-3.38983-11.464-2.49079-8.00828-4.16164-16.20965-5.93913-24.39146-.81076-3.73649-2.05207-7.37743-3.0101-11.08268-.51581-1.99595-.82095-4.04462-1.26657-6.05914a14.9,14.9,0,0,0-.75964-2.50977q-5.5279-13.25716-11.09386-26.49475c-1.6333-3.90024-3.24454-7.81037-4.88853-11.70572-.37-.87856-.8522-1.70929-1.25349-2.57717-.35536-.76643-.66788-1.55422-1.07156-2.49808,3.24894.547,5.86794-.84641,8.59038-1.49382,3.09148-.73518,6.04986-2.01353,9.09691-2.95738,4.33668-1.34365,8.667-2.73613,13.06215-3.8643,10.7428-2.76039,21.47741-5.52077,31.97268-9.15492,4.595-1.59127,9.32356-2.80043,13.92643-4.37423,8.82932-3.01679,17.6167-6.15949,26.41477-9.26994,6.238-2.20563,12.45708-4.46977,18.70334-6.65594,2.25535-.78879,4.56583-1.41773,6.845-2.13733a222.15012,222.15012,0,0,0,24.66743-9.77218C178.33193,130.49951,180.10512,129.84131,182.18305,128.993Z"/><path class="c" d="M182.18305,128.993c-.26529,4.24062,1.3753,7.42326,2.44786,10.72682,3.54779,10.93061,7.238,21.81529,10.761,32.75368,1.22174,3.794,2.07005,7.706,3.16257,11.542,2.86673,10.05684,5.79835,20.09132,9.9,29.74268a72.56794,72.56794,0,0,1,2.40113,7.01369c1.36551,4.422,2.66384,8.86437,3.98072,13.3a4.00954,4.00954,0,0,1,.13889,1.46746c-1.64639-1.91407-3.42487-1.05109-5.19417-.58211-4.46538,1.1798-8.94774,2.30119-13.40633,3.50934-2.54.68935-5.0416,1.52008-7.56844,2.25915-6.50966,1.9005-13.00854,3.83794-19.53757,5.66525-12.52148,3.50345-25.06383,6.92793-37.5916,10.40891-10.45813,2.90476-20.9533,5.68851-31.34224,8.82732-6.10148,1.84488-12.03242,4.2582-18.02767,6.44716q-8.99136,3.28508-17.95448,6.64225c-2.37967.896-4.71011,1.92377-7.32721,3.00122a11.9643,11.9643,0,0,1-1.01994-1.97738c-1.15983-3.81258-2.20653-7.6592-3.38983-11.464-2.49079-8.00828-4.16164-16.20965-5.93913-24.39146-.81076-3.73649-2.05207-7.37743-3.0101-11.08268-.51581-1.99595-.82095-4.04462-1.26657-6.05914a14.9,14.9,0,0,0-.75964-2.50977q-5.5279-13.25716-11.09386-26.49475c-1.6333-3.90024-3.24454-7.81037-4.88853-11.70572-.37-.87856-.8522-1.70929-1.25349-2.57717-.35536-.76643-.66788-1.55422-1.07156-2.49808,3.24894.547,5.86794-.84641,8.59038-1.49382,3.09148-.73518,6.04986-2.01353,9.09691-2.95738,4.33668-1.34365,8.667-2.73613,13.06215-3.8643,10.7428-2.76039,21.47741-5.52077,31.97268-9.15492,4.595-1.59127,9.32356-2.80043,13.92643-4.37423,8.82932-3.01679,17.6167-6.15949,26.41477-9.26994,6.238-2.20563,12.45708-4.46977,18.70334-6.65594,2.25535-.78879,4.56583-1.41773,6.845-2.13733a222.15012,222.15012,0,0,0,24.66743-9.77218C178.33193,130.49951,180.10512,129.84131,182.18305,128.993ZM57.67,280.183c2.70687-1.04131,5.14455-2.01152,7.60509-2.92134q8.4233-3.11523,16.865-6.179c6.53053-2.3578,12.99476-4.93976,19.63262-6.94549,10.31335-3.11824,20.749-5.83,31.13406-8.7152q15.22725-4.22984,30.452-8.46757c4.37611-1.22852,8.71958-2.57806,13.0957-3.81248,7.60369-2.14712,15.22285-4.23772,22.83044-6.37506,4.14986-1.16522,8.28765-2.37328,12.42733-3.57265.43243-.1258.8454-.31981,1.53765-.587-.47627-1.47435-.917-2.819-1.34555-4.16744-1.73815-5.476-3.13681-11.08856-5.28493-16.39686-3.51513-8.68593-6.07273-17.65474-8.73087-26.602-2.40842-8.10872-4.48964-16.31878-7.04924-24.37687-2.898-9.12667-6.17177-18.13242-9.27783-27.19278-.29884-.87367-.56993-1.75812-.88874-2.74391a15.70617,15.70617,0,0,0-3.18124,1.06387c-4.1284,2.538-8.85658,3.6029-13.2322,5.52377-2.483,1.09013-4.99627,2.13544-7.56175,3.00511-4.98549,1.68982-10.02469,3.21978-15.02735,4.85888-3.8695,1.26557-7.76784,2.46594-11.56434,3.92461a219.98647,219.98647,0,0,1-20.99914,7.34918c-.61436.16674-1.19887.43683-1.799.65619-2.6229.96243-5.21374,2.034-7.87757,2.86473-10.05595,3.13591-20.11918,6.25515-30.21706,9.25447-5.12158,1.52108-10.328,2.75948-15.488,4.15286-3.23386.87266-6.51935,1.61084-9.66255,2.738-4.66088,1.67025-9.24758,3.52192-14.11175,4.57112-1.51429.3276-2.96807.93407-4.50632,1.43141,1.9009,4.59448,3.72631,9.01553,5.55991,13.43459q2.06295,4.96986,4.14647,9.934,4.01926,9.59765,8.038,19.19529c.18282.43683.49923.97111.38661,1.35243-.5938,2.00863.37253,3.74528.8513,5.55692.73567,2.77706,1.64249,5.51108,2.30987,8.30182,1.1136,4.653,1.934,9.38117,3.16756,14,2.1612,8.08925,4.53658,16.12,6.84595,24.1682A10.43962,10.43962,0,0,0,57.67,280.183Z"/><path class="c" d="M109.7867,214.42016c-.95314,1.30271-1.875,2.56449-2.80821,3.83984-.71571-.18132-1.39337-.35386-2.17728-.55376-.09415.6611-.178,1.25978-.32819,2.32066-1.59417-2.04088-.937-4.40537-2.24408-6.14492-.55535.36075-1.06238.69225-1.56651,1.01895.44423,1.07745.87367,2.11976,1.36223,3.30845-.58551.41047-1.21395.8512-2.09011,1.46646-.11942-.90292-.01658-1.94134-.32371-2.08083-.7191-.32859-.92628-1.21105-1.28663-1.35822-1.46457-.60258-1.08914-1.56012-.82-2.56638.22386-.82984.49-1.64689.78939-2.64057.71911.33249,1.27046.59968,1.83071.84541,1.87353.82294,2.31476.58311,2.95738-1.56891a2.56285,2.56285,0,0,1,.34417-.508c1.1175.30034,2.08422.62405,2.38117,2.0984a8.49321,8.49321,0,0,0,1.33386,2.33623c.17843-.07019.35785-.13939.53628-.20958-.20668-.69334-.36274-1.407-.62934-2.07793-.57432-1.4421-.43883-1.68982,1.12129-1.97349.68356-.12291,1.35094-.33159,2.1588-.53438.64652.54607,1.42313,1.02094,1.27935,2.19974-.04932.41147.30374.864.44313,1.30661a4.78153,4.78153,0,0,1,.46658,1.78637c-.0624.54017-.567,1.03063-.87656,1.54354a11.39243,11.39243,0,0,1-1.40905-.99847A2.624,2.624,0,0,1,109.7867,214.42016Zm-.71271-3.23326c-.16385.05162-.3282.10334-.49195.156.01408.27987-.07459.64352.0677.821.17753.21936.54506.28466,1.34464.6533C109.50393,211.94934,109.28946,211.56712,109.074,211.1869Zm-10.48838,2.64925c.15107.14818.30323.29545.4548.44463q.36275-.449.724-.899c-.12142-.08777-.31592-.27788-.354-.24862A10.74721,10.74721,0,0,0,98.58561,213.83615Z"/><path class="c" d="M42.04155,196.75773c-.507-2.70776-.999-5.32976-1.48114-7.9,4.59259-1.84,9.05258-3.62637,13.70467-5.49062.84881,2.62579,1.6405,5.07525,2.49959,7.73329C51.93314,192.95694,47.15674,194.79193,42.04155,196.75773Zm.80737-1.73075a53.73339,53.73339,0,0,0,12.516-4.82564c-.90531-1.86435-.80826-3.80868-2.14362-5.27714-1.13457.551-2.17888,1.058-3.31334,1.60895.28426.62015.49434,1.07645.684,1.49282.56115-.40469.95215-.68745,1.62832-1.176a5.69931,5.69931,0,0,1-1.66975,4.46688c-.75765-1.52507-1.427-2.86962-2.14862-4.3216-.58211.316-1.13108.431-1.21445.69434-.29006.92039-.48027,1.80384-1.66595,2.01932-.15018.02825-.333.9166-.17893,1.26367a1.46851,1.46851,0,0,0,1.10092.6543,12.75372,12.75372,0,0,0,2.32015-.34907c-1.32657,1.60695-2.14712,1.90529-3.26062,1.526-2.01642-.68735-1.3061-2.42689-1.41484-3.97533-.77961.25152-1.43091.46219-2.35041.75954C42.09417,191.33342,42.437,193.00956,42.84892,195.027Z"/><path class="c" d="M99.53236,201.131c-1.19937-.20478-2.39963-.41057-3.831-.65529-.23254.819-.54557,1.92386-.87316,3.07929-1.22913-.03315-.86538-1.40315-1.57919-1.839-1.40306-.21936-2.51666.04194-2.77117,1.74933.55635.67078,1.88392-.60168,2.13054,1.05309-.7839.31292-1.62152.64841-2.62239,1.0482-1.588-2.07593-1.36851-4.73207-2.60642-6.889,1.18569-.38311,2.208-.71371,3.483-1.12618-.06051.60068-.097.95754-.1312,1.31439-.46609.21258-.93357.42515-1.79945.81716,1.27885.28466,1.71218.035,1.71418-.86588.37832.30224,1.0482.57332,1.08235.91071.11063,1.06088.69374.81905,1.31589.69424-.22775-3.52292-.22286-3.50535,3.2055-4.48925.88346-.25351,1.72347-.65909,2.583-.99648,3.0135,2.20653,3.24994,7.196.32231,8.642.10723-.86.20768-1.66925.30863-2.47862.88724-2.08951.62254-3.43905-1.22084-4.7125C98.72649,198.16568,99.12918,199.64782,99.53236,201.131Zm-2.63168-2.0896q.2639-.21642.525-.43294c-.13939-.53628-.27888-1.07257-.55575-2.14223-.62505.77811-.95654,1.19058-1.28854,1.603Q96.2395,198.55628,96.90068,199.04135Z"/><path class="c" d="M146.16136,177.07c-2.4899,1.75222-2.4899,1.75222-1.93894,3.62047.7216-.234,1.4416-.46609,2.18466-.70593.86828,1.03742.50653,2.05836.33689,3.05394-.40219,2.35481.36614,3.17875,2.80871,2.971.44362-.03794.88045-.157,1.40356-.25441-.73568,1.42553-1.134,1.72976-2.77117,1.287a2.53333,2.53333,0,0,0-2.83158.89024c-.20329-.62894-.3291-1.01895-.4549-1.407-.4597.27308-.88286.5237-1.388.822-.8478-2.79553.256-5.84068-1.46066-8.26078q-.30778.01887-.61626.036a6.38817,6.38817,0,0,0-.1,1.366c.037.28186.34078.5237.50363.79668,1.349,2.26025,1.2428,2.974-.68835,4.67256.231.71371.46309,1.43242.81266,2.51377-.67028-.23015-1.29093-.27309-1.35922-.48956-.859-2.73113-1.71029-5.47014-2.39864-8.2471-.25312-1.01995.65809-2.11987,1.583-1.86825,1.88972.51481,3.36546-.48756,5.01235-.88345A6.54374,6.54374,0,0,1,146.16136,177.07Zm-.87127,7.50224c.13409-1.14475.21507-1.84389.31691-2.72334C144.01134,182.82391,144.007,182.84637,145.29009,184.57224Zm-4.52529-.71471c.41686-1.34175.41686-1.34175-.82974-2.00674C140.26316,182.64448,140.51418,183.251,140.7648,183.85753Z"/><path class="c" d="M56.37946,211.83042c-.65131.56553-1.12619.977-1.583,1.3748.03755.11612.04823.24772.08677.25551.95075.22715,1.90479.43973,2.895.66308-.11453,1.55713-1.40795.74686-2.11048,1.27146-.14188.52949-.31012,1.16233-.55435,2.08083-.60847-.5919-1.02434-.99658-1.49871-1.45868-.61037.50014-1.23392,1.01206-2.00374,1.64389-.8513-1.87114,1.40166-2.31576,1.25-3.75786a12.43323,12.43323,0,0,1-1.29343.50892,1.08406,1.08406,0,0,1-1.47864-.79558c-.38182-1.19358-.76982-2.38506-1.05948-3.28219.69284-1.18858,2.73023-.5206,2.071-2.56438-1.06767.276-2.0949.54217-3.22458.83462-.11253-1.38458,1.154-1.20715,1.65278-1.77459.49484-.56264.9176-1.18858,1.31149-1.70839,1.27006.01857,2.47283.03615,3.67749.05272.03954.193.07848.38611.118.57922-.77472.43293-1.54894.86677-2.34213,1.31049.2018,2.343,1.938.24473,2.91106,1.13108C55.52925,209.20063,55.93433,210.45362,56.37946,211.83042Z"/><path class="c" d="M119.9392,186.026c.24672-.72639.49245-1.45278.77272-2.27772,1.19348.35975,2.30508.69424,3.44154,1.03751.69574-.67866,1.39577-1.36022,2.19585-2.14133.956,1.65957-1.74054,2.27583-.5899,3.8642.77661-.25051,1.55722-.50313,2.34942-.75954.10194.31592.22725.55675.18531.5919-1.34664,1.08524-1.08185,2.37038-.70552,3.83005.31691,1.22663,1.349,2.38895.68695,3.85062-.95894-.77132-.95894-.77132-1.663-2.348-.61237.19889-1.2427.40168-1.92.62115.05851.77711.11512,1.51718.18042,2.37227-1.49971-.938-2.13833-1.64978-3.59071-3.93928.32031-.37143.66059-.76833.97411-1.133-.05751-.14917-.08727-.27987-.11073-.27887-.57382.03115-1.14765.077-1.80874.1267C121.23162,187.23517,121.23162,187.23517,119.9392,186.026Z"/><path class="c" d="M87.89044,181.72009c-.65909-.21547-1.13786-.37243-1.75123-.57332-.15157.61826-.29205,1.19547-.42555,1.73954-1.33686.57533-3.88227-3.50834-3.325-5.3005a19.48307,19.48307,0,0,1,.89953-2.07493q1.72146.66543,3.41418,1.31928c.215-.85519.4597-1.82831.76833-3.05493,1.85806.73038,3.3416.85609,3.68387,1.54643.64013,1.29,1.57081,2.81311.54208,4.64331-1.17741-.8502-3.18554.93318-3.58094-2.06714-.16035.195-.31981.391-.47926.586C87.7164,179.50088,87.79588,180.51783,87.89044,181.72009Z"/><path class="c" d="M169.22334,236.76694c-.566-.61336-.978-1.05888-1.56111-1.69172-1.15544.93408-2.25536,1.82332-3.4723,2.80821-.214-.428-.51232-1.02773-.838-1.68-.976,1.31439-1.85068,2.4893-2.72384,3.6643-.12781-2.25246-2.51187-2.57426-3.115-4.34885,1.28125-1.81563,3.36157-.18722,4.93686-1.00916.15207-.37253.3325-.81426.64013-1.565.55285.72838.90971,1.19936,1.27245,1.67514.08188-.07119.22037-.14039.274-.24962.9761-1.98038.97411-1.98327,3.00031-1.62742.15357.02736.31882.17843.44273.14339.79069-.22626,1.88622-.96922,2.19145.22915A3.16306,3.16306,0,0,1,169.22334,236.76694Zm-8.95462-.09655a3.06089,3.06089,0,0,0,.27937-.67957,1.39841,1.39841,0,0,0-.71621-.31791c-.10823-.00389-.23154.3276-.34906.507C159.71386,236.32332,159.943,236.4676,160.26872,236.67039Z"/><path class="c" d="M81.91966,201.2343a9.68337,9.68337,0,0,0,3.68577-3.45662c.3242,1.68,2.24946,2.12176,2.1568,4.00358a27.88036,27.88036,0,0,0,.40369,4.27967c-1.02134.69524-1.97988,1.34654-3.06073,2.08172-.195-.60448-.40129-1.24221-.63533-1.9677-.36175-.05651-.80337-.12481-1.08424-.16964-.49335-1.6995-.95415-3.286-1.41484-4.87336Z"/><path class="c" d="M169.24081,174.19259c-.17932,1.92286,1.331,3.29477.54707,4.90461-1.2398.66309-1.92675-.56164-2.88329-.7216-.8566-.14328-1.73855-.14428-2.76478-.21936.08726.73038.21107,1.7659.367,3.06462-2.07982-1.65178-2.286-3.82127-.8463-5.16881a18.22573,18.22573,0,0,0,1.59376-1.96091c.70053.11513,1.526.25352,2.503.41637.0015-.61916.0029-1.04431.00439-1.84089a24.631,24.631,0,0,1,2.66443.9136,3.2127,3.2127,0,0,1,2.12955,3.6019c-.15167,1.22374-.40368,2.48261-2.12665,2.87451.12581-1.6966,1.75462-3.06561.60258-4.63741A7.09841,7.09841,0,0,0,169.24081,174.19259Zm-3.25572,2.04178c.84151.64941,1.527,1.1808,2.40163,1.85657C167.98793,175.624,167.98793,175.624,165.98509,176.23437Z"/><path class="c" d="M177.31249,194.0256c-.976.31492-1.94283.663-2.93152.93608-.99269.27687-3.65462-.83273-4.22545-1.73665-.76893-1.22174-.14388-2.29919.428-3.34739a4.46178,4.46178,0,0,1,4.63792-2.26614,12.20662,12.20662,0,0,1,2.79893.44861c1.72586.54407,2.16909,1.12519,2.1598,2.4259a4.14277,4.14277,0,0,1-2.15251,3.42447c-.21887.08976-.45241.14827-.67957.22236C177.33685,194.0968,177.32417,194.06065,177.31249,194.0256Zm-.75325-4.27477c-.02187-.19111-.04483-.38221-.06729-.57532-3.67939-.91261-5.88652.63483-5.23372,3.6702,2.23539-.08777,4.60827,1.83509,6.97625-.59669a6.91479,6.91479,0,0,1-4.47956-2.43578C174.92454,189.78788,175.74219,189.7694,176.55924,189.75083Zm1.78348,1.32029c.24322-.17354.48745-.34518.73128-.51781-.28377-.34218-.55535-.69324-.86977-1.00337a1.41216,1.41216,0,0,0-.48167.34128A12.68666,12.68666,0,0,0,178.34272,191.07112Z"/><path class="c" d="M111.557,202.70465c-.29885-.86777.05851-1.26367.90871-1.07446a3.33078,3.33078,0,0,1,2.26265,4.10014c-.5933,1.93654-.57962,1.919,1.07266,3.36017a10.26772,10.26772,0,0,1,1.133,1.46646c-.54507.56454-1.08864,1.13008-1.85657,1.92476,1.3764.38422,2.00963.56264,2.65026.74107-.96234,1.0482-.96234,1.0482-2.99733.87077-.353.55-.69763,1.08524-1.20865,1.87993-.37443-1.60006-.67078-2.80232-.93607-4.01048a9.12323,9.12323,0,0,1,.82644-6.29608c.59768-1.16912.32759-1.7717-1.25539-2.70777C111.95629,202.87529,111.75639,202.78952,111.557,202.70465Z"/><path class="c" d="M132.41964,179.48531c.36714.95264.64262,1.66535.95265,2.47082.9136-.1287,1.84877-.2604,2.78484-.392q.09361.31737.18672.63573c-.49924.23594-.99948.47-1.49821.70892-1.16862.56264-1.39877,1.18669-.62795,2.229a7.10647,7.10647,0,0,0,1.87165,1.79116c1.39387.87566,2.88329,1.59916,4.37562,2.41042.15067.75664-.28377,1.02384-.93508.745a29.1018,29.1018,0,0,1-2.737-1.44509c-.75135-.41926-1.486-.86977-2.41381-1.41574-.75375,1.838.0634,4.01048-2.034,5.77139a8.36377,8.36377,0,0,1,.08777-1.79316,11.05164,11.05164,0,0,0,.0682-6.8118c-.76983.11892-1.424.22036-2.12416.3276-.25691-1.56691,1.427-1.15055,1.72247-2.01453C132.36113,181.74546,131.17544,180.6661,132.41964,179.48531Z"/><path class="c" d="M160.886,176.53861c-.69863.51092-1.39726,1.02184-2.28661,1.67324,3.18854-.23015,3.30166-.195,3.59222,1.133.24373,1.11939.1311,2.04867-1.46456,2.35191-.0059-.7859-.01119-1.42942-.01808-2.2251-.57821.18721-1.00287.3247-1.39087.45051-.3282,1.29872.9784,2.45615-.07659,4.13229-.60947-1.35633-1.08823-2.422-1.61034-3.58533-1.59766.9195-.30423,2.22611-.59189,3.24215-2.01882-.79079-2.02621-2.79653.00249-4.96122-.84491.1317-1.58158.24572-2.76627.43a7.4575,7.4575,0,0,1,6.33742-3.1388Q160.74963,176.29,160.886,176.53861Z"/><path class="c" d="M75.28229,226.162c.67138-1.56591,1.2432-2.90087,1.81513-4.23573-.14578-.12481-.29156-.24862-.43643-.37443-.61526.30623-1.23053.61337-1.91837.95564.03754-2.97016-1.07357-5.60284-1.73615-8.30282-2.18617-.116-.38272,1.74244-1.50161,2.24657-.91121-.61236-.73817-1.70929-1.13257-2.63458a5.15058,5.15058,0,0,1,3.80229-1.10481c.40029,1.957.72689,3.82137,1.18719,5.65157.13889.54986.57233,1.34854,1.00187,1.445,1.60884.355,1.69172,1.47335,1.66735,2.72434-.00679.394-.0658.786-.10094,1.177.48805.15007.90731.27787,1.27835.391C79.35268,225.14409,77.97548,225.87337,75.28229,226.162Z"/><path class="c" d="M137.49639,238.99014c-1.49242-1.32707-1.49242-1.32707-1.66835-4.1226a2.00878,2.00878,0,0,1,3.21089.20668c.65131-.73717,1.13058-1.73365,1.88143-2.02231,1.29922-.50123,1.332.94386,1.74973,1.81174.30763-.48756.53828-.8523.90731-1.43531.86438,1.22173,2.02331,2.03978,1.99156,3.93339-1.20366-.72549-2.4859-.41536-3.45273-.70592-1.78337-.53628-2.04378,1.213-3.32542,1.60984-.35056-.78889-.68306-1.53575-1.01555-2.28171-.08387-.001-.16924-.001-.254-.001C137.51386,236.843,137.50757,237.702,137.49639,238.99014Z"/><path class="c" d="M57.48577,221.72151a11.72174,11.72174,0,0,1-.88885-2.92323,1.88805,1.88805,0,0,1,1.92676-1.72487c1.33247.05751,2.51177.88535,2.46154,2.09151-.04972,1.21784.20339,2.08571,1.27695,2.53812-.34956,2.75849-1.3764,3.58732-3.69855,3.11734-1.44789-.29255-1.77169-.8503-1.33925-2.34412C57.3331,222.09994,57.48087,221.73519,57.48577,221.72151Zm.69763,1.79127c1.29632.37732,2.30458.61236,2.82629-.84252C58.85328,221.88247,58.85328,221.88247,58.1834,223.51278Zm1.09553-3.0149c.23883-.668.37582-1.05309.51281-1.4373a5.451,5.451,0,0,0-1.40116-.41347c-.14817-.00679-.53528.74406-.44462.86008A6.46775,6.46775,0,0,0,59.27893,220.49788Z"/><path class="c" d="M97.57884,225.29426c-.05611,1.17-.10244,2.14023-.15845,3.29177-1.529-1.48014-1.91947-4.36344-.81955-5.65247a1.85138,1.85138,0,0,1,1.5723-.59768,5.44565,5.44565,0,0,0,3.8598.04483,4.15171,4.15171,0,0,1,1.61613.27887,3.08626,3.08626,0,0,1,2.72784-1.29193c-.84441,1.09982-1.58838,2.07-2.425,3.15918-.5222-.43484-.92539-.76933-1.43291-1.19248-.7893.38022-1.998.24862-1.88722,1.80385.01658.234-.77521.73128-1.20086.74106A6.28209,6.28209,0,0,1,97.57884,225.29426Z"/><path class="c" d="M97.337,178.07826c-.87077.41436-1.705.82583-2.5523,1.209-.83223.37742-1.69461-.036-1.542-.76343.31152-1.48993-.62116-2.52934-.89224-3.78722a7.64689,7.64689,0,0,1-.038-1.16522,13.81649,13.81649,0,0,1,2.17887-.68156c1.51279-.21747,2.2251.389,2.41232,1.86924C97.03078,175.76439,97.16588,176.76876,97.337,178.07826Z"/><path class="c" d="M73.6388,179.13035c.93947-.45441,1.76541-.8522,2.85065-1.3768-.3306,1.16522.253,1.956.74057,2.82669a4.86711,4.86711,0,0,1-.80058,5.59305C73.78847,184.56245,73.47305,182.01654,73.6388,179.13035Z"/><path class="c" d="M72.28537,205.97506c-.352.17553-.63623.29744-.90242.45151-.61377.355-1.25249.48066-1.68244-.18722-.49145-.76253-.81815-1.761-.01907-2.39484,1.349-1.07156,2.77946-2.14313,4.84221-2.03879.2589.80148.51531,1.59517.82294,2.54682-1.74873.93706-1.28464,2.52254-.95893,4.08466a7.42428,7.42428,0,0,1,.19061,2.45715C72.87287,209.733,73.35314,207.65909,72.28537,205.97506Zm1.35193-2.02521c-.08137-.16964-.16185-.33928-.24273-.507-1.45238.22037-1.45438.21747-2.41721,1.64979C72.05722,204.62851,72.84751,204.28923,73.6373,203.94985Z"/><path class="c" d="M143.459,190.77667c2.21732.08187,2.63119.63962,3.5419,4.55554-1.02624.81905-1.76241,2.11387-3.59362,1.48793-.47677-.16385-1.36171.86588-2.29828,1.51139-.05942-.82494-.10525-1.45967-.15986-2.2252-.53389-.158-1.11111-.3305-1.84389-.548.34617-.624.63573-1.14764.976-1.761-.44023-.40658-.87017-.80537-1.35972-1.25778.311-.233.48855-.47976.66987-.48266a1.753,1.753,0,0,1,1.96281,1.63131,12.16623,12.16623,0,0,0,.71181,1.99885,5.61552,5.61552,0,0,0,.99848-.06141c2.88479-.86977,3.05054-1.54544.9824-3.83394A6.15933,6.15933,0,0,1,143.459,190.77667Z"/><path class="c" d="M101.87109,234.25707c-1.85457-.85609-3.35528-1.62831-3.14849-3.9939,2.23388.90981,3.4069-.99458,4.97969-2.06614.837,1.59426,1.51089,2.8774,2.19735,4.186-1.32708,1.26567-2.11987-1.16422-3.50345-.40468C102.25281,232.6024,102.08117,233.34636,101.87109,234.25707Z"/><path class="c" d="M67.83666,185.64969c-1.80884.22816-.27009,1.75712-.84691,2.97207-.61675-.40958-1.53815-.69824-1.60395-1.12039-.24133-1.55133-1.63131-2.40353-2.037-3.84274-.4578-1.61773-.42994-2.12176.65191-2.5479a2.14854,2.14854,0,0,1,2.52544,1.46646C66.91028,183.52594,67.32764,184.46111,67.83666,185.64969Z"/><path class="c" d="M67.11456,222.46458c-1.84238.15307-1.14135-1.3768-1.75072-2.00184-.67627-.15507-1.2447-.1307-1.16473.83272.04434.55675.14528,1.10861.28327,2.113a12.36006,12.36006,0,0,1-2.2924-7.14339c.93607-.16,1.90719-.32661,2.76778-.47388C65.707,218.10993,66.39786,220.24916,67.11456,222.46458Z"/><path class="c" d="M67.83127,180.87958a1.88236,1.88236,0,0,1,2.78824-.47578,2.68907,2.68907,0,0,1,1.48793,2.71456c-.10095.90492.08537,1.839.06869,2.75949a8.21888,8.21888,0,0,1-.34117,1.5045c-1.00777-.67956-1.841-1.24121-2.75021-1.85357C69.61614,183.85553,68.42456,182.5021,67.83127,180.87958Z"/><path class="c" d="M58.51539,230.95162c-.47237.04483-.94385.09845-1.41723.1297a1.96774,1.96774,0,0,1-2.24318-1.33486,2.5971,2.5971,0,0,1,1.02434-2.92134,1.94953,1.94953,0,0,1,2.75849.37053c.253.30124.54846.56744.81755.8561C60.60211,229.28227,60.194,230.54015,58.51539,230.95162Z"/><path class="c" d="M60.4095,226.10163c1.02234-.57533,1.73855-.978,2.60682-1.46557,1.214.19011,1.58258,1.12818,1.54644,2.427-.03065,1.08035.05322,2.16459.09026,3.38543a2.43846,2.43846,0,0,1-3.25623-.92639A13.50016,13.50016,0,0,1,60.4095,226.10163Z"/><path class="c" d="M102.9783,176.84674c-.43833.30523-1,.69623-1.71568,1.19547-.68695-.43783-1.9643-.8513-1.995-1.34375-.12292-1.94233-2.40114-3.58233-.84491-5.72755,2.24117.46419,2.33084.73518,2.816,2.8794A11.81128,11.81128,0,0,0,102.9783,176.84674Z"/><path class="c" d="M129.86394,195.96984c.59969.37542.89713.56164,1.32129.82693.39389-.88734.7825-1.761,1.40016-3.14759.85319,2.28172,2.67322,3.62926,1.74833,5.90119-1.2432.41726-1.07167-2.25047-2.73463-1.06088.03215.73418.0702,1.59327.117,2.66772C130.40022,200.03393,129.938,198.72343,129.86394,195.96984Z"/><path class="c" d="M66.48273,223.6941c.44172.36175.73328.60168,1.152.94486.16964-.60937.32081-1.15544.50073-1.80485.28277.17653.5265.24773.62745.40758.47148.746.90292,1.51529,1.40016,2.36649-.30274.92439-.67567,2.06235-1.05649,3.21779-.80347-.0702-1.68782-.09756-2.5542-.23594-.93747-.14828-1.409-.65041-1.05159-1.682C65.82992,225.95824,66.09272,224.98513,66.48273,223.6941Z"/><path class="c" d="M88.41843,261.38854a8.65546,8.65546,0,0,1-.77222-.4554c-.23843-.17354-.44222-.3919-.82494-.73718-.26709.73139-.47048,1.28914-.68695,1.88-1.95841-.669-2.78864-2.18616-3.27909-4.267.62744-.11992,1.31729-.25152,2.24457-.42905-.09655.90293-.156,1.46457-.24912,2.32945.9829-1.09693,1.77459-1.97938,2.90616-3.241.48416,1.84767.84441,3.22258,1.20616,4.59738Q88.69027,261.22673,88.41843,261.38854Z"/><path class="c" d="M90.72351,227.05517a18.387,18.387,0,0,1-.467,3.65951,1.7459,1.7459,0,0,1-3.38993.10724,15.28581,15.28581,0,0,1-.95993-4.13729,1.8725,1.8725,0,0,1,2.67322-1.74144A10.66077,10.66077,0,0,1,90.72351,227.05517Zm-2.385,3.9959c1.94334-1.85757,1.74973-3.75018-.42125-5.18548A4.48245,4.48245,0,0,0,88.33855,231.05107Z"/><path class="c" d="M155.32317,201.17379a11.86426,11.86426,0,0,1,.08187-6.83716q.272-.098.54457-.195a29.3504,29.3504,0,0,0,2.016,2.72534c.76493.82873,1.55712,1.55812,1.17781,2.97495-.73319-.277-1.47865-.83961-2.02711-.68845C156.54979,199.30954,156.17487,200.15874,155.32317,201.17379Z"/><path class="c" d="M128.73726,202.72322c.06091.69035.08827,1.38459.19311,2.06914.08287.548.08287,1.33387.42655,1.5767,1.7659,1.24709.43783,3.27619,1.31978,4.81584-1.36271-1.09013-2.10618-2.90965-4.26209-2.931.31742-2.19785.37443-4.25131,2.389-5.5034Z"/><path class="c" d="M153.81857,203.19131c-.64842-1.62742-1.75413-1.096-2.80233-.74307-.62015-.977.11263-2.83257-2.08521-2.2924,1.50061-2.59174,2.19005-2.72234,5.07036-1.173.09755,1.21695.20239,2.52745.30812,3.83884C154.14626,202.94459,153.98241,203.0684,153.81857,203.19131Z"/><path class="c" d="M80.97919,216.4922c-.96343.46219-1.71768.82394-2.66153,1.27645-.53039-1.64209-1.10761-3.091-1.4465-4.59658-.23544-1.03941.469-1.74334,1.5782-1.94623,1.07006-.195,1.37819.51092,1.58008,1.332C80.34636,213.84294,80.652,215.132,80.97919,216.4922Zm-2.06914-2.11877a4.53408,4.53408,0,0,0,.12721-1.135,3.47317,3.47317,0,0,0-.51821-.8523C77.95691,213.17117,77.777,213.67919,78.91005,214.37343Z"/><path class="c" d="M175.593,229.47727c1.994.7196.48117,3.79311,3.39951,3.42058-1.51378.40168-2.50737,1.58837-3.98072.77032-.36514-.20379-1.133.31782-1.71947.507-1.21495-.72739-1.35783-1.69861-.83962-3.06562C173.95142,231.58635,175.2766,231.51326,175.593,229.47727Z"/><path class="c" d="M79.537,227.8177c.63483,1.02194,1.17062,1.88383,1.83121,2.94671a2.3727,2.3727,0,0,0,.21986,3.10655,1.47917,1.47917,0,0,1-.0014,2.346c-1.4373-1.10571-1.08724-2.96228-2.07742-4.33318-.56364-.04-1.23931-.08877-1.88143-.1356C76.9818,231.014,77.895,229.14378,79.537,227.8177Z"/><path class="c" d="M147.02134,208.48982c.54168,2.26993-.01358,2.659-2.83547,1.96869-.57971,1.1145-1.16771,2.24747-2.02281,3.89346-.56893-1.76-.95414-2.9516-1.42113-4.39659.683.14528,1.24121.2642,1.973.42026C143.63791,208.82031,145.254,208.482,147.02134,208.48982Z"/><path class="c" d="M101.81747,170.50782c1.08375-.35007,1.78148-.57632,2.776-.89713.09166.90192.1297,1.5718.23354,2.232.1326.84141-.45,1.88871.79669,2.46493.173.079-.1317,1.19348-.23894,2.00085C102.165,175.39485,103.29272,172.44036,101.81747,170.50782Z"/><path class="c" d="M111.2947,255.32061c-.57143-.74107-.70892-1.78048-2.01692-1.93155-1.04341-.12092-1.20626-1.37291-1.02194-2.347a1.715,1.715,0,0,1,2.02181-1.55043,10.98948,10.98948,0,0,1,1.42752.36085c.05172,1.84388.101,3.6019.15067,5.359C111.66863,255.24752,111.48191,255.28456,111.2947,255.32061Zm-1.81753-3.18264c.20819.02925.41827.05851.62745.08687.001-.48856.00139-.97611.00289-1.88682-.46269.56753-.69763.72938-.72889.92439A3.11674,3.11674,0,0,0,109.47717,252.138Z"/><path class="c" d="M68.88875,234.86165c-.608-.09356-1.20086-.18332-1.94483-.29835.72939-1.3729,1.37291-2.58205,2.04328-3.84283.65131.978,1.2461,1.87025,1.96141,2.9457-.64162.783-1.3105,1.79416.019,2.96617.61915.54607.233,1.11161-.73668,1.60505C69.79747,237.14626,69.3821,236.102,68.88875,234.86165Z"/><path class="c" d="M134.2791,172.84305c.6557-1.74534,1.20037-3.19233,1.81563-4.82753.295.31682.65909.53139.742.82394.48655,1.722.94585,3.45363,1.31639,5.203.06969.33249-.30664.76054-.47687,1.14375-.30125-.1979-.83214-.36175-.86678-.59868C136.62073,173.27988,135.56813,173.14629,134.2791,172.84305Z"/><path class="c" d="M90.71133,219.25847c.295,1.09214,1.63131,2.1013-.23833,2.95549-.64113-.9819-1.26517-1.93644-1.91758-2.933,1.369-.86288-.61915-3.77354,2.39624-3.8642.27409.84831.54907,1.69861.87327,2.70187C91.55484,218.39559,91.17742,218.7807,90.71133,219.25847Z"/><path class="c" d="M110.21385,193.86275c-.30034-2.60931,1.91887-2.38216,3.18014-3.31823.64312.51192,1.23881.9849,1.876,1.49292C114.62262,195.338,112.24734,193.73105,110.21385,193.86275Z"/><path class="c" d="M179.63225,179.497c-.22137,1.19837-.44273,2.39674-.6567,3.56675.9823.35107,1.777.63483,2.62968.94007-.03265,1.367-.48705,2.06325-1.84727,1.93055-1.4455-.14039-1.94573-.60448-1.88233-2.08851C177.94343,182.2389,177.899,180.55787,179.63225,179.497Z"/><path class="c" d="M128.7148,166.235c-2.50008-.11612-3.32642.56254-4.43113,2.05346-.73179-.57042-2.07064-.55385-1.68254-2.04867.96293-1.35723,2.4928-.09555,3.63116-.90192a25.49017,25.49017,0,0,1,3.57464-1.75512C129.39346,164.58616,129.07954,165.34869,128.7148,166.235Z"/><path class="c" d="M146.35247,203.70612c.8464-1.81073,1.61133-3.442.15745-5.09961-.43044.04383-.88345.08966-1.5021.15207.09066-.44273.06829-1.02094.255-1.09992.51431-.21547,1.426-.48946,1.62741-.25931a6.70246,6.70246,0,0,1,1.32069,2.43768,9.35326,9.35326,0,0,1,.08826,2.38795c.55535.21158,1.095.41637,1.74783.664C148.52834,203.9167,148.52834,203.9167,146.35247,203.70612Z"/><path class="c" d="M136.60615,202.2815c2.149.549,2.25825,2.26314,2.59075,3.74328a1.51713,1.51713,0,0,1-.783,1.2423c-.37493.14628-1.36951-.20768-1.37969-.38221C136.95033,205.39494,135.76463,203.99668,136.60615,202.2815Z"/><path class="c" d="M84.34945,226.84749c-.43684.357-.87267.7148-1.56541,1.28224a6.41338,6.41338,0,0,1,1.94133,1.00726,3.66769,3.66769,0,0,1,.69674,1.90819c.09066.81905-.3306,1.35153-1.46457,1.16821.06381-.589.12431-1.15553.18472-1.72007-2.0939-.29934-2.0939-.29934-2.24407-3.69356.68985-.18332,1.43581-.38222,2.18317-.58211C84.16962,226.42723,84.25978,226.63791,84.34945,226.84749Z"/><path class="c" d="M131.55426,203.005c1.28664.04,1.82192.72839,1.71269,1.53286a3.28576,3.28576,0,0,0,1.14914,2.84815c.59769.62405.51532,1.27835-.01018,1.59137a1.66377,1.66377,0,0,1-1.58309-.31891C131.49725,207.05251,131.54887,205.079,131.55426,203.005Z"/><path class="c" d="M111.557,202.70465c.19939.08487.39929.17064.59968.25451a8.68252,8.68252,0,0,1,.18572,2.48062,1.68536,1.68536,0,0,1-1.98677,1.292,1.57862,1.57862,0,0,1-1.45428-1.59037c-.05751-.54607-.08627-1.09213-.1272-1.63231C109.49075,202.43067,110.55024,202.65882,111.557,202.70465Zm.04972,1.40026c-.49045-.03994-.82-.15895-.91949-.05561a2.182,2.182,0,0,0-.46709.88245c-.02147.07119.43394.36954.45141.35007A14.25251,14.25251,0,0,0,111.60672,204.10491Z"/><path class="c" d="M106.56412,205.079a2.91542,2.91542,0,0,1-1.20226,3.09487,1.6722,1.6722,0,0,1-2.24128-1.13407c-.42605-1.21-.05551-2.64436.76353-2.95349A2.582,2.582,0,0,1,106.56412,205.079Zm-.89413.96143c-.5251-.1307-.82295-.30424-1.00048-.22236a.95219.95219,0,0,0-.41336.64551c-.022.12281.35875.45051.3914.42805A10.355,10.355,0,0,0,105.67,206.04046Z"/><path class="c" d="M83.93708,223.65316c-1.155.45341-2.20763.86488-3.59951,1.41095.49824-1.74344.88585-3.09777,1.32019-4.61406-.96533-.197-1.60635-.32859-2.32166-.47487.10584-.35975.10534-.69134.23993-.76054,1.65318-.85419,2.79454-.2623,3.011,1.526A3.72056,3.72056,0,0,0,83.93708,223.65316Z"/><path class="c" d="M81.97078,201.132c-1.28614.9848-1.85846,2.38886-1.12958,3.75986.60548,1.13687,1.82631,1.94723,2.9471,3.07541a3.99609,3.99609,0,0,1-1.33536.09166,4.75378,4.75378,0,0,1-1.97888-7.32771c.79569-.9,1.19248-.32081,1.4451.50413Z"/><path class="c" d="M128.80356,202.75048a25.33457,25.33457,0,0,1-1.77019-2.52145c-1.12768-2.08471-.6597-3.81747,1.61273-5.52087.05562.64352.28667,1.20027.10285,1.52008-1.47475,2.56738-1.40706,3.19922.73867,5.14155a5.61352,5.61352,0,0,1,.49584.61826c-.46659.275-.85759.505-1.24769.73417Z"/><path class="c" d="M143.30921,169.50055a7.698,7.698,0,0,1,.38232-1.75911,22.34167,22.34167,0,0,1,1.46107-2.32844c.49294.49244,1.1784.88145,1.36611,1.4373a10.51549,10.51549,0,0,1,.01368,2.19195c.0653.67477.37443,1.34555-.48656,2.11587-.40757-.68056-.73667-1.23052-1.10431-1.84478-.5216.04094-1.116.08866-1.71078.13549Z"/><path class="c" d="M85.56249,218.97381c-.68255-.10923-1.25348-.1999-2.00134-.31981.70932-1.52507,1.95262-1.62252,3.324-2.0301.01169.7215.05512,1.2412.02287,1.757-.07938,1.334-.15107,2.67172-.31981,3.9949-.04673.36565-.42266.68935-.64642,1.03063-.24083-.35386-.68455-.70982-.68155-1.06278C85.267,221.24374,85.44447,220.14292,85.56249,218.97381Z"/><path class="c" d="M135.39949,213.69277c-.73567.76933-1.49382,1.56012-2.24268,2.34313-2.00623-1.7737-2.04328-2.897-.36474-4.55844C133.57118,212.13855,134.35129,212.80163,135.39949,213.69277Z"/><path class="c" d="M153.19891,177.93587a23.24821,23.24821,0,0,0-.60008,4.00559c.04143,1.67524,1.90579,1.57869,2.96956,2.34512a2.48916,2.48916,0,0,1-3.83594-1.15254,4.91149,4.91149,0,0,1-.26569-2.73223C151.61693,179.49889,151.72167,178.34545,153.19891,177.93587Z"/><path class="c" d="M170.96628,183.17108a14.95074,14.95074,0,0,0-2.38166,1.20516,1.32445,1.32445,0,0,0-.175,1.27146c.14388.27108.77183.37742,1.18869.38711a9.02022,9.02022,0,0,0,1.65857-.27788c-1.00577,1.65378-2.09111,2.02621-3.24405,1.27935a2.2205,2.2205,0,0,1-.61286-3.13C168.2039,182.59476,169.4466,182.31888,170.96628,183.17108Z"/><path class="c" d="M70.13735,200.03593c1.49671-.22037,2.78035-.40858,4.16354-.61237.01068,1.14276-.69863,1.36412-1.34025,1.61084a15.16106,15.16106,0,0,1-6.01382,1.56791C68.32611,201.4927,69.27676,200.72727,70.13735,200.03593Z"/><path class="c" d="M135.86308,244.99557c-1.03352-.10434-1.51378,1.22274-2.71755.44562,1.5714-1.08524,3.00032-2.073,4.43862-3.06661.82045,1.09892.93657,2.739.08677,3.50934C136.48373,246.95938,136.43741,245.36421,135.86308,244.99557Z"/><path class="c" d="M121.11321,215.79307c.61715-.158,1.172-.29935,1.94523-.49724-.00779.79079-.01269,1.35343-.021,2.27193.63523-.55586,1.04241-.91271,1.49232-1.30561.33009,1.35433.33009,1.35433-.42116,3.25673C122.14483,219.125,121.56022,217.64184,121.11321,215.79307Z"/><path class="c" d="M100.3573,253.71177c.56554.69034,1.12129,1.36311,1.66785,2.04377a1.72619,1.72619,0,0,1,.23594.40948,2.14122,2.14122,0,0,1-.53039,2.59174c-.24672.22236-1.1146.22626-1.22572.04294a4.795,4.795,0,0,1-.89314-2.27683A11.06851,11.06851,0,0,1,100.3573,253.71177Z"/><path class="c" d="M172.07439,182.52656c1.58888-.68355,2.24078-.18531,2.92333,2.27773.53289.13749,1.094.28176,1.604.41346.04484.82395-2.28161,1.48014-4.1245,1.33586C173.78567,184.05054,173.78567,184.05054,172.07439,182.52656Z"/><path class="c" d="M92.01115,212.85226c.81026-1.22953,1.31679-1.996,1.8994-2.88031-.68156-.60068-1.24071-1.094-1.80974-1.59626,1.31739-.70882,2.03889-.36564,2.73223,1.136a23.39931,23.39931,0,0,0,1.35633,2.22121C95.24591,212.48562,93.88568,212.63679,92.01115,212.85226Z"/><path class="c" d="M85.90427,246.0945c-1.10042.355-1.62162.47777-2.10029.69324a9.95718,9.95718,0,0,0-1.20037.76154,3.72951,3.72951,0,0,1-.80147-3.77354C83.86389,243.29407,84.20766,245.27055,85.90427,246.0945Z"/><path class="c" d="M160.45743,198.68639c.01118-1.482.02047-2.83547.03215-4.33129,2.29579,1.16233,2.8813,2.10818,2.40063,3.52781C162.49971,199.03745,161.76054,199.2705,160.45743,198.68639Z"/><path class="c" d="M108.69167,168.98664c.17893,1.12139-.01557,2.19684,1.19009,2.95349.86787.54507.54456,1.66645-.43,2.59563-.75085-1.525-2.04527-2.584-2.2256-4.31371C107.12866,169.28408,107.47194,168.894,108.69167,168.98664Z"/><path class="c" d="M126.11677,231.97546c-.19351-.59969-.38761-1.19937-.58311-1.80485,1.18668-.38321,2.25435-.72839,3.5337-1.14185.3905.70013.7859,1.41284,1.35872,2.44356-1.55961-.12091-2.96766-1.1769-3.75935.98091Q126.39175,232.21479,126.11677,231.97546Z"/><path class="c" d="M135.89533,193.18409c1.15444-.2594,2.09051.1326,1.9657.98679-.21357,1.46067,1.69322,3.17186-.60018,4.62574C136.789,196.85518,136.36232,195.104,135.89533,193.18409Z"/><path class="c" d="M70.48542,247.45572c.36364,1.12518.70931,2.19485,1.056,3.26841-2.35041.47976-2.35041.47976-3.56246-1.996.55246-.38121,1.11061-.781,1.68843-1.15353C69.78389,247.49865,69.9691,247.52591,70.48542,247.45572Z"/><path class="c" d="M106.43682,256.81153c-.02876-.82783-.04194-1.175-.05262-1.52207-.01029-.30424-.01758-.60748-.02826-.95754-.5899-.18522-1.09653-.34517-1.5748-.49634-.04583-.896-.08776-1.7054-.1282-2.51466.1317-.081.26959-.23994.3954-.23015,1.86974.14528,1.3076,2.266,2.47721,3.11834C108.04626,254.59032,107.71227,255.84031,106.43682,256.81153Z"/><path class="c" d="M86.38933,190.14283a16.64534,16.64534,0,0,1-.79079-2.5488c-.11652-.81127,1.01215-1.80006,1.70589-1.46946a1.70451,1.70451,0,0,1,.71521,1.46157C87.85679,188.43055,87.97092,189.54415,86.38933,190.14283Z"/><path class="c" d="M67.80691,252.92876a5.90369,5.90369,0,0,1-1.59527-.56064,14.31248,14.31248,0,0,1-1.60734-1.70829c-.90732-1.06867-.52221-1.8995,1.07785-2.37727C66.315,249.66714,66.94832,251.05173,67.80691,252.92876Z"/><path class="c" d="M111.21622,218.34777c1.50211.89323,2.40013,1.42752,3.55457,2.114-.1.35685-.27738.99358-.491,1.75322-.88195-.15406-1.60984-.28087-2.4884-.43494C111.6238,220.77576,111.46284,219.81722,111.21622,218.34777Z"/><path class="c" d="M125.307,244.87955c1.88622-.65719,2.30508-.32181,3.05973,2.50208.42176.0039.86977.00779,1.93315.01947-1.333.84831-2.22131,1.41284-3.50445,2.229.16624-1.35344.5241-2.24947.29006-2.9476C126.86462,246.02141,126.02411,245.568,125.307,244.87955Z"/><path class="c" d="M118.812,179.59644c-.00929.02146-.14528.34317-.28327.664-.37253-.16674-.99308-.25641-1.07206-.51281a2.77688,2.77688,0,0,0-1.30421-1.8332c-.233-.12971-.30084-.82584-.1989-1.19448.07749-.28766.60408-.70592.81276-.64741a1.752,1.752,0,0,1,.96383.82684C118.12018,177.6551,118.37569,178.48094,118.812,179.59644Z"/><path class="c" d="M65.59928,238.97936a13.43786,13.43786,0,0,1-1.58349-6.96107,13.9614,13.9614,0,0,1,.882,1.57969c.50752,1.37869,1.00337,2.76528,1.41673,4.17333a3.40229,3.40229,0,0,1-.15156,1.27535C65.9752,239.02329,65.78749,239.00183,65.59928,238.97936Z"/><path class="c" d="M76.48456,259.39838c.45969.25941,1.03452.4622,1.01844.5929-.20918,1.73075,2.2276,2.37327,1.68982,4.185-.05562.18911-.31492.31781-.49145.48655-.66888-.75964-1.31639-1.49581-2.20074-2.50108C76.49774,261.6138,76.49184,260.6289,76.48456,259.39838Z"/><path class="c" d="M79.65162,244.42714a4.38525,4.38525,0,0,1-.37,4.07967c-1.41394-.54017-1.40655-1.72876-1.39437-2.76038C77.8979,244.80736,78.69408,244.53048,79.65162,244.42714Z"/><path class="c" d="M92.16182,240.77642c.33339.8503.5894,1.5026.86488,2.20663a1.63515,1.63515,0,0,1-2.45186.31492A1.76376,1.76376,0,0,1,90.023,241.888C90.12782,240.61456,91.24961,240.99678,92.16182,240.77642Z"/><path class="c" d="M96.66274,258.97623c-2.30558-1.32418-.6504-3.53271-2.02131-4.74765.86538-.61726,1.41774-.59869,1.62152.2574.24373,1.02184-.1936,2.24857.998,2.99743A8.67755,8.67755,0,0,1,96.66274,258.97623Z"/><path class="c" d="M85.74292,210.06361c-.09855,1.9033-.78011,3.94708,2.07493,4.63253-1.19448.978-1.977.6582-2.621-.193A3.282,3.282,0,0,1,85.74292,210.06361Z"/><path class="c" d="M120.37753,169.208c-.93607-.49824-1.724-.9166-2.8165-1.49771.91111-.75086,1.52258-1.25589,2.18946-1.80585A2.22675,2.22675,0,0,1,120.37753,169.208Z"/><path class="c" d="M111.58915,234.89969c.74207.42515,1.32028.75565,1.94383,1.1116-.69574,1.60785-2.27243.79369-3.21529,1.54844C109.75745,235.89916,109.75745,235.89916,111.58915,234.89969Z"/><path class="c" d="M140.14564,215.4401c-3.08219-1.09013-4.01686-3.62236-2.21541-5.22442a12.51236,12.51236,0,0,0,.4525,2.70877A14.6868,14.6868,0,0,0,140.14564,215.4401Z"/><path class="c" d="M120.64712,175.67662c.53678-.625.93747-1.09113,1.49621-1.74244.48366.65231,1.12139,1.15354,1.20906,1.73665.08686.56943-.24563,1.62732-.643,1.7668C121.40326,177.89883,121.3121,176.56107,120.64712,175.67662Z"/><path class="c" d="M97.03567,243.18684a2.10458,2.10458,0,0,1-1.43431-2.7556c.08917-.34217.80837-.665,1.26517-.704.22616-.01947.73468.63673.7201.96932A14.61591,14.61591,0,0,1,97.03567,243.18684Z"/><path class="c" d="M106.30721,240.89633c-1.32667-1.15543-1.51-2.31965-1.195-4.03384.84052.49145,1.48693.86978,2.33483,1.36512C107.07454,239.09838,106.73526,239.89307,106.30721,240.89633Z"/><path class="c" d="M107.73324,227.4901c.63762-.02536,1.27685-.039,1.91357-.08287.411-.02826.81756-.13559,1.22863-.14528a6.99056,6.99056,0,0,1,1.01934.117c-.06919.34318-.035.77612-.23394,1.01406a5.99148,5.99148,0,0,1-1.19208.87556q-1.38584-.6611-2.77556-1.32508C107.70638,227.79234,107.71956,227.64028,107.73324,227.4901Z"/><path class="c" d="M81.04889,187.124c1.26956.81516,1.68442,1.66047,1.287,2.73992-.1287.35106-.741.84641-.96822.77132-.42365-.13749-1.03352-.66209-1.016-.99458A11.77858,11.77858,0,0,1,81.04889,187.124Z"/><path class="c" d="M66.4374,263.10852c1.95351.87276,1.4372,2.8151,2.29919,4.09245-.62794.546-1.36462.51192-1.5762-.14239A29.52415,29.52415,0,0,1,66.4374,263.10852Z"/><path class="c" d="M140.90868,246.21731c-.32281-2.07883-.60068-3.8671-.88156-5.67294C141.86372,241.56921,142.25662,243.81677,140.90868,246.21731Z"/><path class="c" d="M119.19134,235.04687c-.98679.11123-1.67664.19021-2.34652.26629-.56653-1.94333-.56653-1.94333,1.83989-2.45236C118.84317,233.54526,119.00313,234.2356,119.19134,235.04687Z"/><path class="c" d="M68.30754,261.9394c.75715.09366,1.46217.0683,1.49292.20189.31342,1.34165.527,2.70777.724,4.07288.01168.08-.357.21448-.70213.41148C69.35135,265.16887,68.91022,263.80375,68.30754,261.9394Z"/><path class="c" d="M117.224,220.76308c-2.31236-1.71908-2.31236-1.71908-1.2427-3.62926C116.63514,218.29125,118.33125,218.812,117.224,220.76308Z"/><path class="c" d="M151.22932,158.2725c-1.12478.99758-1.896,1.68013-2.80871,2.4904-.09116-1.32219-.16235-2.35481-.24423-3.5405C149.011,157.50906,149.79251,157.77815,151.22932,158.2725Z"/><path class="c" d="M72.40628,194.716c-.43244-1.46556-1.50889-2.62789-.21447-4.01926C73.75582,192.77451,73.99226,193.31379,72.40628,194.716Z"/><path class="c" d="M125.88612,249.65835c-.95654.79769-1.71948,1.20816-2.48251.33449a2.55468,2.55468,0,0,1,.55335-3.35817C123.9346,249.11429,123.9346,249.11429,125.88612,249.65835Z"/><path class="c" d="M94.0081,258.005c-.19211.40079-.38472.80058-.64162,1.33786a9.85822,9.85822,0,0,1-2.00963-1.24131c-.26031-.2633-.10235-.94.24133-1.71618q.87617,1.13648,1.75072,2.27193C93.56877,258.44,93.78773,258.22248,94.0081,258.005Z"/><path class="c" d="M89.83767,213.75518c-1.57131-1.057-1.08035-2.76528-1.39877-4.23274C90.06781,210.51013,89.57686,212.26915,89.83767,213.75518Z"/><path class="c" d="M87.62724,245.37589c-.55974-.94775-.99658-1.94822-.26479-2.99742.1297-.18522.78739-.001,1.29881.01468-.13459,1.134-.24572,2.07393-.35785,3.0139C88.07865,245.39636,87.8529,245.38658,87.62724,245.37589Z"/><path class="c" d="M77.53126,192.18851c-1.18909-.55865-1.61663-1.27246-1.16423-2.2953a1.01094,1.01094,0,0,1,.94536-.2613C78.19145,190.27443,78.24946,191.10137,77.53126,192.18851Z"/><path class="c" d="M118.854,215.67614c1.59077,1.09883,1.87164,2.80432.95014,5.23022C119.45554,218.98939,119.19913,217.57554,118.854,215.67614Z"/><path class="c" d="M100.994,241.35563c-.31592-.31691-.55925-.44851-.61726-.63862-.2623-.8513-.35636-1.71718.55675-2.25536a1.44688,1.44688,0,0,1,.83033.07988,17.30184,17.30184,0,0,1-.21207,2.15691C101.51763,240.89054,101.26651,241.04561,100.994,241.35563Z"/><path class="c" d="M83.16186,262.64243c-1.43631-.03994-1.88093-1.17491-1.31829-4.07967C82.34571,260.117,82.72163,261.28031,83.16186,262.64243Z"/><path class="c" d="M141.78184,160.0384c1.171-.30813,1.9009-.50123,2.67262-.705.10335,1.06577.3281,2.04088-1.151,2.40652C142.91631,161.306,142.47169,160.80972,141.78184,160.0384Z"/><path class="c" d="M68.76734,194.94021c-.50074-1.07456-.88834-1.90729-1.35094-2.90187.48456-.27009.98969-.55186,1.62782-.90871A3.341,3.341,0,0,1,68.76734,194.94021Z"/><path class="c" d="M143.23074,169.44883c.21357,1.17111-.53629,1.15544-1.29094.98a11.76892,11.76892,0,0,1-1.61813-.628c.26081-.3276.55426-.95355.77562-.92919a12.25185,12.25185,0,0,1,2.20853.62595Z"/><path class="c" d="M152.25805,165.53391c.04972.87956.08677,1.56212.1306,2.33144-1.40216.24473-1.6406-.79568-2.2904-1.63331C150.86458,165.98442,151.48523,165.78353,152.25805,165.53391Z"/><path class="c" d="M134.63356,162.245c-.49534.81126-.99018,1.62252-1.55432,2.54681C131.86629,162.96943,131.86629,162.96943,134.63356,162.245Z"/><path class="c" d="M74.27453,245.8273c1.02434,1.018,1.61473,1.60106,2.35141,2.33334-.79808.25751-1.41434.4573-2.40892.77811C74.236,247.87887,74.25017,247.11344,74.27453,245.8273Z"/><path class="c" d="M126.82808,175.12177c-.76493.82983-1.3768,1.489-2.19585.52759a1.254,1.254,0,0,1-.04143-1.21105C125.46836,173.67578,126.0929,174.3145,126.82808,175.12177Z"/><path class="c" d="M123.30755,233.832c-1.27535.08377-2.00523-.22526-1.94912-1.31928a1.21984,1.21984,0,0,1,.90432-.7908C123.49137,231.84575,123.17446,232.85012,123.30755,233.832Z"/><path class="c" d="M137.8825,162.37463c-.548-1.30261.00389-1.86525,1.24759-2.08461C139.56453,161.87839,139.56453,161.87839,137.8825,162.37463Z"/><path class="c" d="M106.76891,231.37088c-.22136-.68446-.44223-1.37-.72889-2.25636.54846-.02725,1.07406-.20279,1.22713-.035.67916.74007.38611,1.52307.02676,2.26414C107.11848,231.35141,106.94434,231.36109,106.76891,231.37088Z"/><path class="c" d="M75.491,206.24125q1.14739.436,2.2943.86887c-1.13647.86488-1.94233.67378-2.563-.18042C75.31254,206.70155,75.40221,206.4714,75.491,206.24125Z"/><path class="c" d="M91.3842,184.54688c-.02446,1.16322-.039,1.84488-.05811,2.72144-.47777-.12191-.99548-.10723-1.09692-.30623C89.8162,186.16061,89.864,186.13625,91.3842,184.54688Z"/><path class="c" d="M72.17524,208.09492c-.23065.53139-.4627,1.06278-.76643,1.76-.36615-.28276-.76593-.43683-.7893-.63573-.10584-.8464.43094-1.22183,1.07356-1.45877C71.85443,207.87166,72.01528,207.98379,72.17524,208.09492Z"/><path class="c" d="M74.69679,235.72942c-.32281-.63762-.64312-1.27335-1.12039-2.21731,1.544.26819,1.4372,1.174,1.6971,1.84C75.0804,235.47791,74.88879,235.60272,74.69679,235.72942Z"/><path class="c" d="M80.55933,181.83712c-.40218-.31882-.83073-.5285-.80926-.67078a2.63968,2.63968,0,0,1,.50363-.86887c.20089.1941.50213.35885.57143.59189C80.88753,181.10194,80.69732,181.3886,80.55933,181.83712Z"/><path class="c" d="M154.24421,166.67866q.45636-.53244.91171-1.06577c.136.10634.27109.21357.40708.32181q-.43149.55131-.86588,1.10281C154.54605,166.9185,154.39439,166.79858,154.24421,166.67866Z"/><path class="c" d="M99.95262,209.59164c-.31841-.19211-.55136-.3335-.7844-.47488.10823-.17164.21447-.48456.3251-.48656a2.54424,2.54424,0,0,1,.77811.22915C100.18666,209.05336,100.10179,209.24746,99.95262,209.59164Z"/><path class="c" d="M134.37855,194.52774a3.47561,3.47561,0,0,1,.71031.54307c.04.05072-.18332.44073-.31881.46219a.68642.68642,0,0,1-.56653-.2603C134.13043,195.16057,134.2811,194.90117,134.37855,194.52774Z"/><path class="c" d="M72.929,262.70973q.59894.01467,1.19638.02925.01752.21657.03554.43c-.42065.0653-.84091.1316-1.26167.196Q72.9145,263.03733,72.929,262.70973Z"/></g></svg>