<svg xmlns="http://www.w3.org/2000/svg" viewBox="0 0 300 300"><defs><style>.a{fill:none;}.b{fill-rule:evenodd;}</style></defs><title>gl_nav12</title><rect class="a" x="-0.08792" y="-0.0747" width="300.07579" height="300.0747"/><path class="b" d="M272.94583,41.849c-.13309,5.61466-.34625,11.22677-.3816,16.841-.09145,14.17134-.08943,28.3428-.14661,42.51521-.03843,9.80857-.1383,19.61874-.15907,29.42987-.00521,2.994.16844,5.98646.24531,8.98151.025.95132.0032,1.90328.0032,2.85567-.21113.03013-.42216.05877-.63319.08783-.2205-.85155-.43887-1.70258-.74657-2.89463a19.12464,19.12464,0,0,0-2.21685.85571q-5.87817,3.15518-11.71494,6.3836a21.33813,21.33813,0,0,0-1.96717,1.42086c-.43983.315-.86305.80109-1.34761.88116a11.96893,11.96893,0,0,0-6.64509,2.917c-.50947-1.37657-.864-2.33215-1.37039-3.69839-6.92373-.59943-14.12716-1.22325-21.52405-1.86272v2.078c-1.07409.21518-2.10452.42162-3.05382.61242-.25361-.16748-.47614-.23083-.53959-.36807-1.09283-2.29371-2.90816-2.86717-5.39949-3.03039-10.76884-.704-21.521-1.69641-32.28043-2.53551-1.70621-.13309-3.43222-.01874-5.41919-.01874-.12063-4.17666-.15076-8.132-.37531-12.07578A85.994,85.994,0,0,0,175.85,119.39689c-.077,1.34068-.17164,2.68148-.22668,4.02334-.06346,1.54085-.11031,3.08288-.13,4.62586-.01981,1.45249-.2714,2.99238,1.51594,3.80912-.98774,1.24987-1.76029,1.5893-3.14112,1.01223a10.92968,10.92968,0,0,0-3.99577-.58123c-4.2661-.05142-8.53432.09987-12.7984,0-4.16633-.09774-8.32745-.40651-12.71-.63425v3.24046c10.1875.42365,20.32209,1.84813,30.93176.92428-.22977,2.70969-.43356,5.1037-.65289,7.66668h-4.19337c.99817-.58484,1.51178-.88584,2.4351-1.426-.67481-.35306-1.13849-.81365-1.55863-.7783-1.92245.16641-1.48474,1.96461-2.05351,3.3054a7.702,7.702,0,0,1-1.10837.38788,7.07592,7.07592,0,0,1-1.24455.014c-.27352-1.1697-.53342-2.28169-.85262-3.65421-3.687-.22146-7.37293-.51777-11.06515-.63894-2.98312-.09774-5.97134.01768-8.95648.03642-.69558.00468-1.49209-.30728-1.88093.62743-1.75827.20954-1.75827.20954-1.203,2.03329.65086-.52821-.27342-1.987,1.19887-2.02913.17983,1.00913.35977,2.01827.58229,3.27687-1.14382.171-1.99218.29844-3.14218.47049-.09987-1.374-.182-2.50846-.25372-3.5144-1.58249-2.55053-4.02175-1.818-6.2552-1.87678a36.52765,36.52765,0,0,1-6.21676-.314,45.95266,45.95266,0,0,0-11.11913-.6384c-1.803.07538-3.79624.32442-5.3964-.29535-6.31759-2.44289-12.98035-1.83046-19.481-2.5599-5.38277-.60358-10.79993-.91448-16.20356-1.34856-.6301-.04983-1.43694-.314-1.87156-.03216-1.72909,1.126-2.65657-.48253-3.83776-1.04086a1.7486,1.7486,0,0,1-.57079-1.6173c.59986-1.465-.233-2.35877-.93685-3.42136-1.64913-2.49281-.85262-5.503,2.2885-7.60429-.5989,1.15574-.99923,1.91052-1.385,2.67371-1.24359,2.46215-.98774,3.64547,1.19472,5.39948.34624.2797.74966.48817,1.25913.81568-.25788.82249-.50223,1.60176-.74658,2.38315.12276.05356.24744.10658.3702.1596.42418-.73667.84634-1.47175,1.39009-2.41743a13.83087,13.83087,0,0,0,1.462,2.067,13.19267,13.19267,0,0,0,1.99325,1.36316c1.18524-.23552,2.32587-.4606,3.46448-.68621-.01981-.11648-.03951-.2319-.06144-.34838a27.25681,27.25681,0,0,1-3.22843-.301,1.93265,1.93265,0,0,1-1.63135-2.17,4.92063,4.92063,0,0,0-.52608-1.93555c-.77362-1.78627-.50222-3.01058,1.23827-3.84969,1.64083-.7881,2.06916-2.18447,2.36441-3.7249.15491-.79853.17057-1.62411.32655-2.42212.23913-1.22793-.312-2.04467-1.306-2.95032a12.20242,12.20242,0,0,1-.43664,2.53285,1.59677,1.59677,0,0,1-1.21548.83335c-.30994-.00522-.86093-.70026-.86093-1.08761a24.69517,24.69517,0,0,1,.42216-3.27985c-.966-.49285-1.92883-.27086-2.74813,1.18109.38787.27406.7881.55472,1.20919.85209-.04567,2.18149-1.78212.35093-2.29467.73519-1.04608,1.284,1.66042,2.45533-.30472,3.46287-3.20138-2.34205-3.34278-3.07244-.9295-4.80633-.38883-2.54371-.025-4.865,1.95269-6.72878.25574-.23967.58847-.576.58645-.86668a5.29137,5.29137,0,0,0-.39512-1.41969,8.8897,8.8897,0,0,0-1.08143.82547,6.59093,6.59093,0,0,0-.66129,1.229c-.27758-.77351-.41695-1.15979-.60828-1.68853-1.0875.1003-2.21567.20485-3.219.29791-.37116-7.7821-.73508-15.42228-1.097-23.025,2.1981-1.126,5.45879.4507,6.51829-3.19H66.99325c-.1975-1.22538.0707-1.90019,1.13435-2.28232,9.03761-3.24972,18.07831-6.49114,27.08888-9.81422a48.05231,48.05231,0,0,0,9.45669-4.13151c1.48059-.93791,3.67859-.91342,5.56792-1.00339,7.26689-.34412,14.4651-1.22538,21.68-2.12474,4.54271-.56558,9.21745-.0509,13.83288-.02183.35465.00213.70814,0,1.18641,0,.95143-2.11378.36807-4.28015.49179-6.47144a5.6182,5.6182,0,0,0-5.67184-.13c-1.6189.80684-3.28155,1.22431-4.79536-.84688.69973-.36285,1.36719-.68567,2.01081-1.04757,8.55211-4.80622,17.11869-9.585,25.6281-14.46563a22.48139,22.48139,0,0,0,3.38122-3.01793c1.48687,1.544,3.37195.95866,5.2435.68056,10.06389-1.49518,20.13289-2.955,30.19572-4.46477,10.77715-1.61837,21.548-3.283,32.32089-4.917,7.54138-1.14329,15.09009-2.2491,22.62625-3.42135,1.51594-.235,2.99664-.70239,4.498-1.04555,1.72909-.39512,2.39358.12425,2.42158,1.87368a2.242,2.242,0,0,1-.05919.81259c-1.02415,2.65966.09454,4.603,1.81746,6.59782,2.75538,3.19053,5.26427,6.59357,8.04775,10.121-.888.12329-1.55863.21635-2.22823.30621-.37329-.55834-.67269-1.50295-1.14159-1.59814-1.45259-.29418-2.03381-1.38178-2.8282-2.36856-2.25421-2.79434-4.5739-5.53673-6.97366-8.42722-5.01268,4.04049-9.81113,7.90838-14.776,11.9099q.27294,11.46569.54173,22.88827c.01767.80481.51053,1.77019-.82037,2.46215a8.94487,8.94487,0,0,1-.35561-1.62774c-.13107-6.36017-.3504-12.72046-.30259-19.08063.03226-4.29676-.7123-4.85468-4.94922-4.35767-8.11536.95037-16.23487,1.85388-24.35023,2.80063a14.1231,14.1231,0,0,0-1.989.52511c.028.19857.05611.39608.08315.59369a36.76093,36.76093,0,0,0,3.869-.3405,15.68977,15.68977,0,0,1,6.70951-.33325,9.92447,9.92447,0,0,0,6.39042-.72262c2.1159-.95558,2.71267-.95037,5.022-.25117-2.96747.80067-5.40055,1.77488-7.91253,2.05926-4.01248.45283-8.132-.67172-12.12369.69824-.472.16216-1.075-.08528-1.61783-.09209-.9015-.01086-1.805-.0213-2.70235.04a63.64564,63.64564,0,0,0-10.696,1.63146c-2.24793.54375-4.67888.29109-7.01944.50734-2.877.26618-5.73424.79332-8.61546.94355-2.95916.15449-5.76234,1.26073-8.79944,1.05907-2.9384-.19655-5.93493-.28652-8.812.8177a23.70627,23.70627,0,0,1-3.87822.95249c-1.40681.28226-2.8282.52608-4.25375.69036a22.9341,22.9341,0,0,1-2.62846.01821,45.18936,45.18936,0,0,0,6.514.16173c6.877-.41854,13.74568-.95558,20.62373-1.3788a29.23532,29.23532,0,0,1,4.34829.209,8.05357,8.05357,0,0,1,1.56375.42482c-.73093,6.96323.61029,13.51005,1.39328,20.37874,5.4754-.47774,10.59519-.92386,15.98009-1.39435-1.35166-6.90872-.72167-13.57979-.71017-20.23948.00107-.36434-.14352-.81716.02183-1.07142.34731-.5381.78608-1.27212,1.31215-1.39488a30.90559,30.90559,0,0,1,4.58221-.604c8.30669-.65512,16.62786-1.13552,24.90857-2.10452,1.21026-.14246,1.9464.18612,2.08567,1.47644.19548,1.80448.43781,3.60491.59794,5.412.22146,2.51985.14033,5.08752,1.45877,7.39476a2.26306,2.26306,0,0,1,.17259,1.06375c.01352,2.23079.00628,4.46307.00628,6.95961,1.50966-.169,3.009-.33634,4.54271-.50744.264.28854.4886.57133.74753.81365,1.05535.97784,1.78116,1.78266.73923,3.45671a8.94907,8.94907,0,0,0-.98049,4.55878c.02087,8.45011.182,16.90181.30472,25.35191.01033.63276-.13415,1.503.21,1.858,1.70834,1.75827,1.74273,3.4567.71645,5.659-.64575,1.37977-.43877,3.15667-.68312,5.401-.46166-1.41607-.7123-2.18756-.85987-2.64252a20.94286,20.94286,0,0,1-3.96361,1.18226c-3.243.27864-6.50476.32591-9.75917.48136q-12.51146.59427-25.0177,1.21441c-1.72079.08891-3.43636.31718-5.15406.484-1.21548.11648-1.21239.83708-.78811,1.93555,3.07139.09774,6.224.32122,9.37236.27342,5.53673-.08571,11.07144-.37532,16.60806-.50532,4.71636-.11073,9.43794-.03226,14.14909-.2287a6.88547,6.88547,0,0,1,3.64122.58272c.11956.06239.33485-.06388.53342-.1086.27033-.59475.54694-1.20409.82345-1.81385a7.15519,7.15519,0,0,1,.51468,3.1572c.04163,2.90827.04887,5.81643.17366,8.721a4.16145,4.16145,0,0,0,.69877,2.24122c1.36826,1.78574,2.99035,3.37663,4.32434,5.18377,1.73016,2.34408,1.52115,4.99032.55311,7.55021-.78394,2.07321-2.64507,2.56607-4.65184,2.6669-.06963.00373-.132.11648-.40757.37648.131.77671.28694,1.71142.446,2.66743.5594.04738.98784.22306,1.255.08635,6.85207-3.49727,13.68637-7.02935,20.57166-10.579.10817-1.90488.28289-3.6163.2912-5.32826.0395-6.99506.02278-13.99056.03428-20.98445q.0468-26.31032.09881-52.61807c.00617-5.17909-.06239-10.35871-.05931-15.5377C271.82394,42.90845,271.29989,41.67637,272.94583,41.849Zm-79.18706,6.16735a17.90247,17.90247,0,0,1,3.09949-.20432,9.81122,9.81122,0,0,0,6.92064-1.74474c-3.582.65607-6.92277.57494-10.016,1.94693q-1.97142-.09358-3.94487-.18771c0,.14981-.00213.29844-.00213.44718Q191.78734,48.14573,193.75877,48.01631ZM131.0965,135.0764c-.27448.88382-.5479,1.765-.93993,3.02368,1.10741-.051,2.20854.224,2.57033-.17418,1.64285-1.8113,3.37195-3.67093,3.33862-6.37892-1.44524-.58644-2.15125.07953-2.84161,1.05226a33.66337,33.66337,0,0,1-2.22824,2.576c.56771-1.17545,1.13861-2.352,1.95791-4.04-1.61475.18707-3.217-.10615-3.87205.54684-1.53159,1.52851-3.14431,3.22534-3.25345,5.73221,1.54618.66811,2.78349.63276,3.76185-.89053A8.79587,8.79587,0,0,1,131.0965,135.0764Zm108.42518-25.75171c-.708-.36445-1.41618-.72837-2.23335-1.14787-1.18119,1.18577-2.89165,1.76285-3.40836,3.82052,2.67318,0,5.11148-.14193,7.5237.03694a6.17431,6.17431,0,0,0,6.47665-3.79507,3.70174,3.70174,0,0,0,.18718-.77053c-.72677-.1975-1.386-.37531-1.93714-.525-1.08026,1.11092-1.79255,2.42105-3.33554,2.77145.6696-.95867,1.34027-1.91787,2.31554-3.31424-3.034.877-4.51151,2.91029-6.56289,4.58636-.16429-1.165.00617-1.68278.96484-1.67139q1.00137-1.392,2.00262-2.784-.13878-.22839-.2797-.45591c-.79651.3094-1.59505.62019-2.42372.94206C239.10889,107.985,239.31481,108.654,239.52168,109.32469Zm-75.14029-.38841a2.88706,2.88706,0,0,1-.30366.38064c-.92534.67577-2.05564,1.21335-1.82481,2.9269a48.94276,48.94276,0,0,1,5.699.04674,4.45558,4.45558,0,0,0,4.604-1.99943,32.546,32.546,0,0,1,3.5768-3.56275c-2.536,0-4.53238.11648-6.50891-.03119A5.7633,5.7633,0,0,0,164.38139,108.93628Zm-75.785,1.63146c-.37127.13778-1.02213.21784-1.06376.42419-.2797,1.3278.37021,1.98026,2.03584,2.06128,5.15727.24957,10.34253-.32282,15.48.69824.917.182,1.99219-.4377,3.18371-.73508-.2287-1.6881-.41375-3.07042-.58634-4.35968-2.1783-.12223-3.98235-.31558-5.78523-.29322a23.03261,23.03261,0,0,0-3.42082.53959c-2.7887-.00777-5.57836-.04163-8.368-.00937C89.04657,108.90519,88.31767,109.33044,88.59641,110.56774Zm64.33717-1.71461.053.05621c.313-.59059.62595-1.18066.98784-1.867h-6.92383c-1.47953,1.91063-2.60142,3.36109-3.90325,5.03823,3.58511.07218,6.76467.60923,9.74363.06132a11.04463,11.04463,0,0,0,7.50187-5.17909,6.3638,6.3638,0,0,0-5.82793,1.06057A8.60688,8.60688,0,0,1,152.93358,108.85313Zm-31.85923,12.95022-.01768-.03226c.32538.21529.65086.43047,1.22272.809,1.07824-4.30879.90352-8.47353,1.47027-12.54734,1.2061,4.02132-1.15213,8.05659.45016,12.17874.24648-.77927.495-1.5581.71538-2.24644q.18238.81578.43664,1.95588c.84432-.11031,1.52126-.19761,2.35408-.30621.20379-2.2802.39512-4.40707.58645-6.53341-.15077-.01916-.30057-.0379-.4523-.05718-.29428,1.21548-.5875,2.4299-.91395,3.78219-.46794-3.4666,1.31631-6.88434-.48976-10.17462q-.48344,4.27967-.96911,8.56041c-.60092-2.92382.77991-5.92929-.5167-8.851h-4.96594c-1.0283,3.84968-1.22378,11.9577-.40863,13.9041C120.073,122.09871,120.57521,121.951,121.07435,121.80335ZM180.794,77.3723l.08635-.09668c-1.25605,1.38658-3.347,2.01146-4.06242,4.4159,3.90015-.25532,7.49985-.47731,11.09326-.74966.40863-.03067,1.02617-.25479,1.152-.55578.84016-1.98122,2.91337-2.6488,4.22351-4.10916.62072-.69292,1.25391-1.37657,2.25314-2.473-2.50271.06856-4.27025-.12223-5.81429,1.414a16.19179,16.19179,0,0,1-3.44159,2.05767l.054.05771c.73412-.89,1.4692-1.779,2.4102-2.91807-.95867,0-1.57312-.04993-2.17937.00778q-13.24753,1.23756-26.49413,2.50431c-4.04986.38724-8.107.7304-12.14541,1.231-3.689.45591-6.03374,3.098-8.55093,5.44527,2.13666.29,4.25566.76053,5.55025-1.56279.13511-.24169.61859-.2896.94088-.42737l-.05089-.053c-.19026.61348-.38053,1.2275-.58847,1.89551a3.05634,3.05634,0,0,0,3.1588-.83549,6.8995,6.8995,0,0,1,1.84142-1.00328l-.04791-.05046c-.15492.47411-.31186.94823-.56664,1.72494,2.2968-.183,4.35138-.39043,6.41011-.50116,5.71038-.30877,11.42385-.57761,17.13626-.85827a3.30622,3.30622,0,0,0,2.76272-1.30651,25.74541,25.74541,0,0,1,4.06539-3.5851C180.09731,76.9528,180.51841,77.25273,180.794,77.3723Zm-78.06315-2.83853-.06857-.0707c-.22667.52043-.45229,1.04129-.708,1.63136,4.79739.391,6.63253.15129,8.75365-1.0298,1.27585.95026,2.66285.655,3.96149.56824q12.89363-.87184,25.783-1.83109c1.53883-.11329,3.07245-.2911,4.604-.471.968-.11435,1.82577-.47412,1.83823-1.62252.03535-2.87963.0115-5.76074.0115-8.84107-.90565,0-1.88306-.06814-2.8479.0099q-15.19869,1.24684-30.39216,2.53072c-4.34.35977-8.70905.61509-12.84,2.12219-8.605,3.14112-17.1748,6.37168-25.75587,9.57615a10.25448,10.25448,0,0,0-1.3081.84432c1.36315,0,2.13986.04,2.91029-.00629,5.97869-.36285,11.95418-.7881,17.93489-1.09687,2.63368-.13521,5.25905-.09412,7.349-2.08886C102.12882,74.59414,102.46889,74.605,102.73081,74.53377ZM218.5632,34.79l.06868.05983c.36179-.83026.72475-1.66319,1.19674-2.74653a24.59323,24.59323,0,0,0-4.00727.03684c-2.93935.50062-5.85486,1.15681-8.762,1.82375-2.01827.46272-4.28281.54172-5.31846,2.86408-.01448.03066-.17152-.00267-.262-.00575l.05206.05089c.12787-.57133.25575-1.14212.43983-1.96557-2.75856.235-5.2945.35295-7.80339.69036-3.59246.48509-7.14839,1.46292-10.747,1.63136a136.59119,136.59119,0,0,0-15.17324,1.36422,22.40707,22.40707,0,0,0-6.52968,2.55882c-.53023.26618-.5594.58123-.393,1.27053.19026.7783-3.70883,3.921-4.67059,3.98182-.22359.01352-.46379-.23445-.8474-.444.41066-.59166.785-1.13232,1.16032-1.67139a79.684,79.684,0,0,0-14.26759,8.16934,14.88516,14.88516,0,0,0,3.33245-.08422q33.7022-4.00977,67.40344-8.03891c9.83-1.18992,19.64632-2.49952,29.46064-3.81019a6.40649,6.40649,0,0,0,3.007-1.04129c5.15407-4.02749,10.22808-8.15645,15.30112-12.28424a14.72507,14.72507,0,0,0,1.61155-1.87465,5.42543,5.42543,0,0,0-1.16969-.30674c-2.91029.17206-5.40055,2.1257-8.40646,1.98122-.33272-.01661-.71325.49754-1.0366.80162-3.43434,3.241-6.85825,6.49433-10.302,9.72542a2.3155,2.3155,0,0,1-.82665.29993c-.11744-.16418-.23392-.32846-.35146-.49275,3.37514-3.177,6.74709-6.3524,10.55153-9.93442a15.77284,15.77284,0,0,0-1.647.00671c-4.03634.614-8.06745,1.2472-12.10282,1.86378-4.75172.72475-9.50854,1.41415-14.253,2.17628a4.39965,4.39965,0,0,0-1.88922.84634C220.387,33.05356,219.497,33.94931,218.5632,34.79ZM246.78548,75.9837c-1.29767.9592-2.00262,1.49517-2.72524,2.00932a5.04634,5.04634,0,0,1-3.84394,1.032,11.96358,11.96358,0,0,0-6.1565.68621,9.54457,9.54457,0,0,1-2.66381.43046c-3.16507.19857-6.33324.32389-9.49927.51735-3.52474.213-7.04958.46624-10.57432.708-4.79228.3306-9.59595.54748-14.37162,1.04023-4.15281.42844-8.25984,1.31066-12.41371,1.726a67.1905,67.1905,0,0,1-7.31672-.08891,32.53641,32.53641,0,0,0-6.23241.06346,136.77014,136.77014,0,0,1-18.65635,1.93916c-1.5087.07326-3.00388.40864-4.42527.6103-1.34442,6.48347-.56664,12.72259-.943,19.0734h7.01625V90.98648a10.59013,10.59013,0,0,1,1.34442-.39043c4.76417-.6021,9.51908-1.37466,14.30294-1.72867,5.95783-.44026,11.94163-.536,17.914-.7715,2.04414-.08113,2.28647.20017,2.46012,2.249.4179,4.95912.88478,9.91568,1.36209,15.21221,3.14006,0,6.17822.391,9.0636-.11179,2.8135-.49179,5.81536,1.1089,8.6591-.68366-1.65009-1.25551-1.62933-1.25551-1.53989-2.957.20687-3.90068.44292-7.80233.55833-11.70717.04472-1.5087.5199-3.19052-1.74677-4.58115,1.87773-.39415,3.05275-.64053,4.344-.91139.234-1.89029,1.65222-2.29893,3.3054-2.434,5.51906-.455,11.035-.97113,16.55929-1.36731a6.075,6.075,0,0,1,3.14836.52139c1.37348.73465,2.31554,2.21887,4.22873,1.9891.35763-.04206.84325.98358,1.56694,1.88454-2.17734.25011-2.23037,1.6896-2.33322,3.05957-.10189,1.35634-.11541,2.72045-.17472,4.08158-.06654,1.518-.14033,3.03656-.209,4.49852-1.1302.23754-1.97558.41641-2.67318.563.13309,1.78787.24946,3.35737.37222,5.00384,1.44.12734,2.74707.24382,4.40547.39139.14661-5.364.28173-10.434.42-15.50384a7.174,7.174,0,0,1,1.22272,3.30754c.15492,1.71611.1217,3.44989.10924,5.177-.0115,1.34537.15492,2.59833-.69771,3.97032a2.3034,2.3034,0,0,0,1.56694,3.54092c-.51468.68823-.86721,1.16139-1.544,2.068,2.65029-.12425,4.8567-.22763,7.41872-.34826C247.19,95.29782,246.99544,85.97476,246.78548,75.9837Zm-168.253,5.71091c2.3873-.1497,4.85989-.34933,7.33758-.45389,5.62925-.23551,11.2617-.38415,16.88882-.64149,8.89824-.404,17.7934-.83133,26.6844-1.34186,1.80086-.10338,3.55806-.4476,5.33081.68685v20.99893c1.37561.63585,2.63379,1.21761,3.765,1.7406-.20177,1.91265-1.50764,2.37431-2.53179,3.07457-1.489,1.01893-2.49548,2.13667-2.37484,4.21159a36.11153,36.11153,0,0,1-.58123,5.674,13.84106,13.84106,0,0,0-.00937,1.57513c3.82946-.29993,7.402-.58069,11.08176-.87019-.20485-1.79159-1.36209-1.44631-2.21152-1.21654-2.17415.58591-4.00109-.25319-6.20324-1.12817a34.75275,34.75275,0,0,1,8.17147-7.00795,2.78461,2.78461,0,0,0,1.79777-2.62537c.10392-3.2691.34412-6.53341.44079-9.8024.07485-2.52093.01459-5.04494.01459-7.77582h-8.605c-.6104-.68781-1.12711-1.26957-1.88412-2.12315,3.67869-2.8282,7.21908-5.54876,10.75947-8.27027-23.88016.75488-47.6647,2.2984-71.733,4.10234-.72273,8.47353-.30366,16.82749-.26938,25.54122,1.92458-.967,3.43019-1.724,4.98979-2.50794C79.068,96.25905,79.643,89.09927,78.53252,81.69461ZM232.4721,98.86526c.236-4.63321.56249-9.12865.66129-13.6308.05931-2.68829-.5199-3.2165-3.23055-3.07042-5.256.28439-10.50575.70026-15.75128,1.13914-1.89657.15747-2.07119.42418-2.23963,2.38208a16.84461,16.84461,0,0,0,0,2.44651c.17984,3.06989.36392,6.14137.59475,9.20807.07379.9592.30249,1.90488.47614,2.96757C219.54168,99.8218,225.84266,99.356,232.4721,98.86526Zm15.47264-27.96749c-.08315-.26884-.16631-.535-.25159-.80375a21.83973,21.83973,0,0,0-3.896-.46582c-4.70593.264-9.40356.65448-14.10332,1.03192-9.57721.77256-19.14814,1.61741-28.73056,2.31554-2.55159.18665-4.74235.71485-6.28331,2.95714a11.92632,11.92632,0,0,1-1.83,1.60793c-.88893.8407-1.74155,1.71984-2.721,2.693.53544.23914.78192.45187,1.01275.43515,17.52094-1.25966,35.0867-1.93341,52.33624-3.81274C245.07406,74.72723,246.50887,72.81138,247.94474,70.89777Zm-104.239,51.701c-4.49384.03482-8.785-.36285-13.232.81515-3.4583.91554-7.35217.15385-11.05365.19857-2.586.03013-5.17185.16226-7.84918.25169v5.59124c-.60933.11542-1.097.20848-1.56279.29738-.444,3.16454-.34209,4.44912.54173,6.44493,1.43587-.866,1.9184-2.38209,2.47046-3.74.31718-.78236.05717-1.80139.05717-3.01421,5.04079.21933,10.07007.44707,15.10042.65554a67.68589,67.68589,0,0,0,15.41653-.67013C143.78886,127.15759,144.81311,125.07341,143.7057,122.5988ZM199.833,106.43516c-3.95733-.59368-6.67309,1.33771-6.8821,4.94986-.75488-.4607-1.36943-.83708-2.3-1.40681,1.25189-1.26648,2.26667-2.29425,3.39484-3.43541-2.35611-.39043-2.28434-.30834-3.70159.91033-1.51178,1.29864-3.1754,2.419-4.77247,3.61631-.13511-.15183-.27033-.30526-.40651-.458,1.44109-1.31322,2.88218-2.62644,4.682-4.26823-1.37349-.05984-2.17511-.15183-2.97056-.11754-1.50039.062-2.89889-.0114-4.00833,1.58929-.99912,1.4396-2.66487,2.418-4.44592,3.95371.53853-2.63836,3.0537-3.08341,3.766-5.1234h-4.8172v1.80916c-2.93946.28854-3.82115,1.22538-3.57893,3.76185.43153.02342.87967.06963,1.32579.06963q18.11829-.01005,36.23659-.03322c.45229,0,1.07206.11233,1.32993-.12947,1.046-.98251,2.05139-.56515,3.15667.16067.65916-2.97939,4.16942-3.18584,4.93984-6.04257-1.98281.68567-4.64045-1.84973-5.9838,1.53574-.04567.1201-.53022.01917-.76936.118a13.00609,13.00609,0,0,0-2.61291,1.20558,23.72591,23.72591,0,0,0-2.4975,2.33534c.24435-2.40285,2.73663-3.0371,3.87928-4.984a5.19137,5.19137,0,0,0-5.22168.8193c-1.55022,1.23208-3.14633,2.40646-4.72051,3.60533-.12575-.15651-.25159-.31292-.37531-.46943,1.51178-1.28,3.02357-2.55883,4.68719-3.96617-4.17975-1.1567-6.96323.49594-9.19669,3.5965-.14554-.17366-.29215-.34625-.4377-.5199C198.23494,108.57662,198.93775,107.634,199.833,106.43516Zm47.592,24.936a6.2911,6.2911,0,0,0-.81-1.03863c-2.50889-2.12688-5.676-2.45438-8.6508-2.32449a25.97517,25.97517,0,0,0-8.394,2.02913c-4.35968,1.76243-8.02794,4.45743-9.70817,9.21276a4.30994,4.30994,0,0,0,.29,4.0572,2.76457,2.76457,0,0,0,3.49152.64043c4.78089-2.16786,9.94017-1.7275,14.95487-2.25677a14.70258,14.70258,0,0,1,6.93725.98465c1.148.44611,1.907.22306,1.82279-1.28767-.46166-.11083-.80375-.22518-1.15521-.273-2.69086-.35977-2.69405-.35615-1.96312-2.96118.42535-1.51445,1.13551-3.0174-.17355-4.60883C245.28711,132.75415,246.304,132.097,247.425,131.3712Zm-28.20567,13.98949c-3.05062-4.31657-2.98514-5.74626.13-9.65153a4.53971,4.53971,0,0,0,.52821-.61817c.21944-.42269.37957-.87807.601-1.41309H202.93874c.17056,3.61321.33176,6.98208.49913,10.52033C208.6866,144.58451,213.72727,144.95567,219.21928,145.36069Zm-70.38645-91.0664c-.28289,7.55032-.55738,14.8385-.834,22.2421a12.10088,12.10088,0,0,0,6.81045-.48509c-.2994-2.627-.629-5.19772-.88063-7.77528-.37542-3.86641-.889-7.7343-.9181-11.60635-.00831-1.08867.50531-2.00879-.6811-2.80115C151.30116,53.99234,150.23751,54.12224,148.83283,54.29429Zm41.948,18.83214c-.23605-1.47953-.367-2.53956-.58229-3.58032-.20272-.9774.4294-2.43095-1.71973-2.72992.12266,2.08364.23392,3.98384.37947,6.4413-1.855-2.1258-.9805-4.41643-1.90584-6.40436-1.11156.11957-2.23548.23967-3.49152.37276-.06963,1.24763-.08007,2.23909-.19133,3.218-.09359.84017.80162,1.93246-.89415,2.733-.06452-2.04521-.12276-3.85331-.19548-6.12211-2.39773,1.89029-.45335,4.30357-1.80714,6.32174-1.33717-1.95939.03535-4.03942-.99093-5.78779-.5874.12106-1.16756.24116-1.82577.37638,0,.93216.04365,1.74528-.0115,2.54839-.054.76479.91395,1.79831-.64564,2.287-1.13126-1.4.3702-3.55231-1.25913-4.96647-1.48059,1.57429.5874,3.82946-1.3195,5.39012-.19751-1.91574-.36594-3.56264-.59156-5.76181-2.49654,1.86378-.678,4.29-1.77179,6.15022-1.59494-1.71355-.05611-3.74631-1.07717-5.31218-1.11252-.33741-1.72079.06452-1.7094,1.26956.00831,1.08921.11339,2.1783.09572,3.26591a5.37937,5.37937,0,0,1-.34944,1.29448c-.21-.01555-.42312-.0312-.63425-.04674-.04674-1.3886-.05824-2.77933-.14863-4.16474-.1019-1.53425-.24436-1.58728-2.32907-.90831.30984,1.96259.628,3.973.99924,6.31812,6.03789-.54843,11.86464-1.07664,17.7424-1.609.15906-1.92256.29535-3.55338.43046-5.18431.19548,0,.38894.00266.58432.00266.17684,1.60953.35465,3.21853.55216,5.00171C187.829,73.38643,189.241,73.26218,190.78087,73.12643ZM94.95659,135.10185c.88382-4.39759.837-14.89344-.0427-19.14814a7.90686,7.90686,0,0,0-1.01893-.27555c-2.511-.3504-2.89261-.06868-2.97268,2.44235q-.12633,3.93741-.08944,7.88037c.02289,2.86866.12692,5.738.2007,8.80679C92.563,134.92308,93.77752,135.01454,94.95659,135.10185Zm1.68235-19.41017V135.3182h4.11534c-.15077-6.68886-.29738-13.14677-.44292-19.62652Zm120.36361-4.31348c.11019.21987.22252.43931.33485.65917.43877.03694.8786.10455,1.31631.10562,1.70109.001,3.21905.11541,4.43868-1.766.967-1.4905,2.86877-2.37538,4.35458-3.5274-.30366,2.577-3.59554,2.54637-3.9469,5.19772h2.78136a21.14446,21.14446,0,0,1,3.23566-2.71587c1.16043-.63053,1.67714-2.565,3.69743-1.88923-1.1583,2.118-4.12055,2.05564-5.03865,4.39982a4.69875,4.69875,0,0,0,5.41194-1.48176,43.241,43.241,0,0,1,4.04155-3.726c-3.51749-.45229-6.78138-.28438-10.01608-.50425-2.5879-.1778-4.7548.25319-6.65649,2.1289A42.99,42.99,0,0,1,217.00255,111.3782Zm5.87466-47.2534c.23712-.01256.4721-.02608.70708-.038.33581,1.99166.67056,3.98182,1.03661,6.16161,4.04155-.3488,7.80861-.67269,11.52883-.99349.30153-4.393.28492-4.5443-.67269-5.98688-.078,1.48368-.14661,2.80786-.21528,4.13194-.20688.00362-.41066.00937-.61551.01246-.21518-1.453-.43047-2.906-.63117-4.27132-1.3475-.37425-1.9859-.02544-1.98377,1.21867.00309,1.18993.001,2.381.001,3.572-.18292.01565-.367.0312-.549.04685-.11744-.746-.17781-1.50763-.36594-2.23547-.23818-.91715.51979-2.60877-1.1927-2.471-1.43789.11541-.95441,1.71248-1.075,2.706a24.50437,24.50437,0,0,0-.026,2.9648c-.25585.00884-.50957.01768-.76531.02811-.07592-.916-.16429-1.82939-.22562-2.74654-.06345-.94983-.0988-1.90221-.14554-2.86142h-6.72208c.11957,2.16893.12479,4.1492.37745,6.09826.14245,1.10784.95866,1.17023,1.87155.46837C223.10283,68.014,222.98954,66.06908,222.87721,64.1248Zm-1.99431,67.837c1.34761.3816,1.933-.05973,2.01614-1.39169.11957-1.896.32133-3.78836.548-5.67652.10913-.90565.35966-1.79362.54481-2.691.21209.03226.42525.06548.63841.09774.16013,2.76166-1.16768,5.54088-.3026,8.658,1.85186-.8801,3.47906-1.61156,5.0574-2.43767a1.58473,1.58473,0,0,0,.70186-1.05428,23.42442,23.42442,0,0,0,.01139-7.02c-2.58278.23445-1.70514,2.32906-2.198,3.54561-.574,1.42075.21,3.14889-.56153,4.55985q-.3555-.03674-.708-.07336c.16631-2.42212.33379-4.84626.5282-7.65-1.98079.21784-3.6361.3998-5.43281.59837C221.0129,125.03338,220.1031,128.423,220.8829,131.96179ZM180.80439,66.169a66.24342,66.24342,0,0,0-1.27787-11.86784c-1.92873.392-3.56743.72368-5.20294,1.05694-.68,3.858-.025,7.30894.66747,11.13116C176.91041,66.38317,178.74768,66.28223,180.80439,66.169Zm43.95162,79.0332c3.01953,1.152,19.35938,2.20843,21.82047,1.63136.01873-.41279.07069-.85465.04887-1.29193a14.30977,14.30977,0,0,0-.27449-1.504C239.10271,143.18292,231.84509,142.18369,224.756,145.20215ZM73.0519,104.57138c-.22039-6.68981-.43142-13.14305-.65192-19.88333-1.79043.24648-3.1556.43313-4.39812.60306-.15183,6.86559-.51884,13.361.58431,20.06326C70.14374,105.081,71.52659,104.83809,73.0519,104.57138Zm45.4584-21.994h-3.94285c-1.05012,0-1.82683.468-1.85175,1.54512-.06452,3.02985-.02182,6.06493-.02182,9.41133,2.02231-.1299,3.83872-.24638,5.81642-.37276Zm68.04078,9.79452c-2.28541.29536-4.19849.54386-6.40181.82878.24542,3.0948.46166,5.83665.68419,8.63621,2.41637.30824,4.50321.78811,6.79586-.15906C187.28105,98.67861,186.941,95.75161,186.55108,92.37188ZM183.3497,113.0876c9.08648,2.05086,41.08093,1.70929,44.57969,0ZM126.20031,92.85537c-.04674-3.58926.71644-6.97462-.37329-10.39033h-4.76417a22.47709,22.47709,0,0,0-.13724,10.39033Zm43.05651-37.6928a15.49315,15.49315,0,0,0-3.22332.24531,2.14464,2.14464,0,0,0-1.31108,1.42395A20.723,20.723,0,0,0,166.071,67.22951c1.62508-.13469,3.01527-.2501,4.47617-.37127C170.10934,62.887,169.705,59.22286,169.25682,55.16257Zm44.61089,77.03687h5.42962c.41066-3.6096.80481-7.06161,1.21654-10.68249h-2.693a36.01314,36.01314,0,0,1-.71326,5.14778c-.4492,1.59761.43143,3.49674-1.36634,4.80836.31505-3.27836.63009-6.55768.94206-9.78877-2.458-.50276-2.667-.48924-2.84684,1.05375A28.90637,28.90637,0,0,0,213.86771,132.19944ZM92.50168,93.917H97.7109a40.298,40.298,0,0,0-.3421-10.79376c-1.596.079-3.00068.14768-4.5541.22306C91.85082,86.89968,92.24593,90.28409,92.50168,93.917Zm6.7949.08528c2.00666-.10764,3.585-.19346,5.388-.2896.12894-3.55231.53034-6.84633-.27448-10.15322H99.66774C98.64146,86.98177,99.66252,90.23415,99.29658,94.00228ZM229.64912,50.88806c-1.58249.15651-3.04647.30206-4.735.46943.17568,3.66933.33794,7.05065.49488,10.36287h5.3537C229.81553,58.08532,230.8532,54.56516,229.64912,50.88806Zm-68.69068,5.398c-1.44109-.078-2.72833-.14662-4.18912-.22466a34.5666,34.5666,0,0,0,.45229,11.23561h5.17377C161.91711,63.63812,161.47631,60.25063,160.95844,56.28606Zm2.76889,36.84379a28.10274,28.10274,0,0,0-1.00125,9.37971c2.2573-.32644,4.19124-.60827,6.36433-.92279.05717-2.029.182-3.91261.14661-5.79194-.053-2.73621-.185-2.79807-3.04125-2.67062C165.40032,93.16009,164.60391,93.12985,163.72733,93.12985Zm-57.99775.30057h5.5741V83.01092c-1.70621.10562-3.16923.19452-4.98148.30568C106.12044,86.76968,105.93432,89.96957,105.72958,93.43042Zm80.03127,31.01917c-.20272.02183-.40342.04206-.604.06442.16322,5.96826.32644,11.93747.49594,18.1126,1.37976.091,2.49441.16226,3.74205.24435.60827-6.3737-.39512-12.39082-.81717-18.53263-.60827.37329-1.122.81717-1.15415,1.29448a34.14066,34.14066,0,0,0,.08624,3.78581c.15076,3.3449.34007,6.68555.44611,10.03152a7.50742,7.50742,0,0,1-.41907,1.86644c-.23913-.02395-.47827-.04993-.7174-.075,0-1.807.04152-3.61673-.0115-5.42131-.0592-1.989-.11329-3.98746-.342-5.95985C186.25786,128.06111,186.4066,126.17656,185.76085,124.44959Zm47.6252-73.60465V61.58929c1.82481-.35295,3.296-.63787,5.0855-.983-.20176-3.01538-.36083-5.95527-.6187-8.88685a1.54669,1.54669,0,0,0-1.76754-1.34963A19.473,19.473,0,0,0,233.38605,50.84494Zm-55.10514,50.95392c-.19037-2.1044-.40768-3.88194-.50116-5.66662-.14565-2.73823-.1103-2.74707-2.81776-2.73514a4.581,4.581,0,0,0-1.86847.15811c-.5708.27288-1.31429.85986-1.38083,1.38487-.27448,2.20438-.32335,4.43773-.46688,6.85878Zm-50.90047-8.89462c1.87677-.132,3.36886-.237,5.20709-.36807.17259-3.7364.33485-7.28978.50116-10.87478-1.78936.2895-3.165.51149-4.71732.76266-.33794,2.5864-.68941,5.0839-.97635,7.59024C127.30346,90.80345,127.38044,91.61242,127.38044,92.90424ZM81.001,84.112c-1.08036,3.29817-.654,6.67012-.392,10.17771h4.43039V83.65038C83.46513,83.83032,82.28713,83.96437,81.001,84.112ZM189.25237,65.30025c-.211-3.09172-.3109-5.79514-.60615-8.47726-.235-2.15019-.70388-2.433-2.84576-2.18447a10.17911,10.17911,0,0,0-1.62.48189c-.09774,3.56434-.18515,7.03712.88063,10.63362C186.44716,65.60326,187.76241,65.4608,189.25237,65.30025Zm32.5383-3.149c-.2797-3.52687-.5282-6.63882-.79236-9.96349h-4.11118c-.15385,3.51079-.58538,6.864.53449,10.39917C218.81171,62.44862,220.03038,62.32756,221.79067,62.15125ZM90.91706,94.16965V83.56308H86.87977V94.16965Zm85.26871,22.502c.27555-1.09122.02906-1.67511-.9493-1.69747-1.08867-.02651-2.18139-.013-3.27112.0312-4.98042.20123-9.95881.4986-14.94029.59943-2.81255.05568-5.63031-.23285-8.447-.29269-.71017-.01554-1.69173-.3176-1.9693.84687C149.204,117.11244,168.28048,117.441,176.18577,116.67164Zm19.68891-.901c-2.27817-.19654-4.48554-.38574-6.851-.58953,0,1.71824-.09359,3.23567.02182,4.73606.16738,2.168.53651,2.45651,2.77305,2.12688C196.99444,121.28143,197.09111,120.06074,195.87468,115.77068Zm-80.361.59262c-.07591-2.63623.82452-5.20027-.07176-7.78359h-6.60453c1.61475,1.80607,1.42555,3.52889,1.24977,5.28822a11.43832,11.43832,0,0,0,.32026,2.49537Zm72.43592,5.76607c-.28492-2.38634-.55312-4.64418-.83282-7.0039h-4.99915a14.07967,14.07967,0,0,0,.12159,7.36931C183.984,122.38256,185.76511,122.26917,187.94958,122.12937ZM91.32676,77.9219c4.20893.64149,50.83287-2.37122,53.8294-3.60651Q118.24151,76.1185,91.32676,77.9219Zm92.23194,45.68391c-.79332.69611-1.385.95707-1.43694,1.30119-.82355,5.413-.26,10.84006-.06452,16.2634.04685,1.30757.84123,1.34292,2.03382,1.08452C184.11076,136.14793,184.58391,130.13708,183.5587,123.60581Zm9.517.57963a13.962,13.962,0,0,0-.35562,2.21311c-.0198,3.451-.01352,6.90191.05718,10.3519.03641,1.71717.19335,3.43434.365,5.14364.08838.88232.42312,1.62933,1.57834,1.22953C195.48893,138.27321,194.93155,128.47964,193.07565,124.18544Zm20.43123-61.36406c0-2.1257.03428-4.03165-.01246-5.93642-.0312-1.26861-.14139-2.53807-.29013-3.79826-.12053-1.01691-.85359-1.29874-1.77584-1.26073-.97741.04-1.63242.54481-1.55033,1.50923.22668,2.68414.58644,5.35573.8589,8.03678C210.92207,63.17124,211.92333,63.38759,213.50688,62.82138ZM157.00526,94.72277v7.6142h3.98022c0-2.3.03535-4.45327-.01459-6.603-.026-1.1286-.74966-1.60846-1.833-1.4676C158.436,94.35885,157.74768,94.55955,157.00526,94.72277Zm54.67584,7.20035c-.11232-2.82916-.16428-5.34689-.32654-7.85738-.16014-2.48877-.43047-4.97169-.6893-7.85653-.79545.51575-1.20195.7799-1.19993.77777a43.25392,43.25392,0,0,1,.548,4.98723c-.01257,2.44192-.30568,4.88065-.38788,7.32353-.04887,1.39638.0822,2.7985.13309,4.1871,5.05324-.15747,5.05324-.15747,4.97211-1.96248C213.85419,101.6383,212.986,101.75106,211.6811,101.92312Zm-41.74329,38.05416c-.04152-.23338-.08113-.46624-.12372-.69973-4.784-.09976-9.58136-.00884-14.34766-.354-4.72669-.34049-9.4108-.6878-14.08564.3421,9.21957.86039,18.50772-.24436,27.69716,1.16554C169.33476,140.4712,169.64981,140.13688,169.93781,139.97728Zm4.576-21.158c-1.40372-.54482-1.89551.16215-1.96206,1.36571q-.26991,4.86836-.4804,9.741a3.2892,3.2892,0,0,0,.25372.875h2.18874Zm-6.52457.391c-1.08963-.39511-1.82471-.11957-1.87773.92119q-.24643,4.71009-.2714,9.42858c-.00213.3192.66236.88691,1.03043.89883.36286.011,1.06365-.53076,1.06983-.84016C168.01739,126.13653,167.98928,122.65129,167.98928,119.21024Zm-46.80793-13.6573c.10818.17525.21944.352.32857.5282a13.852,13.852,0,0,1,2.24176-.75019c1.83205-.29323,3.83467-1.00808,5.48583-.54535a4.5591,4.5591,0,0,0,4.47713-.77149,7.20567,7.20567,0,0,1,1.46813-.6613c.07283.11755.14874.23552.22146.353q-1.05582,1.26887-2.11069,2.53966c.09465.09465.19027.18867.286.28438,1.19887-.98156,2.39763-1.96152,3.67657-3.0059-2.22717-1.412-2.70438-1.39179-12.501-.02033A5.56488,5.56488,0,0,0,121.18135,105.55294Zm-2.59726-4.197c-.08007-1.70045-.14033-2.99919-.19548-4.20008h-5.71039v4.4652C114.68085,101.53119,116.45253,101.45166,118.58409,101.35594Zm94.39149,19.98788c-1.333-.53757-2.29893-.49754-2.38836.71485-.22253,3.03657-.28694,6.08932-.316,9.13472-.00213.30994.68621.87711,1.03969.86827a1.39869,1.39869,0,0,0,1.02319-.91448C212.60858,127.85263,212.7801,124.54936,212.97558,121.34382ZM158.069,68.5999c-1.122,2.67212-.13,4.92846-.13629,7.47376,1.48272-.14192,2.77827-.26618,4.13823-.39713,0-1.92043.03119-3.62674-.0114-5.32933-.0281-1.13647-.53448-1.66723-1.6667-1.14786-.76212,1.67862.524,3.54294-.705,5.39373C158.66994,72.64252,160.06216,70.34412,158.069,68.5999ZM126.18157,96.52054c-2.05969.12479-3.88663.23552-6.02117.36445.18813,1.66618.33272,2.95033.46783,4.15122h5.55334Zm70.93978,47.15162c.28588-.09987.57388-.19964.85986-.30206-.2485-3.22747-.47933-6.459-.74551-9.68645-.262-3.15571-.01767-6.37945-1.24976-9.4618a2.99586,2.99586,0,0,0-.66651,1.90169q.43983,8.27475.99923,16.54523C196.34358,143.0197,196.84261,143.33944,197.12135,143.67216Zm11.22933-11.77478c.19346-.12223.38574-.24435.57707-.36392.21316-3.47235.42632-6.94407.63947-10.44858-.82558-.21624-1.40361-.367-2.25315-.58793a36.44714,36.44714,0,0,0-.13309,10.357C207.22783,131.24226,207.94524,131.55113,208.35068,131.89738ZM104.57128,97.57173H99.35684c-.08944,1.42246-.17153,2.70076-.2599,4.1081h5.47434Zm86.744,26.176a7.00943,7.00943,0,0,0-1.28617,4.93048c.234,3.97607.49392,7.95.75488,11.925.053.79236.15811,1.58152.23817,2.37175.2204-.01767.4408-.03534.66332-.053.58229-5.34124-.17057-10.71166.00937-16.06068A23.64688,23.64688,0,0,0,191.31525,123.74773ZM172.165,137.92015c-.00309-.222-.00522-.44505-.0083-.668-1.046,0-2.09195.00416-3.137,0-3.16188-.01352-6.32792.07741-9.48256-.077-2.88431-.14033-5.75095-.58325-8.63313-.82452-2.07545-.17525-4.16846-.3686-6.18865.54375,7.7607.5906,15.51938.8818,23.27806,1.18332,1.17289.04568,2.34471.16216,3.51654.19644C171.72515,138.27991,171.94565,138.0444,172.165,137.92015Zm-.63425-18.94755c-1.24359-.43515-2.1076-.33166-2.143.75126-.11126,3.40677-.106,6.81875-.0592,10.22658.002.26671.67162.52192,1.39116,1.04331C171.00774,126.73181,171.26349,122.91747,171.53073,118.9726ZM127.66535,131.782c-.06026-.233-.11956-.46379-.18089-.69717-1.0315.079-2.46119-.24382-3.0174.31089a14.30574,14.30574,0,0,0-3.88355,5.37713c3.17967.88425,3.17967.88531,4.68411-1.3787Q126.46861,133.58879,127.66535,131.782Zm-16.69227-30.204c.1497-1.453.28279-2.75953.45741-4.472-1.9776.09987-3.62461.183-5.56367.28183.12159,1.63966.21827,2.93159.31186,4.19019Zm7.28659,7.05841c-1.91521,1.16767-1.34442,3.08916-1.46505,4.69763-.4772,6.38882-.30461,7.56117.96282,8.83329C119.0894,117.623,118.2191,113.13381,118.25967,108.63635ZM202.95545,120.147c.055,3.79932-.94621,7.61686.58219,11.52425.73721-.17312,1.45887-.341,2.17734-.50851.15172-3.62971.4262-6.9908-.22572-10.35647-.863,1.56949-.56355,3.258-.5874,4.904-.02183,1.57843.92534,3.24152-.574,5.165C203.39944,127.06666,204.52026,123.40149,202.95545,120.147Zm29.42-17.4248c.16014-2.31394.1102-2.51049-1.42235-2.53072a44.87956,44.87956,0,0,0-5.39948.29418c-1.5004.16429-1.66053,1.05908-1.03459,2.23654ZM123.21,131.21841c-1.43385-.1711-2.37058-.2813-3.18892-.37744-1.51488,1.92255-2.88538,3.663-4.42315,5.61732,1.55342.36073,2.81053,1.11774,3.82946-.0988C120.68338,134.86016,121.76056,133.20847,123.21,131.21841ZM216.66258,30.43554c.0197.16939.04153.33836.0624.5068,2.5963-.28641,5.20293-.49285,7.78572-.87913,3.84191-.57282,7.66615-1.27415,11.4987-1.91574q3.47331-.58245,6.94864-1.15458c-.03428-.19495-.06856-.38841-.10189-.58229Q229.75985,28.42323,216.66258,30.43554Zm30.89226,98.09191a27.33629,27.33629,0,0,0-.07176-7.30266c-.06026-.46273-.7486-.84485-1.14574-1.26392-.40448.41491-1.12093.80322-1.15724,1.2472-.12169,1.56332.08933,3.15156-.01874,4.718C245.0501,127.55164,245.8777,128.1745,247.55484,128.52745ZM97.58718,101.8899V97.70174c-1.74262.11648-3.28986.22092-4.942.33219v3.856Zm39.34449,36.31154c.80588-2.56564,3.0964-4.2974,3.26282-7.08652-1.89658-.42269-2.8874.22774-3.397,1.89029-.2599.84794-.82654,1.59867-1.17385,2.42627-.32857.78193-.55,1.60751-.88489,2.61558C135.606,138.10786,136.12589,138.14427,136.93167,138.20144Zm97.30392-52.47518c.06441,3.48736-1.11157,6.64094-.19762,9.78259,1.4099.4705,1.82791-.22455,1.84036-1.29033.0312-2.58587.01044-5.17483.01044-7.82416C235.48641,86.23114,235.006,86.03822,234.23559,85.72626Zm-74.65372,44.34215c1.50763.35508,1.68129-.4377,1.72079-1.31684.12478-2.80371.25574-5.60636.315-8.41113.0083-.40193-.36605-.81046-.56355-1.21548A19.26153,19.26153,0,0,0,159.58187,130.06841Zm-2.56405-.04163c.30249.02917.60508.05931.90874.088.33687-3.61428.67481-7.2259,1.04076-11.12286-.85156.06079-1.48273.10711-1.9495.14033Zm60.2-66.294c-1.5565,1.79458-1.59611,3.18222-.444,7.00274.98773-.07539,2.02434-.15386,3.17646-.24169,0-2.1601.03951-4.13046-.04887-6.094-.01149-.24286-.69249-.456-1.11677-.71485-.92013,2.196.39415,4.39141-1.06046,6.327C217.56716,68.06648,217.41118,66.12008,217.21783,63.73277ZM162.83936,129.926c1.436.41961,1.57109-.406,1.61581-1.27159.13309-2.61089.25788-5.22167.3504-7.83257a7.91034,7.91034,0,0,0-.18611-1.4182c-1.27159-.29109-1.74677.32389-1.76136,1.25083C162.81029,123.69471,162.83936,126.736,162.83936,129.926Zm-35.04922-29.1029c1.50039-.093,2.55255-.1596,3.76706-.235.17781-1.3787.3306-2.57075.50841-3.95052H127.4834C127.58838,98.0615,127.67675,99.27592,127.79014,100.82305Zm27.29267,17.9629c-.29844.04685-.59368.09359-.89106.14044a23.98964,23.98964,0,0,0,.09348,11.08176c.03333.16215.79758.17983,1.21868.264-1.20515-1.66937-.57506-3.28092-.43462-4.837.15279-1.70929.36179-3.41347.44814-5.12394A4.95376,4.95376,0,0,0,155.08281,118.786ZM85.581,98.428a23.15712,23.15712,0,0,0-3.56115.24648c-1.18737.264-1.34228,1.31631-1.21963,2.38155.11648,1.01169.77362,1.36,1.70206,1.31791,1.04086-.04887,2.07949-.12223,3.07872-.182Zm67.09052,20.36841a6.7791,6.7791,0,0,0-1.01169.04993,71.0767,71.0767,0,0,0-.73508,7.69c-.00937,3.10215.15077,3.10375,1.74677,3.50088Zm57.78056-87.54517q-9.25183,1.4784-18.50261,2.95649C198.24005,34.00393,204.57946,34.11157,210.45211,31.25122Zm-63.80077,99.465c1.203-1.856,1.19365-8.41113.1217-11.27511C145.82054,121.57668,145.6833,127.9639,146.65134,130.71618Zm-28.18373.2599c-1.21442-.09668-2.0681-.16429-3.00282-.23754-1.11667,1.80246-2.18458,3.52634-3.29294,5.31474,1.23421.85262,2.10238.668,2.79807-.25064C116.09489,134.31268,117.16269,132.7812,118.46761,130.97608Zm118.85086-11.43056c-.97528.11329-1.69695.19751-2.63272.30621v7.03766c.67173-.12426,1.39956-.26,2.11484-.3931C236.97744,124.11059,237.13757,121.98329,237.31847,119.54552Zm-78.46966-5.3257c3.85437.76372,7.16915-.27289,10.49223-.36073,3.44989-.091,6.9019-.12691,10.35392-.18558C173.97318,112.77873,160.92522,113.112,158.84881,114.21982Zm5.74882-7.14413c-.09987-.15757-.20272-.314-.30259-.47049a18.77185,18.77185,0,0,0-3.295,1.53414c-1.39542.99658-3.02784,1.8903-3.531,3.988h2.7855C161.89421,110.22043,163.246,108.64732,164.59763,107.07569ZM74.05114,109.346a10.84153,10.84153,0,0,0,1.69587,2.32747,35.21233,35.21233,0,0,0,3.663,2.15807c1.05225.59688,2.00677.66129,2.72833-.54844-1.779-.68525-1.779-.68525-2.13774-2.18713-1.21026.706-2.24069,1.25232-2.59109-.92747C77.22036,108.99921,75.86445,108.966,74.05114,109.346Zm32.83877-2.7772q.142.32757.28385.65821c1.7,0,3.40006-.027,5.101.00522,2.9976.05664,2.9976.07218,5.25181-3.1588-1.86218.92641-3.2544,1.61943-4.65908,2.31863-.19548-.4887-.34731-.86614-.60518-1.50614-.89106.55791-1.68758,1.058-2.51209,1.57577-.30046-.38255-.61136-.77979-1.0678-1.36411C108.03884,105.6263,107.46485,106.0968,106.88991,106.56878ZM244.158,120.03838c-2.225-.57761-2.4382-.50383-2.66488,1.04129-.104.706-.33485,1.7868.01864,2.0977,1.16767,1.02.157,2.24431.574,3.40314.39927.05665.81206.11542,1.3902.19549C243.71293,124.43607,243.93758,122.2203,244.158,120.03838Zm-6.75221-57.57677v6.58015c.80376-.06239,1.47442-.11329,2.36654-.1809-.08635-1.94438-.10093-3.73949-.27033-5.52011C239.3772,62.03583,238.49647,62.08683,237.40577,62.46161Zm-94.27608,67.96082c-.82973.62126-1.56172.93109-1.9184,1.48272a45.66454,45.66454,0,0,0-2.33737,4.2547,8.05524,8.05524,0,0,0-.42631,1.58515q.26671.17313.53236.34625c.572-.58592,1.19056-1.13446,1.70524-1.76605.67173-.82142,1.097-1.95481,1.92565-2.51049C143.8274,132.9985,143.75148,132.15621,143.12969,130.42243ZM87.38817,102.04322h3.11195V98.05054c-1.26435.08635-2.29467.15757-3.6048.2485C87.07312,99.64292,87.21037,100.68432,87.38817,102.04322ZM233.175,127.3864c.19964-2.55936.37947-4.87075.55728-7.16606-1.47751-.30834-2.249.17312-2.30511,1.40936-.079,1.71664-.02183,3.4369.002,5.15513a3.5286,3.5286,0,0,0,.2517.83389C232.156,127.54493,232.58751,127.47732,233.175,127.3864Zm5.23414-7.92563c-.12585,2.45693-.23711,4.61138-.35668,6.92224.8391-.04,1.52744-.0723,2.31969-.10871v-6.25722C239.78786,119.85173,239.35537,119.72961,238.40916,119.46077ZM89.64963,115.66613c-2.5682,1.38764-.26512,4.42527-2.77827,5.9937v-4.10341c-.12265.00682-.24435.011-.369.01768v4.56975h3.1473Zm101.4827-33.73707q-.01564-.29322-.03332-.58645-6.60342.4368-13.206.873c.01043.19964.02395.40129.03641.60146C182.40562,83.90666,186.74656,82.47292,191.13233,81.92906Zm-25.43155,1.909c-3.39165-.71272-16.25659.43717-17.97738,1.36209C153.98371,84.72606,159.84176,84.28208,165.70078,83.83809Zm-.7569-14.88939c-1.11774-.39873-1.92778-.264-1.87986.83548a41.61972,41.61972,0,0,0,.64873,5.24979c.03641.20379.78192.28385,1.23113.43249Zm-83.3534,40.45446q-.1014.33539-.20069.6696c1.58461.8703,1.93394,3.65165,4.64875,2.967V109.673C84.52675,109.582,83.05862,109.49366,81.59048,109.40316Zm131.2073-38.26572c-.13309-2.445-.24638-4.55986-.36179-6.6862-2.036.24169-2.13369.25053-2.00369,1.51179.17994,1.751.523,3.48534.811,5.32985C211.82356,71.23518,212.24253,71.193,212.79778,71.13744ZM77.18917,127.52832a17.20164,17.20164,0,0,0,.47518,3.17956c.07794.235,1.25913.41279,1.66777.17046a2.76937,2.76937,0,0,0,1.4182-3.35Zm53.19621-14.21872c-1.332,2.81925-1.84249,6.55352-1.16352,8.51143C130.46853,120.73342,130.48514,120.61077,130.38538,113.3096ZM118.556,94.47842a10.53412,10.53412,0,0,0-5.5429.091c-.23083.07326-.27449.72369-.41173,1.12136C115.76845,96.452,117.50479,96.15662,118.556,94.47842Zm30.60116,35.72106c.81728-2.42223.79343-9.40622-.01969-11.4197C147.82316,122.67365,148.839,126.1953,149.15714,130.19948Zm-17.96077-11.44781c1.71036-4.04261,1.84345-7.075.40651-9.27153C131.45733,112.78554,131.32733,115.76909,131.19637,118.75167Zm17.08632-5.2368c3.68083.94259,7.95427,1.07568,9.62822.08891A57.1575,57.1575,0,0,0,148.28269,113.51487ZM257.0572,25.19512c.00416-.29535.00937-.58953.01353-.88488q-5.72694.9108-11.45292,1.82268C249.441,25.86674,253.32038,26.06542,257.0572,25.19512Zm-40.193,77.1476q.1966.31974.39309.64415c1.24561,0,2.4975.07538,3.72959-.04685a1.37989,1.37989,0,0,0,.93791-.97474,1.40938,1.40938,0,0,0-.87552-1.06887,10.63547,10.63547,0,0,0-3.19.17781C217.45281,101.16515,217.19185,101.90129,216.86424,102.34272Zm-2.12208-31.56143a17.68228,17.68228,0,0,0-.051-6.92426c-.54173.57856-.99711.83335-1.02106,1.12657A8.80035,8.80035,0,0,0,214.74216,70.78129Zm-94.3915,24.14016c1.14063.87125,4.75065,1.154,5.46081.36285a1.42892,1.42892,0,0,0-.23711-1.2373,5.97754,5.97754,0,0,0-2.1388-.08475C122.373,94.09587,121.04315,93.51933,120.35066,94.92145ZM138.379,112.6878c.14246.3306.28385.66183.42738.99349a28.23935,28.23935,0,0,0,2.97577-1.79256c1.11976-.74295,1.83408-2.09663,2.72418-3.1869-.18612-.17408-.37329-.3472-.5594-.52139Q141.163,110.43247,138.379,112.6878ZM92.65659,95.24427a7.54717,7.54717,0,0,0,.18409,1.19c1.572.053,3.14634.07325,4.71945.04472.09359-.00266.32442-.56409.235-.69515-.21944-.33326-.58538-.80269-.89415-.80269C95.56688,94.98224,94.2329,95.13141,92.65659,95.24427ZM82.33387,104.7939c-4.15377.275-4.15377.275-5.08231,1.57163C80.716,107.16044,80.9573,107.09592,82.33387,104.7939Zm22.42139-9.30059c-.08422-.22775-.16631-.45549-.25053-.68312-1.41,0-2.824-.04994-4.2267.04-.30046.01916-.56866.54428-.85049.83591.35763.30834.69877.85368,1.07823.88222a14.07621,14.07621,0,0,0,3.23886-.1382C104.11994,96.36978,104.42051,95.81922,104.75526,95.49331Zm1.38083.74338c1.48687,0,2.97268.04685,4.44912-.04.29524-.01768.60827-.52246.80577-.86455.0624-.10658-.1778-.50063-.369-.62073-.77575-.48924-4.20381-.18611-4.86819.44654C106.0227,95.28217,106.13609,95.66174,106.13609,96.23669Zm-4.04368,26.32155c.30994-.23083.76638-.40864.77149-.6.05313-1.89232.03226-3.78676.03226-5.78938C101.46859,117.14778,101.26172,118.99293,102.09241,122.55824ZM85.58316,95.9424c-1.79361-.37637-3.48012-.70388-5.29237.444C82.415,97.84622,84.65984,97.62529,85.58316,95.9424Zm1.86528,8.85363c-3.12547-.52405-3.29285-.4575-4.63215,1.80033C84.99778,107.62935,86.285,106.52726,87.44844,104.796Zm11.25339,1.82471c1.334.28652,1.68129-.50425,2.03786-1.32567-2.44033-1.831-4.06955-1.39169-4.9357,1.48112,1.17907-.60614,2.20119-1.13126,3.46033-1.77743C99.00751,105.73905,98.87026,106.13214,98.70183,106.62074Zm150.41889,27.9529v5.60019A3.8919,3.8919,0,0,0,249.12072,134.57364Zm-142.288-18.55339c.03844,1.70929.07794,3.35992.10711,5.01055.01448.78554-.07591,1.6272,1.11667,1.71823.87648-2.36441-.28907-4.45327-.65192-6.61336C107.39,116.05145,106.944,116.04,106.83273,116.02025Zm20.26279-20.76714c2.10867.04471,3.7577.51308,4.97424-1.64286C130.31255,94.04231,128.50446,92.82471,127.09552,95.25311Zm-21.41279,10.5905c-2.1783-.979-2.379-.94366-4.00407.68152C104.06075,107.23583,104.06075,107.23583,105.68273,105.84361Zm84.2403-1.02319c-1.807-1.18482-3.20138-.51309-4.85776.26884C187.71875,105.815,187.98706,105.79942,189.923,104.82042ZM90.6478,96.83825c-.11851-2.27976-1.61262-1.47186-2.54222-1.49518-1.01478-.02555-1.38285.56814-.80376,1.74411C88.40923,97.00509,89.4978,96.924,90.6478,96.83825ZM188.562,35.29372c-.0395-.20634-.08007-.41321-.11957-.61966q-2.92121.50307-5.84134,1.00594c.04471.235.08943.47156.13309.70814Q185.64916,35.84226,188.562,35.29372Zm-68.11574,68.69079c-1.45248,1.02564-2.49334,1.76029-3.845,2.7163C119.54478,106.58539,119.54478,106.58539,120.44627,103.98451Zm-29.2214,2.39763c1.90073.52618,2.86557-.03013,3.583-1.47751C93.16925,104.274,92.19493,104.82457,91.22487,106.38214Zm-8.40752,12.12209c1.88923-.50851,1.03874-1.99016,1.26329-3.36205C81.70175,115.64952,83.068,117.35423,82.81735,118.50423Zm72.86117-44.64528c1.13541-2.50474,1.09591-3.93806,0-5.29546Zm-74.688,43.85292c-.61349,1.64914-.61349,1.64914,2.17723,4.4175C82.37965,120.53123,81.73805,119.22994,80.99052,117.71187ZM209.29487,65.15672q-.38378.01165-.76638.0213.28858,1.82481.57505,3.64856c.182-.02651.36179-.05462.54172-.0822Q209.47056,66.95088,209.29487,65.15672ZM86.92023,106.51416c2.53285.44974,2.53285.44974,2.57139-1.47537C88.73983,105.47085,88.08588,105.84616,86.92023,106.51416Zm17.08643,13.39219c.20687.02545.41385.04983.61966.07432q.11707-1.40526.235-2.81255c-.1216-.01661-.24329-.03333-.36595-.04887Q104.252,118.51206,104.00666,119.90635Zm26.11563-13.36355c-.00831-.05983-.01661-.11956-.026-.17983q-1.23214.07873-2.46428.15439c.02289.169.04472.33634.06654.50531Q128.91044,106.78248,130.12229,106.5428ZM87.35282,78.65645c-.04471-.053-.08837-.10605-.13308-.1596h-3.4385v.1596Zm98.61192,11.767c.77458.19122,1.55023.38308,2.50165.61657C188.0141,89.52345,188.0141,89.52345,185.96474,90.42346ZM85.082,119.61569c-.24648-.04568-.495-.0904-.74136-.13671-.0395.4393-.09359.87913-.09572,1.31843,0,.05143.2797.10551.42951.15854Q84.8787,120.28533,85.082,119.61569Zm161.875,19.59638c-.01873-.25266-.03641-.5084-.05408-.76106q-.78751.17777-1.57418.356c.03013.17206.06037.34316.0905.51522Q246.18648,139.26766,246.957,139.21207ZM179.99755,49.21774c.04472.21422.08837.4294.13309.64362q.68929-.26991,1.3787-.53971c-.04887-.14448-.09987-.28853-.14874-.43248Q180.67753,49.05207,179.99755,49.21774ZM79.7958,125.14c.55738.20847.941.37169,1.34133.47933.05717.01554.28385-.34625.27033-.3587a5.09768,5.09768,0,0,0-.93684-.73774C80.4062,124.487,80.14,124.81767,79.7958,125.14Zm50.60725-62.48851c.00831.10913.01768.21784.02705.32644q.87184-.07634,1.74368-.15438c-.01043-.09-.02183-.17941-.03332-.2698Q131.27181,62.60194,130.40305,62.65145Zm-49.449,45.64962c-.00617-.12425-.01245-.2485-.01969-.37382q-.61616.06948-1.23315.14086c.01245.078.02385.15545.03321.233ZM193.557,81.21166c.00415.119.0083.23753.01352.35508q.82824-.05463,1.65733-.10871c-.00415-.08209-.00617-.16429-.0083-.24637Zm59.92861,57.41705c.0822-.0379.16226-.07793.24339-.11584q-.2715-.58884-.54172-1.17757c-.09466.04578-.18824.09093-.28386.13671Q253.19506,138.05143,253.48562,138.62871Z"/><path class="b" d="M164.27321,143.86764a24.64065,24.64065,0,0,1-8.20053.11542c-2.746-.36392-5.54716-.33539-8.3233-.65715,1.699-1.09442,3.4436-.16066,5.16865-.0609,1.89541.10977,3.792.22519,5.6875.32761C160.49475,143.69239,162.384,143.77554,164.27321,143.86764Z"/><path class="b" d="M256.38973,149.93247q.60818.23013,1.21857.45963c-.04365.143-.08731.28641-.13.431q-.62846-.19661-1.25807-.39405C256.27741,150.2637,256.33352,150.09782,256.38973,149.93247Z"/><path class="b" d="M164.38139,108.93628q1.01366-.08719,2.02753-.171c.08007.15076.158.30206.237.45389q-1.07451.97086-2.15328,1.93916c-.16844-.08422-.33688-.1695-.50851-.25425l.09359-1.58717A2.88706,2.88706,0,0,0,164.38139,108.93628Z"/><path class="b" d="M180.794,77.3723h2.61089c-1.65638,1.03671-1.65638,1.03671-2.52454-.09562Z"/><path class="b" d="M264.61838,66.4034c-.84113,0-1.37976.039-1.91106-.00682-1.94225-.16737-2.04414-.261-2.26667-2.27391-.55322-5.02619-1.06993-10.05921-1.64913-15.08274a21.25657,21.25657,0,0,0-.75276-2.80424c.679.10029,1.24146.14448,1.78425.27661.24435.05866.43771.30674.6696.44292,2.432,1.41618,3.43126,3.28454,3.27315,6.32014-.1892,3.66209.53544,7.37038.84634,11.05994C264.6631,64.94516,264.61838,65.56323,264.61838,66.4034Z"/><path class="b" d="M260.5664,80.60136c2.5963-.11754,2.84693-.00884,2.94052,1.83152.237,4.68613.45325,9.377.53651,14.06892a24.476,24.476,0,0,1-.71431,4.32125c-2.07332-2.1668-2.2605-4.42314-2.31043-6.82854-.07166-3.42764-.4606-6.84633-.64362-10.274A25.61486,25.61486,0,0,1,260.5664,80.60136Z"/><path class="b" d="M238.55577,31.37749c-3.26484,2.8791-6.52872,5.75766-10.23957,9.02878.74967-3.0371,4.17666-3.32361,4.37118-5.99839C235.35226,34.63669,236.0094,31.3973,238.55577,31.37749Z"/><path class="b" d="M221.63267,40.97557q5.11559-4.96129,10.23946-9.9308c-.23807,1.3096-6.00562,7.35-9.85276,10.32847C221.89044,41.24068,221.7615,41.1076,221.63267,40.97557Z"/><path class="b" d="M218.5632,34.79a11.17747,11.17747,0,0,1-2.53593,2.41956c-1.203.575-.67269,2.28637-2.28328,2.62953-.90873.19441-1.57,1.544-2.34471,2.37431-.16429-.09987-.32953-.19761-.49488-.29738a5.00556,5.00556,0,0,1,.67481-1.29874c1.075-1.09686,2.70129-1.92819,3.22949-3.22374.78917-1.937,2.24793-2.15753,3.8169-2.54839C218.63188,34.84984,218.5632,34.79,218.5632,34.79Z"/><path class="b" d="M194.85777,37.05976q-3.47331,3.99125-6.94875,7.98281C188.30828,43.18347,193.1702,37.60256,194.85777,37.05976Z"/><path class="b" d="M237.00544,36.34343q3.1349-3.29318,6.26765-6.58643l.53343.4196q-.79535,1.052-1.59186,2.10451c.13618.47508.27342.95239.497,1.73379-.74967-.3109-1.19993-.49755-1.59292-.65928-1.41511.99668-2.78966,1.96461-4.16527,2.93372Z"/><path class="b" d="M217.29886,41.08577c.181-.76159.16013-1.06993.30472-1.22325,1.68331-1.76508,3.39058-3.5077,5.19144-5.35945.69153.51883,1.229.92172,1.72814,1.2965-.077.22-.12372.35668-.12479.35561-.46581-.15129-.92949-.31089-1.57-.53438C221.13981,37.28964,219.39294,39.0166,217.29886,41.08577Z"/><path class="b" d="M206.14959,41.70181c2.38-2.23132,4.17145-5.02981,7.19513-6.65031q-3.31121,3.58479-6.62327,7.16862C206.53012,42.047,206.34082,41.87494,206.14959,41.70181Z"/><path class="b" d="M247.51332,35.77987c1.56066-2.56617,3.8252-4.50427,6.01808-6.50583q.22775.20826.45538.41854-3.01623,3.24014-6.03576,6.48241C247.80654,36.043,247.65993,35.91083,247.51332,35.77987Z"/><path class="b" d="M177.30042,39.09667q-2.99451,3.17-5.99115,6.34261c-.1185-.11808-.23605-.23818-.35668-.35562q3.02421-3.18951,6.04524-6.37891C177.09865,38.83464,177.19948,38.96571,177.30042,39.09667Z"/><path class="b" d="M201.47891,36.82223a27.5144,27.5144,0,0,1-1.53979,2.445c-1.10326,1.41873-2.27711,2.78391-3.45415,4.14237a6.717,6.717,0,0,1-1.19674.81515c.69558-1.8492,4.25577-5.93653,6.24274-7.35164Z"/><path class="b" d="M182.34525,44.34017c.85784-2.20683,2.76272-4.27908,5.8061-6.19067C186.32855,40.09228,184.50587,42.03454,182.34525,44.34017Z"/><path class="b" d="M203.7311,39.629a13.14007,13.14007,0,0,1,5.05845-4.33318c-1.61059,1.53053-2.9155,3.40677-5.10732,4.27813Z"/><path class="b" d="M169.61243,41.18244q-2.24133,2.07285-4.48659,4.14451c-.12266-.12894-.24436-.25628-.36605-.38628q2.1835-2.1594,4.36809-4.31656C169.29,40.81022,169.4523,40.9958,169.61243,41.18244Z"/><path class="b" d="M164.91683,42.28c-1.21441,1.84238-3.17231,2.63059-5.02513,3.56424a12.7531,12.7531,0,0,1,5.074-3.51068Z"/><path class="b" d="M177.34716,43.943q1.44742-1.74209,2.89474-3.48119c.08422.091.16631.18409.25053.275q-1.66575,1.52378-3.32936,3.045C177.2245,43.83486,177.2869,43.88948,177.34716,43.943Z"/><path class="b" d="M236.95348,36.28934q-.99354,1.40062-1.9891,2.80265c-.16844-.143-.33581-.28641-.50425-.42834a3.198,3.198,0,0,1,2.54531-2.32022Z"/><path class="b" d="M203.68223,39.574q-1.08873,1.22655-2.17522,2.45278c-.12265-.09305-.24435-.18611-.367-.28076.16215-.65608.32537-1.31109.52607-2.118.68206,0,1.37359,0,2.065.00107Z"/><path class="b" d="M167.52251,47.91644q.8843-.86241,1.76753-1.726c.13309.13671.26927.273.40342.40864q-.85156.89373-1.702,1.78787C167.83436,48.22947,167.67838,48.074,167.52251,47.91644Z"/><path class="b" d="M164.9657,42.33351q1.01845-1.07307,2.038-2.14508c-.45027,1.42139-.45027,1.42139-2.08684,2.09152Z"/><path class="b" d="M151.13687,49.55355q-.64249.49988-1.28095.99923c-.10605-.1497-.21007-.2995-.31612-.44973.44708-.29376.89628-.58794,1.34239-.88329C150.96641,49.33049,151.05063,49.44175,151.13687,49.55355Z"/><path class="b" d="M160.36784,49.05867c.38894-.36861.77469-.73721,1.16352-1.10528q.14358.131.286.26309-.49908.60578-.99817,1.21079C160.66734,49.304,160.51967,49.18186,160.36784,49.05867Z"/><path class="b" d="M226.21488,32.43081q-.67221.54811-1.34654,1.09794c-.08944-.11127-.1809-.21987-.27033-.3306q.67683-.54283,1.35484-1.08547C226.04016,32.21872,226.12747,32.32424,226.21488,32.43081Z"/><path class="b" d="M103.95151,69.688c-.43462-.30419-.8703-.60934-1.31418-.9213,1.6074-1.29756,3.24812-2.25783,5.51171-.92587-1.47016.61711-2.86142,1.20089-4.25258,1.78478Z"/><path class="b" d="M142.826,67.06831q-2.90091,2.95235-5.8028,5.90278c-.10711-.104-.21315-.20858-.3193-.313q2.8776-2.92041,5.7551-5.84187C142.58179,66.89987,142.70338,66.98409,142.826,67.06831Z"/><path class="b" d="M111.24022,70.53278h-2.83331a15.62155,15.62155,0,0,1,4.90141-3.75088C112.645,68.38675,110.13707,68.30721,111.24022,70.53278Z"/><path class="b" d="M136.259,69.19614c-.66129.72369-1.32567,1.44844-1.97973,2.16329-.21518-.70133-.4065-1.32621-.70186-2.28956.92545.05611,1.84249.11435,2.75751.1695Z"/><path class="b" d="M141.03668,70.36594q1.46291-1.47313,2.92583-2.9467c.15289.15076.30366.30312.45548.45485q-1.4364,1.50045-2.87078,3.00132C141.37557,70.70591,141.20714,70.53587,141.03668,70.36594Z"/><path class="b" d="M131.72149,66.75539q-1.059,1.17193-2.117,2.34408c-.10605-.09306-.21422-.18665-.32027-.2797q1.09017-1.17674,2.17937-2.35292C131.54986,66.563,131.63514,66.65967,131.72149,66.75539Z"/><path class="b" d="M115.91921,69.4307c.785-.69622,1.284-1.7406,2.33322-2.11389.156.17888.30983.35764.46475.53758q-1.18215,1.03713-2.36857,2.07534Q116.13492,69.68026,115.91921,69.4307Z"/><path class="b" d="M136.3349,69.23937c-.71538-.58857-1.4297-1.17651-2.60153-2.13986,1.37253.27757,2.25007.45484,3.34491.67684-.32442.54385-.58123.97485-.8276,1.412C136.259,69.19614,136.3349,69.23937,136.3349,69.23937Z"/><path class="b" d="M125.303,73.45766q.68-.93891,1.36113-1.87943c.14661.08528.29322.169.43877.25319q-.56154,1.05518-1.12189,2.10973C125.75526,73.78155,125.52964,73.61928,125.303,73.45766Z"/><path class="b" d="M122.91673,67.97183q-.78129.85938-1.56066,1.72036c-.10189-.08219-.20272-.16428-.30355-.24488q.722-.95457,1.44524-1.91063C122.637,67.68233,122.77746,67.82735,122.91673,67.97183Z"/><path class="b" d="M97.01223,73.1967c1.08548-.54748,1.6584-.838,2.42883-1.227C99.16349,73.18786,98.761,73.79507,97.01223,73.1967Z"/><path class="b" d="M123.65191,70.41162q.54588-.50755,1.09176-1.01425c.07794.06761.15385.13522.23073.20272q-.44751.54749-.89617,1.09336C123.93577,70.60039,123.79427,70.50468,123.65191,70.41162Z"/><path class="b" d="M103.89646,69.62565q-1.02947.74312-2.05873,1.48527c-.08837-.16641-.17674-.33538-.26618-.50275q1.18837-.46171,2.37793-.92279Z"/><path class="b" d="M102.73081,74.53377q.5553-.85859,1.11156-1.71558c.20688.23967.41386.48136.6186.72156q-.89675.46251-1.79766.92438Z"/><path class="b" d="M119.03638,72.26507q-.563.6893-1.126,1.3787c-.11435-.07751-.23083-.15651-.34316-.235q.51777-.75638,1.0366-1.51179C118.74837,72.01859,118.8919,72.14231,119.03638,72.26507Z"/><path class="b" d="M237.58145,76.0726c-.84006-2.067-1.91414-2.50421-3.63185-1.55651a22.23665,22.23665,0,0,0-2.0649,1.31429,4.76568,4.76568,0,0,1-2.169,1.08813,5.755,5.755,0,0,1,1.0596-1.243c1.81641-1.18694,3.68594-2.29371,5.53258-3.4369,2.0171-1.24987,2.015-1.25455,3.44467.66172.8079-.29311,1.63135-.59049,2.45491-.88786q.1185.25569.2402.51053C240.836,73.69839,239.22537,74.87384,237.58145,76.0726Z"/><path class="b" d="M203.18107,74.40334c-1.79469,1.556-3.555,3.152-5.41408,4.62746-.28491.22657-1.01786-.10764-1.68331-.20336,1.78-2.72833,4.79739-2.97683,6.76668-4.83742Z"/><path class="b" d="M230.54337,72.54946c-2.11388,1.64275-4.22564,3.2856-6.45281,5.01736-.04674-.31558-.24637-.78193-.11328-.915A15.5288,15.5288,0,0,1,230.54337,72.54946Z"/><path class="b" d="M223.69971,73.37546c-2.12634,1.50924-4.25471,3.019-6.43407,4.56614C217.67843,76.30141,220.64483,74.06231,223.69971,73.37546Z"/><path class="b" d="M211.14555,77.4399c1.02106-2.3051,3.15049-3.08543,5.38916-3.73065Q213.83966,75.57464,211.14555,77.4399Z"/><path class="b" d="M205.91035,77.27253q2.101-1.71333,4.20169-3.42444c-1.00328,1.86943-1.99113,2.54637-4.25151,3.3678Z"/><path class="b" d="M205.86053,77.21589q-.85779.98252-1.71462,1.96461c-.15279-.15438-.30568-.30887-.45953-.46166.262-1.08345,1.08239-1.46611,2.223-1.44631Z"/><path class="b" d="M153.74361,81.62029c2.25518-1.31428,4.20477-2.44863,6.40383-3.72959-.78288,2.53647-3.3251,2.72727-4.64353,4.2645C155.3573,82.32726,154.44643,81.84537,153.74361,81.62029Z"/><path class="b" d="M169.03323,81.1383c.08837-1.12967.14555-1.8788.20592-2.64145,1.44524-.37957,2.79072-.73359,4.13609-1.08814.05718.08581.11542.1711.17366.25681C172.14113,78.75,170.73113,79.83349,169.03323,81.1383Z"/><path class="b" d="M166.411,79.67336c-2.07428-1.10007-2.78338.98464-4.35139,1.82939.53343-2.09355,2.25528-2.41637,3.295-3.77069C165.76733,78.49,166.08866,79.08063,166.411,79.67336Z"/><path class="b" d="M150.23027,81.6172a8.88867,8.88867,0,0,1,3.12547-2.96182c.14448.18973.29013.38053.43462.5709q-1.80454,1.17049-3.608,2.34046Z"/><path class="b" d="M186.28394,77.27562q-.928,1.06062-1.85909,2.12219c-.11648-1.51392.58325-2.144,1.91-2.06651Z"/><path class="b" d="M145.86941,81.61348q.67541-.85923,1.35176-1.7192c.131.132.262.26309.393.39512a2.01966,2.01966,0,0,1-1.79458,1.27106Z"/><path class="b" d="M182.21737,79.691q-.669.06149-1.34026.12478c-.03013-.157-.06026-.312-.09146-.469.45016-.11957.90352-.23967,1.35379-.35924C182.16648,79.2216,182.19139,79.45605,182.21737,79.691Z"/><path class="b" d="M227.47188,141.6986c-.09774-.99657-.156-1.5861-.211-2.15434-.57506.62382-1.15,1.24614-2.02136,2.19023-.82654-2.35451,1.20206-3.57,1.33089-5.22839-.67886-.25734-1.29033-.4903-2.12943-.80791,1.04289-1.11465,2.87494-1.35016,1.86953-3.55859q.37277.05461.74339.10871c.84431.54588,1.68757,1.09218,2.612,1.69268.89213-1.25551.61445-3.4764,3.0174-3.80082v1.65734c1.02617.23551,2.04936.46943,3.37089.77362-1.07717.92481-1.97558,1.69481-2.87388,2.46524.081.14874.16109.29737.24222.44505.67269-.29163,1.34644-.58229,2.36548-1.02415-.26618,1.01893-.43781,1.67607-.61562,2.35866.63116.73252,1.24572,1.44631,1.961,2.27657-1.911.981-2.63783-1.35431-4.26716-.97687-.20166.98465-.42,2.04-.67482,3.26643-2.59108-1.07717.05516-4.71168-3.17433-5.21028C228.57514,137.90247,229.72088,139.92064,227.47188,141.6986Z"/><path class="b" d="M239.15989,140.63549a15.50407,15.50407,0,0,1-.11957-3.37344c.27757-1.33771.33273-2.44768-1.17917-3.04136a17.139,17.139,0,0,1,.62808-1.67969c1.69374-3.334,2.82394-3.46086,5.54812-.66343-.78608,1.92256-1.57,3.83723-2.36229,5.77384.24851.42216.51564.87286.87232,1.47846C241.48682,139.602,240.55,140.01785,239.15989,140.63549Z"/><path class="b" d="M121.74916,110.01612v6.51881h-.34944v-6.51775C121.5162,110.01612,121.63375,110.01612,121.74916,110.01612Z"/><path class="b" d="M121.07435,121.80335q-.09982-1.08936-.19964-2.1783l.262-.00617c-.03226.71006-.06452,1.41926-.08848,2.14082C121.05667,121.77109,121.07435,121.80335,121.07435,121.80335Z"/><path class="b" d="M225.306,64.27141a7.4438,7.4438,0,0,1,.37744,4.9736C224.47737,67.68329,224.912,65.975,225.306,64.27141Z"/><path class="b" d="M70.26331,102.496c-1.06578-2.956-.13309-5.68228-1.03043-8.2229-.13511-.38053.38894-.95813.5002-1.46866.11126-.50478.29312-1.38285.08422-1.50977-1.99219-1.21388-.42631-2.96533-.98156-4.46626,1.84664-.22,2.17723,1.16192,2.458,2.131.33475,1.15777.65714,2.70853.15076,3.63654-.94621,1.74155-.24435,3.29859.27342,4.61755.63638,1.62614-.17983,2.93787-.14661,4.3878C71.57759,101.85561,70.8258,102.12743,70.26331,102.496Z"/><path class="b" d="M152.93358,108.85313q-.95138,1.3179-1.90275,2.6358a2.05025,2.05025,0,0,1,1.95471-2.57959Z"/><path class="b" d="M88.52667,110.49438c1.90382-.8968,3.80763-.092,5.69686.05154,1.7291.131,3.18371-.13469,4.15175-1.71877,2.04627,1.82737,3.5456,2.35557,5.80706.68727.2485.18409.6384.33432.77255.60827a4.23538,4.23538,0,0,1,.17994,1.25189c-5.39225.3701-10.59827.72731-15.953,1.09591C88.96651,111.81751,88.74717,111.15621,88.52667,110.49438Z"/><path class="b" d="M170.78628,107.78064c-1.16969,1.03245-2.33949,2.06448-3.46138,3.05584C167.88643,109.33768,168.75566,107.99688,170.78628,107.78064Z"/><path class="b" d="M30.26891,275.74922c-.22039.97261-.40342,1.78371-.58846,2.59577-.13937.0312-.28183.06282-.42323.094-.29939-.81461-.5989-1.62922-1.03767-2.82341h-9.0979q-.01869-.41412-.03428-.83026c3.1047-.211,6.21157-.42269,9.5273-.64884-.93056-39.06117-1.85079-77.69443-2.77411-116.42032,12.17564-5.34391,24.239-10.63725,35.97786-15.78823a34.29861,34.29861,0,0,0,4.4636,1.948c9.69785,2.66541,19.41858,5.25384,29.14144,7.83247,1.5991.42418,3.244.67843,4.50737.93578v12.279c2.33417.76372,4.72147,1.62358,7.15456,2.326q23.87957,6.90383,47.778,13.7461,5.82692,1.67038,11.69,3.23269a16.4366,16.4366,0,0,0,3.19723.46474c1.42555.08944,1.65947.65917,1.58675,2.10186-.22359,4.41845-.1695,8.84937-.17781,13.27677A6.85318,6.85318,0,0,0,171.5484,201.7c2.80947.45858,5.38182.47263,7.73994-1.217.471-.33741,1.3029-.21423,1.97037-.22615.38159-.00937.89212.33475,1.13125.184,2.65657-1.67139,4.16218-.25681,5.82995,1.74422a16.47738,16.47738,0,0,0,4.28069,3.08032,9.615,9.615,0,0,0,2.72109.96176c1.32365.3208,2.67637.523,4.02078.7782.32123,2.12687.211,4.2365,1.01585,5.90331.79949,1.65424,2.69192,2.74291,3.793,4.29782a5.99331,5.99331,0,0,0,5.17281,2.44139c.06335.89681.14448,1.5596.15172,2.22611.03333,3.465-.40651,4.12417-3.84809,4.63736-1.45046.21571-2.21684.84581-2.34056,2.15179-.20059,2.10387-1.45355,2.86035-3.34906,3.00281a6.84488,6.84488,0,0,0-5.1645,3.03816,22.98376,22.98376,0,0,1-2.35611,2.21152q-4.98606,5.02215-9.94528,10.07741c-1.16863,1.18684-1.16863,2.55883-.9181,4.11843a34.99266,34.99266,0,0,1,.31718,5.244c.0395,4.52408.01352,9.047.01352,13.78986h13.05c.03747.11648.07485.235.11232.35146a4.93874,4.93874,0,0,1-1.29032.52352c-4.01142.39608-8.01975.84837-12.0415,1.07973-3.01324.17312-6.04725-.06292-9.06252.0723-10.44442.4674-20.88565,1.031-31.329,1.53521-6.40393.30876-12.80989.50946-19.20851.875-12.9004.73561-25.79547,1.55959-38.69267,2.32278-4.43145.26149-8.90346.169-13.29126.7403-5.52.719-10.91332-.1611-16.35848-.53907-6.98719-.48562-13.97853-.91246-20.96987-1.35176C31.92944,275.706,31.14858,275.74922,30.26891,275.74922Zm141.44176-4.54846a13.37227,13.37227,0,0,0,.35657-2.20173c-.17046-9.17272-.32122-18.347-.62073-27.51466a7.54663,7.54663,0,0,0-1.35794-3.755c-.89627-1.31738-2.37165-2.23708-3.2971-3.53986a2.38837,2.38837,0,0,0-2.9664-1.15628,7.73037,7.73037,0,0,1-2.10653.03333c-.71741,1.31843-.024,3.31062-2.42052,3.46287-.103-1.767-.19868-3.41241-.31718-5.43845-4.43251-.83282-7.59748-3.39942-9.71967-7.872.91395-.60358,1.72292-1.1386,2.27082-1.502-.5084-1.90743-.91917-3.4041-1.29139-4.91131-.03226-.1299.19654-.31558.27863-.4886.82558-1.71046.62914-2.63953-.79119-3.93039-.59368-.5396-1.15521-1.11614-2.08055-2.016,2.90294-.81,3.78782-2.93265,4.69762-4.56305,1.334.37851,2.379.67333,3.39271.95921,1.1022-2.81873,1.51914-3.10578,3.65581-1.97132,2.16264,1.14733,4.4439.93727,6.64616.745,2.71587-.2402,3.78782-1.71409,3.80241-4.53292.0197-3.74832.01139-7.49761-.06239-11.246-.06655-3.3875-.27555-3.61055-3.4385-4.526q-8.37839-2.42373-16.76094-4.82976-23.0296-6.57466-46.05933-13.13527c-2.12112-.60508-4.238-1.2207-6.28735-1.81225.5396-.981,1.27787-1.70419,1.27468-2.42266-.01768-3.11982-.25159-6.24018-.41694-9.53568-11.926-3.14059-23.59524-6.21357-35.58893-9.37343a24.46562,24.46562,0,0,0-.40438,3.15773c.03844,3.15262.19442,6.30311.25266,9.45615.32538,18.04861.61445,36.09733.98252,54.14392.04056,2.02232-.36914,4.16005.864,6.053.17163.264.05207.74753,0,1.11976a24.45579,24.45579,0,0,0-.53747,3.70733c.21518,12.032.49382,24.06265.76937,36.09264.0198.84581.156,1.69215.23807,2.54062,1.88092-.20687,3.51238-.47252,5.15311-.55418,5.11244-.25468,10.225-.45229,15.33955-.64362,1.45046-.053,2.90507-.00724,4.74862-.00724v16.26756c12.64455-.69409,24.87727-1.36678,37.09241-2.03691,0-3.25387-.02811-6.10283.00831-8.9518.03013-2.35919.42418-2.694,2.70331-2.80115,1.17917-.053,2.34886-.29163,3.52591-.369a20.44667,20.44667,0,0,1,2.21673.0873c.33688,3.97341-.49392,7.72749.7008,11.60677C148.04356,272.39547,159.82611,271.80072,171.71067,271.20076ZM40.31194,152.38322c-4.70274,2.1487-8.74642,3.92507-12.69651,5.88713a2.88139,2.88139,0,0,0-.90979,2.24176c.0708,5.91778.24126,11.835.40555,17.74974q1.04193,37.57941,2.10344,75.159c.17675,6.21048.35147,12.42309.62382,18.63037.0905,2.04734.45857,2.34365,2.43617,2.53966,2.94458.29163,5.8965.51618,8.84938.70751a7.74211,7.74211,0,0,0,1.78222-.27342c.29216-4.69923-1.37561-9.16911-.03119-13.78358,1.50241.065,2.71161.118,3.74939.16375.29418,4.929.5677,9.52472.8359,14.02793,4.78707.96176,13.21119,1.29193,16.22753.59113q-.50532-28.22871-1.01372-56.72361c-2.47982.82718-4.59477.24127-7.04021-.38521,0-1.12349.001-2.18043,0-3.23727-.00319-3.74215.06239-7.48419-.02289-11.22475-.23083-10.25415-.54481-20.50778-.77043-30.76236a26.05131,26.05131,0,0,1,.44708-3.72128c3.06936.22508,4.94719,1.478,6.06908,4.0441-.0083-9.95625.21209-19.85106-.57707-30.09734-6.01713,1.86112-11.13894,4.73659-16.70484,6.92267.23914,5.62094.4721,10.93823.6894,16.25669.13618,3.27623-.76734,4.38567-4.45231,5.22583ZM198.22237,208.0385c-5.51894-.235-9.4306-3.46447-13.10929-7.30224-.85774.33369-1.99943,1.2175-2.618.93993-2.23654-1.00966-3.73385.42419-5.50042,1.12711a4.45962,4.45962,0,0,1-2.3165.29418,4.55122,4.55122,0,0,0-4.00524,1.28575c-3.609,2.98248-7.56841,3.49716-11.75753,1.16757a.70936.70936,0,0,0-.27353-.10711c-.27757-.01448-.5562-.00512-.87754-.00512-.16737.78864-.32122,1.50658-.4772,2.24112-1.02213.051-1.883.09572-2.84375.14565-.07069.5001-.14043.86711-.17056,1.2388-.03844.45229-.04887.90618-.0707,1.38817-2.54839-.54694-2.54839-.54694-4.48138.40491a4.98526,4.98526,0,0,1,3.05072,4.83434,15.68622,15.68622,0,0,0,.132,3.74577,3.39282,3.39282,0,0,1-1.622,4.15079c-.10189.06548-.06345.34465-.09774.56249.80056.63734,2.10026,1.15,2.33,1.96408a4.54689,4.54689,0,0,0,3.28667,3.06627c2.81159,1.02415,5.412,2.761,8.61758,2.58427.549-.03066,1.11987.68727,1.71355.99615,2.96949,1.53936,5.98072,2.92019,9.415,1.52478,1.04087-.42163,2.05362-.7798,3.09225-.08944a3.45034,3.45034,0,0,0,4.04677-.06239c.46272.524.81834.92545,1.02628,1.16139,1.27371-.40023,2.60461-1.27936,3.21075-.92481,2.5485,1.49,4.27238.08006,6.14287-1.20824,1.70322-1.17651,3.40634-2.35813,5.59709-2.47408a2.57874,2.57874,0,0,0,2.54116-2.40913,15.50814,15.50814,0,0,1,.83079-2.34418c5.45869-.89776,5.65939-1.11454,4.84318-4.696C202.787,218.14647,197.96663,215.16708,198.22237,208.0385Zm-25.03324,33.62368c-.813,2.60876-.16322,26.09646.69462,29.14815,1.962.1399,3.975.55216,6.18961-.59262.11754-4.38.14661-8.79433.38787-13.19724a13.7901,13.7901,0,0,0-2.31341-8.35183c-.78608-1.24359-1.42767-2.58641-2.26773-3.79049C175.12627,243.79735,174.18943,242.84284,173.18913,241.66218Zm-1.543-5.29855q-.31352.2394-.629.47614,3.82419,4.835,7.64635,9.66931C177.82234,242.01364,174.51906,239.3493,171.64615,236.36363Zm9.38385,9.702c3.3283-2.17212,5.6168-5.12244,5.11766-8.37376C184.04219,240.26378,181.868,242.57517,181.03,246.06562Zm4.12992-9.17379c-1.88614-.61924-3.27218-.63638-4.10287.99551-.66023,1.29139-1.26126,2.6473.48136,4.02441C182.76017,240.21693,183.91527,238.61677,185.15992,236.89183ZM61.6042,177.41231c-.28907-.0083-.5792-.01767-.86721-.02651a41.30777,41.30777,0,0,0,.86721,10.75681Zm112.25038,59.19045c1.54724,1.79149,2.89059,3.348,4.23394,4.905q.25106-.16689.50116-.33166c-.81312-1.77541-1.62518-3.55082-2.46737-5.39064C175.42365,236.03612,174.81324,236.25652,173.85458,236.60276ZM61.63848,206.40289h.30781v-7.71812h-.30781Zm115.58805,28.74835c.58229.90042,1.00753,1.55959,1.71142,2.65039C179.34563,235.93838,179.486,234.87782,177.22653,235.15124Zm-46.1757,37.37881a2.45286,2.45286,0,0,0,2.459.04C132.19561,272.07936,132.19561,272.07936,131.05083,272.53005ZM61.57929,195.10329c.06963-.02651.13926-.053.211-.07847v-3.61109c-.12893.00884-.25894.01821-.3899.02705Q61.49241,193.27182,61.57929,195.10329Zm129.17762,41.25565c-1.7.15694-1.7.15694-2.02955,2.04468.52192-.4606.89106-.75691,1.22378-1.09016C190.22041,237.04621,190.446,236.73276,190.75691,236.35894Z"/><path class="b" d="M89.40219,155.66734c-6.85719-1.99326-13.71235-3.988-20.61841-5.9969.53332-1.22006,1.64381-.83176,2.64411-.55312,4.83487,1.34388,9.6593,2.7393,14.49321,4.0852,2.73664.76266,5.48882,1.4692,8.60609,2.3.85773,1.63966.66438,3.82211.811,5.93855.20272,2.9056-.56568,5.89862.811,8.70287.10711.21773-.08837.565-.06548.84581.09668,1.1682.22253,2.33321.39927,4.14652a2.15142,2.15142,0,0,1-1.82375.25479c-6.96227-1.30183-13.92444-2.60567-20.90225-3.82009-1.81758-.31611-3.69116-.31611-5.74989-.4788-.10508-6.54267-.21315-12.9975-.29428-19.45233a4.08645,4.08645,0,0,1,.34315-1.15266c.18814.17632.37425.352.56249.52821,0,2.17414-.09359,4.35191.02705,6.51722a48.37233,48.37233,0,0,0,.90564,6.70493c.81515-1.57418.6103-3.7265,2.89986-4.47308.43983.85891.89414,1.74528,1.5482,3.02049.55-.98827.89734-1.61262,1.28309-2.304,2.46832,1.40468,5.9609.22614,8.01027,3.46554.71016-1.77861,1.87783-2.05362,3.49982-1.63146-.45644,2.12634-.88691,4.1362-1.44737,6.74805-.64778-1.17651-1.05535-1.91734-1.58036-2.86973a10.25556,10.25556,0,0,1-1.25711,1.609,2.37723,2.37723,0,0,1-1.51594.70239c-1.60537-.20485-3.17125-.69558-4.7746-.91555-1.82162-.25052-1.39435-2.18191-2.71268-3.42539-.30472.90607-.548,1.53979-.7289,2.19384-.17472.6285-.28492,1.27734-.50532,2.29574-.88488-.91491-1.53052-1.585-2.72631-2.81926-.2173,1.69066-.341,2.66125-.4887,3.805,8.50526,1.32887,16.73294,2.614,25.37023,3.96361-.07911-.88169.11743-1.937-.25788-2.209a6.9759,6.9759,0,0,0-3.1079-1.29661,15.21555,15.21555,0,0,0-3.57467.39618,8.62765,8.62765,0,0,1,.72262-5.5955c.30983-.655,1.53883-1.09793,2.41019-1.21708,3.25132-.44441,3.61418-.79693,3.25345-4.10958-.11648-1.06163-.38574-2.10558-.59581-3.22534-1.41405-.25063-2.66807-.47156-3.92092-.69249Zm.6779,9.23352c-.27555.46794-.63734.86093-.55834.994a1.286,1.286,0,0,0,.86924.57761c.185.01608.6072-.4887.56568-.68887C90.90354,165.51126,90.50949,165.30641,90.08009,164.90086Zm-9.18423,1.95268c.20794.09668.41492.19548.6218.29323q.21688-.7361.43355-1.47389c-.15694-.05611-.316-.1102-.47305-.16428Q81.18812,166.1816,80.89586,166.85354Z"/><path class="b" d="M165.89424,255.69639c-.22987,1.40883-.416,2.55308-.61871,3.79773h-44.953v10.55824c-1.69172-.24223-2.99759-.42791-4.67367-.66811-.1695-3.09065-.34209-6.30865-.5397-9.96243-3.951-.58069-7.97184-.10657-11.951-.222-3.93135-.11595-7.86686-.02651-11.80129-.02651.079-1.11614.157-2.225.24435-3.47693Zm-1.411,2.17521c-2.00049-1.59558-4.04985-1.11987-5.93706-1.13286-11.52681-.08315-23.05255-.092-34.5783-.08677q-14.62773.00687-29.25568.10966a11.6236,11.6236,0,0,0-2.0203.47614c.82452.53971,1.16043.92077,1.55033.98838C99.14368,259.08186,161.52306,258.85933,164.48328,257.8716Z"/><path class="b" d="M122.7566,234.5222c-.211-2.62952-.40853-5.086-.63319-7.90476,2.65976-2.575,6.18141-.51106,9.85691-1.00136.21316,2.9285.39618,5.42919.59475,8.1242C129.23432,234.34642,126.23672,235.90612,122.7566,234.5222Z"/><path class="b" d="M152.0685,262.43294a39.53987,39.53987,0,0,1-.04781,4.87448c-.16843,1.36986-1.30385,1.81065-2.62952,1.79255-2.13571-.02864-4.27036-.00788-6.61081-.00788a14.60258,14.60258,0,0,1-.13107-6.65915Zm-8.06649,1.53937c.03641.30834.07176.6171.10924.92438.79119-.17983,1.58557-.36179,2.37687-.54119-.03748-.19911-.07592-.39672-.11435-.59529Q145.18843,263.86626,144.002,263.97231Z"/><path class="b" d="M71.28437,187.07694c.23083,3.6542.45016,7.14732.68621,10.90395-1.39329.36914-2.7657.73146-4.59882,1.215a78.13906,78.13906,0,0,1,.43664-12.1189Z"/><path class="b" d="M69.0177,219.72012c3.2378,1.03511,3.20032,1.034,3.13175,3.60129-.053,1.95726-.027,3.91676.026,5.87413.027,1.02618.13107,2.015-1.26222,2.196-1.12817.1465-1.83312-.48615-1.87166-2.04053C68.96255,226.24054,69.0177,223.12486,69.0177,219.72012Z"/><path class="b" d="M68.79209,215.47947c-.86721-5.20762-.5314-9.6297.80375-11.77052,1.58248.20889,2.05862,1.22112,1.99421,2.682-.05931,1.3688-.03748,2.74132-.09465,4.11225-.052,1.25295-.16322,2.50633-.26618,4.01663C70.62095,214.75951,69.8453,215.06519,68.79209,215.47947Z"/><path class="b" d="M92.20121,218.93415c-.27341-.55419-.67481-.98518-.66236-1.40585.11127-3.65942.29536-7.31565.46688-11.15342,1.8393.16056,2.33215,1.42236,2.4102,2.79073.14448,2.53487.12574,5.08071.12893,7.62239C94.54689,218.09238,93.71194,218.66222,92.20121,218.93415Zm.81313-4.76268c.05611.00266.11435.00362.17152.00521v-3.41826h-.17152Z"/><path class="b" d="M90.74138,202.39828c-.67683-3.67454-1.60228-7.04436,1.202-10.4771,2.21993,2.82032,1.24252,5.65523,1.00967,8.38249C92.849,201.5233,92.78446,201.50776,90.74138,202.39828Z"/><path class="b" d="M102.52191,218.58737c-.09358-2.42531-.27352-4.96072-.23189-7.4941a2.16072,2.16072,0,0,1,1.23518-1.61368,1.45035,1.45035,0,0,1,1.83109,1.44524,49.58039,49.58039,0,0,1-.234,6.77457C104.98609,218.83428,103.94214,219.15508,102.52191,218.58737Z"/><path class="b" d="M92.67118,187.27913c-1.15724.393-2.03478.182-2.091-.75329-.19442-3.1952-.209-6.40074-.28173-9.6017-.00106-.06239.13618-.12734.20688-.19282,2.38623.71113,2.41434.71113,2.37484,2.78657C92.8344,182.13752,92.74081,184.75767,92.67118,187.27913Z"/><path class="b" d="M102.92214,190.41972c-.679-1.09176-1.35378-1.71249-1.45355-2.41531a59.125,59.125,0,0,1-.55-6.69556c-.01458-.49339.62286-1.398.99093-1.41511a2.11452,2.11452,0,0,1,1.543.99295C104.24058,182.25708,104.0254,188.06989,102.92214,190.41972Z"/><path class="b" d="M102.14543,224.77709c3.04338.13255,3.36886.32282,3.36471,2.42935a54.36527,54.36527,0,0,1-.40235,5.584c-.104.98464-.61562,1.66052-2.221,1.35122C102.64659,231.11277,102.39809,227.9707,102.14543,224.77709Z"/><path class="b" d="M101.05889,193.81871a6.59749,6.59749,0,0,1,2.53913,4.83955c.10083,1.47335.15183,2.95288.14768,4.43038-.00735,1.95482-.04994,1.96206-2.68681,2.04159Z"/><path class="b" d="M92.48091,233.838c.25373-3.78677.48658-7.26008.72987-10.91439a2.99825,2.99825,0,0,1,2.23238,3.65431c-.19026,1.65478-.20485,3.32873-.341,4.99181C94.99918,232.86636,94.47832,233.80735,92.48091,233.838Z"/><path class="b" d="M113.4445,220.67985c-.89521-.05717-1.52212-.09667-2.066-.13053v-9.48565c.84538.4096,1.57524.51831,1.75411.89053C114.43649,214.67785,113.82609,217.50647,113.4445,220.67985Z"/><path class="b" d="M120.51079,199.14122c1.45983-.04675,2.00252.63063,2.02956,1.76966.04994,2.23867.08316,4.47882.08529,6.71685.00106,1.24093-.76841,1.634-1.85186,1.7011C119.96385,206.41279,119.82863,201.36317,120.51079,199.14122Z"/><path class="b" d="M111.81836,191.8952a12.55268,12.55268,0,0,1-1.68853-1.82013c-.43675-.68781-.19452-7.87569.16844-8.96639a4.16857,4.16857,0,0,1,2.06491,4.131c-.1611,2.11271-.03642,4.24736-.03642,6.37157C112.15737,191.707,111.98893,191.80108,111.81836,191.8952Z"/><path class="b" d="M110.24727,206.8292V197.382c1.29448-.50947,2.15019-.10189,2.22408,1.27159.12159,2.247.08944,4.50214.05611,6.75529C112.51085,206.48508,111.84328,206.9493,110.24727,206.8292Z"/><path class="b" d="M122.64022,221.62809c-1.16149-.15279-2.08268-.29993-2.05458-1.69375.03738-1.86325.026-3.72959-.02289-5.59284-.02289-.96442.37947-1.647,1.30385-1.515a1.85985,1.85985,0,0,1,1.16246,1.3195C123.29215,216.62744,124.0366,219.17893,122.64022,221.62809Z"/><path class="b" d="M129.16256,214.16891c1.32258-.21209,2.12016.22455,2.168,1.2586a49.54815,49.54815,0,0,1-.10094,5.85433c-.026.37382-.67577.862-1.12391.98518-.25063.06814-.97847-.50009-.97847-.78235C129.12934,219.09109,128.03545,216.67834,129.16256,214.16891Z"/><path class="b" d="M71.34676,177.97746c-.16322,1.14117-.33581,2.354-.56046,3.91986-1.40575-.312-2.59524-.57442-3.65783-.80791C65.92332,177.05574,67.80009,176.29767,71.34676,177.97746Z"/><path class="b" d="M112.42035,225.34628c1.79149.03386,2.18043.91555,2.17106,1.95375-.026,2.33375.34933,4.79271-1.65425,6.72825A21.38921,21.38921,0,0,1,112.42035,225.34628Z"/><path class="b" d="M157.89536,193.91751c1.7177,2.68979,1.34953,5.18889.86508,8.52283-.9181-1.13743-1.79255-1.72441-1.83727-2.367C156.79423,198.12122,156.55819,196.07186,157.89536,193.91751Z"/><path class="b" d="M120.124,193.093c-1.414-2.36452-1.098-5.00235-.9181-7.59493.02076-.28811.71432-.77415,1.03352-.72943a1.33134,1.33134,0,0,1,.89415.94355c-.052,2.42627-.22146,4.85-.35349,7.27466C120.56062,193.02177,120.34236,193.05659,120.124,193.093Z"/><path class="b" d="M137.48692,215.33605c2.31245,1.06525,2.81563,3.82009,1.45461,6.95131C137.36842,221.30835,136.98363,219.56733,137.48692,215.33605Z"/><path class="b" d="M129.31651,201.24573c1.48688,2.405,1.4182,6.485-.1383,8.185C127.865,207.44939,127.942,202.86356,129.31651,201.24573Z"/><path class="b" d="M130.19714,194.28612c-2.35707-1.032-2.8364-4.4159-1.40681-7.43117C130.91976,189.043,129.28425,191.6518,130.19714,194.28612Z"/><path class="b" d="M137.10426,201.79214c1.67607,1.77637,1.87677,3.8154,1.29352,8.35854-.35359-.12372-.85369-.1465-.94834-.355C136.33383,207.36571,136.939,204.90356,137.10426,201.79214Z"/><path class="b" d="M151.96043,191.78649c1.442,2.14135.60923,4.71221,1.37657,7.2227-2.23441-.32857-2.86451-1.42342-2.7065-3.10833.12478-1.33611.2797-2.67062.42013-4.00566Q151.50436,191.84057,151.96043,191.78649Z"/><path class="b" d="M79.84265,183.77877v-3.39122c.93269.1415,1.675.233,2.40913.37074.90149.16843,1.857.41534,1.64275,1.61059-.20475,1.14531-.81621,2.02019-2.20524,1.80394C81.12148,184.08552,80.56314,183.93475,79.84265,183.77877Z"/><path class="b" d="M80.90417,196.94c2.92179.21784,3.74939.72059,3.57265,2.0681-.10913.8391-1.58462,1.77381-2.71375,1.71823C80.61308,200.67121,80.41142,199.85862,80.90417,196.94Z"/><path class="b" d="M145.16766,212.6945c-1.55651-2.56714-1.91116-5.29238-1.148-8.84884C146.38623,206.954,144.97324,209.94849,145.16766,212.6945Z"/><path class="b" d="M143.99168,190.34274a7.4858,7.4858,0,0,1,.27651,7.54147C142.83753,196.38275,142.68879,192.32044,143.99168,190.34274Z"/><path class="b" d="M147.20031,236.07924c-1.66564-1.791-2.34674-4.799-1.57514-6.16895a1.02205,1.02205,0,0,1,1.937.51C147.52685,232.15311,147.35629,233.8838,147.20031,236.07924Z"/><path class="b" d="M138.68887,235.5323c-1.2685-2.4102-.70281-4.722-.62381-7.33237C140.09675,229.77624,140.22877,232.4936,138.68887,235.5323Z"/><path class="b" d="M145.57523,223.953a10.81788,10.81788,0,0,1-.37637-7.26221C147.192,218.01807,147.35011,220.07573,145.57523,223.953Z"/><path class="b" d="M73.35769,152.82306a13.4497,13.4497,0,0,1,1.59707,3.16869c.11435.51415-.69877,1.64222-1.29139,1.81587-.93482.27449-1.65531-.459-1.54725-1.54042.11233-1.11093.36084-2.20524.55-3.308C72.896,152.91452,73.12782,152.86884,73.35769,152.82306Z"/><path class="b" d="M164.30228,202.01456a12.59232,12.59232,0,0,1-.11744-6.04981C166.04085,197.95587,166.08866,199.35235,164.30228,202.01456Z"/><path class="b" d="M77.8297,157.68241c-.50222-.46017-1.2883-.84644-1.43907-1.40265a5.88418,5.88418,0,0,1,.15077-2.53551c.0395-.20538.66651-.48966.92747-.41226.41066.12117,1.00647.483,1.05226.80737A23.3337,23.3337,0,0,1,78.571,157.228C78.32458,157.37982,78.07714,157.53059,77.8297,157.68241Z"/><path class="b" d="M153.32145,236.43379c-.66022-2.18714-1.047-4.15026-.339-6.05812.21007-.02087.42109-.04.63116-.06037.20272,1.71249.45432,3.42082.56462,5.14108C154.19686,235.76259,153.62192,236.10682,153.32145,236.43379Z"/><path class="b" d="M84.141,216.14811c-1.13435.39192-2.0088.69451-3.00079,1.03661-.51256-1.21495-1.04491-2.34046.27246-2.90455C82.66766,213.7426,83.61589,214.44648,84.141,216.14811Z"/><path class="b" d="M137.07626,196.04694c-.807-3.08916-.68-5.18111.50009-6.69716.79332,2.18874.30984,4.288.19964,6.35869C137.77077,195.83166,137.32987,195.9294,137.07626,196.04694Z"/><path class="b" d="M82.89636,154.88019c1.19365,1.3507.87136,2.58225-.01768,3.90122C81.0955,157.25089,81.09656,156.784,82.89636,154.88019Z"/><path class="b" d="M89.35438,155.65328c.24329.29738.47.60934.73093.89053.25372.273.54066.5183.96484.91661-.41066.84634-.80471,1.65627-1.28926,2.65859-2.038-1.60953-.90149-3.02932-.34412-4.43815A.23078.23078,0,0,0,89.35438,155.65328Z"/><path class="b" d="M84.25642,231.50693c-.9181.25681-1.83727.51362-3.13175.87647.103-1.15723.16429-1.8477.26618-2.99291,1.20611.591,2.06075,1.00744,2.91551,1.42491C84.28964,231.04527,84.2741,231.275,84.25642,231.50693Z"/><path class="b" d="M87.02841,156.40912c.14448.11861.37328.21007.41587.35668.24957.88169.38894,1.79415-.655,2.25634-.21113.09455-.77564-.18771-.92023-.443C85.49373,157.922,85.86073,157.318,87.02841,156.40912Z"/><path class="b" d="M43.26184,230.74736c1.00541-.16119,1.91627-.30834,3.2034-.51628v25.5376c-1.0761-.19654-2.06906-.37744-3.28454-.6C43.62469,246.93794,42.13473,238.93853,43.26184,230.74736Z"/><path class="b" d="M43.372,218.30554c-.2485-3.44318-.44813-6.2141-.67279-9.33339.90362-.07432,1.79575-.14661,3.0996-.25159,0,2.89623.0873,5.49669-.08635,8.081C45.68236,217.23518,44.523,217.59442,43.372,218.30554Z"/><path class="b" d="M43.80665,176.19577c.44079,3.16508.28279,6.20377.42109,9.68337-2.49962-1.06472-2.23238-2.79648-2.25421-4.34883C41.91114,177.11856,41.92775,177.11856,43.80665,176.19577Z"/><path class="b" d="M43.02057,192.88655c1.84558,1.844,1.96514,3.61322,1.04811,8.53177-1.81342-.73-1.37977-2.4596-1.5316-3.69477C42.36865,196.335,42.79081,194.87192,43.02057,192.88655Z"/><path class="b" d="M171.84376,224.66263c-1.51286-1.38913-1.51286-1.38913-4.82561-1.34335.17674-.66545.34209-1.29086.58027-2.19129-1.20717-.23392-2.38528-.46006-3.99065-.76989.80992-.76788,1.33717-1.267,1.91733-1.81651-1.14584-.915-2.30617-1.84143-3.78889-3.02411,1.4577-.86615,2.49644-1.48528,3.53624-2.10558.12893.15236.262.30419.391.456-.5116.55929-1.02319,1.11827-1.55757,1.70258.69558,2.11282,2.68563,1.17332,4.263,1.85079-.46273.72827-.89106,1.39744-1.42033,2.2292a48.045,48.045,0,0,1,4.80676,3.39846c.81834.73146,1.18119,1.97866,1.83,3.14059.35146-.02492.88691-.06389,1.52744-.10967.0987.40651.19644.77724.28279,1.151.444,1.92617,1.48687,2.731,3.295,2.24282a34.46113,34.46113,0,0,0,3.49673-1.50615,13.73684,13.73684,0,0,1,2.16169-.40289c-3.32,3.48684-6.23337,4.36853-8.53336,2.9384C172.04648,228.15681,171.03266,226.66685,171.84376,224.66263Z"/><path class="b" d="M158.39652,223.21015c.71634-1.95684,1.18322-3.73012,3.73268-4.37225-.82452,1.10528-1.41714,1.89913-2.25209,3.01633,3.0486,1.30907,6.11689,2.313,8.07586,5.63447-1.64594-.62541-2.86983-1.09176-4.288-1.63082C163.02654,224.12144,163.02654,224.12144,158.39652,223.21015Z"/></svg>