<svg xmlns="http://www.w3.org/2000/svg" viewBox="0 0 300 300"><defs><style>.a{fill:none;}.b,.c{fill-rule:evenodd;}.c{fill:#fff;}</style></defs><title>gl_nav08</title><rect class="a" x="-13.40821" y="-14.1304" width="326.40821" height="326.40717"/><path class="b" d="M123.53351,107.37033c-.97946-3.74475,1.1264-9.087,4.16433-10.71054a4.01189,4.01189,0,0,1,2.65111-.25571c4.22538,1.07788,8.46894,2.12971,12.59252,3.52539a6.89236,6.89236,0,0,0,6.3698-.69222c4.705-2.94447,9.38955-5.92751,14.19864-8.69571,7.26784-4.183,14.66907-8.13922,21.95265-12.29626,6.7748-3.86682,13.40692-7.98542,20.22458-11.77371,5.05566-2.8099,10.31479-5.25115,15.46763-7.88929,3.88835-1.99051,7.72922-4.07946,11.64248-6.02086a19.28282,19.28282,0,0,1,3.46322-.98963q.28158.38688.56319.77364a23.30431,23.30431,0,0,1-2.18287,3.28265c-4.51724,4.834-9.00052,9.7063-13.71,14.34966-5.716,5.63461-11.64249,11.05612-17.48974,16.555a8.087,8.087,0,0,1-1.287.81151,12.29161,12.29161,0,0,1,1.04952,1.79721c.70576,2.02444-.40942,3.84134-2.452,3.47038-3.4405-.6232-5.11669,1.95437-7.32666,3.53837-.47727.3427-.49753,1.4522-.55417,2.22132-.12439,1.62465-.74423,2.89421-2.5199,2.771-3.52412-.246-5.58712,1.99387-7.8016,4.01553,1.44768,3.49991.77814,4.49233-2.69629,4.735a6.60858,6.60858,0,0,0-3.17355,1.22428,30.97347,30.97347,0,0,0-3.298,3.05831c.98626,3.77069.48861,4.60768-3.1306,5.20992-2.53344.42133-1.39568,2.21171-1.47941,3.90087,1.16266.36354,2.36377.79564,3.58978,1.11286,9.14762,2.35764,18.311,4.66594,27.45176,7.04384q13.02567,3.38793,26.01983,6.89062a8.81866,8.81866,0,0,0,6.13679-.66269c6.82-2.974,13.91581-5.35874,20.56612-8.65332a17.00124,17.00124,0,0,1,13.19429-1.1593c4.06023,1.18247,8.35127,1.55574,12.53148,2.33216a2.43569,2.43569,0,0,1,1.66705,1.39058,7.04107,7.04107,0,0,1-2.081.27031c-4.18021-.74144-8.40339-1.35445-12.50438-2.43222a16.77029,16.77029,0,0,0-11.95021.90648c-5.88118,2.73195-11.98855,4.98038-17.98068,7.48209a27.72981,27.72981,0,0,0-3.01072,1.77347,41.45043,41.45043,0,0,0,5.41978,3.44282,6.60233,6.60233,0,0,1,3.98113,4.593,4.15111,4.15111,0,0,0,3.40205,3.12039c2.167.52082,4.27066,1.31589,6.449,1.78193.85505.18321,2.26881.13967,2.68272-.3874,2.03127-2.58661,4.69361-1.99676,7.48718-1.76212,5.61434-5.87041,10.532-12.57052,17.526-17.1086.04527-.02825.3099.28387.561.5236-3.1871,3.2347-6.45794,6.39077-9.53884,9.72437-3.099,3.35341-6.01019,6.88275-8.944,10.26778,1.0179,1.9041,3.89519.83525,4.14628,3.70236-2.96995.78209-5.96038,1.57044-9.35793,2.46441a19.13926,19.13926,0,0,0-1.75077,7.4104c-.22839,2.70983-.38682,5.42649-.52024,8.14315-.06787,1.41885-.64913,2.39042-2.14442,2.13366-3.57623-.61579-7.1321-1.36059-10.68112-2.12346-.36424-.07864-.71481-.58417-.92293-.97319-1.83218-3.42985-3.94035-6.73115-4.53078-10.71227a43.72657,43.72657,0,0,0-1.4273-5.13765c-4.7389-.69153-9.50038-1.37136-14.25515-2.0827-11.80093-1.76443-23.70354-3.02658-35.35736-5.48532-8.98468-1.89566-18.01463-2.36331-27.06033-3.15213-1.87075-.16237-3.7686-.0227-5.99663-.0227-.52708,2.08953-.99984,3.97267-1.47931,5.875,1.06758.80133,1.891,1.41885,3.19845,2.39829-1.20343.77249-2.09011,1.34195-3.05148,1.95773-.74643,1.9216,1.41375,2.03869,2.15347,3.13522-.02492,1.943-1.73272,1.85824-2.92028,2.34455-.7939,3.17529-.7939,3.17529,2.25074,5.306-.21495,2.18172-1.95437,2.3-3.55586,2.55047-1.02472,2.5441-.60629,4.57491,1.9589,5.69171-.07019.45295-.01819.80248-.15381.90092-2.41138,1.76374-1.89785,4.13088-1.66263,6.63328.48178,5.14889.65145,10.326.95,15.49866-2.51989,1.20053-4.64833.38056-6.74747-.26522-2.24391-.69049-4.44716-1.49065-6.99867-.29915-2.2914-4.77283-4.70729-9.23853-6.60283-13.91639a147.29949,147.29949,0,0,1-4.99218-14.74887c-1.36627-4.76716-4.26163-9.00447-4.55568-14.52941-1.83.54908-3.33871,1.1197-4.89721,1.4302a8.13824,8.13824,0,0,1-3.73469.16063c-3.48115-1.0502-6.85379-2.45886-10.31467-3.58932-3.42464-1.118-4.0513-1.926-3.16684-5.3445.52707-2.03011,1.37078-3.97892,2.22584-6.39412,5.61435,1.82651,11.05439,3.59766,16.61673,5.40784.2035-1.00144.40709-1.98772.62876-3.065,2.28236.13238,1.96792,2.5324,3.23922,3.3687,1.33684.87938,2.76414,1.62187,4.41091,2.57247-2.06521,1.60265-3.73.58359-5.41294.009-5.97175-2.038-11.95021-4.05907-18.29742-6.21253-.6854,2.50461-1.26216,4.60942-1.96342,7.15977,4.69825,1.52968,9.03,3.00852,13.416,4.30518a5.25791,5.25791,0,0,0,2.70983-.4592c3.94268-1.22718,7.85825-2.53623,11.80545-3.74927a12.01218,12.01218,0,0,1,2.42944-.24263c.07238.31166.147.62262.22168.9337-2.62622,1.02183-5.25243,2.042-8.2269,3.19787,4.02631,14.30831,8.08664,28.43734,15.25266,40.9196,3.68928.71713,6.94656,1.34994,10.43908,2.02792a27.60962,27.60962,0,0,0,.31674-9.22892c-.44114-5.27558-1.10383-10.55731-1.11066-15.83683-.00452-3.89913.86409-7.80173,1.39116-11.69739a27.75554,27.75554,0,0,0,.66721-3.37831,40.49556,40.49556,0,0,1,2.57421-13.7253c-6.37883-1.8469-12.68309-3.699-19.00309-5.4939-6.20245-1.762-12.01344-4.77677-19.141-6.26626.89118,2.19978,1.53129,3.76513,2.15565,5.33546.61069,1.52968,2.17372,2.76195,1.62638,5.54416a13.56909,13.56909,0,0,1-2.167-2.37165c-1.2215-2.55209-2.37513-5.14553-3.40889-7.78019a3.64076,3.64076,0,0,0-2.80028-2.34c-14.98131-4.019-29.3971-9.635-43.72452-15.51452-9.22452-3.78435-17.54637-8.72628-23.7692-16.73428-.90706-1.16834-2.02676-2.17152-3.436-3.66333a38.15551,38.15551,0,0,1,5.14158-1.67167c11.27373-1.9209,22.60412-2.43951,33.835.01877,6.67741,1.46123,13.21919,3.55643,19.7926,5.47119,8.73126,2.54422,17.4309,5.19463,26.15093,7.77614A7.35689,7.35689,0,0,0,123.53351,107.37033ZM232.234,55.65692c-11.35295,3.626-76.71812,40.15175-82.71465,46.14041,3.14413,1.23678,6.164,2.42655,9.20633,3.62372-.36644,2.10644-1.64445,2.86479-3.45857,3.04523a47.04373,47.04373,0,0,0-12.1244,2.40906,8.53741,8.53741,0,0,1-7.21571-.17257,15.52677,15.52677,0,0,0-3.75042-1.02009,2.98511,2.98511,0,0,0-.95454.09833c.2307.99589.44785,1.92449.6921,2.97458a5.44235,5.44235,0,0,1-4.65516-.99983,17.84817,17.84817,0,0,0-4.07841-2.03973c-9.23355-2.91516-18.4715-5.82917-27.76157-8.5617C88.39778,99.0897,81.38788,96.8056,74.21271,95.497A83.62131,83.62131,0,0,0,44.5805,95.4925c-1.47027.25908-2.67821.695-3.341,2.22758a49.93238,49.93238,0,0,0,18.46478,14.60746A368.29191,368.29191,0,0,0,99.06315,127.397c5.1687,1.66368,10.44138,3.00342,15.62142,4.63143,9.80347,3.07916,19.45094,6.75894,29.397,9.25845,9.89624,2.48758,19.57764,6.32729,30.03037,6.217a5.33619,5.33619,0,0,1,1.045.2087c14.49489,2.83989,29.0125,5.54242,43.71781,7.12306,7.98031.85726,15.929,1.97475,23.91154,2.80491a76.16811,76.16811,0,0,0,9.90538.28606c2.61707-.07007,5.22289-.54062,7.74962-.82274-.71481-1.85489-1.26678-3.29238-1.94314-5.05786-.52023.17754-1.6354.22561-1.85257.69165-.85042,1.83948-2.33435,1.58839-3.88835,1.67039-3.96758.211-7.28368-1.8418-10.86214-2.96879a2.48346,2.48346,0,0,1-1.35491-1.44826c-1.59929-5.08612-5.62338-7.41434-10.25816-8.82924-5.97847-1.82651-12.03846-3.38839-18.07576-5.01767-6.37884-1.72019-12.75536-3.43992-19.15909-5.06063-9.2471-2.34177-18.51458-4.59414-27.6937-6.8641-.5-4.23326.95-6.12092,5.094-7.15016-.14245-.76913-.66049-1.93283-.3596-2.21113,2.93833-2.71782,5.02833-6.6356,9.3782-7.06933,0-.92234-.36412-2.18391.05883-2.56286,3.04465-2.71886,5.9084-5.80543,10.25816-6.47947.38-3.57173,5.45371-7.7751,10.52744-8.71609-.38463-.66617-.77364-1.33847-1.32331-2.29313C210.98253,78.27249,221.37874,67.33566,232.234,55.65692ZM253.515,160.04847c-5.70028-.40547-11.163-.79518-16.84963-1.19949a31.05463,31.05463,0,0,0,5.65048,15.55587c3.32735.50553,6.42632.97712,9.59767,1.45891C252.44959,170.56849,252.96531,165.46257,253.515,160.04847ZM124.95176,104.58128c.604.462.86178.70126,1.15583.8788,4.24808,2.54757,9.07975,3.19,13.80278,4.1457a7.30272,7.30272,0,0,0,2.78685-.36192c3.44722-.74145,6.89-1.51393,10.32822-2.292.69674-.15728,1.37762-.3852,2.624-.73971-3.30938-1.74961-6.01471-3.04013-9.17923-3.16174a13.05931,13.05931,0,0,1-3.384-.80862c-3.79791-1.2164-7.54382-2.61544-11.38238-3.68823-3.2867-.919-4.43581-.24263-5.77949,2.84615A28.65428,28.65428,0,0,0,124.95176,104.58128Z"/><path class="c" d="M182.49713,166.35434a23.40733,23.40733,0,0,0,1.31646,3.69611q4.62465,8.36367,9.41445,16.63479c3.09213,5.361,6.24542,10.68564,9.39187,16.015a18.76235,18.76235,0,0,0,1.45221,2.01321c1.99733,2.51989,1.17852,5.15733-1.92277,6.23406-3.83635,1.33233-7.67491,2.65783-11.48637,4.058-4.5082,1.658-8.9644,3.46089-13.48383,5.08044-7.80613,2.79808-15.68025,5.41074-23.45928,8.27669-7.19765,2.65111-14.30264,5.551-21.46415,8.29927-7.07326,2.71446-14.194,5.30894-21.247,8.0754-6.53946,2.56738-12.99973,5.336-19.52785,7.935-4.28873,1.7078-8.67022,3.1827-12.94089,4.93347-3.75042,1.53813-7.40124,3.31832-11.09966,4.98315-.32579.14709-.67636.23754-1.29609.45017-.17418-.27367-.39365-.57224-.56332-.89571-2.82749-5.40622-5.43552-10.94355-8.52326-16.196-4.0037-6.80642-6.48515-14.28226-9.9414-21.31938-1.05183-2.13991-2.21229-4.22318-3.48127-6.62992,11.52945-4.6891,23.51128-7.67052,34.92308-12.29627,11.55887-4.68458,23.44341-8.55939,35.1086-12.993,11.57914-4.39725,23.138-8.8648,34.56567-13.63983,11.34392-4.73659,22.93441-8.79241,34.23317-13.62628C182.47674,165.74585,182.48809,166.04894,182.49713,166.35434Z"/><path class="b" d="M182.49713,166.35434a23.40733,23.40733,0,0,0,1.31646,3.69611q4.62465,8.36367,9.41445,16.63479c3.09213,5.361,6.24542,10.68564,9.39187,16.015a18.76235,18.76235,0,0,0,1.45221,2.01321c1.99733,2.51989,1.17852,5.15733-1.92277,6.23406-3.83635,1.33233-7.67491,2.65783-11.48637,4.058-4.5082,1.658-8.9644,3.46089-13.48383,5.08044-7.80613,2.79808-15.68025,5.41074-23.45928,8.27669-7.19765,2.65111-14.30264,5.551-21.46415,8.29927-7.07326,2.71446-14.194,5.30894-21.247,8.0754-6.53946,2.56738-12.99973,5.336-19.52785,7.935-4.28873,1.7078-8.67022,3.1827-12.94089,4.93347-3.75042,1.53813-7.40124,3.31832-11.09966,4.98315-.32579.14709-.67636.23754-1.29609.45017-.17418-.27367-.39365-.57224-.56332-.89571-2.82749-5.40622-5.43552-10.94355-8.52326-16.196-4.0037-6.80642-6.48515-14.28226-9.9414-21.31938-1.05183-2.13991-2.21229-4.22318-3.48127-6.62992,11.52945-4.6891,23.51128-7.67052,34.92308-12.29627,11.55887-4.68458,23.44341-8.55939,35.1086-12.993,11.57914-4.39725,23.138-8.8648,34.56567-13.63983,11.34392-4.73659,22.93441-8.79241,34.23317-13.62628C182.47674,165.74585,182.48809,166.04894,182.49713,166.35434Zm-91.52062,46.1154c1.69414-.37095,3.42684-.61521,5.06909-1.14228,2.87046-.92061,5.68441-2.01541,8.90556-3.17587q-1.40472-3.70166-2.48376-6.54167c-1.21466-.46824-2.28906,1.21918-2.9044-.59042.90256-.71249,1.79837-1.42278,2.69628-2.13307a107.40566,107.40566,0,0,0-10.7513,3.5921c-5.7115,2.09682-11.44792,4.12358-17.155,6.23187-3.97881,1.47026-7.9011,3.08761-11.89126,4.52163-1.692.60849-3.49262.91841-5.214,1.355-.04749,2.89757,3.651,3.89971,3.06956,6.77689-1.545.42527-2.07656-2.52209-3.6645-.78939-.49534,1.15363.43211,2.57641-.79171,3.712-1.50188-1.32781-.55637-2.89536-.66953-4.24576a35.011,35.011,0,0,1,.215-4.5851c-1.96121.613-3.678,1.15131-5.68221,1.77787,1.44316,3.151,2.73253,5.96271,4.04,8.81279a10.93672,10.93672,0,0,0,1.56986-.30088c3.0311-1.10151,6.04182-2.262,9.08195-3.34774,6.94887-2.47912,13.92485-4.89038,20.86237-7.41028,1.97707-.71932,3.85454-1.71915,5.77719-2.59228Zm110.14372-8.80816.0791.0791c-2.01309-3.61017-3.97661-7.24965-6.053-10.82368-1.74406-2.99937-3.6192-5.91963-5.43785-8.87383l.01123.052q-1.52007-2.8942-3.04013-5.79525c-10.92317,4.44485-21.82155,8.13876-32.72214,12.6107,5.75008,10.12023,10.35094,20.37619,16.00372,30.14121,2.44971-.82564,4.5624-1.48613,6.639-2.24622,6.76566-2.4723,13.54034-4.93116,20.26755-7.50757,2.37966-.91157,4.981-1.47478,7.02809-3.65082C202.98635,206.34431,202.05219,205.00294,201.12023,203.66158ZM152.84222,191.32c-3.23006,1.217-6.08929,2.24622-8.91,3.36592-5.23655,2.07875-10.41879,4.29556-15.68245,6.29742-5.9333,2.25745-11.93666,4.32718-17.89706,6.51-2.51526.92281-4.97632,1.99282-7.50524,2.87046-4.36122,1.51324-8.78338,2.86143-13.13326,4.40188q-12.54725,4.44138-25.03807,9.03435c-4.57838,1.6807-9.11136,3.4881-13.72588,5.26146,4.12369,11.3394,10.20847,21.22209,15.8205,31.72914,17.01247-6.72721,33.783-13.45441,50.62591-19.99608,16.84733-6.544,33.76493-12.90244,50.91534-19.44423C163.12077,211.27314,158.05388,201.43805,152.84222,191.32Zm-40.19576,13.90006a12.91545,12.91545,0,0,0-1.62407-5.97394c-1.80508-3.56269-1.82547-3.55366-5.37229-1.882-.3325.84591-.41392,1.79154-.92744,2.20766a1.80022,1.80022,0,0,0-.50669,2.434c.80074,1.8118,1.66935,3.58978,2.52211,5.4039C108.82145,206.63836,110.62422,205.96884,112.64646,205.22009Zm21.86-18.36749c-.06785-.17419-.13793-.34837-.2058-.52256q-3.05716,1.18427-6.11652,2.36841c.08825.21715.1742.4365.26012.65366Q131.47762,188.10357,134.50646,186.8526Zm21.99794-3.80926c1.68973.39365,3.21885.2036,4.26614-1.40008Q158.63637,182.34214,156.5044,183.04334ZM168.23966,172.559l.2036.51573q1.34373-.57347,2.685-1.1468c-.04748-.11535-.09728-.2307-.14708-.346Q169.61055,172.07038,168.23966,172.559Z"/><path class="b" d="M158.25065,215.4896c-2.66906,1.0179-4.861,1.701-6.91031,2.68493-1.56766.75106-2.287.00684-2.80491-1.16938-.73519-1.674-1.31427-3.4134-2.07424-5.42209,2.87718-1.61735,5.768-2.936,9.60219-2.59C156.72838,210.96786,157.44319,213.08726,158.25065,215.4896Zm-5.53049-.72384q-.09172-.19682-.18321-.39365c-.39367.19908-.78952.39817-1.18306.59714.052.10863.1018.21715.15149.32579Q152.11271,215.03046,152.72016,214.76576Z"/><path class="b" d="M87.683,227.57775c-.267.57224-.898,1.29157-.73519,1.69194.785,1.94082-.50889,2.39319-1.81412,3.013-1.23273.58359-2.39771,1.31195-3.80915,2.09682-3.03109-2.927-1.81643-7.57091-4.53981-10.76716,2.39088-1.37079,4.50356-2.58093,6.44439-3.69379,1.554.37778,1.77115,1.46123,2.176,2.51757.68539,1.78922,1.56534,3.50166,2.36609,5.24559ZM83.487,221.839c-1.9114.2285-3.2618.9908-3.20528,2.48816.06555,1.74857.16284,3.84088,2.00869,4.8385a2.90814,2.90814,0,0,0,2.47461-.3303,2.33025,2.33025,0,0,0,.70346-2.06289A47.0759,47.0759,0,0,0,83.487,221.839Z"/><path class="b" d="M87.77123,227.68175c-.44786-1.87515-.90938-3.7459-1.33233-5.62557-.21264-.95235-.35288-1.92276-.53843-2.94969,1.36407-.64462,2.4928-1.23956,3.669-1.72135,1.64225-.674,2.28236-.4343,3.056,1.15815.92293,1.9,1.77115,3.83856,2.651,5.759a1.8413,1.8413,0,0,1-.68075,2.434c-1.54729,1.11738-3.1578,2.14894-4.70729,3.19394-.83919-.89571-1.52458-1.62639-2.20764-2.35475Zm5.50119-3.97661c-.61752-1.27569-1.05415-2.2688-1.56987-3.221-1.07441-1.98611-1.36175-2.011-3.62372-.30772.59042,1.77567,1.20563,3.617,1.93179,5.79988C91.28632,225.08947,92.15492,224.4833,93.27242,223.70514Z"/><path class="b" d="M93.99626,216.36725c2.26649-.76229,4.08744-1.37078,5.90608-1.98831,1.26446-.42758,2.03579-.19005,2.45654,1.26667.50889,1.7554,1.30963,3.427,2.07876,5.3768-.98848,3.07407-4.2593,3.37716-6.691,5.17773C96.46185,222.82982,95.28782,219.75343,93.99626,216.36725ZM98.30306,222.4a4.40088,4.40088,0,0,0,3.93816-2.41809c-.40709-.95235-.77353-1.99063-1.28485-2.9542-.56541-1.06318-1.7349-1.1446-3.38386-.43211a1.55481,1.55481,0,0,0-.99984,2.21C97.04994,219.98645,97.672,221.10615,98.30306,222.4Z"/><path class="b" d="M74.87551,248.29316q-1.58453-2.70433-3.17587-5.41746a1.75616,1.75616,0,0,1,.36424-2.48376,5.26562,5.26562,0,0,1,3.02878-.68539c.423.03625,1.113,1.28033,1.03144,1.891-.13342,1.01338.38462,1.42961.88,2.09914C78.62141,245.88641,77.73695,247.7186,74.87551,248.29316Z"/><path class="b" d="M137.28417,219.91407c2.5222.99751,3.289,2.67138,2.072,4.49685-.889,1.33453-2.73705,1.45451-3.38851.08825a56.76167,56.76167,0,0,1-2.52441-6.30194c-.328-.97724-.71029-2.25074.70347-2.86606.90253-.39122,2.12183.4819,2.61717,1.92275A18.72569,18.72569,0,0,1,137.28417,219.91407Zm-.1266,3.62592c.30761.0249.61521.0498.92061.0769,0-.50437.02039-1.01106-.02941-1.51091a1.89118,1.89118,0,0,0-.65146-.07239C137.28649,222.52893,137.22764,223.03562,137.15757,223.54Z"/><path class="b" d="M67.81811,241.38945c1.72356,2.106,3.47664,4.18924,5.12792,6.35173.21716.28282-.0814.95907-.14245,1.45452a4.27733,4.27733,0,0,1-1.42961-.4072,4.6718,4.6718,0,0,1-.89351-1.23273c-1.57659.20128-2.3457.81429-2.15113,2.38635a1.96837,1.96837,0,0,1-.80527,1.47027,22.66956,22.66956,0,0,1-.62436-9.74464C67.20511,241.575,67.51271,241.48222,67.81811,241.38945Z"/><path class="b" d="M87.83226,242.02284a6.79747,6.79747,0,0,1-1.64677,1.04731c-1.57426.45237-3.22335.708-3.4178,2.87278a11.7628,11.7628,0,0,1-3.39081-7.5642c2.17384.57236,1.53372,3.25509,3.14424,4.1486,1.66935-1.3211,1.89774-2.39551.63339-4.01286-.54061-.69443-.91169-1.34357-.1018-1.78019.34374-.18322,1.44988.34606,1.68962.8143a16.55932,16.55932,0,0,1,.91389,3.26643c.561.147,1.23053.32347,1.89785.49754C87.64684,241.55008,87.73949,241.7853,87.83226,242.02284Z"/><path class="b" d="M120.663,206.92558a15.28344,15.28344,0,0,0,8.9688-2.8048c.31443-.20592.82795-.11083,1.24859-.15392.04529.50669.32349,1.22833.09057,1.48162a5.34112,5.34112,0,0,1-2.17384,1.58793c-2.70762.81661-5.48081,1.407-8.20881,2.16029-1.30513.36192-2.54249.99068-3.85675,1.29388-.37767.08594-.91828-.5361-1.38653-.83247a5.78344,5.78344,0,0,1,1.10382-.95c.88448-.44334,1.82317-.77584,2.737-1.15814C119.77172,207.30568,120.35311,207.0568,120.663,206.92558Z"/><path class="b" d="M132.301,210.443c-4.20511-.03613-7.35827,2.35023-10.96625,3.38179-1.21686.34825-2.15114.59262-2.56957-1.18756a8.50024,8.50024,0,0,1,2.38415-1.16718,23.84321,23.84321,0,0,0,8.35579-3.16464C130.70624,207.63587,131.136,207.94579,132.301,210.443Z"/><path class="b" d="M100.219,229.14078c2.34119.70578,1.14911,4.02861,4.00834,3.66438-.31224,1.41375-1.6038,2.823.53612,3.556.23069.0791.0316,1.40911.0316,2.29359-2.28467-.22167-1.85488-2.38868-3.37043-3.31612-.32567.0227-1.0201.07239-1.85929.13122A10.97636,10.97636,0,0,1,100.219,229.14078Z"/><path class="b" d="M122.75534,218.97759c2.20777,1.1717,1.20342,3.41561,2.83433,4.653a13.51713,13.51713,0,0,1,1.79825.18773,1.943,1.943,0,0,1,1.72135,2.14663,3.49416,3.49416,0,0,1-1.1717,2.25745c-.87983.61984-1.83-.03845-2.27332-.898-1.08124-2.09914-2.06741-4.24808-3.0062-6.41277C122.47935,220.49766,122.6943,219.91175,122.75534,218.97759Z"/><path class="b" d="M105.61385,233.07663c-.81649-1.80729-1.52458-3.37032-2.228-4.92432,1.597-1.30292,1.597-1.30292,3.79108-.9637a2.978,2.978,0,0,1-.3867.92073c-1.36859,1.4295-1.29621,1.76652.59261,2.384,2.158.70578,2.78673,2.04494,1.77567,4.01286-.19907.38682-.82112.55417-1.24859.82333a4.00334,4.00334,0,0,1-.58139-1.30512,6.97256,6.97256,0,0,1,.49534-1.82547C106.96888,232.53832,106.43278,232.751,105.61385,233.07663Z"/><path class="b" d="M129.73363,220.07007c-.4094.2534-.54283.28954-.55416.34837-.11768.68087,1.0224,1.57207-.28735,2.01552a1.27373,1.27373,0,0,1-1.15583-.37778c-.47727-.85726-1.14008-1.87527-.18322-2.75743a25.85563,25.85563,0,0,1,3.0333-2.04251c.39585,1.28705.63571,2.219.96821,3.11472a16.84642,16.84642,0,0,0,1.28021,2.9542c.73068,1.18756.31444,1.80728-1.07209,2.57409C131.05692,223.8725,130.40547,222.00186,129.73363,220.07007Z"/><path class="b" d="M85.39842,236.9944c.66049-1.34588,1.77567-1.6331,2.47681-.83016a14.24631,14.24631,0,0,1,2.18739,3.997,1.76772,1.76772,0,0,1-.63108,1.59476c-.72835.42064-.90706-.30088-1.25091-.90254-.54964-.95686-1.53362-1.64677-1.28485-2.99045C86.9252,237.70018,86.06563,237.37219,85.39842,236.9944Z"/><path class="b" d="M59.81058,236.27739c.12219-1.45451-1.13105-2.93613.56772-4.54433a34.37368,34.37368,0,0,1,2.83666,2.81163,1.76066,1.76066,0,0,1,.11534,1.658,2.15853,2.15853,0,0,1-1.58794.55649A8.00884,8.00884,0,0,1,59.81058,236.27739Z"/><path class="b" d="M68.05333,228.94853c.78939.46372,1.4544.85274,1.92044,1.12641-.98628,1.40924-1.85489,2.6466-2.71446,3.87481C65.20545,232.2782,65.262,231.8212,68.05333,228.94853Z"/><path class="b" d="M70.70664,229.62477c.95455-.57907,1.821-1.10383,2.78686-1.68962.7441,1.5064-.09728,2.06973-.92745,2.61707C71.83086,231.03852,71.21785,230.982,70.70664,229.62477Z"/><path class="b" d="M142.69942,201.32942c-.74423.42747-1.3775.64926-1.87064-.16967a.71511.71511,0,0,1,.22618-.66732C141.858,200.13966,142.4122,200.38623,142.69942,201.32942Z"/><path class="b" d="M168.16056,193.67709c-.328.59262-.60618,1.09248-.99983,1.80508,1.21918.932,2.46789,1.882,4.01286,3.06052-.6379,1.088-1.38213,2.35926-2.32763,3.96978-1.4002-1.37079-2.53126-2.47913-3.71881-3.64179-.65818.60837-1.17391,1.08344-1.67608,1.54485-.29637-.25781-.55417-.38671-.54292-.484.30539-2.719-1.66937-4.25028-3.108-6.06672-.52475-.6628-1.56973-1.21466-.45005-2.486a24.77206,24.77206,0,0,0,4.10319,1.90237A25.975,25.975,0,0,0,168.16056,193.67709Z"/><path class="b" d="M189.70844,184.04317a4.25151,4.25151,0,0,1-3.92913,1.81863,7.23,7.23,0,0,0-2.61718.69906c-2.21449.71921-2.875.09265-2.47692-2.74388.52707.50449.91389.87764,1.35723,1.30523.77816-.52707,1.597-1.04963,2.37964-1.62187,2.52893-1.84133,3.01975-1.79385,5.29087.58359C189.71967,184.09517,189.70844,184.04317,189.70844,184.04317Z"/><path class="b" d="M179.9184,207.04093c.23082-.79159.215-1.90457.74422-2.30946a18.42414,18.42414,0,0,1,4.1757-2.27332,2.72385,2.72385,0,0,1,2.06069.1765,1.36772,1.36772,0,0,1-.08374,2.58764c-2.01089.87765-4.11454,1.545-6.17755,2.29823C180.398,207.3622,180.15825,207.20157,179.9184,207.04093Z"/><path class="b" d="M201.12023,203.66158c-.47056.61752-.82345,1.56975-1.43414,1.78238-1.28484.448-1.61051,1.31878-1.54045,2.69188-1.6331-.35289-3.2912.28039-4.41311-1.58342a6.71485,6.71485,0,0,0,2.09682-1.11517c.40721-.46824.36876-1.321.57456-2.19874.92513.33933,1.85257,1.24639,2.79136.00231.16052-.215,1.30745.31212,2.00186.49766Z"/><path class="b" d="M190.36441,210.62852c-2.22584,1.08576-4.59865,1.04279-7.06886,1.002a5.72312,5.72312,0,0,1,6.12555-4.585c-.82333.96126-1.47027,1.71684-2.38183,2.78442,1.31645.05663,2.30945.1018,3.30476.14477C190.35074,210.19421,190.35758,210.41137,190.36441,210.62852Z"/><path class="b" d="M194.66219,202.32021c-1.23738.39586-2.27334.726-3.67574,1.1739-.276-.90474-.52707-1.73039-.91841-3.01072,1.11518.41172,1.66032.613,2.56739.95-.33032-2.19411.64241-3.34322,2.4995-3.71869a1.7646,1.7646,0,0,1,2.33667,1.55852c-1.01789.1787-1.94985.34153-3.10127.54294C194.46089,200.58971,194.549,201.34077,194.66219,202.32021Z"/><path class="b" d="M171.83176,194.143c-1.12641-1.64665-.38682-2.56958.48411-2.85692a12.58266,12.58266,0,0,0,3.15548-1.99733c1.3482-.92513,2.24611-.51341,3.04465,1.41375-.83016.043-1.58793.07921-2.46338.12438-.14025.57236-.2827,1.15815-.46592,1.90237C174.182,192.61843,172.60309,191.80182,171.83176,194.143Z"/><path class="b" d="M182.23921,187.83887c1.52006-.31675,2.99265-.62435,4.70046-.97944.27377,1.226.50216,2.24391.72616,3.24142C184.64155,191.39925,183.41775,190.91966,182.23921,187.83887Z"/><path class="b" d="M186.17517,194.45976c1.16486-.328,1.90688-.53842,2.82518-.79854a3.7862,3.7862,0,0,0,.08825-.91389c-.13122-1.03816.36875-1.76432,1.32329-1.60149a3.44572,3.44572,0,0,1,2.167,1.33465c.52476.85726-.26012,1.57207-1.10393,1.84574a33.87623,33.87623,0,0,1-3.97431,1.01569C187.23152,195.39392,186.86727,194.937,186.17517,194.45976Z"/><path class="b" d="M179.405,192.78589c1.06538.9161,1.52227,2.25063,1.425,4.21635-1.84574-1.18988-2.83422-.29637-3.57613,1.33a1.499,1.499,0,0,1-.24437-2.41577C177.75591,194.98,178.46852,194.01411,179.405,192.78589Z"/><path class="b" d="M184.79083,199.11041c-2.49731.88216-4.38381,2.27553-6.725,2.25294q-.14246-.31548-.285-.63107c1.7847-.97041,3.56952-1.94082,5.67538-3.08762C183.63037,197.83691,184.06248,198.31187,184.79083,199.11041Z"/><path class="b" d="M64.02472,213.33163c1.52459-.36875,2.4723-.674,3.445-.81661,1.787-.26463,2.37061.46372,1.82548,2.20546a11.33111,11.33111,0,0,1-.6334,1.34136c.57676.38,1.12873.74423,1.95889,1.29157-1.39568.89131-2.57641,1.64457-4.049,2.58556C65.10817,218.0637,65.18507,215.60264,64.02472,213.33163Z"/><path class="b" d="M99.74622,207.188a3.03647,3.03647,0,0,1-.4343.42747c-3.6712,2.27784-3.65986,2.27332-5.103-1.82987-.267-.76229-.67636-1.4749-1.00666-2.18519,2.0652-1.67155,2.0652-1.67155,4.18252-1.61052.58811,1.61735-3.24373,1.00434-1.54728,3.26632.93879-.29174,1.89334-.58811,3.013-.93868C99.16043,205.31055,99.45669,206.25606,99.74622,207.188Z"/><path class="b" d="M91.05562,212.39515c-.41173-.0498-1.1197.01587-1.18757-.16735-.82564-2.14674-1.57658-4.32278-2.28455-6.51005-.08143-.24889.21483-.61752.46591-1.2713.65378.708,1.09712,1.18988,1.53814,1.66484.54294-.67636,1.113-1.38433,1.683-2.09231.18322.08814.36645.17639.55186.26464-.20812.92061-.41392,1.84122-.62876,2.79356.85043.70346,1.72356,1.4251,2.68042,2.219-1.41375,1.28936-2.21-.31444-3.21432-.18542q.15618,1.67953.31675,3.36129Z"/><path class="b" d="M73.39622,212.26394c-.99984.224-1.83232.4094-2.667.59714l-.30529-.44786c.35289-.41392.63779-1.08344,1.06758-1.19208,1.77347-.44554,2.97226-2.556,5.53513-1.85025-2.05386,1.9905-2.78222,3.93132-.38,5.84041C74.65615,216.71782,74.47513,216.55267,73.39622,212.26394Z"/><path class="b" d="M86.80533,211.62151a2.13755,2.13755,0,0,1-2.33215,1.81864A2.30652,2.30652,0,0,1,82.3899,211.893c-.941-2.314-.2556-4.56471,1.78471-5.27269.37095-.129.8935.1787,1.55851.33471a14.93231,14.93231,0,0,0-2.05617,2.37744c-.25109.46372.03393,1.21918.07922,1.87515C84.80568,211.35,85.72409,211.47454,86.80533,211.62151Z"/><path class="b" d="M81.35394,214.05316c-1.05414.65377-1.76663.5-2.00649-.34826a40.21346,40.21346,0,0,1-.91157-4.52175c-.03394-.2036.38682-.47959.83919-.99982C80.02161,210.2937,80.66623,212.11013,81.35394,214.05316Z"/><path class="b" d="M62.47524,220.80526c-1.61052-1.90457-1.90005-4.15751-2.17152-6.96022C61.93682,215.381,63.1018,219.09063,62.47524,220.80526Z"/><path class="c" d="M217.37272,206.38947a23.12469,23.12469,0,0,0,.55417,3.884q2.8671,9.11693,5.91743,18.17513c1.9634,5.87,3.99236,11.716,6.01691,17.56444a18.42652,18.42652,0,0,0,1.02241,2.26209c1.45672,2.86595.12891,5.28856-3.12386,5.72738-4.0263.54062-8.05269,1.07673-12.06545,1.69193-4.74805.72616-9.47328,1.606-14.22572,2.29591-8.20662,1.18756-16.44256,2.18287-24.63783,3.44282-7.57995,1.16486-15.11924,2.59448-22.68564,3.86346-7.47132,1.25091-14.96533,2.37744-22.42773,3.68707-6.91945,1.21467-13.80278,2.63976-20.7154,3.89068-4.54445.82112-9.13175,1.39336-13.66485,2.25746-3.98112.76229-7.91465,1.78018-11.871,2.67821-.346.0769-.708.09728-1.35942.181-.11536-.30089-.27148-.63791-.37317-.9886-1.69425-5.86079-3.14875-11.80532-5.13023-17.569-2.56738-7.4668-3.51289-15.2866-5.5012-22.87107-.604-2.305-1.32781-4.57826-2.0901-7.18872,12.2306-2.30263,24.56531-2.83989,36.66932-5.103,12.26-2.2914,24.67847-3.72437,36.9928-5.74777,12.22157-2.00637,24.43873-4.08512,36.58791-6.48967,12.061-2.38647,24.22378-4.05466,36.25992-6.544Q217.4473,205.93885,217.37272,206.38947Z"/><path class="b" d="M217.37272,206.38947a23.12469,23.12469,0,0,0,.55417,3.884q2.8671,9.11693,5.91743,18.17513c1.9634,5.87,3.99236,11.716,6.01691,17.56444a18.42652,18.42652,0,0,0,1.02241,2.26209c1.45672,2.86595.12891,5.28856-3.12386,5.72738-4.0263.54062-8.05269,1.07673-12.06545,1.69193-4.74805.72616-9.47328,1.606-14.22572,2.29591-8.20662,1.18756-16.44256,2.18287-24.63783,3.44282-7.57995,1.16486-15.11924,2.59448-22.68564,3.86346-7.47132,1.25091-14.96533,2.37744-22.42773,3.68707-6.91945,1.21467-13.80278,2.63976-20.7154,3.89068-4.54445.82112-9.13175,1.39336-13.66485,2.25746-3.98112.76229-7.91465,1.78018-11.871,2.67821-.346.0769-.708.09728-1.35942.181-.11536-.30089-.27148-.63791-.37317-.9886-1.69425-5.86079-3.14875-11.80532-5.13023-17.569-2.56738-7.4668-3.51289-15.2866-5.5012-22.87107-.604-2.305-1.32781-4.57826-2.0901-7.18872,12.2306-2.30263,24.56531-2.83989,36.66932-5.103,12.26-2.2914,24.67847-3.72437,36.9928-5.74777,12.22157-2.00637,24.43873-4.08512,36.58791-6.48967,12.061-2.38647,24.22378-4.05466,36.25992-6.544Q217.4473,205.93885,217.37272,206.38947ZM118.50506,233.373c1.7349-.02606,3.48116.0791,5.19579-.11084,2.99716-.3303,5.97174-.84371,9.36013-1.34032q-.6412-3.907-1.13323-6.90475c-1.097-.70114-2.48818.73971-2.73023-1.157q1.54039-.77862,3.06725-1.55284a107.0088,107.0088,0,0,0-11.25117,1.382c-6.0124.91841-12.03835,1.76212-18.05306,2.69408-4.18924.64694-8.35579,1.45219-12.55187,2.063-1.78018.26012-3.60565.2058-5.379.29174-.62435,2.831,2.8004,4.549,1.66032,7.252-1.59928.11083-1.53361-2.88517-3.43378-1.50188-.7147,1.03144-.09046,2.61034-1.51554,3.47895-1.20784-1.59928.03172-2.94748.19-4.29336a34.5225,34.5225,0,0,1,1.122-4.45157c-2.04494.21264-3.83416.39586-5.922.613.78719,3.37484,1.49065,6.38567,2.20546,9.44051a10.98316,10.98316,0,0,0,1.597.01691c3.18941-.47727,6.372-1.0157,9.56593-1.47259,7.30628-1.04846,14.62159-2.02223,21.92115-3.11251,2.08108-.31212,4.11907-.91841,6.17755-1.39117Zm109.69355,13.28242.06334.09509c-1.25543-3.94048-2.45423-7.8967-3.77983-11.81228-1.11056-3.2867-2.3683-6.52129-3.56258-9.77857v.05432q-.91274-3.13864-1.82547-6.28619c-11.58829,2.18287-23.0046,3.63507-34.577,5.84956,3.62152,11.06122,6.08931,22.02736,9.68592,32.72214,2.56518-.32115,4.76612-.54966,6.95339-.88,7.12306-1.07661,14.25064-2.13759,21.35563-3.32515,2.51306-.42064,5.1754-.45457,7.61388-2.17824C229.4948,249.65711,228.84554,248.15511,228.19861,246.65542Zm-44.85777-21.69936c-3.40657.54965-6.41277.98963-9.40091,1.5269-5.54416.99519-11.06573,2.13527-16.62112,3.05136-6.26349,1.03145-12.55871,1.86508-18.83574,2.81847-2.64879.40268-5.27269.96357-7.92612,1.31993-4.57375.61521-9.1746,1.05519-13.74614,1.69982q-13.17837,1.85778-26.33426,3.8726C85.654,239.98138,80.854,240.85,75.97713,241.67c1.787,11.93435,5.7817,22.82821,9.1928,34.24452,18.01008-3.2098,35.78484-6.46477,53.59133-9.52529,17.81332-3.06051,35.656-5.92646,53.76564-8.92362C189.446,246.55594,186.43749,235.90864,183.34084,224.95606Zm-42.15466,5.62442a12.93719,12.93719,0,0,0-.40488-6.1764c-1.061-3.85106-1.08124-3.84539-4.89051-2.91343-.49314.76229-.76229,1.67167-1.34819,1.97927a1.799,1.799,0,0,0-.97945,2.28456c.42307,1.933.92073,3.85,1.39568,5.79756C137.15306,231.20819,139.05311,230.913,141.18618,230.58048Zm25.07432-13.65q-.0476-.27656-.09508-.553-3.23349.55139-6.46709,1.10267c.04308.2307.08605.46256.1267.69442Q163.04168,217.55365,166.2605,216.93045Zm22.31689.64243c1.5789.72152,3.11472.84035,4.4584-.52256Q190.81006,217.31161,188.57739,217.57288Zm13.58783-7.93967c.03173.181.06567.36424.09728.54514q1.42853-.29341,2.85923-.58811c-.0249-.12323-.0498-.24541-.0747-.36864Q203.605,209.42851,202.16522,209.63321Z"/><path class="b" d="M183.834,249.71826c-2.81846.46592-5.10313.70114-7.30627,1.25531-1.68742.42527-2.2416-.44554-2.51538-1.70329-.389-1.7847-.61069-3.60553-.95455-5.72506,3.13962-1.01338,6.23639-1.7305,9.92346-.62887C183.24135,244.98387,183.51954,247.20508,183.834,249.71826Zm-5.2772-1.80961-.1018-.42075q-.63792.173-1.27582.34837c.0271.11755.05432.2329.08374.35057C177.69487,248.09407,178.12466,248.0013,178.55677,247.90865Z"/><path class="b" d="M112.271,247.524c-.37327.509-1.13556,1.08808-1.05635,1.51335.38451,2.05617-.97492,2.24391-2.37744,2.59-1.32317.328-2.61034.80978-4.14847,1.2984-2.391-3.47224-.276-7.78135-2.30946-11.45707,2.61706-.8663,4.92883-1.6331,7.05067-2.33668,1.44988.68088,1.44537,1.7847,1.6331,2.901.31444,1.88986.837,3.74255,1.27351,5.61087Zm-2.97007-6.45793c-1.91812-.15612-3.393.32115-3.63727,1.80045-.2805,1.726-.60165,3.79571,1.00886,5.14159a2.90885,2.90885,0,0,0,2.48816.16967,2.32962,2.32962,0,0,0,1.10164-1.882A47.00085,47.00085,0,0,0,109.30092,241.0661Z"/><path class="b" d="M112.33655,247.6439c-.06336-1.92495-.14477-3.85211-.18543-5.77706-.02038-.97725.03614-1.95669.05872-2.99833,1.46586-.36076,2.69188-.72048,3.94049-.958,1.74172-.33251,2.32079.02837,2.76193,1.744.527,2.046.97261,4.11234,1.4522,6.17071A1.841,1.841,0,0,1,119.213,248.076c-1.73942.7872-3.52192,1.4771-5.24779,2.19191-.64474-1.04279-1.16949-1.89565-1.69425-2.74608Zm6.18206-2.8026c-.35057-1.373-.58126-2.43384-.89571-3.46992-.65829-2.16017-.93428-2.24159-3.49031-1.02009.22619,1.85708.46141,3.78424.73971,6.06891C116.29728,245.80268,117.27,245.38193,118.51861,244.8413Z"/><path class="b" d="M120.69013,237.7941c2.37061-.29521,4.2775-.52939,6.18438-.77248,1.32318-.16851,2.03127.21935,2.15334,1.72818.15162,1.82316.60178,3.61921.96821,5.68442-1.5789,2.81614-4.84522,2.46105-7.58678,3.74359C121.82118,244.61743,121.28275,241.36918,120.69013,237.7941Zm3.01975,6.769a4.39845,4.39845,0,0,0,4.34085-1.58574c-.21044-1.01337-.36193-2.10585-.67184-3.151-.34154-1.15467-1.47259-1.468-3.23019-1.097a1.55689,1.55689,0,0,0-1.42047,1.96792C122.96345,241.94826,123.348,243.16975,123.70988,244.56312Z"/><path class="b" d="M95.59774,265.27621c-.67635-1.97464-1.35943-3.95623-2.03357-5.9377a1.75975,1.75975,0,0,1,.85053-2.36378,5.26747,5.26747,0,0,1,3.10569-.06786c.4072.11755.83478,1.47478.63338,2.05837-.3325.96589.0951,1.4771.44566,2.23036C99.74854,263.66349,98.518,265.283,95.59774,265.27621Z"/><path class="b" d="M162.406,249.88329c2.27333,1.47942,2.69188,3.27095,1.13556,4.82032-1.13556,1.131-2.97226.88-3.33649-.59031a56.08388,56.08388,0,0,1-1.22139-6.6774c-.12669-1.02253-.24657-2.34571,1.26-2.667.96126-.2036,1.98367.89351,2.18055,2.40223A18.7162,18.7162,0,0,1,162.406,249.88329Zm-.84371,3.52876c.294.08593.59042.17186.88668.25791.0996-.49545.21948-.98627.26928-1.48613a1.90284,1.90284,0,0,0-.62437-.2014C161.888,252.44615,161.72972,252.93026,161.56225,253.41205Z"/><path class="b" d="M90.05579,257.10815c1.269,2.40674,2.57421,4.79774,3.76177,7.24525.15832.31895-.27147.92281-.42979,1.39788a4.25654,4.25654,0,0,1-1.31877-.68539,4.654,4.654,0,0,1-.63108-1.38433c-1.58561-.11767-2.46106.3303-2.58325,1.90908a1.966,1.966,0,0,1-1.08123,1.28033,22.64694,22.64694,0,0,1,1.3256-9.67237C89.418,257.167,89.73683,257.13757,90.05579,257.10815Z"/><path class="b" d="M109.54529,261.71132a6.95044,6.95044,0,0,1-1.82327.69894c-1.6331.13122-3.30024.05212-3.92,2.13539a11.74746,11.74746,0,0,1-1.81864-8.089c2.01541.99532.85495,3.497,2.25514,4.69142,1.89786-.96358,2.33668-1.97024,1.42059-3.80694-.39366-.78719-.62656-1.49748.25328-1.76443.37327-.11084,1.35272.62667,1.493,1.13336a16.63684,16.63684,0,0,1,.24657,3.38387c.52024.2556,1.14008.561,1.7598.86641C109.45473,261.20915,109.5,261.46023,109.54529,261.71132Z"/><path class="b" d="M148.70058,233.848a15.311,15.311,0,0,0,9.34878-.96358c.34837-.14025.83248.05432,1.25323.095-.05663.50669.07459,1.27014-.2059,1.47259a5.3713,5.3713,0,0,1-2.44521,1.12305c-2.81625.26012-5.65279.28618-8.47577.48295-1.3504.09508-2.68723.46488-4.03763.5-.38451.01123-.79172-.70809-1.19209-1.09144a5.81934,5.81934,0,0,1,1.27129-.71145c.95455-.2578,1.94071-.39805,2.91345-.58926C147.75275,234.04252,148.37259,233.91362,148.70058,233.848Z"/><path class="b" d="M159.4066,239.60926c-4.11455-.87081-7.67955.8392-11.42083,1.13337-1.25994.09948-2.22364.15148-2.28016-1.67619a8.49372,8.49372,0,0,1,2.56738-.66848,23.85879,23.85879,0,0,0,8.81951-1.43853C158.40225,236.542,158.762,236.93105,159.4066,239.60926Z"/><path class="b" d="M124.246,251.55044c2.15566,1.15815.32579,4.1757,3.19846,4.39053-.58579,1.3233-2.13308,2.44751-.18091,3.58979.21032.12439-.25108,1.38665-.42758,2.25526-2.19178-.67416-1.33905-2.71215-2.642-3.92229-.32345-.04309-1.01337-.13122-1.84805-.24206A10.99762,10.99762,0,0,1,124.246,251.55044Z"/><path class="b" d="M148.35441,246.07415c1.92947,1.58793.5,3.58747,1.85257,5.1234a13.63867,13.63867,0,0,1,1.72367.54283,1.943,1.943,0,0,1,1.25995,2.44531,3.5092,3.5092,0,0,1-1.597,1.98147c-.98628.4321-1.787-.40489-2.04933-1.33233-.64243-2.27333-1.18086-4.576-1.67168-6.88553C147.77985,247.50828,148.10784,246.97889,148.35441,246.07415Z"/><path class="b" d="M128.75187,256.4816c-.44333-1.934-.82552-3.60566-1.20563-5.27049,1.82316-.95907,1.82316-.95907,3.90654-.18774-.19907.30089-.31675.656-.561.82564-1.62638,1.12653-1.62186,1.47027.10632,2.45423,1.97244,1.11969,2.32313,2.55834.941,4.28433-.27147.33922-.91389.38-1.38664.55869a3.97665,3.97665,0,0,1-.3098-1.39568,6.86472,6.86472,0,0,1,.84822-1.68974C130.186,256.22368,129.61828,256.32548,128.75187,256.4816Z"/><path class="b" d="M154.9753,248.53521c-.45237.165-.59031.17418-.61069.2307-.2534.64243.68759,1.74394-.68539,1.91592a1.27146,1.27146,0,0,1-1.05635-.59945c-.29857-.93416-.74422-2.06289.36864-2.73705a25.29649,25.29649,0,0,1,3.37947-1.39788c.13122,1.33685.181,2.29822.3303,3.24373a16.46984,16.46984,0,0,0,.66721,3.14865c.47959,1.30975-.05419,1.83451-1.56523,2.31178C155.51592,252.52305,155.24908,250.562,154.9753,248.53521Z"/><path class="b" d="M108.15865,256.29838c.91609-1.18757,2.0652-1.2486,2.59447-.32116a14.258,14.258,0,0,1,1.34588,4.35208,1.76278,1.76278,0,0,1-.93416,1.43865c-.79622.26684-.83015-.47507-1.04729-1.13336-.34839-1.04731-1.17623-1.91812-.665-3.1871C109.51588,257.29369,108.73772,256.80055,108.15865,256.29838Z"/><path class="b" d="M83.22458,250.50533c.41172-1.40008-.52476-3.10337,1.46124-4.34073a34.66755,34.66755,0,0,1,2.22133,3.31832A1.769,1.769,0,0,1,86.69,251.132a2.15694,2.15694,0,0,1-1.66714.22839A8.012,8.012,0,0,1,83.22458,250.50533Z"/><path class="b" d="M92.76121,244.96117c.68308.613,1.25763,1.12653,1.658,1.48845-1.2464,1.183-2.3434,2.22352-3.42916,3.255C89.30716,247.65757,89.45413,247.22326,92.76121,244.96117Z"/><path class="b" d="M95.22679,246.15325c1.05183-.37767,2.00638-.71932,3.06956-1.10151.42746,1.62407-.509,2.00857-1.42963,2.37952C96.04792,247.76157,95.45749,247.58518,95.22679,246.15325Z"/><path class="b" d="M171.411,232.74644c-.81429.27135-1.4793.36412-1.80057-.53842a.71788.71788,0,0,1,.3552-.60733C170.82291,231.41411,171.316,231.767,171.411,232.74644Z"/><path class="b" d="M197.88552,230.31468c-.43882.51352-.81207.949-1.339,1.56871,1.01106,1.15594,2.04481,2.33667,3.32282,3.79906-.84151.9388-1.82315,2.03579-3.06955,3.4258-1.09931-1.62187-1.9883-2.93266-2.92026-4.308-.76449.46488-1.36627.82784-1.94986,1.17957-.23973-.311-.46592-.48967-.4343-.58243.837-2.60247-.7917-4.49685-1.84122-6.56426-.3823-.75221-1.2962-1.50084.05432-2.52441a24.75666,24.75666,0,0,0,3.64179,2.68041A26.11837,26.11837,0,0,0,197.88552,230.31468Z"/><path class="b" d="M220.91954,225.15966a4.25294,4.25294,0,0,1-4.21183,1.002,7.2159,7.2159,0,0,0-2.70543.16283c-2.31177.26475-2.83652-.48063-1.87967-3.18258.41392.6005.71932,1.04279,1.06991,1.54948.86629-.36192,1.77345-.71029,2.65563-1.11518,2.84325-1.30071,3.3161-1.15814,5.06907,1.62407C220.91954,225.214,220.91954,225.15966,220.91954,225.15966Z"/><path class="b" d="M206.75032,245.75068c.3823-.73067.58811-1.82547,1.18756-2.115a18.41206,18.41206,0,0,1,4.54433-1.39788,2.71857,2.71857,0,0,1,1.98379.58359,1.36773,1.36773,0,0,1-.59494,2.51989c-2.14662.45909-4.34073.69443-6.51225,1.02242C207.15521,246.16008,206.95392,245.95428,206.75032,245.75068Z"/><path class="b" d="M228.19861,246.65542c-.58128.51352-1.11739,1.3753-1.7575,1.46124-1.35051.18321-1.84133.97272-2.04714,2.33447-1.52909-.67184-3.28-.3801-4.00834-2.43164a6.79061,6.79061,0,0,0,2.27564-.67416c.49083-.37767.62424-1.2215.99983-2.04251.84139.51793,1.56755,1.59245,2.73473.55869.20129-.1787,1.21918.56553,1.86392.88668Z"/><path class="b" d="M216.27109,251.34464c-2.39551.61972-4.7118.1062-7.12526-.42527a5.72589,5.72589,0,0,1,6.91494-3.27547c-.99763.78047-1.7825,1.39117-2.88865,2.25526,1.278.319,2.24391.561,3.2098.80074C216.34579,250.91485,216.30734,251.12969,216.27109,251.34464Z"/><path class="b" d="M222.13872,244.05863c-1.29157.14025-2.37513.25792-3.83856.41624-.08824-.93868-.172-1.80057-.29869-3.1329,1.01118.62655,1.50432.932,2.32544,1.442.113-2.21553,1.29377-3.14749,3.18942-3.14529,1.11738.00116,1.92716.44334,1.97917,1.99062-1.03146-.02721-1.97695-.05316-3.14415-.08489C222.2858,242.32141,222.22014,243.07467,222.13872,244.05863Z"/><path class="b" d="M201.38938,231.5012c-.77584-1.839.13342-2.59564,1.045-2.70427a12.62935,12.62935,0,0,0,3.48811-1.32781c1.5064-.64011,2.30494-.05652,2.703,1.99062-.82332-.1245-1.57206-.2387-2.43836-.36876-.25108.53159-.509,1.07789-.837,1.77116C203.99741,230.47532,202.61087,229.36014,201.38938,231.5012Z"/><path class="b" d="M212.84413,227.39453c1.5518-.009,3.0582-.017,4.80006-.0249.0271,1.25543.04748,2.29823.06775,3.32064C214.48859,231.361,213.38709,230.6473,212.84413,227.39453Z"/><path class="b" d="M215.38441,234.66456c1.20563-.09045,1.97476-.14813,2.927-.21935a3.95609,3.95609,0,0,0,.26916-.8788c.077-1.044.7126-1.6558,1.61515-1.30639a3.44858,3.44858,0,0,1,1.85928,1.73953c.34386.94436-.56992,1.48949-1.44988,1.5891a33.9592,33.9592,0,0,1-4.09648.20464C216.235,235.79109,215.96568,235.27073,215.38441,234.66456Z"/><path class="b" d="M209.08248,231.67643c.86177,1.11182,1.04279,2.51086.55637,4.41775-1.56975-1.53362-2.71885-.85506-3.76849.59146a1.49957,1.49957,0,0,1,.24205-2.41693C207.03082,233.49958,207.91981,232.69432,209.08248,231.67643Z"/><path class="b" d="M213.10205,238.94762c-2.62169.36759-4.75025,1.35607-7.03932.86976-.0498-.22387-.1018-.45005-.1516-.67635,1.94082-.59483,3.88164-1.19208,6.17523-1.89554C212.21989,237.46716,212.54788,238.02133,213.10205,238.94762Z"/><path class="b" d="M91.922,228.85692c1.56524-.05767,2.556-.16967,3.53779-.11651,1.805.09729,2.23024.92745,1.3504,2.52661a11.56292,11.56292,0,0,1-.889,1.18757c.49084.48746.95906.95454,1.66252,1.65464-1.54485.5961-2.85008,1.10047-4.481,1.72934C92.03957,233.71,92.60741,231.31231,91.922,228.85692Z"/><path class="b" d="M128.15021,229.94373a2.87708,2.87708,0,0,1-.51121.3303c-4.05119,1.5042-4.03764,1.49968-4.63477-2.80711a23.52067,23.52067,0,0,0-.5543-2.3412c2.35926-1.22832,2.35926-1.22832,4.42-.74758.2556,1.70213-3.37935.33818-2.16689,2.89421.97944-.09949,1.97244-.20129,3.13962-.32116C127.94892,227.98484,128.05073,228.97227,128.15021,229.94373Z"/><path class="b" d="M118.59782,233.31636c-.39365-.13006-1.09941-.208-1.131-.40037-.38231-2.26649-.68539-4.54885-.9432-6.83456-.02941-.25908.33251-.56217.71018-1.15247.49766.82332.83919,1.38433,1.174,1.9385.66953-.55533,1.36847-1.13672,2.06752-1.71684.16285.12207.32347.24657.48631.3698-.3845.86073-.77133,1.72031-1.1695,2.61266.69223.85842,1.40472,1.73942,2.18508,2.70647-1.64214.98165-2.10366-.74654-3.11472-.82112q-.1798,1.67953-.3574,3.35677Z"/><path class="b" d="M101.31609,229.67457c-1.02241.02039-1.87515.03625-2.7302.05432q-.1053-.251-.21045-.5c.42759-.3347.84151-.93416,1.28265-.95454,1.82767-.08594,3.42012-1.91361,5.79293-.7125-2.40906,1.54265-3.50837,3.29806-1.53362,5.64817C101.66666,234.28909,101.52189,234.09232,101.31609,229.67457Z"/><path class="b" d="M114.585,231.71268a2.13759,2.13759,0,0,1-2.64647,1.31878,2.30233,2.30233,0,0,1-1.73271-1.93179c-.46372-2.45434.65818-4.5229,2.79808-4.81244.389-.05316.8392.354,1.46124.63906a14.81648,14.81648,0,0,0-2.48816,1.92044c-.33934.40489-.21044,1.20227-.29637,1.85257C112.68039,231.04987,113.55584,231.35412,114.585,231.71268Z"/><path class="b" d="M108.7603,233.01108c-1.16486.432-1.83218.13793-1.89553-.74087a40.21343,40.21343,0,0,1,.00451-4.611c.00684-.207.47507-.39366,1.02021-.81429C108.20393,229.06273,108.47308,230.97077,108.7603,233.01108Z"/><path class="b" d="M88.91582,235.87251c-1.20111-2.18739-1.03376-4.45168-.742-7.25428C89.46768,230.44822,89.87037,234.31619,88.91582,235.87251Z"/></svg>