<svg xmlns="http://www.w3.org/2000/svg" viewBox="0 0 300 300"><defs><style>.a{fill-rule:evenodd;}</style></defs><title>gl_nav11</title><path class="a" d="M128.33366,265.49658c-2.52908-6.74259-5.05877-13.48451-7.39671-19.72145,7.85955-18.30653,15.5307-36.17572,23.25331-54.16834-1.757-.70379-3.2736-1.31245-4.78854-1.91934.04657-.20037.092-.39963.13861-.59834a6.871,6.871,0,0,1,1.40183.0163,27.1035,27.1035,0,0,0,2.75266.7028,1.84189,1.84189,0,0,0,1.94373-2.59564c-.64325-1.80579-1.36224-3.58442-2.24745-5.89574,1.7835.82732,3.07267,1.425,4.54048,2.10674,1.47757-2.73869,2.85013-5.226,4.16957-7.741,2.61027-4.96983,5.17243-9.96307,7.78969-14.93069,1.64057-3.11547,1.679-3.16914,5.07717-2.64332,9.21038,1.42778,18.4068,2.94593,27.61826,4.37205,6.2915.97514,12.61338,1.76354,18.89567,2.80632,8.26185,1.36879,16.49875,2.89781,24.7444,4.37271,5.99155,1.0715,11.97822,2.18137,17.96977,3.24965,3.83993.685,7.69167,1.30492,11.53112,1.99253a3.0727,3.0727,0,0,1,2.5463,3.52853c-.98756,5.79617-2.1695,11.55818-3.12357,17.35856a31.05585,31.05585,0,0,1-2.59187,7.16762,165.04985,165.04985,0,0,0-8.61591,25.97557c-.53758,2.21885-1.22142,4.40465-1.71043,6.63481-1.71575,7.80976-3.31031,15.64591-5.07651,23.44536-1.32654,5.84706-2.84469,11.64966-4.273,17.47344-.15968.64691-.58152,1.40338-.3899,1.93131.80138,2.21286-.52838,3.5669-1.7358,5.02451a5.74713,5.74713,0,0,0-.73044,1.19713c-1.07258,2.24646-1.41691,2.58966-3.87505,2.248-8.29378-1.15-16.58645-2.32485-24.85429-3.653q-12.11979-1.94757-24.18284-4.23455c-5.32337-1.00763-10.61711-2.20587-15.88479-3.481q-14.84295-3.59539-29.633-7.40857c-3.21561-.83055-6.32454-2.07747-9.5234-2.99084a11.503,11.503,0,0,0-3.0434-.04059C128.7965,265.21714,128.56375,265.35686,128.33366,265.49658Zm35.278-45.46527c1.019-.03837,2.038-.13373,3.05371-.10235,1.16464.03582,2.34659.33144,3.69808-.45042-.93722-.87013-1.67739-1.55663-2.45437-2.27784-.62164.31292-1.12839.77809-1.61352.75636-.5154-.02484-1.0114-.51108-1.74181-.92369-.3178,1.11109-.59557,2.08678-.8749,3.06292q-1.302,1.61056-2.60706,3.21993a42.71013,42.71013,0,0,0-.65733,5.26934c-.01409,1.64922,1.14025,2.46513,3.462,2.76785-.18365-1.04611-.30219-2.05374-.55124-3.02987-.18142-.71046-.86093-1.44131-.7445-2.05318.293-1.53446-.5235-2.28161-1.54953-2.98552,1.01406.21656,1.79592.0866,2.00439-1.15866A20.52245,20.52245,0,0,1,163.61165,220.03131Zm13.889-54.426c2.1306,1.72884,4.534,1.68115,7.66572,1.12406-2.8458-1.41481-5.13074-2.20909-7.69333-1.06341-.43745-.40928-.81325-1.06118-1.32277-1.19114-3.52041-.9004-7.0187-2.18747-10.99388-1.02881.065.58426.13972,1.22419.23175,2.03588,1.26689-.4207,2.21608-.73751,3.27948-1.09212,1.033,1.85658,2.4088,1.68337,4.15283,1.23073C174.27475,165.24256,175.91964,165.60094,177.50067,165.60527Zm22.16595,72.28714c-.67464.471-1.34706.94265-1.67295,1.17-2.58977-.3952-4.46963-2.05639-7.029-1.34927a18.8885,18.8885,0,0,1-4.24386.27134c-.79972.03138-1.601.00588-2.70387.00588,1.86579,1.8171,1.83817,1.724,3.76239,1.15877a4.09826,4.09826,0,0,1,2.74456.01131c1.84849.95185,4.38192-.1446,5.78752,1.9974.06276.09692.36983.07574.55169.04436,2.28-.38977,4.60444-.62917,6.77283-1.77264-.65623-1.01572-1.20035-1.856-1.74281-2.69588.05356-.34541.10934-.69083.20026-1.27021-.92257.15-1.67893.27234-2.42675.39309Zm59.58981-46.21354a33.9314,33.9314,0,0,0-1.69845,3.39591c-2.0218,5.4176-4.03706,10.84119-5.92613,16.307-.98753,2.85944-1.57991,5.85627-2.59187,8.70639-.713,2.00761-.8587,3.70074,1.23772,5.3819.379-1.7824.64924-3.4273,1.08295-5.02839,1.9627-7.23625,3.98015-14.45588,5.96128-21.68625.65021-2.37309,1.25177-4.76026,1.86742-7.14866q.8373-1.96536,1.67738-3.92761A4.16837,4.16837,0,0,0,259.25643,191.67887Zm-132.1535,46.64178c.19272-.80027.33945-1.61462.58581-2.39915.66111-2.10075,1.36391-4.188,2.04986-6.28229a32.87929,32.87929,0,0,0-4.98825,11.33829c.99676-1.12029,1.72177-1.93564,2.44783-2.75221-.45375,1.326-.90639,2.65308-1.43321,4.19407.78131.25449,1.42833.46395,2.23137.72653a15.97856,15.97856,0,0,1,7.47078-10.45408c-1.50307-7.67758.36926-11.41025,7.61094-15.16788V210.8593c-.59668-1.2263-1.24958-2.56747-1.98-4.06611a23.77824,23.77824,0,0,0-1.24373,2.06117c-1.979,4.21625-4.04948,8.395-5.85081,12.68811-1.68761,4.023-3.03367,8.18767-4.62988,12.25012C128.76193,235.3552,127.87282,236.80782,127.10293,238.32065Zm55.2945-22.90944c-1.11918.261-1.00971-.54413-.97946-1.18738.15382-3.19831-1.74725-5.30394-3.88592-7.24224a4.4288,4.4288,0,0,0-4.82314-1.05154,14.21622,14.21622,0,0,0-1.26322,7.44217c.10235,3.02122.65357,5.91681,3.97853,7.28016.36058.14782.4911.85982.947,1.71964-1.22954-.5133-1.85439-.77266-2.9281-1.22042,1.64866,3.09319.59457,5.38189-.93888,7.53143a11.64918,11.64918,0,0,1-1.86144,1.75534c-.72932.64969-.61888,1.24637-.03251,1.88253,1.00985-.38977.81923-2.15819,2.299-1.76942.83972,2.62713.72817,3.638-.67954,5.33975.11854-1.18416.22311-2.21019.3259-3.23623a3.07218,3.07218,0,0,0-1.26256,1.87776c-.18629.70712-.02439,1.61019-.4105,2.13812-1.16842,1.5961-.36759,2.84314.53281,4.03694.9075,1.20035,2.04287,2.22916,2.96656,3.41809,1.63779,2.11007,3.32228,2.08678,5.18373-.28642-.97724-.34541-1.90636-.67464-2.836-1.00275.02761-.18518.05788-.36981.08605-.555a11.5711,11.5711,0,0,1,2.587.34763c.54468.1955,1.30813.86958,1.28706,1.29516a2.6966,2.6966,0,0,1-1.09378,1.77264,12.18936,12.18936,0,0,1-2.529,1.097c.73041,2.26974.73041,2.26974-.077,3.94658-2.052-1.91291-4.04936-3.77437-6.58712-6.13837.57717-.25116,1.39851-.61176,2.73214-1.19436-2.953-.85771-3.665-2.46623-3.99146-4.47772a29.11039,29.11039,0,0,0-1.19283-3.92329c-1.50895.46561-2.64066.81435-3.82959,1.17984.48835.68273.86084,1.20035,1.50518,2.10341-1.15378.26158-1.97789.44887-2.692.60965-.49334-1.287-.86525-2.2632-1.29627-3.3877,1.41969-.33033,2.8274-.65734,4.48859-1.04444-1.50307-2.7062-4.51132-1.30326-6.34517-3.7278a20.73017,20.73017,0,0,0,.04924,4.293c.57073,2.266,1.07482,4.52318,4.30077,4.77235,2.17214.16721,3.26105,2.46568,4.72187,3.93182,1.02872,1.03092.54467,2.32929.42824,3.539a3.506,3.506,0,0,0,1.68,3.37262c.21656-.8647.38178-1.522.54689-2.17937.11366.00377.23009.00765.34431.012.34164,1.62538.68608,3.25076,1.04932,4.96984,1.42833.28154,2.69644.5306,4.0181.78885a10.26234,10.26234,0,0,0,.726-1.48677c.9584-3.38294,3.09441-6.03812,5.16755-8.77891,1.98709-2.627,4.4907-2.39427,6.84052-1.5074,3.46686,1.30492,6.96622,2.53831,10.50562,3.62611,3.1501.96916,3.2318.84186,4.83933-2.07912-1.54033-2.75222-1.77054-2.85024-4.66291-2.38939a23.02159,23.02159,0,0,1-4.515.51861c-2.83282-.1223-5.65476-.484-8.47461-.80237a5.041,5.041,0,0,1-1.57562-.60156c-1.34006-.66921-2.66383-1.37145-4.09494-2.11373-.24794.78131-.43745,1.38176-.58315,1.83817h-4.68941c1.50795-.89829,2.77927-1.49875,2.43164-3.40777-1.09157.49921-2.02069.92258-2.95025,1.347-.09537-.16733-.19328-.33466-.28975-.50243,1.14136-.83875,2.28382-1.67849,3.40023-2.49772-.70224-1.19115-2.43915-1.45639-2.37741-3.25021a14.23339,14.23339,0,0,1,1.7191-.13051,2.67083,2.67083,0,0,0,2.81551-2.28272,2.75776,2.75776,0,0,0-.18141-2.08456c-.228-.31669-1.25181-.05955-1.85658-.05955-.56586-.934-1.16576-1.92533-1.81764-3.00226.20246-.42614.70278-.967.64268-1.43476-.26424-2.02779.70923-3.01047,2.35091-4.06733,1.0807-.69416,3.05862-1.62006,2.0299-3.75275.78995.05955,1.57991.11754,1.69036.12564,1.56749-2.37642,2.77705-4.21514,4.16369-6.32022-.73263-2.32818-.26048-5.566-3.14309-7.45027-1.83817.51663-2.28272,2.22639-3.18534,3.50857a4.26428,4.26428,0,0,0-.1375,5.28875A6.02752,6.02752,0,0,1,182.39743,215.41121Zm-4.91625-42.71628.08125.06387c-.43479-.80836-.87124-1.61673-1.36823-2.54042-2.07425.64215-4.04837,1.25291-6.27043,1.94152-.04879,1.53346-1.724,1.69579-2.94549,2.34282-.90958.85882,1.63359,2.69588-1.033,3.12734-.0817-.80615-.15378-1.536-.22687-2.26642l.0011.006q-.5344-1.5512-1.06773-3.1025c3.62.60478,3.23136.83165,5.134-2.43862.65944.10124,1.33629.20469,2.15541.33033v-2.16252c1.88586,1.61019,1.88586,1.61019,3.802.19871a10.283,10.283,0,0,1,1.95682,1.92045c.82456,1.39851,1.56362.92258,2.836.06276a22.80215,22.80215,0,0,0-1.60542-2.20421c-1.87554-2.0147-4.23942-1.90692-6.58435-1.2101a4.13372,4.13372,0,0,1-3.45279-.14394,3.383,3.383,0,0,0-3.21239.91283c-.80948,1.3812-2.63842,2.24423-2.39527,4.30817.065.54423-.7099,1.32876-1.27731,1.77763a2.96818,2.96818,0,0,0-1.14834,3.27238,6.08885,6.08885,0,0,1-.09425,1.48034c-1.51-2.04231-1.34007-3.66126.20735-5.38411.5999-.667,1.43433-1.53,1.40283-2.27241a3.46,3.46,0,0,1,1.82312-3.149c-.78788-1.31845-1.46029-2.44572-2.293-3.84156-3.47653,5.11288-5.08627,10.531-7.218,15.71588,1.63361-6.95216,3.98616-13.601,8.52065-19.87248a3.42154,3.42154,0,0,0-2.61293,2.22206c-3.27946,6.23306-6.59855,12.4455-9.88512,18.67534-.42448.804-.73851,1.665-1.19226,2.7001,3.148.67574,5.71223-1.03513,8.42751-.84673,2.75.19061,5.48646.57716,8.22936.87922.06553-.12065.13051-.23929.19549-.36049q-2.11318-1.30935-4.22268-2.61849c.83054-.93987,1.70988-.85327,2.64055-.00864.7028.63782,1.35637,1.57559,2.18469,1.78461,2.41756.61664,4.52108,2.47111,7.32253,1.7499a4.50914,4.50914,0,0,1,2.73635.61077c3.546,1.71852,7.408,1.77918,10.72376,2.378.95839-1.45428,1.738-2.63512,2.47333-3.74942a23.36709,23.36709,0,0,1,1.33308-3.60227,15.65074,15.65074,0,0,0,2.04553-6.88929c-3.67643-3.22259-7.39225-5.55621-12.62535-3.84578.27023.79207.33033,2.06826.96327,2.4944.52361.35351,1.745-.23386,2.6146-.53059.41472-.14183.71522-.59835,1.10344-.85771.105-.06975.34333.06176.56585.11055v1.49265c1.31456.5388,3.16416.37469,2.99084,2.47012a27.02891,27.02891,0,0,1-.5154,2.79867c-.26968,1.41259-.27123,1.41259-1.6704,1.84094.391-1.67528.78408-3.35421,1.19128-5.09824-2.28063-.634-4.049-1.82786-6.14049-.81646a.955.955,0,0,1-.82578-.03848C179.93009,171.4805,178.726,172.38678,177.48118,172.69493Zm20.93153-4.599c.44177-1.27454,1.35248-.96427,2.32873-.77211,4.28822.84086,8.59484,1.58424,12.88084,2.44195,4.37426.876,8.73345,1.83108,13.09474,2.77317,4.27191.92369,8.50546,2.071,12.81364,2.75975,5.05333.80837,10.1233,1.6357,15.3168.96428a21.38711,21.38711,0,0,1,5.95862.4013c2.3325.36759,2.64764,1.04222,1.97511,3.3347-.43689,1.4922-.88953,2.98008-1.33519,4.47062,1.83008-2.52145,3.546-5.076,2.33683-8.408-32.84745-7.20111-66.179-11.48444-99.64214-16.86157.099.96217.16888,1.62649.24306,2.364a16.92549,16.92549,0,0,1,2.81331.02051c5.51185,1.02981,11.07194,1.894,16.495,3.28336a26.04866,26.04866,0,0,0,8.15085.869,10.54822,10.54822,0,0,1,1.89284.21978c-.01619.23774-.03249.47482-.04979.71311q-2.33324.173-4.66889.34542-.077.37358-.15369.74937c2.29292,1.36712,4.58595,2.73425,6.85946,4.08784-.44454.99843-.87822,1.97357-1.31245,2.94593.21878.09537.43966.19062.65844.28642.75847-1.88474,1.48456-3.78357,2.30113-5.64281a7.13173,7.13173,0,0,1,1.11211-1.41646,62.7827,62.7827,0,0,1-4.11116,14.79319c-1.79381,4.19951-3.49715,8.43893-5.30394,12.63511a8.45347,8.45347,0,0,1-1.51116,2.25134c-1.43541,1.59122-1.47059,2.39637-.53057,4.31627a46.68556,46.68556,0,0,1,1.7379,4.74307c.18086.50465.36549,1.00819.57395,1.58424,3.86585-1.0899,6.04578-4.22645,9.09619-6.50218.81432.38178,1.7196.80726,2.25452,1.05853,2.57136.14182,2.54585-3.221,5.17243-3.006-.09747,1.00054-.18141,1.86035-.26535,2.73048a24.50182,24.50182,0,0,1,5.24229.08062,24.935,24.935,0,0,1,4.763,2.19389c-.68439-3.29944-2.80843-4.42893-5.65645-4.87237a23.85312,23.85312,0,0,1-4.15881-1.47058c.0601-3.306,2.11927-5.28819,3.8562-7.51513a6.86965,6.86965,0,0,1,1.76609.61886c2.43164,1.82675,4.81183,3.72513,7.2245,5.57738.51762.39687,1.0888.98978,1.65189,1.00974,1.7591.06066,2.70608,1.326,3.68233,2.38939.87822.95884,1.39373,2.18037,2.95569,2.32009.34222.03138.74016.79428.89829,1.28861,1.16786,3.65095,2.28272,7.32031,3.35311,10.78818q4.631-.76578,9.302-1.53933c1.10776,1.36446,2.1988,2.76408,3.34823,4.116,1.822,2.143,2.932,4.37537,1.38664,7.18491a6.47065,6.47065,0,0,0-.64913,2.18259c-.16034,1.15866-.90639,1.67306-1.76244,2.36987-2.16251,1.75756-4.52207,1.80624-7.023,1.38554-1.20522-.2047-2.39205-.5306-3.9102-.875a10.28231,10.28231,0,0,1-1.21343,1.48466,2.027,2.027,0,0,0-.56309,2.78736,11.31253,11.31253,0,0,1,1.666,6.52647c-.03726.49766.693,1.53334.98434,1.50307,2.07536-.21656,3.55947,1.21011,5.35595,1.71365,2.704.75691,2.81552.97248,2.23836,3.76084a4.3666,4.3666,0,0,0,.66321,4.16857c.398-1.28219.7456-2.12083.91673-2.99362q1.39281-7.147,2.71315-14.30917c.67464-3.6342,1.08658-7.33594,2.045-10.89275,1.18414-4.38668,2.77592-8.6668,4.26-12.9701,2.70287-7.825,5.45774-15.63083,8.18766-23.44658.30261-.86791.58205-1.74292.90309-2.70608-2.5594-.55821-4.83935-1.033-7.108-1.55663a37.298,37.298,0,0,1-4.33269-1.14025c-1.94972-.70713-3.81118-2.175-5.75491-2.25788-2.72338-.11532-5.43069-.33133-8.13078-.62263-2.87718-.30915-5.73817-.76989-8.59972-1.20745a1.57764,1.57764,0,0,1-.93555-.59657,2.75366,2.75366,0,0,0-2.82207-.9432,5.33935,5.33935,0,0,1-5.26546-2.12892,8.3069,8.3069,0,0,1-5.61687-.49c-1.54041-.73429-3.57355-.43645-5.65855-.62-.63738.58359-1.52148,1.391-2.85944,2.614-.39786-.90417-.70757-1.607-1.17274-2.67038-1.026,1.24959-1.582,1.92644-2.23126,2.71806.90962.75581,1.57991,1.31246,1.96923,1.6357-.60588,1.22141-1.097,2.29513-1.66818,3.32494a3.61051,3.61051,0,0,1-1.14787,1.496,2.38113,2.38113,0,0,0-1.31725,2.848,4.8877,4.8877,0,0,1-1.76565,4.83234,3.808,3.808,0,0,0-1.36713,3.83447,2.39579,2.39579,0,0,1-.23605,1.87332c-1.72676,1.626-1.56486,3.7982-1.94274,5.82111-.18185.97514-.07964,2.08723-1.36826,2.79a4.09388,4.09388,0,0,1-.18728-1.17063c.28852-1.57992.562-3.169.97347-4.71968.65845-2.48254,2.16141-4.7138,2.15445-7.41179-.00111-.38012.46669-.82844.817-1.13326a5.05181,5.05181,0,0,0,1.875-5.57684,2.43811,2.43811,0,0,1,.86359-2.12348c2.19877-1.29571,2.33475-3.06513,1.51006-5.128a2.30531,2.30531,0,0,1,.88421-2.99095c.75148-.56309,1.54254-1.07039,2.33139-1.61241.65246.42559,1.18306.77211,1.77053,1.15544.97514-.71366,1.88475-1.3791,2.92487-2.13867,1.25889.90528,2.58266,1.62748,4.19241.85649a1.18365,1.18365,0,0,1,1.06828.157c1.73316,1.6449,3.67745,1.14036,5.208.63627,1.36014.92746,2.33364,2.02225,3.49715,2.2886,2.11162.48247,4.55035-.39842,6.28562,1.61462,1.90371-.28864,3.567.51274,5.35373.928a43.22463,43.22463,0,0,0,9.26781.61942,8.81435,8.81435,0,0,1,3.462.67785c2.00118.81113,3.9254,2.3233,5.85893,2.528,2.80788.29562,5.4166,1.42667,8.21694,1.49708a11.0531,11.0531,0,0,0,1.78672-.25937c.33942-1.489.66543-2.91776,1.06229-4.6558-1.58479-.16134-2.79221-.38389-3.99858-.38611-2.065-.00211-4.15.35362-6.19026.16522-3.972-.3677-7.95158-.84252-11.8732-1.57016-5.42148-1.0104-10.773-2.37808-16.18638-3.44359C215.2287,171.19674,206.81416,169.67371,198.41271,168.0959ZM159.742,198.46359c.44233.48025.93067,1.04822,1.46126,1.575.38877.385,1.06075.64215,1.20313,1.08669.3952,1.24049,1.37469,1.46947,2.40125,1.72074a24.16425,24.16425,0,0,1,3.3174.83542c2.57347,1.03524,5.324-.52948,7.86931.62208.13484.06066.37469-.05788.54412-.13961a43.74739,43.74739,0,0,0,6.34783-3.11769c5.55144-3.882,3.81074-7.45825-.033-10.54833-3.20585-2.57668-6.60276-4.89189-11.03557-4.70127a6.52329,6.52329,0,0,1-1.397-.26968c-3.084-.55876-6.15666-1.45861-9.25916-1.582-4.04293-.16079-8.11126.29673-12.29713.49322-.39531.98168-.76778,1.91236-1.19824,2.98385,2.4944,1.86579,5.71222,2.20211,7.57856,4.63962,4.85784,2.1674,9.56721,4.75217,15.00488,5.2882a4.4415,4.4415,0,0,1,1.28917.588c-.52348.48624-.98213.66543-1.36225.55931-3.10516-.857-6.207-1.73427-9.28733-2.68169-1.26588-.391-2.44461-1.254-3.71692-1.38664a8.51182,8.51182,0,0,1-3.62387-1.38774c-3.567-2.14411-7.526-1.61563-9.17691,3.789,1.338,1.17063,3.011.888,4.59094.98545,1.68658.10612,3.37583.18518,4.81393.262.491.92368.80237,1.50628,1.31245,2.46357.45375-.99089.70491-1.53878.83753-1.82852C157.38025,198.61684,158.62983,198.53567,159.742,198.46359Zm56.86521,63.81417c-.24317-.06177-.48624-.12242-.7283-.18363a13.09306,13.09306,0,0,1,.46572-1.76288c1.7824-4.32769-.07473-8.49848-4.53948-9.9338-2.25722-.7272-4.58384-1.23661-6.86379-1.901-4.828-1.40882-9.74429-2.59775-14.43259-4.37915-2.81552-1.06873-5.06087-1.27564-7.16872.99521a16.027,16.027,0,0,0-4.50689,8.51578c4.03806-.7109,7.34083.65944,10.591,2.22849a34.04783,34.04783,0,0,0,5.12585,2.469c6.66619,1.91612,13.39037,3.63088,20.09115,5.42846,1.522.40718,3.0251.79706,4.435-1.23661.12552,2.13546,1.08392,2.74179,2.55231,2.90912,1.88693.21446,3.7505.62862,5.63527.87989a4.553,4.553,0,0,0,1.4099-.28642,2.6483,2.6483,0,0,0-1.64-1.18206,6.38317,6.38317,0,0,1-5.42137-5.514,10.66979,10.66979,0,0,0-3.15284-6.08469c1.14246-2.11051,2.24537-4.14639,3.49016-6.44264-.85172.51064-1.50529.94487-2.19556,1.3098-2.41378,1.27287-3.37695,3.28325-2.15764,5.55188C219.35879,256.93423,218.05232,259.56946,216.60724,262.27776Zm-70.5604-47.31054a4.00566,4.00566,0,0,0,5.16533-.04436c.21867,1.20312.37956,2.08345.641,3.52044,1.02381-1.35194,1.73482-2.29081,2.48255-3.27837,1.0368.26635,1.902.3606,2.57932-.89608.36282-.67253,1.73593-.76778,2.18968-1.43754a4.48343,4.48343,0,0,0,.48613-2.6666,2.29708,2.29708,0,0,0-2.2756-2.24424c-.44457.49921-.91073,1.02271-1.47981,1.66275-.38167-1.42623-.6957-2.606-1.11-4.14751,1.57295.56752,2.93894,1.1387,4.35109,1.55508,3.34822.98922,4.77922,3.5394,5.5643,6.64556.092.36493-.03138.84906.16677,1.11a5.75042,5.75042,0,0,0,1.22153.94642c.50243-2.999.89231-5.60932,1.40017-8.19576.15591-.79428,1.05686-1.67406.12131-2.287-.561-.36648-1.54155-.11311-2.33151-.092a6.35668,6.35668,0,0,0-1.04442.19228c-1.49489-2.43762-2.44352-2.67049-4.586-.81712-.29562-.99244-.5317-1.804-.77964-2.61239-.47216-1.535-1.37533-1.76509-2.65685-.68328-.27023.22787-.54257.45364-.9146.76334-1.29238-1.5777-2.42232-1.70333-4.17178-.51429-1.38709.94209-3.63465.5225-4.49768,2.58965-.03959.09425-.55388-.06553-.82134-.00377-2.65474.61675-3.45546,2.52578-1.94973,5.402.83975-.79805,1.62051-1.53933,2.40126-2.2816a28.994,28.994,0,0,1,3.299-3.06514c1.287-.88576,2.10353-.42392,3.169.7364.98212,1.06873.00222,1.881-.11754,2.83815.81114.862,2.226,1.34395,1.76731,2.93895a3.63948,3.63948,0,0,1-2.50848,2.5199,1.94656,1.94656,0,0,1-2.41157-1.02282c-.43855-.72819-.49655-1.53822.29884-2.01737,1.92-1.156,1.78728-3.11059,2.241-4.88977-2.78515-.47748-4.19286.66709-4.535,3.50535-1.78462.91937-1.62594,1.00652-2.55936,2.692-.72833,1.31457-.2789,2.45592-.2768,3.73212.01143,4.33479.379,4.90065,4.21248,6.94773a8.18852,8.18852,0,0,0,5.66666,1.14734,16.05065,16.05065,0,0,1,3.9558.26746c-1.62918,2.08346-1.60811,2.1939.64434,3.91032.12341-.5133.43966-1.04178.29773-1.37422-.79107-1.84738.18141-3.33637.91881-4.83933.70393-1.43376,1.5523-2.79923,2.38395-4.16535,1.60542-2.63844,1.25779-4.77435-.98966-6.66131-.66333,2.74079-1.30758,5.58438-2.05917,8.39935a4.44771,4.44771,0,0,1-1.125,1.93941c-.84143.82467-1.7955.99255-2.68392-.38489.81645-.17708,1.48887-.32323,2.01248-.43645.08827-1.4565.163-2.705.23719-3.92273-1.21931.29407-2.54749.61564-3.89357.93888-.65024.9004-1.34162,1.85447-2.27241,3.13876-.90738-1.29627-1.53168-2.18957-2.15919-3.0841C148.36692,216.584,146.624,217.09624,146.04684,214.96722Zm61.74468,14.60912c-1.182-2.02868-2.3406-4.07587-3.57411-6.07926a1.84526,1.84526,0,0,0-1.12616-.738c-2.95359-.542-5.77821-.693-8.18279,1.757a17.966,17.966,0,0,1-3.75319,2.38928c-.56419.33731-1.20744.54478-1.76132.89618-3.10628,1.9719-6.01107,4.30873-9.67665,5.25682-.09581.02439-.12342.31292-.19816.52249,2.43375,2.32708,5.28775,3.81606,8.707,3.22149,3.81814-.66432,7.59908-1.60209,11.3404-2.62813,1.58422-.43534,1.99949-2.16351,1.24969-3.70772-.29354-.60156-.5366-1.22475-.80306-1.83928,1.46138.63183,2.38939,1.78949,3.59251,2.28271A3.44346,3.44346,0,0,0,207.79152,229.57634Zm5.13827,5.78907c-3.02122-1.184-5.75015-1.34484-7.45459,1.34062-1.80457,2.83826-.255,5.37657,1.665,7.54552-.76457.89552-1.40073,1.64-2.15221,2.5199,1.026.49056,1.77974.85383,2.55938,1.22685.73962-.57062,1.412-1.08713,2.08457-1.60531a3.09034,3.09034,0,0,1,3.49495-.3341,2.28133,2.28133,0,0,1,1.21441,2.88805c-.386,1.31456.53982,1.333,1.38664,1.489.699-1.19392,1.58912-2.14744.93292-3.69486-.46886-1.10288.34439-2.00816,1.27728-2.60163,1.07959-.686,2.19933-1.012,3.83713.50309-2.06882-.02118-3.87617-.27511-4.16744,1.86678.817.74838,1.37309.3666,2.03852-.15912,1.4657-1.15433,2.90912-2.92054,4.53948-3.14253,2.464-.33621,4.00768-1.967,6.00286-2.751.60378-3.311-.27932-5.6029-3.00869-7.86122-1.85445.99954-3.45279.90417-4.80916-1.033-1.06551-1.52037-2.73259-1.633-4.39533-1.12251A6.87632,6.87632,0,0,0,212.92979,235.36541Zm5.46905-15.44832c.47972-2.07912.83764-3.63409,1.294-5.6234,2.61837,2.74888,2.63246,6.29693,4.48471,8.54938,3.083-.789,4.0332-3.41809,5.74793-5.50376a67.617,67.617,0,0,1-2.15431-9.35442c-.43532-2.083-.77055-4.05214-3.29035-4.61633a2.024,2.024,0,0,1-1.026-.888c-1.46783-2.25344-3.23515-3.68455-6.11887-2.54208-.28853.11421-.69138-.05356-1.07039-.09414-.11421,1.38331-1.02393,2.74456.69573,3.86363.43044.27943.295,1.55663.27886,2.371-.03848,1.9811-.22577,3.9601-.228,5.9401-.00208,2.071.098,4.14639.25615,6.21254C217.30084,218.655,217.79409,219.04319,218.39884,219.91709Zm16.65368,35.67929c-.613-3.25242-.49658-6.07006-3.26764-7.636-4.89089-2.76563-8.88614-.77854-11.19048,4.30884a1.85672,1.85672,0,0,0,.19649,1.60531c1.325,1.64057,1.35205,3.67745,1.90107,5.5541.65942,2.25244,1.9589,4.08086,4.39542,4.32991,2.45215.25016,4.83012-.35573,5.98778-2.90269C233.92522,258.98408,234.53266,257.003,235.05252,255.59638ZM195.59718,220.9805c.22579-1.52847.875-2.99794.542-4.19729-1.11208-4.02885-.68761-7.50649,2.55717-10.388a1.6363,1.6363,0,0,0,.0591-2.67315c-1.89938,1.45384-3.74465,2.83715-5.55466,4.26715-1.273,1.00485-2.79922,1.61129-3.22858,3.61568a2.986,2.986,0,0,1-3.49338,2.23016,12.88454,12.88454,0,0,1-6.87576,7.18491c-.17653,1.495-.308,2.59575-.457,3.84966,2.2161.64,4.26326,1.6541,3.55292,4.71159.35684-.05146.57828-.01841.69194-.11422.2139-.17653.33731-.5918.54689-.62584,3.19232-.53015,4.41163-3.83458,7.11716-5.03216C191.76493,221.82834,193.4401,221.27934,195.59718,220.9805Zm7.32785-2.24424a17.053,17.053,0,0,0,1.60209,1.08336c.56319.28587,1.17285.477,1.95682.78508a14.25106,14.25106,0,0,1,2.73591-9.57c2.30811,2.05485,4.40021,3.91631,6.49187,5.7761a20.3236,20.3236,0,0,0-1.10188-8.13078,4.83412,4.83412,0,0,0-3.38671-3.18256,10.098,10.098,0,0,0-11.694,4.31095,7.07936,7.07936,0,0,0-.49755,7.07824c.67674,1.4229,1.54365,2.69909,1.01627,4.38457H202.925Zm-40.82133,21.9689c-.74436.05633-1.124.09093-1.503.112a5.37091,5.37091,0,0,0-4.92116,2.86642c-1.04234,2.06827-.21166,3.91353,1.07039,5.53625a5.666,5.666,0,0,0,2.18469,1.62327,15.12563,15.12563,0,0,0,3.05482.67242c3.46256.63993,3.65528.5571,5.31315-2.57568a6.91074,6.91074,0,0,0,.77867-2.11971c.10931-.72387.22785-1.72285-.157-2.1939C166.32205,242.66675,164.81311,240.40521,162.1037,240.70516Zm-6.06352-.01353c-.7283-1.575-1.52846-3.351-3.68776-3.32716a12.8643,12.8643,0,0,0-4.97472.80948,5.58385,5.58385,0,0,0-3.23623,5.57628c.03249,2.46945,1.81,3.36064,3.72946,4.116a8.67926,8.67926,0,0,0,1.09589.30105c2.63412.64215,4.0976-.18141,5.06786-2.743C154.59777,243.93,155.27728,242.48046,156.04018,240.69163Zm-17.38994-7.923a37.08863,37.08863,0,0,0-4.03706,1.87343,12.93379,12.93379,0,0,0-5.19072,6.61473c-.66053,1.72884-.26746,2.39161,1.568,2.87452,1.97778.51873,4.00934.83166,6.12195,1.25669C137.63829,241.06843,138.11523,237.162,138.65024,232.76866Zm99.92857,15.76844c1.07261-2.194,1.04932-2.81985-.13041-3.363-2.68933-1.23661-5.74471-1.46126-8.34143-2.98873a1.10679,1.10679,0,0,0-1.04658.16522,9.14535,9.14535,0,0,1-4.51509,2.53709c1.77862,1.26811,3.39591.64115,4.81016-.33831.57927.62584,1.09368,1.18194,1.61019,1.739.70768-.80615,1.189-1.353,2.01259-2.288,0,1.43532-.286,2.42775.085,2.96167.3292.472,1.39149.43257,1.94426.57229a24.57063,24.57063,0,0,0,.54424,3.56313,12.30767,12.30767,0,0,1-.59779,8.89911c-.21657.48136-.34,1.005-.69793,2.096,3.79713-2.16362,3.632-6.20977,6.10144-8.676-1.17374-1.11-.85593-3.11337-2.92586-3.586-.44454-.1008-.66765-1.59134.235-2.4078C238.0277,247.86457,238.29239,248.1857,238.57881,248.5371Zm-3.39591-24.923c-.10335-.215-.20947-.431-.314-.64647-.73419-.09747-1.46726-.23719-2.20466-.28265-.81435-.04868-1.633-.01087-2.41489-.01087-.8912,3.55681-.268,5.13994,2.82418,6.15345a21.15941,21.15941,0,0,0,5.85405.933c2.06615.065,2.37153-.44455,2.639-2.77006.01408-.13152.1884-.24307.27179-.34542.47271.18629.882.34863,1.43376.56741.66976-2.103,1.5003-3.96553,1.21654-6.4474-1.54853.77964-2.84092,1.42877-4.20427,2.11538.71633.954,1.27242,1.69358,2.14034,2.85013-2.06128-.23985-2.66606-2.1939-4.25293-2.09543-.19064,1.202,1.0443,2.28981-.326,3.41221-.42129-.921-.78078-1.70777-1.12841-2.46845-1.26589.27455-1.84028,2.59675-3.51331,1.019C233.9322,224.86753,234.55816,224.24157,235.1829,223.61406Zm5.148,41.56305c.57229-1.98387,1.21443-3.94979,1.70555-5.95473,2.30334-9.41939,4.47983-18.87084,6.91036-28.25663.548-2.115.44454-3.776-.91548-5.4074C246.88512,227.46372,240.27626,259.453,240.33093,265.17711ZM142.4592,245.31817c.2047-3.12945,1.05964-5.92979,3.6575-7.66672,2.55718-1.70877,5.5541-1.646,8.70195-.78075-2.00217-3.17348-5.82156-5.18807-8.53418-4.42738a7.95674,7.95674,0,0,0-4.76792,3.72945,6.46781,6.46781,0,0,0-.3443,3.76727A50.35824,50.35824,0,0,0,142.4592,245.31817Zm22.28516-17.84037c.69248-.15812,1.30105-.29784,2.11275-.48513-.4744.89009-.77,1.444-1.13983,2.13491.52793.1803.92914.31891,1.31678.45153,1.15167-2.59464,1.15167-2.59464,2.48963-2.95735.35517.84784-.57728,2.09376,1.15644,2.76995a22.12893,22.12893,0,0,0,2.26863-2.98873c1.38065-2.58533.67253-4.501-2.10829-5.28177a17.53211,17.53211,0,0,0-5.043-.3606,1.90933,1.90933,0,0,0-1.38065,1.15877C163.97225,223.72938,163.60677,225.60492,164.74436,227.4778ZM145.42088,221.954c-2.68712-.56042-3.82249.86359-4.88268,2.34559a7.89432,7.89432,0,0,0-1.581,6.1377c.04546.25127.29132.47271.45374.69959.60755.84573,1.21721,1.68814,1.999,2.76995.82356-.91127,2.04509-1.71531,2.44739-2.81763a42.32982,42.32982,0,0,0,1.53922-6.5828A14.11436,14.11436,0,0,0,145.42088,221.954Zm14.48626,17.48309c-.48347-2.77916-1.2935-5.19782-1.21443-7.58721.086-2.63944-1.20745-4.09051-3.12247-5.83076-1.34006,3.39923-1.64279,6.42423.13961,9.47572.71422,1.21987,1.30325,2.51181,1.9546,3.76794.12187.235.27456.45474.44455.73418C158.77177,239.79123,159.38353,239.599,159.90714,239.43706Zm32.46523-55.22464c-1.91014.3606-2.796.83974-2.65253,2.35468.03471.37413-.37247.79106-.57716,1.18737-1.31944-.97137-2.67191,1.051-4.15336-.16832-1.03038-.84951-2.50684-.80515-4.08354-.14682a38.45994,38.45994,0,0,1,4.16746,3.42308,34.28718,34.28718,0,0,1,2.87131,4.10193C189.37986,191.47961,190.78547,188.0674,192.37237,184.21242ZM151.82881,199.7246c-.07906-.21756-.16079-.43523-.23985-.65135-2.87552-.25826-5.75114-.51651-8.87636-.798a65.87317,65.87317,0,0,0-5.16313,12.6432,10.64715,10.64715,0,0,0,1.35195-2.1593c1.06128-2.17061,1.86853-4.52318,4.70347-5.11875a3.77523,3.77523,0,0,0,1.40349-.93023c-.54146-1.15212-.96105-2.04553-1.3883-2.953,2.03145-.91449,3.13657.0082,4.02774,1.53445C149.1601,200.72524,150.49584,200.22492,151.82881,199.7246Zm10.57051,63.08486c1.81932,1.64966,4.05547,1.86146,6.22386,2.3406,2.58976.57229,5.16325,1.23883,7.71772,1.9546,2.17549.60966,4.28223,1.502,6.48267,1.99142,3.35477.74449,6.76365,1.2518,10.1498,1.85924.04336-.2057.08506-.41195.12733-.61886Q177.75071,266.57374,162.39932,262.80946Zm7.00084-57.47011a22.05136,22.05136,0,0,0-1.69845,8.07833c.05844,2.76408.39464,3.28647,3.52531,4.53561-1.30057-3.01424-1.045-5.932-.63782-8.84977.11854-.842.38389-1.66818.47482-2.51292C171.16526,205.64263,170.67092,205.18777,169.40016,205.33935Zm-26.06273,14.13c-3.50746.00211-5.00344,2.15442-6.24814,4.46253-1.51716,2.81653-1.31146,6.003.14393,7.63645.51662-2.04387.7283-4.357,1.69371-6.29372C139.93453,223.25723,141.67035,221.602,143.33743,219.46933Zm96.18624,39.6079c-.13262-.06709-.26424-.13639-.39575-.20359-1.03912,1.29028-2.10574,2.56049-3.10847,3.88-1.00543,1.32166-1.94542,2.69422-2.94329,4.08563,4.07387.9605,4.91628.45375,5.65046-3.318C239.01415,262.04378,239.25832,260.55968,239.52367,259.07723Zm-87.53186-33.4631c-2.294-1.53335-2.99583-1.30536-3.44137,1.261a11.4681,11.4681,0,0,0-.24905,2.51558c.09093,1.73793.56574,2.0472,2.614,2.01249C151.27282,229.479,151.6291,227.56873,151.99181,225.61413ZM214.3039,200.0923q.16085-.34929.32326-.70014a40.02081,40.02081,0,0,0-6.4166-4.11379c-1.48245,2.124-1.45428,2.55938.45109,3.22913C210.49982,199.15453,212.41916,199.57357,214.3039,200.0923Zm-74.553,36.539q-.4466.02278-.89605.04657c-.05791,2.52423-.17434,5.05112-.12555,7.57369.00921.45374.70169.89341,1.07849,1.34006.31081-.5073.92258-1.04122.88088-1.51715C140.46723,241.58494,140.08015,239.11172,139.7509,236.63129ZM240.077,215.98405c-1.026-.7028-2.01038-.91116-2.67093.50464a11.6553,11.6553,0,0,0-.82245,2.66173c-.19438.99133-.63882,1.51605-1.69735,1.42068-.07207-.00587-.17109.29408-.36548.64925.42126.33244.87057.687,1.56741,1.23661C236.71036,219.69732,240.22049,219.184,240.077,215.98405Zm-25.24026-20.2628c-1.16578-.89663-2.28707-1.74015-3.38618-2.61138-1.19281-.94476-1.849-.405-2.49118,1.04233,1.51926,1.046,3.02832,2.08445,4.65481,3.20363C214.09222,196.71746,214.42033,196.28,214.83674,195.72125ZM147.1546,230.9072a64.89786,64.89786,0,0,0,.52463-7.06848c-2.4045,3.40079-2.698,4.36617-2.28862,7.06848Zm94.46982-14.06112c-1.27719,1.79271-2.27672,3.19343-3.51766,4.93358,2.36821-.2068,4.06345-.74228,5.436-2.535C242.96449,218.52125,242.40407,217.82067,241.62442,216.84608Zm-101.21995,31.553q.11527-.53608.23286-1.0694c-3.52964-1.24969-7.33383-.92646-11.01017-1.33785Q135.01579,247.19371,140.40447,248.39905Zm94.68207-29.29143c.47-1.19713.88532-2.25832,1.405-3.58209-1.74014-.0255-3.4132-.49333-3.881,1.22419C232.19206,218.28517,233.7763,218.54077,235.08654,219.10762ZM153.588,232.68538c.09736-2.06892.19538-4.13508.31614-6.67328C151.90089,228.74579,151.81262,230.25153,153.588,232.68538ZM181.11314,204.25q-.20059-.22654-.40008-.45375c-1.11918.43745-2.23834.875-3.736,1.45916,1.032.79218,1.65787,1.27243,2.46792,1.89395C180.073,206.0579,180.59175,205.15318,181.11314,204.25Zm48.01811,61.27253c.82677.25127,1.43922.65844,1.79492.49766a5.95938,5.95938,0,0,0,1.65676-1.40505c.46894-.48191,1.69036-.61564,1.019-1.72074C232.21049,263.712,230.89147,264.48684,229.13125,265.52253ZM166.72,252.476c1.56372.19816,2.58976.32812,4.15282.52738-1.02326-1.31246-1.67517-2.14732-2.49163-3.19554C167.811,250.72179,167.39466,251.38989,166.72,252.476Zm-24.61711-4.86749c.90318,2.3314,2.74567,1.66863,4.54437,2.22961C145.33971,248.33019,144.39163,247.14336,142.10292,247.60853Zm66.06761,24.524c-.07208.18729-.14183.37469-.2139.56309q3.0821.87955,6.166,1.7591c.04865-.17708.09744-.3535.14667-.5317Q211.22214,273.028,208.17053,272.13249Zm-43.72934-2.3569c.07086-.17331.14293-.34652.2149-.52039q-2.95619-.85278-5.9136-1.70766c-.04978.176-.09857.35029-.15.52627Q161.51706,268.92343,164.44119,269.77559Zm-8.8521-18.265c-2.08123-1.58912-2.326-1.63569-4.70725-.97247C152.71413,250.91718,154.15111,251.2128,155.58909,251.51064Zm42.66982-42.3c-1.5869,1.568-1.33575,3.56113-1.40283,6.1367C197.41863,212.89031,197.83876,211.051,198.25891,209.21064Zm-9.8645,54.27124q2.0783.60343,4.15937,1.20744A3.09483,3.09483,0,0,0,188.39441,263.48188ZM127.489,244.57478c-1.25671-.35251-2.51172-.70491-4.15551-1.16564C124.44552,245.55912,126.04873,244.80975,127.489,244.57478Zm79.47092,36.14c-.006.18141-.01087.36282-.0163.54523q1.68695.28992,3.377.57939.04873-.31686.09792-.63239Q208.6887,280.96087,206.95987,280.7148Zm-20.29041-23.90621q.2021-.3102.405-.61885-1.794-.57585-3.5903-1.14835c-.05577.15968-.10931.32-.163.48081Q184.9951,256.16374,186.66946,256.80859ZM146.2471,190.05016c1.20312.07907,2.0055.13,3.18267.20692C147.35708,188.67982,147.35708,188.67982,146.2471,190.05016Zm82.01734,39.23111c.67032-.35351,1.05143-.556,1.52847-.80726-.4115-.7201-.75969-1.32865-1.34007-2.34337-.14293.97137-.23009,1.42179-.26968,1.87554A11.49883,11.49883,0,0,0,228.26444,229.28127Zm-35.01706-49.6191c-1.64057,1.77209-1.64057,1.77209-.56584,2.95625C192.88189,181.57608,193.0643,180.6199,193.24738,179.66217ZM195.19,222.7548c-2.40336.3942-2.40336.3942-2.53387,2.40347C193.41681,224.436,194.059,223.82519,195.19,222.7548Zm6.21687,49.96672c-.058.123-.11643.24639-.17653.37092q1.56334.36144,3.12191.72232c.02706-.10945.05367-.21989.07962-.33034Q202.92046,273.10353,201.40687,272.72152Zm-4.5346,6.70522c.01142-.13107.0255-.26147.03961-.39309q-1.40187-.37359-2.80147-.75049c-.04436.17221-.08713.34442-.13052.51663Q195.42481,279.11248,196.87227,279.42674Zm-21.45239-7.48708q-.08933.25432-.1792.50953,1.146.44991,2.29137.90151c.077-.222.15591-.44344.23286-.66433Q176.59212,272.3128,175.41988,271.93966ZM262.791,199.19622c-.19117-.03471-.38067-.0693-.57115-.10345q-.351,1.05585-.70283,2.11161c.16835.05367.33843.10723.50842.16079Q262.40944,200.281,262.791,199.19622Zm-49.9716,49.30617c.11421-.20957.22687-.42126.34-.63072a1.18143,1.18143,0,0,0-1.65466-.76567c-.12563.04557-.18573.27721-.4207.6519C211.68875,248.01837,212.25405,248.26044,212.81935,248.50239Zm-34.61211,12.97133c-.00111.2913-.00266.58149-.00488.87279q.90717-.08051,1.81389-.16079-.01232-.31036-.02717-.62108Q179.09988,261.51924,178.20724,261.47372Zm-12.15265-29.077c.42348.51873.84687,1.0379,1.53778,1.88475C167.83,232.78063,167.281,232.334,166.05459,232.39674ZM232.329,220.705q.147-.27943.29241-.55832-.644-.36709-1.29025-.73307-.17464.36309-.34921.72553Q231.65592,220.42251,232.329,220.705Zm26.22252-10.71678c-.1673-.11532-.33521-.23064-.50254-.3443-.23984.72221-.47692,1.44452-.71677,2.16784.16079.05367.321.10944.48181.163Q258.1803,210.9799,258.55152,209.98817Zm-37.22294,62.8774c-.07684.20247-.1538.40495-.23064.60588q.90072.18346,1.8008.36759c.03526-.13.06775-.26036.10235-.38977Q222.16379,273.15686,221.32858,272.86557Zm4.30663-2.20477c-.10233.22477-.2047.44943-.30969.67353.60531.12785,1.20787.25837,1.81054.38666q.07152-.22737.14182-.45641C226.7311,271.06365,226.1821,270.86228,225.63521,270.6608Zm-11.5105,11.7325c-.01408-.12775-.03027-.2556-.04657-.38389h-1.53168c-.00377.09092-.00865.1803-.013.27012Q213.32938,282.33723,214.12471,282.3933ZM264.23547,188.689c.16789.0092.33521.02051.50409.03138q.03494-.63505.071-1.27021-.23385-.01464-.46783-.02817C264.30644,187.8444,264.27074,188.26566,264.23547,188.689Z"/><path class="a" d="M221.05625,196.31571c-.33954-.16943-1.14735-.55332-1.93243-.97946-.241-.13051-.399-.4023-.62695-.5663-1.03524-.74128-3.08077-1.097-2.62924-2.55616.67242-2.17982.67574-5.09658,3.63412-5.89353a5.06072,5.06072,0,0,1,2.96442-.058,6.8264,6.8264,0,0,1,4.58484,5.64935c.313,2.28926-.59657,3.67856-2.85389,4.11335C223.36436,196.18576,222.49977,196.18908,221.05625,196.31571Zm3.95089-4.483c.23276-.11643.46506-.23286.69793-.352-.42834-.68872.14892-2.11007-1.98011-1.8588C224.22528,190.485,224.61616,191.159,225.00714,191.83267Z"/><path class="a" d="M234.42823,202.66576c2.06224-1.4148,2.06224-1.4148,3.44567.32C236.70327,203.97334,235.68433,203.89428,234.42823,202.66576Z"/><path class="a" d="M199.72239,191.16125c.64924.30317,1.06341.49755,1.59622.74771q.33132-.68945.65944-1.37034c.1874.01619.45054-.03471.51762.05844.84363,1.13759.10934,1.74724-.856,2.05318C200.70673,192.94686,199.80633,192.84462,199.72239,191.16125Z"/><path class="a" d="M213.83186,184.21674c-1.78029-1.267-1.78029-1.267-.44677-3.077C213.53834,182.20315,213.67,183.10244,213.83186,184.21674Z"/><path class="a" d="M245.67548,211.13275c-1.48247-.10279-2.227-.65623-1.84627-2.26864C245.04961,209.35035,245.04961,209.35035,245.67548,211.13275Z"/><path class="a" d="M236.2799,190.58841q-.66678-.45807-1.33408-.91615c.12175-.20137.24531-.40385.366-.60644q.71057.3907,1.41957.783Q236.50406,190.219,236.2799,190.58841Z"/><path class="a" d="M243.03923,188.14923c.35839.61664.64924,1.07693.8739,1.56583.01952.0438-.44832.45154-.58094.4023C242.48313,189.79623,242.24705,189.2337,243.03923,188.14923Z"/><path class="a" d="M211.23832,178.58635c-.38222.30693-.62917.65346-.8923.66865-.23231.013-.484-.34763-.7282-.54313a3.43,3.43,0,0,1,.83321-.5582C210.60316,178.105,210.85332,178.36269,211.23832,178.58635Z"/><path class="a" d="M243.69282,196.416c-.20472-.25615-.53017-.48846-.5875-.77488a1.28018,1.28018,0,0,1,.55066-1.22852q.2826.88854.56741,1.77541Q243.9586,196.30324,243.69282,196.416Z"/><path class="a" d="M182.2301,181.14085c-.69138-.13273-1.38331-.2648-2.0455-.39043-.15593.16466-.37682.29784-.365.40717.08605.85006-.11532,1.619-1.07959,1.53556a1.99263,1.99263,0,0,1-1.26378-1.10565,1.27461,1.27461,0,0,1,.8983-1.78084C179.86622,179.27984,181.28912,179.25178,182.2301,181.14085Z"/><path class="a" d="M177.48118,172.69493c-1.46351.968-2.92489,1.93453-4.743,3.13655-.08392-1.254-.157-2.35258-.21279-3.2145,1.8528.04979,3.43871.092,5.02993.13861C177.56243,172.7588,177.48118,172.69493,177.48118,172.69493Z"/><path class="a" d="M167.70872,178.59112c1.62646-.28642,1.80089.45108,1.63677,2.14843C168.56263,179.70974,168.13594,179.15043,167.70872,178.59112Z"/><path class="a" d="M178.2863,177.18075c-.74937.255-1.49875.50941-2.66173.90639.53281-2.08944,1.64113-1.55774,2.54854-1.52037Q178.23078,176.87364,178.2863,177.18075Z"/><path class="a" d="M165.71839,175.36364q-1.24416-.31919-2.48839-.63726c1.32263-1.02171,1.70552.28154,2.48949.64214Z"/><path class="a" d="M166.43638,169.88428v-1.49165c.151-.00543.30208-.01031.45375-.0163.04646.48413.09148.96594.13694,1.449C166.83049,169.84481,166.634,169.86421,166.43638,169.88428Z"/><path class="a" d="M151.09951,193.524c3.638,1.43543,3.638,1.43543,4.42194,2.53831-2.61626-.22577-5.30992-.45808-8.17846-.70491C148.56663,194.75964,149.6653,194.22417,151.09951,193.524Z"/><path class="a" d="M154.14623,185.54106c0,.7537.0173,1.384-.01142,2.0126-.00973.16289-.16677.31891-.28154.5246a1.9782,1.9782,0,0,1-2.685-.5154,1.318,1.318,0,0,1-.14992-1.23073A2.22593,2.22593,0,0,1,154.14623,185.54106Z"/><path class="a" d="M161.78157,193.22142c.373-2.09155.67841-3.7879.98168-5.48968C163.943,189.20986,163.73453,190.75729,161.78157,193.22142Z"/><path class="a" d="M164.86567,194.00816c1.44019-1.73483,2.88039-3.46954,4.33689-5.22388C169.26044,190.61979,167.76236,192.63993,164.86567,194.00816Z"/><path class="a" d="M174.3425,189.57324a9.34231,9.34231,0,0,1-5.32346,5.55133C170.93628,193.12716,172.403,191.596,174.3425,189.57324Z"/><path class="a" d="M177.44866,194.58743c-.7028,2.00983-2.36067,2.14954-4.20915,1.89295Q175.344,195.53247,177.44866,194.58743Z"/><path class="a" d="M166.61768,201.51354v-2.02979C167.77858,200.10361,167.4949,200.7951,166.61768,201.51354Z"/><path class="a" d="M200.39215,254.65151q2.3391.68062,4.677,1.365c-.05089.19217-.10234.38278-.15213.57439q-2.31383-.69426-4.62709-1.38763C200.324,255.0181,200.35755,254.83459,200.39215,254.65151Z"/><path class="a" d="M194.40226,251.41051q.95844.49367,1.91835.98645-.10978.22-.21878.44022-1.03308-.46455-2.06727-.92746C194.157,251.74351,194.2804,251.57729,194.40226,251.41051Z"/><path class="a" d="M201.10471,251.71312q.95922.29325,1.91945.58637c-.03526.11754-.06986.235-.10512.35362q-.96072-.29324-1.92156-.58637C201.03429,251.9492,201.06956,251.83177,201.10471,251.71312Z"/><path class="a" d="M174.75178,235.954c.78888,1.62915,0,2.685-.95839,3.69753C173.6326,238.34993,172.7149,236.85007,174.75178,235.954Z"/><path class="a" d="M178.74437,217.93222c-.09536-.98379-.19061-1.96713-.33243-3.42574,1.48887,1.24692,1.06229,2.3569,1.14568,3.36664C179.28683,217.8943,179.0156,217.9127,178.74437,217.93222Z"/><path class="a" d="M212.53348,242.623c-1.26488-.23985-2.27082-.45164-3.28544-.61675-1.67042-.27234-2.17449-1.0888-1.54745-2.56426a4.118,4.118,0,0,1,3.8918-2.28383c1.91723.0152,3.54707.59835,4.43547,2.43053a1.531,1.531,0,0,1-.76989,2.15232A18.69018,18.69018,0,0,1,212.53348,242.623Zm-3.59739-2.26431c1.40338,1.35681,2.95735,1.06341,4.43492.86569a1.58972,1.58972,0,0,0,1.13548-.98212,1.81931,1.81931,0,0,0-.79328-1.33785C212.09382,237.81224,210.23447,238.37155,208.93609,240.35864Z"/><path class="a" d="M228.304,236.87824c-.03252,2.7083-3.20366,4.98336-5.26771,4.19507a1.85541,1.85541,0,0,1-1.333-1.94052c.01621-2.52745,3.40345-4.64117,5.6142-3.417C227.81557,235.99136,228.10854,236.63839,228.304,236.87824Zm-1.3422.16134c-2.11539-.31293-3.13123.08017-3.64607,1.38442-.15159.38289-.1884,1.11108.02539,1.27187a1.74571,1.74571,0,0,0,1.48411.29995A3.712,3.712,0,0,0,226.96175,237.03958Z"/><path class="a" d="M221.60314,236.56254a2.53963,2.53963,0,0,1-2.74565,2.24646c-1.61032.0092-3.36344-2.06826-3.2877-3.89235.05688-1.34007,1.6195-2.47611,3.33428-2.42077C220.27228,232.53857,221.67189,234.64642,221.60314,236.56254Zm-4.899-.725c.97835.568,1.88585,1.11974,2.83981,1.57349.04169.02051.83054-.97026.71744-1.29838-.287-.8322-.72443-1.92211-1.40613-2.22916C217.94077,233.47046,217.08916,234.16838,216.70416,235.83756Z"/><path class="a" d="M221.5587,212.26823c1.87288-1.04012,2.1056-.17221,2.67368,1.17706C223.20146,212.99154,222.6335,212.74138,221.5587,212.26823Z"/><path class="a" d="M221.52408,208.39418q.14287-.653.28154-1.30536c.29995.11421.59768.23009.89763.34541q-.37108.57084-.74228,1.14346Q221.74346,208.48522,221.52408,208.39418Z"/><path class="a" d="M184.822,222.934c-.151-.798-.40008-1.51283-.28154-1.5777,2.04719-1.15444,1.894-3.567,3.05271-5.37113.7282.10722,1.438.21168,2.1338.314,0,.33953.07685.61675-.012.68761a7.26844,7.26844,0,0,0-2.66172,3.43383C186.7717,221.28644,185.76407,221.91505,184.822,222.934Z"/><path class="a" d="M191.59272,214.43452c.24207-1.21721.39578-1.9871.635-3.18589.8566.64491,1.38021,1.0369,2.24757,1.68714C193.40761,213.48965,192.71889,213.84914,191.59272,214.43452Z"/><path class="a" d="M192.6772,218.85746c.68871.38012,1.37743.76079,2.44627,1.352-1.69368.77909-2.18578-.10944-2.83016-.62595Q192.48508,219.21979,192.6772,218.85746Z"/><path class="a" d="M199.60385,237.80192q1.19313-.57982,2.38939-1.15921c-.46993.78453-.94,1.56861-1.56583,2.61571C200.07812,238.639,199.841,238.22052,199.60385,237.80192Z"/><path class="a" d="M79.19526,91.17957c.34109.30749.6822.61664,1.24038,1.12184-4.56266,4.57619-9.04415,9.07021-13.71138,13.752,0,.03737-.01408.41206.00222.78409.09581,1.9984-.44454,2.9059-2.38939,3.09-3.2064.30106-6.43554.3514-9.9073.51873.06986-2.65253-1.68226-3.40135-3.48306-4.3023a47.00035,47.00035,0,0,1-12.727-9.50556,9.19781,9.19781,0,0,1-2.33849-7.92508c.58149-4.76736,1.82409-9.45565,5.63527-12.7898,6.79614-5.9483,14.235-9.80062,23.721-7.00461a26.354,26.354,0,0,1,9.172,4.21559c.398-.79318.72121-1.43754,1.04222-2.08235,2.071-4.14251,5.91471-6.13071,9.87694-7.79191a60.12866,60.12866,0,0,1,19.3657-4.57242c4.65093-.314,9.28134-1.098,13.93227-1.21875,5.80537-.15159,11.62693.15424,17.19455,2.1359a6.60571,6.60571,0,0,1,2.28971,1.10244c2.92,2.70175,6.25424,5.01585,8.44592,8.94668a19.03343,19.03343,0,0,1,14-8.05981q-4.93548,0-9.87256,0-3.26326-.00333-6.52383-.01408a5.66,5.66,0,0,1-4.15937-1.587c-2.62646-2.62325-5.31635-5.19294-7.80477-7.94338-2.3315-2.57457-2.5291-4.55789-.63516-7.49406,3.19665-4.95154,6.48212-9.8564,9.9674-14.60535a5.56836,5.56836,0,0,1,6.13559-2.09643c6.32457,1.76177,12.61549,3.63465,18.90488,5.51241a26.6876,26.6876,0,0,1,3.42953,1.4158c2.72236,1.25069,3.64871,2.8621,2.93407,5.68085-1.20747,4.77323-2.47768,9.53582-3.92276,14.242a13.784,13.784,0,0,1-4.92548,7.36145c1.326.36548,2.26974.71466,3.24322.87922a15.86556,15.86556,0,0,1,8.73444,4.57463c3.42519,3.47387,5.16755,7.7572,4.24652,12.74933-.50021,2.7083-1.268,5.3657-1.88039,8.05549a10.57625,10.57625,0,0,1-3.95037,6.41558,16.089,16.089,0,0,0-3.11814,2.82573c-.51873.6682-.48834,1.75922-.77909,2.96933-3.38781,1.21653-7.00348,1.93342-10.9322.85105a7.82336,7.82336,0,0,1-.37147-1.6541,2.08117,2.08117,0,0,0-1.59344-2.07425,21.46832,21.46832,0,0,1-6.64891-4.8014c-3.61458-3.46421-5.94332-7.65219-7.85523-12.58044a13.9397,13.9397,0,0,0-2.46945,2.57568,6.71016,6.71016,0,0,1-3.66614,2.98063,62.0455,62.0455,0,0,1-18.82637,4.34987c-2.64332.20958-5.24927.85284-7.88339,1.21444a56.88359,56.88359,0,0,1-29.25128-3.53774c-.57817,1.08991-1.19381,2.25023-1.80679,3.41321-.89009-.3514-1.7824-.70491-2.62591-1.04.49111-.88532.98434-1.77541,1.529-2.756-.66544-.543-1.62924-1.01084-1.5848-1.34927.25828-2.02446-1.49595-3.0342-2.143-4.58007a4.94715,4.94715,0,0,0-4.90707-3.06014,9.18933,9.18933,0,0,1-5.62829-1.54477,6.46918,6.46918,0,0,0-4.78144-1.21931c-2.68289.268-5.03271,1.50795-7.60828,1.94972a3.98451,3.98451,0,0,0-3.45069,3.26917A3.32437,3.32437,0,0,0,43.8187,82.4602c-.90639,1.38331-2.40234,2.45382-3.04074,3.92052-.77377,1.78139-2.90967,3.20052-1.449,5.95961-2.2123-1.87986-2.33683-2.57291-1.19436-4.26216.9432-1.39584,1.85336-2.81763,2.8794-4.38347-.76235-.40285-1.37631-.72719-2.15708-1.13925a18.94572,18.94572,0,0,0-1.71265,9.3084,6.10747,6.10747,0,0,0,1.32876,3.0505,15.61863,15.61863,0,0,0,6.743,5.109,29.73535,29.73535,0,0,0,11.70543,2.1339c5.02129-.24805,9.60724-2.208,14.20738-3.97418a12.51666,12.51666,0,0,0,4.46952-2.94549C76.8314,93.93921,78.68574,93.125,79.19526,91.17957ZM74.854,79.4178l-.06287-.05356c.5999,2.24213,2.73591,3.672,3.17336,6.0359.07474.41151.92049.68174,1.522,1.091a12.87,12.87,0,0,0-4.64183-11.21377c-1.01836-.79206-2.03631-1.58424-3.31785-2.58266-.7283,1.39961-1.338,2.56758-1.98986,3.82149,1.72884.92158,2.93894,1.04722,4.02076-.3779a5.31476,5.31476,0,0,1,1.35681-.94209,8.63459,8.63459,0,0,1-.71245,2.01736C73.48193,78.29762,74.08349,78.85039,74.854,79.4178ZM57.6963,106.499c1.908-.08505.1538-1.64867.8311-2.25023,3.2877,2.33251,4.95586,1.758,5.62562-1.87288-1.67528-.56519-1.41215,1.41592-1.78681,1.581a10.37131,10.37131,0,0,0-2.8945-.68872,22.66265,22.66265,0,0,1-8.99492-.549,20.85718,20.85718,0,0,0-2.92708-.44133c2.09155,2.2958,4.60936,2.45381,7.81087,1.998.556.51762,1.47967,1.37744,2.43155,2.25455-1.96649.33244-1.96649.33244-2.01038,2.7429,2.66392-.21379,5.31212-.33943,7.9316-.67675,1.268-.163,2.1002-.9259,1.35792-2.371-2.10463.34442-4.13608.72343-6.18216.97137C58.52473,107.24075,58.09538,106.74542,57.6963,106.499ZM45.15768,74.62826c-1.10723.83221-2.2151,1.66386-3.475,2.60973.8587,1.15167,1.51382,2.02878,2.03743,2.73158,2.39261-.03038,3.62711-1.34494,5.13717-2.50582,1.80568-1.38719.79106-3.39591,1.93841-4.81659.2414,1.17052.48347,2.3406.73252,3.55292,1.06119-.24639,1.97079-.456,3.11814-.7212.25559-1.76621.50464-3.49128.758-5.23519-2.92209-.24529-7.53576,1.83218-10.31545,4.45221Zm30.40016-.84684A18.12975,18.12975,0,0,1,81.05938,84.902a2.13044,2.13044,0,0,0,.854,1.34495,13.6488,13.6488,0,0,0,3.92651,2.18746c7.61147,1.81223,15.28052,3.17114,23.17145,1.93076,4.31961-.67685,8.66137-1.22153,13.001-1.75644a55.803,55.803,0,0,0,13.811-3.46256,5.60891,5.60891,0,0,0,1.96381-1.0807c2.99261-3.05582,5.84706-6.14147,6.878-10.57971.57716-2.48952.44232-4.47662-1.39582-6.24925-1.57562-1.51927-3.09-3.11925-4.78857-4.48582a12.15835,12.15835,0,0,0-3.89942-2.21286A44.784,44.784,0,0,0,119.62505,58.73c-5.22.19649-10.42968.71411-15.63837,1.17063A55.369,55.369,0,0,0,81.955,66.32905,13.61691,13.61691,0,0,0,75.55784,73.78142Zm77.8184-13.40877c0,.03038-.00211.0591-.00211.08827a49.99307,49.99307,0,0,0,5.41438-.03249c4.0018-.43634,6.90337-2.30113,8.13624-6.42845.89827-2.9996,2.15273-5.89142,3.20205-8.84766a48.09393,48.09393,0,0,0,1.46083-4.62664c.58207-2.36666.01408-3.59728-2.16571-4.63252a33.92113,33.92113,0,0,0-5.03329-2.01038C158.735,32.233,153.053,30.679,147.37116,29.12784a4.67165,4.67165,0,0,0-5.07928,1.87332c-3.48795,4.7403-6.76743,9.63818-10.02684,14.54315-1.33685,2.01037-.87177,4.06455.71034,5.74682,2.40836,2.562,4.8513,5.10634,7.45726,7.46213a6.38175,6.38175,0,0,0,3.574,1.54687C147.11778,60.5178,150.25167,60.37265,153.37624,60.37265ZM178.67285,80.4374a45.40209,45.40209,0,0,0-4.18154-3.77658,19.035,19.035,0,0,0-4.10193-1.96059c-7.6197-3.01524-14.80461-2.17982-21.17672,3.00281-3.17724,2.58489-3.47231,7.04088-.22688,9.36861,8.89634,6.38143,20.017,4.85718,27.50892-2.02557A6.48278,6.48278,0,0,0,178.67285,80.4374ZM60.29305,70.38063c-.3,1.29084-.60045,2.58156-.98867,4.25362,3.04773-.68772,2.48952-3.15606,3.645-4.756-2.34659-.5755-4.41274-1.11319-6.56494-.3687-.12131,1.77752-.23065,3.4273-.34708,5.15613C59.15768,74.58768,58.22257,71.36387,60.29305,70.38063Zm3.76028-.2312c-.59335,1.58214-1.10077,2.932-1.62216,4.32348.98922.54523,1.62438.89552,2.46191,1.35737.70712-1.69635,1.34716-3.22859,2.07536-4.96995C65.9516,70.61238,65.2467,70.44018,64.05333,70.14943ZM68.289,71.16626a7.85577,7.85577,0,0,0-1.72285,5.82755c2.69532-.72875,2.77117-3.17713,4.174-4.85019C69.78075,71.76184,69.05466,71.47109,68.289,71.16626ZM67.0475,104.07338c1.522-1.59943,3.41487-2.3477,4.43281-4.46142-1.25888.37457-2.155.64647-3.05271.90472C66.28892,101.13011,66.231,101.25464,67.0475,104.07338ZM39.36205,80.96744c.87711.69249,1.57293,1.2426,2.40569,1.90094.59337-.76767,1.02869-1.32865,1.46348-1.89007-.72609-.85494-1.32166-1.56051-2.13712-2.52367C40.48666,79.33663,39.98911,80.059,39.36205,80.96744Z"/><path class="a" d="M146.2379,141.87559c-1.77963-.26967-3.56424-.5144-5.33477-.82621-.44943-.07907-1.06718-.26148-1.25668-.59558-1.37855-2.4333-4.23943-3.08953-5.96558-5.13506-4.854-5.7538-4.96551-10.77465-.17922-16.17761a18.899,18.899,0,0,1,4.80473-3.52864c7.20554-4.1403,16.85236.41094,19.43713,6.48377,1.36125,3.19942.75858,6.323-.03679,9.49092-.25171,1.00275-1.68495,2.04608-.03029,3.13821a4.79516,4.79516,0,0,1-.61886,1.47047,10.54282,10.54282,0,0,1-9.37016,5.487c-.47438.01619-.94919.00211-1.42623.00211C146.2542,141.74785,146.2461,141.81172,146.2379,141.87559Zm5.01219-5.42092q.32568.28925.65457.58049a30.13565,30.13565,0,0,0,2.86689-2.56537c1.91022-2.18258,2.38349-4.926,2.521-7.69222a12.64488,12.64488,0,0,0-.5095-3.86585c-.84742-3.10948-3.32608-4.77123-5.945-6.20334-8.75075-4.78355-18.28822,1.77652-19.86438,9.38968-.5479,2.6411,1.05531,4.508,2.20908,6.4382.34431.58049,1.7824.7792,2.1674,1.84848.58637,1.6276,1.93455,2.2346,3.45168,2.65852,1.27944.35461,2.5372.78507,3.82039,1.12727a11.87483,11.87483,0,0,0,1.67306.20791,14.58876,14.58876,0,0,0-2.88051-1.29782,14.87688,14.87688,0,0,1-2.999-1.63358c-4.12091-3.097-4.1442-6.02615-1.89663-9.27214,2.3406-3.38293,5.38788-4.64982,9.38856-3.653a19.444,19.444,0,0,1,4.48582,1.75423,6.248,6.248,0,0,1,3.423,5.81457C153.863,132.604,153.516,134.8304,151.25009,136.45467Zm2.92919.91892c-3.083.91226-5.96447,1.76343-8.92783,2.64055C149.33718,140.78192,152.15482,139.98763,154.17928,137.37359ZM150.88084,126.568c-.97248-1.13759-.97248-1.13759-2.2275-1.27831C149.50928,126.53983,149.50928,126.53983,150.88084,126.568Zm-2.71651,9.47084c1.8242-1.333,1.8242-1.333,1.75592-3C149.335,134.03933,148.9116,134.76054,148.16433,136.03884Z"/><path class="a" d="M114.48525,18.03317c4.67419-.14671,10.41893,3.10461,14.7,9.27158a13.06352,13.06352,0,0,1,1.44242,12.516,50.73716,50.73716,0,0,1-4.37371,8.26451c-1.973,3.31307-5.21568,5.383-8.493,6.98454-3.24643,1.587-7.017,1.359-10.65877,1.175C100.65032,55.91932,96.511,52.159,93.114,47.1729A32.229,32.229,0,0,0,90.35924,43.536c-3.98825-4.36018-2.80145-10.505-.31891-14.02973C95.229,22.13731,102.39756,18.16091,114.48525,18.03317Zm11.13468,26.45261c5.53624-3.958,5.53624-11.308,3.48417-15.13439a18.251,18.251,0,0,0-13.09527-9.71657,24.79913,24.79913,0,0,0-25.368,10.67873c-2.599,3.92872-3.15063,9.798,2.287,13.30432a5.00264,5.00264,0,0,1,1.12129.882c3.02012,3.554,7.206,4.33579,11.413,4.96385,2.53232-2.59231,2.75-3.28646,1.75212-5.39487a5.41245,5.41245,0,0,0-5.13772-2.92109c-2.36832.27944-2.99206,1.04334-3.6596,4.49458-.96105-1.16853-.96105-1.16853-.83764-1.78251a5.21874,5.21874,0,0,1,7.07991-3.64607c.80293.32812,1.582.71689,2.875,1.30658-.4645-1.12727-.68051-1.63469-.882-2.14688a3.66157,3.66157,0,0,1,.613-3.95733c1.27719-1.0634,2.40447-.52139,3.5924.34431,1.43587,1.04444,1.9892.79328,2.62491-.87712.15913-.42015.37192-.82134.50676-1.117.27511-.08017.40287-.15924.45153-.12564.97248.67464,2.88272-.21434,3.07,1.37744.08771.73307-1.17815,1.6276-2.051,2.72671,2.02936.27012,3.05427-2.40946,4.97261-1.47269,1.67519.81912,3.35044,1.64379,5.04513,2.47544-1.11752,1.83107-2.25078,2.34769-3.17015,1.55718-.07906-.63893-.163-1.32543-.235-1.92211a20.95338,20.95338,0,0,1-2.69533,2.76674c-1.57615,1.1164-2.378-.60423-3.80309-1.97357-.07194,3.69963-3.64385,6.31046-.463,9.78166-1.98487-.9188-4.36506.91016-5.782-1.745-.65412.89818-1.13105,1.55286-1.70442,2.3406a5.85129,5.85129,0,0,0,1.18791.51651c6.59413,1.02282,12.13847-1.10943,16.87556-5.64669ZM94.87322,47.11934c1.32865,2.43164,4.18421,5.28176,5.79553,5.83564a3.212,3.212,0,0,0,1.587-.05577c.92856-.1884,1.83928-.46672,2.75755-.70768.046.16788.09146.33787.13693.5052-.66643.34164-1.333.68162-2.1582,1.10288,7.73558,3.62,19.08529.27456,21.754-6.39385-1.89184.79318-3.783,1.42889-5.5286,2.34493-4.53948,2.383-9.20882,1.73371-13.908.80082C101.83015,49.86168,98.3075,49.29372,94.87322,47.11934Zm14.37792-11.1612c-.66443,1.02592-2.384.98212-1.76354,2.58045.41971,1.08292,1.5085.81645,2.12417.38012C110.68912,38.15691,110.27385,37.19153,109.25114,35.95814Zm2.99362,8.52276c-1.52692.21878-1.86046,1.104-1.56639,2.21064.10013.36881.77155.58371,1.56639,1.13759ZM108.47039,41.817c1.829,1.3098,2.24313,1.10411,2.47222-1.0379C110.17372,41.10284,109.45251,41.405,108.47039,41.817Zm3.83225-1.88795c.71422.19172,1.36823.54523,1.54044.38222.64758-.60688,1.23284-1.37145.24639-2.43585C113.52627,38.5224,113.03094,39.0898,112.30264,39.929Z"/><path class="a" d="M107.426,128.82632c1.326-1.57659,2.30114-2.73857,3.34335-3.979,2.21507,1.44884,4.8096,1.5116,6.03,3.95466.22524.451,1.15711.56519,1.77375.80127.78676.3,1.58313.56641,2.5665.9156a57.70476,57.70476,0,0,1-2.5919,5.80148c-1.81987,3.11437-3.75329,3.67213-8.30409,2.691-2.94116,2.71528-6.22652,4.34887-10.44,1.4484.23708-.84085.50243-1.78084.82944-2.94438a17.01292,17.01292,0,0,0-2.20255.62973c-3.80852,1.67627-8.19576,1.72385-11.7244,4.18908a1.85516,1.85516,0,0,1-1.092.22577c-4.23144-.24695-8.75674-4.98392-8.91264-9.55368a3.1781,3.1781,0,0,1,1.48677-.19549,44.6,44.6,0,0,1,5.47938,1.49009,4.66171,4.66171,0,0,1,2.11271,1.75312,34.877,34.877,0,0,1,1.961,4.02076c.80085-.25338,1.66386-.52571,2.50851-.79107-.8749-4.18586-3.20155-6.00785-9.35821-7.285a41.59905,41.59905,0,0,1,4.41163-2.208c1.66708-.60267,3.09809.48835,4.61356,1.01683,3.17394,1.10776,5.89142,2.679,7.1552,6.23573.72121-.18142,1.40881-.35517,2.15919-.54357.08826-2.94438-1.04489-4.91251-3.66493-5.96449-.97026-.38988-1.973-.712-2.91732-1.15877-1.91723-.90362-3.80907-1.817-6.20809.09314a10.87491,10.87491,0,0,1,4.48635-4.07642,23.44139,23.44139,0,0,0,2.87552-1.11918,7.29032,7.29032,0,0,1,6.06252-.34652C102.63042,124.98376,105.376,126.012,107.426,128.82632Zm7.41067.25016c-.45862-.58205-.9167-1.16243-1.38553-1.75689-2.40025,2.10452-2.40025,2.10452-2.16151,4.1241,1.13492-1.02116,1.82741-2.62325,3.63742-2.45925-.5836.66654-1.169,1.332-1.77486,2.02336,1.52858,1.07371,3.43384-.33677,4.80429,1.54476-1.026.13484-1.76131.23231-2.80577.37191a10.88,10.88,0,0,1,1.31789.98224,11.95034,11.95034,0,0,1,1.00164,1.60043c-1.15864-.56519-1.73693-.81424-2.28216-1.12339-.48192-.27134-.92369-.60966-1.38454-.91782-1.12616-.75037-3.64008.379-3.725,1.59245.52084.568,1.00486,1.09578,1.52137,1.66-.52683.26912-.88632.45264-1.40505.718,4.66135,2.3477,8.25752-.37469,8.58785-6.19137C117.47717,130.526,116.16039,129.7988,114.83662,129.07648Zm-24.9685-2.06616a60.95149,60.95149,0,0,0,5.64725,2.38352,6.86738,6.86738,0,0,1,4.65314,4.57075c.21656.58859.503,1.15434.83321,1.89994,1.14457-.5225,2.12681-.96915,3.01091-1.37145C103.33533,129.18105,95.58844,124.95781,89.86812,127.01032Zm19.461,6.98954a12.72044,12.72044,0,0,0-5.48646-6.97113c-2.43585-1.58091-5.24218-3.37362-8.52277-1.85868a2.7337,2.7337,0,0,0,1.19226.61608c3.36342,1.04289,6.2498,2.80256,7.83194,6.04522C105.31322,133.81467,106.78812,134.1276,109.3291,133.99986Zm-16.85933,4.7067a5.74645,5.74645,0,0,0,.97456-.16411c2.22473-.71522,2.66983-2.09532,1.07849-3.71427a14.48162,14.48162,0,0,0-8.25741-3.96709,1.07615,1.07615,0,0,0-.60378.16844C87.906,133.56019,90.06464,135.99615,92.46977,138.70656Zm-6.8953,1.96868c-.34807-.74449-.9951-1.45428-.89818-2.04176.39309-2.36987.02218-3.19121-2.15819-3.63088-1.35637-.27233-2.73591-.42447-4.13442-.63515C78.50921,137.81314,81.576,140.49605,85.57447,140.67524Zm15.34821-1.37311c1.45969.74228,2.40566,1.22419,3.30174,1.68,1.04821-.43146,2.06715-.8505,3.08509-1.268,1.35848-.55876,1.575-1.39152.76779-2.65364-.99355-1.55552-2.606-1.04333-4.208-1.56361-.071,1.22253-.12464,2.16739-.17764,3.07267C102.91684,138.7742,102.15339,138.97679,100.92268,139.30213Zm9.8862-11.3659q-.32817-.13407-.65734-.27012-.43444,1.2686-.86689,2.53875c.1051.04768.20958.09526.31457.144Q110.20266,129.14119,110.80888,127.93623Z"/><path class="a" d="M66.43784,149.9517c0-3.7218-.04657-7.32075.00976-10.91925.09425-6.0787.27888-12.15685.36271-18.23567.02118-1.45539.00444-2.82573,1.57515-3.808-.97248,5.57251.02539,10.99022-.51762,16.3781-.34331,3.40079-.38068,6.83451-.464,10.25648-.04061,1.6887.12672,3.38294.20678,5.26713,2.49928-.15325,4.74685-.27179,6.9943-.42991q10.2536-.726,20.50764-1.47546a7.4737,7.4737,0,0,1,.85649-.04757c8.16227.35461,16.07759-1.34717,24.1466-2.684-.5674.36981-1.13537.73962-1.81807,1.18305a49.51139,49.51139,0,0,0,5.85025-.04657c2.3059-.28154,2.60862-.7201,2.3151-3.006-.537-4.15227-1.10987-8.30509-1.86578-12.4201-.80726-4.39057-1.76022-8.75885-2.81542-13.0974-.66763-2.75111-1.09379-3.03476-3.99049-3.01635-3.7992.0254-7.60129.18729-11.39938.35573-4.18155.18629-8.36043.42614-12.53765.68106-2.37364.14405-4.742.36881-7.11281.55233-2.64822.2047-5.29809.40285-7.94629.60966-2.17759.17-4.35308.39309-6.53567.50952a8.94622,8.94622,0,0,1-3.51345-.46727c17.91144-1.34384,35.75292-3.41809,53.4753-3.3835.36548,1.88475.6682,3.50425.99634,5.11666,1.00483,4.93624,2.10671,9.85473,3.00334,14.811.62862,3.462,1.01839,6.96946,1.44508,10.4655.29075,2.365.0163,2.89881-2.38717,3.30709-2.22426.37735-4.52319.30971-6.78694.46994-3.97906.27944-7.95755.58426-11.93608.87878-.85383.06287-1.70711.14293-2.562.1884-8.93.46628-17.8621.9086-26.791,1.40881a15.42874,15.42874,0,0,0-3.92872.66277A9.47584,9.47584,0,0,1,66.43784,149.9517Z"/><path class="a" d="M77.89037,102.53194c.249-1.58923,1.53066-1.65687,2.72671-1.84748a117.95241,117.95241,0,0,1,18.17777-1.28,107.51744,107.51744,0,0,0,21.55363-1.99519c1.203-.249,2.43862-.35461,3.66447-.49056.10235-.01187.235.24317.51219.55011-2.54319,1.72074-5.873.5999-8.68255,2.34071.65024.29562,1.051.63616,1.443.62584a18.373,18.373,0,0,0,4.816-.36326c2.50693-.76512,5.01974-.53,7.5423-.68007,7.11284-.42237,14.2198-.96594,21.329-1.464,1.4147-.09858,2.82953-.20791,4.22646-.31292.7212.93444,1.35084,1.74768,1.96048,2.53664-.78453,1.40073-1.54954,2.7683-2.50849,4.47983-8.9673,1.822-18.41376.73042-27.89977,1.10776-.12566,1.02393-.2442,1.98333-.36063,2.93839a6.0853,6.0853,0,0,1-4.72566-1.89605c-2.40347-2.39748-4.91628-4.6873-7.2764-6.92067-6.96081.25116-13.89223.43368-20.81623.77687-4.26646.2118-8.52443.632-12.77849,1.04012a17.41472,17.41472,0,0,0-2.946.79916Zm41.84623.44665c1.78683,1.82786,3.59252,1.56362,5.207,1.59611,5.22111.10612,10.44822.156,15.6682.03038,4.42893-.10723,8.85088-.48735,13.42551-.75536v-2.73857C142.685,101.7289,131.47231,102.33966,119.7366,102.97859Zm5.72576-1.93353c5.26823,1.05043,26.00973-.76335,28.14674-1.80568-8.90455.43046-17.953.8658-26.9994,1.32166A4.545,4.545,0,0,0,125.46236,101.04506Zm-2.57078,4.63152c1.83549,1.38664,1.83549,1.38664,2.56157.21168C124.76821,105.83193,124.14779,105.781,122.89158,105.67658Z"/><path class="a" d="M43.67787,53.8321C45.92111,43.82245,52.22392,37.78,61.36344,34.01862c6.23683-2.56526,11.94528-1.27132,17.52158,1.53123a41.67342,41.67342,0,0,1,6.80211,4.68131A8.02424,8.02424,0,0,1,87.9,49.27753a20.78909,20.78909,0,0,1-2.09432,4.04238,29.61013,29.61013,0,0,0-3.26218,6.847c-.72329,1.86468-1.81322,3.39913-3.83447,3.90976-3.11869.78885-6.26763,1.46238-9.40906,2.16518-.3655.08228-.77977-.03138-1.13548.06609-5.41928,1.48455-9.83413-1.10022-14.18622-3.632a41.993,41.993,0,0,1-5.95152-4.41063C46.53077,56.99515,45.25779,55.4618,43.67787,53.8321Zm40.69248-3.385c.56519-.14682,1.37034-.10512,1.65787-.47061a6.62059,6.62059,0,0,0-1.63735-9.31383c-1.38387-1.00485-2.81276-1.9475-4.22047-2.91776-3.28979-2.26864-7.11993-3.07589-10.91115-3.94824a6.36707,6.36707,0,0,0-2.542.136c-7.77838,1.52092-14.23987,5.18052-18.7095,11.877A21.36174,21.36174,0,0,0,45.68127,50.649c-.80948,2.35258.07462,4.30718,2.11161,5.90439,4.338,3.40024,9.5304,4.51343,14.71526,5.69914a16.44665,16.44665,0,0,0,10.55532-1.17484c.78074-.3422,1.679-.44344,2.41377-.85283,4.058-2.26265,8.813-3.92163,8.91852-9.79087ZM56.62369,62.03274c-.07307.229-.14615.457-.22089.6855,2.83882,1.45639,5.78419,2.7277,9.06589,2.594a52.82574,52.82574,0,0,0,7.624-.94809,30.20845,30.20845,0,0,0,5.71644-1.69036c1.25291-.50941,2.57678-1.29017,2.299-3.51234a20.38631,20.38631,0,0,0-2.38939.61786c-2.02657.79917-4.03,1.659-6.037,2.509a18.881,18.881,0,0,1-13.08662.43423C58.62276,62.4367,57.61513,62.25961,56.62369,62.03274Z"/><path class="a" d="M46.35147,142.15824a62.328,62.328,0,0,0,3.8194-18.36352c-2.51992,1.74025-4.59417,3.60171-7.01173,4.71868-2.39637,1.10731-5.13284.99465-7.847.777-2.9211-.23286-4.96286-2.24856-7.819-3.26218a12.5628,12.5628,0,0,0,.34652,2.04065c1.49387,4.10414,2.91788,8.24133,4.58606,12.27451,1.16675,2.81874,1.54953,2.889,4.6211,2.44073,1.88474-.27445,3.75552-.63616,5.63749-.92469.62861-.09747,1.273-.091,2.09642-.144-1.09367,1.1652-1.09578,1.14679-5.45385,1.76344-1.87555.26535-3.73645.62806-5.80748.98168a37.46742,37.46742,0,0,1-4.93036-10.46661c-1.26478-3.87993-2.11051-7.90879-4.29142-11.45583a3.86615,3.86615,0,0,1-.46461-2.18248,12.39212,12.39212,0,0,1,11.16019-11.7753c1.23339-.09092,2.45969-.34219,3.69153-.36759,5.32723-.10933,9.15085,2.70343,12.40059,6.54277,1.07152,1.26533,1.02925,2.828.84573,4.36018-.38655,3.20863-.67841,6.43554-1.261,9.60946-.75636,4.10636-1.73583,8.17147-2.67848,12.24091a6.00133,6.00133,0,0,1-.90262,1.54044C46.84369,142.39,46.59675,142.27357,46.35147,142.15824Zm2.72892-24.48392c-.04167.21767-.08339.43645-.12674.65356a9.07536,9.07536,0,0,1-1.46238-.18252c-1.45648-.42225-2.9059-1.30868-4.34286-1.27619a70.52077,70.52077,0,0,0-11.32966.97358,6.033,6.033,0,0,0-5.31913,5.83454,56.93494,56.93494,0,0,0,5.13284,3.312c4.73974,2.42243,9.42538,1.89827,13.76726-.97836,3.12247-2.06992,3.155-2.71429,1.601-6.09013-.04334-.09314.14517-.29074.34974-.67031.68439.80948,1.30757,1.54965,1.96169,2.3233,2.03955-4.31471,2.0136-5.14315-.56419-7.80055-4.48581-4.61844-9.88179-5.27467-15.77975-3.62268a9.993,9.993,0,0,0-5.78907,3.94868c-1.40993,2.09155-2.51392,4.344-2.11273,6.99863.44189.02328.57229.06986.61886.0265a3.56014,3.56014,0,0,0,.5518-.6172,8.88113,8.88113,0,0,1,6.28659-4.09061,84.75207,84.75207,0,0,1,11.066-.67242A10.08941,10.08941,0,0,1,49.08039,117.67432Z"/><path class="a" d="M188.32622,105.71827c4.73487.19062,9.499,1.43588,13.03574,5.33156a26.24412,26.24412,0,0,1,6.41326,11.56727,11.102,11.102,0,0,1-.784,6.69435,34.93514,34.93514,0,0,1-2.11484,4.35109c-3.12246,5.58869-7.92231,7.69865-14.25129,7.30345-4.93036-.30705-9.08152-2.58056-13.4417-4.39434a2.69819,2.69819,0,0,1-1.23506-1.10509c-2.06183-3.72724-4.6629-7.15831-5.80315-11.38587-1.2123-4.49513-.25016-7.70153,3.42729-10.4818,2.19667-1.66108,4.31039-3.43427,6.51139-5.09115A12.02416,12.02416,0,0,1,188.32622,105.71827Zm-.1884.9166a12.348,12.348,0,0,0-3.30875.63294,40.933,40.933,0,0,0-6.05653,3.57843,54.48132,54.48132,0,0,0-6.78206,5.70513,6.17629,6.17629,0,0,0-1.21344,6.19414c2.07647,7.36732,5.127,13.95344,13.51,16.0298.45863.11266.875.39309,1.33309.50354,3.339.80781,6.72462,1.38009,10.11243.5052,7.19844-1.85658,10.74915-9.89588,11.08214-14.86583a7.02712,7.02712,0,0,0-.15366-1.69357c-.84254-4.67422-3.45548-8.42541-6.56608-11.78284C196.9378,108.03781,192.6772,106.99824,188.13782,106.63487Z"/><path class="a" d="M77.8481,102.47716c-.66754,2.3477-.24417,4.63263.26424,7.27207,4.95043,0,9.77246.0244,14.59449-.007,4.94067-.03249,9.88511-.02928,14.82146-.20792,4.80473-.17486,9.60236-.55986,14.48617-.85759-.22357,1.281-1.28,1.027-1.99631,1.0807-5.20481.39409-10.41239.88687-15.62751,1.02171-6.46481.16511-12.93562.00433-19.4042.0081-1.61673.0011-3.234.11476-4.85075.12341-.92147.00433-1.84515-.09913-2.96433-.16677-.23985-1.68116-.48624-3.163-.65135-4.65426-.15-1.37632-.21169-2.76341-.34-4.52695.78175.43967,1.2426.699,1.70544.96327C77.89037,102.53194,77.8481,102.47716,77.8481,102.47716Z"/><path class="a" d="M34.63372,141.98493c-1.12351-1.8262-3.43383-9.79564-3.08731-11.51261,1.1121,3.57621,2.23126,7.15032,3.32006,10.733C34.926,141.40133,34.73385,141.67311,34.63372,141.98493Z"/><path class="a" d="M37.375,141.215c-1.45916-2.67792-.89929-5.74738-1.68-8.558q.35079-.06405.70058-.13c.21614,1.44031.39742,2.887.66055,4.3207.25349,1.37855.59127,2.74079.8912,4.11113C37.75674,141.04505,37.56557,141.129,37.375,141.215Z"/><path class="a" d="M44.69038,130.97043c-.15868,2.19179-.31459,4.38358-.47049,6.53467-.32113.02927-.4196.06819-.48347.0357-.077-.03681-.182-.14182-.17708-.20891.17431-2.13279.3606-4.26393.54412-6.39661C44.2995,130.94714,44.49433,130.95856,44.69038,130.97043Z"/><path class="a" d="M115.85778,66.884c1.196.33465,2.7337.75259,4.26274,1.19824a15.36773,15.36773,0,0,0,2.71748.83864c5.28176.4981,9.68854,3.20152,14.242,5.53514.92591.47592,1.9617.96216,1.59844,2.33306-.24429.93233-1.94274,2.19389-2.94327,1.776-1.69047-.706-2.87563.31292-4.3023.60965a29.93813,29.93813,0,0,1-6.18438.63893c-4.64882-.02117-9.29543-.23607-13.94147-.3769-4.17179-.12663-8.34147-.29673-12.51436-.37036-1.607-.02861-3.21661.14947-4.82469.23985-3.02233.1711-6.04256.40507-9.067.48191a4.47886,4.47886,0,0,1-2.39206-.70058,1.645,1.645,0,0,1,.13-2.97576,6.9214,6.9214,0,0,1,1.301-.57617c4.74895-1.666,9.44867-3.48839,14.26526-4.9287,4.35754-1.30325,8.832-2.22206,13.27293-3.23069A41.7597,41.7597,0,0,1,115.85778,66.884ZM85.05907,77.9684c.08339.23718.17.47215.25338.70978a35.30261,35.30261,0,0,0,5.38621-.04169,74.24857,74.24857,0,0,1,18.17669-.44931c1.039.092,2.08944.05089,3.13444.07906,3.98982.10712,7.98019.27333,11.9707.30749a31.61868,31.61868,0,0,0,6.23082-.37469c1.66818-.32379,3.52321-.71688,4.64449-2.50848a8.00479,8.00479,0,0,0-1.06828-.61454,103.78714,103.78714,0,0,0-16.84526-4.22645c-2.19878-.41039-4.33967-1.00386-6.715-.26258-2.97354.92857-6.14746,1.18893-9.18165,1.9546-3.95312.99788-7.87585,2.13325-11.76386,3.36287A30.544,30.544,0,0,0,85.05907,77.9684Zm29.44456-9.65c-.058.24417-.11643.4889-.17431.73141,2.10563.42126,4.21237.84252,6.93364,1.38608A8.83163,8.83163,0,0,0,114.50363,68.31836Z"/><path class="a" d="M89.17231,85.32119c3.45335-.04014,3.45335-.04014,4.46042-3.13444-3.21991-1.82408-4.32656,1.16143-6.056,2.92487a4.54912,4.54912,0,0,1,2.93351-4.41652,3.96271,3.96271,0,0,1,4.20483.8148,7.61435,7.61435,0,0,1,.63937.934c1.43809,2.08024,1.501,3.11437.25615,4.252-1.06662.97724-3.22969.92646-4.64172-.10235C90.37543,86.162,89.77176,85.74456,89.17231,85.32119Zm5.61475-1.12838c-.47371.56031-.947,1.1235-1.73094,2.05739C94.66254,86.13333,95.31278,85.75487,94.78706,84.19281Z"/><path class="a" d="M57.51056,89.944c-1.94318-.04657-3.13654-1.0634-3.06668-2.60916a2.56388,2.56388,0,0,1,2.79435-2.54c1.6032.10291,3.22969,1.48034,3.19664,2.70509A2.66939,2.66939,0,0,1,57.51056,89.944Z"/><path class="a" d="M50.4351,92.715a10.18265,10.18265,0,0,1-2.18747.21656c-.23719-.02329-.52139-.712-.57118-1.12129-.03626-.30161.27558-.64481.43146-.968.31681.18618.62809.37469.947.556.42835.24583.85983.484,1.29028.72608C50.37444,92.32192,50.40471,92.51742,50.4351,92.715Z"/><path class="a" d="M58.42937,92.60347c-.32323,1.34062-.86567,1.76021-1.98709.63083C57.27781,92.969,57.85387,92.78654,58.42937,92.60347Z"/><path class="a" d="M67.62688,86.13544c-.34652-.28643-.71633-.51652-.68872-.58637a1.90644,1.90644,0,0,1,.56309-.76069c.05577-.04546.56685.26968.55388.38822A3.39928,3.39928,0,0,1,67.62688,86.13544Z"/><path class="a" d="M162.59049,48.66244a34.52942,34.52942,0,0,1-.38655,3.66991,6.60239,6.60239,0,0,1-10.35617,3.65572,10.039,10.039,0,0,1-1.75911-1.44186,3.71833,3.71833,0,0,0-3.22215-1.48511c-2.16407.05789-3.83713-1.14136-5.32124-2.4506a4.47867,4.47867,0,0,1-1.16142-2.744,5.21965,5.21965,0,0,1,.63782-2.71529c1.70777-3.34934,5.2-4.54215,8.20174-6.12639,1.23994-.65512,3.43162-.16034,4.91628.46562,1.87887.79539,3.383,2.43707,5.219,3.384C161.81572,44.14136,163.68472,45.50261,162.59049,48.66244ZM161.59,50.61649c-1.10623-4.423-3.02513-7.77838-6.89907-9.64194a10.09209,10.09209,0,0,0-4.04948-.98435c-1.86467-.0357-2.36987.633-2.92375,2.43863a7.24222,7.24222,0,0,0,.549,5.25138c.73529,1.60764,1.91513,3.01313,2.65419,4.61966a2.94056,2.94056,0,0,0,2.346,1.78838,28.49241,28.49241,0,0,0,4.48582.58847,2.9896,2.9896,0,0,0,2.17116-.8587A17.33966,17.33966,0,0,0,161.59,50.61649ZM145.99805,42.4683A6.96963,6.96963,0,0,0,141.88692,45.9c-.79916,1.76831-.38822,3.28547,1.29626,4.03262a6.34275,6.34275,0,0,0,4.65093.48136C147.20815,47.69972,146.60338,45.08246,145.99805,42.4683Z"/><path class="a" d="M153.51873,82.56843c-.58693-2.42233-.28155-3.54583.99787-4.40942a1.88916,1.88916,0,0,1,2.535.503,2.82415,2.82415,0,0,1,.222,2.29192C156.79332,82.61722,156.21073,82.80561,153.51873,82.56843Z"/><path class="a" d="M170.97365,81.46666c-.17443,1.93242-.81,2.40447-2.72727,2.03466-.46184-.08927-.9259-.16511-1.38664-.25116-.97724-.1803-1.83218-.46994-1.87287-1.70555a2.3791,2.3791,0,0,1,1.93788-2.63523C169.57071,78.21046,171.17823,79.22619,170.97365,81.46666Zm-1.11,1.04111c-.14892-1.02814-.06764-2.143-.37691-2.26375a5.62286,5.62286,0,0,0-2.62214-.1629c-.26912.03138-.65833.7028-.63993,1.06341a1.338,1.338,0,0,0,.78775.947A18.83585,18.83585,0,0,0,169.86367,82.50777Z"/><path class="a" d="M156.56157,84.16143c1.55929-.49711,2.704-2.17017,4.48848-.93567.81435.5642,1.31678,2.65741.61786,3.36564a4.189,4.189,0,0,1-2.63733,1.15755C157.63908,87.77822,156.94812,86.64008,156.56157,84.16143Zm3.74132,2.48575c.91451-1.07161.888-1.93132.02007-2.43386-.38278-.22088-1.19114.08882-1.69634.36061-.30805.16788-.40607.72231-.69194,1.28429C158.84917,86.16305,159.54221,86.39369,160.30289,86.64718Z"/><path class="a" d="M45.08893,74.6959c.70378,1.04334,1.4088,2.08723,2.20962,3.27139-2.11759-.45963-2.22916-.6529-2.14309-3.33637Z"/><path class="a" d="M74.854,79.4178c.10226-.614.20681-1.22852.30916-1.8446,1.00541,1.03956.57929,1.53545-.372,1.78993Z"/><path class="a" d="M116.14744,45.95847c.61773-.23286,1.23559-.46451,1.86631-.70059-.43855-2.0218-.43423-2.00549,1.64379-2.66982.62219-.19871,1.19226-.55831,1.81112-.77266.97624-.33676,1.81388-.17054,2.66283,1.13482-3.16415-.59125-4.18808,1.15167-4.52318,3.69475h-3.28868C116.26276,46.41543,116.20486,46.18645,116.14744,45.95847Z"/><path class="a" d="M125.68815,44.42291c-.33735-.19816-.95731-.39088-.96108-.59336a19.64411,19.64411,0,0,1,.31682-2.7012c1.54577,1.10931.72928,2.28915.576,3.35743Z"/><path class="a" d="M115.00284,136.84078c-1.18793-.58637-2.37475-1.17274-3.952-1.94973C113.31681,134.61594,113.71046,134.786,115.00284,136.84078Z"/><path class="a" d="M84.39575,50.434a6.86394,6.86394,0,0,1-2.457-.02428c-1.84526-.74727-3.57133-1.78251-5.389-2.60595a45.65871,45.65871,0,0,0-5.22923-2.10841,6.10165,6.10165,0,0,0-5.4176.9156A10.91392,10.91392,0,0,1,61.45658,48.383c-2.33361.28975-3.70561,1.24315-4.06023,3.58763a4.18039,4.18039,0,0,1-.46295.94476c-.55876-.06166-1.17272-.1283-1.79648-.19538q-.85843,2.75475-1.72174,5.52915c-.17332.00865-.34763.01519-.52194.02217-.18306-.42558-.59556-.90472-.50842-1.26422.39633-1.65576.97458-3.26817,1.40715-4.91628.38168-1.46027,1.58968-.97624,2.61571-1.04178.56741-3.05482,2.60806-4.03528,5.37325-4.1485a4.05952,4.05952,0,0,0,2.398-.73629c3.51777-3.16094,7.271-2.27894,10.93544-.607,3.16415,1.44242,6.15677,3.25619,9.23964,4.89843Z"/><path class="a" d="M72.013,49.45883c.81169.33732,1.35637.51552,1.85181.78076a1.49194,1.49194,0,0,1,.61886,2.18048c-.50686,1.1153-1.98931,1.99729-2.70941,1.56794-1.07848-.64215-.66654-1.659-.47105-2.55717A16.34149,16.34149,0,0,1,72.013,49.45883Z"/><path class="a" d="M62.03375,53.42282c1.27021,1.13969,1.16087,2.143.6162,3.04284a1.57434,1.57434,0,0,1-1.42124.45375c-1.1051-.34763-1.64878-1.1479-1.15877-2.69045.62.65135,1.0715,1.12728,1.75046,1.84139C61.90113,55.08168,61.952,54.44774,62.03375,53.42282Z"/><path class="a" d="M73.21347,58.43923c-.57938.49433-.94.80237-1.30059,1.111-.19328-.27444-.57229-.57983-.53281-.81812a3.50129,3.50129,0,0,1,.614-1.08769C72.31784,57.855,72.64107,58.06665,73.21347,58.43923Z"/><path class="a" d="M67.42917,52.11845c.10945.65512.221,1.3108.38877,2.30922C66.43576,53.6946,66.4985,52.97117,67.42917,52.11845Z"/><path class="a" d="M193.91658,123.20347c2.7348-.01619,5.07221.73318,6.781,3.26007a10.444,10.444,0,0,0-4.76306,5.547,2.28054,2.28054,0,0,1-1.71476,1.14679c-2.46512.12341-4.94433.10933-7.41068.01186-2.64054-.10612-4.02985-1.82187-4.93357-4.1068a15.54834,15.54834,0,0,0-1.55552-3.253,3.87431,3.87431,0,0,1-.5306-4.28544,22.12357,22.12357,0,0,1,3.20419-4.65747c1.70289-1.797,6.65432-1.80735,8.6739-.28265.30261.22953.58848.48191.90961.68217,2.56425,1.59134,2.78736,2.29414,1.5869,4.98836A6.8293,6.8293,0,0,0,193.91658,123.20347Zm-10.44388,4.98891c-.1813,2.22749.60378,3.55614,2.93839,3.789a62.758,62.758,0,0,0,7.93218-.03637c.21978-.00588.42825-.46883.80016-.90739-2.09041-1.08558-4.17611-.29074-6.0402-.784C187.2423,129.76254,185.46689,128.939,183.4727,128.19238Zm.084-2.39a10.83232,10.83232,0,0,0,3.9308-6.768,1.66536,1.66536,0,0,0-1.40394-2.08245C185.15929,118.30127,183.47059,124.02492,183.55667,125.80243Zm5.44684-9.20449c-.62584,2.50848-1.20412,4.83511-1.81974,7.31055,2.31031-.6162,3.15981-2.417,3.84642-4.27525C191.69285,117.84054,191.20453,117.20061,189.00351,116.59794Zm3.67857,12.5576c-1.94163-1.12406-3.39968-1.92322-4.80961-2.79923-1.098-.68384-1.89129-.5052-2.63844.82622C187.0885,129.68458,189.68957,129.29737,192.68208,129.15554Zm-11.04755-3.953c.79373-2.11761,2.136-3.87672,2.23614-6.2986a4.08514,4.08514,0,0,0-3.0597,3.17447C180.45048,123.19049,180.30267,124.23549,181.63453,125.20254Zm16.80357.82078c-2.11971-1.88907-3.15928-2.00661-5.586-.784C194.93774,126.74231,194.93774,126.74231,198.4381,126.02332Zm-8.04082-2.73968c2.97351-1.2691,3.43647-2.24158,2.39147-4.87514C191.89921,120.22338,191.14873,121.753,190.39728,123.28364Zm2.42185,4.20594c.06055-.21878.11856-.43756.17919-.65623q-1.4116-.64254-2.82473-1.28318c-.09747.236-.1976.47315-.29773.70812Q191.34906,126.87472,192.81913,127.48958Z"/><path class="a" d="M110.31555,71.80142c-.5327.44178-1.06773.88688-1.71686,1.424.68162.242,1.15169.40929,1.80512.64215-.85117.725-1.54953,1.31944-2.25078,1.91612C106.57744,73.593,107.25806,72.08075,110.31555,71.80142Z"/><path class="a" d="M112.91451,76.26506q.981-2.4374,1.96159-4.87514c.2231.08927.44676.17864.66876.26746q-.99981,2.42842-2.00228,4.85884Q113.229,76.39115,112.91451,76.26506Z"/><path class="a" d="M123.51751,73.90484q-.8373,1.4855-1.67517,2.96766c-.48413-1.53556.38489-2.40125,1.117-3.333C123.145,73.66066,123.33122,73.78419,123.51751,73.90484Z"/><path class="a" d="M124.57382,74.48644c.45164.65512.78785.96427.85871,1.32487.03581.18186-.41414.45752-.64479.69028-.229-.25-.5794-.4726-.64915-.76235C124.07738,75.4832,124.32477,75.15287,124.57382,74.48644Z"/><path class="a" d="M103.34021,76.47619c-.33619-.49267-.67242-.98545-1.175-1.7234C103.60068,74.67262,103.7577,75.35757,103.34021,76.47619Z"/></svg>