<svg xmlns="http://www.w3.org/2000/svg" viewBox="0 0 300 300"><defs><style>.a{fill:none;}.b,.c{fill-rule:evenodd;}.c{fill:#fff;}</style></defs><title>gl_nav20</title><rect class="a" x="7.51172" y="12.1763" width="281.83687" height="281.8359"/><path class="b" d="M27.3872,252.5835c.4326-3.731,1.8618-4.6265,3.2188-5.3291,2.833-1.4634,5.6743-2.7412,8.5146-4.0571,2.1821-1.0113,4.3672-2.1162,6.5483-2.9121,4.0547-1.4786,8.1075-2.6333,12.1622-4.1607,4.5454-1.7153,9.0908-3.6089,13.6342-5.5757,9.0913-3.9336,18.187-7.7314,27.2661-12.0307a184.63669,184.63669,0,0,1,27.2754-10.6748c5.105-1.4805,10.1875-2.188,15.2911-3.6192,7.8637-2.2065,15.7343-4.3843,23.6059-7.2202,9.582-3.4521,19.1777-7.1738,28.749-11.5146,10.8682-4.9297,21.71779-10.6329,32.57029-16.1075a31.76842,31.76842,0,0,0,5.0127-3.4492,9.08332,9.08332,0,0,0,2.34721-10.9087,17.7735,17.7735,0,0,0-3.47311-5.2514c-3.1973-3.1836-6.5913-5.8472-9.8003-8.9996-3.208-3.1459-7.0381-3.8325-10.5537-5.7509-3.5196-1.9175-7.13089-3.4893-10.669-5.334-4.62349-2.4146-9.22359-4.8609-14.08059-6.3623-7.1792-2.2178-14.2636-4.9107-21.3515-7.5708a43.14476,43.14476,0,0,1-7.8457-3.8482,9.14068,9.14068,0,0,1-2.9195-3.9179c-1.3354-2.9512-.3505-6.9942,1.586-8.3794,3.583-2.5655,7.1308-5.6724,10.7441-7.6988,5.8946-3.3022,11.8262-5.7363,17.6963-5.8598a5.73941,5.73941,0,0,0,1.7002-.4116c9.7061-3.4537,19.22459-4.003,28.76949-4.9742,4.7906-.4882,9.544-.4585,14.3531-1.2749,7.94721-1.3471,15.5757-.3056,23.291.2129,5.8955.397,11.9165-.1133,17.8965-.3711a19.76946,19.76946,0,0,1,7.9443.9302c-1.2358,2.1279-2.2617,1.7847-3.1909,1.7564-4.57569-.1402-9.209.2714-13.7564-.2002-4.3588-.4546-8.9077.4165-13.36229.6035-5.67771.2383-11.44581,2.0278-17.17181,3.1006-7.3399,1.372-14.627,1.8896-21.9517,2.9785a77.28374,77.28374,0,0,0-11.627,2.4712,139.08511,139.08511,0,0,0-13.1259,5.102,25.86372,25.86372,0,0,0-4.3228,2.8755,7.38206,7.38206,0,0,0-2.7075,5.0615c1.3955,4.8511,4.0269,6.0567,6.7114,7.4668,7.7085,4.0459,15.84819,5.8086,24.0913,7.1197a47.73363,47.73363,0,0,1,15.47809,5.5781c6.4672,3.5483,13.0537,6.6489,19.5424,10.1157a67.09478,67.09478,0,0,1,7.8023,5.0034c5.4321,3.9541,10.8916,7.8379,16.1797,12.2241a34.82838,34.82838,0,0,1,8.7236,11.5879,15.33714,15.33714,0,0,1,1.1343,9.6949c-.4917,2.9194-.8032,5.9038-1.4575,8.7534-1.5577,6.79-4.2154,11.7334-7.8575,15.6513a43.96668,43.96668,0,0,1-11.0878,8.6758c-12.7725,7.127-25.4458,15.4903-38.1133,23.9532-7.1324,4.7646-14.3194,9.0078-21.50049,13.1782-10.2505,5.9521-20.5288,11.5102-30.7803,17.456-6.2114,3.6016-12.3848,7.7837-18.5962,11.3882-4.3511,2.5235-8.7353,4.5571-13.1079,6.7197-3.3193,1.6416-6.7539,4.2286-9.9346,4.3926-3.1362.1592-5.9672-2.4419-9.0205-3.4053-8.9189-2.811-17.9082-5.2802-26.8105-8.1718a42.51038,42.51038,0,0,1-8.0259-4.1641c-5.6743-3.3437-11.7656-4.5605-17.9639-5.1992a45.32765,45.32765,0,0,1-15.3296-3.874c-2.6005-1.25-5.5249-1.1734-8.247-1.9786C34.1572,255.0923,30.8882,253.8105,27.3872,252.5835Zm109.4141-45.7573c-.0088.1845-.0171.3701-.0264.5556q1.6509-.3339,3.3022-.6694c.0088-.1538.0196-.3101.0293-.4653Q138.4549,206.53705,136.8013,206.8262Zm-2.315,23.7568c.0132-.2402.0254-.4805.0381-.7222q-.67965.33765-1.3603.6744c.0024.1889.0058.3779.0078.5664Q133.82965,230.843,134.4863,230.583Z"/><path class="b" d="M154.2212,189.5977c-3.5156-.7725-6.4107-2.5674-9.9048-3.5284.5278-.6738.9043-1.1552,1.2734-1.6269,2.6128.8721,5.0972,1.7007,7.608,2.5386,2.27-3.4981,2.8984-7.334,3.435-11.3101-1.6699-1.0293-4.1025-.1812-5.7881-1.8545,1.1773-1.1533,2.398-.5742,3.5049-.625,1.1118-.0508,2.228-.0112,3.2617-.0112,1.0987-2.6446,1.6231-8.2959,1.021-10.4698q-3.12375.09525-6.2671.1924c-2.2856.0703-2.6308-.3452-2.1631-2.8647,2.7413-.2525,5.544-.5117,8.4957-.7847a33.52586,33.52586,0,0,0-1.5508-11.5625c-2.0772.523-4.0244,1.0132-6.0894,1.5332-.1987-.6782-.3393-1.1543-.5561-1.8965,1.8134-.4633,3.5171-.8989,5.3173-1.3593a4.06558,4.06558,0,0,0,.2676-1.4873,24.22234,24.22234,0,0,0-3.7915-9.4478c-.9917.4756-1.9785.9629-2.9775,1.4258-1.0791.5005-2.1445,1.0415-3.2569,1.4507-1.5131.5571-1.6953.4424-2.7192-1.2139,2.2886-1.8735,5.0449-2.9897,7.8096-4.4995-2.0923-3.0596-4.1157-6.0191-6.1143-8.9409-1.3764.831-2.6401,1.6401-3.9565,2.3525a1.32124,1.32124,0,0,1-1.1934-.0141c-.5405-.48-.1323-.959.3115-1.2984.6827-.52,1.3912-1.0049,2.0909-1.5034.4668-.3325.938-.6602,1.5341-1.0791-2.7172-3.0171-5.1367-6.0469-8.2412-8.5195-1.7446,1.9668-3.4131,3.8359-5.0664,5.7187-.6504.7412-1.3105,1.1275-2.2929.0776.7446-1.226,1.4355-2.562,2.3154-3.7592.8896-1.2105,1.9663-2.2818,3.1348-3.6114-3.4097-2.2373-6.9297-3.9013-10.4512-6.1313-.5821,1.4643-1.0401,2.6147-1.4976,3.7651-.4541,1.1407-.5464,1.1826-2.3896.9185.7666-1.6973,1.5049-3.3306,2.2856-5.0576a47.5783,47.5783,0,0,0-10.9477-3.4908c-.981,2.4175-1.0254,5.1246-2.814,7.3047-.6455-.4082-1.2324-.7783-1.8623-1.1777.4502-2.2192.8789-4.334,1.3325-6.5732-3.5688-1.0655-7.1235-.9312-10.7778-1.4913,0,1.0601.0141,1.837-.0039,2.6119-.0166.6987.2119,1.6001-.7969,1.7622-1.1328.1821-.979-.8423-1.1191-1.4825-.169-.769-.2203-1.5629-.3374-2.4628-3.7681-.6597-7.3999.1748-11.2769.6709.2031,1.0297.3716,1.8515.5273,2.6762.2198,1.1665.4952,2.3272.6304,3.5044.2315,2.0039.1074,2.1128-2.2637,2.5244-.5761-2.5078-1.1567-5.0361-1.7768-7.7314-3.7383.751-6.937,2.269-10.2808,3.6186.1372,1.6773,1.0337,2.9952,1.833,4.4703-.6303.2514-1.0957.4365-1.7158.6855-.7568-1.3144-1.4697-2.5537-2.3198-4.0303a31.30533,31.30533,0,0,0-9.7046,5.2603c1.3135,1.915,2.5571,3.6982,3.7681,5.5039.9912,1.478.9594,1.5664-.6636,2.9902-2.2026-1.6826-2.9844-4.6216-5.5034-6.4028-2.4741,2.2236-4.999,4.4922-7.3228,6.5806,1.0572,1.2231,1.9776,2.3003,2.9136,3.3642.374.4263.6904.8687.2373,1.3887-.4639.5347-.9331.2397-1.395-.0811-1.0806-.7514-2.1753-1.4843-3.251-2.2158a16.93869,16.93869,0,0,0-5.2383,7.9756c1.5991.9175,3.2486,1.8652,4.9004,2.8091,1.7437.9956,1.7847,1.1616.6055,3.2666-2.2949-1.0161-4.6192-2.0454-7.1343-3.1597a65.0932,65.0932,0,0,0-3.9453,9.7715c1.4111.6567,2.7251,1.2183,3.9922,1.873,1.06.5484,1.0459.6919.2099,1.9458-1.5551-.4233-3.1196-.8491-4.8706-1.3256A39.68393,39.68393,0,0,0,33.1528,158.04c2.6709.2022,5.2818.3999,8.1309.6158v2.1577h-8.124c-.7676,3.7729.2422,7.393.185,10.958a2.30871,2.30871,0,0,0,2.5782-.0625c1.018-.5576,1.8413-.0938,2.7001.2202.0137.1548.0279.3091.0411.4629-1.4756.4092-2.9512.8169-4.5684,1.2642-.1299,4.1357.9663,7.934,2.4067,11.9033,2.3111-.96,4.4634-1.855,6.7198-2.793.4614.8647.791,1.4834,1.1943,2.2412-.499.2368-.8872.4248-1.2788.6055-1.6807.772-3.3662,1.5322-5.042,2.3139-1.2832.5982-1.8979.4585-2.6372-.7548a8.3703,8.3703,0,0,1-.9312-1.9654,49.93165,49.93165,0,0,1-2.4409-11.5927c-.186-3.8907-.6914-7.772-.728-11.6612a73.50637,73.50637,0,0,1,1.0894-11.6181,81.22466,81.22466,0,0,1,4.2661-15.0166,25.493,25.493,0,0,1,2.7363-5.4883c2.4668-3.7368,4.7349-7.6211,8.2036-10.6294,3.0391-2.6353,5.6748-5.7603,8.8311-8.231a50.6886,50.6886,0,0,1,16.6591-8.9468c3.4732-1.0395,6.8936-2.3564,10.4356-3.0395a61.5022,61.5022,0,0,1,11.0229-1.0469,86.45629,86.45629,0,0,1,12.439.7412,89.44835,89.44835,0,0,1,9.6084,2.3775c5.1943,1.3066,9.7476,4,14.2012,6.8022a75.77516,75.77516,0,0,1,7.8359,6.0225,64.33693,64.33693,0,0,1,8.3511,8.6719,34.107,34.107,0,0,1,4.3979,6.5717,29.03268,29.03268,0,0,0,1.9483,2.9463,6.656,6.656,0,0,1,.6841,1.189,130.754,130.754,0,0,1,5.5722,18.1504c1.2871,5.5156.8448,10.9946.3936,16.477a94.12232,94.12232,0,0,1-1.8389,11.3282,35.151,35.151,0,0,1-1.9297,5.3676C155.6499,186.1733,154.9795,187.7432,154.2212,189.5977Z"/><path class="b" d="M106.813,166.2124c-1.9668-.9111-3.8726-1.7939-5.7783-2.6768-1.2383-.5732-2.3535-1.1909-3.9014-.5708a2.66823,2.66823,0,0,1-3.4082-1.6616,4.17411,4.17411,0,0,0-2.333-2.2441c-6.7583-3.1528-13.5029-6.336-20.2559-9.499-2.4507-1.148-4.9428-2.2076-7.3584-3.4239a5.6595,5.6595,0,0,1-3.1333-2.9712c3.0733-.0122,5.459,2.0503,8.1084,1.8999a9.02507,9.02507,0,0,0,1.5376,1.4004c2.0904,1.1236,4.2051,2.2056,6.3472,3.2222,3.2173,1.5269,6.4746,2.9663,9.6987,4.4795,2.2061,1.0361,4.3701,2.1655,6.5884,3.1758a2.20206,2.20206,0,0,0,1.4453-.0635c2.4844-.8218,3.5469-.3809,4.8408,1.9458a3.228,3.228,0,0,0,1.3345,1.3213c1.7891.8345,3.6343,1.5532,5.4678,2.291C108.3931,163.7944,108.3965,163.7837,106.813,166.2124Z"/><path class="b" d="M79.9219,142.2236c.0552-2.0215.1118-4.0434.1655-5.9839,3.439-1.1118,5.8447-.9838,7.8355.3975,2.436-1.206,4.9365-.0298,7.5424-.0298.6993,2.1675.3438,4.3135.2325,6.5728-2.356,1.7749-4.8882.2866-7.4786.5781-.0981-1.8159-.1801-3.3477-.2631-4.8789-.1397-.0024-.2793-.0059-.4195-.0083-.0932,1.5127-.187,3.0249-.2861,4.6338a14.21229,14.21229,0,0,1-6.1235.0991c-.8169-.168-.9209-.8413-1.1973-1.415Zm10.0801.5562c1.3735.2153,2.3535.5356,3.4838-.0542-.58-.4795-.9956-.8242-1.3754-1.1397.5708-1.291,1.0878-2.4633,1.6098-3.644-2.0444-.7534-3.4507-.2363-3.5293,1.1099,1.4307-.3833,1.4307-.3833,2.169.2241C91.6411,140.3433,90.9194,141.4165,90.002,142.7798Zm-7.7457-3.6568c.5992.0284,1.2017.0572,1.8321.0874.0884.7857.1592,1.4107.2295,2.0357.0356-.0049.0713-.0107.1064-.0161.0659-1.3423.1314-2.6851.2002-4.0698C82.4155,137.4536,82.3774,137.4888,82.2563,139.123Z"/><path class="b" d="M79.9297,142.189c-1.2974,1.6523-1.3052,1.6381-3.6826,1.3379-1.5576-.1968-3.1231-.3311-4.7803-.5035v-7.0503h7.5381c.2949,2.0059.6059,4.1182.916,6.2408C79.9219,142.2236,79.9297,142.189,79.9297,142.189Zm-4.1597-.0044v-5.0171c-.9238.3091-1.6929.5669-2.5879.8667,1.3164.9516,1.3057.9521,1.3711,2.6089C74.5767,141.2427,74.3311,142.021,75.77,142.1846Z"/><path class="b" d="M112.1733,144.1865c-2.4736,0-4.5786.0078-6.6836-.0039-.8481-.0049-1.1679-.5762-1.165-1.3066.0093-1.9048.0737-3.8086.1187-5.8286a12.87823,12.87823,0,0,1,7.2968.2739C111.8833,139.5894,112.0225,141.793,112.1733,144.1865Zm-3.1587-5.8218c-1.0112-.0415-2.0312-.6386-2.6728.5865-.0654.123.0547.3437.1094.6269.498-.2929.9223-.5439,1.7075-1.0068.2148.4448.4346.9018.6548,1.3589.0957-.0664.1919-.1338.2881-.2007C109.0742,139.2988,109.0464,138.8672,109.0146,138.3647Zm-.1616,2.5557c-.1577.0742-.3164.1494-.4746.2232q.2784.6957.5562,1.3911c.1318-.0484.2636-.0977.396-.146Q109.09105,141.65475,108.853,140.9204Z"/><path class="b" d="M119.9521,144.9658c-.7021,0-1.1523.0352-1.5966-.0068-1.3003-.1206-2.5962-.3135-3.8999-.3985-.9566-.0634-1.4034-.4501-1.4605-1.4458-.1167-2.0219-.3266-4.038-.4971-6.0546,1.4053-.5279,3.4322-.5308,7.4268.0229A35.83651,35.83651,0,0,1,119.9521,144.9658Zm-5.2895-2.1343a2.98449,2.98449,0,0,0,2.6821.7505.74633.74633,0,0,0,.6592-1.1406,3.34391,3.34391,0,0,1,.0151-3.3887c-1.0722-.1181-1.9594-.434-2.8974.1875.6313.0904,1.2641.1807,1.7241.2452v3.1586C116.2822,142.6924,115.582,142.7524,114.6626,142.8315Z"/><path class="b" d="M103.6196,137.0698a18.84532,18.84532,0,0,1,.1944,6.9273c-2.128,0-4.0166.0102-5.9063-.0039a1.3152,1.3152,0,0,1-1.418-1.3433c-.0883-1.6421-.1416-3.292-.0791-4.9336.0152-.3979.5118-1.0952.8233-1.1157C99.3477,136.459,101.5303,135.7803,103.6196,137.0698Zm-4.8349,5.5606q.10755.1728.2153.3452c.4512-.1109,1.0996-.0742,1.3154-.3623a17.90566,17.90566,0,0,0,1.2681-2.3457,1.46677,1.46677,0,0,0-.2632-1.9556c-.7925-.7661-1.624-.3159-2.3896-.0483a1.23932,1.23932,0,0,0-.8262,1.789c.4097-.3584.7002-.5947.9707-.852a.94442.94442,0,0,1,1.4048-.083c.5503.4717.2768.8886-.0933,1.3447C99.8213,141.1597,99.3154,141.9053,98.7847,142.6304Z"/><path class="b" d="M85.4033,111.1069a9.24293,9.24293,0,0,1,.8633-.6611c1.3989-.7773,2.7368-.1821,2.8745,1.3691a5.73531,5.73531,0,0,1-2.1191,4.8692.95617.95617,0,0,1-1.5425-.1475c-.2656-.3657-.4683-.7783-.7437-1.2446a15.39719,15.39719,0,0,1-1.559.7607c-1.1587.417-2.0176-.1147-2.0249-1.3242a7.45406,7.45406,0,0,0-.0992-2.4697c-.2617-.8047,1.3882-2.3648,2.5747-2.6333C84.665,109.3916,85.292,109.8086,85.4033,111.1069Zm2.2891.064c-1.5801.6465-2.0249,2.0435-1.2827,4.0166C87.8564,114.2041,88.125,112.873,87.6924,111.1709Zm-5.5381,3.4014c.7402.6396,1.1963.3984,1.5308-.2066a.53244.53244,0,0,0-.1265-.5039C82.8496,113.4453,82.5034,113.895,82.1543,114.5723Z"/><path class="b" d="M140.3027,182.772c-.2968.3095-.5337.6015-.813.8418-.9218.7964-1.7021.8725-2.4692.2695a1.85131,1.85131,0,0,1-.5151-2.4126,7.14659,7.14659,0,0,0,.2881-1.6807,2.15305,2.15305,0,0,1,1.2358-2.0722c.9355-.3833,1.4722.2134,2,.7163.4985.8491-1.0503,1.9868.6016,2.6592.2636-.7027.4853-1.4253.8007-2.1031.3492-.75.8506-1.3803,1.8257-1.1342a1.56877,1.56877,0,0,1,1.1665,1.6313,5.23982,5.23982,0,0,1-1.1967,4.2315c-1.0582,1.1269-1.7042,1.0214-2.5303-.3838C140.6001,183.1709,140.4785,183.022,140.3027,182.772Zm3.0371-4.1538c-1.6562,1.6606-1.9008,2.5498-1.164,3.9902C143.3149,181.5679,144.0425,180.4521,143.3398,178.6182Zm-3.8256.519c-.3433-.2432-.5977-.5161-.69-.4697a2.03678,2.03678,0,0,0-.7016.6377c-.0357.0508.3398.5136.3984.4892A6.49968,6.49968,0,0,0,139.5142,179.1372Z"/><path class="b" d="M144.335,159.5557c-2.3101-.5498-2.5494-.3745-3.0157,2.0503a1.81615,1.81615,0,0,0,.542.0219c.6499-.1694,1.3306-.3901,1.7959.291.5274.7706.166,1.5108-.2339,2.2124a1.92444,1.92444,0,0,1-.3632.4649c-.5777.5288-1.1333,1.2056-2.0406.874a1.90407,1.90407,0,0,1-1.1977-2.0762,7.39331,7.39331,0,0,1,1.9394-4.8432C142.9209,157.3457,143.7354,157.6353,144.335,159.5557Zm-1.6216,2.9052c-1.4712.5567-1.9409.9644-1.7559,1.564.0601.1973.4024.4912.5357.4531A1.48841,1.48841,0,0,0,142.7134,162.4609Z"/><path class="b" d="M70.3545,120.5947a5.93688,5.93688,0,0,1-1.4019,3.9341,1.33657,1.33657,0,0,1-2.2788-.2432c-.895-1.5253.3399-4.8574,2.0523-5.3247a1.56,1.56,0,0,1,1.2998.4922A2.44835,2.44835,0,0,1,70.3545,120.5947Zm-1.1997.5762c-1.4092.9785-1.4092.9785-.8652,2.7778C68.6455,122.8062,68.8999,121.9883,69.1548,121.1709Z"/><path class="b" d="M144.9165,165.4521a6.33557,6.33557,0,0,1-.2544-2.4096,25.36173,25.36173,0,0,1,1.8442-4.0972,1.32551,1.32551,0,0,1,1.7022-.6182,1.09947,1.09947,0,0,1,.7417,1.4209,26.68607,26.68607,0,0,1-1.0811,4.1431A2.62685,2.62685,0,0,1,144.9165,165.4521Zm.9575-.8876a4.47545,4.47545,0,0,0,2.0508-4.3189C146.1064,160.5508,145.3657,162.0376,145.874,164.5645Z"/><path class="b" d="M52.4609,159.5161a21.78192,21.78192,0,0,1-.688,2.3985,2.49128,2.49128,0,0,1-2.0146,1.6904c-.9775.1367-1.6924-.2612-1.6157-1.2075a21.109,21.109,0,0,1,.8432-4.2095c.2095-.7168,1.7598-1.1401,2.5977-.8941C52.6455,157.606,52.4004,158.4888,52.4609,159.5161Zm-1.7212-.8686c-1.5473,1.2812-1.8339,2.4624-.9433,3.9013C51.541,161.4097,51.8784,160.0166,50.7397,158.6475Z"/><path class="b" d="M46.4414,176.9063c2.5972.7495,4.0654,4.2641,2.6172,6.4174a2.12871,2.12871,0,0,1-1.4126.8565c-.3438.0254-.8628-.5191-1.082-.9282A7.32451,7.32451,0,0,1,46.4414,176.9063Zm1.4819,5.4516c1.2354-1.688,1.063-2.6411-.788-4.3652C46.2056,179.4702,46.4741,180.957,47.9233,182.3579Z"/><path class="b" d="M139.4185,141.4824a25.76307,25.76307,0,0,1,1.4287-3.3745c.561-.9785,1.5273-.876,2.2656.0357,1.3613,1.6816.1352,5.0703-1.9795,5.4697C140.1396,143.8008,139.4419,143.1299,139.4185,141.4824Zm1.7993,1.023c1.7851-1.5952,1.978-2.439.9707-3.6944C141.1323,140.0264,140.9746,140.5781,141.2178,142.5054Z"/><path class="b" d="M47.5742,139.4868a7.7894,7.7894,0,0,1,3.9561-4.04,8.26271,8.26271,0,0,0-.2583,2.1191,6.12709,6.12709,0,0,0,.875,1.6968c-2.0376.4731-1.0166,2.7217-2.125,4.1714-.7163-1.396.081-2.5498-.1309-3.7388C49.1431,139.6279,48.4429,139.5654,47.5742,139.4868Zm2.7813-1.5991c-.1026-.1089-.2056-.2188-.3076-.3286-.2867.2607-.5718.52-.8575.7807.107.1153.2134.229.3194.3438Q49.9331,138.28655,50.3555,137.8877Z"/><path class="b" d="M109.2573,111.8398a4.317,4.317,0,0,1-1.4511,3.3321c-1.0391.9092-2.3843.5122-2.4654-.8521a9.37978,9.37978,0,0,1,.6514-3.4067,1.60431,1.60431,0,0,1,1.8369-1.1724A1.9802,1.9802,0,0,1,109.2573,111.8398Zm-1.0649-.6108c-2.02,1.4844-2.2876,2.1895-1.3892,3.5903A3.4048,3.4048,0,0,0,108.1924,111.229Z"/><path class="b" d="M134.2524,121.959a5.68639,5.68639,0,0,1-2.3979,3.9336c-1.0239.7129-1.8291.4721-2.0654-.6905a5.69922,5.69922,0,0,1,1.416-4.9277,1.37119,1.37119,0,0,1,1.9668-.2012A6.93511,6.93511,0,0,1,134.2524,121.959Zm-1.3715-1.0684c-1.9458.3731-1.7935,2.0288-2.3067,3.2085-.0805.1846.1778.6714.4004.7896a.93652.93652,0,0,0,.8692-.1407A3.49478,3.49478,0,0,0,132.8809,120.8906Z"/><path class="b" d="M43.3706,163.8623c.3442-2.1602,2.3189-3.5088,2.2793-5.7944-.647-.1148-1.2485-.2217-1.9292-.3418.8027-.895,1.2495-.9829,2.1587-.5586a1.22077,1.22077,0,0,1,.7407,1.7544c-.293.73-.5586,1.4717-.8384,2.208-.1811.4731-.3676.9448-.6001,1.5449.8746.0405,1.5743.0737,2.3189.1084C46.71,164.2197,46.4063,164.2964,43.3706,163.8623Z"/><path class="b" d="M113.6875,111.7188a5.318,5.318,0,0,1-1.8574,3.8823,1.1621,1.1621,0,0,1-1.9644-.3306,2.56562,2.56562,0,0,1-.1513-2.6177c.291-.5844.6503-1.1352.9326-1.7231a1.47055,1.47055,0,0,1,1.8882-.9609C113.4395,110.2402,113.6094,111.0195,113.6875,111.7188Zm-2.6772,3.4257a14.54415,14.54415,0,0,0,1.0542-2.1528c.1992-.6782,1.6054-1.0591.5502-2.0591C110.6426,111.9092,110.1699,112.9634,111.0103,115.1445Z"/><path class="b" d="M138.2651,136.0366c.6807,1.9873-1.3359,3.6568,1.3374,5.0318-2.6352.2094-1.6982,2.3632-3.0234,3.5214v-2.9682c-.7144-.2363-1.3735-.4561-2.312-.7681C135.3579,139.0117,137.0366,137.9502,138.2651,136.0366Zm-1.5605,3.0586c-.3013.3779-.6035.7573-1.0464,1.312C136.8501,140.2856,136.8501,140.2856,136.7046,139.0952Z"/><path class="b" d="M52.4331,140.3931a21.67862,21.67862,0,0,1,1.5425-3.5152c.7969-1.2143,1.9712-.9282,2.4614.4532a5.02591,5.02591,0,0,1-1.331,4.6665,2.032,2.032,0,0,1-1.5547.4824c-.3931-.1446-.5801-.8906-.8174-1.3906a1.65341,1.65341,0,0,1-.0396-.5835Zm1.3916,1.0757a2.62423,2.62423,0,0,0,1.1782-4.1651C53.9258,138.5132,53.1895,139.7622,53.8247,141.4688Z"/><path class="b" d="M64.8633,119.3916c-.4619.5635-.9238,1.127-1.5508,1.8916.7456.168,1.3208.2979,2.1738.4897a12.78974,12.78974,0,0,1-.6206,2.4869c-.5869,1.2265-1.9179,1.184-2.6313-.0005C61.2593,122.6431,62.6255,119.6475,64.8633,119.3916Zm-.8096,3.3618c-.6235.0103-1.0293.2388-.8721.9072a.66356.66356,0,0,0,.5611.3257C64.3408,123.7354,64.3623,123.2764,64.0537,122.7534Z"/><path class="b" d="M126.8193,124.562c.5874.084,1.1538.1655,1.7935.2573-.9932.9717-1.9898,1.2237-3.7481.98.6724-1.2334,1.337-2.4541,2.0606-3.7798-.8584-.4028-1.4746-.6924-2.147-1.0073a1.304,1.304,0,0,1,1.8628-.9521,1.44729,1.44729,0,0,1,1.0464,1.8584C127.4551,122.7988,127.1221,123.6533,126.8193,124.562Z"/><path class="b" d="M135.27,165.6001c.2739-1.4497.5488-2.8994.8286-4.3755-.3896-.0937-.7207-.1728-1.3247-.3183.9414-.8218,1.6924-1.4786,2.4429-2.1348.1367.0644.2739.1274.4121.1914,0,.4653.1641,1.0176-.0288,1.3789-.9077,1.7002.166,4.1016-1.8057,5.4058C135.6196,165.6987,135.4443,165.6494,135.27,165.6001Z"/><path class="b" d="M121.0269,121.8687h-1.3028a1.00454,1.00454,0,0,1-.0888-.2281,9.9728,9.9728,0,0,1,2.1245-1.5864c.5835-.2422.8755.46.8154,1.0249-.1504,1.4258-.3447,2.8467-.5713,4.2617-.0264.1631-.3696.2764-.6855.4951C120.5293,124.4932,121.3589,123.1572,121.0269,121.8687Z"/><path class="b" d="M101.1318,116.3916c.0518-1.1147.0562-1.9453.1377-2.7695.1226-1.2495.1451-1.2471-.9072-2.21a17.01033,17.01033,0,0,1,1.9385-1.2886.59.59,0,0,1,.8852.6587c-.3769,1.7251-.8657,3.4248-1.3286,5.1294C101.8345,116.002,101.6572,116.0513,101.1318,116.3916Z"/><path class="b" d="M130.8594,143.2266c.2397-1.2037.5371-2.399.6933-3.6128a2.1911,2.1911,0,0,0-.6152-1.6211c.147-.2056.2798-.4234.4429-.6162.3506-.4141.7778-.8828,1.2929-.3619a1.54118,1.54118,0,0,1,.2613,1.1866c-.2276,1.2929-.5288,2.5752-.8579,3.8471a7.94458,7.94458,0,0,1-.6031,1.3228C131.2686,143.3232,131.0645,143.2744,130.8594,143.2266Z"/><path class="b" d="M134.4644,178.0483c-.252,1.7745-.0396,3.6329-1.0503,5.4595-1.4502-1.124.2207-2.7666-1.1709-3.6567.6342-.7652,1.1631-1.4043,1.6928-2.0435Z"/><path class="c" d="M52.833,267.7964c-3.1294.375-6.0488.7251-9.1118,1.0918-.3018.4009-.8867.8545-1.0254,1.418-.501,2.0371-2.2759,2.5976-3.8169,3.1391-2.3945.8428-4.3267-.5923-6.0078-2.0771a5.7925,5.7925,0,0,1-2.0039-2.9175c-.3257-1.9414-1.6919-2.2959-3.0864-2.8452-1.396-.5493-2.7652-1.3013-4.2495-.1031a39.521,39.521,0,0,1-1.9122-14.0283,114.037,114.037,0,0,1,1.4463-12.1054,44.43643,44.43643,0,0,1,6.3101-15.9405c1.0425-1.7046,2.1162-3.3906,3.2046-5.0664a7.53732,7.53732,0,0,1,4.207-3.2222c13.2847-4.4492,26.9219-5.1538,40.7481-4.2954,3.3501.208,6.7085.3145,10.0649.378a117.71931,117.71931,0,0,1,17.1206,1.9721c5.5103.9195,11.0742,1.5152,16.6113,2.273,4.9038.6709,9.7989,1.4092,14.709,2.0317,1.4019.1773,1.876.9702,2.1055,2.1792.6094,3.211.9126,6.5313,1.9585,9.5957,1.5439,4.5244,1.5137,9.2906,2.6772,13.8545a10.17026,10.17026,0,0,1,.0235,3.5772,3.75956,3.75956,0,0,1-2.5362,3.396c-2.6508,1.0786-5.1181,2.6035-7.6845,3.8969a17.77889,17.77889,0,0,1-2.0791.7637c-1.0996,1.6397-2.1568,3.3106-3.3164,4.9067a2.55728,2.55728,0,0,1-2.6553,1.1944,8.5354,8.5354,0,0,0-2.8013.5151,5.78763,5.78763,0,0,1-6.6099-2.6758c-.2128-.3271-.4516-.6377-.7753-1.0927-2.7447.4941-5.4771,1.0346-8.2261,1.4702-8.1187,1.2856-16.2368,2.5835-24.3716,3.7583-2.4717.3569-4.1328,1.2803-4.8018,3.8642a11.68887,11.68887,0,0,1-3.5249,5.6221c-.1757.1621-.4663.2949-.5141.4883-.5488,2.2197-2.4268,2.2783-4.1045,2.3672-1.9702.105-3.957-.0918-5.936-.1768-.315-.0132-.6465-.2309-.9351-.1748-2.2105.4331-4.0396-.5044-5.8057-1.6015C54.2344,272.0503,53.5498,270.0581,52.833,267.7964Z"/><path class="b" d="M52.833,267.7964c-3.1294.375-6.0488.7251-9.1118,1.0918-.3018.4009-.8867.8545-1.0254,1.418-.501,2.0371-2.2759,2.5976-3.8169,3.1391-2.3945.8428-4.3267-.5923-6.0078-2.0771a5.7925,5.7925,0,0,1-2.0039-2.9175c-.3257-1.9414-1.6919-2.2959-3.0864-2.8452-1.396-.5493-2.7652-1.3013-4.2495-.1031a39.521,39.521,0,0,1-1.9122-14.0283,114.037,114.037,0,0,1,1.4463-12.1054,44.43643,44.43643,0,0,1,6.3101-15.9405c1.0425-1.7046,2.1162-3.3906,3.2046-5.0664a7.53732,7.53732,0,0,1,4.207-3.2222c13.2847-4.4492,26.9219-5.1538,40.7481-4.2954,3.3501.208,6.7085.3145,10.0649.378a117.71931,117.71931,0,0,1,17.1206,1.9721c5.5103.9195,11.0742,1.5152,16.6113,2.273,4.9038.6709,9.7989,1.4092,14.709,2.0317,1.4019.1773,1.876.9702,2.1055,2.1792.6094,3.211.9126,6.5313,1.9585,9.5957,1.5439,4.5244,1.5137,9.2906,2.6772,13.8545a10.17026,10.17026,0,0,1,.0235,3.5772,3.75956,3.75956,0,0,1-2.5362,3.396c-2.6508,1.0786-5.1181,2.6035-7.6845,3.8969a17.77889,17.77889,0,0,1-2.0791.7637c-1.0996,1.6397-2.1568,3.3106-3.3164,4.9067a2.55728,2.55728,0,0,1-2.6553,1.1944,8.5354,8.5354,0,0,0-2.8013.5151,5.78763,5.78763,0,0,1-6.6099-2.6758c-.2128-.3271-.4516-.6377-.7753-1.0927-2.7447.4941-5.4771,1.0346-8.2261,1.4702-8.1187,1.2856-16.2368,2.5835-24.3716,3.7583-2.4717.3569-4.1328,1.2803-4.8018,3.8642a11.68887,11.68887,0,0,1-3.5249,5.6221c-.1757.1621-.4663.2949-.5141.4883-.5488,2.2197-2.4268,2.2783-4.1045,2.3672-1.9702.105-3.957-.0918-5.936-.1768-.315-.0132-.6465-.2309-.9351-.1748-2.2105.4331-4.0396-.5044-5.8057-1.6015C54.2344,272.0503,53.5498,270.0581,52.833,267.7964Zm83.6069-47.957c-1.3984-1.4766-3.2783-1.815-5.1352-2.043-5.8662-.7188-11.75-1.2993-17.6152-2.0259-3.2476-.4018-6.4732-.98-9.7066-1.4932-3.1504-.5004-6.2812-1.2714-9.4502-1.4819-8.1313-.5405-16.2783-.8599-24.4214-1.2212a104.91168,104.91168,0,0,0-23.1172,1.9697c-1.9106.3414-3.7749.9429-5.6601,1.4249,5.6006.3149,11.2124-.3814,16.5312,2.5878-.4135,1.5464-.8989,3.2163-1.3056,4.9048-1.1582,4.8111-2.2354,9.6426-3.4532,14.4385a37.16076,37.16076,0,0,1-1.6318,4.291,8.589,8.589,0,0,0-2.3345.4107c-2.7719,1.4731-5.6821,1.1909-8.6577,1.0405-5.4927-.2769-10.9966-.3237-16.4863-.4663a19.296,19.296,0,0,0-.916,8.7641,77.78617,77.78617,0,0,0,28.1474.4605c.1485-1.5225.2212-2.8687.4258-4.1939.1963-1.2744-.3711-2.809,1.2466-3.9751-.1553,4.3018-.9853,8.3306.0635,12.4048,3.1396.5816,6.3359-1.292,9.3955.0186q.014.2973.0268.5947c-3.1211.2969-6.2421.5928-9.663.918v5.4941c-1.6983-1.5493-.479-3.6621-1.5074-5.4365-1.0097.0615-2.4082.5752-2.9712.0996-1.7128-1.4473-3.479-.6465-5.2329-.6504a115.06774,115.06774,0,0,1-11.729-.1191c-2.7588-.291-5.4487-.7754-8.5283-.1983.3135.5874.4756,1.3877.8652,1.5205a2.39164,2.39164,0,0,1,1.7266,1.751c.4219,1.3858-1.0439,1.3262-1.4258,1.9195.1543,1.1367.6231,1.7714,1.6514,1.9599a10.462,10.462,0,0,1,1.5957.5088c7.5483,2.7012,15.2275,4.2568,23.2808,2.7822q4.593-.84075,9.2163-1.5112c1.0737-.1533,1.4101-.8218,1.7915-1.6602,1.0918-2.3974,2.2094-4.7861,3.4082-7.1318a9.755,9.755,0,0,1,4.4023-4.5918c2.1362-1.0312,5.5469-.4443,6.8164,1.3164a12.01267,12.01267,0,0,1,2.5288,6.1265c.0596.7856.2198,1.563.3594,2.5171,2.3223-.3301,4.5156-.6411,6.751-.959a25.26639,25.26639,0,0,0,1.3721-7.0049c-1.6832,0-3.1871.0337-4.6885-.0098-1.4937-.0429-2.9756.8745-4.5064-.0102,2.9229-1.6113,6.3677-.5918,9.6387-1.9141.0376-4.5537-.7959-9.0566-1.2148-13.6216a9.14237,9.14237,0,0,0-1.2339-.083c-5.4873.542-10.9766,1.0616-16.4541,1.6895a3.78716,3.78716,0,0,0-1.9834,1.1494q-3.2256,3.2109-6.3091,6.5649a2.77775,2.77775,0,0,1-2.2964,1.0181c-.937-.0347-1.876-.0078-3.0527-.0078a20.7233,20.7233,0,0,1-.2823-3.5332c.3619-3.6543.8223-7.3003,1.3047-10.9414.6392-4.8262,1.0869-9.6885,3.0142-14.2569a3.46684,3.46684,0,0,1,1.6328-1.8603c1.3936-.8003,2.8008-.377,4.2085-.4326,3.5908-.1426,7.1826-.4658,10.7705-.4234,7.0293.083,14.0557.3716,21.0835.5616,2.6357.0713,5.2749.0415,7.9072.1733,3.8281.1914,7.6509.4883,11.4771.7368C122.8535,219.1367,129.6875,218.1401,136.4399,219.8394Zm-39.1269.5166c-7.4946-1.0586-30.5191-.6397-37.2466.2587-.5518,1.917-1.3061,3.9366-1.6943,6.0245-.6265,3.3701-1.0181,6.7837-1.4917,10.1816-.0723.5161-.0542,1.0449-.0821,1.6611,9.7764-.8681,19.4009-1.3095,29.1509-2.8305,0-.8052.044-1.5122-.0078-2.2119q-.40425-5.4939-.8516-10.9849c-.0595-.7451-.4829-1.5762.8838-2.2124.8311,5.1977,1.0542,10.312,1.3863,15.5991,3.8432-.2285,7.4746-.4448,11.3256-.6738A108.37844,108.37844,0,0,0,97.313,220.356Zm43.2109,15.9668a308.2225,308.2225,0,0,0-40.0132,1.4082c.1944,4.4462.3799,8.6875.5679,12.9902,6.9946-.0723,13.6021-2.4551,20.5313-2.1826.3012-.4375.5893-.917.9375-1.3487,2.1547-2.6738,4.8374-2.3984,6.4672.6622.4493.8447.8873,1.6977,1.2862,2.5668.9267,2.0191,1.7705,2.4346,3.706,1.524,1.8018-.8467,3.5386-1.8365,5.2798-2.8067a4.34049,4.34049,0,0,0,2.3755-4.5879C141.3457,241.8696,140.9277,239.2026,140.5239,236.3228Zm-90.8169.4023c.9712-2.7119,1.9527-5.5615,3.0118-8.3809a25.63381,25.63381,0,0,0,1.9248-8.1005c.0761-2.0655-.4512-2.982-2.4434-3.3389a31.85781,31.85781,0,0,0-17.6099,1.6562,2.96367,2.96367,0,0,0-1.1992,1.0352,53.341,53.341,0,0,0-6.4121,10.8935,25.56082,25.56082,0,0,0-2.0112,6.75C33.2583,236.5132,41.4189,236.8828,49.707,236.7251Zm67.1841-2.4175a45.33449,45.33449,0,0,0-1.1157-13.3398c-5.6489-.3003-11.3237-.7378-17.0986-.5904.4687,5.0079.917,9.795,1.3798,14.7388C105.7461,234.8428,111.208,234.5806,116.8911,234.3076Zm3.8989,15.3799c-6.8554-.0659-13.0634,1.9458-19.2509,2.3306-1.1831,2.0459.435,4.249-1.4761,6.3242-.1856-2.3281-.3364-4.2202-.4898-6.1348-3.455-.4287-6.5459.5332-9.6904.8657a1.65518,1.65518,0,0,0-1.4966,1.607c-.2959,1.8818-.6196,3.7597-.9326,5.6401,3.0664.4077,26.4756-3.4448,31.2881-5.1328C119.3774,253.481,120.0088,251.7847,120.79,249.6875Zm-2.5693-28.5664c.082,4.5742,1.2832,8.6416.0645,13.1255,4.7587-.3369,9.2011.3721,13.7334-1.3286-.4864-3.7281-.9449-7.2451-1.4336-10.9868C126.4473,221.6602,122.4229,221.3965,118.2207,221.1211ZM99.125,237.9053c-3.894.1294-7.583-.1919-11.4185.4946.4419,4.6094.8619,8.9927,1.2935,13.498,3.585-.4252,6.9443-.8232,10.4756-1.2421A55.04938,55.04938,0,0,0,99.125,237.9053Zm40.8145-2.9868c.5239-1.4258-.3179-2.6416-.6641-3.9302-.3516-1.3101-.7671-2.604-1.0816-3.9224-.3286-1.3784-.5703-2.7778-.8325-4.082a7.65986,7.65986,0,0,0-5.2041-.064c.7759,3.4136.5489,6.9981,1.3472,10.3589C135.8701,233.4927,138.1636,232.7983,139.9395,234.9185ZM66.1401,267.8188c.522.4063.9058.6885,1.271.9932a3.546,3.546,0,0,0,5.8614-1.9536,16.23347,16.23347,0,0,0,.3271-3.5649,3.27143,3.27143,0,0,0-2.1772-3.3887c-1.5972-.5571-2.5518.584-3.4654,1.5571C66.3047,263.2227,66.0562,265.4321,66.1401,267.8188Zm55.6324-13.1127a2.38627,2.38627,0,0,0,.0517.622c.3291,2.0425,1.4605,2.5332,3.1909,1.396,1.8799-1.2353,2.1944-5.2656.5415-6.8252a1.24588,1.24588,0,0,0-1.9008.0371A5.524,5.524,0,0,0,121.7725,254.7061ZM48.1006,253.501H39.9712c-.3316,1.3081-.2378,2.1401,1.1831,2.0722,2.2949-.1103,4.5874-.268,6.8853-.4057a3.30232,3.30232,0,0,0,.2089-.7813A5.39888,5.39888,0,0,0,48.1006,253.501Zm-21.4649,1.0771c-.6596-2.0659-1.1801-2.3403-3.6157-2.0859v2.0859Zm24.9258-1.3208q-.345-.2079-.6894-.416c-.4331.418-1.1739.7969-1.2329,1.2622-.1079.8472.268,1.6763,1.7285,1.7451C51.4346,254.9556,51.498,254.1069,51.5615,253.2573Zm-15.9419,2.3272c.813-.0606,1.4888-.1109,2.1646-.1612q.18015-.432.3603-.8642c-1.8672,1.2807-1.7651-.3594-2.688-1.3062C35.5303,254.3081,35.5688,254.8604,35.6196,255.5845Zm-3.0263.3979c.3886-2.3491.3886-2.3491-1.1465-2.3125C31.7993,254.3813,32.1064,255,32.5933,255.9824Zm94.6313-35.6831c-.0415.0684-.084.1367-.126.2051.627.0586,1.253.1348,1.8809.1689.5098.0284,1.022.0059,1.5332.0059l-.0073-.3799Zm-34.6792,16.46.0015.063c.2978-.0176.5952-.0352,1.0605-.063Z"/><path class="b" d="M27.7412,261.314v-3.3975c4.2422-.8452,8.377-.2319,12.7197.3696v4.606C36.1782,262.8906,31.9419,262.7524,27.7412,261.314Zm7.1934-2.5713c-1.666,0-3.168-.085-4.6553.0278-1.0796.0816-1.125.5127-.2647,1.6333.3301-.4394.6548-.8725,1.045-1.3926,1.2968,2.5591,1.6914,2.7408,4.6499,2.2598C35.4771,260.5127,35.248,259.7646,34.9346,258.7427Zm1.5454.5498c.6977,2.1894.6977,2.1894,2.6186,1.9375C39.146,259.229,39.146,259.229,36.48,259.2925Z"/><path class="b" d="M47.3442,259.1577v2.584c-2.7837.8735-3.7338.4893-4.7461-1.9312C44.0366,258.979,45.5908,259.2168,47.3442,259.1577Z"/><path class="b" d="M56.041,262.0698c-.1582.2324-.2729.4014-.3877.5708q-.3069-.21825-.6137-.436c.1333-.1592.2475-.419.4062-.4497C55.5991,261.7251,55.7979,261.9307,56.041,262.0698Z"/><path class="b" d="M140.1851,246.3804a13.8447,13.8447,0,0,1-5.1548,1.0312C136.3584,246.2007,137.4263,245.978,140.1851,246.3804Z"/><path class="b" d="M91.6401,244.2031a2.6309,2.6309,0,0,1-1.5727-2.5332c-.0254-.3979.5439-.834.8418-1.2524.3447.2744.8774.4844.998.8359A2.777,2.777,0,0,1,91.6401,244.2031Z"/><path class="b" d="M256.73929,50.354c-1.0606,0-1.8477-.0098-2.6338.002-1.8794.0283-2.1182-.1465-2.21149-1.9229-.16741-3.189-.29881-6.3804-.43751-9.5708-.0771-1.7661-.893-3.043-2.0146-3.1221a3.51934,3.51934,0,0,0-3.2422,3.1968c.0674,3.5044.2622,7.0064.3931,10.5098a3.17378,3.17378,0,0,1-.1289.6933c-1.4991.1455-2.96389.292-4.4297.4287-1.251.1167-1.45119-.726-1.4849-1.6777a49.36671,49.36671,0,0,1-.1172-5.269,33.851,33.851,0,0,0-.1938-6.9019,9.98031,9.98031,0,0,1-.09429-1.1948c-.03071-2.8706,1.54789-4.2222,4.39559-3.5874.62741.1401,1.1137.9077,1.6918,1.4097,5.292-3.5664,5.37161-3.566,10.10361.2329.62789-.5205,1.26849-1.0899,1.94819-1.6084a5.10452,5.10452,0,0,1,6.0356-.336,7.74263,7.74263,0,0,1,3.9278,5.9947c.2202,2.2158.16841,4.4599.2002,6.6923.0278,1.9795.0058,3.9595.0058,6.2227-1.3984,1.2017-3.1543-.3579-5.0615.3657-.30909-2.647-.6562-5.0595-.8515-7.4839a36.41188,36.41188,0,0,1-.0201-4.7871,2.0071,2.0071,0,0,0-1.0551-2.1909,2.19,2.19,0,0,0-2.648.4072,4.49881,4.49881,0,0,0-1.6309,3.3311c-.0761,2.2339-.1909,4.4668-.29,6.7002C256.84669,47.9976,256.79589,49.1069,256.73929,50.354Z"/><path class="b" d="M223.85159,40.6401c-.6333.5386-1.2481,1.0386-1.837,1.5674a3.234,3.234,0,0,0-1.083,3c.2105,1.8067.2603,3.6319.3702,5.3179-.3194.2383-.4322.3862-.57079.417-4.69,1.0234-5.17831.6806-5.31691-4.0103-.08009-2.7148.0302-5.435-.0508-8.1499-.0996-3.3515-.3242-6.6992-.4649-10.0498-.0898-2.1577.06161-2.3037,2.1543-2.4956.7915-.0722,1.5816-.165,2.3741-.2217.1416-.0102.2929.1123.685.2754.147,3.4283.2988,6.9737.4634,10.8096a9.75716,9.75716,0,0,0,1.3931-1.0317c2.5752-2.8326,5.1572-5.6597,7.6596-8.5557.85011-.9834,1.607-1.6011,3.03811-1.2144a27.45215,27.45215,0,0,0,4.24609.4229c-1.8428,2.1035-3.2959,3.8227-4.8159,5.4809-1.4985,1.6353-3.0645,3.209-4.8149,5.0333,1.0366.9272,1.9555,1.6557,2.7646,2.4907,2.32811,2.4028,4.5688,4.8921,6.9346,7.2563.9331.9326,2.1772,1.585,1.686,3.563a15.10252,15.10252,0,0,0-2.3599.0181c-3.5703.5522-5.5761-1.6807-7.4707-4.1172a10.38281,10.38281,0,0,1-1.3105-2.0005A9.43878,9.43878,0,0,0,223.85159,40.6401Z"/><path class="b" d="M193.1025,40.8667c-.351,2.1128-.6718,4.3188-1.0937,6.5054a6.08728,6.08728,0,0,1-5.0703,4.7168,31.98719,31.98719,0,0,1-4.543.02,6.60455,6.60455,0,0,1-4.9087-2.6333,3.18187,3.18187,0,0,1-.7847-2.6123,7.03082,7.03082,0,0,0-.5258-2.9546c-1.8345-5.1743-1.479-10.0957,1.9223-14.4937a6.01646,6.01646,0,0,1,6.6431-2.2719c5.7026,1.601,6.7192,2.8979,7.6899,7.8999C192.7939,36.9087,192.8765,38.8291,193.1025,40.8667Zm-6.9082,6.5498c2.0498-4.5444,1.8072-9.1816.3941-13.8433-.3233-1.0669-.8462-2.041-2.3111-1.9863a3.22206,3.22206,0,0,0-3.1699,1.9937c-1.4009,2.914-1.1279,5.8867-.5996,8.8715C181.1563,46.1206,182.0566,46.8628,186.1943,47.4165Z"/><path class="b" d="M211.75879,39.9551c-.1377,1.666-.3311,3.3305-.3975,4.9995a8.61159,8.61159,0,0,1-1.8384,4.8291c-1.1943,1.6382-2.5717,2.7519-4.7802,2.5049-1.0879-.1216-2.2129.1289-3.314.0742a4.28279,4.28279,0,0,1-3.9443-3.0357c-1.24559-3.5952-2.56449-7.1943-2.44339-11.124a13.92345,13.92345,0,0,1,2.78569-8.6992,5.33636,5.33636,0,0,1,4.5068-2.2695,21.3461,21.3461,0,0,1,5.102,1.0361,4.60075,4.60075,0,0,1,3.0718,3.6924c.5635,2.6269.99071,5.2832,1.4761,7.9267C211.90819,39.9116,211.83349,39.9331,211.75879,39.9551Zm-4.5723,1.6787h-.0781a20.03683,20.03683,0,0,0-.0156-2.3921,40.79892,40.79892,0,0,0-.8975-5.875,3.092,3.092,0,0,0-3.0928-2.2031,4.11247,4.11247,0,0,0-3.1416,3.209q-.26355,4.05825-.2773,8.1328a7.22427,7.22427,0,0,0,1.7949,4.6001c1.1123,1.3779,1.93651,1.7085,3.2676,1.2964a3.35707,3.35707,0,0,0,2.4311-3.1739C207.22459,44.0317,207.18649,42.832,207.18649,41.6338Z"/><path class="b" d="M161.355,36.1333c-1.3916.3037-2.5249.5513-3.9956.8726-.1367-1.7237-.2573-3.2486-.3765-4.7559,4.2329-.6357,4.9556-1.1821,6.4517-4.4985h3.9555c.1783,4.1626.294,8.3506.5552,12.5293.2617,4.1914.6685,8.3735,1.0181,12.6381H163.457c-.9507-2.645-.7959-5.4545-1.1767-8.1611C161.8916,42.0015,161.6782,39.2207,161.355,36.1333Z"/></svg>