<svg xmlns="http://www.w3.org/2000/svg" viewBox="0 0 300 300"><defs><style>.a,.b{fill-rule:evenodd;}.b{fill:#fff;}</style></defs><title>gl_nav03</title><path class="a" d="M62.72949,60.4511a63.03234,63.03234,0,0,0,7.54422-.0562A51.42854,51.42854,0,0,1,80.823,60.31066c4.36137.33708,8.77881-.10533,13.174-.13337a168.33628,168.33628,0,0,0,19.73644-1.15142c6.80585-.8449,13.7006-1.00991,20.56265-1.37155,7.45411-.39315,14.9117-.784,22.37289-.95838,5.04821-.11815,10.10457.22588,15.15626.20479,3.53635-.01642,7.0703-.32174,10.60667-.4563,1.62533-.06327,3.25666.02684,4.882-.04686,4.77321-.21533,9.54175-.55935,14.31735-.70207,6.67943-.20011,13.36353-.26685,20.04537-.37446a12.01025,12.01025,0,0,1,1.66871.24337c0,1.25915.07838,2.46318-.01414,3.6533-.31479,4.00212-.84838,7.99358-1.00979,12.00145a166.46314,166.46314,0,0,0,1.31175,24.90868c1.11751,10.1597,2.7558,20.27482,2.40123,30.60168-.25859,7.53607.49261,15.10726.80512,22.6631.22936,5.5491.4798,11.097.71968,16.64477.32174,7.46466.71022,14.927.94424,22.39278.18849,6.03355.17914,12.07286.275,18.10989.09945,6.22073.25283,12.44146.32185,18.66458q.07369,6.74731-.01521,13.4993c-.09479,7.7514-.25632,15.50041-.36738,23.24942-.03632,2.56035-.00589,5.12071-.00589,7.9315-3.28471.082-6.29682.16848-9.30772.22935q-9.04333.179-18.08653.33936c-1.33752.02336-2.67731.014-4.016.05619-5.06344.15674-10.15263.05848-15.182.55469-7.65542.75827-15.305.5687-22.96039.49608-10.3398-.09826-20.6784-.2901-31.017-.48206-3.43929-.06555-6.87965-.43534-10.31176-.35338-5.913.14044-11.81775.65295-17.73075.777-6.59747.13576-13.20093.00467-19.80079.01174-2.87047.00228-5.74094.08184-8.61141.06555-1.114-.00468-2.22807-.18023-3.733-.31132,0-4.06994.05392-7.887-.01282-11.70188-.09011-5.16289-.19663-10.33045-.43533-15.48867-.28316-6.1154-.68218-12.22852-1.09415-18.33924-.32054-4.772-.96184-9.53241-1.06718-14.3067-.18837-8.60913-.17435-17.22521-.07609-25.83554.12054-10.43578.40489-20.86689.63784-31.30027.14858-6.7028.55348-13.408.447-20.10623-.14164-8.79977-.646-17.5938-1.0473-26.38782-.28794-6.30617-.6787-12.60766-.99588-18.91263-.38849-7.73726-.73718-15.47692-1.12806-23.21419C63.10157,64.07756,62.90851,62.48493,62.72949,60.4511Zm1.95894,1.91676c-.07022,1.95307-.27392,3.74929-.17555,5.5292.58981,10.70132,1.31643,21.39689,1.86057,32.09953.35457,6.979.55588,13.96974.68457,20.95688.17435,9.4774.40142,18.95828.26913,28.4322-.22814,16.37564-.71261,32.7466-1.09294,49.11876-.26566,11.414,1.24273,22.7356,1.7798,34.10747.31131,6.59519.77828,13.181,1.08947,19.77622.26913,5.71758.41664,11.43754.62262,17.26979a9.2002,9.2002,0,0,0,2.4035.46565c4.59886-.4587,9.165.18022,13.74506.26218,4.01494.07022,8.038-.11934,12.05417-.27153,5.63334-.21533,11.26308-.63892,16.89761-.71848,5.164-.0725,10.33153.21065,15.49909.30664,9.76056.18249,19.52.37206,29.28166.49848,5.25887.06555,10.55166.37674,15.77194-.082,9.24915-.81207,18.50306-1.121,27.77329-1.22164,6.50854-.07022,13.01721-.09131,19.52577-.19664,4.30636-.07022,4.63746-.44468,4.69484-4.83049.0526-4.02309.01642-8.04858.1076-12.06939.16381-7.17791.50208-14.35594.55708-21.53613.03619-4.58844-.37217-9.179-.4587-13.77082-.06914-3.63461.16608-7.27629.06195-10.90862-.31478-11.00676-.71381-22.01125-1.10936-33.01693-.262-7.2703-.59087-14.53844-.85653-21.80885-.29957-8.22173-.54533-16.44586-.8461-24.66758-.17075-4.6855-.22-9.3849-.64707-14.04811-.908-9.90458-2.07-19.78676-3.04362-29.68548a71.88209,71.88209,0,0,1,.31479-16.3253,29.87751,29.87751,0,0,0,.01989-8.952c-1.96829,0-3.7681-.00707-5.56779,0-5.74333.02924-11.49134-.0562-17.23108.124-8.60205.27153-17.196.85665-25.79923,1.0824-10.51534.275-21.05057.034-31.553.53371-11.9383.56751-23.84964,1.70958-35.77272,2.59655-1.14567.08544-2.29242.18729-3.43917.192-5.363.02576-10.726.02109-16.0902.028-2.57678.0024-5.15463,0-7.7314.01055-1.7097.00587-3.41928-.01989-5.1255.05967-1.905.089-3.80429.28088-5.707.42946C66.61574,62.20406,65.77551,62.27655,64.68843,62.36786Z"/><path class="a" d="M76.74248,175.24913c-.6564-1.25435-.00587-1.69436,1.00284-1.72719,2.2971-.0725,4.59659-.04446,6.896-.07022,4.77788-.0526,9.557-.04913,14.33257-.19184,5.35593-.15913,10.70492-.52892,16.06085-.67871,10.70958-.302,21.42145-.59446,32.13343-.742,11.96634-.16608,23.93388-.15206,35.90142-.24924,6.89475-.055,13.78953-.18837,20.68427-.25619,3.54344-.03511,7.08793-.00935,10.63.01162a9.90822,9.90822,0,0,1,1.66523.43306c-.87067.57685-1.31068,1.12338-1.74829,1.12218-7.845-.02109-15.68984-.18369-23.53485-.1638q-17.94249.04726-35.88631.30532c-5.25876.07969-10.51176.51262-15.77183.646-3.823.096-7.6565-.16153-11.4784-.04206-9.74881.30185-19.49414.77457-29.24307,1.08588-5.83225.18729-11.66916.192-17.50369.29957C79.56742,175.05489,78.25327,175.16729,76.74248,175.24913Z"/><path class="a" d="M194.68491,75.93737c1.1561-2.20458.61783-4.5145.0737-6.80812a4.507,4.507,0,0,1,1.62653-4.78256c1.09762-.90925,2.33341-1.51306,3.92951-.68577a7.25187,7.25187,0,0,0,2.96525.36164c1.41949.04565,2.86005-.15685,4.25724.02109,1.98338.25032,3.05178,1.88045,2.9184,3.9295-.14392,2.1835-.1861,4.37407-.32534,6.55769-.06434,1.02153-.25151,2.03491-.42239,3.34211a16.21586,16.21586,0,0,0-3.17471-.57925c-2.05372.05261-4.05592-.36631-6.195.24565A6.12686,6.12686,0,0,1,194.68491,75.93737Zm7.006-4.36711a8.17708,8.17708,0,0,0,.79338,2.32873c.27608.37326,1.08827.351,1.66045.50543.10185-.42.41784-1.094.27033-1.21925C203.64034,72.53211,203.0997,71.37362,201.69087,71.57026Zm4.22548-1.14675c-.8624,1.22164-.79566,1.77512.28555,2.41285C206.10591,72.02548,206.04037,71.4696,205.91635,70.42351Zm-.406-3.9494h-1.98C204.19155,67.41608,204.75905,67.75315,205.51037,66.47411Z"/><path class="a" d="M211.86794,150.131c.16381,1.66524-.62716,1.84774-1.74469,1.79154-2.85417-.14031-5.7117-.22695-8.56813-.32761-12.26245-.43066-24.48857.38729-36.723,1.031-4.96038.26087-9.9361.2399-14.90473.31119-7.26456.103-14.53029.23055-21.79485.24229-7.45759.01163-14.91518-.12522-22.374-.15565q-8.89576-.03686-17.79283.03163c-3.52689.021-7.0527.117-10.5797.17543a1.93275,1.93275,0,0,1-.839-.03511c-.296-.15206-.68805-.44576-.71141-.70794a1.03324,1.03324,0,0,1,.54641-.83664,6.24576,6.24576,0,0,1,1.97763-.27033c3.8219.11935,7.6414.34642,11.46438.41772,4.59071.08544,9.1849.06794,13.77669.06555q7.01584-.00522,14.03181-.07022c6.39508-.06782,12.789-.248,19.184-.241,5.83345.007,11.668.30532,17.50141.27728,4.30277-.02109,8.60206-.39436,12.906-.55121,10.90035-.4001,21.80072-.80273,32.70334-1.12914C203.82763,150.03394,207.73485,150.131,211.86794,150.131Z"/><path class="a" d="M74.6479,132.01068c.03151-1.423,1.04262-1.17958,1.85828-1.20774,4.11321-.145,8.2288-.227,12.33841-.42827,7.44836-.36044,14.89073-.86947,22.34244-1.15609,3.32462-.12642,6.66541.24576,9.99578.19543,4.30516-.06434,8.62207-.16032,12.90842-.53131,13.10027-1.13393,26.20521-.399,39.31255-.399,9.08185.0024,18.16251-.60381,27.24435-.93849,2.96417-.1076,5.92823-.248,8.89469-.28674a6.67534,6.67534,0,0,1,1.90033.56762c-.02216.25272-.04445.50435-.06662.75707-.97947.07837-1.95774.193-2.93961.23175-4.86092.19544-9.72185.38728-14.58517.54989-6.40682.21425-12.81484.56522-19.22154.55935-9.38034-.00815-18.75935-.4037-28.1385-.38728-4.86908.00707-9.7336.66935-14.60746.81327-6.69117.19783-13.39169.082-20.08166.2937-5.63441.17794-11.2596.66-16.89173.95023-2.00328.10293-4.01722-.0187-6.02289.05152-4.49126.15446-8.9812.36979-13.47246.54414A2.9297,2.9297,0,0,1,74.6479,132.01068Z"/><path class="a" d="M220.119,257.49254a5.34981,5.34981,0,0,1-1.48968.564c-8.80219-.04913-17.60436-.23163-26.40534-.18022-10.245.05847-20.48895.43533-30.734.454-8.80217.01642-17.60433-.36979-26.40759-.40717-7.75261-.03044-15.50629.1825-23.25877.27848-7.08433.08663-14.16984.12642-21.253.26446-2.57677.05152-5.14766.33935-7.72324.49381-.8098.04685-1.62426.00707-2.58264.00707.41185-1.72492,1.53523-1.33872,2.39415-1.37155,6.31551-.22935,12.62994-.52185,18.94665-.61076,9.19066-.13109,18.38359-.12642,27.57544-.14044q12.63456-.01761,25.26911.05153c8.80806.04913,17.61609.26206,26.42294.20826,12.06591-.07022,24.13171-.32761,36.19751-.49381a19.06581,19.06581,0,0,1,2.2772.15206C219.49173,256.77645,219.61228,257.00113,220.119,257.49254Z"/><path class="a" d="M76.93326,197.00071a26.57287,26.57287,0,0,1,3.48254-.591c5.34658-.20946,10.69666-.31946,16.04443-.49728,3.34678-.11,6.69117-.25751,10.03436-.42132,6.87846-.33467,13.7544-.72316,20.63406-1.03555,8.69793-.39435,17.396-.85077,26.09988-1.06958,12.24027-.30891,24.48628-.39782,36.72882-.63424,6.5027-.12522,13.002-.35457,19.50242-.55349.98176-.03043,2.09339-.47631,2.65274,1.17479a7.49146,7.49146,0,0,1-1.60545.412c-8.41717.13109-16.83553.275-25.2539.32533-5.07158.03044-10.149-.24337-15.21714-.1112-7.453.193-14.90007.65414-22.35178.95251-6.88542.2762-13.7791.40837-20.66211.74892-7.73379.38381-15.45476.99817-23.18855,1.3785-3.81951.18837-7.6565,0-11.48068.12294-4.10625.131-8.20663.42587-12.30929.65294-1.004.0562-2.00687.1299-3.01089.19652C77,197.7005,76.96608,197.35181,76.93326,197.00071Z"/><path class="a" d="M79.6622,236.28162c-.05272-1.7599,1.12566-1.53523,1.946-1.57741,3.14775-.16141,6.2991-.32761,9.44924-.33228,2.86232-.00467,5.72572.30652,8.588.28088,3.534-.02816,7.07378-.14751,10.59612-.42839,9.76283-.77936,19.51524-.28075,29.27578-.00467,10.33046.29022,20.66439.53359,30.99724.59446,12.53863.07262,25.07954-.0538,37.61806-.131,1.90863-.01174,3.81483-.2762,5.72344-.316a13.49983,13.49983,0,0,1,2.53459.4587c-1.01805,1.67806-2.28655,1.20534-3.32449,1.21229-6.98487.04913-13.97082.02577-20.95688.03511-13.48995.02337-26.98229.13337-40.47224.04218-5.73866-.0375-11.47492-.47979-17.21119-.756a256.4444,256.4444,0,0,0-31.84789.62718c-.85664.06554-1.72132.0375-2.58264.03283-5.73279-.03751-11.46438-.09826-17.19717-.10533A27.43812,27.43812,0,0,0,79.6622,236.28162Z"/><path class="a" d="M212.66959,97.02654c-.22707,1.423-.69165,1.9496-1.9472,1.53068a6.82924,6.82924,0,0,0-2.20471-.35337c-4.69364.076-9.38836.16141-14.07973.33108-2.19644.07957-4.38234.39436-6.57878.5336-7.54889.481-15.09431,1.06838-22.65134,1.34111-4.49008.1626-8.99763-.2423-13.49823-.29957-4.78723-.06088-9.57686.03163-14.36528-.02229-4.77789-.055-9.55578-.234-14.33366-.31359-5.16756-.08891-10.33621-.21653-15.50149-.16033-5.26114.0574-10.51882.42719-15.77889.45523-5.16865.028-10.3398-.18718-15.50964-.33588a1.76625,1.76625,0,0,1-1.35046-1.00044,10.18293,10.18293,0,0,1,1.746-.2937c3.35133.00348,6.704.08064,10.05652.08184,5.35833.0012,10.71786-.06434,16.0762-.05032,8.80791.02109,17.61715.10185,26.4264.12174,6.40909.014,12.81939-.09251,19.22849-.02456,4.30863.04565,8.61381.3475,12.92244.44935,3.2508.07609,6.51095.15326,9.75468-.01294,8.7975-.45043,17.58805-1.0461,26.382-1.55393,4.20811-.24349,8.41957-.43413,12.63116-.60968A22.80506,22.80506,0,0,1,212.66959,97.02654Z"/><path class="a" d="M76.92738,214.88354c.20946-1.28719.99816-1.15023,1.76122-1.12566q15.19374.465,30.38983.915c7.84139.22935,15.68171.5524,23.52552.63425,6.21831.06434,12.44024-.234,18.661-.25739,6.21725-.02229,12.4357.13924,18.654.14391,10.61948.00815,21.239-.03631,31.85736-.07489,2.67624-.01055,5.35006-.08664,8.02509-.12175a5.10249,5.10249,0,0,1,1.69675.09251c.32534.11228.75947.71034.68927.96425a1.2772,1.2772,0,0,1-.98883.73718c-1.13154-.03978-2.2573-.38141-3.38645-.38848q-9.90339-.05967-19.80666-.00935c-6.88541.03511-13.772.16968-20.65743.18022-4.59179.00695-9.18478-.17207-13.77668-.18729-6.21954-.02109-12.43787.05381-18.65752.05033-5.5479-.00347-11.09566-.01282-16.64237-.09946q-13.33321-.20884-26.66523-.53011c-4.49113-.10641-8.98-.316-13.46765-.51131A4.594,4.594,0,0,1,76.92738,214.88354Z"/><path class="a" d="M214.55591,263.051c-1.61252.14511-3.22384.32533-4.84.43066-3.20982.21054-6.42084.43521-9.63533.557-2.74765.10293-5.50225.13337-8.251.07022-1.48622-.03284-1.66285-.412-1.50611-2.10406,3.99744.20131,7.96553.65306,11.97809-.20119,1.815-.3862,3.78211-.00934,5.6743-.0913,1.3-.0562,2.59667-.45175,3.88613-.41665a11.47324,11.47324,0,0,1,2.7909.78643C214.62026,262.405,214.58863,262.72792,214.55591,263.051Z"/><path class="a" d="M135.95073,70.62122c.26445.64947.59086,1.44992,1.1689,2.87047-1.45794-.60261-2.26892-.93849-3.13492-1.29653-.90686.58739-1.84068,1.1936-3.02253,1.95894-.55-.90817-1.01111-1.66644-1.54123-2.54166.8086-.67523,1.44057-1.203,2.13677-1.78579-.33576-.84491-.68565-1.72252-1.18186-2.97221,1.643.56044,2.8459,1.3386,3.9857,1.25436,1.09175-.08184,2.11808-1.05784,3.26722-1.69089C139.26467,68.84957,136.37311,68.9561,135.95073,70.62122Z"/><path class="a" d="M78.7436,72.54158A28.47661,28.47661,0,0,1,82.054,70.73242,3.05612,3.05612,0,0,1,86.25152,72.524a3.43537,3.43537,0,0,1-.93969,3.61124,3.51431,3.51431,0,0,1-4.43265-.371A25.75133,25.75133,0,0,1,78.7436,72.54158Z"/><path class="a" d="M98.24362,168.59319c-.5675.234-1.258.805-1.68393.64827-2.56276-.93621-5.06571-.192-7.584.0725a9.77543,9.77543,0,0,1-5.6579-1.24621c-.33108-.17207-.47152-.70914-1.052-1.64643a31.81892,31.81892,0,0,1,3.44971.25032c3.493.6799,7.05389.32533,10.55633.76534a11.10748,11.10748,0,0,1,1.974.62717C98.24482,168.2397,98.24482,168.41645,98.24362,168.59319Z"/><path class="a" d="M101.23224,118.68334H90.42907c-.67164-.48566-.32186-1.78459-.151-3.40646.7724.302,1.32589.54066,1.89339.7361.76534.26326,1.46154.839,2.37079.131.31719-.24684,1.04729.09371,1.581.05392,1.24381-.0925,2.43634.83664,3.78787-.2738C100.80518,115.18917,101.382,116.04569,101.23224,118.68334Z"/><path class="a" d="M79.33567,147.2688c-.22815-.64479-.40957-1.15741-.701-1.97883a12.18675,12.18675,0,0,1,3.02025-.77469c2.991.03979,5.98323.2224,8.96838.44936a5.49171,5.49171,0,0,1,2.69732,1.05556C88.778,147.264,84.15214,146.52455,79.33567,147.2688Z"/><path class="a" d="M158.22294,262.40738c.03619,2.07817-.25044,2.40123-1.86415,2.10394a14.81988,14.81988,0,0,1-3.22157-.72544c-1.99632-.8636-3.94112-.28555-5.90473-.06327-1.35742.15446-1.35394.19424-2.59546-1.40653C149.29783,260.58888,153.768,262.74674,158.22294,262.40738Z"/><path class="a" d="M119.96584,67.711a16.45918,16.45918,0,0,1,2.58612.32653c.12869.03391.01869.96186.01869,1.54925.67763.14164,1.56459.32653,2.61308.54414-.59914,1.21817-1.10577,2.248-1.69795,3.45211a12.33587,12.33587,0,0,1-1.82893.14739c-1.95307-.11108-2.2421-.47032-2.08415-2.5159C119.65225,70.17774,119.802,69.14567,119.96584,67.711Z"/><path class="a" d="M87.93306,76.41489c.38033-2.96765,2.1648-4.85865,4.4304-7.15575.7652,2.14959,1.36554,3.837,1.91435,5.377C92.05561,75.25987,90.16222,75.79,87.93306,76.41489Z"/><path class="a" d="M182.00476,204.99189c.2375.78523.39435,1.30241.57926,1.91329,1.919-.014,3.75862-1.863,6.017-.16968-3.88973,1.11871-7.4166,2.44688-10.94122.07729-.43881-.29489-.64826-.93274-1.23458-1.8209Z"/><path class="a" d="M101.78812,72.923c.59674.523,1.06371.93154,1.57621,1.38089-1.14327,1.84882-2.7885-.17327-3.81015.94892-1.39132-2.56623-1.25556-4.20331.49153-5.35354a2.32718,2.32718,0,0,1,1.99045-.32653c.42827.29142.49034,1.28839.49034,1.97644C102.5277,71.95994,102.10291,72.37071,101.78812,72.923Z"/><path class="a" d="M119.83942,188.59289c-2.785,1.00523-5.64843-.58632-7.5055,1.93665-.73612-.69512-1.26731-1.19827-2.01863-1.90861a25.32709,25.32709,0,0,1-2.977,1.148,2.13457,2.13457,0,0,1-1.46275-.44576c-.186-.12294-.186-.9561-.1088-.98187a7.37694,7.37694,0,0,1,1.47449-.23162c.81445-.09371,1.62892-.19424,2.44568-.27153.97826-.09131,1.99872-.76534,2.8786.40957.19544.25978,1.04274.15218,1.54709.03391a15.25977,15.25977,0,0,0,2.98982-.935C118.30539,186.78493,118.812,187.4906,119.83942,188.59289Z"/><path class="a" d="M114.20621,69.5985c.64012.37793,1.25208.73837,1.85122,1.09174.74424-.71609.028-2.33328,1.78219-2.35676,1.29893,1.80676.08305,3.472-.35685,5.39-.708-.25511-1.292-.467-2.02209-.73143-.33827.509-.72327,1.0872-1.05088,1.581C113.17174,74.50975,113.1401,72.38473,114.20621,69.5985Z"/><path class="a" d="M83.94975,190.71671c1.14555-1.15142,2.79558-1.17251,4.2969-1.57034a1.71115,1.71115,0,0,1,1.50839.73611c.29729.82489-.40837,1.10816-1.16556,1.13968a14.97732,14.97732,0,0,0-5.19093.82273c-1.35034.54294-2.31926-.9561-3.19581-1.842-.59554-.60141-.30891-1.41241.80393-1.97284C81.90537,188.8492,82.86615,189.7279,83.94975,190.71671Z"/><path class="a" d="M81.47124,115.628a10.14147,10.14147,0,0,0,2.13916.85426,5.43782,5.43782,0,0,0,2.35906-.14392c2.06773-.71381,2.41882-.536,3.18764,2.31579-2.3334-1.24513-4.22093-.0012-6.22313.83783A4.29513,4.29513,0,0,1,81.47124,115.628Z"/><path class="a" d="M95.83185,208.086c-3.18406-.35924-6.31323-.71381-9.67871-1.09415-.42706-.894.055-2.08763,1.02285-1.70263,1.87458.74425,4.11548-.59913,5.74441,1.19948.23175.25739,1.07653-.027,1.6359-.082C95.81316,206.28148,95.94773,207.01638,95.83185,208.086Z"/><path class="a" d="M109.03626,144.96116a38.4391,38.4391,0,0,1-4.854,1.18066c-1.35274.151-2.89384,1.4359-4.43385-.5699,1.52479-.40837,2.82133-.76641,4.12613-1.10109,1.26611-.32294,2.52992-.674,3.81244-.91632C108.85255,143.3357,109.27147,143.92082,109.03626,144.96116Z"/><path class="a" d="M115.43492,116.98418c-.65186.75012-1.30239,1.49905-1.822,2.09579-1.3622-.08185-2.54286-.15206-3.94712-.2363-.60728-1.2147-.86827-2.454.83436-3.53168.6799.60381,1.25568,1.4885,2.00687,1.67806a6.77767,6.77767,0,0,0,2.63178-.43761C115.23828,116.69636,115.33654,116.84027,115.43492,116.98418Z"/><path class="a" d="M212.17806,183.96946c-.21881.61089-.40957,1.53991-.57338,1.53524-1.4335-.04206-2.9184,1.1-4.34027-.13565-.61662.51478-1.23914,1.03555-1.83013,1.53056-.289-.23175-.5675-.36739-.55348-.4587.4049-2.661.447-2.65634,3.00623-2.48666C209.16248,184.03968,210.44739,183.96946,212.17806,183.96946Z"/><path class="a" d="M182.04922,144.032c-3.04255.516-5.44257.6799-7.71858-.75947,2.03372-.55,4.029-1.2498,6.11768-.94088C180.94333,142.40548,181.32713,143.23505,182.04922,144.032Z"/><path class="a" d="M202.96284,206.48626c1.64415-.84718,3.11384-1.60665,4.87267-2.51362.055,1.03687.08771,1.65937.10413,1.98123-2.21166.894-4.20331,1.69795-6.278,2.53806-.85783-1.17479-1.1223-2.21165.14393-2.95123C202.44446,205.16864,203.09273,205.536,202.96284,206.48626Z"/><path class="a" d="M187.01894,166.49849c-2.3848,0-4.66548.05967-6.93681-.05033-.4611-.02217-.89056-.68685-1.334-1.05544.45282-.23762.90565-.6799,1.3562-.67643a48.48806,48.48806,0,0,0,5.12778.22348C186.8797,164.77836,186.74046,165.79642,187.01894,166.49849Z"/><path class="a" d="M182.76183,186.373c.1088-2.29818,1.66634-2.75113,4.89256-1.423C187.08329,187.12548,187.08329,187.12548,182.76183,186.373Z"/><path class="a" d="M201.96228,163.80117c1.27089-1.03327,4.94528-1.38892,7.89759-.59794a9.34284,9.34284,0,0,1-2.31111,1.28132A8.05351,8.05351,0,0,1,201.96228,163.80117Z"/><path class="a" d="M101.53888,116.12178h4.992v2.8646a20.2935,20.2935,0,0,1-3.3795-.80979C102.62943,117.95778,102.33933,117.18429,101.53888,116.12178Z"/><path class="a" d="M200.78629,141.46339c1.79741.93262,3.51993.45175,5.27289.01642.39555-.09826.915.30305,1.3773.47512-.32533.38141-.60153,1.02512-.9876,1.1a23.22064,23.22064,0,0,1-4.39528.50316C201.02259,143.5581,200.28074,142.97526,200.78629,141.46339Z"/><path class="a" d="M187.09264,117.98822c-2.21981.921-5.6555.3862-7.13106-1.1023.45522-.2025.84718-.53718,1.22285-.51837C185.00392,116.55712,185.00272,116.57234,187.09264,117.98822Z"/><path class="a" d="M105.68959,69.609c.56043,2.04546.58032,3.71178,2.42219,4.14484.11707.02684.01522.98294.01522,1.55392C104.29588,74.5542,103.98108,73.9317,105.68959,69.609Z"/><path class="a" d="M95.21282,189.69171a9.791,9.791,0,0,1-2.18.95371c-.39435.07369-.97011-.36632-1.32349-.71741-.18849-.18717-.20479-.91968-.07957-.98522a2.73694,2.73694,0,0,1,1.45686-.3487,12.16666,12.16666,0,0,1,2.02557.54521Q95.16142,189.41665,95.21282,189.69171Z"/><path class="a" d="M109.0831,208.70846c-.33935-1.90621-.33935-1.90621,3.37483-1.92383.536,1.05676.34869,1.56219-.97947,1.53883A12.909,12.909,0,0,0,109.0831,208.70846Z"/><path class="a" d="M186.19165,144.04256c-.98294-1.49784-2.92894,1.09762-3.85807-1.28023,1.176-.47045,2.68436.05847,3.5445-1.12339q.47917.948.95956,1.8934Q186.51465,143.78865,186.19165,144.04256Z"/><path class="a" d="M111.04432,74.63617c-1.47088-1.51427-.80858-2.92787-.58152-4.442C111.93716,71.46733,112.11977,72.71006,111.04432,74.63617Z"/><path class="a" d="M96.30458,70.19524c1.44056,1.41252.40262,3.09406,1.14327,4.558C95.3287,74.57529,95.15315,73.62506,96.30458,70.19524Z"/><path class="a" d="M177.81655,166.85306c-1.31871.09011-2.12381.14511-3.06819.20946-.00239-1.60545.65642-2.468,1.94948-2.42927C177.03144,164.6426,177.331,165.84435,177.81655,166.85306Z"/><path class="a" d="M180.31962,187.44027c-.481-.71154-1.08238-1.27556-.97359-1.50719a1.91021,1.91021,0,0,1,1.27316-1.01458c.32761-.03391,1.09643.76881,1.02633,1.01458C181.50388,186.428,180.92463,186.799,180.31962,187.44027Z"/><path class="a" d="M103.30705,188.32256c-.36631,1.06958-.64718,1.891-1.1374,3.3233-.55827-.96186-1.07545-1.44165-1.04274-1.88046C101.2018,188.77191,101.75768,188.07452,103.30705,188.32256Z"/><path class="a" d="M199.89106,115.99537c1.671-.516,2.83069-.5874,3.18765,1.44524C201.71771,117.71094,200.61074,117.80452,199.89106,115.99537Z"/><path class="a" d="M96.72349,144.42517c-.11228.78991-.21293,1.4873-.31945,2.23742-.29251.03164-.73479.16968-.79339.0725-.34522-.56511-.88469-1.21817-.81794-1.77752C94.89684,144.08354,95.64109,143.83071,96.72349,144.42517Z"/><path class="a" d="M107.25753,205.852c-.45283,1.30588-.71956,2.07709-.98642,2.8483-.385-.15445-1.00164-.21065-1.11284-.47871C104.65044,207.00116,105.26012,206.3505,107.25753,205.852Z"/><path class="a" d="M99.08493,147.00782c-1.83251-1.671-1.83251-1.671,0-2.55341Z"/><path class="a" d="M100.82734,167.14915c.26915.66229.63785,1.12806.52892,1.40654-.15672.4037-.65989.67175-1.01446.99816-.24576-.3487-.75132-.77229-.67762-1.0286C99.7906,168.08884,100.28093,167.75763,100.82734,167.14915Z"/><path class="a" d="M98.776,190.58107c-2.41871-1.21469-2.46784-1.444-.84838-3.00276C98.18622,188.49343,98.4145,189.30323,98.776,190.58107Z"/><path class="a" d="M178.63341,187.81353c-1.66632.25859-1.89687-.64012-2.08536-1.451a.9849.9849,0,0,1,.474-.8485,1.014,1.014,0,0,1,.94316.309A11.62577,11.62577,0,0,1,178.63341,187.81353Z"/><path class="a" d="M173.66824,206.47691c1.52362.32881,1.48035,1.12459,1.19947,1.96242a.75894.75894,0,0,1-.674.32641C173.08312,208.31411,173.46225,207.4879,173.66824,206.47691Z"/><path class="a" d="M103.76108,170.42572c-1.28024-2.32166-1.28024-2.32166.68339-2.87527C104.2338,168.43514,104.056,169.18754,103.76108,170.42572Z"/><path class="a" d="M178.259,118.647c-1.07077-.64012-1.37262-1.34806-.70914-2.16253a1.24687,1.24687,0,0,1,1.22632-.06315C179.67483,117.24049,179.03712,117.89811,178.259,118.647Z"/><path class="a" d="M175.87882,118.33572a8.60818,8.60818,0,0,1-2.31939-.3463c-.2738-.14284-.29489-.76534-.42946-1.17144a3.8367,3.8367,0,0,1,1.41948-.00347C174.911,116.95734,175.13337,117.44875,175.87882,118.33572Z"/><path class="a" d="M171.762,118.4903c-1.69448.31826-2.13209-.35577-1.93665-1.94253C171.16636,116.61439,171.3419,117.54941,171.762,118.4903Z"/><path class="a" d="M103.33042,206.7929a10.32814,10.32814,0,0,1-.69859,1.44859c-.03979.0586-.60262-.22467-.92208-.34977q.351-.74612.70087-1.49437Q102.87058,206.594,103.33042,206.7929Z"/><path class="a" d="M99.30733,207.31942c-.949,1.23806-1.56579,1.20762-2.06067.4049-.12762-.206.10413-.63425.17075-.95958C97.96622,206.92507,98.51515,207.0866,99.30733,207.31942Z"/><path class="a" d="M173.13584,145.345c-.60153-.95611-.94316-1.499-1.44524-2.2971C173.42834,142.94027,173.81922,143.48321,173.13584,145.345Z"/><path class="b" d="M233.3293,147.23717a24.21579,24.21579,0,0,0,1.36088,3.82417q4.7849,8.65347,9.74186,17.21119c3.19927,5.5467,6.46062,11.05589,9.71729,16.56988a19.25027,19.25027,0,0,0,1.50252,2.083c2.06655,2.60721,1.21817,5.336-1.98937,6.45008-3.96929,1.37849-7.94206,2.74992-11.88558,4.19864-4.66441,1.71545-9.27381,3.5808-13.951,5.25647-8.07662,2.895-16.22238,5.59823-24.272,8.56348-7.44717,2.743-14.79716,5.74333-22.20789,8.58684-7.31847,2.80852-14.68475,5.4929-21.98211,8.35522-6.76608,2.65633-13.45138,5.52093-20.2045,8.21-4.43734,1.767-8.97185,3.293-13.39049,5.10442-3.88038,1.59143-7.6577,3.4333-11.48427,5.15582-.33588.15218-.6986.24576-1.341.46577-.179-.28316-.4073-.59207-.58284-.92675-2.92546-5.59355-5.62267-11.32275-8.81847-16.75717-4.14135-7.04226-6.70879-14.77713-10.286-22.05809-1.08708-2.21406-2.28895-4.36951-3.6007-6.85965,11.92776-4.85158,24.326-7.9363,36.13316-12.72233,11.9594-4.84691,24.25573-8.856,36.325-13.44322,11.9805-4.54961,23.93987-9.17184,35.76338-14.11245,11.73711-4.9007,23.728-9.09706,35.41827-14.09843C233.307,146.60759,233.31875,146.92118,233.3293,147.23717Z"/><path class="a" d="M233.3293,147.23717a24.21579,24.21579,0,0,0,1.36088,3.82417q4.7849,8.65347,9.74186,17.21119c3.19927,5.5467,6.46062,11.05589,9.71729,16.56988a19.25027,19.25027,0,0,0,1.50252,2.083c2.06655,2.60721,1.21817,5.336-1.98937,6.45008-3.96929,1.37849-7.94206,2.74992-11.88558,4.19864-4.66441,1.71545-9.27381,3.5808-13.951,5.25647-8.07662,2.895-16.22238,5.59823-24.272,8.56348-7.44717,2.743-14.79716,5.74333-22.20789,8.58684-7.31847,2.80852-14.68475,5.4929-21.98211,8.35522-6.76608,2.65633-13.45138,5.52093-20.2045,8.21-4.43734,1.767-8.97185,3.293-13.39049,5.10442-3.88038,1.59143-7.6577,3.4333-11.48427,5.15582-.33588.15218-.6986.24576-1.341.46577-.179-.28316-.4073-.59207-.58284-.92675-2.92546-5.59355-5.62267-11.32275-8.81847-16.75717-4.14135-7.04226-6.70879-14.77713-10.286-22.05809-1.08708-2.21406-2.28895-4.36951-3.6007-6.85965,11.92776-4.85158,24.326-7.9363,36.13316-12.72233,11.9594-4.84691,24.25573-8.856,36.325-13.44322,11.9805-4.54961,23.93987-9.17184,35.76338-14.11245,11.73711-4.9007,23.728-9.09706,35.41827-14.09843C233.307,146.60759,233.31875,146.92118,233.3293,147.23717Zm-94.69193,47.71329c1.75188-.38381,3.5457-.63652,5.24485-1.18186,2.96993-.95251,5.88138-2.08524,9.21414-3.28591q-1.45517-3.82992-2.571-6.76834c-1.25557-.48446-2.36841,1.26143-3.00505-.61088q1.40071-1.10577,2.7909-2.207a110.924,110.924,0,0,0-11.12383,3.71657c-5.90942,2.16948-11.84579,4.26646-17.75054,6.4478-4.11559,1.52121-8.17379,3.1946-12.30221,4.67843-1.75188.62945-3.61472.95011-5.39584,1.40186-.04913,2.998,3.77745,4.03483,3.17711,7.01171-1.5997.44-2.14851-2.60949-3.79146-.81675-.5125,1.19361.44707,2.66569-.82022,3.8406-1.55284-1.37383-.57458-2.99569-.69165-4.39288a35.83427,35.83427,0,0,1,.2224-4.744c-2.03035.63424-3.80668,1.1912-5.87908,1.83947,1.49316,3.26015,2.8272,6.16932,4.17873,9.11816a11.2605,11.2605,0,0,0,1.62426-.31132c3.13614-1.13968,6.25236-2.34035,9.39664-3.46373,7.19085-2.565,14.40856-5.05984,21.58538-7.66705,2.04665-.74425,3.988-1.77872,5.97723-2.6821Zm113.95912-9.11336.08306.08184c-2.083-3.73515-4.11442-7.50085-6.264-11.19872-1.80328-3.1033-3.74461-6.12475-5.62518-9.18131l.01054.0538q-1.57094-2.9945-3.14427-5.996c-11.30166,4.59886-22.57887,8.42076-33.85594,13.04766,5.9493,10.47089,10.70837,21.08222,16.55823,31.1856,2.5346-.85425,4.71929-1.53762,6.8678-2.32393,7.00009-2.55808,14.00952-5.10214,20.96982-7.76782,2.4621-.94317,5.15354-1.52589,7.2727-3.77733C254.52848,188.61278,253.56194,187.22494,252.59649,185.8371Zm-49.95084-12.76919c-3.342,1.25915-6.29909,2.32406-9.21869,3.48255-5.4168,2.15079-10.77981,4.44441-16.22585,6.51562-6.13768,2.33568-12.34907,4.47712-18.51719,6.73563-2.60241.95479-5.14767,2.06187-7.7653,2.96993-4.51235,1.56566-9.08653,2.96058-13.58833,4.5544q-12.98038,4.59527-25.90444,9.34751c-4.7381,1.73882-9.42826,3.60885-14.20268,5.44365,4.26766,11.73231,10.5622,21.95744,16.36868,32.82855,17.60315-6.9603,34.95478-13.9206,52.38118-20.68894,17.43-6.77074,34.93382-13.34951,52.67859-20.118C213.28035,193.7124,208.03909,183.53653,202.64565,173.06791ZM161.0583,187.44962a13.39049,13.39049,0,0,0-1.68046-6.181c-1.86871-3.68613-1.8886-3.67679-5.55952-1.9472-.34281.87522-.42826,1.85362-.95958,2.28416a1.86224,1.86224,0,0,0-.523,2.51829c.82729,1.87458,1.72719,3.71418,2.60828,5.59116C157.09956,188.917,158.966,188.2243,161.0583,187.44962Zm22.61626-19.00394c-.07022-.18022-.14164-.36044-.21174-.54066q-3.16488,1.2253-6.32845,2.45048c.09011.22467.18022.45163.26913.6763Q180.54017,169.74,183.67456,168.44568Zm22.76028-3.94124c1.74817.40729,3.33145.21065,4.41385-1.4486Q208.64237,163.77895,206.43484,164.50444Zm12.14189-10.84763c.07022.17782.14151.35577.21173.53359q1.38851-.59333,2.77809-1.18653c-.05033-.11935-.10186-.2387-.15219-.35805Q219.9962,153.15126,218.57673,153.65681Z"/><path class="a" d="M208.24269,198.075c-2.76275,1.05316-5.03061,1.7599-7.151,2.778-1.62186.77708-2.365.00707-2.9009-1.2099-.76187-1.73187-1.361-3.53168-2.14612-5.61,2.9758-1.67339,5.9667-3.03775,9.93371-2.6797C206.66647,193.39654,207.406,195.5895,208.24269,198.075Zm-5.72333-.74893q-.09491-.20364-.18957-.40729-.61093.309-1.22283.618c.05259.11228.10412.22468.15672.337Q201.89206,197.59991,202.51936,197.326Z"/><path class="a" d="M135.22864,210.582c-.275.59206-.92794,1.33631-.76055,1.75056.81327,2.00807-.52544,2.47611-1.8759,3.11743-1.27544.60381-2.48079,1.35741-3.94113,2.16948-3.13731-3.0284-1.87937-7.83325-4.69832-11.14025,2.47492-1.41828,4.65962-2.67036,6.66769-3.82178,1.609.39088,1.83253,1.51187,2.25264,2.60481.70794,1.85122,1.61959,3.623,2.44687,5.42735Zm-4.34136-5.93758c-1.97762.23642-3.37481,1.02513-3.31634,2.57438.069,1.80915.16967,3.974,2.07936,5.00615a3.00649,3.00649,0,0,0,2.55928-.34175,2.41153,2.41153,0,0,0,.729-2.13436A48.72291,48.72291,0,0,0,130.88728,204.64439Z"/><path class="a" d="M135.31994,210.68957c-.46217-1.94013-.94088-3.8757-1.37729-5.8205-.22121-.98534-.36632-1.98938-.55708-3.05189,1.41013-.667,2.57917-1.28251,3.79614-1.781,1.69915-.69739,2.36025-.44935,3.1607,1.19828.95609,1.96589,1.83251,3.97156,2.743,5.95854a1.903,1.903,0,0,1-.70447,2.5183c-1.60089,1.15622-3.266,2.2234-4.86919,3.3046-.86827-.92674-1.57741-1.68273-2.28427-2.43633Zm5.69181-4.1144c-.63892-1.3199-1.09067-2.34742-1.62306-3.33264-1.11164-2.05492-1.40893-2.08069-3.75048-.31838.61209,1.83719,1.2474,3.74233,1.99992,6.00084C138.957,208.00747,139.85674,207.38029,141.01175,206.57517Z"/><path class="a" d="M141.76187,198.983c2.34383-.78871,4.22908-1.41828,6.11073-2.0572,1.30709-.4424,2.10514-.19664,2.54166,1.31055.52652,1.81623,1.35393,3.5457,2.14959,5.56312-1.02153,3.18058-4.4057,3.49417-6.9216,5.35713C144.31288,205.66952,143.09819,202.48654,141.76187,198.983Zm4.45483,6.24182a4.55175,4.55175,0,0,0,4.07462-2.50188c-.42119-.98535-.80033-2.0596-1.32925-3.05656-.58392-1.1-1.79394-1.18426-3.50124-.44708a1.61015,1.61015,0,0,0-1.03447,2.28667C144.92137,202.72763,145.56376,203.88612,146.2167,205.22484Z"/><path class="a" d="M121.97739,232.01516c-1.093-1.86535-2.19285-3.73287-3.28472-5.60517a1.81793,1.81793,0,0,1,.37566-2.56982,5.452,5.452,0,0,1,3.13493-.70914c.43761.0375,1.15035,1.32469,1.06612,1.95654-.13817,1.04849.399,1.47915.91032,2.17188C125.85309,229.525,124.938,231.4207,121.97739,232.01516Z"/><path class="a" d="M186.5485,202.65274c2.6108,1.03207,3.403,2.76394,2.145,4.65266-.91978,1.38077-2.83308,1.50492-3.50591.09131a58.504,58.504,0,0,1-2.61308-6.5203c-.33815-1.0111-.7337-2.32872.729-2.96525.93274-.4049,2.19416.49848,2.70667,1.98926A19.22346,19.22346,0,0,1,186.5485,202.65274Zm-.12989,3.75156c.31718.02576.63544.05152.95263.07956a15.47545,15.47545,0,0,0-.03164-1.56327,1.95056,1.95056,0,0,0-.674-.07489C186.5521,205.3582,186.49122,205.88245,186.41861,206.4043Z"/><path class="a" d="M114.67665,224.87236c1.7822,2.17883,3.59592,4.33428,5.30561,6.5717.22467.29262-.08544.99242-.14859,1.50492a4.42279,4.42279,0,0,1-1.47915-.42132,4.86065,4.86065,0,0,1-.92447-1.27544c-1.63121.20826-2.42579.84251-2.22568,2.46905a2.036,2.036,0,0,1-.83316,1.52121,23.4551,23.4551,0,0,1-.646-10.08229Q114.201,225.01622,114.67665,224.87236Z"/><path class="a" d="M135.38429,225.52758a7.064,7.064,0,0,1-1.7049,1.0836c-1.62774.46805-3.334.73262-3.53516,2.97232a12.15848,12.15848,0,0,1-3.50831-7.8263c2.24917.59219,1.58568,3.36788,3.2532,4.29235,1.726-1.36688,1.96242-2.47852.65522-4.15191-.55936-.71848-.94317-1.39012-.10521-1.84187.35565-.18956,1.50012.358,1.74708.84251a17.05922,17.05922,0,0,1,.94544,3.37962c.58165.15206,1.27317.33468,1.96362.51478C135.19125,225.03844,135.28723,225.28181,135.38429,225.52758Z"/><path class="a" d="M169.35146,189.2142a15.81932,15.81932,0,0,0,9.28075-2.902c.32414-.213.85547-.11467,1.29079-.15913.04673.52425.33575,1.27077.09478,1.53284a5.52515,5.52515,0,0,1-2.24916,1.64295c-2.80145.84491-5.67191,1.45579-8.49446,2.23515-1.35034.37446-2.62938,1.025-3.99026,1.33871-.38968.08891-.95023-.55468-1.43349-.86132a5.97752,5.97752,0,0,1,1.14087-.983c.91514-.4587,1.88633-.80272,2.83309-1.19827C168.42938,189.60747,169.032,189.35,169.35146,189.2142Z"/><path class="a" d="M181.39268,192.85348c-4.35068-.03739-7.61324,2.43166-11.34611,3.499-1.25795.36045-2.2246.61316-2.65754-1.22871a8.78892,8.78892,0,0,1,2.46557-1.20762A24.6709,24.6709,0,0,0,178.5,190.64182C179.74277,189.9491,180.18853,190.26976,181.39268,192.85348Z"/><path class="a" d="M148.20021,212.19916c2.42231.73023,1.18893,4.1682,4.146,3.79134-.32184,1.46274-1.65937,2.9208.55576,3.67919.23762.08184.03164,1.45806.03164,2.37306-2.36264-.22935-1.918-2.47144-3.48711-3.431-.33587.02349-1.05556.07489-1.92383.13577A11.36738,11.36738,0,0,1,148.20021,212.19916Z"/><path class="a" d="M171.51625,201.68381c2.28428,1.2123,1.24513,3.534,2.93374,4.81419a14.00651,14.00651,0,0,1,1.86056.19424,2.0105,2.0105,0,0,1,1.77994,2.221,3.61442,3.61442,0,0,1-1.21123,2.33568c-.91045.64131-1.89448-.03979-2.3521-.92915-1.11871-2.17187-2.14024-4.39515-3.11156-6.635C171.2307,203.25655,171.4531,202.65034,171.51625,201.68381Z"/><path class="a" d="M153.782,216.27138c-.846-1.86991-1.57741-3.4871-2.30523-5.09495,1.65109-1.34806,1.65109-1.34806,3.92134-.99708a3.05479,3.05479,0,0,1-.39915.95263c-1.41708,1.479-1.341,1.82772.61328,2.46665,2.23155.73022,2.88329,2.11579,1.836,4.1519-.20479.40022-.84838.57338-1.29078.85185a4.0939,4.0939,0,0,1-.60142-1.35033,7.15558,7.15558,0,0,1,.51132-1.88872C155.18388,215.71442,154.62932,215.93442,153.782,216.27138Z"/><path class="a" d="M178.73636,202.81415c-.42361.26218-.56165.29956-.57219.36044-.123.70446,1.05664,1.62666-.29837,2.08536a1.31468,1.31468,0,0,1-1.1948-.39088c-.495-.887-1.17957-1.94013-.18957-2.853a26.62475,26.62475,0,0,1,3.1372-2.11328c.40957,1.33165.65774,2.2959,1.003,3.22265a17.33993,17.33993,0,0,0,1.32457,3.05656c.756,1.22871.32414,1.86991-1.11042,2.66341C180.10549,206.74844,179.43266,204.81287,178.73636,202.81415Z"/><path class="a" d="M132.86492,220.32491c.68337-1.39252,1.83721-1.68969,2.56383-.85893a14.70615,14.70615,0,0,1,2.262,4.13549,1.82574,1.82574,0,0,1-.65294,1.65c-.75239.43521-.93728-.31132-1.29426-.93382-.5687-.99-1.58675-1.70383-1.32936-3.09407C134.4458,221.05513,133.55524,220.71578,132.86492,220.32491Z"/><path class="a" d="M106.39047,219.58305c.1276-1.50491-1.17013-3.03787.58858-4.70179a35.70855,35.70855,0,0,1,2.93482,2.90905,1.828,1.828,0,0,1,.11946,1.71545,2.23438,2.23438,0,0,1-1.64414.57578A8.28637,8.28637,0,0,1,106.39047,219.58305Z"/><path class="a" d="M114.91882,212.00025c.818.47979,1.506.88229,1.98818,1.16544-1.02165,1.45806-1.91916,2.7383-2.80852,4.00907C111.97226,215.44529,112.03075,214.97245,114.91882,212.00025Z"/><path class="a" d="M117.66407,212.69992c.98762-.59914,1.88525-1.14208,2.88449-1.74817.76883,1.5586-.10173,2.14144-.95946,2.70775C118.82724,214.16277,118.193,214.10418,117.66407,212.69992Z"/><path class="a" d="M192.1526,183.42413c-.77109.44228-1.42523.67175-1.93666-.17555a.74322.74322,0,0,1,.23522-.69032C191.28085,182.19314,191.85422,182.44825,192.1526,183.42413Z"/><path class="a" d="M218.49477,175.50664c-.33936.61316-.6261,1.13034-1.03448,1.86764,1.26263.96425,2.55461,1.94719,4.15191,3.16656-.66,1.12566-1.43,2.441-2.4071,4.10733-1.44871-1.41828-2.61895-2.565-3.84766-3.768-.681.62957-1.21457,1.121-1.73414,1.59838-.30784-.26674-.57338-.4001-.56176-.50076.31479-2.81319-1.72839-4.39755-3.21675-6.27693-.54307-.68577-1.62428-1.25675-.46579-2.57209a25.62764,25.62764,0,0,0,4.24549,1.96828A26.8826,26.8826,0,0,0,218.49477,175.50664Z"/><path class="a" d="M240.79036,165.53891a4.3998,4.3998,0,0,1-4.06515,1.88165,7.468,7.468,0,0,0-2.70786.72328c-2.29123.74413-2.9758.09586-2.56275-2.839.54413.522.94436.90806,1.40427,1.35046.80391-.54533,1.65109-1.086,2.46208-1.67806,2.61536-1.90514,3.12438-1.856,5.4742.60381C240.8009,165.59271,240.79036,165.53891,240.79036,165.53891Z"/><path class="a" d="M230.66123,189.33355c.23868-.819.22239-1.97057.7688-2.38949a19.07352,19.07352,0,0,1,4.32158-2.35209,2.81519,2.81519,0,0,1,2.13089.18262,1.41508,1.41508,0,0,1-.08543,2.6773c-2.08057.90806-4.25712,1.5985-6.3928,2.37786C231.15622,189.666,230.90938,189.49975,230.66123,189.33355Z"/><path class="a" d="M252.59649,185.8371c-.48566.63892-.85078,1.62414-1.48263,1.84414-1.33055.4635-1.66632,1.36448-1.59382,2.78515-1.68981-.36511-3.40526.29011-4.566-1.63828a6.95375,6.95375,0,0,0,2.16828-1.15382c.42131-.48446.38273-1.36675.59446-2.27492.95838.35109,1.918,1.28958,2.88809.00239.1662-.22228,1.35273.32294,2.07121.5149Z"/><path class="a" d="M241.468,193.04544c-2.303,1.12339-4.75679,1.07893-7.31367,1.03675a5.92207,5.92207,0,0,1,6.33768-4.74385c-.85066.99457-1.52,1.77632-2.46437,2.881,1.36208.05848,2.39068.10521,3.41929.14979C241.454,192.59609,241.46091,192.82077,241.468,193.04544Z"/><path class="a" d="M245.91586,184.44925c-1.28023.40957-2.35329.7512-3.80428,1.21458-.28435-.9361-.54534-1.79035-.949-3.115,1.15382.426,1.71665.63425,2.65514.98306-.34163-2.27025.66469-3.45918,2.58612-3.84766a1.82536,1.82536,0,0,1,2.41764,1.61252c-1.052.18489-2.01741.35337-3.20754.56175C245.7076,182.65879,245.79771,183.43587,245.91586,184.44925Z"/><path class="a" d="M222.29318,175.98871c-1.16543-1.70371-.40022-2.65861.50208-2.95591a13.0085,13.0085,0,0,0,3.26362-2.06654c1.396-.95719,2.32513-.5312,3.15135,1.46273-.86013.04446-1.64414.082-2.54874.1287-.14509.59218-.29368,1.19827-.48326,1.96828C224.726,174.4113,223.09123,173.5664,222.29318,175.98871Z"/><path class="a" d="M233.06244,169.46614c1.57166-.32773,3.09635-.646,4.86212-1.01339.28447,1.2685.52077,2.32166.75252,3.35374C235.54683,173.14987,234.28181,172.65367,233.06244,169.46614Z"/><path class="a" d="M237.13358,176.31644c1.20535-.33935,1.973-.55708,2.92308-.82621a3.97714,3.97714,0,0,0,.09252-.94544c-.137-1.07426.38151-1.82558,1.36793-1.6571a3.571,3.571,0,0,1,2.2433,1.3809c.54293.887-.27034,1.62653-1.1422,1.90969a35.10975,35.10975,0,0,1-4.112,1.05088C238.22773,177.283,237.84969,176.81025,237.13358,176.31644Z"/><path class="a" d="M230.13,174.58457c1.1023.94784,1.57382,2.32861,1.47328,4.36244-1.90861-1.23111-2.93254-.30664-3.70015,1.3761a1.55159,1.55159,0,0,1-.25284-2.49948C228.4238,176.8547,229.1599,175.85534,230.13,174.58457Z"/><path class="a" d="M235.70128,181.12823c-2.58264.91273-4.53571,2.35438-6.95682,2.331q-.14739-.32642-.2949-.65294c1.84546-1.004,3.692-2.00807,5.872-3.1946C234.50181,179.81061,234.94877,180.302,235.70128,181.12823Z"/><path class="a" d="M110.75182,195.84222c1.57621-.38153,2.558-.6974,3.56439-.84491,1.84882-.2738,2.45263.47979,1.88752,2.28188a11.72217,11.72217,0,0,1-.65533,1.38784c.59674.39316,1.169.77,2.02677,1.33632-1.44405.92219-2.66449,1.70155-4.1881,2.67515C111.87161,200.73825,111.95237,198.19192,110.75182,195.84222Z"/><path class="a" d="M147.71107,189.48573a3.08161,3.08161,0,0,1-.45055.44228c-3.79841,2.35677-3.78667,2.35209-5.27864-1.89328-.2774-.7887-.6998-1.526-1.04273-2.2609,2.13795-1.72947,2.13795-1.72947,4.32744-1.66632.60968,1.67339-3.35613,1.03914-1.6009,3.37949.97254-.30184,1.95894-.60848,3.11745-.9712C147.10379,187.5432,147.4103,188.52147,147.71107,189.48573Z"/><path class="a" d="M138.71813,194.87329c-.42477-.05152-1.15729.01642-1.22871-.17315-.85413-2.22112-1.63121-4.47256-2.36372-6.73562-.08316-.25751.2223-.63893.48327-1.31535.67523.7325,1.13512,1.23111,1.59036,1.72252.56282-.69979,1.15261-1.4323,1.7424-2.16481q.28436.13678.56978.27381c-.21413.95251-.42826,1.905-.64946,2.89036.88.72783,1.78232,1.47448,2.77341,2.2959-1.46394,1.334-2.28775-.32533-3.3269-.19185q.1616,1.73775.32773,3.47776Z"/><path class="a" d="M120.44683,194.73753c-1.03327.23174-1.89567.42359-2.75819.61783-.10533-.15446-.21172-.30892-.31707-.46337.36512-.42827.66109-1.121,1.10577-1.23339,1.83492-.461,3.07418-2.64459,5.72584-1.91436-2.12394,2.05947-2.87754,4.06754-.39207,6.04278C121.75163,199.34574,121.56314,199.17486,120.44683,194.73753Z"/><path class="a" d="M134.32058,194.07284a2.21045,2.21045,0,0,1-2.41177,1.88166,2.38669,2.38669,0,0,1-2.15665-1.60078c-.9736-2.39415-.26326-4.72288,1.84654-5.45539.38381-.13349.92567.1849,1.61372.3463a15.32758,15.32758,0,0,0-2.12742,2.45982c-.261.47979.03391,1.26143.08076,1.94013C132.25285,193.79209,133.20189,193.92078,134.32058,194.07284Z"/><path class="a" d="M128.6803,196.58874c-1.09067.67643-1.82785.5173-2.07481-.36032a41.60937,41.60937,0,0,1-.94435-4.67842c-.03393-.21066.40142-.49621.86837-1.03448C127.303,192.699,127.96876,194.5784,128.6803,196.58874Z"/><path class="a" d="M109.14865,203.57481c-1.66752-1.97056-1.966-4.30157-2.24677-7.2014C108.59157,197.96257,109.79692,201.80076,109.14865,203.57481Z"/><path class="b" d="M269.41213,188.65952a24.16168,24.16168,0,0,0,.57337,4.01853q2.96646,9.43282,6.12247,18.8049c2.03144,6.07334,4.13072,12.122,6.2266,18.17305a18.88455,18.88455,0,0,0,1.05784,2.34047c1.506,2.96525.13217,5.4718-3.23331,5.92583-4.1646.55936-8.33053,1.114-12.48351,1.75056-4.91245.75132-9.80032,1.66165-14.71758,2.37546-8.49086,1.22872-17.01216,2.25851-25.49138,3.56212-7.84381,1.20534-15.64314,2.68437-23.47172,3.99732-7.73138,1.29426-15.484,2.45982-23.20484,3.81483-7.15922,1.25688-14.281,2.73123-21.4344,4.02549-4.70071.84958-9.447,1.44165-14.13821,2.33568-4.11907.78871-8.18782,1.84187-12.28125,2.771-.35924.07957-.73249.10066-1.40653.18729-.11935-.31131-.28088-.66-.38621-1.02272-1.754-6.064-3.25775-12.21451-5.30907-18.17785-2.65634-7.72552-3.63342-15.81627-5.69062-23.66354-.6249-2.38493-1.37382-4.7369-2.16372-7.4377,12.65439-2.38253,25.4177-2.93841,37.94113-5.28,12.68481-2.37079,25.53356-3.85341,38.27339-5.94692,12.64624-2.07589,25.28661-4.22668,37.85688-6.71454,12.47776-2.46916,25.06313-4.19516,37.51513-6.77073Q269.49109,188.19327,269.41213,188.65952Z"/><path class="a" d="M269.41213,188.65952a24.16168,24.16168,0,0,0,.57337,4.01853q2.96646,9.43282,6.12247,18.8049c2.03144,6.07334,4.13072,12.122,6.2266,18.17305a18.88455,18.88455,0,0,0,1.05784,2.34047c1.506,2.96525.13217,5.4718-3.23331,5.92583-4.1646.55936-8.33053,1.114-12.48351,1.75056-4.91245.75132-9.80032,1.66165-14.71758,2.37546-8.49086,1.22872-17.01216,2.25851-25.49138,3.56212-7.84381,1.20534-15.64314,2.68437-23.47172,3.99732-7.73138,1.29426-15.484,2.45982-23.20484,3.81483-7.15922,1.25688-14.281,2.73123-21.4344,4.02549-4.70071.84958-9.447,1.44165-14.13821,2.33568-4.11907.78871-8.18782,1.84187-12.28125,2.771-.35924.07957-.73249.10066-1.40653.18729-.11935-.31131-.28088-.66-.38621-1.02272-1.754-6.064-3.25775-12.21451-5.30907-18.17785-2.65634-7.72552-3.63342-15.81627-5.69062-23.66354-.6249-2.38493-1.37382-4.7369-2.16372-7.4377,12.65439-2.38253,25.4177-2.93841,37.94113-5.28,12.68481-2.37079,25.53356-3.85341,38.27339-5.94692,12.64624-2.07589,25.28661-4.22668,37.85688-6.71454,12.47776-2.46916,25.06313-4.19516,37.51513-6.77073Q269.49109,188.19327,269.41213,188.65952ZM167.1199,216.578c1.79394-.027,3.60178.08184,5.37584-.11468,3.0998-.34175,6.17865-.87294,9.68337-1.38676q-.6636-4.04238-1.17263-7.144c-1.13381-.72544-2.57318.76534-2.82362-1.19708q1.592-.80561,3.17351-1.60665a110.63865,110.63865,0,0,0-11.641,1.42991c-6.22193.95023-12.45668,1.82317-18.6786,2.78743-4.3356.66935-8.64531,1.50251-12.98679,2.13448-1.84187.26914-3.7306.21294-5.56659.30185-.6448,2.92906,2.89863,4.70659,1.71906,7.50324-1.65591.11468-1.58677-2.98514-3.55386-1.55392-.73957,1.06718-.0925,2.70079-1.56807,3.5995-1.2486-1.6547.03272-3.04949.19652-4.44213a35.735,35.735,0,0,1,1.16209-4.60581c-2.1158.22-3.96821.40957-6.12834.63425.81566,3.49189,1.5435,6.60693,2.28187,9.76762a11.38039,11.38039,0,0,0,1.6535.01749c3.29994-.49381,6.5928-1.05076,9.89741-1.5236,7.55835-1.0848,15.12714-2.09231,22.67951-3.22037,2.15426-.32293,4.263-.95011,6.3916-1.43937Zm113.49443,13.74266.06435.09838c-1.29774-4.077-2.53927-8.17032-3.90962-12.22157-1.15022-3.40059-2.45155-6.74725-3.686-10.1174l-.0012.0562q-.94254-3.2474-1.88753-6.504c-11.9909,2.25851-23.8029,3.761-35.77511,6.05225,3.747,11.44449,6.29921,22.7906,10.02155,33.856,2.654-.33228,4.93113-.5687,7.19312-.91045,7.36987-1.11391,14.74442-2.21165,22.0968-3.44036,2.60013-.43522,5.35353-.47033,7.8777-2.25372C281.95544,233.42637,281.28369,231.87233,280.61433,230.32068Zm-46.41209-22.45125c-3.5258.5687-6.635,1.02393-9.72664,1.57981-5.73746,1.02967-11.44916,2.20926-17.19825,3.15709-6.47944,1.06719-12.99266,1.92971-19.4872,2.91613-2.74057.41664-5.45551.997-8.20075,1.36567-4.73343.63653-9.4937,1.09175-14.22246,1.75871q-13.635,1.92216-27.24675,4.00679c-4.98973.76175-9.95719,1.66045-15.00179,2.50883,1.84774,12.34787,5.982,23.61921,9.5101,35.4311,18.63534-3.321,37.02479-6.68878,55.44948-9.85534,18.42936-3.16657,36.89144-6.13182,55.6285-9.23284C240.51775,230.21775,237.40513,219.20152,234.20224,207.86943Zm-43.61651,5.81931a13.38541,13.38541,0,0,0-.41772-6.39041c-1.09772-3.9845-1.11871-3.97863-5.06115-3.01438-.51023.78871-.78751,1.72959-1.3948,2.04785a1.86119,1.86119,0,0,0-1.01338,2.36384c.43761,1.9998.95371,3.98331,1.44392,5.99833C186.41393,214.3382,188.37994,214.03288,190.58573,213.68874Zm25.94434-14.123c-.03283-.19077-.06674-.38141-.09956-.57218q-3.34554.57051-6.69,1.14088.06666.358.12988.71849Q213.20033,200.21053,216.53007,199.56574Zm23.09017.66468c1.63241.74653,3.22266.86947,4.61289-.54066Q241.9285,199.96009,239.62024,200.23042Zm14.05747-8.21477c.03282.18729.06793.37685.10065.564q1.4798-.30358,2.95937-.60848c-.02564-.1275-.0526-.25392-.07837-.38141Q255.16913,191.80385,253.67771,192.01565Z"/><path class="a" d="M234.71247,233.48964c-2.91732.48207-5.281.72544-7.56064,1.29881-1.74469.44-2.31926-.461-2.60254-1.7623-.4025-1.84655-.63065-3.73047-.98762-5.92344,3.24961-1.04849,6.45249-1.79046,10.26851-.65066C234.09811,228.59121,234.38713,230.88938,234.71247,233.48964Zm-5.46019-1.87231q-.05265-.21767-.1052-.43533-.66.179-1.32122.36044c.02924.12163.05739.241.08663.36272Q228.58293,231.76119,229.25228,231.61733Z"/><path class="a" d="M160.66982,231.21939c-.3874.52664-1.1761,1.12578-1.09414,1.56578.39783,2.12742-1.0075,2.32166-2.45861,2.67971-1.37024.33935-2.70081.83783-4.29342,1.34338-2.47266-3.59255-.28437-8.051-2.3883-11.85406,2.70774-.89631,5.09842-1.68968,7.29486-2.41764,1.49905.70447,1.49557,1.84655,1.68861,3.00156.32653,1.95547.8672,3.87223,1.31883,5.80529Zm-3.07417-6.68171c-1.98459-.16152-3.51047.33228-3.76211,1.86284-.29142,1.78579-.6237,3.92723,1.04262,5.31975a3.01227,3.01227,0,0,0,2.57557.17554,2.40915,2.40915,0,0,0,1.13861-1.94719A48.35684,48.35684,0,0,0,157.59565,224.53768Z"/><path class="a" d="M160.73765,231.34341c-.06675-1.99165-.151-3.98559-.19185-5.97724-.02109-1.0111.03739-2.02449.06075-3.10221,1.51546-.37327,2.784-.74545,4.07582-.99122,1.80328-.344,2.40242.02936,2.85872,1.80448.54534,2.11688,1.00524,4.25484,1.50252,6.38454a1.90468,1.90468,0,0,1-1.19119,2.32873c-1.7997.81446-3.644,1.52828-5.42964,2.26785-.66708-1.07893-1.2112-1.96134-1.75416-2.84123Zm6.39627-2.89971c-.36272-1.42055-.60153-2.51817-.92673-3.59015-.68112-2.235-.96666-2.31926-3.61246-1.05544.234,1.92143.47752,3.91536.76535,6.2792C164.83563,229.43839,165.84206,229.00306,167.13392,228.4437Z"/><path class="a" d="M169.37949,221.15231c2.45395-.30544,4.42691-.54773,6.39867-.79924,1.369-.17435,2.10166.22695,2.22915,1.78806.15566,1.88633.62251,3.74461,1.00056,5.88138-1.63361,2.91372-5.01309,2.54633-7.84966,3.8733C170.54974,228.21208,169.99265,224.85127,169.37949,221.15231Zm3.12438,7.00357a4.55,4.55,0,0,0,4.49126-1.64068c-.21761-1.04849-.37446-2.17883-.69512-3.26015-.35337-1.19468-1.52241-1.51882-3.342-1.135a1.61011,1.61011,0,0,0-1.46861,2.03611C171.73158,225.45041,172.13061,226.71423,172.50387,228.15588Z"/><path class="a" d="M143.41885,249.58679c-.69979-2.04317-1.40654-4.09342-2.10405-6.14355a1.81975,1.81975,0,0,1,.88-2.44568,5.44964,5.44964,0,0,1,3.2133-.07022c.42131.12174.86359,1.52588.65533,2.12969-.344.99936.09718,1.52828.4599,2.30764C147.71227,247.91808,146.4391,249.59374,143.41885,249.58679Z"/><path class="a" d="M212.54091,233.66039c2.35316,1.53068,2.785,3.38429,1.176,4.98735-1.176,1.17023-3.07524.91045-3.45319-.61076a58.24676,58.24676,0,0,1-1.26382-6.90878c-.12989-1.058-.2551-2.427,1.30468-2.75939.99469-.21066,2.05145.92447,2.25624,2.48546A19.23484,19.23484,0,0,1,212.54091,233.66039Zm-.87308,3.651c.30544.08891.61208.17782.91752.26686a15.49339,15.49339,0,0,0,.27968-1.53763,1.9714,1.9714,0,0,0-.646-.20838C212.0061,236.31206,211.84218,236.81294,211.66783,237.31142Z"/><path class="a" d="M137.68486,241.1356c1.313,2.49013,2.66221,4.964,3.89212,7.49629.16262.33-.28088.9549-.44468,1.44632a4.42434,4.42434,0,0,1-1.36567-.70914,4.87172,4.87172,0,0,1-.653-1.4323c-1.63948-.12175-2.54513.34175-2.67155,1.97524-.03978.4986-.52544.962-1.11991,1.32469a23.4508,23.4508,0,0,1,1.37275-10.00752C137.02485,241.19647,137.35486,241.166,137.68486,241.1356Z"/><path class="a" d="M157.84848,245.89826a7.1597,7.1597,0,0,1-1.88632.72316c-1.6886.13577-3.41353.05392-4.05593,2.20938a12.16017,12.16017,0,0,1-1.88045-8.36923c2.08524,1.0298.88349,3.61819,2.33328,4.854,1.96363-.997,2.41645-2.0385,1.46861-3.93885-.40608-.81447-.64827-1.54937.26326-1.82545.3862-.1148,1.39839.64826,1.5447,1.17251a17.1397,17.1397,0,0,1,.25391,3.50112c.53947.26446,1.1808.58045,1.822.89643C157.756,245.37869,157.80163,245.63848,157.84848,245.89826Z"/><path class="a" d="M198.36158,217.06943a15.84282,15.84282,0,0,0,9.67284-.997c.35926-.14512.86133.05619,1.29653.09825-.05847.52425.07609,1.31415-.21293,1.52361a5.55574,5.55574,0,0,1-2.53112,1.162c-2.91265.26925-5.84746.29609-8.76826.49968-1.39839.09838-2.78156.481-4.17755.5173-.399.01162-.82034-.73263-1.23338-1.12926a5.98811,5.98811,0,0,1,1.31415-.7361c.98762-.26674,2.00807-.41185,3.01438-.60968C197.37983,217.27074,198.02115,217.13737,198.36158,217.06943Z"/><path class="a" d="M209.43748,223.03037c-4.25591-.901-7.94445.86839-11.81536,1.17263-1.3048.10294-2.30176.15674-2.35915-1.73426a8.76973,8.76973,0,0,1,2.65633-.69164,24.68062,24.68062,0,0,0,9.124-1.48838C208.39834,219.85686,208.7716,220.25936,209.43748,223.03037Z"/><path class="a" d="M173.05975,235.38531c2.22927,1.19828.33589,4.32038,3.30928,4.54266-.60729,1.36915-2.20806,2.53232-.18717,3.71418.21641.12869-.25979,1.4347-.44239,2.3334-2.269-.69751-1.38666-2.80612-2.73352-4.0582-.33468-.04445-1.04969-.13576-1.91329-.25044A11.37253,11.37253,0,0,1,173.05975,235.38531Z"/><path class="a" d="M198.00234,229.71927c1.99752,1.643.51729,3.71177,1.91688,5.30093a14.16743,14.16743,0,0,1,1.78448.56175,2.00948,2.00948,0,0,1,1.3024,2.52992A3.629,3.629,0,0,1,201.355,240.162c-1.02047.44707-1.84894-.41892-2.12037-1.3785-.66468-2.35209-1.22282-4.7345-1.72959-7.12411C197.40909,231.20309,197.74734,230.65536,198.00234,229.71927Z"/><path class="a" d="M177.72068,240.48733c-.45762-2.001-.85317-3.73059-1.24632-5.45311,1.88632-.99229,1.88632-.99229,4.0419-.19424-.206.31131-.32773.6787-.58163.85425-1.68275,1.16556-1.67688,1.52121.11,2.53926,2.042,1.1585,2.4047,2.647.9736,4.43278-.27968.351-.94544.39316-1.43468.578a4.11491,4.11491,0,0,1-.31948-1.444,7.09626,7.09626,0,0,1,.87654-1.74828C179.20439,240.22047,178.617,240.3258,177.72068,240.48733Z"/><path class="a" d="M204.85264,232.2656c-.46685.17088-.60968.18022-.63185.2387-.261.66468.71141,1.80448-.70794,1.98231a1.31226,1.31226,0,0,1-1.09295-.62023c-.30892-.96653-.77-2.13437.38143-2.83189a26.20917,26.20917,0,0,1,3.49536-1.44632c.13695,1.38317.18836,2.37786.34174,3.35614a17.2248,17.2248,0,0,0,.69033,3.25775c.4962,1.35513-.055,1.89807-1.61828,2.39187C205.412,236.39162,205.137,234.36258,204.85264,232.2656Z"/><path class="a" d="M156.415,240.29776c.94663-1.22871,2.13676-1.29186,2.68317-.33228a14.721,14.721,0,0,1,1.39372,4.50288,1.82785,1.82785,0,0,1-.96773,1.4885c-.82381.27608-.85771-.49153-1.0836-1.17263-.36044-1.0836-1.21577-1.98459-.68685-3.29754C157.81926,241.32756,157.01293,240.81734,156.415,240.29776Z"/><path class="a" d="M130.617,234.304c.42479-1.4486-.54294-3.2109,1.51187-4.49114a36.06752,36.06752,0,0,1,2.29829,3.4333,1.83363,1.83363,0,0,1-.22466,1.70623,2.23481,2.23481,0,0,1-1.72613.2363A8.28383,8.28383,0,0,1,130.617,234.304Z"/><path class="a" d="M140.484,228.56772c.70556.63425,1.3,1.16557,1.71545,1.54-1.29066,1.224-2.42459,2.30057-3.54917,3.36775C136.91018,231.35755,137.06236,230.9082,140.484,228.56772Z"/><path class="a" d="M143.035,229.80111c1.08708-.39076,2.0747-.74425,3.17471-1.13968.44348,1.68034-.52663,2.07817-1.47915,2.462C143.88342,231.46515,143.27374,231.28266,143.035,229.80111Z"/><path class="a" d="M221.859,215.92975c-.8437.28076-1.53054.37674-1.86295-.55708a.7401.7401,0,0,1,.36751-.62837C221.24936,214.55125,221.76079,214.91637,221.859,215.92975Z"/><path class="a" d="M249.24971,213.41385c-.454.5312-.839.98175-1.38545,1.623,1.04609,1.196,2.11567,2.41764,3.43917,3.9307-.87185.97132-1.88752,2.10633-3.17591,3.5445-1.13859-1.67807-2.0572-3.03428-3.02145-4.45723-.79218.481-1.41359.85653-2.01742,1.22057-.24924-.32186-.48206-.50675-.45055-.60274.86719-2.69252-.81914-4.65266-1.90382-6.7917-.39675-.77828-1.34219-1.55285.055-2.61188a25.69,25.69,0,0,0,3.76918,2.77329A27.01876,27.01876,0,0,0,249.24971,213.41385Z"/><path class="a" d="M273.08305,208.08009a4.40312,4.40312,0,0,1-4.359,1.03675,7.45962,7.45962,0,0,0-2.798.16847c-2.39308.27393-2.93482-.49728-1.946-3.29286.42946.62131.74544,1.07893,1.10816,1.60317.89631-.37446,1.83372-.7349,2.74645-1.15382,2.94189-1.34578,3.431-1.19827,5.24473,1.68035C273.08185,208.13629,273.08305,208.08009,273.08305,208.08009Z"/><path class="a" d="M258.42168,229.38459c.39674-.756.60967-1.88872,1.2287-2.18829a19.05853,19.05853,0,0,1,4.703-1.44632,2.81283,2.81283,0,0,1,2.05253.60381,1.41552,1.41552,0,0,1-.61664,2.60721c-2.21992.475-4.49.71848-6.738,1.05784C258.84058,229.80818,258.63232,229.59524,258.42168,229.38459Z"/><path class="a" d="M280.61433,230.32068c-.60261.53132-1.1573,1.42295-1.81957,1.51186-1.39612.18957-1.90515,1.00644-2.11689,2.41537-1.58328-.69512-3.39471-.39327-4.14831-2.5159a7.01732,7.01732,0,0,0,2.35438-.69752c.509-.39075.64706-1.26382,1.03566-2.11328.86935.53587,1.62187,1.64763,2.82949.578.20706-.18489,1.26143.58512,1.92731.9174Z"/><path class="a" d="M268.27353,235.17238c-2.47959.6412-4.87614.11-7.37335-.44a5.92431,5.92431,0,0,1,7.15454-3.389c-1.031.80752-1.843,1.43937-2.98754,2.3334,1.3223.33,2.32166.58045,3.321.82849C268.34962,234.7277,268.31091,234.95,268.27353,235.17238Z"/><path class="a" d="M274.34327,227.63391c-1.33631.14511-2.45622.26685-3.97048.43066-.09239-.9712-.17783-1.863-.31-3.24146,1.0461.64839,1.55632.96425,2.407,1.49209.11707-2.29242,1.33871-3.25667,3.3-3.25439,1.1561.0012,1.99393.4587,2.04773,2.05959-1.06718-.02816-2.04665-.055-3.25427-.08783C274.49545,225.83649,274.42871,226.61585,274.34327,227.63391Z"/><path class="a" d="M252.87617,214.64136c-.80273-1.90274.13684-2.68557,1.08012-2.798a13.07276,13.07276,0,0,0,3.60993-1.37382c1.55871-.66229,2.38373-.05848,2.79677,2.05959-.85185-.12881-1.62773-.247-2.52285-.38153-.25978.55-.52664,1.11524-.866,1.83253C255.57458,213.57993,254.14,212.42611,252.87617,214.64136Z"/><path class="a" d="M264.72783,210.3924c1.60557-.00935,3.16309-.01762,4.96625-.02576.027,1.29893.04925,2.37785.07022,3.43569C266.42926,214.49625,265.28838,213.75788,264.72783,210.3924Z"/><path class="a" d="M267.35493,217.91433c1.2486-.09358,2.04426-.15325,3.0284-.227a4.03108,4.03108,0,0,0,.27968-.90925c.07957-1.08013.7361-1.71317,1.66992-1.35166a3.56882,3.56882,0,0,1,1.92383,1.79981c.35565.97708-.58872,1.54111-1.49905,1.64416a35.15409,35.15409,0,0,1-4.23961.21173C268.23494,219.0799,267.95756,218.54151,267.35493,217.91433Z"/><path class="a" d="M260.83583,214.82266c.89164,1.15035,1.07893,2.59787.57565,4.57083-1.62534-1.58676-2.81307-.88469-3.90014.612a1.5521,1.5521,0,0,1,.25032-2.50069C258.71189,216.70911,259.63168,215.87583,260.83583,214.82266Z"/><path class="a" d="M264.99349,222.34592c-2.71254.38021-4.91365,1.40306-7.28216.89978-.05261-.23162-.10521-.46565-.15793-.69979,2.00807-.61543,4.01721-1.23339,6.3892-1.96122C264.08076,220.814,264.42011,221.38742,264.99349,222.34592Z"/><path class="a" d="M139.61456,211.90546c1.62067-.05967,2.6458-.17555,3.66145-.12054,1.86656.10065,2.30766.95957,1.39612,2.61415a11.94066,11.94066,0,0,1-.9186,1.22872c.50663.50435.99229.98761,1.72012,1.712-1.5985.61675-2.95,1.1386-4.63625,1.78927C139.73739,216.92672,140.3237,214.44593,139.61456,211.90546Z"/><path class="a" d="M177.09926,213.02992a3.06493,3.06493,0,0,1-.52892.34175c-4.19157,1.55632-4.17875,1.55165-4.79658-2.90438a24.67166,24.67166,0,0,0-.57229-2.42231c2.43993-1.27089,2.43993-1.27089,4.5731-.77349.26447,1.76111-3.49645.3499-2.2421,2.99449,1.01338-.10293,2.0409-.20826,3.24853-.33228C176.891,211.00316,176.99633,212.02481,177.09926,213.02992Z"/><path class="a" d="M167.21468,216.51942c-.40609-.13456-1.1374-.21521-1.17023-.41424-.39435-2.345-.70794-4.70647-.97588-7.07139-.03043-.26805.34523-.58164.736-1.1924.51488.85185.86718,1.4323,1.21468,2.00567.69152-.57457,1.4148-1.1761,2.13916-1.77632.16728.1263.33456.25511.50315.38261-.399.89056-.79805,1.77992-1.2112,2.70319.71739.88816,1.45337,1.79969,2.26089,2.80025-1.69915,1.01566-2.17667-.77241-3.22156-.84958q-.18783,1.73775-.371,3.47308Z"/><path class="a" d="M149.33533,212.75144c-1.05783.02109-1.94132.03751-2.826.0562-.07142-.17315-.14511-.34522-.21773-.51717.44242-.34642.87067-.96665,1.32817-.98774,1.89112-.08891,3.53875-1.97991,5.99258-.73718-2.49134,1.5961-3.62874,3.41233-1.58674,5.844C149.69805,217.52585,149.54707,217.32227,149.33533,212.75144Z"/><path class="a" d="M163.064,214.86017a2.21253,2.21253,0,0,1-2.73818,1.36448,2.38492,2.38492,0,0,1-1.79394-1.99873c-.47859-2.53938.681-4.67962,2.895-4.97919.4025-.055.86947.36631,1.51187.66121a15.38891,15.38891,0,0,0-2.57436,1.987c-.3511.41891-.21774,1.24393-.30666,1.91676C161.09341,214.1744,161.998,214.48918,163.064,214.86017Z"/><path class="a" d="M157.03629,216.20356c-1.204.44695-1.89447.14271-1.96122-.76654a41.60722,41.60722,0,0,1,.00468-4.77081c.00827-.21414.49274-.4073,1.05676-.84251C156.46064,212.1184,156.73912,214.09255,157.03629,216.20356Z"/><path class="a" d="M136.5054,219.16414c-1.24285-2.26319-1.07078-4.60594-.76882-7.50564C137.07638,213.55189,137.493,217.55389,136.5054,219.16414Z"/><path class="a" d="M157.97718,37.06831c-.48446-1.6523-.96893-3.30461-1.50718-5.1418-.68806.01642-1.327.06554-1.96363.03978a3.18688,3.18688,0,0,0-3.45786,2.27493,19.41123,19.41123,0,0,1-3.004,4.74157c-.48087-2.28655,1.43937-3.62286,2.07949-5.44963a47.35853,47.35853,0,0,1,2.45383-5.47876c.91752-1.83372,1.95774-3.60777,2.94429-5.40746q.34923.04206.6986.08424c.30543,1.51894.58271,3.04482.92913,4.55321.24565,1.06838-.09011,2.36959,1.1549,3.06711.07609.04445.19663.17075.18489.19184C157.22826,32.64739,159.09,34.84731,157.97718,37.06831Zm-1.533-6.4617c-.29022-1.95187-.50435-3.40179-.71848-4.8505-.22468-.02217-.44936-.04685-.674-.069-.74773,1.547-1.49557,3.09634-2.44688,5.06691C154.0956,30.6978,155.08909,30.658,156.44422,30.60661Z"/><path class="a" d="M213.74264,31.20922c.22816,1.80209.4224,3.34319.64707,5.10442-.49608.612-1.10816.50663-1.47328-.45763a4.93252,4.93252,0,0,1-.1638-1.70023c.00935-4.008,0-8.01347.08425-12.01906.0176-.85186-.11349-1.91916,1.26848-2.63058-.08891,2.90906-.16966,5.55844-.26446,8.66413,2.06775-1.57046,3.73527-2.83655,5.41681-4.08168.01174-.01055.22827.25739.47165.536-.72317.79565-1.43231,1.6487-2.21994,2.42339-.80272.7923-1.68154,1.50611-2.73818,2.441,1.712,1.55524,3.27537,2.97472,4.83756,4.3918C216.99692,34.46122,216.33225,31.73694,213.74264,31.20922Z"/><path class="a" d="M243.82355,25.4998c-1.61024.23881-3.21916.47751-5.04114.74784-.07022,2.08644-.16273,3.97983-.19316,5.87311-.02924,1.67579.66708,3.44276-1.03088,4.95223-.01869-3.53863-.0375-7.07725-.05738-10.843-1.69556.07022-3.20864.13336-5.3454.22,1.75177-1.90035,3.59711-1.06251,5.13125-1.85829.9736-1.61719-.22935-3.98091,1.64535-6.12594-.07728,2.38013-.13576,4.19984-.20131,6.21965,1.02741.01162,1.86057.02337,2.69373.03271.78175.00707,1.56231.01175,2.34394.0187C243.78725,24.992,243.80606,25.24588,243.82355,25.4998Z"/><path class="a" d="M224.8255,29.17419c-.45641,3.20167-.34163,3.38189,2.74059,4.53919-1.81852,1.43122-3.66734.7349-4.18691-1.64643-.29837-1.36448-.43654-2.76395-.63545-4.07582a12.25816,12.25816,0,0,1,1.64883-2.16133,11.98608,11.98608,0,0,1,3.01438-1.90741,1.84083,1.84083,0,0,1,1.73774.40729,2.36847,2.36847,0,0,1,.18609,2.06882,7.001,7.001,0,0,1-2.19644,2.10525A8.5097,8.5097,0,0,1,224.8255,29.17419Zm3.39351-4.09091a2.70343,2.70343,0,0,0-2.85405,2.41991C227.06172,27.35808,228.16762,27.01993,228.219,25.08328Z"/><path class="a" d="M181.28269,26.1259c1.47207-1.95068,3.72591-.935,5.4005-2.014.30184-.65054.63532-1.35968,1.23686-2.65166.32293,1.17731.47272,1.72372.60033,2.193,1.10457.69045,2.48307-.70206,3.445.55241-.19436.2363-.29381.475-.41544.48674-3.81363.4025-3.34558.3324-3.45439,4.10038-.055,1.88165-.64718,4.002,1.08588,5.57833-1.49437,1.08708-2.02209,1.04262-2.12274-.2236-.15207-1.90274-.11348-3.8195-.15087-5.73159-.01521-.85185-.01521-1.70143-.02228-2.72416C184.92785,25.84274,183.10466,25.98426,181.28269,26.1259Z"/><path class="a" d="M169.79146,26.78591c.35686.96772.71381,1.93425,1.04381,2.83068,1.15382-.69044,2.29123-1.42175,3.493-2.02448.16621-.08185.65294.47979,1.50958,1.14914a4.032,4.032,0,0,0-4.17059,2.85765,45.00357,45.00357,0,0,0-1.12806,4.717c-.247-.01641-.49261-.03271-.73836-.04913q-.3897-4.60065-.7771-9.19652C169.28,26.97428,169.534,26.87949,169.79146,26.78591Z"/><path class="a" d="M204.80125,33.55305c2.15892.9573,3.129-1.025,4.73808-1.355-.93849,2.1835-2.66688,3.34091-4.36483,2.83763a2.787,2.787,0,0,1-1.60785-1.39131c-.78164-1.88633.52772-5.5642,2.22807-6.69812a1.57323,1.57323,0,0,1,2.44917.28554C205.178,28.33048,204.17981,30.52465,204.80125,33.55305Z"/><path class="a" d="M198.63431,36.06787a7.31614,7.31614,0,0,1-.53827-8.64544c-.00934,1.72492-.096,3.14907-.00587,4.56255C198.17669,33.35186,198.44594,34.70687,198.63431,36.06787Z"/><path class="a" d="M164.357,36.05732c-1.00752-2.18122-.832-4.23147-.91621-6.21845-.01175-.24337.57565-.5101,1.15849-.98989.17315,2.38708.32761,4.4069.44935,6.429C165.05564,35.40438,164.82161,35.54482,164.357,36.05732Z"/><path class="a" d="M198.78637,24.002c-1.22979-1.41828-1.27423-2.90785-.25272-4.80245C199.66878,20.96888,198.85431,22.50878,198.78637,24.002Z"/><path class="a" d="M163.45246,22.17183c1.46741.28782,1.46741.28782,1.57633,3.52221C163.463,24.82229,163.94986,23.40988,163.45246,22.17183Z"/></svg>