<svg xmlns="http://www.w3.org/2000/svg" viewBox="0 0 300 300"><defs><style>.a{fill:none;}.b{fill-rule:evenodd;}</style></defs><title>gl_nav10</title><rect class="a" x="27.59179" y="-43.4062" width="281.83689" height="281.8359"/><path class="b" d="M20.21177,74.8804c.916-.736,2.04863-.4202,3.06991-.42219,9.54514-.02146,19.09016.02659,28.63424.01633q27.37794-.02921,54.75778-.0961,27.25216-.03831,54.50528-.05213,39.30951-.043,78.618-.10834c2.07219-.00409,4.14332-.20445,6.21854-.31489.19628-1.56416-.644-1.83811-1.63157-1.86669-1.84011-.05213-3.68335-.05108-5.52439-.06134-26.374-.14928-52.748-.34347-79.121-.43245q-58.27493-.19785-116.54883-.27908-9.92134-.02292-19.84261-.08793a3.96924,3.96924,0,0,1-2.05073-.53974c2.58849-.85055,5.229-.42428,7.83379-.46615,2.67735-.044,5.35784.0715,8.03729.09505,2.67839.02355,5.35773.01842,8.03613.02659,2.67945.00816,5.35889.01026,8.0373.02763,2.67933.01832,5.35878.06742,8.03717.07558,2.76225.00922,5.52545-.01329,8.28874-.02145,2.6784-.00817,5.35669-.02345,8.03509-.02146s5.35784.02658,8.03728.0358c2.67736.00921,5.35471.01026,8.03207.02041q4.01914.017,8.03822.044c2.6784.01842,5.35784.05014,8.03729.06134,2.67023.01026,5.34037.00209,8.36536.00209.4201-13.45029.08175-26.72159.31383-40.30672-.98757-.09-1.94236-.24338-2.89916-.25354q-22.09836-.2393-44.19661-.43966-25.99159-.21151-51.98327-.37414c-.60005-.00408-1.19915-.09609-2.18871-.18193a2.74315,2.74315,0,0,1,2.62009-.76261c6.02739.05517,12.05384.16969,18.08123.231,12.8062.12981,25.61238.22486,38.41857.36189,12.88595.13692,25.7718.32912,38.65881.45694,8.029.07976,16.05908.06846,24.0881.12781,16.06829.11861,32.13659.278,48.20594.3844q17.57465.11651,35.15132.10426a17.43466,17.43466,0,0,0,4.10659-.76879c3.79159-.95376,7.5393-.783,10.30364,2.09982a13.36526,13.36526,0,0,1,2.99632,6.242c1.59881,7.4362,4.24036,14.64535,5.05929,22.243.6931,6.42613,2.3676,12.65179,3.52685,18.98181,1.15925,6.332,2.12023,12.703,3.395,19.01049,1.7552,8.68936,3.7896,17.32155,5.57139,26.00588.85674,4.174,1.5181,8.39813,2.05994,12.62635.29447,2.30217.0112,4.67385.2392,6.98827.48258,4.90907,1.11224,9.80275,1.71542,14.69852a296.47558,296.47558,0,0,1,2.50055,38.04538c-.044,6.94545.03883,13.89289-.03989,20.8373-.03067,2.67327-.38333,5.34141-.52236,8.01468-.07569,1.47821-.0133,2.96365-.0133,4.63a28.68919,28.68919,0,0,0,7.07526.01225c.10929-3.73548.41706-7.38606.28411-11.0202-.3332-9.02685-.82908-18.04857-1.33093-27.0682-.4315-7.76522-.80972-15.53871-1.49769-23.28152-.547-6.15416-1.469-12.27765-2.33084-18.39915q-1.66227-11.79967-3.50435-23.57286c-1.68684-10.73505-3.22536-21.50182-5.26583-32.1704-1.883-9.84871-4.50008-19.55431-6.50579-29.3825a216.4097,216.4097,0,0,0-7.59364-26.24623,47.89458,47.89458,0,0,0-3.81211-8.15987c-1.36472-2.40644-3.94295-3.34491-6.49867-3.51157-7.26127-.47337-14.53888-.875-21.81147-.93135-9.78736-.07454-19.57577.26893-29.36417.28829-3.50027.00618-6.99959-.52132-10.505-.60716-7.52613-.18612-15.05632-.22286-22.58445-.36094-8.27743-.15127-16.561-.19418-24.82925-.56329-10.61341-.47223-21.21248-1.25221-31.8217-1.84314a153.83467,153.83467,0,0,0-21.56516-.06648,10.92866,10.92866,0,0,1-1.73081-.08385c-1.81352-.13493-3.63007-.42626-5.4395-.38837-4.34065.09191-8.67826.44563-13.0189.49473-5.68487.06543-11.37288-.02962-17.05786-.12269-2.13865-.03475-4.27417-.25762-6.60806-.40784.5612-1.21756,1.43331-1.03562,2.19383-1.011,3.67926.12468,7.35643.33938,11.03665.40481,6.02528.10625,12.05372.22077,18.07912.141,4.42952-.05925,8.853-.44563,13.28156-.62861a17.96842,17.96842,0,0,1,2.67326.29541,11.37858,11.37858,0,0,0,1.48638.12771c10.22085-.231,20.38853.57973,30.56636,1.39133,6.67045.53367,13.37262.76272,20.06443.89148,13.97266.26882,27.94941.34555,41.923.57355,5.35063.08689,10.69716.49169,16.04683.53765,7.78061.06647,15.56437-.19115,23.34392-.06846,8.61587.137,17.22754.52445,25.83933.85054,3.33465.12467,5.68288,1.67041,7.50152,4.61564A49.53819,49.53819,0,0,1,244.78465,41.789c1.62341,5.18606,3.3603,10.34752,4.674,15.61439,2.08443,8.3572,3.87847,16.788,5.75846,25.19732,1.3505,6.04173,2.6406,12.0977,3.96756,18.1456a8.98866,8.98866,0,0,0,.4293,1.1245c1.89842-.12886,3.7896-.28212,5.68393-.38136,2.67234-.141,5.35061-.18905,8.01886-.37821,2.21832-.1564,4.34672-.16865,6.24209,1.99136,0,8.255-.00408,16.8688.002,25.48258A154.64451,154.64451,0,0,0,282,154.03c-1.08566.27594-2.11406.53765-3.42572.871-.06229,1.57432-.19314,3.13743-.17482,4.69845q.21009,19.08509.47443,38.16911c.12981,9.11981.31068,18.23763.46718,27.35743a9.59179,9.59179,0,0,1,.005,1.50272c-.20748,1.48638-.61532,3.00552,1.10617,4.14844-1.72568.28621-3.45231.5745-5.47739.91084-.38439-.782-1.36578-.8699-2.614-.81474-3.15586.137-6.32187.04292-9.48274.00513-.917-.0113-1.833-.19523-2.75-.21062-4.27009-.0715-8.54018-.15126-12.81028-.139-1.23284.003-2.45961.35069-3.69653.45495a7.46394,7.46394,0,0,1-3.21406.02042c-2.11615-.871-4.269-.66652-6.41388-.689-4.09935-.04093-8.2008.04909-12.3012.047a1.603,1.603,0,0,1-1.26351-.80354h18.72115c.20141-.188.26788-.24119.323-.30253a.491.491,0,0,0,.137-.19837,5.34818,5.34818,0,0,0,.14718-.98548q-.043-35.04193-.10835-70.08388c0-.49483-.10122-.99165-.18507-1.76243-1.21243-.0603-2.41052-.12059-3.60254-.18-1.02944-5.54072-.89042-11.14907-.98652-16.73889-.136-7.86749-.14518-15.73812-.29028-23.60457-.06438-3.51261-.35174-7.019-.49075-10.53061-.0848-2.17435.1186-2.45856,2.3073-2.56691,2.6651-.13295,5.33941-.135,8.00755-.09306a19.30167,19.30167,0,0,0,6.87186-.98035c-1.52218-8.63125-3.03819-17.22964-4.585-25.99572-1.1357-.1094-2.11615-.28327-3.0965-.28526q-23.36019-.03063-46.72154-.01434c-.74115,0-1.48334.09609-2.35848.15744-1.06106,3.9931.13294,8.02807-.49065,12.25933-13.27747.41705-26.43633,1.00788-39.69339-.37832-.49985-2.065-.09808-4.04618-.09913-6.01818-.00209-1.89841-.12782-3.79578-.2034-5.79531H20.28536C20.26087,75.26678,20.23627,75.07458,20.21177,74.8804ZM225.1445,30.72985q-52.90648-.37717-105.35685-.75036c-.86079,3.77023-.84855,37.11925-.01131,40.57146H225.1445Zm20.81584,125.1913c-.15849,2.03125-.35582,3.60661-.39057,5.1871q-.2054,9.153-.31991,18.30912-.25611,23.8264-.455,47.65395c-.00618.80448.12572,1.61011.18813,2.3543,4.04616.57858,14.92128.4539,16.8513-.22078.34556-4.48374.85871-9.05134,1.01008-13.63024.18194-5.42317.091-10.85565.048-16.28394-.05014-6.26869.03779-12.54962-.32619-18.802-.39256-6.74907-1.21955-13.47364-1.89935-20.20439-.16561-1.63566-.49683-3.256-.79737-5.16366C255.17928,155.38957,250.70987,155.64719,245.96034,155.92115Zm-.61344-85.18722c-.54791-3.948-.92518-7.68241-1.61315-11.35853-.79328-4.24968-1.80232-8.46157-2.82768-12.66309-.91188-3.72826-1.94845-7.42595-2.97789-11.12458a7.75682,7.75682,0,0,0-4.88447-5.3547c-2.30322-.88739-4.56247-.94664-6.61832,1.73584-.3312,12.53318-.3353,25.594-.003,38.76506ZM155.445,75.40381V86.24825c2.87061.30871,5.51414.81579,8.16092.83819,7.68043.06543,15.36284-.02449,23.04337-.14415,2.04968-.03161,4.09423-.39151,6.31161-.61741a62.44856,62.44856,0,0,0-.23931-10.92107Zm111.86778,79.56148c.15544,1.50073.29038,2.889.44468,4.27522.67478,6.06728,1.54165,12.12126,1.98331,18.20591.45287,6.25434.45391,12.54145.72471,18.81.19125,4.43068.58381,8.851.73916,13.28155.18194,5.177.19932,10.362.30054,15.5429a24.58537,24.58537,0,0,0,.17995,3.2509c.05925.38848.57251.70745.87808,1.05907q.25468-.12578.50814-.25144c-.0981-1.22269-.28213-2.44538-.28213-3.667-.0021-11.71844.03883-23.43792.04291-35.15646q.00614-15.44309-.047-30.88627c-.00513-1.57431.12468-3.20693-1.20123-4.71174-.76773,0-1.68067-.02355-2.59151.00921C268.50783,154.74546,268.02734,154.86,267.31279,154.96529Zm10.51428,29.216c-.12888-.02251-.25973-.044-.38849-.06543-.10018,1.98729-.30264,3.97667-.28222,5.96406.05832,5.65734.20454,11.31258.32514,16.96992.00921.458.08689.916.13284,1.374.07056-.00618.14216-.0133.21273-.02042Zm-33.95535,7.68754c.07673,0,.15336-.002.23009-.00408v-6.84108l-.23009.00607Zm.1544,14.29059c-.03266.01947-.06333.03883-.095.0583v2.59864h.095Zm7.34513-55.822c.10322-.03067.20654-.05925.30976-.08992V147.52c-.10322.00409-.20654.00922-.30976.01434Zm-9.13006,3.943c.03172.12164.06344.24433.0961.367q.50608-.11493,1.01416-.229c-.03884-.14917-.07673-.2974-.11556-.44563Q242.739,154.126,242.24119,154.28036Zm3.07305-16.57841c-.16875.01528-.33739.03067-.505.045q.05823.59794.11649,1.194c.12876-.0112.25867-.02355.38848-.03475Zm-1.29837,63.21c-.05821,0-.11652-.001-.17378-.001V202.196h.17378Z"/><path class="b" d="M155.13421,242.18166a85.83312,85.83312,0,0,1-8.91839-.08992c-1.47623-.15744-2.90022-1.16951-4.25272-1.95766a2.29345,2.29345,0,0,1-1.07749-1.60394c.02241-1.879-1.4108-3.46969-.83934-5.49382.24129-.85463-.33425-1.94238-.54791-2.92378-.22182-1.01814-1.10513-1.11633-1.89736-1.378-2.98407-.98642-2.99224-1.0529-3.2059-4.24246-.07673-1.15925-.414-2.30217-.4785-3.46048-.10112-1.81759-.07663-3.64241-.094-5.46409a23.55485,23.55485,0,0,0-.00817-2.73974c-.86792-6.7542-.52749-13.52484-.35477-20.29746.20141-7.86037.3599-15.7218.54079-23.58311a247.02725,247.02725,0,0,1,2.01294-29.262,21.209,21.209,0,0,0-.05119-2.69263,4.05244,4.05244,0,0,1,.20455-1.40871c.7043-1.78389,1.41069-3.57186,2.23978-5.29954a3.53753,3.53753,0,0,1,1.40158-1.34946,19.51059,19.51059,0,0,1,10.26065-2.85018c11.54465.17179,23.09246.21984,34.63.58277,7.60171.24024,15.19012.90676,22.77853,1.468a10.65377,10.65377,0,0,1,4.09736.99982c2.34509,1.23493,3.1343,3.60054,3.40217,6.06832.53974,4.97952.9814,9.9693,1.44043,14.95709.58988,6.41178,1.22771,12.82043,1.71228,19.23943.50405,6.67035.99679,13.34792,1.2319,20.03062.33227,9.44495.40995,18.899.62874,28.347a52.89436,52.89436,0,0,0,.372,6.00091c.39768,2.91142-.20235,3.91731-3.26106,4.544-1.43016,4.19545-.47536,8.898-2.018,13.01262-1.1562.09411-2.1622.22287-3.17114.24433-1.56415.03381-3.13031.02764-4.69227-.03371-.74534-.02857-1.48031-.25552-2.22659-.33937-3.11691-.34755-3.58317-.85055-4.05235-4.00535-.40282-2.71316-.917-5.40789-1.38107-8.10471-2.85835,0-5.51424-.02962-8.16909.00827-2.75617.03779-5.52041.32713-8.26319.17786-6.87688-.37414-13.70782.22894-20.551.65834-1.25335.07977-2.50672.25763-3.75589.22591-1.40055-.0358-1.91475.60831-2.05481,1.91683-.23313,2.16211-.5612,4.315-.89345,6.46486C155.70871,239.6158,155.446,240.6667,155.13421,242.18166ZM215.948,214.08308c1.97514.79538,2.52514,1.34747,2.04559,2.43512a14.49721,14.49721,0,0,1-2.08851,2.72027c1.04169.4448,1.89946.80972,2.936,1.25232.07254-.90467.17074-1.5538.1677-2.202-.02764-6.27476.10426-12.55778-.15335-18.82437q-.61194-14.79144-1.67963-29.56455c-.49578-6.91677-1.3055-13.811-2.0344-20.70948-.49169-4.65752-1.25837-9.29254-1.57944-13.95832a5.99583,5.99583,0,0,0-5.74517-6.03765,300.77541,300.77541,0,0,0-30.54395-1.73584q-12.66909-.15939-25.33738-.323a22.53687,22.53687,0,0,0-9.10545,1.42305,4.70774,4.70774,0,0,0-2.01494,1.36788,20.83873,20.83873,0,0,0-3.21,7.23877c-1.81666,7.3758-1.836,14.93155-2.31348,22.43-.38125,6.00488-.325,12.03636-.47023,18.05663-.186,7.68043-.58884,15.36389-.51012,23.04232.07873,7.76428.62361,15.52448.98245,23.28561.14509,3.15586,1.85235,4.40922,5.25347,3.78971-.20548-1.61734-.41192-3.24274-.58067-4.5676-1.12146-.29855-2.26229-.272-2.82255-.83013-.8229-.81987-.1543-1.82786.4427-2.70289.68285.17576,1.28906.33121,2.06193.52948-.03884-.68085-.03067-1.17558-.10426-1.65911-.07358-.47641-.231-.93952-.3465-1.39342-2.08453.28724-3.26011-.18-3.3603-1.30644-.02659-.30263.08689-.826.27606-.90372.8566-.34754,1.76336-.57251,2.73355-.86488a3.27177,3.27177,0,0,0,.04188-.60821,100.61228,100.61228,0,0,1-.3711-15.78722c.17586-2.44736.23417-4.99491-1.32486-7.246a2.163,2.163,0,0,1,.97941-3.00857,7.78786,7.78786,0,0,1,2.78569-1.07341c3.39191-.45181,6.79618-.917,10.20955-1.07237,3.50445-.15744,7.02417.11861,10.53574.07161,9.87122-.13086,19.74337-.32619,29.61458-.50509,3.76512-.06951,7.52916-.22277,11.29322-.22685,3.00448-.00314,6.0141.08992,9.01146.29028a6.30856,6.30856,0,0,1,2.79083.9569c1.67962,1.04777,1.87391,2.50452.91492,4.25879a4.18744,4.18744,0,0,0-.53357,2.06915c.21471,5.01322.506,10.02352.77591,15.03372C215.69138,209.47676,215.81815,211.72774,215.948,214.08308Zm-2.21937-23.10366c-1.44859-.14719-2.433-.31688-3.42059-.33729-2.67118-.05318-5.3434-.01644-8.01363-.06449-3.17836-.0582-6.35557-.19722-9.53383-.24841-6.01514-.10018-12.03342-.31582-18.04541-.20643-9.354.17168-18.70483.58162-28.05777.871-1.7552.05422-3.51658-.0491-5.26885.03988-1.6121.08176-1.9249.4426-1.96069,1.95149-.089,3.758-.42733,7.53533-.16562,11.26976.5009,7.17031,1.193,14.33654,2.11918,21.46393.43653,3.35308,1.06724,3.10163,3.30817,2.95539.66138-.04292,1.33407.11347,2.00163.11756,5.43133.03276,10.8658.1656,16.2942.03883,5.51423-.12875,11.01926-.60108,16.53339-.76365,2.91865-.08689,5.85268.33226,8.76923.228,6.93823-.24433,13.87143-.66453,20.80558-1.01207,1.80943-.092,3.61886-.18194,5.63787-.28421C215.56367,214.83962,214.30413,203.04854,213.72859,190.97942Zm2.26438,32.04771v3.49722c2.28479.21879,2.56294.19837,2.8931-.51933a2.75117,2.75117,0,0,0-.48457-3.18548C217.644,222.885,216.92119,222.94631,215.993,223.02713Zm-25.84644-34.2988c.02554-.02963.05109-.05925.07662-.08992h-4.05842c0,.03067,0,.06029.00094.08992Z"/><path class="b" d="M173.78585,257.32991c4.59618,0,9.1934-.05308,13.78759.02355,2.08642.03476,4.17085.30976,6.25224.51012.49274.047,1.21245.06846,1.41489.37413.99574,1.50177,2.46474,1.05,3.82739,1.12868,9.78642.56225,19.57076.25449,29.355-.03381.92215-.02753,1.97515-.36084,2.72959.93335q-24.09491-.24528-48.1896-.49065c-.00209-.14111-.00512-.28117-.00816-.42124H193.887c.03067-.186.06031-.372.09-.55816a5.87786,5.87786,0,0,0-1.40672-.48353,133.98279,133.98279,0,0,0-19.31407-.2392c-4.591.30766-9.19235.46416-13.79062.65531a2.32532,2.32532,0,0,1-2.55163-1.10209c.63071-.03067.98851-.06742,1.34433-.05925,2.59046.05516,5.18909.2638,7.7693.12886,1.44043-.07568,2.83385-.94664,4.27931-1.05708,7.337-.56225,14.678-1.17977,22.02827-1.423,9.61557-.31687,19.24152-.30264,28.86327-.42836a4.92641,4.92641,0,0,1,1.741.2035c-16.39239.12468-32.78174.25962-49.11373,1.80326C173.81244,256.9721,173.79916,257.151,173.78585,257.32991Z"/><path class="b" d="M186.44477,249.92448c-5.07867-.72576-10.19826-.49274-15.3169-.58674-5.04087-.09306-10.07053.92821-15.19828-.15232.30975-.11148.65625-.37518.92507-.3108a22.4003,22.4003,0,0,0,10.69727-.18706c6.7052-1.7348,13.37869-.58884,20.05825-.78313,2.48421-.0715,4.97345-.0112,7.64473-.0112-.53775,1.26456-1.66947.56842-2.427,1.02735-.24946.4785-.54288,1.04274-.88424,1.6991,1.70411,0,3.36426.02857,5.02243-.00817,1.75322-.03884,3.50643-.20758,5.25766-.19429,1.58354.01225,3.22327-.32608,4.74032.37215-14.30586.77286-28.63223-.24329-42.99024.916a5.29454,5.29454,0,0,1,1.43226-.49273c4.7577-.20445,9.51749-.38743,14.27729-.52342,2.23978-.06343,4.4827-.01025,6.72352-.01025Q186.42534,250.30176,186.44477,249.92448Zm.58066-1.06315c.001.045.00209.089.00209.13295h3.8612c0-.044-.001-.08794-.001-.13295Z"/><path class="b" d="M184.206,277.91273c11.15923-.76063,22.3083.06333,33.46354.36691a215.92693,215.92693,0,0,0-34.79049-2.0098c1.86566-1.00693,4.87118-1.0867,9.68823-.734,3.07807.226,6.17562.18508,9.25987.34148q4.76283.2407,9.51645.6441c3.0832.25857,6.15825.63176,9.24144.91179,3.07609.27908,6.15731.506,9.23643.75549q-.017.32047-.0358.64c-.94255,0-1.88407.01633-2.82559-.00418-1.21044-.02753-2.45354-.5254-3.5146.65018-.276.30567-1.10617.16561-1.67868.14006-8.94289-.40376-17.8838-.88634-26.83088-1.20112-3.08425-.10835-6.18179.20643-9.2742.29133a8.12258,8.12258,0,0,1-1.52114-.24025C184.1631,278.28068,184.18351,278.09665,184.206,277.91273Z"/><path class="b" d="M226.43052,264.34183a15.35655,15.35655,0,0,1-2.34918.32818c-5.92825-.06448-11.85649-.17283-17.78581-.27q-3.88413-.06438-7.7693-.13693a.5084.5084,0,0,0-.24841.01843c-2.08244,1.21954-4.2344.15534-6.35149.20444-4.92948.11651-9.85593.30253-14.78531.39047-1.7308.03067-3.47376-.28212-5.19841-.19011-2.4146.12981-4.81694.48144-7.22349.75853-.79736.092-1.6366.40282-2.25-.84437.60831-.06239,1.05-.1207,1.4956-.15137,2.16524-.14718,4.3396-.21261,6.49668-.44165a127.41542,127.41542,0,0,1,20.5265-.4293c6.25434.34649,12.53118.274,18.79777.40072,2.08548.04292,4.17912.274,6.25539.16362,2.78978-.15137,5.56335-.5746,8.349-.82406a11.83007,11.83007,0,0,1,2.04047.16257Z"/><path class="b" d="M149.86734,248.3911c2.109-.39057,4.21189-.826,6.33-1.15925,2.39419-.37424,4.81392-.595,7.199-1.01615a3.5067,3.5067,0,0,0,1.70307-1.2677c10.08184-1.57128,20.228.505,30.39573-.15944.02648.16153.05412.322.08071.48248a3.69392,3.69392,0,0,1-1.15517.39874c-1.84115-.02052-3.6823-.09411-5.52031-.182-1.53965-.0736-3.12-.71352-4.51442.6104-.25459.24119-.97941.10625-1.44556-.01434-3.48089-.89859-6.98732-.43956-10.47847-.18613A156.78883,156.78883,0,0,0,150.3806,249.03c-.137.02973-.30264-.07464-.456-.11546C149.90628,248.74074,149.88576,248.56592,149.86734,248.3911Z"/><path class="b" d="M228.82879,272.67244c-17.13857-.95282-34.2987-.53974-51.45578-.44061A350.17028,350.17028,0,0,1,228.82879,272.67244Z"/><path class="b" d="M137.52322,231.25756c-3.05557.40177-6.13166-.34148-9.19539-.21062-3.17114.13493-6.35452.01434-9.53182.00816s-6.35454-.01015-9.53279-.0112-6.35557.00618-9.53288.003q-4.76737-.00614-9.53383-.0245c-3.17731-.01225-6.35452-.03685-9.53183-.04606-3.17826-.00921-6.35557-.005-9.53383-.00712a79.88422,79.88422,0,0,1-9.48064-.37623h75.84652C137.50585,230.81391,137.51411,231.03573,137.52322,231.25756Z"/><path class="b" d="M226.48265,267.90343a497.90037,497.90037,0,0,0-51.34231,1.62237C178.81855,267.86156,221.87318,266.3711,226.48265,267.90343Z"/><path class="b" d="M156.48671,253.02412c6.11019-.779,33.77329-.51525,36.76554.39664-1.22783,1.06315-2.55677.60517-3.79987.48866a44.534,44.534,0,0,0-4.42649-.56434c-8.76713.08584-17.53321.272-26.30139.4069-.76471.01224-1.5314-.10835-2.29809-.16561C156.44682,253.39825,156.46629,253.21213,156.48671,253.02412Z"/><path class="b" d="M194.90727,286.1175c9.47865.24234,18.96547.1207,28.28878,2.18472-4.70055-.34042-9.41428-.56643-14.09943-1.05509C204.36749,286.75345,199.55871,287.28911,194.90727,286.1175Z"/><path class="b" d="M194.0005,241.07967c-.185.139-.37109.39665-.55711.39769-2.55781.01738-5.05626,1.03761-7.662.40889a10.38054,10.38054,0,0,0-2.246-.0828c-3.63938-.05412-7.29206.47232-10.85879-.98653-1.40567-.57554-3.12717-.37821-4.70452-.5367-.54592-.05517-1.09184-.12269-1.63775-.185.01225-.16466.02449-.32817.03685-.49179,1.80325.11253,3.60661.2147,5.40892.33739,5.826.39978,11.64788.86488,17.478,1.1716a27.5817,27.5817,0,0,0,4.61261-.51116C193.91362,240.76071,193.95654,240.92024,194.0005,241.07967Z"/><path class="b" d="M217.8985,283.91248c-9.95088.17995-19.80679-2.017-29.77915-.38743-.02564-.16257-.05118-.32514-.07568-.48866a5.12983,5.12983,0,0,1,1.44346-.458c5.17381-.0358,10.35474-.20036,15.5183.02659C209.31341,282.7951,213.60088,283.45858,217.8985,283.91248Z"/><path class="b" d="M168.85532,275.081q9.24664-.917,18.49117-1.834c.01634.17377.03475.34765.05108.52236-6.19.37319-12.27566,1.78389-18.48288,1.98226Q168.88547,275.41725,168.85532,275.081Z"/><path class="b" d="M236.71376,249.14962a7.68307,7.68307,0,0,1-1.34537-.51116c-3.11692-1.90354-6.21446-3.83765-9.32227-5.75752-.184-.11452-.39454-.186-.88529-.413.6706-.11243.8587-.20853.97427-.15336a37.42492,37.42492,0,0,1,10.52653,6.89018Z"/><path class="b" d="M179.81524,260.037q-3.26154.28217-6.52527.56633c-.01224-.17377-.02449-.34859-.03779-.52237q3.26923-.18717,6.5396-.37413C179.8,259.81611,179.80707,259.92655,179.81524,260.037Z"/><path class="b" d="M173.52928,242.05081h-5.46316c-.00408-.05108-.00617-.10217-.01025-.15325h5.53779Z"/><path class="b" d="M239.69364,251.231c1.58051.19827,2.5956,1.35961,3.8275,2.1509-1.44347-.43045-2.9064-.83222-3.78447-2.201Z"/><path class="b" d="M239.73667,251.18088a3.639,3.639,0,0,1-3.02291-2.03126l-.05213.05622q1.51653,1.012,3.03107,2.02518Z"/><path class="b" d="M163.52512,242.30236q.95237-.04758,1.90553-.09411c.00408.0961.00921.19429.01434.29039q-.95376.049-1.90553.09914C163.53433,242.49864,163.5292,242.40045,163.52512,242.30236Z"/><path class="b" d="M212.12978,38.59127a15.97953,15.97953,0,0,1,.36293,2.41868c-.1074,7.27364-.25259,14.54716-.38648,21.81975a20.701,20.701,0,0,1-.04805,2.25517c-.22694,1.75217-.874,2.27149-2.62826,2.27662q-35.01132.08589-70.02253.17576c-1.81361.00409-3.62608.00105-5.62876.00105-.05014-.8004-.12677-1.52522-.13493-2.25108q-.141-11.66934-.2638-23.3368c-.00409-.3353-.00911-.67059-.00607-1.00484.02146-2.51991.5725-3.0965,3.09136-3.06793,8.28257.0961,16.56512.22287,24.84768.32515,10.95688.136,21.91176.28212,32.86863.37926C200.02894,38.63419,205.87848,38.59127,212.12978,38.59127ZM192.48041,43.7476a49.89147,49.89147,0,0,1-2.41062,15.85161c2.43721.45494,2.43721.45494,3.393-1.46692.958-1.925.958-1.925,3.07923-1.58865.04386.61438.08688,1.26246.138,1.91066.1298,1.63566.24632,1.71124,2.35535,1.45979.19732-.92413.40281-1.88512.59909-2.80109,2.51375-.83316,2.80716-.6685,3.26923,1.695.08688.44469.24433.875.3578,1.27168,1.09791-.001,1.194-.6573,1.33616-1.34025.97732-4.70452-.01235-9.41009.29951-14.2598C200.75072,43.39085,196.78632,43.84171,192.48041,43.7476ZM183.108,59.57471c.07977-1.30853.15849-2.59968.2413-3.95426,1.15212-.22381,2.202-.42732,3.25289-.63176l-.05517-.54383c-.61239-.11452-1.22468-.23616-1.83812-.34555-2.00058-.35571-2.03638-.40072-2.0997-2.98711.77893.16666,1.5027.321,2.49226.53367V47.26021c-1.01709-.07976-1.93923-.15231-2.86138-.22485q-.05511-.28218-.11032-.56435c.63687-.21062,1.26351-.45589,1.91064-.62254.75853-.19429,1.5334-.319,2.569-.52749a3.0093,3.0093,0,0,0-2.9984-.83013,2.06141,2.06141,0,0,1-2.36457-.919c-.645-1.00191-1.41792-.91188-2.21318.01843a2.46041,2.46041,0,0,1-1.4374.68074c-1.058.15137-2.14168.11861-3.20485.24339-.28723.03266-.54079.35372-.95784.647,1.94635,1.01615,3.97667-.185,5.76568.81066-.3578,1.13067-1.18489.96506-1.87286,1.03562-.72482.07464-1.45373.11651-2.152.17074a5.96645,5.96645,0,0,0-.25657.84949,11.0515,11.0515,0,0,0-.07663,1.24823c-.04606,3.80394-.01329,3.84383,3.71194,4.128.68084.05213,1.40869.01225,1.20624,1.194-1.45362.19628-2.94011.39769-4.68306.63375.59082.69111.91492,1.05917,1.22572,1.43634.30159.365.58884.74115.9078,1.145,1.5068-2.10181,1.5068-2.10181,4.71478-1.35459-.06343.98548-.13085,2.03335-.19931,3.116ZM140.45,50.68793c.58276-1.238.72284-2.22963,1.22268-2.46673a34.91794,34.91794,0,0,1,4.46533-1.49047c.12478-.734-.08175-1.30245-.99365-1.25336-1.90343.10217-3.80488.26275-5.63891.39455-.74523,2.80108-.93544,11.21962-.30871,13.36341q3.39956-.31435,6.86673-.63793c.07359-.60726.15022-1.01511.16866-1.425.08384-1.97713-.26685-2.3206-2.292-2.23779-.66756.02753-1.333.10531-1.99953.15838-.73812.05831-1.52323-.12363-1.42818-.94454a1.8585,1.8585,0,0,1,1.25231-1.27273,20.96644,20.96644,0,0,1,3.43389.20748,4.81191,4.81191,0,0,0,.84332-.11651v-2.066a19.56912,19.56912,0,0,0-2.53928-.46824A25.42571,25.42571,0,0,0,140.45,50.68793Zm28.58011-.98443c-.67572-1.30644-1.02128-2.75817-1.93829-3.52685A5.70428,5.70428,0,0,0,163.427,45.001a3.0343,3.0343,0,0,0-2.73775,2.58639c-.28106,2.04255-.19827,4.13515-.27595,6.20629-.07872,2.067,1.35752,3.11387,2.86547,3.96651a4.886,4.886,0,0,0,4.37226-.03779c1.35658-.58277,1.15014-2.02623,1.28811-3.21615-1.31878-.58277-1.98425.36806-2.79187.8608-1.48952.90979-2.37681.877-3.12517-.52142a7.59938,7.59938,0,0,1-.69311-6.054,1.84136,1.84136,0,0,1,3.0117-.961,3.82047,3.82047,0,0,1,1.10608,1.31575C166.93755,50.07868,167.61735,50.22481,169.03014,49.7035Zm-11.08259-3.86225c-2.65181-.12667-5.135-.276-7.62013-.33834a3.05479,3.05479,0,0,0-1.652.46825c-.33332.21774-.43757.78606-.70547,1.32182,3.65676.3353,3.69361.3353,3.67822,3.77327-.0092,1.91066-.18916,3.81922-.24537,5.72988-.03371,1.15726.43244,1.742,1.93935,1.1245.16758-2.28993.39768-4.67794.50089-7.07118.08584-1.99346.02043-1.9965,2.14473-2.23978C157.38122,48.45014,157.81868,47.88893,157.94755,45.84125Z"/><path class="b" d="M181.23221,77.05789c2.76528-.02052,4.51537,1.17359,5.09813,3.13429.48143,1.61723-.05214,3.00961-1.6612,3.33465-1.72569.34964-3.41242,1.04274-5.34968.38031-1.29628-.44364-2.60481-.47735-2.85626-2.13447a4.499,4.499,0,0,1,2.58838-4.20058A12.62632,12.62632,0,0,1,181.23221,77.05789Zm.14,6.26251c.0246-.09.0491-.181.07265-.272.49986,0,1.00076.02764,1.49863-.00513,1.15726-.07464,2.1642-.41506,2.428-1.72558a2.65646,2.65646,0,0,0-1.76861-2.74278,10.13908,10.13908,0,0,0-3.442-.1544,2.2004,2.2004,0,0,0-2.19487,1.741,2.38928,2.38928,0,0,0,1.37908,2.47594A11.55316,11.55316,0,0,0,181.37217,83.3204Z"/><path class="b" d="M165.264,77.12122a4.426,4.426,0,0,1,4.54007,4.39173c-.12782,2.49238-2.12432,3.93993-5.2117,3.77631-1.54365-.08176-3.75789-2.525-3.74051-4.12793C160.87226,79.217,163.23274,77.0558,165.264,77.12122Zm-.99458,7.43c.94863-.2035,1.91976-.37623,2.87153-.62569a2.1346,2.1346,0,0,0,1.63671-1.97713c.26789-1.94227-.72786-3.20788-2.90022-3.61886-1.57536-.29856-3.66283.83829-3.944,2.30834a2.79711,2.79711,0,0,0,.50194,1.76243A19.63161,19.63161,0,0,0,164.26941,84.55125Z"/><path class="b" d="M136.43253,153.51879c.90571-6.7901,1.78483-13.37869,2.68447-20.12274,2.67432-.42835,5.12367-.94046,7.59867-1.197,9.68415-1.007,19.37542-.47127,29.06878-.05119,3.50434.15232,7.021.045,10.52851.17482,6.00792.22287,12.01291.52143,18.01571.83422.823.04292,1.62444.40072,2.44944.51723,3.1077.43967,4.66267,2.44737,5.22795,5.30781.60107,3.03,1.056,6.08873,1.51913,9.1443.20037,1.31774.26171,2.65694.38953,4.02471a5.87591,5.87591,0,0,1-4.78942,2.62114c-10.22295,1.03667-20.41207,2.61915-30.65836,3.14455A113.10939,113.10939,0,0,1,147.788,155.774c-2.77042-.6216-5.5939-1.01008-8.38787-1.53757C138.43615,154.05445,137.48951,153.77736,136.43253,153.51879Zm76.27281-1.10408c-.39059-3.87449-.60925-7.37685-1.13069-10.83418-.60318-4.0176-2.71106-6.78184-7.062-7.26641-.414-.045-.81778-.20958-1.23084-.23313-4.24959-.24736-8.49728-.5745-12.75-.69006-5.93433-.16247-11.87284-.15127-17.80822-.24119-3.67914-.05622-7.3625-.07265-11.03454-.26485a80.003,80.003,0,0,0-17.75714.75445c-3.66795.62767-3.66586.65531-4.56759,4.19754a6.8811,6.8811,0,0,0-.17168.98757c-.41914,4.07884-.84447,8.15684-1.22782,12.23882a5.11653,5.11653,0,0,0,.23826,1.36673c1.61315.25155,3.08927.47745,4.56341.71257,2.39219.38135,4.77205.94046,7.18057,1.11633,4.33656.31687,8.68945.44678,13.03827.57858,4.76586.14519,9.55015.501,14.2977.23721,8.51463-.47233,17.00677-1.35354,25.51114-2.03126,2.33389-.18612,4.67805-.25155,7.017-.38648C210.626,152.611,211.43868,152.52306,212.70534,152.41471Z"/><path class="b" d="M144.59952,182.73371c-1.22572-1.372-.92821-2.75817-.917-4.05539.01329-1.45885-.33321-3.32963.41914-4.24968.65123-.79537,2.6202-.52446,4.00944-.70032a12.48593,12.48593,0,0,1,1.36369-.00712c-.4896,1.61315-1.68465,1.0397-2.51583,1.18992-1.5406.278-1.54877.23512-1.45979,2.2491H148.977c-.44061,1.2185-1.374,1.00379-2.09982,1.17359-.80553.18905-1.77363.24736-1.56311,1.47.17378,1.01206.9548.90989,1.74306.916a26.011,26.011,0,0,1,2.8839.35781C148.27062,183.35321,146.19634,181.98125,144.59952,182.73371Z"/><path class="b" d="M167.70016,177.98417c-.52959,1.03447-.99365,1.94028-1.53756,3.00145-.25345-.22905-.60414-.38848-.65427-.61543a39.36921,39.36921,0,0,1-.70128-3.9215c-.0449-.39161.30159-.828.46825-1.2431.33833.17074.91387.28421.97113.52237.1922.8004.6103.7289,1.27075.70848a5.74124,5.74124,0,0,1,1.83905.6327c.59093-.35058,1.3505-.8004,2.02-1.197,2.616,1.65922.46416,3.24682.39151,4.81706C169.74784,180.89046,169.36753,178.93584,167.70016,177.98417Z"/><path class="b" d="M188.66213,173.64352q.33888,1.47822.67782,2.9534c.14509.07255.29646.21973.42522.2034,1.14909-.15943,2.2-.21983,2.34928,1.36579a2.97779,2.97779,0,0,1-1.96594,3.32648c-1.60394.39978-2.2827-.20444-2.2091-1.87276.04909-1.07341-.02042-2.153-.02869-3.23049-.00711-.89347-.002-1.78693-.002-2.68039C188.16018,173.68749,188.4107,173.665,188.66213,173.64352Z"/><path class="b" d="M159.6231,181.25141c-.19116.65426-.38545,1.31261-.70641,2.40643-1.51913-2.47186-.90173-4.63606-.733-6.77367.53669-.28421.966-.51933,1.40147-.7422,1.68779-.86687,2.70091-.319,2.82769,1.52522C162.53147,179.3888,161.824,180.29859,159.6231,181.25141Zm.37412-1.922c.93953.092,1.19914-.39256,1.01511-1.17558-.03883-.1677-.411-.41915-.54383-.37518C159.63021,178.05975,159.67627,178.65267,159.99722,179.32944Z"/><path class="b" d="M151.08594,178.23562c2.02414-.49892,3.50947-.86688,5.55821-1.37291-1.10513,1.882-.6349,3.09242.43956,4.1249-1.005,1.06932-1.81048-.0848-2.68552.03067-.78825.63176-1.59891,1.28194-2.89005,2.31546C151.90791,181.235,153.08151,179.63407,151.08594,178.23562Z"/><path class="b" d="M198.53032,180.84859a4.5407,4.5407,0,0,0-1.14911-.19628c-.99059.08689-2.17948.44982-2.5802-.79129-.458-1.42295-.91806-2.985.49274-4.685.20748,1.16438.35372,1.98519.52854,2.96564,1.14794-.731.53461-2.60794,2.16106-2.61506C198.72753,176.82586,198.8922,178.3225,198.53032,180.84859Z"/><path class="b" d="M202.43946,180.67482A18.91788,18.91788,0,0,1,200.86828,177.7a2.58358,2.58358,0,0,1,.2504-2.0323c.47337-.66044,1.30549-.58884,2.43407.55513-.49986.14718-.97218.28515-1.4894.43746a21.8293,21.8293,0,0,1,1.23994,2.158c.30777.7177.81485,1.605.61951,2.22449-.32807,1.04683-1.4577,1.26362-2.51886,1.18794-.30462-.02042-.60014-.184-1.00181-.73194C200.98375,181.26365,201.56442,181.02854,202.43946,180.67482Z"/><path class="b" d="M178.68969,181.3587c.62872-.34963,1.25745-.69927,2.02-1.12344a12.57858,12.57858,0,0,1-1.33815-2.14787c-.23407-.62663-.44982-1.63263-.12981-2.01493a1.74136,1.74136,0,0,1,2.58022-.03883c-.552.37717-.98141.67059-1.72151,1.17558.61742.56633,1.097,1.05917,1.63158,1.48439,1.17254.9323,1.27075,1.76034.01633,2.4862a11.76414,11.76414,0,0,1-2.91456.81788C178.78579,181.785,178.73774,181.57131,178.68969,181.3587Z"/><path class="b" d="M174.79478,180.66864c.59606-.48866.96915-.79527,1.4037-1.15109-.46931-1.20018-2.08445-2.108-.98863-4.01759.64714.1186,1.39949.25563,2.48013.4539-.411.63385-.63595.98035-.97123,1.49873.67885.89954,1.6929,1.973.42939,3.29582C176.47137,181.45784,175.78235,181.59686,174.79478,180.66864Z"/><path class="b" d="M166.96612,222.105c-7.55062,1.12555-14.82519.63281-22.25312.136-.22287-3.29582-.42731-6.33-.642-9.5154a23.40915,23.40915,0,0,1,2.92168-.53577c5.42432-.27186,10.85062-.54173,16.27892-.70639,2.30217-.07045,2.40653.25354,2.339,2.63139a41.859,41.859,0,0,0,.25658,5.50712A10.55893,10.55893,0,0,0,166.96612,222.105Zm-4.75968-8.48187c-4.2702.22287-8.17013.44166-12.07331.62255a1.871,1.871,0,0,0-1.85234,1.96383c-.1002,1.70308.0808,3.42363.14926,5.277,4.771-.01633,9.21894.60423,13.77639-.03067Zm-16.98028,1.3392c.226,1.975.46111,4.02775.70649,6.17049.5121-.08689.81673-.139,1.13674-.19418,0-1.77269.02764-3.43285-.01024-5.09311C147.03767,214.89479,146.55111,214.47774,145.22616,214.96231Zm19.01971,5.97118a16.54992,16.54992,0,0,0-.28936-6.93823A8.49939,8.49939,0,0,0,164.24587,220.93349Z"/><path class="b" d="M198.12959,218.18757c-.35069,1.6-1.053,2.155-2.07732,2.01911a12.48251,12.48251,0,0,1-3.03421-.83526c-.21261-.08689-.33121-.95994-.15639-1.29419.229-.43453.8496-1.02536,1.20531-.96716A39.30922,39.30922,0,0,1,198.12959,218.18757Z"/><path class="b" d="M203.96677,220.3436c-.21669-.04093-.84646.02042-1.14491-.26369a2.553,2.553,0,0,1-.81275-1.61012c-.00513-.35676.641-.80867,1.08566-1.06012a1.95864,1.95864,0,0,1,1.20531-.137c.99469.17283,2.00874.44573,2.1754,1.66224C206.59,219.76911,205.6464,220.32518,203.96677,220.3436Zm-.58371-1.927q-.003.32819-.00607.65531c.57753.37717,1.14795.67876,1.8646-.52749C204.45344,218.48916,203.91778,218.45336,203.38306,218.41661Z"/><path class="b" d="M195.69144,51.27676c.89859.001,1.72861.11149,1.68674,1.30654-.03371.966-.95282,1.52417-2.53425,1.35658a1.58079,1.58079,0,0,1-1.11633-.97941C193.55383,51.9259,194.41044,51.27582,195.69144,51.27676Z"/><path class="b" d="M199.81225,48.89587c.11756-.90058-.02554-1.9832.35979-2.22449a2.95322,2.95322,0,0,1,2.21026.03988,1.53977,1.53977,0,0,1,.43851,1.43938C202.24527,49.22709,201.14528,48.77528,199.81225,48.89587Z"/><path class="b" d="M201.53479,51.52727c.27092.24736,1.00486.65531,1.3034,1.27377.26884.55817-1.03143,1.52731-1.9853,1.34737a2.0855,2.0855,0,0,1-1.36368-1.11026C199.21724,52.31437,200.12713,51.53439,201.53479,51.52727Z"/><path class="b" d="M197.371,48.18341a10.2168,10.2168,0,0,1-2.2357.37308A1.076,1.076,0,0,1,194.08739,47.16a1.14057,1.14057,0,0,1,1.45163-1.011C196.44892,46.35042,197.34039,46.6428,197.371,48.18341Z"/><path class="b" d="M178.78485,49.33041c-.67782.98035-1.50387.53053-2.39325.42731C177.34233,48.59125,177.34233,48.59125,178.78485,49.33041Z"/><path class="b" d="M178.74287,51.53135c-.6573.42019-1.3146.84238-2.47594-.30672,1.04881-.16759,1.70726-.2729,2.36351-.37821C178.66823,51.07536,178.70612,51.30231,178.74287,51.53135Z"/><path class="b" d="M184.42271,49.55223H182.233C183.16433,48.54016,183.74292,48.40826,184.42271,49.55223Z"/><path class="b" d="M188.22665,134.492a11.55681,11.55681,0,0,1-1.17568,7.19481c-8.31009.00209-16.652-1.00181-25.20233-1.84523,0-1.50167-.042-2.90117.01423-4.29763a1.40362,1.40362,0,0,1,1.66026-1.44963c1.58855.0695,3.17721.1298,4.76377.228a92.77629,92.77629,0,0,0,15.7913.05925A29.83692,29.83692,0,0,1,188.22665,134.492Z"/></svg>