<svg xmlns="http://www.w3.org/2000/svg" xmlns:xlink="http://www.w3.org/1999/xlink" viewBox="0 0 300 300"><defs><style>.a{fill:none;}.b{clip-path:url(#a);}.c,.d{fill-rule:evenodd;}.d{fill:#fff;}</style><clipPath id="a"><rect class="a" x="7.35694" y="11.8696" width="288.13135" height="288.1304"/></clipPath></defs><title>gl_nav07</title><g class="b"><path class="c" d="M259.44842,305.786c-2.35465-.68885-1.22343-4.21458-4.24351-3.09093v3.30511c-1.25-1.96176-2.26437-3.55568-3.111-4.886-1.02336.04744-1.88192.34391-2.37919.04243-.576-.35036-.84608-1.2175-1.22547-1.87292-.38338-.66247-.4393-1.7896-1.73562-1.04033-.11737.06788-.78423-.61647-1.04636-1.0438a5.55789,5.55789,0,0,0-1.568-2.03762c.311,2.55226.62547,5.10462.964,7.8726-4.59651-.08782-3.90961-3.81577-5.25694-6.50441-.53009,2.95925-.97838,5.46316-1.42565,7.96757-1.47462-2.30475-1.814-5.21554-5.27147-5.85747-.23708,1.39324-.49215,2.89382-.72525,4.2661-2.30424.84312-3.16044-.627-4.16928-2.36323-.27153,1.58943-.47222,2.764-.73823,4.328-1.6523-1.42769-.67894-3.04953-1.50161-4.33388a24.60052,24.60052,0,0,1-.895,3.715,34.38666,34.38666,0,0,1-2.17247,3.86064c-1.97228-3.609.00307-7.34149-.96743-11.12382-1.40173,3.07.09191,6.49489-2.13351,9.71811-1.08225-2.4-1.9633-4.35484-2.96713-6.58128-2.07012,1.246-3.79532,2.28584-5.7811,3.48136-.67638-.614-1.515-1.37821-2.53089-2.3023-1.1806,1.31237-.36539,3.9641-2.95373,4.29309-.41231-1.46163-.83065-2.94525-1.41062-5.00392-.61351,1.74666-1.01191,2.88032-1.55753,4.43427a14.51467,14.51467,0,0,0-2.2842-1.85543,6.66362,6.66362,0,0,0-2.16449-.18924c-.23565-1.77855-.48571-3.67243-.73588-5.56641-.14527.006-.29045.01145-.43674.017-.08291,1.56642-.16674,3.13295-.2516,4.74129-1.54546,1.61989-2.99759.41783-4.619-.07136-.13577-1.81506-.265-3.52573-.4163-5.53953-1.72713,1.00036-.94545,2.721-1.67622,3.79185-1.18458.20968-2.38817.42283-3.69155.653-1.86494-2.47252.55012-6.06868-2.22235-8.7702-.59254,2.70152-1.10422,5.03929-1.66283,7.59165-2.17941-1.31339-2.34012-2.96272-2.56678-5.05187-.61606.85171-1.259,1.68532-1.841,2.55942-.62393.93748-1.191,1.91289-2.04569,3.29908-.86807-1.46706-1.44661-2.44655-2.02566-3.42493-1.40571.94443-2.82338,1.89592-4.40636,2.96017-.78117-.74324-1.4506-1.38076-2.111-2.00766-.72688,1.09922-1.46562,2.21336-2.52395,3.81229-.48969-1.33987-.79415-2.176-1.13663-3.11444-1.21954.90446-2.42007,1.79655-3.87864,2.87981-.43428-.39094-1.09972-.987-1.88344-1.69033-1.03338.8741-1.96534,1.66283-3.138,2.65624-.37786-1.08521-.6454-1.853-.99535-2.85835-.8147,1.4741-1.54945,2.80048-2.26283,4.09036-3.18826-1.3364-3.18826-1.3364-5.804.52313,0-3.10146-.05541-5.88691.01044-8.66889.20272-8.38438.52619-16.7662.66748-25.15109.22215-13.28985.25251-26.58317.53355-39.872.11685-5.54054.75735-11.06954.99443-16.61.22215-5.215.19322-10.44.342-15.6585.07586-2.60481.3115-5.2045.46077-7.80727a5.78381,5.78381,0,0,1,2.55277-4.36189q5.9483-4.56617,11.9191-9.10523c.69191-.52814,1.42524-1.00485,2.09763-1.5564,2.40156-1.96585,4.62443-4.2107,7.23619-5.83457a8.2938,8.2938,0,0,0,3.059-3.57163c.85212-1.63738,1.838-3.22128,2.52087-4.92756.88361-2.21039-.02648-4.24453-1.18059-6.10447-.80171-1.29-1.825-2.44011-2.7235-3.67059-2.77-3.79082-5.40723-7.641-6.66767-12.27252a12.52489,12.52489,0,0,0-1.74912-3.49577,21.8854,21.8854,0,0,1-3.63215-11.68295,6.71951,6.71951,0,0,0-.68639-2.78106,17.028,17.028,0,0,1-1.532-11.3929c.66738-3.41245.99586-6.87776,3.51182-9.65432.67331-.74273.75469-2.01022,1.14512-3.02356a64.95418,64.95418,0,0,1,2.79639-6.95311,10.87771,10.87771,0,0,1,3.0665-3.19735c2.09067-1.63032,4.35944-3.02857,6.463-4.64191.932-.71482,1.67029-1.50059,2.64222-.29853,1.34734-.96345,2.62372-1.876,4.01993-2.87429,1.22752.7507,2.29382,2.40351,3.82026.55308,2.0871,2.741,4.88911,2.97868,8.03044,2.96017.658,1.0433,1.48556,2.18494,2.13055,3.42145.7508,1.43863,1.78459,1.71865,3.25174.82564.65992,1.1077,1.164,2.05612,1.769,2.93625.41936.60993.89311,1.47257,1.48914,1.61682,1.66978.40485,2.17747,1.64279,2.721,2.97265.35946.88105.59255,1.815,1.80759,2.09906.43123.10039.86951.94453.98134,1.51254.85713,4.34943,1.854,8.68934,2.37315,13.08222a120.66981,120.66981,0,0,1,.66288,12.98192,16.48731,16.48731,0,0,1-1.02775,5.05228,3.18206,3.18206,0,0,1-1.67183,1.82895c-1.47461.52763-2.06859,1.6888-2.96661,2.7875-3.20482,3.91759-3.81832,8.14618-2.41608,12.17264,1.80759,1.50253,3.01855,2.95619,4.57106,3.70352,2.99463,1.44108,4.3619,4.40831,6.70857,6.40155a9.76275,9.76275,0,0,0,3.951,2.07862A128.84843,128.84843,0,0,0,233.312,160.8346c5.32382.63446,9.35478,3.36205,12.921,7.00811a10.14,10.14,0,0,1,1.92332,3.32555c.80827,2.01819,1.49609,4.09129,2.11164,6.178,2.128,7.22873,5.35724,14.00017,8.36434,20.88049,2.87532,6.57627,5.18508,13.40016,7.79378,20.09523.90752,2.33021,1.916,4.62647,2.96967,6.89483q5.92208,12.733,11.90959,25.43509a24.338,24.338,0,0,1,1.828,8.35688q.09139,17.97066.30057,35.943c.01339,1.18908.31,2.37315.38828,3.5657a2.32276,2.32276,0,0,1-2.08157,2.795c-3.74441.65736-7.46479,1.48106-11.2277,1.99376-1.15708.15775-2.42252-.47181-3.9366-.80724-.35241.46425-.88259,1.16516-1.49855,1.97884-1.08377-11.76391-2.92878-23.21274-3.34109-34.8004a6.37705,6.37705,0,0,0-.17022-1.29039c-2.83391-11.41438-8.09884-21.7965-13.64674-32.05727-.08383-.15325-.34494-.21122-.75234-.44584a30.70913,30.70913,0,0,0-1.78756,8.81764c-.308,3.66661.028,7.38453-.23564,11.05758-.34637,4.81663,1.06885,9.27882,2.39165,13.74857,3.09,10.435,5.7811,21.00685,10.43947,30.92217A34.40979,34.40979,0,0,1,259.44842,305.786ZM210.8651,122.25043c-2.39216-.918-1.73173,2.36017-3.5473,2.6272-.49563-3.11638,1.86106-3.88917,3.85727-5.07078-.30353-.57159-.58058-1.08971-.90906-1.70515-3.09492,1.519-3.59259,5.08918-6.399,7.26962a25.07981,25.07981,0,0,1-.29505-3.59668,10.28382,10.28382,0,0,0-1.53053-6.25526,13.90811,13.90811,0,0,1-1.94234-8.12532,18.17,18.17,0,0,0-.16419-2.18739c-2.7925-1.68082-5.42921-3.388-8.18625-4.87255a14.44851,14.44851,0,0,0-4.28747-1.41777,46.55607,46.55607,0,0,0-7.44485-.86858c-4.14925-.05582-8.29451.18024-11.44392,3.5383-3.74144,3.98895-5.92678,8.5775-5.53093,14.16446.2016,2.82287.51014,5.63828.70429,8.46217a19.11148,19.11148,0,0,0,2.67718,9.30039,19.78468,19.78468,0,0,1,2.31774,4.67136,40.9965,40.9965,0,0,0,8.29145,14.33815,13.58486,13.58486,0,0,1,2.99217,6.35913c.38879,1.91688.3434,4.17727,2.22583,5.63287,2.41159-.45924,4.03791-2.12207,5.80052-3.54076,2.96968-2.38756,5.89049-4.83565,8.88808-7.18528,1.95829-1.53453,4.83616-2.53938,5.79859-4.5132.9704-1.99172.18116-4.896-.02495-7.38494a9.19842,9.19842,0,0,1,1.62327-6.14495,49.34168,49.34168,0,0,0,2.49194-4.7693C211.12712,129.33982,212.34912,126.8948,210.8651,122.25043Zm-23.11245,85.71342c.15182.031.30353.06042.45535.09129.21714-.45125.47119-.888.64438-1.3552,1.08878-2.95425,2.14854-5.91738,3.23579-8.87214,1.42463-3.87414,2.94719-7.71444,4.2795-11.61955,2.142-6.28471,4.09987-12.63045,6.25536-18.91024,1.55446-4.52956,3.28507-8.99932,4.9754-13.48205.61146-1.62132,1.07274-3.13837-.84966-4.11081-9.14316,3.76393-15.62006,11.00564-23.2157,16.74524,2.433,5.06179,4.80415,9.99772,7.15389,14.88377,2.48744-.83208,3.08091-3.51326,5.37472-4.09282a31.59039,31.59039,0,0,1-3.53421,5.01435c-1.28446,1.48556-2.83647,1.11517-3.72294-.76573-.42232-.898-.83719-1.7991-1.56151-3.35653-1.26289,3.5702-2.143,6.15047-1.237,9.24191a44.02157,44.02157,0,0,1,1.34182,9.00136C187.63835,200.22743,187.6314,204.10014,187.75265,207.96385ZM173.467,213.964c.1603-.81664.37141-1.62736.47129-2.45146.62342-5.17506,1.08623-10.37517,1.87691-15.52426.57506-3.73439.97439-7.55864,2.91621-10.96609a2.62853,2.62853,0,0,0,.10039-1.82057c-.43377-1.55743-1.0119-3.07447-1.53-4.596-3.39651.93748-3.90216,1.48811-4.21264,4.87255-.325,3.5702-.31549,7.18978-.8971,10.71408C171.0938,200.85494,171.95093,207.37774,173.467,213.964Zm1.61386-38.88269c.10387-.026.26713-.01891.30455-.08434,1.27741-2.23983,2.42406-4.56708,3.8497-6.70856a3.97428,3.97428,0,0,0,.01749-4.72933C176.851,166.64167,174.97949,171.88062,175.08081,175.08135Zm11.75092,124.698c1.06773-2.37969.88749-4.15027.61749-6.51545C186.17274,295.49528,186.328,297.26239,186.83173,299.77938Zm-31.03145-1.89694c.20814.02944.41578.05888.62291.0869q.3714-2.47032.74283-4.94146c-.2471-.03446-.49523-.06891-.74283-.10336Q156.1125,295.403,155.80028,297.88244Zm6.09455-2.38164c.27654.03149.55308.06339.83259.09488q.11991-2.67689.24014-5.35377-.35562-.01732-.71083-.03394Q162.077,292.854,161.89483,295.5008ZM150.435,301.80606c.338.16521.6774.32991,1.01538.49522q.52554-1.39274,1.05178-2.786-.35116-.15058-.70286-.298Q151.1164,300.51035,150.435,301.80606Zm18.44794-5.72222c.55461-1.10964,1.28589-2.2109.17972-3.966C168.98677,293.81456,168.93483,294.94966,168.8829,296.08384Zm78.72289-8.84606q.2748-.09738.55206-.19373-.4852-1.39794-.968-2.7964c-.19015.06686-.38082.13321-.57056.19915Q247.112,285.84259,247.60579,287.23778Zm-15.13691-25.1885c.13475.01.26806.01993.4024.03046q-.07576-1.35684-.15182-2.71215c-.08383.00153-.16623.00358-.25058.00552Zm17.33033,28.87647q-.25165-.0052-.50074-.00951v1.73869q.24934.0023.50074.00552Zm-96.415-30.89773c.0229.00051.0459.00153.0684.00153v-1.47206c-.0225-.001-.0455-.00153-.0684-.002Z"/><path class="c" d="M189.67607,135.65959c-2.20538,1.72018-4.21917,3.49424-6.43458,4.96589-2.58323,1.7162-3.87761,1.4691-5.99671-.74477-.7278-.76082-1.32484-1.64882-2.10008-2.62873.52517-.20866.95395-.55809,1.275-.47723,3.05351.76573,5.75564-.49123,8.5181-1.40121C187.33789,134.58379,187.33636,134.57735,189.67607,135.65959Zm-10.67665,3.16679c1.96983,1.69574,3.49935,1.239,5.29-1.55191C182.48425,137.80455,180.77654,138.30529,178.99942,138.82638Z"/><path class="c" d="M194.8357,119.90223c-1.52154.15775-3.04309.307-4.56309.47426-1.544.16869-3.08695.35394-4.73086.5446,2.525-3.6755,4.39635-3.88221,9.26747-1.76915C194.81822,119.402,194.82619,119.65268,194.8357,119.90223Z"/><path class="c" d="M175.27106,131.693c.45218-2.479.83157-4.55358,1.21-6.6277,1.528,1.84194.05684,3.8402.82809,5.96083,1.14563.32091,2.46352.69079,3.93712,1.10515-.89455,1.544-2.06563.76828-3.0805.51771C177.17046,132.40233,176.212,132.01006,175.27106,131.693Z"/><path class="c" d="M173.82885,121.66034c-2.25077.21766-4.50165.43429-6.84729.66094C168.4022,119.68458,170.59061,119.3471,173.82885,121.66034Z"/><path class="c" d="M192.15749,112.31558c-1.34826,1.45315-5.27239,2.92971-7.48473,2.8149C186.326,113.50067,190.22313,112.03505,192.15749,112.31558Z"/><path class="c" d="M172.92133,117.22954c-2.02423.008-4.10529.36048-5.83549-1.58942q2.95322.31835,5.90439.635C172.96774,116.59365,172.94382,116.91159,172.92133,117.22954Z"/><path class="d" d="M49.49877,207.8885c1.31891,2.18289.61851,4.21857,1.561,5.89489.89056-.2242,1.80759-.45524,3.111-.7828.60553,3.17087,1.24193,6.18053,1.74359,9.21359.51168,3.09891.89107,6.21979,1.3913,9.77649a13.03192,13.03192,0,0,0,1.05576-2.03618q2.95476-10.1938,5.84449-20.40725c.74283-2.6092,1.42963-5.23446,2.22338-7.82771a8.18789,8.18789,0,0,1,1.10964-1.98824c.23565-.35792.66595-.59009.88309-.95353,3.18785-5.33526,8.74526-7.47879,13.94885-10.3167,0-5.3877.12626-10.80935-.044-16.222-.11481-3.681-.56464-7.35908-1.04636-11.01413a3.61956,3.61956,0,0,0-1.52543-2.27429c-6.40565-3.969-7.6621-10.24227-6.8339-16.84656A37.57261,37.57261,0,0,1,104.1,109.21862c7.09787-1.10821,13.45751.75275,19.82421,3.71895,5.809,2.70612,10.47587,6.65316,12.97578,12.31045,5.1811,11.712,5.894,21.481-2.90721,32.37481-.6544.81265-1.83152,1.207-3.23027,2.08955.19966,8.27908.40832,16.95645.619,25.67626,3.47931,1.46961,6.65264,2.8423,9.85541,4.14117.996.40434,2.11113.47478,2.55584,1.75024.1278.36038.77473.556,1.2036.78965.46271.25262,1.21106.33748,1.3917.71083,1.55794,3.20533,4.654,5.47062,5.33281,9.238,1.64535,9.10809,3.33057,18.21076,5.21248,27.272,1.571,7.55925,3.41552,15.061,5.19111,22.57378,1.62684,6.8793,3.51725,13.70267,4.902,20.62838.63344,3.17087-.964,6.15149-2.52435,8.93051-1.11772,1.99375-2.35066,3.9321-3.34611,5.98618a29.88706,29.88706,0,0,0-1.32085,4.22521c-1.541-.43582-2.74947.587-3.79082,1.99273-1.808,2.44-3.6525,4.85313-5.543,7.358a12.04791,12.04791,0,0,0-11.76933,1.10524c-.99586.64694-2.74753.20764-4.14516.1463-2.05674-.09037-4.11439-.47927-6.15906-.40188-5.97422.22062-11.94057.61453-17.91029.93452-2.61074.14077-5.221.2565-7.82976.41128-2.17942.12882-4.53109-.06287-5.23252,3.712-.5815-1.56254-.78965-2.12257-.93646-2.516-7.21574,0-14.36412.022-21.51147-.013-2.145-.01043-4.42927.14282-4.97591-2.85385-.09231-.49818-.89454-.8651-1.64033-1.53892,1.98128-.70684,2.57986-2.1695,3.04011-3.86576a70.30515,70.30515,0,0,1,2.33113-6.78595c1.75167-4.5631,1.2036-9.15563.51669-13.82351-.6819-4.62944-.98635-9.31378-1.54148-13.96469-.41936-3.52236-.9704-7.02856-1.46306-10.53987-.22767-.035-.45678-.06942-.68548-.10234q-2.24259,3.23616-4.48161,6.47547c-2.16755,3.13592-4.40637,6.22735-6.45206,9.44066-.63548.99534-.74426,2.32417-1.22752,3.94948-1.4281,1.5745-3.377,1.80606-5.83549.79579-3.40744-1.39927-6.96312-2.43357-10.9032-3.77641q-5.61509-24.0786-11.38647-48.82949c1.0757-.16225,1.68471-.26806,2.29872-.34392,1.38823-.17073,1.7941-.942,1.57593-2.2798-.73823-4.5451-2.06062-8.57505-5.26738-12.32047-3.33158-3.8906-5.47706-8.8291-7.952-13.4111-1.70127-3.1489-3.08-6.473-4.76132-10.05365.73833-1.262,2.02872-2.74507,1.512-4.933-.15018-.63395.82268-1.57143,1.36482-2.30925.23667-.324.73179-.44574,1.02479-.74375,2.4531-2.499,3.0576-2.52691,5.88047-.39442a2.91765,2.91765,0,0,0,1.69074.629c2.65715-.09589,4.23809,1.45857,5.511,3.46531.97592,1.539,1.8355,3.15237,2.79394,4.81714a12.727,12.727,0,0,1,2.36415-1.43863,3.00632,3.00632,0,0,1,3.66457,1.92731,26.72788,26.72788,0,0,0,5.42717,8.0969,10.03048,10.03048,0,0,1,2.5039,5.51294c.44829,3.22782.54562,6.508.71083,9.77015.01953.38685-.46465.80019-1.03225,1.70965Z"/><path class="c" d="M51.05977,213.78339c.89056-.2242,1.80759-.45524,3.111-.7828.60553,3.17087,1.24193,6.18053,1.74359,9.21359.51168,3.09891.89107,6.21979,1.3913,9.77649a13.03192,13.03192,0,0,0,1.05576-2.03618q2.95476-10.1938,5.84449-20.40725c.74283-2.6092,1.42963-5.23446,2.22338-7.82771a8.18789,8.18789,0,0,1,1.10964-1.98824c.23565-.35792.66595-.59009.88309-.95353,3.18785-5.33526,8.74526-7.47879,13.94885-10.3167,0-5.3877.12626-10.80935-.044-16.222-.11481-3.681-.56464-7.35908-1.04636-11.01413a3.61956,3.61956,0,0,0-1.52543-2.27429c-6.40565-3.969-7.6621-10.24227-6.8339-16.84656A37.57261,37.57261,0,0,1,104.1,109.21862c7.09787-1.10821,13.45751.75275,19.82421,3.71895,5.809,2.70612,10.47587,6.65316,12.97578,12.31045,5.1811,11.712,5.894,21.481-2.90721,32.37481-.6544.81265-1.83152,1.207-3.23027,2.08955.19966,8.27908.40832,16.95645.619,25.67626,3.47931,1.46961,6.65264,2.8423,9.85541,4.14117.996.40434,2.11113.47478,2.55584,1.75024.1278.36038.77473.556,1.2036.78965.46271.25262,1.21106.33748,1.3917.71083,1.55794,3.20533,4.654,5.47062,5.33281,9.238,1.64535,9.10809,3.33057,18.21076,5.21248,27.272,1.571,7.55925,3.41552,15.061,5.19111,22.57378,1.62684,6.8793,3.51725,13.70267,4.902,20.62838.63344,3.17087-.964,6.15149-2.52435,8.93051-1.11772,1.99375-2.35066,3.9321-3.34611,5.98618a29.88706,29.88706,0,0,0-1.32085,4.22521c-1.541-.43582-2.74947.587-3.79082,1.99273-1.808,2.44-3.6525,4.85313-5.543,7.358a12.04791,12.04791,0,0,0-11.76933,1.10524c-.99586.64694-2.74753.20764-4.14516.1463-2.05674-.09037-4.11439-.47927-6.15906-.40188-5.97422.22062-11.94057.61453-17.91029.93452-2.61074.14077-5.221.2565-7.82976.41128-2.17942.12882-4.53109-.06287-5.23252,3.712-.5815-1.56254-.78965-2.12257-.93646-2.516-7.21574,0-14.36412.022-21.51147-.013-2.145-.01043-4.42927.14282-4.97591-2.85385-.09231-.49818-.89454-.8651-1.64033-1.53892,1.98128-.70684,2.57986-2.1695,3.04011-3.86576a70.30515,70.30515,0,0,1,2.33113-6.78595c1.75167-4.5631,1.2036-9.15563.51669-13.82351-.6819-4.62944-.98635-9.31378-1.54148-13.96469-.41936-3.52236-.9704-7.02856-1.46306-10.53987-.22767-.035-.45678-.06942-.68548-.10234q-2.24259,3.23616-4.48161,6.47547c-2.16755,3.13592-4.40637,6.22735-6.45206,9.44066-.63548.99534-.74426,2.32417-1.22752,3.94948-1.4281,1.5745-3.377,1.80606-5.83549.79579-3.40744-1.39927-6.96312-2.43357-10.9032-3.77641q-5.61509-24.0786-11.38647-48.82949c1.0757-.16225,1.68471-.26806,2.29872-.34392,1.38823-.17073,1.7941-.942,1.57593-2.2798-.73823-4.5451-2.06062-8.57505-5.26738-12.32047-3.33158-3.8906-5.47706-8.8291-7.952-13.4111-1.70127-3.1489-3.08-6.473-4.76132-10.05365.73833-1.262,2.02872-2.74507,1.512-4.933-.15018-.63395.82268-1.57143,1.36482-2.30925.23667-.324.73179-.44574,1.02479-.74375,2.4531-2.499,3.0576-2.52691,5.88047-.39442a2.91765,2.91765,0,0,0,1.69074.629c2.65715-.09589,4.23809,1.45857,5.511,3.46531.97592,1.539,1.8355,3.15237,2.79394,4.81714a12.727,12.727,0,0,1,2.36415-1.43863,3.00632,3.00632,0,0,1,3.66457,1.92731,26.72788,26.72788,0,0,0,5.42717,8.0969,10.03048,10.03048,0,0,1,2.5039,5.51294c.44829,3.22782.54562,6.508.71083,9.77015.01953.38685-.46465.80019-1.03225,1.70965a16.01674,16.01674,0,0,1-.71983-2.56677c-.21571-2.91877-.34995-5.84449-.52967-8.76571-.02648-.42877.01053-.9839-.23166-1.2585A60.87936,60.87936,0,0,1,39.99033,182.042c-.15324-.29-.64448-.40177-1.215-.73526-.25058,2.77-.11185,5.04175,1.86341,6.96466a30.712,30.712,0,0,1,2.49951,3.4239c.77217.99985.574,1.74462-.65747,2.66165-.63344-.92848-1.254-1.76414-1.79859-2.64662-3.08245-4.99543-6.12849-10.01326-9.231-14.99561-.72832-1.16915-1.54046-2.39309-3.65649-1.907,2.59673,4.72482,5.08469,9.252,7.6071,13.843-1.52257.99831-1.90993.02239-2.38368-.82216-2.44144-4.36088-4.899-8.71337-7.33853-13.07577-.643-1.14911-1.31135-2.23432-2.84587-2.395-1.17007,1.37269-.48766,2.405.2152,3.56816,2.7555,4.5681,5.44312,9.17709,8.12276,13.79007.17666.30394.07432.76972.16224,2.01615a13.15886,13.15886,0,0,1-1.8859-1.87241q-3.27081-5.65556-6.43908-11.373a10.02461,10.02461,0,0,0-3.31706-3.75043,5.17027,5.17027,0,0,0,.9614,4.49469c2.39216,3.89572,4.77972,7.79337,7.12394,11.71842a8.76213,8.76213,0,0,1,.61248,1.92138q-.31146.18049-.62444.36242a11.109,11.109,0,0,1-1.23652-1.4417c-1.96329-3.2587-3.85625-6.56125-5.85951-9.795-.28247-.45524-1.04381-.613-1.58288-.90752-.21664.20467-.43235.40934-.6499.61452,3.039,6.08106,5.97575,12.218,9.18006,18.21127a21.08922,21.08922,0,0,0,4.0279,4.68138,10.86214,10.86214,0,0,1,3.29713,6.91129,37.12507,37.12507,0,0,0,.9839,4.42978,29.69872,29.69872,0,0,0,11.659-2.30823,3.10621,3.10621,0,0,0,1.44415-1.8675,22.90668,22.90668,0,0,0,.47017-3.87312C50.81768,210.07139,50.11728,212.10707,51.05977,213.78339Zm59.90446,8.91947c1.5245-1.12171,3.25072-4.51515,2.9342-6.59529-.968,2.21693-1.93528,4.43376-2.8793,6.68965q-.43506,1.52752-.8696,3.05545.32955.03819.65951.076Q110.886,224.3157,110.96423,222.70286Zm16.4782-73.21128c-.79323-1.03481-1.85155-1.88447-2.20292-2.96324-1.91044-5.87495-6.55338-9.15061-11.09245-12.6239-5.47215,5.87741-10.68064,11.47275-16.07734,17.26735,1.63338.41834,2.87828.73731,4.46576,1.14461a8.46786,8.46786,0,0,1-1.26545,1.36584,3.65123,3.65123,0,0,1-1.78806.72729c-3.9546-.25508-5.5475,2.39308-6.67115,5.45262a4.88435,4.88435,0,0,0-.09988,3.39947c1.76619,3.694,3.08255,7.669,6.39859,10.47444a8.9519,8.9519,0,0,1,3.42738,7.40948,42.25283,42.25283,0,0,0,.85212,7.43984c.5127,3.28262,2.48,5.62438,5.18058,7.77639,2.85283-3.23824,5.52153-6.38959,8.33449-9.40773a5.98811,5.98811,0,0,0,1.7531-4.66236,14.7131,14.7131,0,0,1,.87205-5.05136,52.1795,52.1795,0,0,1,2.36671-5.01282c2.57424-5.60485,5.92188-10.94164,5.97125-17.32827q3.69146-1.8031,2.43306-7.13437C129.36473,148.33041,128.46978,148.871,127.44243,149.49158Zm-27.00008,29.03116a6.71665,6.71665,0,0,0-.8696-1.31432c-4.05734-3.82179-6.51585-8.65141-8.72031-13.65482a6.23473,6.23473,0,0,0-1.487-2.48642c-1.41072-1.07028-1.40929-2.39707-1.11424-3.80483q1.4421-6.87224,3.04206-13.70962c.1143-.49317.70132-.87563,1.06875-1.30991-.50217,4.97294-2.30322,9.57345-2.4625,14.50489a5.71779,5.71779,0,0,0,1.10218-1.91535c1.556-3.82578,3.04952-7.67947,4.70387-11.46181.48918-1.11373,1.15064-2.51443,3.10043-1.68828-1.186,1.75116-3.032,3.11843-3.13887,5.43269,3.48084.41732,3.59013.51914,5.59636-1.6294,3.56223-3.8128,6.87388-7.86217,10.50092-11.60913a5.11754,5.11754,0,0,0,1.42718-4.99288,28.64848,28.64848,0,0,1-.5765-2.86775,4.38184,4.38184,0,0,1,.44973-1.5151c.2196.00357.44073.00705.66043.011.329,1.43812.56054,2.90977,1.01436,4.30894.52466,1.61539.81163,3.67652,1.95931,4.65346,4.244,3.61263,8.26506,7.3281,10.53577,12.599,1.68379-1.36226,1.76915-1.36431,1.7437-2.94167-.16777-10.48292-6.17348-16.99336-14.91117-21.505-.46281,1.13367-1.40428.6-2.39216.51516-2.65112-.2286-5.53851-.95047-7.92811-.19619a25.70357,25.70357,0,0,0-9.04225,5.02232,34.71842,34.71842,0,0,0-11.94159,23.26417,58.684,58.684,0,0,0,.317,12.36136c.6589,5.93537.7827,11.94558.85764,17.92675.0639,5.2041-.18422,10.41658-.44482,15.61761-.09088,1.81853.945,2.66819,1.814,3.46285,3.10852-.905,5.91186-1.7212,8.97488-2.61268.26714-2.99064.51516-6.01123.82268-9.02487a6.52744,6.52744,0,0,1,.58508-2.75151C97.08388,183.01846,98.68619,180.95927,100.44235,178.52274ZM137.169,241.7733c-.44972,1.59893-.69232,2.42109-.91049,3.24918q-3.01087,11.50128-6.01368,23.00408c-1.17814,4.51811-2.46853,9.01475-3.4464,13.57641a7.63919,7.63919,0,0,0,.42979,4.6549,42.77732,42.77732,0,0,0,4.09282,5.82353c2.21387-1.12222-.588-1.71272-.21111-2.60931a37.25569,37.25569,0,0,1,2.63517-4.10631A126.56926,126.56926,0,0,0,145.16359,268.393a6.02513,6.02513,0,0,0,.48766-5.583c-1.63738-4.37529-3.0805-8.82511-4.7737-13.17954C139.91359,247.147,138.61175,244.79389,137.169,241.7733ZM111.6406,209.49439a18.13391,18.13391,0,0,0,11.03509,3.34355c2.92173-.06993,5.85144.22757,8.77767.34636.74528.03,1.49312.005,2.183.005,2.23329-4.20813,2.65715-14.15689.78516-19.35444a15.90459,15.90459,0,0,0-3.10146-.11788c-1.88989.27808-3.74339.79773-5.61978,1.18111-2.74354.55962-5.53.956-8.22418,1.69073a8.4465,8.4465,0,0,0-3.24121,2.03926,3.28192,3.28192,0,0,0-.95292,2.26621c.02147.633.78025,1.241,1.02633,1.59341C113.38982,204.89879,112.5512,207.10325,111.6406,209.49439ZM87.14647,222.79967c3.84184-2.51136,7.93609-3.81576,10.48651-7.44239.19363-.27307.903-.16971,1.36727-.26509,1.78653-.36682,3.55813-2.391,3.16279-3.8217-.51219-1.856-1.23242-3.65413-2.138-6.26886-1.45457,1.72018-2.51392,2.97316-3.83774,4.53866h3.89816c-2.57178,1.45407-4.45973,2.26928-7.15787,1.52553,3.10943-4.17573,7.14039-6.94973,10.91424-10.57586a20.45766,20.45766,0,0,0-16.9174.10285,2.13945,2.13945,0,0,0-1.39528,2.61227c.19864.952.46475,1.88989.639,2.84537.09088.49665.2656,1.2909.02545,1.4831-1.61334,1.29335-.85958,3.054-.905,4.5636A23.412,23.412,0,0,0,87.14647,222.79967Zm42.28471-62.98148c-.53611.26458-.81869.30752-.88013.4483-2.35607,5.3738-4.80467,10.71008-6.96711,16.16169a18.77231,18.77231,0,0,0-1.17006,6.33674,5.087,5.087,0,0,1-1.43322,3.73091c-2.36159,2.53488-4.55951,5.22342-6.86631,7.9001.88954.74875,1.52308,1.28241,2.1236,1.78857,3.49925-.96938,6.92315-1.9179,10.39306-2.87879.22808-4.591-.24618-8.7423-3.31165-12.41678,1.01681.0364,1.99928.17574,2.32019.71134,1.40674,2.34872,3.711,2.05715,5.79163,2.43654Zm-24.59892,76.0592c2.95363-8.04588,5.77006-15.71892,8.66787-23.61309-.83065-.28646-1.56693-.54061-2.34524-.80969-.3754.982-.64192,1.68982-.91744,2.39462-1.03685,2.65276-1.63288,2.9662-4.40586,2.30577-.84516-.2017-1.67581-.47569-2.52793-.64345-2.52782-.49972-4.02237.92449-3.50323,3.38751.58007,2.76143,1.11015,5.54545,1.91391,8.24452C102.57188,230.022,103.723,232.81335,104.83226,235.87739Zm2.10253-38.22328c-.88207-1.25042-1.2909-1.88744-1.75668-2.48049-2.24034-2.8513-4.07083-5.83243-3.90307-9.68817a13.96894,13.96894,0,0,0-.65051-3.28312c-5.06117,4.14925-4.00847,9.61578-4.33439,14.78235,3.039.75878,5.74808,1.43567,8.599,2.148C105.46018,198.71938,106.14708,198.22324,106.93479,197.65411Zm-3.20624,12.69935c1.66926-1.73716,1.40315-4.82113,4.27152-6.12052,1.32586,2.58324.34739,4.79516-.19322,7.02753-.24853.014-.49768.02842-.74529.04294q-.16776-1.532-.33389-3.06506c-.13883-.03487-.27705-.06881-.41435-.10479-.592,1.99621-1.18305,3.992-1.76609,5.95929,3.20921,1.47462,3.97443,1.30788,4.69232-1.53953.55359-2.19537,2.57833-4.18718,1.18856-6.733,1.8809-2.04661,1.27394-4.66042,1.57839-7.06a8.69609,8.69609,0,0,0-.24608-1.94377c-1.21556.81265-2.111,1.8904-3.00556,1.88743a1.88981,1.88981,0,0,0-2.0138,1.10413,4.97914,4.97914,0,0,1-1.37821,1.64391C101.40979,204.195,101.07037,205.93012,103.72855,210.35346ZM92.033,156.01991q.34367.16547.68589.33c1.47359-2.24638,2.94575-4.49368,4.51218-6.8843-.85958-.285-1.536-.50974-2.56187-.84967C93.77427,151.12834,92.90365,153.57438,92.033,156.01991Zm29.5734,109.66694c.27705.05837.55257.11981.82963.18115q1.32755-6.29793,2.65572-12.59639c-.24864-.05245-.49778-.10285-.74539-.15427Q122.9762,259.40026,121.60643,265.68685Zm-39.59-20.37034c.13025-.012.261-.02249.39033-.03589q-.29427-4.7241-.587-9.45363-.38706.03374-.77473.06635Q81.53018,240.60625,82.01639,245.31651Zm61.24372-13.21c-.44973,2.73557-.48214,5.40018,1.38731,7.74338Q143.95626,235.97731,143.26011,232.1065Zm11.79131,45.79194c1.48565-2.27378,1.52-2.79537.97939-7.14388C155.68189,273.29548,155.36793,275.59869,155.05142,277.89844Zm-82.22613-26.38c.26765-.06686.53366-.13331.80121-.19966q-.65895-3.52306-1.31933-7.04307c-.258.04651-.51617.09191-.77421.13883Q72.17765,247.96594,72.82529,251.5184Zm84.49694,6.82644c-.26356-.02995-.52712-.06195-.79068-.09088q-.35945,2.96519-.72136,5.93138c.27154.0319.54061.06237.81174.09426Q156.97386,261.31074,157.32223,258.34484Zm-9.2459-59.63793c-.23964,2.6092,1.02233,4.32591,2.2199,6.06613C150.15545,202.6565,149.96376,200.55693,148.07633,198.70691Zm-42.3391-87.6029c1.88447-.11082,3.80432,1.28641,6.21784.00358C109.60943,110.07626,107.71555,109.95787,105.73723,111.104ZM160.272,278.57982c-1.38179.583-2.25241.95047-3.397,1.43271,1.20605.7827,1.97525,1.27894,3.17884,2.06061C160.13365,280.81526,160.18712,279.9746,160.272,278.57982Zm-38.32459,15.12689c-.84363-1.42912-1.34836-2.2838-1.94039-3.29008C118.8314,292.64092,118.8314,292.64092,121.94738,293.70671Zm-48.29144,7.66506c-.03036.34289-.06134.68691-.09078,1.03133,1.28333-.15682,2.57976.84813,3.88068-.68046Q75.55059,301.5475,73.65594,301.37177Zm-38.27818-69.7884c-.09027,3.42646-.09027,3.42646,1.75617,4.71778C36.47207,234.52259,35.92543,233.053,35.37776,231.58337Zm57.1145,63.537c.27062.22921.54072.46077.81123.68988.57455-1.04228,2.05765-1.42166,1.50508-3.33057Q93.65093,293.80128,92.49226,295.12039Zm-5.12312-21.197q.39763.10046.79476.19977.152-2.41557.30445-4.83422c-.17819-.01891-.35536-.03741-.53263-.0549Q87.65263,271.58076,87.36914,273.92339Zm48.70323-61.021c-.92654,1.25543-1.50958,2.04365-2.29729,3.11087C135.98149,215.67727,135.98149,215.67727,136.07237,212.90234ZM96.6455,269.51856c.21071.0639.4209.12687.631.19077,1.12119-1.68481,1.12119-1.68481.289-4.18524C97.19562,267.135,96.9201,268.32754,96.6455,269.51856Zm64.28935-12.12469c.306.01748.61248.03445.91551.0504q-.47478-2.02853-.95-4.05734c-.20764.03987-.41527.08035-.62342.11879Q160.60485,255.4502,160.93485,257.39387Zm-71.56347,2.5678c-.18668,1.12865-.951,2.35464,0,3.67Zm-47.12629,1.20052q-.37064.054-.74272.10786.581,1.833,1.15953,3.66906c.13679-.046.27409-.08792.41139-.13229Q42.66,262.98425,42.24509,261.16219ZM78.97781,278.487c-.20518.07841-.41129.15723-.61647.23411.14619,2.12809.1557,2.12707,1.55191,3.08Q79.44675,280.144,78.97781,278.487Zm44.70018,5.72364q.40362.06441.80672.1278.27174-1.80294.54562-3.60854c-.24761-.04-.4947-.07841-.74375-.11839Q123.98327,282.41016,123.678,284.21064Zm-45.8318-73.634c-.19721-.049-.39391-.09743-.59112-.14681q-.19169,1.49763-.38082,2.99514c.25006.02495.50064.05091.7508.07586Q77.735,212.03924,77.84619,210.57663Zm66.62,6.52383c.15723.017.31447.03445.47129.05142.07729-1.02683.15724-2.05366.23412-3.081-.0639-.004-.13035-.00848-.19425-.012Q144.72123,215.57816,144.46616,217.10046Zm-6.08607,16.37587c.26111.04243.52211.08537.7827.12626V230.593c-.1008-.013-.19966-.02648-.298-.04Q138.62142,232.01464,138.38009,233.47633Zm-5.19408-7.29211c-2.19342,1.06619-2.19342,1.06619-1.7396,3.15135C131.96954,228.3896,132.40781,227.5934,133.186,226.18422Zm-52.03472-29.851c.79068-.77718,1.556-1.55.3-3.27464C81.30853,194.61256,81.23012,195.47316,81.15129,196.33325ZM148.622,265.572c.79865-1.87394.06134-2.47845-1.40571-3.52972C147.79181,263.48739,148.10771,264.2796,148.622,265.572Zm-97.82574,3.1948c.0549-.17176.10827-.34341.16276-.51465q-1.51188-.50544-3.02315-1.01334-.104.33093-.20763.66289Q49.26169,268.33311,50.79621,268.76684ZM145.808,294.05267c-.76123.9295-1.16362,1.42166-1.64228,2.00674C146.10905,297.00783,145.99424,295.91914,145.808,294.05267Zm-64.14305-4.11531c-.20212-.11185-.40577-.2241-.609-.33441q-.63119,1.15611-1.2634,2.31222c.19721.10877.39237.21714.58948.3249Q81.023,291.08933,81.66492,289.93736Zm64.95223-19.22665c-.9339.61493-2.14046,1.216-1.568,3.15083C145.72813,272.49928,146.17294,271.60474,146.61715,270.71071Zm-43.92842,5.63081c.2196.11778.43827.23657.65787.35588q.77058-1.33952,1.5425-2.67811c-.23115-.12483-.46475-.25262-.6958-.37786Q103.4399,274.99139,102.68873,276.34152Zm35.20964-139.417c-.17319.00593-.34341.012-.51414.018.05388,1.08224.10428,2.16438.15724,3.24714.11726-.00542.23759-.00992.3569-.01442Zm-8.81468,19.637c1.7302.74927,2.4306.52916,2.41864-.83964-.00153-.15928-.17676-.317-.27562-.47375C130.65471,155.59912,130.08057,155.95049,129.08369,156.56154ZM115.75,269.74429c-.12534-.04294-.25159-.08536-.37693-.12687q-.40286,1.19966-.80765,2.39717c.1233.04284.24761.08281.37131.12422Q115.34417,270.94084,115.75,269.74429ZM95.25185,121.54257c-.10632-.21367-.21417-.42631-.321-.64q-1.03788.48519-2.07514.97142c.08435.18566.1692.37244.25314.55809Q94.18106,121.9874,95.25185,121.54257Zm33.5508,11.81278c-.40832-2.05173-.40832-2.05173-2.0232-2.793C127.51175,131.57168,128.02946,132.288,128.80265,133.35535ZM58.23207,233.67047c-.20764-.09579-.4163-.19169-.62444-.28707-.2102.31406-.54716.609-.59756.9475a3.75821,3.75821,0,0,0,.22215,1.222c.13874-.00552.27706-.00951.41681-.01493Q57.94039,234.60575,58.23207,233.67047Zm26.96716-9.72016q-.31161.19844-.623.39636c.07739.81664.20661,1.59444,1.97576,1.85748C85.9165,225.14685,85.55858,224.54838,85.19923,223.95031Zm-3.98159-66.89856c-.40034-.45228-.60154-.81367-.906-.97142-.17073-.08884-.51567.15775-.78178.25354a3.70487,3.70487,0,0,0,.615.94249C80.26871,157.38166,80.65209,157.182,81.21764,157.05175Zm27.998,131.40506c-.10939-.09835-.21867-.19823-.32755-.29658-.43674.38287-.9.7413-1.30031,1.15913a8.84359,8.84359,0,0,0-.77779,1.222c.72033-.16868,1.12375-.14077,1.26595-.319A19.11545,19.11545,0,0,0,109.21562,288.45681ZM76.45642,142.5993c.19721.03.39238.0594.58958.08987q.0546-.95185.1098-1.9039c-.13229-.01605-.26407-.033-.39585-.049Q76.608,141.66776,76.45642,142.5993Zm62.973,138.11813c.20518.1053.40729.21264.60951.31692q.33539-.87609.67341-1.75412c-.14077-.06145-.28206-.12227-.42283-.18321C140.00141,279.63661,139.7169,280.17774,139.42942,280.71743Zm9.34721-1.01692c.20467.11583.41282.23217.61749.34749.20518-.30455.53018-.58958.58559-.922a4.44389,4.44389,0,0,0-.13832-1.27792q-.22-.01427-.4392-.02842Q149.0906,278.76072,148.77663,279.70051Zm.926,10.32722c-.17022-.15274-.3434-.306-.51618-.45831q-.60282.927-1.20349,1.85206c.12278.08935.2426.17717.36191.26458Q149.02394,290.85782,149.70266,290.02773Zm-74.44677,8.23154c.004.26611.00951.53172.013.7963q.9546-.09585,1.91033-.1922c-.004-.15683-.009-.31253-.01492-.46977Q76.21029,298.32766,75.25589,298.25927Zm-2.3986-66.03591c.14875.01247.29648.02392.44574.03639-.04785-.7003-.09579-1.40315-.14272-2.10356-.1009.003-.20222.00553-.303.008Z"/><path class="c" d="M102.99768,168.29294c3.671-1.05678,7.16136-2.10263,10.68218-3.03654.62843-.16725,1.69073-.11532,1.99018.271a2.25474,2.25474,0,0,1-.02393,2.05418C112.96892,171.947,106.21742,172.25848,102.99768,168.29294Zm5.67079.54613c.0824.2376.16623.47519.24863.71278q1.78362-.63349,3.56468-1.26688-.10934-.29658-.21765-.59357Q110.46625,168.26571,108.66847,168.83907Z"/><path class="c" d="M113.12524,152.17368c1.96329-2.68762,5.1221-3.53626,7.28363-2.22041.309.1877.6774.74181.599.99943a1.81875,1.81875,0,0,1-.93543,1.14809A13.23179,13.23179,0,0,1,113.12524,152.17368Z"/><path class="c" d="M112.54465,146.96365c.83566-1.89336,1.85851-2.15794,4.8746-1.22148C115.50329,146.22185,114.14451,146.56228,112.54465,146.96365Z"/><path class="c" d="M104.27866,158.98059c.81317,1.50652,1.92578,2.20845,1.814,3.93558C104.24615,162.24532,103.61772,161.28136,104.27866,158.98059Z"/><path class="c" d="M111.62619,162.00364v-3.56611C113.39626,159.85316,113.39626,159.85316,111.62619,162.00364Z"/><path class="c" d="M114.72213,206.03051c2.115-.64049,3.62908.68139,5.26093,1.61938-.06144.22256-.12227.44523-.18422.6684q-2.65143-.71506-5.30582-1.42871Q114.60758,206.45974,114.72213,206.03051Z"/></g></svg>