<?xml version="1.0" encoding="utf-8"?>
<!-- Generator: Adobe Illustrator 15.1.0, SVG Export Plug-In . SVG Version: 6.00 Build 0)  -->
<!DOCTYPE svg PUBLIC "-//W3C//DTD SVG 1.1//EN" "http://www.w3.org/Graphics/SVG/1.1/DTD/svg11.dtd">
<svg version="1.1"
	 id="svg2" inkscape:version="0.48.4 r" sodipodi:docname="譁ｰ隕上ラ繧ｭ繝･繝｡繝ｳ繝1" xmlns:dc="http://purl.org/dc/elements/1.1/" xmlns:cc="http://creativecommons.org/ns#" xmlns:rdf="http://www.w3.org/1999/02/22-rdf-syntax-ns#" xmlns:svg="http://www.w3.org/2000/svg" xmlns:sodipodi="http://sodipodi.sourceforge.net/DTD/sodipodi-0.dtd" xmlns:inkscape="http://www.inkscape.org/namespaces/inkscape"
	 xmlns="http://www.w3.org/2000/svg" xmlns:xlink="http://www.w3.org/1999/xlink" x="0px" y="0px" width="185.741px"
	 height="175.988px" viewBox="27.13 32.006 185.741 175.988" enable-background="new 27.13 32.006 185.741 175.988"
	 xml:space="preserve">
<sodipodi:namedview  id="base" inkscape:window-y="25" inkscape:window-x="514" inkscape:window-height="884" inkscape:window-width="1290" inkscape:current-layer="layer1" inkscape:document-units="px" inkscape:pageshadow="2" inkscape:pageopacity="0.0" inkscape:window-maximized="0" inkscape:cy="113.42031" inkscape:cx="68.392391" inkscape:zoom="1.979899" borderopacity="1.0" bordercolor="#666666" showgrid="false" pagecolor="#ffffff">
	</sodipodi:namedview>
<g id="layer1" transform="translate(0,-812.36218)" inkscape:groupmode="layer" inkscape:label="繝ｬ繧､繝､繝ｼ 1">
	<path id="path2996" inkscape:connector-curvature="0" fill="#FFFFFF" d="M112.25,1018.674c-0.355-0.925-0.131-5.211,0.498-9.524
		c1.169-8.02,0.672-11.336-2.035-13.582c-0.799-0.664-6.134-2.158-11.854-3.32c-36.704-7.458-62.36-28.91-69.917-58.459
		c-6.128-23.959,3.54-49.784,25.221-67.374c7.488-6.075,22.551-14.008,32.296-17.009c9.056-2.789,24.007-5.037,33.5-5.037
		c9.494,0,24.444,2.248,33.5,5.037c3.85,1.186,11.274,4.349,16.5,7.028c21.777,11.17,35.674,27.598,41.018,48.491
		c6.543,25.585-3.826,49.737-31.711,73.856c-20.11,17.395-57.458,41.576-64.212,41.576
		C113.867,1020.356,112.605,1019.599,112.25,1018.674L112.25,1018.674z M85.394,943.382c1.918-0.73,2.565-1.688,2.565-3.801
		c0-4.396-1.616-5.225-10.2-5.225h-7.8v-16.671c0-14.109-0.254-16.952-1.655-18.5c-2.054-2.269-4.14-2.325-6.517-0.174
		c-1.653,1.497-1.829,3.539-1.829,21.309c0,20.03,0.344,22.035,4,23.343C66.594,944.604,82.733,944.392,85.394,943.382
		L85.394,943.382z M101.708,941.525c0.902-1.12,1.25-6.862,1.25-20.638c0-15.656-0.28-19.486-1.557-21.309
		c-1.851-2.642-4.108-2.836-6.615-0.568c-1.657,1.5-1.829,3.559-1.829,21.943c0,19.522,0.08,20.344,2.115,21.769
		C97.396,944.35,99.779,943.92,101.708,941.525z M118.738,929.994c0.154-6.951,0.604-12.624,1-12.608s4.935,5.827,10.086,12.914
		c5.15,7.086,10.184,13.098,11.186,13.36c1,0.262,2.748-0.175,3.885-0.97c1.971-1.381,2.064-2.367,2.064-21.818
		c0-17.187-0.246-20.618-1.572-21.943c-1.943-1.944-3.48-1.984-5.986-0.155c-1.677,1.223-2.01,3.032-2.441,13.248l-0.5,11.832
		l-9.385-12.723c-5.162-6.998-10.207-12.984-11.212-13.303c-1.005-0.319-2.745-0.089-3.865,0.51
		c-1.951,1.044-2.038,1.985-2.038,21.999c0,20.154,0.076,20.961,2.116,22.39c1.377,0.965,2.86,1.207,4.25,0.694
		C118.328,942.679,118.476,941.854,118.738,929.994L118.738,929.994z M179.736,942.8c1.223-0.856,2.215-2.318,2.207-3.25
		c-0.035-3.82-1.729-4.683-10.195-5.193l-8.289-0.5v-4v-4l8.479-0.5c8.178-0.482,8.515-0.599,9.448-3.266
		c1.59-4.537-0.979-6.154-10.458-6.584l-7.97-0.362v-3.894v-3.894h7.671c10.226,0,14.104-3.276,9.674-8.171
		c-1.401-1.548-3.25-1.829-12.065-1.829c-5.727,0-11.281,0.466-12.346,1.035c-1.817,0.973-1.934,2.295-1.934,21.943
		c0,25.293-0.742,24.021,14,24.021C174.988,944.356,178.102,943.944,179.736,942.8L179.736,942.8z"/>
</g>
</svg>
