<svg xmlns="http://www.w3.org/2000/svg" viewBox="0 0 185.74 175.99"><defs><style>.cls-1{fill:#231815;}</style></defs><title>アセット 1</title><g id="レイヤー_2" data-name="レイヤー 2"><g id="svg2"><g id="layer1"><path id="path2996" class="cls-1" d="M85.12,174.3c-.36-.92-.13-5.21.5-9.52,1.17-8,.67-11.34-2-13.58-.8-.66-6.13-2.16-11.85-3.32C35,140.42,9.37,119,1.81,89.42-4.32,65.46,5.35,39.64,27,22,34.52,16,49.58,8,59.33,5a136,136,0,0,1,33.5-5,136,136,0,0,1,33.5,5,127.88,127.88,0,0,1,16.5,7c21.78,11.17,35.67,27.6,41,48.49,6.54,25.59-3.83,49.74-31.71,73.86C132,151.81,94.68,176,87.92,176a3.14,3.14,0,0,1-2.8-1.68ZM58.26,99c1.92-.73,2.57-1.69,2.57-3.8,0-4.4-1.62-5.22-10.2-5.22h-7.8V73.32c0-14.11-.25-17-1.65-18.5-2.05-2.27-4.14-2.33-6.52-.17C33,56.14,32.83,58.18,32.83,76c0,20,.34,22,4,23.34,2.64.94,18.77.73,21.44-.28Zm16.31-1.86c.9-1.12,1.25-6.86,1.25-20.64,0-15.66-.28-19.49-1.56-21.31-1.85-2.64-4.11-2.84-6.61-.57-1.66,1.5-1.83,3.56-1.83,21.94,0,19.52.08,20.34,2.11,21.77C70.27,100,72.65,99.55,74.58,97.16Zm17-11.53c.15-7,.6-12.62,1-12.61s4.93,5.83,10.09,12.91S112.88,99,113.88,99.29a5.55,5.55,0,0,0,3.88-1c2-1.38,2.06-2.37,2.06-21.82,0-17.19-.25-20.62-1.57-21.94-1.94-1.94-3.48-2-6-.16-1.68,1.22-2,3-2.44,13.25l-.5,11.83L99.94,66.76c-5.16-7-10.21-13-11.21-13.3a5.82,5.82,0,0,0-3.86.51c-2,1-2,2-2,22s.08,21,2.12,22.39a4.5,4.5,0,0,0,4.25.69c2-.74,2.15-1.57,2.41-13.43Zm61,12.81a5,5,0,0,0,2.21-3.25c0-3.82-1.73-4.68-10.2-5.19l-8.29-.5v-8l8.48-.5c8.18-.48,8.51-.6,9.45-3.27,1.59-4.54-1-6.15-10.46-6.58l-8-.36V63h7.67c10.23,0,14.1-3.28,9.67-8.17-1.4-1.55-3.25-1.83-12.07-1.83-5.73,0-11.28.47-12.35,1-1.82,1-1.93,2.29-1.93,21.94,0,25.29-.74,24,14,24,7,0,10.14-.41,11.78-1.56Z"/></g></g></g></svg>