<?xml version="1.0" encoding="utf-8"?>
<!-- Generator: Adobe Illustrator 23.0.4, SVG Export Plug-In . SVG Version: 6.00 Build 0)  -->
<svg version="1.1" id="レイヤー_1" xmlns="http://www.w3.org/2000/svg" xmlns:xlink="http://www.w3.org/1999/xlink" x="0px"
	 y="0px" viewBox="0 0 200 50" style="enable-background:new 0 0 200 50;" xml:space="preserve">
<style type="text/css">
	.st0{fill:#FFFFFF;}
</style>
<title>logo_wht</title>
<path class="st0" d="M13.3,6.3c0,0.7-0.1,1.4-0.3,2c-0.1,0.6-0.4,1.2-0.8,1.7c-0.3,0.5-0.6,0.8-1.1,1.2c-0.4,0.3-0.8,0.4-1.3,0.4
	c-0.5,0-0.9-0.1-1.3-0.4c-0.4-0.3-0.8-0.7-1.1-1.2C7.3,9.5,7,8.9,6.9,8.3c-0.2-0.7-0.3-1.3-0.3-2c0-0.7,0.1-1.4,0.3-2
	C7,3.6,7.3,3,7.6,2.5C7.9,2,8.3,1.6,8.7,1.3C9.1,1.1,9.5,0.9,10,0.9c0.5,0,0.9,0.1,1.3,0.4C11.6,1.6,12,2,12.3,2.5
	C12.6,3,12.9,3.6,13,4.2C13.2,4.9,13.3,5.6,13.3,6.3z"/>
<path class="st0" d="M40.3,10.3c0.4,0.1,0.8,0.4,1.1,0.8c0.3,0.4,0.6,0.9,0.7,1.4c0.1,0.6,0.2,1.2,0.2,1.8c0,0.7-0.2,1.4-0.4,2
	c-0.2,0.7-0.5,1.3-0.9,1.8c-0.3,0.5-0.8,1-1.3,1.4c-0.4,0.3-0.9,0.6-1.4,0.8c-0.4,0.1-0.9,0.1-1.4,0c-0.4-0.1-0.8-0.4-1.1-0.8
	c-0.3-0.4-0.6-0.9-0.7-1.4c-0.1-0.6-0.2-1.2-0.2-1.8c0-0.7,0.2-1.4,0.4-2c0.2-0.7,0.5-1.3,0.9-1.8c0.3-0.5,0.8-1,1.3-1.4
	c0.4-0.3,0.9-0.6,1.4-0.8C39.4,10.2,39.9,10.2,40.3,10.3z"/>
<path class="st0" d="M2.8,18.3C-1.4,23.9,4.5,41,8.1,45s13.4-2.5,14.1-4.8S13,35.4,13,32.9s15.4-12.9,14.9-15.2
	C27.4,15.5,7.6,11.8,2.8,18.3z"/>
<path class="st0" d="M44.3,28.5c2.4,5-4.7,17.6-8.1,20.2s-10.1-4-10.3-5.9s7.9-2.3,8.3-4.3s-10.1-12.4-9.5-14S41.5,22.6,44.3,28.5z"
	/>
<path class="st0" d="M196.1,26.8h-10.6V13.3c0-1.8-1.5-3.3-3.3-3.3h-0.5c-1.8,0-3.3,1.5-3.3,3.3v32.2c0,1.8,1.5,3.3,3.3,3.3h0.5
	c1.8,0,3.3-1.5,3.3-3.3V34h10.6c1.8,0,3.3-1.5,3.3-3.3v-0.5c0.1-1.8-1.4-3.3-3.2-3.4C196.2,26.8,196.1,26.8,196.1,26.8z"/>
<path class="st0" d="M77.2,9.7h-1.4c-1.6,0-2.9,1.3-2.9,2.9v4.7h-8.1c-1.6,0-2.9,1.3-2.9,2.9v1.4c0,1.6,1.3,2.9,2.9,2.9H73v7.2h-8.1
	c-1.6,0-2.9,1.3-2.9,2.9v1.4c0,1.6,1.3,2.9,2.9,2.9H73v6.8c0,1.6,1.3,2.9,2.9,2.9h1.4c1.6,0,2.9-1.3,2.9-2.9v-6.8h8.1
	c1.6,0,2.9-1.3,2.9-2.9v-1.4c0-1.6-1.3-2.9-2.9-2.9h-8.1v-7.2h8.1c1.6,0,2.9-1.3,2.9-2.9v-1.4c0-1.6-1.3-2.9-2.9-2.9h-8.1v-4.7
	C80.1,11,78.8,9.7,77.2,9.7z"/>
<path class="st0" d="M130,18.8c-2,0-3.6-1.6-3.6-3.6s1.6-3.6,3.6-3.6s3.6,1.6,3.6,3.6C133.5,17.2,131.9,18.8,130,18.8z M129.8,5.8
	c-3.6,0.1-6.9,2.3-8.4,5.6c-0.8,1.8-1.1,3.8-0.7,5.7c0,0.1-0.1,0.2-0.2,0.2h-1.3v-4.3c0-1.8-1.4-3.3-3.2-3.3c0,0,0,0-0.1,0h-0.6
	c-1.8,0-3.3,1.4-3.3,3.2c0,0,0,0,0,0.1v4.4h-6.9c-1.9,0-3.4,1.5-3.4,3.4v0.4c0,1.9,1.5,3.4,3.4,3.4h6.9v19.9c0,1.7,1.3,3.1,3,3.1
	c0,0,0.1,0,0.1,0h1c1.7,0,3.1-1.3,3.1-3c0,0,0-0.1,0-0.1V24.5h10.6c5.2,0,9.4-4.2,9.4-9.4S135.1,5.8,129.8,5.8
	C129.9,5.8,129.8,5.8,129.8,5.8L129.8,5.8z"/>
<path class="st0" d="M161,27.9c-0.8,5.2-3.6,9.9-7.8,13c-1.3,1-1.6,2.9-0.7,4.3l0.7,0.9c1,1.3,2.9,1.6,4.3,0.7
	c5.7-4.3,9.5-10.6,10.6-17.7l0.4-2.2c0.3-1.6-0.8-3.1-2.4-3.4c-0.1,0-0.1,0-0.2,0l-1.1-0.2c-1.6-0.3-3.1,0.8-3.4,2.4
	c0,0.1,0,0.1,0,0.2L161,27.9z"/>
<path class="st0" d="M101.2,34.2c0,2.5-0.7,5-2.1,7.1c-0.8,1.1-0.6,2.6,0.4,3.6l1.2,1.1c1.1,1.1,2.9,1,3.9-0.1
	c0.1-0.1,0.2-0.2,0.2-0.3c2.3-3.3,3.6-7.3,3.6-11.4v-0.2c0-1.5-1.3-2.8-2.8-2.8h-1.6c-1.5,0-2.8,1.3-2.8,2.8L101.2,34.2L101.2,34.2z
	"/>
<path class="st0" d="M128.2,31.2h-1.7c-1.5,0-2.7,1.1-2.7,2.6c0,0,0,0.1,0,0.1v0.2c0,4,1.2,7.9,3.4,11.2c0.9,1.3,2.7,1.7,4,0.8
	c0.2-0.1,0.3-0.2,0.4-0.4l0.9-0.9c1-1,1.2-2.6,0.4-3.8c-1.4-2.1-2.1-4.5-2-7v-0.2C130.9,32.4,129.7,31.2,128.2,31.2z"/>
<path class="st0" d="M141.9,32.1l-0.9-3.6c-0.5-1.7,0.6-3.5,2.3-4c0,0,0,0,0,0l0.7-0.2c1.7-0.5,3.5,0.6,4,2.3c0,0,0,0,0,0l0.9,3.6
	c0.5,1.7-0.6,3.5-2.3,4c0,0,0,0,0,0l-0.7,0.2C144.1,34.8,142.4,33.8,141.9,32.1z"/>
<path class="st0" d="M150.9,29.7l-0.9-3.6c-0.5-1.7,0.6-3.5,2.3-4c0,0,0,0,0,0L153,22c1.7-0.5,3.5,0.6,4,2.3c0,0,0,0,0,0l0.9,3.6
	c0.5,1.7-0.6,3.5-2.3,4c0,0,0,0,0,0l-0.7,0.2C153.1,32.5,151.3,31.5,150.9,29.7C150.9,29.8,150.9,29.8,150.9,29.7z"/>
</svg>
