<svg xmlns="http://www.w3.org/2000/svg" viewBox="0 0 200 50"><defs><style>.a{fill:#008650;}</style></defs><title>logo_wht</title><path class="a" d="M13.33552,6.25569a7.35736,7.35736,0,0,1-.28993,2.02952,4.77569,4.77569,0,0,1-.77316,1.73959,4.11976,4.11976,0,0,1-1.06308,1.15972A1.94239,1.94239,0,0,1,9.953,11.5711a1.94241,1.94241,0,0,1-1.25637-.38658A4.11977,4.11977,0,0,1,7.63353,10.0248a4.77584,4.77584,0,0,1-.77315-1.73959,6.868,6.868,0,0,1-.28993-2.02952,7.35688,7.35688,0,0,1,.28993-2.02952,4.77577,4.77577,0,0,1,.77315-1.73959A4.12,4.12,0,0,1,8.69661,1.32685,2.12578,2.12578,0,0,1,9.953.94028a1.94239,1.94239,0,0,1,1.25637.38657,4.11984,4.11984,0,0,1,1.06309,1.15973,7.25175,7.25175,0,0,1,.77315,1.73959A7.35726,7.35726,0,0,1,13.33552,6.25569Z"/><path class="a" d="M40.29914,10.31473a2.02644,2.02644,0,0,1,1.06308.77315,3.36269,3.36269,0,0,1,.67651,1.44966,10.70446,10.70446,0,0,1,.19329,1.83623,7.52769,7.52769,0,0,1-.38658,2.02952,6.4096,6.4096,0,0,1-.8698,1.83623,6.176,6.176,0,0,1-1.25637,1.44966,6.72527,6.72527,0,0,1-1.353.77315,3.18457,3.18457,0,0,1-1.353,0,2.02659,2.02659,0,0,1-1.06308-.77315,3.36267,3.36267,0,0,1-.6765-1.44966,10.70357,10.70357,0,0,1-.19329-1.83623,7.52791,7.52791,0,0,1,.38657-2.02952,6.4096,6.4096,0,0,1,.8698-1.83623,6.17581,6.17581,0,0,1,1.25637-1.44966,6.72457,6.72457,0,0,1,1.353-.77315A3.18425,3.18425,0,0,1,40.29914,10.31473Z"/><path class="a" d="M2.80134,18.33616c-4.15568,5.60534,1.73959,22.7113,5.31541,26.67369s13.43349-2.51273,14.11-4.83219-9.18116-4.73554-9.18116-7.24828S28.412,20.07575,27.92873,17.7563C27.44551,15.53349,7.63353,11.76438,2.80134,18.33616Z"/><path class="a" d="M44.26154,28.48376c2.41609,5.02548-4.73555,17.58918-8.11808,20.19856s-10.1476-3.96239-10.34089-5.89527,7.92479-2.31945,8.31137-4.349-10.1476-12.37041-9.4711-14.01335S41.45887,22.58849,44.26154,28.48376Z"/><path class="a" d="M196.089,26.84082H185.45814V13.31069a3.32062,3.32062,0,0,0-3.28588-3.28589H181.689a3.32063,3.32063,0,0,0-3.28589,3.28589V45.49307A3.32063,3.32063,0,0,0,181.689,48.779h.48322a3.32062,3.32062,0,0,0,3.28588-3.28589V33.99246H196.089a3.32062,3.32062,0,0,0,3.28588-3.28589v-.48322A3.28163,3.28163,0,0,0,196.089,26.84082Z"/><path class="a" d="M77.21707,9.73487h-1.353a2.90756,2.90756,0,0,0-2.89931,2.89931v4.73555H64.84666A2.90756,2.90756,0,0,0,61.94735,20.269v1.353a2.90756,2.90756,0,0,0,2.89931,2.89932h8.11809V31.673H64.84666a2.90756,2.90756,0,0,0-2.89931,2.89931v1.353a2.90756,2.90756,0,0,0,2.89931,2.89931h8.11809v6.76507A2.90756,2.90756,0,0,0,75.86406,48.489h1.353a2.90756,2.90756,0,0,0,2.89932-2.89931V38.82465h8.11808a2.90756,2.90756,0,0,0,2.89931-2.89931v-1.353A2.90756,2.90756,0,0,0,88.23447,31.673H80.11639V24.52137h8.11808a2.90757,2.90757,0,0,0,2.89931-2.89932V20.269a2.90755,2.90755,0,0,0-2.89931-2.89931H80.11639V12.63418A2.90756,2.90756,0,0,0,77.21707,9.73487Z"/><path class="a" d="M129.9846,18.81938a3.57582,3.57582,0,1,1,3.57582-3.57582A3.631,3.631,0,0,1,129.9846,18.81938Zm-.1933-13.04691a9.71461,9.71461,0,0,0-8.408,5.60534,9.25636,9.25636,0,0,0-.6765,5.702.20785.20785,0,0,1-.19329.19328h-1.25637v-4.349a3.25877,3.25877,0,0,0-3.28589-3.28589h-.57986a3.25877,3.25877,0,0,0-3.28589,3.28589v4.44562h-6.86171a3.42422,3.42422,0,0,0-3.38253,3.38253v.38657a3.42422,3.42422,0,0,0,3.38253,3.38254h6.86171V44.43a3.053,3.053,0,0,0,3.0926,3.0926h.96644a3.053,3.053,0,0,0,3.09259-3.0926V24.52137H129.888a9.3747,9.3747,0,1,0-.09665-18.7489Z"/><path class="a" d="M161.00725,27.9039a19.48483,19.48483,0,0,1-7.82815,12.95027,3.0691,3.0691,0,0,0-.6765,4.25233l.6765.8698a3.06909,3.06909,0,0,0,4.25232.6765A27.20435,27.20435,0,0,0,168.06224,28.967l.38657-2.22281a2.90262,2.90262,0,0,0-2.51275-3.38253l-1.06308-.19329a2.90264,2.90264,0,0,0-3.38254,2.51274Z"/><path class="a" d="M101.18474,34.18575a12.64319,12.64319,0,0,1-2.12616,7.055,2.80384,2.80384,0,0,0,.38658,3.57582l1.15972,1.06308a2.77666,2.77666,0,0,0,4.15569-.38658,19.71187,19.71187,0,0,0,3.57582-11.404v-.19328a2.80469,2.80469,0,0,0-2.80268-2.80267h-1.64294a2.80469,2.80469,0,0,0-2.80267,2.80267v.28993Z"/><path class="a" d="M128.245,31.18979h-1.73959a2.64239,2.64239,0,0,0-2.706,2.706v.19328a19.87848,19.87848,0,0,0,3.38253,11.21069,2.88422,2.88422,0,0,0,4.44562.38657l.86979-.86979a2.93787,2.93787,0,0,0,.38657-3.76911,12.47876,12.47876,0,0,1-2.02953-6.95836v-.19328A2.68225,2.68225,0,0,0,128.245,31.18979Z"/><path class="a" d="M141.87178,32.05959l-.86979-3.57583a3.231,3.231,0,0,1,2.31944-3.96239l.67651-.19329a3.231,3.231,0,0,1,3.9624,2.31945l.86979,3.57582a3.231,3.231,0,0,1-2.31945,3.9624l-.6765.19328A3.30837,3.30837,0,0,1,141.87178,32.05959Z"/><path class="a" d="M150.85965,29.74013l-.86978-3.57582a3.231,3.231,0,0,1,2.31944-3.9624l.6765-.19328a3.231,3.231,0,0,1,3.96241,2.31945l.86979,3.57582a3.231,3.231,0,0,1-2.31945,3.9624l-.6765.19328A3.231,3.231,0,0,1,150.85965,29.74013Z"/></svg>