<svg xmlns="http://www.w3.org/2000/svg" viewBox="0 0 400 224"><defs><style>.a{fill:#530817;}</style></defs><title>logo</title><path class="a" d="M65.84836,172.78325c.3502-.19481,2.71517-2.70112,2.71517-2.70112s.31463-.52349.42684-.75079a3.61218,3.61218,0,0,1,.57415-.64925.64677.64677,0,0,0-.33193-.5306,2.05774,2.05774,0,0,1,.15212-1.1109h0l.36155-.27462c.36107-.27472.0399-.88368.0399-.88368s-.28356-2.0616-.96531-2.39727a10.05535,10.05535,0,0,0-3.20817-.19723c-.40809.02491-2.59507.04934-3.15845.61925-.56338.5705-1.20946.56253-1.5813.9156-.37145.35261-.23529.53426-.42309,1.317s-.82867,3.68808-.82867,3.68808l.44039-.26395a20.34043,20.34043,0,0,1,.87849-2.87152,10.09659,10.09659,0,0,0-.43809,2.60862,22.86557,22.86557,0,0,1,.82445-2.47527,3.40467,3.40467,0,0,1,1.455-1.17474c.5879-.16241.58078.4832.21972.75781a14.70981,14.70981,0,0,1-1.2634.95878c-.4404.26289-2.02218,1.17849-2.06593,1.49677-.04317.31837-.71829,1.11465-.70473,1.602.01414.48693-.05817,1.60909-.05817,1.60909l-.72262.54789-.2953-.20239s-.41924.1047-.978-.53753-1.79168-2.26823-1.71937-3.38991c.07279-1.12166.33857-4.24069.33857-4.24069s-.49165,1.22638-.44838.909c.04365-.31695.48636-4.1383,1.00281-4.95754s2.65518-3.43829,2.65518-3.43829a.91792.91792,0,0,1,.28866-.93059c.45126-.34318,1.77293-1.13158,1.77293-1.13158,3.10067-.78828,1.78044-1.7785,3.95656-1.723a10.04324,10.04324,0,0,1,4.33694,1.40331S70.86418,156.24317,70.936,156.9c.07231.65734-.42962.184-.42962.184s.52636.88081.85781,1.41139l.00375.56713a1.40483,1.40483,0,0,0,.1977.91608,8.04989,8.04989,0,0,0,1.87572,1.06629,1.89969,1.89969,0,0,0,1.15831.40146,6.18536,6.18536,0,0,0,1.59206-.99493s.1775-.70475.22116-1.02167c.04317-.31741.415-.6705.0399-.88368-.3751-.21357-.523-.31454-.64934-.57416l-.12587-.26009h0a9.795,9.795,0,0,0-2.61469-3.35144c-.60242-.32491-3.32932-1.66823-3.70491-1.88178-.3752-.21366-5.25438-1.20621-6.61124-.74465a6.69531,6.69531,0,0,0-3.466,2.27573,2.54512,2.54512,0,0,1-.83387.77465,1.98817,1.98817,0,0,0-.7329.6278,5.32288,5.32288,0,0,1-.59627.808,53.24819,53.24819,0,0,0-4.7459,6.30556c-.78454,1.5912-2.80152,7.46252-3.23865,8.29169a11.14018,11.14018,0,0,0-.24837,4.17107,34.27585,34.27585,0,0,0,2.957,3.80222c.29626.20279,2.29824,1.52869,2.75277,1.75218a5.42028,5.42028,0,0,0,2.32411.15633l.25962-.12625a1.75273,1.75273,0,0,1,.66762-.15124,2.88075,2.88075,0,0,0,.56674-.00279c.29251-.36483,2.85277-2.51988,3.1673-3.04385a4.57475,4.57475,0,0,1,.98926-1.32031c.25962-.12627.72916.5855,2.49738.66531a3.79244,3.79244,0,0,0,3.11893-1.51371c.38223-.43289,1.45456-1.17561,1.56678-1.40291.11221-.2277,8.33062-7.67464,8.33062-7.67464a1.60252,1.60252,0,0,0,.41462,1.108,3.94531,3.94531,0,0,1,.69579.82358l.10424.41876c-.38271.43291-.43386,1.39638-.94282,1.56918a1.61106,1.61106,0,0,1-1.04272-.062,26.21937,26.21937,0,0,1,2.502,3.57865c.6306,1.29956,1.43581,1.32823,1.43581,1.32823l.84839-.28781a1.19418,1.19418,0,0,0,.5554.07607,3.66147,3.66147,0,0,0,.49492-.65963l.13048-.95264s.91138-3.111.98792-3.66645c.07606-.55548,2.27333-6.56287,2.48651-6.93856.21366-.37557,1.4386-2.23014,1.76351-2.8321a31.20054,31.20054,0,0,1,3.965-4.14723,2.28875,2.28875,0,0,1,2.16217-.43192c.24876-.04644.79387.10893.76108.347-.0324.238-.10664,3.13864-.62684,3.39173a3.64366,3.64366,0,0,0-1.05782,1.23013l-.51973.25211a2.154,2.154,0,0,1-.24279,1.17993c-.30328.44367.10471.41878.46857.71127.36443.29253,1.132,1.773,1.63024,1.67949a10.37705,10.37705,0,0,1,2.69171,1.016,6.81,6.81,0,0,0,3.51615-1.45965,14.82973,14.82973,0,0,1,3.86271-2.22083l-2.47623.955,2.7547-1.80632-.01414-.48682-1.83015.962a6.87719,6.87719,0,0,0,1.47706-1.33486c.224-.45451-.58876.16289-1.01089-.29952-.42155-.46252-1.7137-.4775-1.7137-.4775l-.96339-.05116-.50944.17278a1.16411,1.16411,0,0,0-.90195.68454,2.57856,2.57856,0,0,1-1.37571,1.18686c-.24924.04654-1.42312.93762-1.60668.5081A3.88877,3.88877,0,0,1,97.218,159.288a5.6009,5.6009,0,0,1,1.077-1.956c.47281-.501,1.02878-.42482.68271-1.44274a4.334,4.334,0,0,0-1.71283-2.256,7.28471,7.28471,0,0,0-1.73572-.31935l-.46579-.14462-.985.1076s-.68973.30935-1.02869.42491c-.339.116-.71463-.09769-.40049-.62078a22.576,22.576,0,0,0,1.008-2.04514,1.04244,1.04244,0,0,0-.07462-1.22361c-.41135-.54174-1.33484-1.47656-1.46071-1.73668-.12577-.25963-1.46485-.52357-1.7137-.47752a3.1309,3.1309,0,0,0-1.19869.48271c-.19106.216-.81974,1.26245-.81974,1.26245-.28173.285.10135-.14789-.28173.285h0l-.84185,1.42167s-3.53164,8.656-18.0758,21.54465a38.11012,38.11012,0,0,1-3.36173,2.69364c-1.24186.80049-1.101-.23193-1.11465-.71936-.01413-.48731.585-.72818.585-.72818Z"/><path class="a" d="M121.26329,143.171l.37183,2.59873-.30328.44376a4.95044,4.95044,0,0,0,1.00657.623c.45973.18453,1.97525.63484,1.97525.63484s.25453-.08645.88272-.24329a2.70576,2.70576,0,0,1,1.53158.33157,9.78292,9.78292,0,0,0,1.27888-2.25132,8.57554,8.57554,0,0,0-.215-1.97064s.20568.271-.6329-.69347a30.361,30.361,0,0,0-2.46161-2.39968,9.40622,9.40622,0,0,0-1.34753-.7911s-3.096-.42394-4.52523-.61973a14.52879,14.52879,0,0,0-4.14675.15962c-1.23946.19434-3.14663,2.602-3.73732,3.37021-.5902.76856-1.31138,2.48928-1.98842,3.00345-.677.51367-2.45507,4.63734-2.77479,5.20032-.31972.56242-1.801,6.06192-1.801,6.06192l-.077,1.44512c.20558.271.15212-.222.20558.271.054.4925-.14837,3.74011.3329,4.65571.48126.915,4.021,1.64234,5.16283,2.163,1.14186.5202,4.28243-.26252,5.22986-.98225a6.03361,6.03361,0,0,1,1.457-.89213l.64415-.2756.4878-.90377,2.50719-1.4762,1.13253-1.17934s.54136-.41137,1.02262.50376c.48117.91549,4.14676-.15963,5.60362-1.05176a69.73608,69.73608,0,0,0,5.61632-4.69l-.63291-.69348s-4.29512,3.9007-5.36188,4.6036c-1.06714.70291-3.93636,1.28033-4.7585.1972,0,0,.07654-1.44512.34742-1.65081s2.06352-1.78,2.06352-1.78,1.11608-1.06012,1.062-1.55264a10.26466,10.26466,0,0,0-.21029-1.12081l-.00519-.84983a6.63619,6.63619,0,0,1-1.41745-1.16484c-.41087-.54136-1.786-.24462-2.39785-.207s-1.78649-.24511-2.47949.38828a10.78137,10.78137,0,0,0-1.48457,1.98s-.64463.276-.57424.64933c.07.37367.12394.86628.12394.86628s.93811-2.419,1.60341-1.964l-.82358,1.58553s1.71092-.9785,1.06676-.70291-2.45833,1.11888-2.84335,2.15794a9.1842,9.1842,0,0,0-.4827,1.75362l-1.78832,2.42409-1.66678-.22817c-.46011-.18453-1.99034-3.1847-2.31477-3.47154-.32482-.28693-.0803-2.07343-.47463-2.734a1.56962,1.56962,0,0,1-.19443-1.24c-.308-.40607.36857-.91974.36857-.91974l-.1727-.509a19.16173,19.16173,0,0,1,1.06387-4.22183l-.68876,1.48272a4.10725,4.10725,0,0,1,1.25782-2.9819c1.43581-1.62314,1.79217-3.39415,2.75229-3.26269.35732.04932,1.63437.46675,1.63437.46675l.86628-.124a2.31029,2.31029,0,0,1,1.03435-.46482l.85445.84512,1.03955.385Z"/><path class="a" d="M147.20671,130.74766l-.13145.12393S147.13392,130.81707,147.20671,130.74766Zm.51886-2.527c.0474-.05635.07279-.08589.10981-.129C147.77442,128.163,147.72557,128.22067,147.72557,128.22067Zm32.07013,5.51966-.50982-2.11332-.93012-.78975-.87993-2.50524s-5.48718-1.49591-6.059-1.51283a20.802,20.802,0,0,0-4.59609.62731c-.77329.35964-1.6987-.62116-1.6987-.62116s-2.47671-.07327-4.75812-.33107c-2.28131-.25723-6.68634.37607-8.217.52165a22.07579,22.07579,0,0,1-2.48276.11787l4.91629,1.479-2.48891.30846,2.449,1.02543a2.26837,2.26837,0,0,1-.19068.14922,3.81711,3.81711,0,0,1,1.12734.45031c.93531.6,2.2917-.123,3.05422-.101a7.77563,7.77563,0,0,1,1.89447.43759c-3.48615,1.80391.14559,1.53064.14559,1.53064-2.46075-.64513,1.95592-1.65976,2.52786-1.64284.57136.01645,1.49071,1.18781,1.49071,1.18781l.14549,1.53062-.60473,1.12687-18.08667,18.34954s-1.793,2.619-1.82639,3.76222c-.03375,1.14331-2.16353,2.22459-1.95689,1.6588.20751-.56617-.69492-2.30949-.85175-3.458a13.27639,13.27639,0,0,1,.68367-3.795l.11222,2.67285.69531-4.17444.07279,4.00684.54367-5.51485.2075-.56579a7.44078,7.44078,0,0,1,.63858-2.27056,6.12177,6.12177,0,0,1,.59953-.93578c.59964-.93571.24088-1.70995.454-2.46633.2127-.75683.15078-5.14494.9358-5.88488.78406-.74.45444-2.4664.45444-2.4664s-.71272-1.73812.26856-2.66259l-.14039-1.72033.7907-.93059.40328-.75022,1.24378-3.3974,1.14321-6.45066s.3526-5.52054,1.52456-6.44086c1.17186-.91877,1.18782-7.97512,1.18782-7.97512l2.01141-10.04952s1.29494-5.1111,1.93351-7.38213a28.37792,28.37792,0,0,0,.56579-6.27748s-.45925,2.65746-.82916,2.26447c-.37-.39153.30847-3.99644.30847-3.99644-1.18273,1.30051-1.29494,5.11255-1.29494,5.11255l-.5329-1.35081.63386-2.08093,1.69207-5.67073.08971-3.05s.61646-1.50718,1.03667-2.82933c.42068-1.32359,2.68988-13.65442,2.68988-13.65442s-1.95,7.95312-2.11852,7.186C159.246,60.65991,162.04241,49.87,162.04241,49.87l-2.47709,6.41221-2.33631,8.132-.75127-.40327-.83522,2.456c-.56675-.20752.50944-4.37262.50944-4.37262l-1.849,4.52378s-.8629,3.40768-1.087,4.54444c-.22443,1.13812-2.37055,9.27758-2.37055,9.27758l-.824,2.07389s-.66723,3.22174-.88551,4.16925c-.21837.94705-5.11072,18.15986-5.11072,18.15986s-1.95361,8.4682-3.73116,16.25276c.24039-.65407.42578-1.05177.4554-.8306a50.21579,50.21579,0,0,1-1.13388,5.85959s2.83354-10.49933,3.09835-11.33322l-1.00291,5.50229s1.09494-4.537,1.18369-3.45279c.08827,1.085-2.24718,10.99742-2.67815,13.3896-.431,2.39171-2.31795,9.31092-2.31795,9.31092s-1.13388,1.77053-.855.45638c.27886-1.31514,1.48745-5.60833,1.48745-5.60833l-1.81611,4.5158,1.371-5.73093a23.78427,23.78427,0,0,1-1.0283,2.55457c-.87329,3.88859-2.89777,12.39431-2.91518,12.96192a19.6798,19.6798,0,0,1-.84742,4.3031c-.4203,1.32358-1.164,3.38942-1.4537,4.18857-.74464,1.41042-2.8847,5.52756-3.83491,8.04-.04654.123-.09068.24316-.13155.35865a9.624,9.624,0,0,1-.78454,2.142,9.57693,9.57693,0,0,1,1.633,1.73062c.692.98319,2.7419,4.89089,2.7419,4.89089l2.07016,1.90344.52674,1.54233a2.79824,2.79824,0,0,0,1.65928,1.956l-.21837.94744s.73435.97425,1.28936,1.563a7.8291,7.8291,0,0,0,1.87188,1.19965s1.39543-2.057,2.18564-2.98749,1.77149-1.85507,1.77149-1.85507l1.93861-1.08743.20751-.56625a5.11278,5.11278,0,0,1,1.18273-1.3,1.48307,1.48307,0,0,0,.6052-1.12637l2.41517-4.31532s2.34853-2.03064,2.19775-3.36971a2.00875,2.00875,0,0,1,.24-1.21177l-3.75991,4.16031.26289-2.4715,2.741-2.3992.48453-1.18744,1.60062-1.27524,3.16971-1.47089a7.28044,7.28044,0,0,1-1.71755,1.15215,26.50967,26.50967,0,0,0-3.53731,2.78142l5.04966-3.09462s1.39494-2.05688,2.20246-3.55845c.8081-1.50245,6.75356-9.1471,7.52166-9.31565.7681-.16761.15164,1.33906.15164,1.33906,1.771-1.855,2.33679-1.64753,2.33679-1.64753-1.37946,1.48609-10.69318,13.41825-10.69318,13.41825s16.001-18.7937,17.54193-19.32l.22963-1.32879a16.92076,16.92076,0,0,1,1.9339-.89627c.578-.17376.98089-.92591,1.57475-1.671s.41463-1.132.41463-1.132Zm-49.73707,31.18414a3.50664,3.50664,0,0,0-1.29061-.08489,59.71315,59.71315,0,0,1,2.68324-6.12575Zm34.56145-34.45855c-.36059-.01029-.824-.6254-.824-.6254,1.06387.63289,1.43859.16287,1.9189.17653.48126.01452-.155,1.19869-.155,1.19869l-.10981-.36384C165.34077,130.48708,164.98019,130.47668,164.62008,130.46592Zm-13.38114,25.70121c-.62541.82358-3.2401,3.87259-3.61107,4.22279a10.98837,10.98837,0,0,1,.88695-1.53714c.37415-.47,1.47331-1.03908,1.73111-1.633.25818-.593.516-1.18685.516-1.18685l.38126-.71088,1.2334-1.04513,2.73537-3.04673S151.86434,155.34412,151.23894,156.16713Zm13.08161-7.31224-3.49134,4.22656L157.829,156.962s4.38859-5.29187,4.01339-4.64118c-.37415.6503-2.90864,3.87683-3.43962,4.67445a8.62242,8.62242,0,0,1-2.04381,2.12555c-.35962.14134-2.3917,1.85977-2.54526,1.9062-.15443.04607-1.91227,1.11235-2.06679,1.15927-.15395.04509-.29251-.4155-.29251-.4155l.3254-.70147a.35034.35034,0,0,0,.3075-.093c.41934-.44413.93859-.83482,1.09725-1.03387a8.70841,8.70841,0,0,0,.79165-.99348c.16107-.30049,2.14939-2.27343,2.20478-2.42507.05548-.15069,2.76969-4.33879,3.13826-4.78486.369-.44693,3.22182-4.17444,3.27721-4.32512s.16481-.401.16481-.401l.40991-.14088.01222-.40519.25962-.19675.839-.88926.46252-.18962.35587.00981-.2775.80521-.50656-.06566-.88973.88878-.06385.45538-.37472.64936-2.91749,4.182a6.9682,6.9682,0,0,1,1.102-1.18649c.25674-.09481.61271-.13615.72541-.48733a2.93523,2.93523,0,0,1,.42867-.74982l.05961-.30184.3103-.19538s.53155-.79628.6855-.84321a1.76127,1.76127,0,0,0,1.02782-.37557,9.636,9.636,0,0,1,1.29859-.9785S164.30459,148.97508,164.32055,148.85489Zm-12.91209,16.78239.77368-.856A2.53,2.53,0,0,0,151.40846,165.63728Zm-4.01627-35.06434c.17328-.16288.11645-.11029,0,0Zm6.9577-.477a7.17008,7.17008,0,0,0-1.33389-.19384S153.33342,130.89977,154.34989,130.0959Z"/><path class="a" d="M206.828,130.2208a1.69035,1.69035,0,0,0-1.1108-.15211,5.92178,5.92178,0,0,0-1.73909,2.071l-.50049,2.47067a6.416,6.416,0,0,1-.59723,1.99678c-.41136.63579-.156,1.132-.59723,1.99591-.44136.8635-.43761,2.0194-.94474,2.17948-.508.1606-1.48831,1.41274-2.91373,2.372-1.42553.95829-4.60129.523-5.07736.45779-.477-.0653-1.8114-.94184-1.84659-1.8687a24.78442,24.78442,0,0,1,.686-3.83078l7.1629-3.86781a7.7508,7.7508,0,0,0,2.53257-1.96168,25.58943,25.58943,0,0,0,2.2715-4.7684s1.16715-2.61142,1.00474-3.788c-.16337-1.17571-5.55246-9.07295-15.75833-4.23647,0,0-1.26628.98175-1.90149.89492-.63531-.08731-.53809.38683-1.10763,1.00148-.56953.615-2.40151,3.36548-2.33631,4.06742a3.47615,3.47615,0,0,1-.37655,1.56349l-1.17,1.45641-.87983,2.88141-.4202,7.79206s.386,1.89919.83146,2.1917a9.05545,9.05545,0,0,1,1.27331,1.32965l1.88236,2.79787c.79348.10893-.34934.18356.79348.10893,1.14273-.07568,6.1572-.07981,7.14078-.17607.98416-.09673,5.93469-.80385,7.96022-2.604a13.61539,13.61539,0,0,0,2.909-3.52643,1.95958,1.95958,0,0,1,.37568-1.56543,6.601,6.601,0,0,1,1.77476-1.14186l1.70149-4.15377A6.25963,6.25963,0,0,0,206.828,130.2208Zm-13.09758,2.33488-.00654-1.13338c-.001-.06664-.001-.10049-.001-.15214l-.001-.01123c0-.12395-.00087-.21224-.00087-.26156,0,.07.00087.17425.00087.26156l.001.01123c0,.08454.001.15214.001.15214l.38222-.4329c.38213-.43291-.43857-1.516-.43857-1.516l-.692-2.03581s1.11552-1.83534.52771-2.67719c-1.62216-2.32545,6.44836-2.19026,6.44836-2.19026s1.093,5.00215-.21982,5.14582c-.63752.069.16433,1.155-.42068,1.88321a18.3951,18.3951,0,0,1-1.69024,1.70957l1.37946-.61933-1.849,1.68793-.58492.72818s-1.51562.43953-1.74.894c-.22443.455-2.1016,1.16821-2.1016,1.16821Z"/><path class="a" d="M250.40557,112.62388c-.016-.00375-.06952-.01779-.185-.045Zm36.53949,5.57784c1.11455.12819,6.29518,1.36861,6.29518,1.36861-4.31013-1.78553-23.24191-8.31552-23.24191-8.31552l6.578,1.72359c-7.086-2.91057-25.96795-8.46773-25.31254-8.55407,0,0-.3502-1.16861.3052-1.255l.55684-2.0339s1.00763-4.56186,1.22263-5.021c.21414-.45915,1.27052-4.04771,1.27052-4.04771a10.25673,10.25673,0,0,1,1.40763-2.41987,6.6306,6.6306,0,0,0,1.1559-1.64093l2.85845-2.41517,6.07171-5.10974.86858-.54513,1.06493-.84558,1.40283-.96812a18.83716,18.83716,0,0,1,3.25-3.01432c1.2057-.66761,5.61169-5.32475,6.48124-5.86939s4.61436-3.66453,4.61436-3.66453l-2.58892,1.478s-.32117.16383-.51454.26289c.51454-.26289,6.76375-5.51486,6.76375-5.51486s-6.776,4.22319-5.87074,3.35932c.907-.86339,8.46629-6.28681,8.46629-6.28681l-9.36689,5.69947-.58685.90052-.49578.10327c-.49588.10376-1.13811,1.4832-1.13811,1.4832l-.83291.22628c-.83387.22681,1.33437-1.78227,1.33437-1.78227L259.55448,78.59918l-.0601.038c.0751-.26809.1503-.5259.22068-.74658.37655-1.16666.54088-2.59967.99917-4.48243a10.62466,10.62466,0,0,1,2.001-2.67429L264.768,61.291l1.24792-.34041.85358-1.11184-.17558-2.68229,1.35879-1.2959a6.07738,6.07738,0,0,0,.80666-2.81095l-1.32312-1.11937L267.94,50.525l1.59725-1.26869.37655-1.16668c.37568-1.16675,3.697-9.01235,3.697-9.01235s-2.75325,5.00687-2.37767,3.84059c.37655-1.16715,4.90735-13.22857,4.90735-13.22857,1.14754-1.562-1.16339,5.91546-1.16339,5.91546s3.21989-9.06726,3.56731-9.99507c.34933-.92772,4.84446-10.57434,4.84446-10.57434L281.709,17.02043l1.55879-5.14447-2.05553,3.15143,1.87995-5.83372s.76349,1.78178.8733.82626c.10894-.95492.86108-3.28844.70521-4.03212C284.51384,5.24414,285.80407-1,285.80407-1s-3.09971,7.24561-3.18144,7.96255c-.0826.71644-8.49437,21.28589-9.0541,21.94744-.56059.66156,1.833-7.5329,1.833-7.5329s-9.17247,25.07953-10.16317,27.38538.14558-3.37117.14558-3.37117l-1.4761,4.428-.85454,1.11175-1.56918,1.02966-1.33148,1.05732-.30241,2.62651s-.58588.90053.41511,2.7096l-.34838.92773c-.34837.92782-4.79754,12.2736-6.16383,15.7461-.95964,2.43816-3.16826,7.46531-4.40031,10.25l-.26664.18406-1.38225.809-1.68928,2.064s-4.65292,3.98288-5.87555,4.8106c-1.22446.82686-7.84743,6.51874-9.23161,7.3277-1.38225.809-2.97393,1.86208-2.97393,1.86208l-.80185.34233s-.63107-.18078-1.10147,1.07051c-.47146,1.25071-1.37475.60375-1.37475.60375l.48828.49109a2.37538,2.37538,0,0,1,.2103,1.00339,1.74484,1.74484,0,0,1-.35021,1.15686,2.9176,2.9176,0,0,1-.862.87943,4.48044,4.48044,0,0,0-.21885.95407,3.87715,3.87715,0,0,0,.07894,1.20657c.05722.4428.96253,1.08888,1.59447,1.271a4.70526,4.70526,0,0,1,1.4987,1.15079l.81877,1.40053.5503-.046s1.16811.24271,1.34562.58926c.17847.34693-.04885.42963.26106.57462.30895.14511.32213.03713.63194.18125s.801-.34365,1.09869-.092a1.62651,1.62651,0,0,0,.80945.52867,1.18982,1.18982,0,0,1,.66578.83858,13.60961,13.60961,0,0,1,1.5062-.80665.89476.89476,0,0,0,.51549-.70244l-.22346-.89626s.67328-1.11926.971-.86762a1.857,1.857,0,0,1,.35116,1.67235,1.49359,1.49359,0,0,1-.862.8804,11.535,11.535,0,0,1-.04414,2.27988c-.15683.41742-.88262,2.9448-1.42735,4.83984-.54367,1.89495-2.46016,7.22531-2.46016,7.22531s1.56341-3.19414,1.71553-2.63209c.15308.562-.90147,2.734-.90147,2.734l2.08371-3.39085a30.31533,30.31533,0,0,0-1.47706,4.42849c-.48549,2.1217-1.25734,2.517-1.34,3.23354-.08163.71646-.06288,2.65413-.06288,2.65413a30.24327,30.24327,0,0,1-1.60572,3.44527,11.27861,11.27861,0,0,0-1.4687,2.25133,36.0054,36.0054,0,0,1-1.84332,3.41758c.75223-2.33295,4.38253-14.98262,4.38253-14.98262s-4.5308,12.06226-5.43987,13.65114c-.909,1.58976-2.31372,1.18649-1.4686,2.25131.84609,1.06534.415,2.7095,1.58226,3.08519a17.69429,17.69429,0,0,1,1.85457.69675l1.12032-1.32264,1.83669-1.24088s.20279,2.44332.35962,3.187,1.34187,3.058,1.47245,4.04069a7.68146,7.68146,0,0,1,.046,1.69919,6.07714,6.07714,0,0,0,.709,2.2588c.60666,1.03763,1.37764.64223,1.37764.64223l1.47889-.23278.3052-1.25553.88743-.70472.5878-.9005a31.57407,31.57407,0,0,0,1.02166-3.27019,5.93069,5.93069,0,0,1,1.22821-2.279,1.56683,1.56683,0,0,1,.90618-.8635c.51367-.26384,1.21138-2.1189,1.21138-2.1189s.73339-2.17381,1.24792-2.43815c.51367-.26395-.46943,2.68884-.46943,2.68884l.87415-1.99678.57377-2.19218s.23857-2.06959.34838-3.02509,0,0,.37376-.44136c.37183-.44087.49953-1.5559.91089-2.31468a10.87567,10.87567,0,0,0,.68357-3.14758c.092-.79591.72022-3.46693.72022-3.46693l-.81878,1.51985c.108-.33481.27511-1.1982.4329-2.07392.20847-1.16253.39713-2.348.39713-2.348s-.538,1.87428-1.03378,1.979c-.49588.10423-.47425-5.70133-.47425-5.70133s-.08644-.65443-.19067-1.15079a28.53349,28.53349,0,0,1,.02913-3.06164,28.29353,28.29353,0,0,1,.93435-3.92567,11.08808,11.08808,0,0,1,.83859-1.678l-.51367.26347-.41886-1.98371.87522-1.99592.693-.40472.4226.53242,1.25446.30472.6555-.08549c.65541-.085.42819-.91839.42819-.91839s8.101,1.09119,8.73861,1.16444c.63665.07329,8.48783,1.94285,9.10574,2.17527.6179.23289,6.25959,1.687,6.25959,1.687l-3.09316-1.16158c-.90051-.58741,5.37592.93993,5.37592.93993l-6.39854-1.86438a12.45322,12.45322,0,0,1,1.60946.024c.63762.07317,4.422.8305,4.422.8305l10.99319,4.00454a3.58437,3.58437,0,0,0,1.87428.53847l.58127.55079.74185.569a11.98572,11.98572,0,0,0,1.9287.06009,14.68318,14.68318,0,0,1,2.70633.3108C293.645,120.262,286.94506,118.20172,286.94506,118.20172Zm-54.5473-4.00683.86858-.54561-.05539.47751a1.22637,1.22637,0,0,0,.22732.83245Zm8.94707,2.157-.28731,1.09627-.51934,1.71466-.14741,1.2738s-.538,1.87427-.82445,2.96969c-.28731,1.09541-.38126-2.302-.38126-2.302s-.6479,2.82921-1.16811,4.54388c-.5202,1.71429-.63953,5.57315-1.36157,4.84447-.7231-.72867.71454-2.01515.47039-2.688a10.60726,10.60726,0,0,1,.1878-3.04335c-.75214,2.33305-3.23865,14.146-3.32981,14.94177-.092.79588-1.20378,4.86282-1.20378,4.86282s-.81512.0676-1.4687.15346a9.68693,9.68693,0,0,0-2.217,1.03629s1.80389-4.4712,2.17756-4.91256c.37472-.44038.29491,1.64756.29491,1.64756a11.49819,11.49819,0,0,1,.66569-2.98893c.3728-.44089.34655-3.02412.34655-3.02412l.25164-.77848s-.08635-.65454.7832-1.20053a37.73326,37.73326,0,0,1,.84887-4.58012c.57559-2.19217,2.57382-6.96338,2.57382-6.96338l-1.3259,4.52562s1.41235-3.87116,2.51382-5.03458c1.10147-1.164,1.094-3.90778,1.094-3.90778s.4103-.75917.9982-1.6593a13.09011,13.09011,0,0,0,1.10523-2.61515l.08731.65452Zm48.69522,3.46029c.3578-.01692.185-.009,0,0Zm-40.18671-7.323s.04327.01077.10424.02537C249.92286,112.50609,249.89286,112.49859,249.85334,112.48917Z"/><path class="a" d="M287.72258,110.34305c.34924-.19492,2.71565-2.70067,2.71565-2.70067s.31453-.52405.42627-.75125a3.56346,3.56346,0,0,1,.57376-.64936.64405.64405,0,0,0-.33241-.5305,2.06558,2.06558,0,0,1,.15308-1.11088h0l.36155-.27474c.36059-.27462.03942-.88356.03942-.88356s-.28356-2.06123-.96531-2.39738a10.05252,10.05252,0,0,0-3.20779-.19712c-.40847.02479-2.59545.04923-3.15883.61971-.56348.57-1.20946.562-1.5813.91466-.371.353-.23481.53473-.42261,1.31744s-.82915,3.688-.82915,3.688l.44039-.26385a20.2578,20.2578,0,0,1,.879-2.87153,10.08724,10.08724,0,0,0-.43857,2.60911,22.76348,22.76348,0,0,1,.82445-2.47574,3.40948,3.40948,0,0,1,1.45456-1.17524c.58876-.162.58126.48359.22068.75829a14.61564,14.61564,0,0,1-1.26389.9582c-.44039.263-2.02178,1.179-2.06592,1.49737-.04317.31779-.71829,1.11464-.70425,1.602.01317.48684-.05818,1.609-.05818,1.609l-.72309.54839-.29482-.20279s-.41982.10471-.97753-.53761c-.55972-.64223-1.79264-2.26824-1.71937-3.3899.07231-1.12167.338-4.24062.338-4.24062s-.492,1.2264-.44886.90946c.04327-.31741.48646-4.13926,1.00387-4.95813.5155-.81924,2.6546-3.43777,2.6546-3.43777a.91911.91911,0,0,1,.28828-.931c.45078-.34328,1.77293-1.13157,1.77293-1.13157,3.10066-.78831,1.78034-1.779,3.95607-1.72313a10.04292,10.04292,0,0,1,4.33743,1.40339s1.76726,1.8593,1.83957,2.51661c.07135.65686-.4301.18356-.4301.18356s.52684.88032.85829,1.4114l.00279.56714a1.40644,1.40644,0,0,0,.19818.91606,8.06336,8.06336,0,0,0,1.87611,1.06667,1.90026,1.90026,0,0,0,1.15878.401,6.18576,6.18576,0,0,0,1.59168-.99484s.1775-.70483.22068-1.02166c.04317-.31742.415-.6705.04038-.88368-.37558-.21366-.52395-.31453-.64886-.57425l-.12683-.26012h0a9.80071,9.80071,0,0,0-2.61421-3.35133c-.60194-.32492-3.3298-1.66822-3.70539-1.88189s-5.2539-1.20609-6.61076-.74462a6.694,6.694,0,0,0-3.466,2.27574,2.5521,2.5521,0,0,1-.83483.77471,1.999,1.999,0,0,0-.73242.62773,5.29512,5.29512,0,0,1-.59531.80808,53.23941,53.23941,0,0,0-4.74686,6.30606c-.78406,1.59072-2.802,7.46146-3.23865,8.2911a11.12925,11.12925,0,0,0-.24789,4.17116,34.26254,34.26254,0,0,0,2.95691,3.80212c.29587.20243,2.29785,1.5288,2.75238,1.75228a5.41357,5.41357,0,0,0,2.324.15634l.2602-.12634a1.74842,1.74842,0,0,1,.66761-.15116,2.88591,2.88591,0,0,0,.56714-.00279c.292-.36481,2.8519-2.51987,3.16643-3.04393a4.60766,4.60766,0,0,1,.98878-1.32023c.2601-.12625.72963.585,2.49786.6653a3.78981,3.78981,0,0,0,3.11845-1.5137c.38318-.43288,1.45552-1.17617,1.56822-1.40291.11173-.2277,8.33014-7.67425,8.33014-7.67425a1.60092,1.60092,0,0,0,.41414,1.10762,3.95187,3.95187,0,0,1,.69579.823l.10423.41932c-.38222.4329-.43385,1.39631-.94281,1.5691a1.60924,1.60924,0,0,1-1.04234-.06193,26.23105,26.23105,0,0,1,2.50161,3.57857c.631,1.29917,1.43581,1.3283,1.43581,1.3283l.84791-.28781a1.19594,1.19594,0,0,0,.55588.07606,3.65921,3.65921,0,0,0,.49492-.65973l.13048-.95309s.91185-3.11047.98791-3.666,2.27334-6.56287,2.48652-6.93848c.214-.37558,1.4386-2.23014,1.76351-2.83208a31.16408,31.16408,0,0,1,3.96549-4.14771,2.2882,2.2882,0,0,1,2.1616-.43146c.24886-.04644.79349.10895.76156.34694-.03279.23806-.107,3.13874-.62723,3.39182a3.64634,3.64634,0,0,0-1.05733,1.23013l-.52021.25211a2.14735,2.14735,0,0,1-.24328,1.17986c-.30327.44376.1052.41885.46954.71135s1.13157,1.77333,1.63014,1.67948a10.37913,10.37913,0,0,1,2.69132,1.016,6.8134,6.8134,0,0,0,3.51664-1.45927,14.83619,14.83619,0,0,1,3.86223-2.2217l-2.47623.9559,2.75508-1.8067-.014-.48683-1.83015.96194A6.89125,6.89125,0,0,0,326.912,97.029c.22443-.45453-.5878.16289-1.00945-.29962-.42251-.46242-1.71466-.47742-1.71466-.47742l-.9634-.05175-.509.17329a1.16343,1.16343,0,0,0-.90243.68454,2.57709,2.57709,0,0,1-1.37571,1.18694c-.24886.04654-1.42264.93762-1.60572.508a3.87158,3.87158,0,0,1,.26106-1.90523,5.58583,5.58583,0,0,1,1.07609-1.956c.47328-.501,1.0283-.42492.68271-1.44283a4.33219,4.33219,0,0,0-1.71283-2.256,7.30024,7.30024,0,0,0-1.73621-.3197l-.46482-.14414-.986.10748s-.68925.30945-1.02829.42494c-.339.11594-.71454-.0976-.4-.62069a22.77315,22.77315,0,0,0,1.00763-2.04564,1.03952,1.03952,0,0,0-.0751-1.22313c-.4104-.54184-1.33436-1.47656-1.46023-1.73678-.12587-.2596-1.46485-.52394-1.7137-.47693a3.12312,3.12312,0,0,0-1.19821.48166c-.19155.21693-.81983,1.263-.81983,1.263-.28164.285.10048-.14791-.28164.285h0l-.84234,1.42169s-3.53173,8.656-18.07541,21.54463a38.2481,38.2481,0,0,1-3.36259,2.69354c-1.24138.80061-1.10061-.2324-1.11465-.71924-.01317-.48732.585-.72821.585-.72821Z"/><path class="a" d="M338.64978,85.06244c-.00933-.00281-.04317-.01223-.11548-.031C338.58968,85.04609,338.63574,85.05869,338.64978,85.06244Zm22.86257,4.00173c.69771.0953,3.9327.94514,3.9327.94514-2.6819-1.17946-14.47608-5.53843-14.47608-5.53843l4.10445,1.172c-4.40782-1.92313-16.18507-5.67035-15.77285-5.71641,0,0-.20376-.7385.20943-.7836l.37655-1.26859s.69579-2.85047.83569-3.13546c.14087-.28587.85359-2.52363.85359-2.52363a6.46861,6.46861,0,0,1,.91743-1.49966,4.20248,4.20248,0,0,0,.74838-1.015l1.8265-1.47668,3.88193-3.12461.55309-.33012.67887-.51644.894-.58829a11.87547,11.87547,0,0,1,2.08179-1.84841c.76723-.40195,3.59558-3.265,4.14963-3.59512.55309-.33011,2.94662-2.23774,2.94662-2.23774l-1.64514.89212-.32684.1582c.32684-.1582,4.32051-3.36923,4.32051-3.36923s-4.312,2.558-3.73078,2.02833c.58127-.53011,5.40035-3.8303,5.40035-3.8303l-5.95719,3.4495-.38126.55734-.3127.05865c-.31174.0578-.73425.91415-.73425.91415l-.52588.13193c-.52684.13058.86108-1.101.86108-1.101l-12.02428,7.73712,1.75226-4.67542-.05635-2.21985.78877-.19722.55031-.68551-.07327-1.687.8705-.79446a3.83314,3.83314,0,0,0,.54559-1.75359l-.10711-.09529.25923-.80666.32482-1.47054s1.47427-3.68,1.72784-4.40733c.25077-.72675,2.44334-5.60689,2.44334-5.60689s-1.79727,3.10634-1.54466,2.37853c.25164-.72723,3.26124-8.23666,3.26124-8.23666.74185-.9658-.81137,3.69691-.81137,3.69691s2.14477-5.64773,2.3767-6.22573c.23107-.57753,2.67152-6.8624,2.67152-6.8624l-.79156,1.44752.88551-3.2148-.94657,2.02363,1.26023-3.63637a5.483,5.483,0,0,0,.37559-1.25782c.0826-.59818,2.68276-7.10749,2.59545-7.57616-.08827-.46994-2.60391,6.01824-2.60391,6.01824a5.96693,5.96693,0,0,0-.631,1.40764c-.062.44982-5.28025,13.11583-5.64084,13.52346-.36058.407,1.36725-4.55763,1.36725-4.55763s-8.03243,19.28389-8.687,20.71731c-.65348,1.43437.13712-2.11371.13712-2.11371l-.986,2.75931-.8.45163-.75214.85879-.84983.64559L343.884,53.1026a.92651.92651,0,0,0-.10991.39066c-.154.53811-.43472,1.508-.62156,2.04891-.26673.77292-1.32407,2.57114-1.55879,3.10587s-1.37,2.32274-1.29869,2.98a5.8474,5.8474,0,0,1-.13808,1.60014,4.1515,4.1515,0,0,1-.30049,1.01185,4.69438,4.69438,0,0,1-.8357.77608s-.78877,2.21612-1.33061,3.25654l-.37655.209-1.08743,1.27282s-1.89121,1.54753-3.05182,2.43113c.30145-.39107.55405-.71079.55405-.71079s-5.39948,3.99173-6.60143,4.79744,3.85664-3.35375,3.85664-3.35375-3.32038,2.09266-3.87818,2.62277L324.8743,77.662a1.72217,1.72217,0,0,0-.4404.73375l-.25828.10423s-.39347-.12248-.70617.65648c-.31357.77981-.87137.36059-.87137.36059l.29953.31451a1.48106,1.48106,0,0,1,.11837.63338,1.09,1.09,0,0,1-.23578.72118,1.82434,1.82434,0,0,1-.554.54041,2.813,2.813,0,0,0-.15029.59625,2.424,2.424,0,0,0,.03385.75829c.03.27886.58973.69677.98406.81975a2.96106,2.96106,0,0,1,.92493.7428l.49492.89071.34645-.02069s.72964.1681.83666.38732c.10616.2202-.03654.26905.156.36435.19154.09578.20087.0277.39337.12259.19251.09434.509-.20422.69118-.04279a1.01485,1.01485,0,0,0,.50049.34328.74509.74509,0,0,1,.40655.5352,8.66666,8.66666,0,0,1,.95782-.486.56313.56313,0,0,0,.33241-.43375l-.1277-.56532s.43857-.69346.6207-.532a1.16876,1.16876,0,0,1,.19817,1.0555.93878.93878,0,0,1-.55309.5404,7.27041,7.27041,0,0,1-.05913,1.43063c-.10424.25961-.59541,1.83678-.96157,3.01855-.36722,1.18224-1.64428,4.50165-1.64428,4.50165s1.02542-1.98371,1.11369-1.62832a5.35109,5.35109,0,0,1-.60377,1.70391l1.35408-2.09967a19.06713,19.06713,0,0,0-.98792,2.75939c-.33424,1.32543-.82348,1.56254-.88454,2.0114-.06192.44878-.07606,1.66583-.07606,1.66583a19.03943,19.03943,0,0,1-1.05541,2.14093,6.99272,6.99272,0,0,0-.95128,1.39263,22.79314,22.79314,0,0,1-1.20571,2.11985c.50329-1.45406,2.95605-9.34478,2.95605-9.34478s-3.00864,7.51042-3.6002,8.49543c-.59348.98505-1.47052.71225-.9531,1.39254.51549.67984.22346,1.70622.95022,1.95881a11.03963,11.03963,0,0,1,1.156.46347l.53146-.60242c.508.6733,1.76918,2.35787,1.92034,2.66969.18875.39011-.54184.41126-.54184.41126l1.03666,1.58083c-.53328.6376-2.1992-2.8321-2.1992-2.8321s1.6537,3.866,2.61431,4.2604c.36616.65963.85541.422.85541.422l.9306-.12627.21039-.78356.56713-.43011.3803-.55732a19.89968,19.89968,0,0,0,.6855-2.03958,3.72228,3.72228,0,0,1,.80291-1.41323.98426.98426,0,0,1,.5803-.53009c.32674-.15866.7906-1.31323.7906-1.31323s.48925-1.35454.81512-1.51368c.3277-.15925-.33049,1.6813-.33049,1.6813l.57559-1.2414.39059-1.36819s.17751-1.29581.25924-1.894,0,0,.24126-.27232c.23952-.27135.3353-.97.60386-1.44042a6.86494,6.86494,0,0,0,.47232-1.9664c.06856-.49859.49953-2.16633.49953-2.16633l-.5352.94283c.07231-.209.18962-.74838.30049-1.2964.14644-.72675.28164-1.4681.28164-1.4681s-.36338,1.16907-.67608,1.22725c-.31366.05969-.21972-3.5852-.21972-3.5852s-.04605-.41174-.10327-.72494a17.68373,17.68373,0,0,1,.05914-1.92167,17.657,17.657,0,0,1,.6404-2.45132,6.91508,6.91508,0,0,1,.54934-1.04234l-.32674.15816a4.29159,4.29159,0,0,0,.69675-1.01647c.185-.45961-.355-1.47475-.355-1.47475l.69772.09529.78406.2081.41232-.04414a4.03588,4.03588,0,0,1,1.19061-.10894c.47616.06518,1.87245.499,1.87245.499a2.37813,2.37813,0,0,1-.7756-.64694c1.46581.229,3.2349.50472,3.464.53615.399.05444,5.30179,1.33533,5.6868,1.49073.385.154,3.9054,1.14465,3.9054,1.14465l-1.92506-.77186c-.55771-.38078,3.36173.66338,3.36173.66338l-3.99271-1.25781a7.81671,7.81671,0,0,1,1.01128.03712c.40011.05441,2.76364.58127,2.76364.58127l6.84827,2.665a2.2507,2.2507,0,0,0,1.1682.36435l.3578.353.45723.3677a7.46443,7.46443,0,0,0,1.21041.06337,9.28373,9.28373,0,0,1,1.695.23241C365.69006,90.4497,361.51235,89.06417,361.51235,89.06417ZM349.03171,49.99962l.50049-.37983-.38308,1.15686-.13059.32675-.25818-.22723ZM344.96852,63.386c.2526-.72733.37568-1.62554.68925-2.80017a3.125,3.125,0,0,1,.62165-.93205l-1.18032,4.02-.24136.15489-.03759.023C344.87092,63.68453,344.92159,63.52347,344.96852,63.386Zm-17.64531,22.417.55223-.33107-.04039.29866a.76794.76794,0,0,0,.13049.52577Zm-2.49968,21.98263.88646-.57049s.0676,1.0977.14184,1.71985Zm2.32506-2.91239s-.03.00135-.046.00327c.01971-.01827.04125-.039.06193-.05779Zm2.59267-11.37964c-.28731.32491-1.062,1.55312-1.062,1.55312l-.5427,3.0796s-.18126,3.97914-.571,4.16829-.09674-1.95457-.09674-1.95457-.56905,3.42229-.83569,4.57069c-.1352.01184-.2752.02394-.40944.03857a6.07557,6.07557,0,0,0-1.40571.62069s1.1935-2.78238,1.43485-3.0547c.24039-.27087.16145,1.03858.16145,1.03858a7.22442,7.22442,0,0,1,.45924-1.86677,6.03721,6.03721,0,0,0,.25914-1.89448l.169-.485s-.046-.41172.507-.74279a23.72133,23.72133,0,0,1,.59626-2.864c.3278-1.14656,1.30533-3.4096,1.61428-4.11481-.00288.0376-.00471.07508-.0076.11173L329.222,94.1875s.31077-.79629.709-1.60908A2.69755,2.69755,0,0,1,329.74126,93.49354Zm33.69047-3.37577c.22443-.00665.11644-.00337,0,0ZM367.57,50.27c.46482-.52155,1.986-1.83763,1.986-1.83763l-4.94582,3.28423A13.40838,13.40838,0,0,0,367.57,50.27Z"/><path class="a" d="M381.26579,81.957l-.28828.94657A7.0308,7.0308,0,0,0,381.26579,81.957ZM376.23353,70.03a.96135.96135,0,0,1,.19251.14136A2.36908,2.36908,0,0,0,376.23353,70.03Zm15.93622,8.47947,1.25926-1.81138s-1.72408,1.95879-2.618,2.779c-.89387.81981.33616-.78735.33616-.78735s-3.9129,4.06648-5.54871,5.414l2.88566-2.32928s-2.43584,2.28324-3.79367,3.25047c-1.35878.96811.3653-.99119.3653-.99119s-2.91479,2.53305-4.41156,3.69089a8.45838,8.45838,0,0,1-1.3635.77752c.24135-.27049.42164-.49772.55684-.67052.74-.9902.16154-.38212-1.05445.7409-.11741.10616-.24886.21884-.38127.33155-.50424.22067-1.05176.446-1.61889.66664a10.46772,10.46772,0,0,0,1.79544-1.83619,16.48379,16.48379,0,0,1-2.43959,2.08083q-.45505.169-.91089.32818a13.621,13.621,0,0,0,1.35965-.95118c.15876-.16385.3052-.33241.45357-.50051a12.30359,12.30359,0,0,0,3.97117-7.91232c-.19433.48318-.47982,1.11041-.78973,1.75322.00375-.18549.00288-.369.001-.54982a15.047,15.047,0,0,0,.601-4.11387,13.66106,13.66106,0,0,1-1.17378,3.18,17.08262,17.08262,0,0,1-1.45553,1.75784,11.77478,11.77478,0,0,0,1.11465-9.54,13.37079,13.37079,0,0,1-1.12493,8.71831,14.16363,14.16363,0,0,0,1.077-7.55164c.11827,2.37813-.34088,8.15733-5.19755,11.4834-4.65379,3.18759-7.03616-1.28081-7.07559-1.78226l-.00558.0296-.001-.00241.00558-.03.001.00281.00567-.0451c-2.06871-4.94774,1.78131-11.043,1.78131-11.043.15875-.18962.30712-.35117.45174-.5005-3.43317,4.48955-3.10913,11.66985-.047,13.72114,0,0-4.04156-3.52279-.877-11.12,2.89691-6.95672,6.94693-5.71351,7.93013-5.11726-.64415-.43569-2.90162-1.5808-5.83891,1.20437a8.51082,8.51082,0,0,1,3.19739-2.19169c2.20112-.83581,4.40974.17279,5.499,2.5443a4.66967,4.66967,0,0,0-6.32345-3.15655,5.062,5.062,0,0,1,6.68586,2.05181,11.65959,11.65959,0,0,1,.9606,8.13427c.74474-3.02038.65925-6.352-.97935-8.87525a5.21455,5.21455,0,0,0-4.77215-2.40151,5.26258,5.26258,0,0,1,3.14758.61319c4.2557,2.61565,3.54491,8.55543,3.5327,8.78976a33.10842,33.10842,0,0,1-.48078,3.76078,15.998,15.998,0,0,0,1.02253-7.43848c.663,3.14807-.14837,7.10982-.61877,8.89206l1.28648-4.21616c.69954-6.314-.1277-7.29347-2.18237-9.658-2.01977-2.50055-6.23325-2.91991-9.03151-1.30571a13.00883,13.00883,0,0,0-4.07819,3.57962c-3.45,4.343-5.19476,10.38895-3.21057,15.29062a10.09471,10.09471,0,0,0,.8958,2.18418,6.69718,6.69718,0,0,0,.7005.95649c-3.09125-3.0472-3.2199-7.59916-2.3194-11.51582a16.8415,16.8415,0,0,1,7.24559-10.39316c2.43767-1.76632,6.59288-2.28189,9.34892-.20849,3.67914,2.51334,4.729,6.76761,4.72052,10.62416a15.41492,15.41492,0,0,0-.046-4.75994,11.5356,11.5356,0,0,0-2.27621-5.40217,8.97458,8.97458,0,0,0-8.08879-3.33732c-7.007,1.06437-11.11531,6.81127-12.92854,12.46795a17.02706,17.02706,0,0,0-.36058,9.32737,9.497,9.497,0,0,0,7.81733,7.3756c.2151.02069.42165.031.62637.04126.03009.00991.05163.0202.08269.03056,0,0,4.7834,1.34187,13.88818-5.692,0,0,9.7847-7.154,14.446-15.59016C397.802,71.756,394.43654,76.61968,392.16975,78.50945Zm3.20682-5.29937a61.03282,61.03282,0,0,0,4.958-8.19024c.10712-.29249-3.19268,5.19707-4.37868,6.49856-1.185,1.30148-.74088.52817-.74088.52817l-.44415.77331-.016.10193-.64608.64413.1127.74137-2.33815,3.12645S394.57741,74.14529,395.37657,73.21008Zm-11.4533,10.17431c-.79349.72637-2.40017,2.60634-2.40017,2.60634s2.8621-2.78517-.34.76108c0,0,1.58514-1.45273,2.25843-2.2166a20.0454,20.0454,0,0,1,1.80948-1.70668l-.99628.55309,3.44058-3.47068S384.71483,82.65852,383.92327,83.38439Z"/><path class="a" d="M268.64339,55.96575s-.59723.7953-.34559,1.31514c.25261.51971-.816.04971-.72867-.585C267.65548,56.06055,268.64339,55.96575,268.64339,55.96575Z"/><polygon class="a" points="267.374 59.917 263.967 68.819 266.254 60.398 267.374 59.917"/><path class="a" d="M107.65011,78.83534a24.72288,24.72288,0,0,0-2.80488.03046,3.19649,3.19649,0,0,0-1.94515.75079s1.66822-.36807.3751.32772l-1.3883.53617,1.12685-.67512s-2.27246.96484-2.84017,1.2057c-.5681.24175-4.09464,1.66958-4.09464,1.66958l2.80864-1.25975-4.119,1.57,2.89546-1.294s-4.07165,1.52927-4.37166,1.62358a.865.865,0,0,1-.39722.00664l-7.84887,2.91048-1.34235-.223a.94816.94816,0,0,0-1.55831-.58222c-1.232.771-2.7847,1.81562-2.7847,1.81562s2.41661.401.91609,1.12915a2.83962,2.83962,0,0,1-2.73729-.12816l-4.343,1.23206-53.781,19.29177s-4.00165,1.94055-4.89658,1.79219a10.97273,10.97273,0,0,0-2.39689.03519l-1.14042,1.33109a4.07517,4.07517,0,0,0-1.14369.24415,3.6571,3.6571,0,0,1-2.0039-.11645,17.17746,17.17746,0,0,1-3.32375,3.9529c-1.73908,1.33946-1.84466,1.97332-2.40295,3.67153a9.104,9.104,0,0,0-.55492,2.51335l-.3977,1.562.27135.85879L1,125.52423s.69713-.04739.56521.74609c-.131.7907-.74935.362-.131.7907s2.12977,2.9593,3.072,3.92982c.94234.97146,6.60653,1.74888,7.48829.593.88224-1.15686,1.55033-1.86025,1.74005-1.34044.18972.52022.83483.79013,1.07426.17839.239-.6108,3.88472-1.79678,4.34022-2.04709.45491-.2498,7.30838-4.97359,7.30838-4.97359l-4.57917,2.6594s4.04213-2.74806,6.34508-4.15715c0,0-6.561,3.79608-7.60665,4.27312-1.04465.47788-.51031-.24751,2.56872-2.17816,1.16907-.73242,7.66156-4.31241,15.26389-8.47089a5.98562,5.98562,0,0,1-.99531,1.80474,13.54963,13.54963,0,0,0-1.96871,2.4368l.17135,1.32823c-.62492.22212.13712.34837.05779.82358a7.2621,7.2621,0,0,0-.01971,1.29773s.54463.25212,1.27945.53713c.73474.28453.66339,1.89869.66339,1.89869s-2.01092,14.46148-2.47007,14.87236c-.46021.41126-1.27388.601-1.21513,1.42446a13.81582,13.81582,0,0,1-.47232,2.84718s1.34561-2.21514,1.16157-1.10665c-.18356,1.10763-.664,2.81468-.664,2.81468a7.7687,7.7687,0,0,1-.22905,2.56451c-.34885.91741-1.47763,3.0068-2.12785,3.38614-.64886.38031-.50472,1.86774-.9907,2.4368-.486.56955-1.464.571-2.30343.91792a5.29631,5.29631,0,0,0-2.10111,3.22883,10.204,10.204,0,0,0,.12442,2.78422s.52588-3.165.801-2.4692c.27606.69635-.17087,3.38662.39962,3.48105l.4-1.23349s-.09818,1.772.42116,2.18285c.5178.41175-5.03139,23.22776-5.03139,23.22776s2.56123-8.355,2.65325-6.55115c.09115,1.80342-.03327,3.7331-1.09071,4.20831-1.05637.47557-.66338,2.81661-.66338,2.81661a34.9408,34.9408,0,0,1-1.54937,9.33487c-1.41841,3.82934-1.39917,2.53258-.44655-2.02458a53.97666,53.97666,0,0,0,1.077-6.48767s-1.18927,5.98161-1.19436,4.84205a19.90119,19.90119,0,0,1,.25587-2.72179s-1.60158,4.9384-1.81188,6.20275c-.20991,1.26533-.7231,6.708-.99166,7.15165a27.57124,27.57124,0,0,0-.65733,3.95618s1.33254-4.49331,1.97525-6.01307c.64377-1.51887,1.30013-.75924,1.62264-1.51985a10.16365,10.16365,0,0,1,1.47716-3.00585c.701-.69579,1.1484-3.38614,1.25311-4.01906s.99772-1.29821.99772-1.29821l.3479-.916-1.08359,5.34774,1.871-5.38015a4.45546,4.45546,0,0,1,.20328,2.31c-.32165.75925-1.52216,4.46138-2.44248,5.28486a18.39972,18.39972,0,0,1-.8005,2.46776l.12491-1.92968s-1.47052,4.14579-2.08746,5.50507c-.61646,1.36062-.68262-.6-.68262-.6l-3.87443,16.2649-.847,3.92519s1.97573-6.01362,2.00862-5.03321a15.261,15.261,0,0,1-.20386,2.40767s.717-3.13635,1.41841-3.82935a3.06525,3.06525,0,0,0,1.20715-2.56546,68.30845,68.30845,0,0,1,1.85928-7.65876s.53146,2.69036-.11221,4.20876l-.36809,2.21612s1.155-2.24708,1.50245-3.1645c.34885-.9184.96531-2.27815,1.04464-2.75326.07846-.47511,1.50995-2.02593,1.58889-2.50016.07885-.47511,2.42219-8.702,2.42219-8.702l-.94513,5.69517s3.16548-11.99369,3.85473-14.9686c.68877-2.9743,5.522-22.65689,5.522-22.65689s2.43487-1.70995,2.59267-2.65882l.70934-4.27251a4.09272,4.09272,0,0,0-.1699-1.32879l.45828-.41175a26.056,26.056,0,0,1-.86676-2.53775L42.62242,142.74l-1.1433,9.24s3.00681-11.04338,3.48567-12.75294c.29251-1.04272,1.16446-3.38048,1.995-5.41909-.52347,2.78748-1.11647,5.93-1.11647,5.93l1.61745-5.19851s-1.61745,5.19851-2.11237,7.53243c-.4953,2.333-1.58831,7.61885-1.58831,7.61885l1.0381-3.00585s-1.07522,4.52512-.909,4.17252c.16616-.353,2.6945-9.08832,2.6945-9.08832s-1.56014,3.55558-1.74707,4.03261c-.18732.47615,1.34427-5.49842,2.73354-9.97249.96339-3.10345,2.15833-6.04257,2.80065-7.554l.10183.1606.14039.09673-.29578,1.7761.578-1.57938.07654.054-.83483,3.91156s.66675-2.5396,1.08974-3.735l.28318.1977c-.39116,2.65182-2.62411,11.72188-2.62411,11.72188l3.19028-10.42088.01039.03424s1.77985-3.88472,2.19448-5.17169c-.21837.98081-.73762,3.46222-.73762,3.46222s1.68794-4.27214,2.38373-6.10749c.69626-1.83571,1.96957-2.43717,1.71985-3.29171-.24837-.855,1.72736-6.86664,1.93765-8.1334a16.54045,16.54045,0,0,1,1.12263-3.227,3.822,3.822,0,0,1-.52492-1.55072c.07885-.47424-1.00339.15962-1.87707-.47377a2.53816,2.53816,0,0,0-1.41889-.51741c5.47823-2.97625,9.39681-5.10033,9.39681-5.10033a26.213,26.213,0,0,1-3.91146,1.81745l2.59921-1.315s-2.23026,1.00147-2.13862.76808l.98685-.52309s-.34087-.18078.17328-.407c.51463-.22866,3.53635-1.53765,3.53635-1.53765l-2.84614,1.52639a19.93435,19.93435,0,0,1,3.06259-1.24c-.09155.23385-.95445.65356-.95445.65356s4.47118-2.06908,5.72477-2.61045A12.44254,12.44254,0,0,1,76.689,96.14014a6.87863,6.87863,0,0,0,3.35894-1.39628,2.7032,2.7032,0,0,1,1.71552-.36712l1.03532-.69589.716.11933.1752-1.056.93051-.06385c.28414-.60426,16.6096-8.09676,16.6096-8.09676s3.39317-1.60668,4.21435-2.12218l2.82219-1.48515s-.58165.1775-.01077-.30519l.95176-.66809-.72213.12864.95166-.669-.96618.3348,2.08034-1.14146A10.52643,10.52643,0,0,1,107.65011,78.83534ZM22.11588,108.57058s11.46975-4.28289,16.24094-5.87834C38.35682,102.69224,23.88689,108.42875,22.11588,108.57058Zm18.25378,39.48613a25.3236,25.3236,0,0,1,1.11648-4.36734l-1.224,8.21975A15.02588,15.02588,0,0,1,40.36966,148.05671ZM97.95705,85.7935c-1.83159.84417-11.1482,5.23228-11.244,5.351l-.52068.20145c.20279-.1728-.50473.13616-.65964.207.28924-.146,3.67953-2.00622,3.67953-2.00622l-.38588.36626,3.02884-1.36629-.8733.32579-.08923.0902-.03471-.04415-.60387.22492.50386-.34743.1.12251.12394-.046.15539-.15721s.82022-.5358,1.04042-.64233c.22068-.107,1.64937-.63713,1.64937-.63713l-.81224.4878c.508-.12068,3.96319-1.68505,4.94216-2.13017.12443-.05633.21453-.09855.2652-.1202C98.22225,85.6733,98.11994,85.72024,97.95705,85.7935Zm41.66137-17.64385-6.30508,1.77659,8.25782-3.14384-3.94068,1.1583s-7.29713,1.73715-9.47152,2.07381c-.06337.00991-.11923.0226-.18164.03241a.9259.9259,0,0,1-.14135-.06943l-.34366-.12962-.54088.4155a7.0452,7.0452,0,0,0-3.06644,1.64l-.02394.00182-.22578-.10933-.36722.01077s-.30654.38032-.49626.42069c-.18972.04088-.12914.41078-.307.38127a4.66969,4.66969,0,0,0-1.02964.33194,6.18317,6.18317,0,0,1,1.51042-.26012,13.38417,13.38417,0,0,1-1.19686.68309c-.61453.13906-1.21272.21886-1.21272.21886l.41972.17607c-2.78469,1.33762-6.72577,2.83066-6.72577,2.83066s5.51679-1.57283,4.14493-.78408a72.04928,72.04928,0,0,1-7.27424,2.65606l7.48549-2.149s7.48925-2.02025,9.26488-2.44939a16.67521,16.67521,0,0,0,1.9814-.71416l6.24354-2.16256-2.39824.47886c1.56534-.716,2.81239-1.3109,2.81239-1.3109s-4.72052,1.62974-3.942,1.03011C133.32882,70.58172,139.61842,68.14965,139.61842,68.14965Z"/></svg>