<svg xmlns="http://www.w3.org/2000/svg" viewBox="0 0 200 50"><defs><style>.a{fill:#008650;}</style></defs><title>アートボード 1</title><path class="a" d="M13.3,6.3a6.44772,6.44772,0,0,1-.3,2,3.80512,3.80512,0,0,1-.8,1.7,4.14555,4.14555,0,0,1-1.1,1.2,2.00984,2.00984,0,0,1-1.3.4,2.00984,2.00984,0,0,1-1.3-.4A4.26284,4.26284,0,0,1,7.4,10c-.1-.5-.4-1.1-.5-1.7a6.92919,6.92919,0,0,1-.3-2,6.44772,6.44772,0,0,1,.3-2,4.84188,4.84188,0,0,1,.7-1.8A4.26284,4.26284,0,0,1,8.7,1.3,2.8361,2.8361,0,0,1,10,.9a2.00984,2.00984,0,0,1,1.3.4,6.342,6.342,0,0,1,1,1.2A5.09367,5.09367,0,0,1,13,4.2,7.61252,7.61252,0,0,1,13.3,6.3Z"/><path class="a" d="M40.3,10.3a2.09689,2.09689,0,0,1,1.1.8,3.69417,3.69417,0,0,1,.7,1.4,11.019,11.019,0,0,1,.2,1.8,6.46533,6.46533,0,0,1-.4,2,5.076,5.076,0,0,1-.9,1.8,5.7062,5.7062,0,0,1-1.3,1.4,6.37578,6.37578,0,0,1-1.4.8,3.29505,3.29505,0,0,1-1.4,0,2.09683,2.09683,0,0,1-1.1-.8,3.69434,3.69434,0,0,1-.7-1.4,11.02012,11.02012,0,0,1-.2-1.8,6.465,6.465,0,0,1,.4-2,5.076,5.076,0,0,1,.9-1.8,5.7062,5.7062,0,0,1,1.3-1.4,6.37578,6.37578,0,0,1,1.4-.8A3.295,3.295,0,0,1,40.3,10.3Z"/><path class="a" d="M2.8,18.3C-1.4,23.9,4.5,41,8.1,45s13.4-2.5,14.1-4.8S13,35.4,13,32.9,28.4,20,27.9,17.7C27.4,15.5,7.6,11.8,2.8,18.3Z"/><path class="a" d="M44.3,28.5c2.4,5-4.7,17.6-8.1,20.2s-10.1-4-10.3-5.9,7.9-2.3,8.3-4.3-10.1-12.4-9.5-14S41.5,22.6,44.3,28.5Z"/><path class="a" d="M196.1,26.8H185.5V13.3a3.32929,3.32929,0,0,0-3.3-3.3h-.5a3.3293,3.3293,0,0,0-3.3,3.3V45.5a3.3293,3.3293,0,0,0,3.3,3.3h.5a3.32929,3.32929,0,0,0,3.3-3.3V34h10.6a3.32929,3.32929,0,0,0,3.3-3.3v-.5a3.32878,3.32878,0,0,0-3.2-3.4Z"/><path class="a" d="M77.2,9.7H75.8a2.90209,2.90209,0,0,0-2.9,2.9v4.7H64.8a2.90209,2.90209,0,0,0-2.9,2.9v1.4a2.90209,2.90209,0,0,0,2.9,2.9H73v7.2H64.9A2.90208,2.90208,0,0,0,62,34.6V36a2.90208,2.90208,0,0,0,2.9,2.9H73v6.8a2.90208,2.90208,0,0,0,2.9,2.9h1.4a2.90208,2.90208,0,0,0,2.9-2.9V38.9h8.1A2.90208,2.90208,0,0,0,91.2,36V34.6a2.90208,2.90208,0,0,0-2.9-2.9H80.2V24.5h8.1a2.90208,2.90208,0,0,0,2.9-2.9V20.2a2.90208,2.90208,0,0,0-2.9-2.9H80.2V12.6A3.0575,3.0575,0,0,0,77.2,9.7Z"/><path class="a" d="M130,18.8a3.6,3.6,0,1,1,3.6-3.6A3.71829,3.71829,0,0,1,130,18.8Zm-.2-13a9.59389,9.59389,0,0,0-8.4,5.6,9.36171,9.36171,0,0,0-.7,5.7.21507.21507,0,0,1-.2.2h-1.3V13A3.24437,3.24437,0,0,0,116,9.7h-.7a3.24437,3.24437,0,0,0-3.3,3.2v4.5h-6.9a3.37194,3.37194,0,0,0-3.4,3.4v.4a3.37194,3.37194,0,0,0,3.4,3.4H112V44.5a3.03123,3.03123,0,0,0,3,3.1h1.1a3.03123,3.03123,0,0,0,3.1-3V24.5h10.6a9.38911,9.38911,0,0,0,9.4-9.4,9.24232,9.24232,0,0,0-9.4-9.3Z"/><path class="a" d="M161,27.9a19.92206,19.92206,0,0,1-7.8,13,3.24892,3.24892,0,0,0-.7,4.3l.7.9a3.24894,3.24894,0,0,0,4.3.7,27.35745,27.35745,0,0,0,10.6-17.7l.4-2.2a2.93959,2.93959,0,0,0-2.4-3.4h-.2l-1.1-.2a2.93957,2.93957,0,0,0-3.4,2.4v.2Z"/><path class="a" d="M101.2,34.2a12.82369,12.82369,0,0,1-2.1,7.1,2.76631,2.76631,0,0,0,.4,3.6l1.2,1.1a2.71687,2.71687,0,0,0,3.9-.1c.1-.1.2-.2.2-.3a20.02758,20.02758,0,0,0,3.6-11.4V34a2.86162,2.86162,0,0,0-2.8-2.8H104a2.86162,2.86162,0,0,0-2.8,2.8v.2Z"/><path class="a" d="M128.2,31.2h-1.7a2.60572,2.60572,0,0,0-2.7,2.6v.3a20.215,20.215,0,0,0,3.4,11.2,2.9,2.9,0,0,0,4,.8.78073.78073,0,0,0,.4-.4l.9-.9a3.02676,3.02676,0,0,0,.4-3.8,11.6729,11.6729,0,0,1-2-7v-.2A2.66915,2.66915,0,0,0,128.2,31.2Z"/><path class="a" d="M141.9,32.1l-.9-3.6a3.30219,3.30219,0,0,1,2.3-4h0l.7-.2a3.30218,3.30218,0,0,1,4,2.3h0l.9,3.6a3.30218,3.30218,0,0,1-2.3,4h0l-.7.2A3.33738,3.33738,0,0,1,141.9,32.1Z"/><path class="a" d="M150.9,29.7l-.9-3.6a3.30219,3.30219,0,0,1,2.3-4h0l.7-.1a3.30218,3.30218,0,0,1,4,2.3h0l.9,3.6a3.30218,3.30218,0,0,1-2.3,4h0l-.7.2a3.271,3.271,0,0,1-4-2.4Z"/></svg>