<svg xmlns="http://www.w3.org/2000/svg" width="70.769" height="78.764" viewBox="0 0 70.769 78.764"><ellipse cx="5.493" cy="8.691" rx="5.493" ry="8.691" transform="translate(8.564)" fill="#008650"/><ellipse cx="8.691" cy="5.493" rx="8.691" ry="5.493" transform="matrix(0.314, -0.95, 0.95, 0.314, 52.885, 30.126)" fill="#008650"/><path d="M2.287,33.275c-6.8,9.183,2.87,37.058,8.691,43.453s21.891-4.1,23.038-7.953-15-7.707-15-11.888S44.019,36.063,43.281,32.374,10.24,22.535,2.287,33.275Z" transform="translate(0.046 -4.908)" fill="#008650"/><path d="M78.245,52.951c3.935,8.2-7.707,28.7-13.282,32.877C59.47,90.009,48.4,79.351,48.074,76.153S61.028,72.382,61.6,69.02c.656-3.279-16.561-20.087-15.414-22.874S73.654,43.359,78.245,52.951Z" transform="translate(-8.272 -8.022)" fill="#008650"/></svg>