<svg xmlns="http://www.w3.org/2000/svg" width="202.866" height="49.497" viewBox="0 0 202.866 49.497"><g transform="translate(0.046)"><g transform="translate(-0.046 0)"><ellipse cx="3.452" cy="5.461" rx="3.452" ry="5.461" transform="translate(5.382)" fill="#008650"/><ellipse cx="5.461" cy="3.452" rx="5.461" ry="3.452" transform="matrix(0.314, -0.95, 0.95, 0.314, 33.234, 18.932)" fill="#008650"/><path d="M1.42,31.035c-4.276,5.77,1.8,23.288,5.461,27.307s13.756-2.576,14.478-5-9.429-4.843-9.429-7.471S27.645,32.787,27.181,30.469,6.418,24.286,1.42,31.035Z" transform="translate(0.046 -13.209)" fill="#008650"/><path d="M66.313,49.824c2.473,5.152-4.843,18.033-8.347,20.66-3.452,2.628-10.407-4.07-10.614-6.08s8.14-2.37,8.5-4.482c.412-2.061-10.407-12.623-9.686-14.375S63.427,43.8,66.313,49.824Z" transform="translate(-22.341 -21.59)" fill="#008650"/></g><g transform="translate(62.062 4.997)"><path d="M369.939,35.211H359.016V21.3a3.431,3.431,0,0,0-3.4-3.4H355.1a3.431,3.431,0,0,0-3.4,3.4V54.274a3.431,3.431,0,0,0,3.4,3.4h.515a3.431,3.431,0,0,0,3.4-3.4V42.527h10.923a3.431,3.431,0,0,0,3.4-3.4v-.515A3.365,3.365,0,0,0,369.939,35.211Z" transform="translate(-232.581 -13.675)" fill="#008650"/><path d="M136.111,17.5h-1.34a2.99,2.99,0,0,0-2.988,2.988v4.843h-8.3A2.99,2.99,0,0,0,120.5,28.32v1.34a2.99,2.99,0,0,0,2.988,2.988h8.3v7.368h-8.3A2.99,2.99,0,0,0,120.5,43v1.34a2.99,2.99,0,0,0,2.988,2.988h8.3v6.955a2.99,2.99,0,0,0,2.988,2.988h1.34a2.99,2.99,0,0,0,2.988-2.988V47.331h8.3a2.99,2.99,0,0,0,2.988-2.988V43a2.99,2.99,0,0,0-2.988-2.988h-8.3V32.647h8.3a2.99,2.99,0,0,0,2.988-2.988V28.32a2.99,2.99,0,0,0-2.988-2.988h-8.3V20.488A2.99,2.99,0,0,0,136.111,17.5Z" transform="translate(-120.5 -13.481)" fill="#008650"/><path d="M228.543,9.7a9.721,9.721,0,0,0-8.6,5.77,9.2,9.2,0,0,0-.67,5.873c0,.1-.052.206-.155.206h-1.288V17.067a3.342,3.342,0,0,0-3.349-3.349h-.618a3.342,3.342,0,0,0-3.349,3.349V21.55h-7.059A3.452,3.452,0,0,0,200,25v.412a3.452,3.452,0,0,0,3.452,3.452h7.059v20.4a3.123,3.123,0,0,0,3.143,3.143h.979a3.123,3.123,0,0,0,3.143-3.143v-20.4h10.871a9.583,9.583,0,1,0-.1-19.166Zm.1,13.293a3.71,3.71,0,1,1,3.71-3.71A3.694,3.694,0,0,1,228.646,22.992Z" transform="translate(-159.04 -9.699)" fill="#008650"/><path d="M308.7,49.11A20.36,20.36,0,0,1,300.717,62.4h0a3.116,3.116,0,0,0-.67,4.328l.67.927a3.116,3.116,0,0,0,4.328.67h0a27.852,27.852,0,0,0,10.923-18.084l.361-2.318a3.085,3.085,0,0,0-2.576-3.5l-1.134-.155a3.085,3.085,0,0,0-3.5,2.576Z" transform="translate(-207.256 -26.44)" fill="#008650"/><path d="M196,63.188a13.215,13.215,0,0,1-2.164,7.265,2.891,2.891,0,0,0,.361,3.658l1.185,1.133a2.825,2.825,0,0,0,4.276-.412,20.387,20.387,0,0,0,3.658-11.644v-.155a2.859,2.859,0,0,0-2.834-2.834h-1.649A2.859,2.859,0,0,0,196,63.034Z" transform="translate(-155.815 -34.181)" fill="#008650"/><path d="M247.885,60.2h-1.8a2.771,2.771,0,0,0-2.782,2.782v.206a20.416,20.416,0,0,0,3.5,11.489,2.962,2.962,0,0,0,4.534.412l.927-.927a3.047,3.047,0,0,0,.412-3.864,12.955,12.955,0,0,1-2.112-7.162v-.206A2.672,2.672,0,0,0,247.885,60.2Z" transform="translate(-180.031 -34.181)" fill="#008650"/><path d="M278.326,54.282l-.927-3.71a3.312,3.312,0,0,1,2.37-4.019l.721-.155a3.312,3.312,0,0,1,4.019,2.37l.927,3.71a3.312,3.312,0,0,1-2.37,4.019l-.721.155A3.272,3.272,0,0,1,278.326,54.282Z" transform="translate(-196.509 -27.438)" fill="#008650"/><path d="M296.226,49.782l-.927-3.71a3.312,3.312,0,0,1,2.37-4.019l.721-.155a3.312,3.312,0,0,1,4.019,2.37l.927,3.71A3.312,3.312,0,0,1,300.966,52l-.721.155A3.312,3.312,0,0,1,296.226,49.782Z" transform="translate(-205.187 -25.257)" fill="#008650"/></g></g></svg>