<svg xmlns="http://www.w3.org/2000/svg" viewBox="0 0 322 115"><defs><style>.a{fill:#008650;}.b{isolation:isolate;}</style></defs><title>mv_copy</title><path class="a" d="M12.77512,5.05569a6.30564,6.30564,0,0,1-.24849,1.73945A4.09317,4.09317,0,0,1,11.864,8.28609a3.53127,3.53127,0,0,1-.91114.994,1.6648,1.6648,0,0,1-1.0768.33132,1.66476,1.66476,0,0,1-1.0768-.33132,3.53112,3.53112,0,0,1-.91114-.994,4.09317,4.09317,0,0,1-.66264-1.49095A5.88615,5.88615,0,0,1,6.977,5.05569a6.30523,6.30523,0,0,1,.2485-1.73945,4.09317,4.09317,0,0,1,.66264-1.49095,3.53112,3.53112,0,0,1,.91114-.994A1.82194,1.82194,0,0,1,9.87605.5a1.6648,1.6648,0,0,1,1.0768.33132,3.53127,3.53127,0,0,1,.91114.994,6.21538,6.21538,0,0,1,.66264,1.491A6.30559,6.30559,0,0,1,12.77512,5.05569Z"/><path class="a" d="M35.8849,8.53458a1.73682,1.73682,0,0,1,.91113.66265,2.882,2.882,0,0,1,.57982,1.24246,9.17429,9.17429,0,0,1,.16566,1.57378,6.45187,6.45187,0,0,1-.33132,1.73945,5.494,5.494,0,0,1-.74548,1.57378,5.29351,5.29351,0,0,1-1.0768,1.24246,5.76392,5.76392,0,0,1-1.15963.66265,2.7293,2.7293,0,0,1-1.15963,0,1.73692,1.73692,0,0,1-.91114-.66265,2.88218,2.88218,0,0,1-.57982-1.24246,9.1744,9.1744,0,0,1-.16566-1.57378,6.4515,6.4515,0,0,1,.33133-1.73945,5.4935,5.4935,0,0,1,.74547-1.57378,5.29331,5.29331,0,0,1,1.0768-1.24246,5.76371,5.76371,0,0,1,1.15963-.66265A2.72935,2.72935,0,0,1,35.8849,8.53458Z"/><path class="a" d="M3.74658,15.40953C.18485,20.21371,5.23753,34.87475,8.30226,38.27081s11.51348-2.1536,12.09329-4.14154-7.86892-4.0587-7.86892-6.2123S25.69672,16.90048,25.28256,14.91255C24.86841,13.00744,7.88811,9.777,3.74658,15.40953Z"/><path class="a" d="M39.281,24.10676c2.07077,4.3072-4.05871,15.07519-6.95778,17.31162s-8.69723-3.39606-8.86289-5.05267,6.79212-1.98794,7.12344-3.72739S21.88651,22.036,22.46632,20.62787,36.87887,19.05408,39.281,24.10676Z"/><g class="b"><g class="b"><path class="a" d="M52.832,61.6333V69.79c0,1.31738-.981,2.01855-2.88721,2.01855a1.07854,1.07854,0,0,0-.86865-1.03711,20.90857,20.90857,0,0,0-3.22363-.70117V69.398c2.13037.1958,3.58789.28027,4.40088.28027.64453,0,.981-.28027.981-.813V61.6333H40.751l-.22412-.64453H51.12207V56.47559a9.61416,9.61416,0,0,1,1.28955.14013,32.48018,32.48018,0,0,0,4.457-3.78369H43.91846l-.25244-.645H56.86865l1.14893-1.28955c1.26123,1.00928,1.93408,1.68213,1.93408,1.99024,0,.1123-.11182.2246-.36426.28027l-.897.25244a49.48231,49.48231,0,0,1-5.354,3.3916c.25244.11231.39257.22412.39257.33643,0,.16845-.33642.39258-1.00927.64453v3.1958h7.09179l1.48584-1.8501a14.10937,14.10937,0,0,1,1.87793,1.96192l-.30859.53271Z"/><path class="a" d="M85.25781,68.80908c-1.51367.16846-3.98047.25244-5.88672.25244-1.90576-.02832-3.86816-.42041-4.68066-1.42968a3.06814,3.06814,0,0,1-.14014-3.56006,8.46468,8.46468,0,0,1,2.83106-2.57862,2.41,2.41,0,0,1-1.20557-1.5415,14.64886,14.64886,0,0,1,.14014-3.25146c.084-1.00928.19629-2.10254.22412-2.91553a3.53645,3.53645,0,0,0-.39209-1.87793c-.25244-.33643-.50488-.75684-.39258-1.00928.22412-.44824.813-.14014,1.17725.16846a5.37425,5.37425,0,0,1,1.17724,1.59765,2.90565,2.90565,0,0,1-.05615,1.82178,17.38627,17.38627,0,0,0-.58838,2.38281,26.65483,26.65483,0,0,0-.30859,3.0835,1.64819,1.64819,0,0,0,.6167,1.28906c1.65381-1.00879,3.56006-1.93408,5.21386-2.7749.44825-.252.28028-.813,0-1.17725-.28027-.33642.084-.58837.53272-.53271a2.38836,2.38836,0,0,1,1.14893.561c.47656.39209.92529,1.51319.02832,1.93409-3.7002,1.73779-6.19483,2.74658-8.01661,4.064-1.76611,1.26172-2.0747,2.60694-1.14941,3.644a5.35252,5.35252,0,0,0,3.812,1.12159,14.71514,14.71514,0,0,0,3.98047-.561c.897-.3081,2.52246-.47656,2.97119.22461C86.71533,68.4165,86.04248,68.7251,85.25781,68.80908Zm.6167-12.249a9.28961,9.28961,0,0,0-1.59765-1.28955c-.25245-.14014-.36475-.36426-.25245-.56055.084-.1123.33643-.1123.47657-.084a4.98794,4.98794,0,0,1,1.5415.3081,3.59265,3.59265,0,0,1,1.65381,1.14942.64349.64349,0,0,1-.39258,1.00879A1.66075,1.66075,0,0,1,85.87451,56.56006Zm2.21436-1.14942a3.91515,3.91515,0,0,0-1.71-1.17724c-.25245-.11231-.36426-.33643-.25245-.53272.08448-.11181.33643-.11181.44874-.11181a4.8957,4.8957,0,0,1,1.56982.28027,3.22055,3.22055,0,0,1,1.70947,1.03711.65725.65725,0,0,1-.33594,1.03711A1.56493,1.56493,0,0,1,88.08887,55.41064Z"/><path class="a" d="M114.62793,65.75391a4.62151,4.62151,0,0,1-1.00879,2.999A6.73638,6.73638,0,0,1,110.5918,70.687a8.23126,8.23126,0,0,1-3.98047.22461,4.53345,4.53345,0,0,1-3.13916-2.01855,7.609,7.609,0,0,1-.75684-4.17627c0-.33643.02783-.70069.05567-1.03711-.11182-.05615-.22412-.14014-.33594-.19629-.84131-.5044-1.2334-.897-1.2334-1.51367a1.93633,1.93633,0,0,1,.897-1.51368c.28028-.22412.67237-.50439,1.14893-.84082.19629-1.0371.33642-1.82226.47656-2.43847-.168-.05615-.3081-.14063-.50439-.19629a2.87732,2.87732,0,0,1-1.59766-1.28955c-.33643-.6167-.36426-1.26123-.14014-1.31738.44825-.16846.67286.36425,1.09327.72851a4.11838,4.11838,0,0,0,1.45751.67285,6.61952,6.61952,0,0,0,.19629-.897,13.611,13.611,0,0,0,.30811-1.5415A3.349,3.349,0,0,0,104.481,52.019a2.92827,2.92827,0,0,0-.58838-1.03711c-.25244-.25244-.39258-.47656-.28028-.67285.11182-.19629.39209-.25244.78467-.14013a4.267,4.267,0,0,1,1.59766.981c.47656.47656.36426,1.34571,0,2.49463-.19629.67285-.47656,1.56983-.70068,2.41065a11.56433,11.56433,0,0,0,1.37353.16845c.813.05567,1.34522.28028,1.51367.72852a1.04364,1.04364,0,0,1-.58886,1.26172A25.31262,25.31262,0,0,1,105.21,59.44678c-.25244.1123-.50488.22461-.729.33642q-.16773.88331-.252,1.76612c-.05615.39257-.1123.72851-.16845,1.09326a8.45018,8.45018,0,0,0,2.43847.36426,1.90669,1.90669,0,0,1,1.31787.22412c.33594.19629.6167.70068.5044.95312-.084.25244-.36426.39258-.92481.44873a8.50553,8.50553,0,0,1-2.71923-.22461c-.22413-.05566-.47657-.14013-.70069-.19629a9.53354,9.53354,0,0,0,0,1.26172,4.23153,4.23153,0,0,0,1.65381,3.50391,5.46855,5.46855,0,0,0,4.76514.33594,3.59441,3.59441,0,0,0,2.46679-3.22315,6.24679,6.24679,0,0,0-.729-3.47607,7.47494,7.47494,0,0,0-1.90576-2.38233,9.54416,9.54416,0,0,0-1.40186-.98095c-.252-.11231-.44824-.28028-.33642-.47657.05615-.14013.33642-.14013.53271-.05615a6.598,6.598,0,0,1,1.45752.75684,11.31527,11.31527,0,0,1,3.05518,2.6626A6.333,6.333,0,0,1,114.62793,65.75391ZM102.93945,62.082a12.60078,12.60078,0,0,1,.19629-1.56982c-.1123.05615-.19629.14013-.30859.19629-.56055.33642-.6167.72851-.28027,1.06494A3.80026,3.80026,0,0,0,102.93945,62.082Zm1.99024-4.625a.40275.40275,0,0,1-.05615.168c-.11231.33643-.16846.729-.25245,1.09326a10.83122,10.83122,0,0,0,1.03711-.645c.28028-.1958.42041-.58838-.36425-.61621Z"/><path class="a" d="M145.624,59.72705a10.77013,10.77013,0,0,1-.36425,3.86865,6.20981,6.20981,0,0,1-2.71875,3.53174,12.97073,12.97073,0,0,1-4.625,1.68164,12.05527,12.05527,0,0,1-4.51319.02783c-.28027-.02783-.42041-.14013-.39209-.28027,0-.14014.168-.252.39209-.22412a13.57782,13.57782,0,0,0,1.48584.084,13.91405,13.91405,0,0,0,3.36377-.47607,12.34418,12.34418,0,0,0,3.41944-1.65381,6.379,6.379,0,0,0,2.41064-3.98047,9.89718,9.89718,0,0,0-.36426-4.625,5.85439,5.85439,0,0,0-2.4668-3.47607A7.93121,7.93121,0,0,0,136.374,53.168c-.22412.02832-.47656.08447-.72851.1123.05615.56055.05615,1.45752.084,2.15821a18.54957,18.54957,0,0,1-.42041,3.84033,12.41351,12.41351,0,0,1-1.9624,4.9331c-1.06494,1.40186-2.35449,2.355-3.67188,2.355a3.09269,3.09269,0,0,1-2.85888-2.13037,6.0466,6.0466,0,0,1-.36475-4.17675,8.44856,8.44856,0,0,1,1.87842-3.896,11.8903,11.8903,0,0,1,3.58789-2.94336,11.47706,11.47706,0,0,1,5.29736-1.2334,8.84006,8.84006,0,0,1,4.457,1.17725,8.21077,8.21077,0,0,1,2.94335,2.94336A7.45935,7.45935,0,0,1,145.624,59.72705Zm-10.81933-6.25049a11.28107,11.28107,0,0,0-3.53223,1.62549,9.38239,9.38239,0,0,0-3.33545,4.12061,6.68344,6.68344,0,0,0-.22412,4.26074c.39209.95312,1.34522,1.14941,2.4668.78467a4.981,4.981,0,0,0,2.83105-2.29834,10.8029,10.8029,0,0,0,1.62549-4.5127A20.13047,20.13047,0,0,0,134.80469,53.47656Z"/><path class="a" d="M163.05371,59.83936V55.1582h-8.10107l-.30811-.64453h8.40918V49.72021c1.76563.14014,2.6626.36475,2.6626.67286,0,.22412-.39209.47656-1.14893.75683v3.36377h5.38184l1.2334-1.71a17.08623,17.08623,0,0,1,1.51367,1.59766l.22412.25244-.28027.50439h-8.07276v4.68116h7.06348l1.42969-1.794a10.757,10.757,0,0,1,1.82177,1.93408l-.3081.5044h-9.75488a27.066,27.066,0,0,0,10.42773,7.98877,5.08471,5.08471,0,0,0-1.31787,1.48584,25.37987,25.37987,0,0,1-9.36182-8.66162V72.00439h-1.51367V62.166a26.6645,26.6645,0,0,1-9.95068,8.60546l-.42041-.561a27.60966,27.60966,0,0,0,9.64209-9.72656h-8.99756l-.3086-.64453Z"/><path class="a" d="M191.023,61.269V54.17725h-8.77344l-.28027-.6167H191.023V49.356q2.60668.08422,2.60693.67285c0,.19629-.36426.44824-1.09326.70068v2.83106h6.61524l1.26123-1.65381a10.18538,10.18538,0,0,1,1.71,1.76611l-.3086.5044h-9.27783V61.269h7.90479l1.28906-1.68213a15.68425,15.68425,0,0,1,1.82226,1.82227l-.30859.50439h-10.4834l.16846.16846a26.6851,26.6851,0,0,0,10.53906,6.39063,4.49107,4.49107,0,0,0-1.26123,1.59765,26.94749,26.94749,0,0,1-9.67041-7.3999v9.334H191.023V63.42725a24.827,24.827,0,0,1-10.231,7.00781l-.33642-.56055a25.31776,25.31776,0,0,0,9.81054-7.96094h-9.50244l-.28027-.64453ZM184.604,55.18652c2.29834,1.28907,3.44776,2.69092,3.44776,4.09229,0,.70068-.28028,1.00928-.92481,1.00928-.39257,0-.645-.3086-.84131-.98145a9.38613,9.38613,0,0,0-2.04589-3.75586Zm10.09082,5.10157a25.8163,25.8163,0,0,0,2.24268-5.5503c1.5415.58887,2.29834,1.03711,2.29834,1.37354,0,.22412-.36426.33642-1.09326.39258a22.41255,22.41255,0,0,1-2.88721,4.09228Z"/><path class="a" d="M229.69922,59.72705a10.77012,10.77012,0,0,1-.36426,3.86865,6.20981,6.20981,0,0,1-2.71875,3.53174,12.97073,12.97073,0,0,1-4.625,1.68164,12.05521,12.05521,0,0,1-4.51318.02783c-.28028-.02783-.42041-.14013-.39209-.28027,0-.14014.168-.252.39209-.22412a13.57782,13.57782,0,0,0,1.48584.084,13.91405,13.91405,0,0,0,3.36377-.47607,12.344,12.344,0,0,0,3.41943-1.65381,6.379,6.379,0,0,0,2.41064-3.98047,9.897,9.897,0,0,0-.36425-4.625,5.85444,5.85444,0,0,0-2.4668-3.47607,7.93124,7.93124,0,0,0-4.87744-1.03711c-.22412.02832-.47656.08447-.72852.1123.05616.56055.05616,1.45752.084,2.15821a18.55026,18.55026,0,0,1-.42041,3.84033,12.4138,12.4138,0,0,1-1.9624,4.9331c-1.06495,1.40186-2.3545,2.355-3.67188,2.355a3.0927,3.0927,0,0,1-2.85889-2.13037,6.0466,6.0466,0,0,1-.36474-4.17675,8.44846,8.44846,0,0,1,1.87842-3.896,11.89017,11.89017,0,0,1,3.58789-2.94336A11.477,11.477,0,0,1,221.29,52.187a8.84,8.84,0,0,1,4.457,1.17725,8.21088,8.21088,0,0,1,2.94336,2.94336A7.45947,7.45947,0,0,1,229.69922,59.72705Zm-10.81934-6.25049a11.281,11.281,0,0,0-3.53222,1.62549,9.38226,9.38226,0,0,0-3.33545,4.12061,6.68344,6.68344,0,0,0-.22412,4.26074c.39209.95312,1.34521,1.14941,2.46679.78467a4.981,4.981,0,0,0,2.83106-2.29834,10.803,10.803,0,0,0,1.62549-4.5127A20.12962,20.12962,0,0,0,218.87988,53.47656Z"/><path class="a" d="M242.58789,60.65234A27.78362,27.78362,0,0,0,243.625,57.709c-.36426.02832-.729.05616-1.03711.05616a6.78056,6.78056,0,0,1-2.55078-.33643c-.53272-.22412-.67285-.75683-.5044-.95312.11182-.14014.30811-.084.47657,0a3.87673,3.87673,0,0,0,.72851.28027,3.68157,3.68157,0,0,0,1.26123.08447,7.18123,7.18123,0,0,0,2.01856-.36474,10.04652,10.04652,0,0,0,.3081-2.6626,3.812,3.812,0,0,0-.56054-1.68213c-.22412-.33594-.42041-.84082-.11231-1.06494.28076-.19629.729-.05615,1.12158.19629a2.07979,2.07979,0,0,1,.897,1.37353,2.51289,2.51289,0,0,1,0,1.28906,8.51771,8.51771,0,0,0,1.82177.67286c.53272.1123,1.00928.25244,1.14942.53271.168.28027.084.56055-.33643,1.00879a5.52848,5.52848,0,0,1-2.29834,1.2334c-.39258.08447-.813.16846-1.26172.22461-.084.33594-.168.58838-.22412.8125-.19629.729-.84082,2.55078-1.03711,3.22363s-.9248,2.97119-1.28955,4.09229a42.60124,42.60124,0,0,1-1.68164,4.14892.695.695,0,0,1-1.03711.25195c-.42041-.25195-.42041-.9248-.42041-1.37353a6.72025,6.72025,0,0,1,.75684-1.8501c.3081-.78467.72851-1.65381,1.17724-2.63476C241.43848,63.231,242.25146,61.437,242.58789,60.65234Zm2.915-5.99853c-.05615.19629-.084.39258-.14014.53271-.02783.168-.11181.47657-.19629.84082a6.49088,6.49088,0,0,0,1.00928-.53271c.19629-.084.14014-.30811,0-.44824A4.67831,4.67831,0,0,0,245.50293,54.65381ZM256.93945,69.0332c.33643.53272-.25244,1.06543-.95312,1.12159a18.571,18.571,0,0,1-4.709-.14014c-2.04638-.33643-2.915-1.03711-3.47558-2.24268a4.06526,4.06526,0,0,1,.33594-3.5039A10.30581,10.30581,0,0,1,249.20312,62.25c.168-.22412.33643-.36426.44825-.28027.1123.05615.05615.28027-.11182.53271a10.7284,10.7284,0,0,0-.897,2.102,2.94371,2.94371,0,0,0,.11181,2.55078,3.55018,3.55018,0,0,0,2.1587,1.31739,8.32053,8.32053,0,0,0,2.35449.084,16.59207,16.59207,0,0,1,2.13037-.28027A1.77618,1.77618,0,0,1,256.93945,69.0332ZM253.18359,57.625c-.02832-.14014-.39257-.25244-.645-.28027a5.83313,5.83313,0,0,0-1.87793-.02784,8.2465,8.2465,0,0,0-1.28955.28028c-.3081.084-.75683.14013-.84082,0-.168-.3086.33643-.561.64453-.67285a18.91916,18.91916,0,0,1,2.1587-.6167,5.93824,5.93824,0,0,1,1.76562-.14014,2.795,2.795,0,0,1,1.65381.42041.99813.99813,0,0,1,.50488,1.09326.98018.98018,0,0,1-.645.56055c-.168.084-.67236.28027-1.2334.53271a16.11978,16.11978,0,0,0-1.70947.92481,3.797,3.797,0,0,0-1.14941.9248c-.168.19629-.36426.53272-.47656.44873-.14014-.05615-.05616-.33642.084-.56054a9.52179,9.52179,0,0,1,1.14941-1.42969,10.4002,10.4002,0,0,1,1.40137-1.03711C252.959,57.84912,253.21143,57.7373,253.18359,57.625Z"/><path class="a" d="M266.82861,64.88477a8.38818,8.38818,0,0,1,.3086-3.75586,9.08751,9.08751,0,0,1,2.1582-3.39161c.14014-.16845.30811-.30859.47656-.47656-.22412-.56054-.44873-1.06543-.645-1.45752a3.4667,3.4667,0,0,0-.897-1.20556c-.3081-.25245-.58838-.67286-.33594-.92481.1958-.28027.58838-.16846.92481.11182a4.61733,4.61733,0,0,1,.897.98144,15.12757,15.12757,0,0,1,1.06494,1.70948A8.66472,8.66472,0,0,1,272.687,55.523a13.15956,13.15956,0,0,1,3.56006-.67285,3.67444,3.67444,0,0,0,.05566-1.20557,4.93363,4.93363,0,0,0-.64453-1.70947c-.168-.3086-.39258-.729-.25244-.98145.16846-.252.897-.05615,1.20557.11231a1.89423,1.89423,0,0,1,1.00928,1.17724,5.85234,5.85234,0,0,1-.14014,2.55079,9.56889,9.56889,0,0,1,2.7749.44824,7.17569,7.17569,0,0,1,3.22315,1.93457,6.48821,6.48821,0,0,1,1.68212,2.999,7.18978,7.18978,0,0,1-.02832,3.7002,8.98149,8.98149,0,0,1-1.70947,3.19531,8.87857,8.87857,0,0,1-2.69092,2.1582,9.80725,9.80725,0,0,1-2.94336.9253,11.94543,11.94543,0,0,1-2.24267.22412c-.39209,0-.61621-.05616-.61621-.19629s.168-.19629.44824-.25244c.30859-.05567.86914-.168,1.56982-.30811a8.45764,8.45764,0,0,0,3.25147-1.26123,6.80763,6.80763,0,0,0,3.25146-4.68115,6.56736,6.56736,0,0,0-1.14941-5.71826,6.71566,6.71566,0,0,0-5.10156-2.13038c-.22412.84083-.47608,1.65381-.72852,2.63477a23.14771,23.14771,0,0,1-.78467,2.439,2.7327,2.7327,0,0,1,.02784.47607,3.52972,3.52972,0,0,1-.42041,1.65381,1.58934,1.58934,0,0,1-.75684.78515c-.22412.53272-.47656,1.03711-.70068,1.45752a7.41285,7.41285,0,0,1-2.24268,2.66309,2.76986,2.76986,0,0,1-2.999-.05615A4.18536,4.18536,0,0,1,266.82861,64.88477Zm1.26123-.33643a2,2,0,0,0,2.18653,1.40186,3.40547,3.40547,0,0,0,2.35449-1.48584,6.75216,6.75216,0,0,0,.6167-1.03711c-.252-.168-.56055-.36426-.86865-.58838a4.95939,4.95939,0,0,1-1.56983-2.10254c-.25244-.67285-.42041-1.51367-.70068-2.49463a7.45116,7.45116,0,0,0-1.82227,2.55078A5.498,5.498,0,0,0,268.08984,64.54834Zm3.56006-7.3999a3.3039,3.3039,0,0,0-.42041.25244,11.94506,11.94506,0,0,1,.95313,1.99023,6.13114,6.13114,0,0,0,1.20508,2.01807,1.64553,1.64553,0,0,0,.61669.36426c.14014-.36426.3086-.78467.44873-1.17725.53223-1.42969.897-2.523,1.37354-4.0083.084-.25244.14014-.50439.22412-.70068A10.76662,10.76662,0,0,0,271.6499,57.14844Z"/><path class="a" d="M295.16211,61.68945a33.79252,33.79252,0,0,1,.67236-3.78418c.3086-1.48535.561-2.1582.729-3.05517a3.61078,3.61078,0,0,0-.22412-2.18653c-.25245-.33642-.44874-.78466-.22461-.98095.30859-.22412.86914.084,1.26171.47656a3.30627,3.30627,0,0,1,.75684,1.76562,5.40526,5.40526,0,0,1-.42041,2.10254c-.19629.53272-.6167,1.62549-.84131,2.38233a17.35594,17.35594,0,0,0-.56054,2.38281,15.35183,15.35183,0,0,0-.22413,1.99023c-.02783.47657,0,.813.11231.813.14014,0,.22412-.28076.33642-.53271a10.20749,10.20749,0,0,1,.897-1.51367c.1958-.25244.36426-.39258.53222-.3086.16846.11231.11231.33643-.02783.561a6.55048,6.55048,0,0,0-.6167,2.74658,8.96039,8.96039,0,0,0,.56055,3.13965c.22412.72851.19629,1.71-.25244,1.87793-.44824.19629-1.03711-.19629-1.4292-.75684a5.99476,5.99476,0,0,1-.95313-2.8872A16.69774,16.69774,0,0,1,295.16211,61.68945Zm8.88525,3.58789a5.88555,5.88555,0,0,0,1.56983.84082,8.01313,8.01313,0,0,0,3.02734.22413c1.2334-.084,2.35449-.47657,2.94336-.47657.6167.02832,1.26123.11231,1.45752.67285.22412.53272-.53271.981-1.51367,1.2334a11.63144,11.63144,0,0,1-3.27979.19629,9.6341,9.6341,0,0,1-2.97119-.75683,6.49237,6.49237,0,0,1-1.90576-1.45752c-.36475-.42041-.47656-.86914-.25244-.981C303.43066,64.57666,303.73926,65.05322,304.04736,65.27734Zm0-10.9038c-.39209-.16846-.72851-.39258-.6167-.64454.11231-.25244.47657-.19629,1.09327,0a7.36561,7.36561,0,0,0,2.2705.168,9.11139,9.11139,0,0,0,2.439-.53271c.64453-.22412,1.31738-.19629,1.51367.16845.22412.39209-.1123.95264-.92529,1.2334a7.89237,7.89237,0,0,1-3.0835.28028A9.259,9.259,0,0,1,304.04736,54.37354Z"/></g><g class="b"><path class="a" d="M49.27588,98.56055a3.815,3.815,0,0,0-1.26172,1.51367,28.54156,28.54156,0,0,1-10.09082-8.96973,25.40174,25.40174,0,0,1-11.07178,9.78272l-.36474-.561a25.36717,25.36717,0,0,0,10.70752-11.2959c1.42968.252,2.15869.53223,2.15869.813,0,.25195-.36475.42041-1.00928.56055A26.71821,26.71821,0,0,0,49.27588,98.56055Zm-7.00781,3.896,1.06494-1.14892c1.00928.897,1.51367,1.4292,1.51367,1.65381,0,.11181-.084.22412-.28027.33642l-.6167.36426a52.53529,52.53529,0,0,1-4.03614,8.15674l-1.42968-.58838a41.81614,41.81614,0,0,0,3.98047-8.12891H30.3833l-.25244-.645ZM39.68945,98.168l1.28907-1.51367c.58886.50488,1.17724,1.06543,1.73828,1.65381L42.436,98.813H33.27051l-.25244-.645Z"/><path class="a" d="M57.25879,96.17773c-.36426-.36425-.67285-1.0371-.39258-1.34521.22461-.28027.70117-.084,1.06543.05615a3.58608,3.58608,0,0,0,1.65381.28028,15.09513,15.09513,0,0,0,3.33545-.78516c.86914-.252,2.80322-.86865,4.541-1.31738,1.68164-.44825,3.61573-.92481,4.5127-1.065a4.36555,4.36555,0,0,1,2.49512.252c.44824.28076.72851.78515.56054,1.12158-.19629.33643-.53271.33643-.98144.25195a16.751,16.751,0,0,0-1.68164-.22412,27.83015,27.83015,0,0,0-3.11133.33643c-.05615,0-.11231.02783-.19629.02783-.36426.30859-.95312.729-1.42969,1.14941A5.76076,5.76076,0,0,0,66.06055,97.019a13.41367,13.41367,0,0,0-.58887,2.85889,16.15789,16.15789,0,0,0-.084,4.42871,2.87676,2.87676,0,0,0,1.09326,2.10254,3.25076,3.25076,0,0,0,2.2705.56055,7.01283,7.01283,0,0,1,1.98975.05615,2.16664,2.16664,0,0,1,1.14941.8125c.22413.33642-.02783.75683-.61669.813a17.3404,17.3404,0,0,1-2.71875,0,5.19916,5.19916,0,0,1-3.02735-1.09326,3.7815,3.7815,0,0,1-1.26123-2.57862,14.8554,14.8554,0,0,1-.05615-4.03662,33.95786,33.95786,0,0,1,.64453-3.3916,4.71456,4.71456,0,0,1,1.2334-2.27051,11.05707,11.05707,0,0,1,1.3457-1.14892,10.71522,10.71522,0,0,0-1.458.44824c-1.03711.39258-2.69091,1.09326-3.55957,1.42969a12.08294,12.08294,0,0,1-2.915.897A2.72406,2.72406,0,0,1,57.25879,96.17773Zm14.772,1.93409a9.6193,9.6193,0,0,0-1.62549-1.31739c-.22461-.168-.36474-.36425-.22461-.56054.08448-.11182.33643-.11182.47657-.084a5.14316,5.14316,0,0,1,1.51367.33643A3.19306,3.19306,0,0,1,73.853,97.63525a.67546.67546,0,0,1-.39258,1.00928A1.74644,1.74644,0,0,1,72.03076,98.11182Zm2.24268-1.17725a4.36954,4.36954,0,0,0-1.73828-1.14893c-.252-.1123-.36426-.36474-.252-.53271.084-.168.30811-.1123.47657-.1123a4.18917,4.18917,0,0,1,1.5415.25244,3.45181,3.45181,0,0,1,1.71,1.03711.66519.66519,0,0,1-.36426,1.03711A1.4482,1.4482,0,0,1,74.27344,96.93457Z"/><path class="a" d="M89.54443,90.40381c.14014-.22461.5044-.14014.78467-.11231a5.23694,5.23694,0,0,1,1.68213.5044,3.15688,3.15688,0,0,1,1.31738,1.65381c.14014.30859.33643.729.5044,1.20556.53271-.22412.98095-.44873,1.2334-.56054a1.85039,1.85039,0,0,1,1.59765,0c.67285.28027.36426.75683-.1123,1.06494a5.863,5.863,0,0,1-1.4292.64453c.19629.08447.39209.14014.56055.19629.33642.08447,2.01806.44873,2.69091.56055a16.46851,16.46851,0,0,1,2.27051.50488c.67236.19629.64453.86865.02783,1.34521a11.53081,11.53081,0,0,1-2.915,1.34571c-.50439.168-1.00927.33642-1.51367.47656.47656,1.09277,1.42969,3.22314,1.62549,3.69971a2.71378,2.71378,0,0,1,.36475,1.56982,1.69721,1.69721,0,0,1-1.1211,1.00928,2.59664,2.59664,0,0,1-1.9624-.561,5.26248,5.26248,0,0,0-2.66309-.84082,5.85729,5.85729,0,0,0-3.3916.70069,1.94578,1.94578,0,0,0-.84082,2.13037c.22412.813.84082,1.20556,1.79395,1.51367a10.03556,10.03556,0,0,0,2.94336.28027c.75683-.05566,1.79394-.22412,2.32666-.3081a2.15287,2.15287,0,0,1,1.51318.36425c.50488.33643.561.813.36475,1.03711s-.645.39258-1.626.47657a18.54394,18.54394,0,0,1-4.09228-.084,6.07818,6.07818,0,0,1-3.50391-1.5415,3.38862,3.38862,0,0,1-.5044-3.11182,3.297,3.297,0,0,1,2.24219-1.93408,9.90663,9.90663,0,0,1,3.3916-.42041,11.87677,11.87677,0,0,1,2.4668.36475c.22412.084.44873.25195.70068.05566.19629-.168,0-.70068-.14013-1.17725-.11182-.39209-.67237-1.84961-1.09326-2.8872-.36426.1123-.72852.16845-.981.25244a13.147,13.147,0,0,1-3.02734.47656,7.48747,7.48747,0,0,1-2.49463-.42041,4.73111,4.73111,0,0,1-1.56983-.86914.68837.68837,0,0,1-.22412-.8125c.22412-.19629.50488,0,.729.168a5.494,5.494,0,0,0,2.32667.84082,10.70055,10.70055,0,0,0,2.80273-.168,17.89845,17.89845,0,0,0,2.01807-.53272c-.36426-.84082-.72852-1.71-1.06495-2.43847-.1123-.25244-.22412-.50488-.30859-.75684a9.99671,9.99671,0,0,1-2.74658.22412,6.1432,6.1432,0,0,1-1.9624-.53271c-.44825-.19629-.56055-.47656-.36426-.72852.14014-.19629.47656-.14013.78467.02783a4.43027,4.43027,0,0,0,1.542.28028,7.59426,7.59426,0,0,0,2.21435-.44824c-.14013-.25245-.19629-.44873-.25244-.56055a4.45209,4.45209,0,0,0-1.2334-1.48584,7.05141,7.05141,0,0,0-1.26123-.84082C89.48828,91.02051,89.43213,90.65576,89.54443,90.40381Zm4.90528,4.625h-.05616a.974.974,0,0,1,.14014.36426c.25244.53271.75684,1.79394,1.20557,2.74707a21.02225,21.02225,0,0,0,2.186-.897c.28028-.14013.70069-.36425.645-.53271-.05615-.14014-.56054-.28027-1.09326-.47656-.56055-.19629-1.59766-.6167-2.01807-.78467C95.20654,95.36523,94.75781,95.169,94.44971,95.02881Z"/><path class="a" d="M128.86572,107.166a7.1402,7.1402,0,0,1-3.728,2.21435,9.66369,9.66369,0,0,1-4.48487.02783c-1.71-.36425-2.38281-.95312-2.38281-1.79394-.02783-.84082,1.06494-1.51367,1.99023-1.68164a3.5098,3.5098,0,0,1,2.915.53222,1.41273,1.41273,0,0,1,.36426,1.93409,6.93673,6.93673,0,0,0,3.50391-1.28907,4.37612,4.37612,0,0,0,1.59765-3.44775,4.11564,4.11564,0,0,0-2.49463-3.56006,6.938,6.938,0,0,0-4.98925-.168,7.05024,7.05024,0,0,0-3.728,2.55078,11.2825,11.2825,0,0,0-1.68213,3.13916,2.02583,2.02583,0,0,1-.84082,1.31739.75638.75638,0,0,1-.9248-.14014,1.56085,1.56085,0,0,1-.3086-1.2334,6.80742,6.80742,0,0,1,1.2334-1.90576c.53271-.67285,1.26172-1.71,2.21436-2.74707.95312-1.03711,2.46679-2.88721,3.08349-3.58789.58887-.729,2.523-3.05518,2.83106-3.47559.30859-.39258.44873-.70117.30859-.813-.14063-.14013-.6167.05616-.897.22413-.3086.19628-1.68213,1.00927-2.4668,1.45751a4.34888,4.34888,0,0,1-2.10254.6167,2.14424,2.14424,0,0,1-1.45752-.6167.983.983,0,0,1-.3081-.897.44811.44811,0,0,1,.6167-.22412,4.15862,4.15862,0,0,0,.95263.168A3.18141,3.18141,0,0,0,119.251,93.375c.84082-.33643,1.9624-.86914,2.915-1.37354a6.1189,6.1189,0,0,1,2.0747-.897,1.95608,1.95608,0,0,1,1.48535.72852c.36426.39258.39258.645.33643.897-.05615.25244-.19629.39258-.58887.645a13.39187,13.39187,0,0,0-1.98974,1.71c-.75684.78467-1.68213,1.93408-2.355,2.6626,0,0-.67237.729-1.98975,2.10254a5.92339,5.92339,0,0,1,1.5415-.78516,8.08657,8.08657,0,0,1,3.67188-.47656,7.36925,7.36925,0,0,1,3.70019,1.3457,4.65757,4.65757,0,0,1,2.0459,3.50391A4.55065,4.55065,0,0,1,128.86572,107.166Zm-8.07275-.44873c-.897.02783-1.458.56054-1.06543,1.12109a2.851,2.851,0,0,0,2.10254.6167C122.92285,107.47412,121.94189,106.71729,120.793,106.71729Z"/><path class="a" d="M144.1084,105.11963a6.84,6.84,0,0,0,2.60693,1.26123,15.3801,15.3801,0,0,0,4.68115.58887,15.5829,15.5829,0,0,0,3.25147-.75684,2.0276,2.0276,0,0,1,1.56982,0,1.61418,1.61418,0,0,1,.86866.78467c.05615.30859-.14014.645-1.23291.981a16.52138,16.52138,0,0,1-4.76563.47656,18.06,18.06,0,0,1-4.76514-.8125,7.0351,7.0351,0,0,1-2.71875-1.40186,3.29984,3.29984,0,0,1-.75683-1.71c-.084-.53222.02783-.86865.19629-.86865.25244-.02832.39258.3081.47656.56055A2.31075,2.31075,0,0,0,144.1084,105.11963Zm7.064-10.76367c-.6167-.02783-1.2334-.11231-2.21435-.25244a21.57268,21.57268,0,0,1-2.523-.47657c-.56055-.1958-.84082-.6167-.67285-.78466.22461-.25245.56054-.168.897-.02784a5.68714,5.68714,0,0,0,1.56982.22412,14.95094,14.95094,0,0,0,2.18653-.25244c.84082-.14013,1.96191-.56054,2.63476-.6167s.92481.14014,1.03711.6167c.14014.50489-.30859.67285-.78467.9253a5.371,5.371,0,0,0-.897.64453c-.33642.25244-.897.6167-1.20556.84082-.33643.25244-.53272.25244-.64454.16845-.16845-.14013-.1123-.30859,0-.44873A7.06529,7.06529,0,0,0,151.17236,94.356Z"/><path class="a" d="M183.34619,108.51123c-1.51367.16846-3.98047.25244-5.88623.25244-1.90625-.02832-3.86865-.42041-4.68115-1.42969a3.06813,3.06813,0,0,1-.14014-3.56005,8.46468,8.46468,0,0,1,2.83106-2.57862,2.41,2.41,0,0,1-1.20557-1.5415,14.649,14.649,0,0,1,.14014-3.25147c.084-1.00927.19629-2.10254.22412-2.91552a3.53645,3.53645,0,0,0-.39209-1.87793c-.25244-.33643-.50488-.75684-.39258-1.00928.22412-.44824.813-.14014,1.17725.16846a5.37442,5.37442,0,0,1,1.17724,1.59765,2.90565,2.90565,0,0,1-.05615,1.82178,17.38627,17.38627,0,0,0-.58838,2.38281,26.65263,26.65263,0,0,0-.30859,3.0835,1.64816,1.64816,0,0,0,.6167,1.28906c1.6538-1.00879,3.56006-1.93408,5.21386-2.7749.44825-.25195.28028-.813,0-1.17725-.28027-.33642.084-.58838.53272-.53271a2.38833,2.38833,0,0,1,1.14892.561c.47657.39209.9253,1.51319.02832,1.93409-3.70019,1.73779-6.19482,2.74658-8.01709,4.064-1.76562,1.26172-2.07421,2.60693-1.14892,3.644a5.35246,5.35246,0,0,0,3.812,1.12158,14.71519,14.71519,0,0,0,3.98047-.561c.897-.30811,2.52246-.47656,2.97119.22461C184.80371,108.11865,184.13086,108.42725,183.34619,108.51123Z"/><path class="a" d="M213.83789,98.86865a6.60291,6.60291,0,0,1-2.07422,1.56983c-.813.42041-2.18652.86914-3.25195,1.31738-.28027.1123-.58838.25244-.897.39258.02832.3081.08447.64453.1123.981a4.328,4.328,0,0,1-.33643,2.43848,1.522,1.522,0,0,1-1.14941.92529c-.58838.05616-.8125-.39257-.64453-.95312a10.94678,10.94678,0,0,0,.42041-2.57861V102.793a11.59661,11.59661,0,0,0-1.31738.6167,6.08865,6.08865,0,0,0-2.24219,1.82226,2.26439,2.26439,0,0,0-.30859,2.49463A3.5392,3.5392,0,0,0,204.896,108.96a18.99868,18.99868,0,0,0,2.63476-.28027,16.30338,16.30338,0,0,1,1.87793-.36475,2.19038,2.19038,0,0,1,1.71.44873c.44873.33643.44873.813.02832,1.00879a4.40639,4.40639,0,0,1-1.51367.30859,29.13021,29.13021,0,0,1-4.03662.252,8.17674,8.17674,0,0,1-3.75586-1.03711,2.61985,2.61985,0,0,1-1.20557-2.52246,3.42169,3.42169,0,0,1,1.20557-2.43848,12.18522,12.18522,0,0,1,2.63477-1.87842c.47656-.252,1.00879-.53222,1.5415-.78466a1.91081,1.91081,0,0,0-.36426-1.1211,2.63079,2.63079,0,0,0-1.79394-1.00928,3.15353,3.15353,0,0,0-1.79395.28028,2.92026,2.92026,0,0,0-.50439.28027c-.36475.47656-.729.897-1.06543,1.37354a2.88694,2.88694,0,0,1-2.0459,1.45752c-.6167-.02784-.67285-.39209-.67285-.897a1.5427,1.5427,0,0,1,.58838-1.2334,13.51865,13.51865,0,0,0,1.42968-.8125,11.56831,11.56831,0,0,0,2.915-3.58789,11.32822,11.32822,0,0,0,.86914-1.79394q-.33618.04174-.67285.084a3.91526,3.91526,0,0,1-2.32666-.36425,1.3773,1.3773,0,0,1-.53222-1.59815c.33642-.44824.8125-.14014,1.42919.08447a4.14084,4.14084,0,0,0,2.21436.05567q.21093-.04174.4209-.084a1.28359,1.28359,0,0,0-.36475-1.34521.80615.80615,0,0,1-.168-1.00928.96669.96669,0,0,1,1.06494.02783.97785.97785,0,0,1,.39258.36475c.39258.05615.86914.168,1.03711.19629a2.81516,2.81516,0,0,1,1.03711.33594c.25244.19628.11231.44873-.1123.897a4.63812,4.63812,0,0,1-1.48535,1.626,2.12825,2.12825,0,0,1-.5044.25245,8.308,8.308,0,0,1-.67285,1.59765,30.01091,30.01091,0,0,1-1.71,2.94336,3.61315,3.61315,0,0,1-.28028.42041c.22413-.08447.47657-.19629.64454-.25244a3.153,3.153,0,0,1,1.90625-.168,2.18586,2.18586,0,0,1,1.48584.84082,2.82473,2.82473,0,0,1,.36425-.44873,7.55893,7.55893,0,0,1,2.999-2.52246,4.055,4.055,0,0,1,3.84033-.05615A1.63917,1.63917,0,0,1,213.83789,98.86865Zm-8.4375-6.55908c.14014-.084.25244-.14014.36475-.19629.42041-.22412.56054-.50439.47607-.58838-.084-.1123-.28027-.19629-.67236-.25244-.11231-.02783-.22461-.02783-.3086-.05615a1.957,1.957,0,0,1,.14014.70117A.90517.90517,0,0,1,205.40039,92.30957Zm7.25977,4.87744c-.168-.3081-.75635-.56055-1.7378-.33642a5.05843,5.05843,0,0,0-2.35449,1.3457,6.32018,6.32018,0,0,0-1.51367,2.32617c.084.16846.16846.36475.22412.50488.25244-.08447.47656-.22461.729-.33642a40.0866,40.0866,0,0,0,3.67188-1.76612C212.85645,98.30811,212.85645,97.52344,212.66016,97.187Z"/><path class="a" d="M222.97021,105.34375l-.36474-.6167a51.76253,51.76253,0,0,0,7.56836-4.12012c.14013-.6167.19629-1.06543.28027-1.40185q.54639.25269,1.00928.50488l.14014-.08447a24.59539,24.59539,0,0,0,2.69091-2.186H222.94189l-.3081-.6167h8.85742v-3.5039h-5.94238l-.28028-.64453h6.335V89.05811c1.68164.02832,2.52246.22412,2.52246.56054,0,.22461-.36426.47656-1.06494.70069v2.355h3.19531l1.14941-1.48584a12.61955,12.61955,0,0,1,1.45752,1.5415c.70068-.897,1.45752-1.93408,2.27051-3.13916,1.31738.75684,2.01807,1.28955,2.01807,1.62549,0,.16846-.19629.28076-.58838.28076a3.66422,3.66422,0,0,1-.645-.08447,59.50251,59.50251,0,0,1-4.84912,5.27H242.395l1.26172-1.73828a17.82806,17.82806,0,0,1,1.68164,1.87841l-.22412.5044h-8.71778a37.16827,37.16827,0,0,1-4.82128,3.70019c-.02784.02784-.02784.084-.02784.168a.21333.21333,0,0,0-.02783.11231,33.92941,33.92941,0,0,0,8.85742-2.29883c1.09326.75684,1.68164,1.26172,1.68164,1.51367,0,.16846-.14013.19629-.44824.19629a6.24821,6.24821,0,0,1-1.00928-.11182,63.379,63.379,0,0,1-9.25,1.34522l-.084.36426c-.22412.84082-.33643,1.3457-.39258,1.542h8.74561l.897-1.09326c1.06494.78466,1.59766,1.31738,1.59766,1.56982,0,.11182-.084.1958-.19629.28027l-.72852.42041c-.33642,3.22315-.981,5.18555-2.01806,5.99854a3.50419,3.50419,0,0,1-2.24268.64453,1.30892,1.30892,0,0,0-1.00928-1.17725c-.50439-.16845-1.5415-.42041-3.02685-.729v-.67236a30.26638,30.26638,0,0,0,4.26025.44824,1.76023,1.76023,0,0,0,1.76611-.9248,12.75114,12.75114,0,0,0,.897-4.14844h-9.13819c-.28027.95263-.56054,1.82178-.86865,2.69092l-1.42969-.4209a48.72133,48.72133,0,0,0,1.45752-4.65283A59.74038,59.74038,0,0,1,222.97021,105.34375Zm12.02491-8.521c1.14941-1.12158,2.2705-2.2705,3.36377-3.5039h-5.438v3.5039Z"/><path class="a" d="M256.04053,97.41113a2.96179,2.96179,0,0,0,.95312.645,3.03732,3.03732,0,0,0,1.59766,0c.58838-.14013,1.87793-.645,3.13916-1.03711a4.53646,4.53646,0,0,1,3.36377.05567c.70068.44873.84082,1.28955.47656,1.626a19.93977,19.93977,0,0,1-2.24268,1.40137c-1.00878.645-2.27,1.51367-2.94287,2.01807-.70068.50488-1.00927.95312-.981,1.12158.084.19629.47656.168,1.56933-.11231a3.94884,3.94884,0,0,1,2.439-.14013,2.1,2.1,0,0,1,.84082,1.82178,17.48764,17.48764,0,0,0,0,2.439,1.798,1.798,0,0,0,1.68164,1.14893c.729-.02784,1.90625-.33594,2.49463-.42041a1.89926,1.89926,0,0,1,1.51367.44873c.28027.28027.70117.84082.39258,1.09326a2.85669,2.85669,0,0,1-1.59766.3081,19.72045,19.72045,0,0,1-3.36377-.084,2.06868,2.06868,0,0,1-1.76562-1.03711,8.01434,8.01434,0,0,1-.33643-2.71875,3.17091,3.17091,0,0,0-.47656-2.01856c-.3086-.36425-.981-.33642-1.79395-.22412a15.21079,15.21079,0,0,0-2.5791.729,5.34063,5.34063,0,0,0-1.96191,1.5415,6.64245,6.64245,0,0,0-.95313,2.80322c-.084.897-.58838,1.14893-1.00879,1.14893-.4209,0-.813-.42041-.84131-1.20508a6.27248,6.27248,0,0,1,1.48584-3.02734,26.15944,26.15944,0,0,1,3.78418-3.86817c.95313-.75683,2.52247-1.82226,3.22315-2.32666.729-.50439,1.14941-1.06494.98144-1.42968-.1123-.252-.645-.30811-1.26171-.1958a9.685,9.685,0,0,0-2.52247,1.00878,4.42641,4.42641,0,0,1-2.41064.813,2.25161,2.25161,0,0,1-1.71-1.20556c-.30811-.47608-.39258-1.1211-.14014-1.28907A.747.747,0,0,1,256.04053,97.41113Zm4.84912-6.72705a4.09719,4.09719,0,0,1,1.40137.70069,5.297,5.297,0,0,1,1.12158,1.23339c.3081.5044.39209,1.17725,0,1.40137a1.01881,1.01881,0,0,1-.981.02783c-.05615-.05566-.25244-.05566-.39258-.05566-.14013.02783-.39258.14014-.67285.22412-.28027.11231-.9248.47656-1.09326.30811-.168-.14014.084-.42041.53271-.84082a2.59141,2.59141,0,0,1,.78467-.53272c.22461-.084-.168-.53223-.42041-.897a6.04926,6.04926,0,0,0-.84082-.95264c-.22412-.19629-.33642-.47656-.22412-.645C260.189,90.51563,260.55322,90.59961,260.88965,90.68408Z"/><path class="a" d="M297.01562,107.166a7.14012,7.14012,0,0,1-3.728,2.21435,9.66369,9.66369,0,0,1-4.48487.02783c-1.71-.36425-2.38281-.95312-2.38281-1.79394-.02783-.84082,1.06494-1.51367,1.99024-1.68164a3.50981,3.50981,0,0,1,2.915.53222,1.41274,1.41274,0,0,1,.36425,1.93409,6.93666,6.93666,0,0,0,3.50391-1.28907,4.37613,4.37613,0,0,0,1.59766-3.44775,4.11566,4.11566,0,0,0-2.49463-3.56006,6.93807,6.93807,0,0,0-4.98926-.168,7.05028,7.05028,0,0,0-3.728,2.55078A11.2825,11.2825,0,0,0,283.897,105.624a2.02583,2.02583,0,0,1-.84082,1.31739.75638.75638,0,0,1-.9248-.14014,1.56085,1.56085,0,0,1-.3086-1.2334,6.80742,6.80742,0,0,1,1.2334-1.90576c.53272-.67285,1.26172-1.71,2.21436-2.74707.95312-1.03711,2.46679-2.88721,3.08349-3.58789.58887-.729,2.523-3.05518,2.83106-3.47559.30859-.39258.44873-.70117.30859-.813-.14013-.14013-.6167.05616-.897.22413-.30859.19628-1.68213,1.00927-2.4668,1.45751a4.34885,4.34885,0,0,1-2.10254.6167,2.14424,2.14424,0,0,1-1.45752-.6167.98433.98433,0,0,1-.3081-.897.44811.44811,0,0,1,.6167-.22412,4.15873,4.15873,0,0,0,.95263.168,3.18138,3.18138,0,0,0,1.56983-.39209c.84082-.33643,1.9624-.86914,2.915-1.37354a6.1189,6.1189,0,0,1,2.0747-.897,1.95611,1.95611,0,0,1,1.48536.72852c.36425.39258.39257.645.33642.897-.05615.25244-.19629.39258-.58886.645a13.39183,13.39183,0,0,0-1.98975,1.71c-.75684.78467-1.68213,1.93408-2.355,2.6626,0,0-.67236.729-1.98975,2.10254a5.92332,5.92332,0,0,1,1.54151-.78516,8.0865,8.0865,0,0,1,3.67187-.47656,7.36928,7.36928,0,0,1,3.7002,1.3457,4.65763,4.65763,0,0,1,2.0459,3.50391A4.55069,4.55069,0,0,1,297.01562,107.166Zm-8.07275-.44873c-.897.02783-1.458.56054-1.06543,1.12109a2.851,2.851,0,0,0,2.10254.6167C291.07275,107.47412,290.0918,106.71729,288.94287,106.71729Z"/><path class="a" d="M311.27734,106.04443a2.91212,2.91212,0,0,1,1.54151,2.69092,3.10646,3.10646,0,0,1-.897,2.15869,2.93441,2.93441,0,0,1-2.27.981,2.7397,2.7397,0,0,1-1.34571-.33643,2.93742,2.93742,0,0,1-1.79394-2.80322,3.22022,3.22022,0,0,1,3.11133-3.16748A3.07922,3.07922,0,0,1,311.27734,106.04443Zm-3.27929,1.14942a2.06826,2.06826,0,0,0-.6167,1.5415,2.41564,2.41564,0,0,0,.36426,1.20557,2.16075,2.16075,0,0,0,1.90625,1.06494,2.22591,2.22591,0,0,0,1.48535-.56055,2.28478,2.28478,0,0,0,.78467-1.71,2.15381,2.15381,0,0,0-.95264-1.84961,2.23193,2.23193,0,0,0-1.31738-.4209A2.19625,2.19625,0,0,0,307.99805,107.19385Z"/></g></g></svg>