<svg xmlns="http://www.w3.org/2000/svg" xmlns:xlink="http://www.w3.org/1999/xlink" viewBox="0 0 300 247"><defs><style>.a{fill:none;}.b{fill:#fff465;}.c{isolation:isolate;}.d{clip-path:url(#a);}.e{fill:url(#b);}.f{fill:url(#c);}.g{clip-path:url(#d);}.h{fill:#2d7333;}.i{fill:#fff;}.j{clip-path:url(#e);}.k{fill:#006d35;}.l{fill:#be8d41;}.m{fill:#eab637;}.n{fill:#f1cc47;}.o{opacity:0.3;mix-blend-mode:multiply;}.p{clip-path:url(#f);}.q{fill:#1a1311;}</style><clipPath id="a"><path class="a" d="M148.775,245.5a246.11138,246.11138,0,0,1-35.488-19.70241c-22.194-14.65305-54.90762-34.37485-84.74122-75.46317C15.17305,131.91746,6.341,114.20991,2.3096,97.69888c-3.44-14.07252-3.42345-27.33518.05641-39.40938,7.72235-26.79681,29.66939-39.79942,38.74954-44.145C56.76779,6.65081,77.89417-.4082,97.19569-.4082c36.1085,0,51.57935,15.31686,51.57935,15.31686S166.92711-.4082,200.35639-.4082c19.30092,0,40.42451,7.059,56.07668,14.55266,9.07793,4.34562,31.02954,17.34823,38.7513,44.145,3.47986,12.0742,3.497,25.33686.05818,39.40938-4.03887,16.511-12.86353,34.21858-26.238,52.63554-29.83419,41.08832-62.54721,60.81578-84.73609,75.46317A246.19225,246.19225,0,0,1,148.775,245.5Z"/></clipPath><linearGradient id="b" x1="148.77554" y1="-5.37435" x2="148.77554" y2="250.92685" gradientUnits="userSpaceOnUse"><stop offset="0" stop-color="#006d35"/><stop offset="0.2967" stop-color="#fffcdc"/><stop offset="0.62399" stop-color="#006d35"/></linearGradient><linearGradient id="c" x1="148.77551" y1="240.79279" x2="148.77551" y2="4.29609" gradientUnits="userSpaceOnUse"><stop offset="0" stop-color="#006d35"/><stop offset="0.2967" stop-color="#fffcdc"/><stop offset="0.62637" stop-color="#006d35"/></linearGradient><clipPath id="d"><path class="b" d="M148.775,235.50166a198.334,198.334,0,0,1-29.39678-18.14781C100.99551,203.86193,73.897,186.20343,49.1835,148.36466,38.11011,131.403,30.79562,115.09843,27.45369,99.89224c-2.84689-12.95987-2.83434-25.17265.04964-36.29334,6.39292-24.677,24.57494-36.64973,32.09424-40.65261C72.56311,16.047,90.06193,9.54564,106.05112,9.54564c29.90836,0,42.72392,14.1044,42.72392,14.1044s15.03375-14.1044,42.72474-14.105c15.99094,0,33.48861,6.50189,46.45361,13.40123,7.51988,4.00288,25.70074,15.97559,32.09483,40.65261,2.88339,11.12069,2.89822,23.33347.05016,36.29334-3.34415,15.20619-10.65759,31.51079-21.73605,48.47125-24.70956,37.83994-51.80635,55.503-70.18565,68.99036A198.74105,198.74105,0,0,1,148.775,235.50166Z"/></clipPath><clipPath id="e"><path class="a" d="M148.775,240.79279A224.12537,224.12537,0,0,1,116.0803,221.8249c-20.4415-14.10557-50.57912-32.85668-78.058-72.40978C25.70292,131.68819,17.56882,114.63767,13.8511,98.74367c-3.1668-13.54787-3.15144-26.31438.057-37.93916C21.01966,35.00969,41.237,22.49178,49.59748,18.30869c14.42267-7.21417,33.88273-14.0126,51.66322-14.0126,33.26278,0,47.51434,14.74544,47.51434,14.74544S165.49683,4.29609,196.2891,4.29609c17.78282,0,37.24453,6.79843,51.65808,14.01208,8.36274,4.18361,28.58523,16.70152,35.69446,42.49634,3.2096,11.62478,3.2256,24.39129.05817,37.93916-3.72169,15.894-11.85177,32.94452-24.16891,50.67145-27.48684,39.5531-57.61646,58.30649-78.06368,72.40978A224.05982,224.05982,0,0,1,148.775,240.79279Z"/></clipPath><clipPath id="f"><rect class="a" x="126.14819" y="27.16874" width="44.7105" height="42.5186"/></clipPath></defs><title>safty_mark</title><g class="c"><g class="d"><path class="e" d="M146.77218,250.04405a252.11811,252.11811,0,0,1-36.22087-20.10273q-2.4012-1.58427-4.96211-3.25521C83.28516,212.09233,52.73811,192.10535,24.527,153.252,10.76583,134.29956,1.66746,116.00523-2.51511,98.87711c-3.64927-14.93021-3.61277-29.04892.1095-41.96259C5.87391,28.18043,29.2889,14.299,38.97131,9.66483,48.41586,5.143,72.99594-5.37435,97.19569-5.37435c28.66506,0,45.17043,9.2821,51.74474,14.03719,6.96352-4.60571,24.50627-14.03719,51.416-14.03719,24.19629,0,48.777,10.51732,58.221,15.03918,9.68352,4.63591,33.10079,18.52015,41.37914,47.24969,3.72174,12.912,3.75935,27.03122.11066,41.9637-4.19394,17.14523-13.29231,35.43845-27.04435,54.37439-28.22135,38.86646-58.773,58.85456-81.08162,73.44944q-2.54408,1.66468-4.93759,3.24038a252.22619,252.22619,0,0,1-36.226,20.10162l-2.00258.8828Z"/><path class="f" d="M148.775,240.79279A224.12537,224.12537,0,0,1,116.0803,221.8249c-20.4415-14.10557-50.57912-32.85668-78.058-72.40978C25.70292,131.68819,17.56882,114.63767,13.8511,98.74367c-3.1668-13.54787-3.15144-26.31438.057-37.93916C21.01966,35.00969,41.237,22.49178,49.59748,18.30869c14.42267-7.21417,33.88273-14.0126,51.66322-14.0126,33.26278,0,47.51434,14.74544,47.51434,14.74544S165.49683,4.29609,196.2891,4.29609c17.78282,0,37.24453,6.79843,51.65808,14.01208,8.36274,4.18361,28.58523,16.70152,35.69446,42.49634,3.2096,11.62478,3.2256,24.39129.05817,37.93916-3.72169,15.894-11.85177,32.94452-24.16891,50.67145-27.48684,39.5531-57.61646,58.30649-78.06368,72.40978A224.05982,224.05982,0,0,1,148.775,240.79279Z"/><path class="b" d="M148.775,235.50166a198.334,198.334,0,0,1-29.39678-18.14781C100.99551,203.86193,73.897,186.20343,49.1835,148.36466,38.11011,131.403,30.79562,115.09843,27.45369,99.89224c-2.84689-12.95987-2.83434-25.17265.04964-36.29334,6.39292-24.677,24.57494-36.64973,32.09424-40.65261C72.56311,16.047,90.06193,9.54564,106.05112,9.54564c29.90836,0,42.72392,14.1044,42.72392,14.1044s15.03375-14.1044,42.72474-14.105c15.99094,0,33.48861,6.50189,46.45361,13.40123,7.51988,4.00288,25.70074,15.97559,32.09483,40.65261,2.88339,11.12069,2.89822,23.33347.05016,36.29334-3.34415,15.20619-10.65759,31.51079-21.73605,48.47125-24.70956,37.83994-51.80635,55.503-70.18565,68.99036A198.74105,198.74105,0,0,1,148.775,235.50166Z"/><g class="g"><path class="h" d="M21.0801,75.303c.80244,17.94762,7.46113,51.50812,33.30612,103.23119H243.16469c25.27759-49.67576,32.5077-85.28357,33.305-103.23119Z"/></g><rect class="i" x="-5.25706" y="73.30642" width="308.2829" height="2.11803"/><rect class="i" x="-5.25706" y="100.95409" width="308.15513" height="2.1192"/><rect class="i" x="39.02205" y="178.53417" width="222.5836" height="2.12147"/><path class="i" d="M73.3986,138.859a17.597,17.597,0,0,1-8.0297-1.65038c-.89366-.95813-1.509-4.09128-1.509-7.05567a1.221,1.221,0,0,1,1.79071-.13116c.9444,2.83205,4.1112,6.83662,8.12721,6.83662,3.493,0,5.09894-2.22069,5.09894-4.3946,0-3.53126-3.59163-5.622-6.42258-6.92563-3.39893-1.57061-7.13434-4.1825-7.13434-8.49506-.04678-4.92048,4.11068-8.31368,10.95869-8.31368a20.68893,20.68893,0,0,1,5.38469.69575,11.74735,11.74735,0,0,0,1.60482.3467,19.64341,19.64341,0,0,1,.852,6.22643c-.235.52243-1.4172.56687-1.842.13233-.80414-2.22186-2.83609-5.39951-6.23559-5.39951-3.11494,0-4.81665,1.87281-4.81665,4.0479,0,2.00286,1.93728,3.83468,4.29824,4.96725l3.11722,1.52266c2.9262,1.43717,6.65816,3.96352,6.65816,8.75284C85.29942,135.37682,80.52949,138.859,73.3986,138.859Z"/><path class="i" d="M95.819,128.32348c-1.13374,0-1.27348.04222-1.55922.87141l-1.74621,5.05164a4.73,4.73,0,0,0-.33077,1.56717c0,.26232.37638.52237,1.69833.73908l1.41889.219c.28515.30682.37754,1.30595-.09583,1.52266-1.65272-.08666-3.54265-.08666-5.52327-.13116-1.60763,0-2.69178.13116-4.86284.13116-.52353-.26115-.47675-1.17478-.14488-1.52266l1.27232-.12772a3.23474,3.23474,0,0,0,2.88624-2.17969c.80011-1.74049,1.64816-3.83119,2.92561-6.969l4.24978-10.62676c1.087-2.74084,1.98518-4.26467,1.84321-5.53067,2.26747-.47565,4.01543-2.60851,4.10783-2.60851.61474,0,.89932.21443,1.08578.86913.38157,1.26373.9461,2.87422,2.12551,5.96405l6.42486,17.07679c.99118,2.60968,1.41661,3.61108,3.16515,3.87113l1.79182.26121c.28627.21788.38152,1.26151-.04619,1.52266-2.26461-.08666-4.81495-.13116-7.27461-.13116-2.35705,0-4.20137.0445-6.373.13116a.93759.93759,0,0,1-.09525-1.52266l1.51069-.219c1.08585-.17222,1.27745-.47676,1.27745-.73908a17.5791,17.5791,0,0,0-.89763-2.95984l-1.27745-3.74563c-.23383-.69808-.61306-.78475-2.26519-.78475Zm5.05391-2.30741c1.08528,0,1.32248-.13.94383-1.2649l-1.22787-3.52553c-.66036-1.874-1.27342-3.66013-1.7006-4.57488a50.44512,50.44512,0,0,0-1.93443,4.79277l-1.18051,3.26659c-.42543,1.176-.18816,1.30595.99,1.30595Z"/><path class="i" d="M128.36094,121.09448c0,1.17368.04788,1.30712,1.32078,1.30712h3.6373c2.50247,0,3.02483-.30682,3.49359-2.44085l.2361-1.0448a1.52249,1.52249,0,0,1,1.79871.04339c-.09466,1.39489-.14144,3.00539-.14144,4.66038,0,1.61277.04678,3.22215.14144,4.52927a1.52615,1.52615,0,0,1-1.79871.0445l-.2361-1.046c-.46876-2.08953-.99112-2.43741-3.49359-2.43741h-3.6373c-1.2729,0-1.32078.12889-1.32078,1.30595v5.88083c0,4.04907.284,4.39811,2.40891,4.65588l1.7462.219a1.28513,1.28513,0,0,1,0,1.52266c-2.92788-.08666-5.24324-.13116-7.50785-.13116-2.17169,0-4.53271.0445-7.36991.13116a1.16783,1.16783,0,0,1,0-1.52266l1.56033-.219c2.12323-.30227,2.40663-.60681,2.40663-4.65588v-16.203c0-4.048-.2834-4.44145-2.40663-4.746l-.94669-.13c-.422-.26116-.422-1.35045.09583-1.52494,2.032.08672,4.3935.13233,6.66044.13233h9.919c3.02254,0,5.71661-.04561,6.3747-.13233,0,.74025,0,3.87457.09354,6.79329-.18594.479-1.22839.52471-1.79415.17455a10.19235,10.19235,0,0,0-1.37322-3.39664c-.79842-.91708-2.215-1.43717-4.62511-1.43717h-3.68636c-1.55571,0-1.55571.08783-1.55571,1.785Z"/><path class="i" d="M154.73716,120.74433c0,1.2204.04678,1.30823,1.32079,1.30823h3.26034c2.45452,0,3.02029-.30455,3.4902-2.39519l.23838-1.0904c.33188-.34788,1.51128-.34788,1.7485.04677-.0935,1.39151-.14145,2.95867-.14145,4.6136,0,1.65616.048,3.22216.14145,4.61711a1.44745,1.44745,0,0,1-1.7485.04333l-.23838-1.08813c-.46991-2.08953-1.03568-2.43968-3.4902-2.43968H156.058c-1.274,0-1.32079.04333-1.32079,1.34928v5.1828c0,2.00631.18933,3.399.75392,4.13918.61475.78247,1.51355,1.13034,4.95984,1.13034,4.10723,0,5.71544-.12777,8.31479-5.04819a1.2018,1.2018,0,0,1,1.7451.21665,23.1434,23.1434,0,0,1-1.98231,6.9644c-2.50474-.08666-7.04085-.13116-10.91022-.13116h-6.14146c-2.27092,0-4.58143.0445-8.12524.13116a1.16473,1.16473,0,0,1,0-1.52266l2.21959-.3011c2.12375-.3091,2.4089-.57031,2.4089-4.57377V115.64819c0-3.959-.28515-4.22128-2.4089-4.61366l-1.1794-.21671a1.03775,1.03775,0,0,1,.09238-1.52494c2.22076.08672,4.53383.13233,6.80445.13233h10.01317c3.02139,0,5.71428-.04561,6.32682-.13233.04788.698.37982,3.83007.61247,6.75113-.187.47676-1.27173.56687-1.74393.17221a9.80973,9.80973,0,0,0-1.79526-3.43886c-.8988-.83036-2.31541-1.35045-4.63194-1.35045h-3.77588c-1.55689,0-1.55689.08783-1.55689,1.696Z"/><path class="i" d="M182.59757,112.68953c0-1.04363,0-1.26262-1.13263-1.26262h-2.929c-3.44681,0-4.44145,1.74054-5.85461,4.9182a1.3903,1.3903,0,0,1-1.74849-.38665,49.86323,49.86323,0,0,0,1.55688-7.40466,1.20268,1.20268,0,0,1,.66036-.219,1.14426,1.14426,0,0,1,.66043.17566c.2361.74025.37638.91475,3.97151.91475h17.56611c3.11721,0,3.83008-.04561,4.25433-.957a1.23164,1.23164,0,0,1,.61254-.13344,1.03091,1.03091,0,0,1,.70713.30683,28.45557,28.45557,0,0,0-.70713,7.489c-.235.3901-1.51356.48021-1.74966.13005-.803-2.78761-1.46222-4.83381-5.00375-4.83381h-2.83206c-1.13946,0-1.27745.13-1.27745,1.26262V131.8969c0,4.04907.28288,4.39811,2.40663,4.65588l1.89109.219a1.29952,1.29952,0,0,1,0,1.52266c-3.0716-.08666-5.43262-.13116-7.55749-.13116-2.26752,0-4.72087.0445-8.02858.13116a1.16783,1.16783,0,0,1,0-1.52266l2.126-.219c2.1261-.21782,2.4078-.60681,2.4078-4.65588Z"/><path class="i" d="M221.10133,131.8969c0,4.04907.284,4.39811,2.4089,4.65588l1.89109.219a1.2923,1.2923,0,0,1,0,1.52266c-3.0705-.08666-5.38357-.13116-7.64877-.13116-2.26974,0-4.63076.0445-7.41832.13116a1.15458,1.15458,0,0,1,0-1.52266l1.60477-.219c2.12375-.30227,2.41118-.60681,2.41118-4.65588v-2.18075a8.32918,8.32918,0,0,0-1.27628-5.18052l-5.62422-10.71237c-.93869-1.785-1.36529-2.48529-3.018-2.74423l-1.60827-.26121c-.422-.349-.38093-1.39261.18821-1.52494,2.12831.08672,3.87341.13233,6.66214.13233,2.87772,0,5.28891-.04561,6.89257-.13233.4277.17449.5212,1.176.09466,1.52494l-1.60483.34787c-.84747.17228-1.13255.34794-1.13255.39127,0,.35015.23492,1.0014,1.22494,3.04877l2.2253,4.65927c.706,1.43711,1.6025,3.17993,2.17054,4.26806,1.36527-2.1352,2.68944-4.66044,3.96579-6.8823,1.79409-3.08982,2.45907-4.5281,2.45907-5.05047,0-.26232-.47332-.4346-1.60821-.60909l-1.08586-.17338c-.3752-.21666-.4277-1.30706.048-1.52494,1.88765.08672,3.58708.13233,5.2854.13233,1.79532,0,3.26093-.04561,4.62738-.13233.57026.17449.57026,1.21928.19161,1.52494l-1.22957.21671a3.72205,3.72205,0,0,0-2.26174,1.046,44.9056,44.9056,0,0,0-4.15518,6.183l-2.97916,4.96381a9.069,9.069,0,0,0-1.70059,5.61623Z"/><path class="i" d="M109.72212,150.99823c0-4.39806-.09752-4.836-2.07417-5.09381l-1.27628-.17455c-.42771-.21782-.52354-1.52494.18763-1.56483,3.58656-.219,7.03734-.39354,11.75821-.39354,4.535,0,7.55522.47793,9.63277,1.60939a5.996,5.996,0,0,1,3.2621,5.52951c0,3.65675-3.35331,5.09613-4.819,5.44173-.47273.08666-.94382.26233-.94382.48021,0,.13227.23551.2646.66211.35015,3.73087.74136,6.89369,3.00427,6.94384,7.229.0445,4.00574-2.55262,6.35415-5.52611,7.31339a31.787,31.787,0,0,1-9.40006,1.0904c-1.7006,0-3.49307-.17677-4.86862-.17677-2.3108,0-4.62557.04789-7.31678.13-.37871-.25887-.37871-1.39261,0-1.51921l1.37036-.26466c2.12206-.38893,2.4078-.69686,2.4078-4.61477Zm6.51614,4.22361c0,1.13029.04847,1.217,2.50527,1.217,4.06331,0,5.57289-2.38951,5.57289-5.00486,0-3.7913-2.55151-5.66295-5.80444-5.66295-2.22525,0-2.27372.35127-2.27372,2.26519Zm0,10.05879c0,3.39547.47279,5.5295,4.15629,5.5295,3.49814,0,5.33849-2.47962,5.33849-6.00854,0-3.78675-2.35816-6.4432-6.89485-6.4432-2.59993,0-2.59993.04222-2.59993,1.785Z"/><path class="i" d="M138.6136,150.169c0-4.04679-.28171-4.31139-2.41-4.70377l-1.18051-.21671a.98369.98369,0,0,1,.09577-1.47706c2.2652.08672,4.62622.12778,6.89368.12778,2.31425,0,4.63077-.04106,6.89824-.12778a1.10279,1.10279,0,0,1,0,1.47706l-1.136.17683c-2.12376.34559-2.40774.69686-2.40774,4.74365v10.061c0,5.095.61357,10.70893,7.79668,10.70893,6.04393,0,7.88258-4.86915,7.88258-10.8412v-5.26607c0-3.53009-.187-6.84124-.70719-7.97153-.42315-.91247-1.46334-1.17368-2.73793-1.39495l-1.27178-.21671a1.21176,1.21176,0,0,1,0-1.47706c2.54748.08672,4.3918.12778,6.3274.12778,1.7451,0,3.49131-.04106,5.29346-.12778a1.2353,1.2353,0,0,1,0,1.47706l-.85658.17683c-1.22728.26115-2.12608.52236-2.55034,1.43366-.51671,1.13146-.70492,4.44261-.70492,7.9727v4.876c0,4.0924-.42771,7.83809-3.02366,10.49332-2.07418,2.04509-5.52671,3.1366-9.35392,3.1366-3.58912,0-6.80212-.52237-9.35019-2.43741-2.46024-1.87281-3.497-5.09841-3.497-9.841Z"/><path class="i" d="M179.99133,173.33765a17.45911,17.45911,0,0,1-8.03086-1.65838c-.89991-.957-1.51355-4.089-1.51355-7.04768a1.225,1.225,0,0,1,1.79188-.13455c.95013,2.83206,4.11524,6.83546,8.12892,6.83546,3.49247,0,5.0984-2.22069,5.0984-4.39805,0-3.5267-3.5894-5.61506-6.42264-6.92335-3.4-1.56716-7.13089-4.17906-7.13089-8.48934-.04678-4.92159,4.1084-8.316,10.9553-8.316a20.8288,20.8288,0,0,1,5.38807.69348,11.09466,11.09466,0,0,0,1.60366.35015,19.7077,19.7077,0,0,1,.84864,6.22415c-.235.52465-1.41778.56687-1.83976.13461-.8007-2.22414-2.83551-5.4018-6.23332-5.4018-3.11949,0-4.81893,1.87165-4.81893,4.05018,0,2.00287,1.93554,3.83124,4.29773,4.965l3.11377,1.52266c2.93016,1.43828,6.66213,3.96352,6.66213,8.75283C191.88988,169.85434,187.11767,173.33765,179.99133,173.33765Z"/><g class="j"><rect class="k" x="-0.25447" y="78.14018" width="298.02107" height="20.12101"/></g><path class="i" d="M93.945,88.61984a12.05846,12.05846,0,0,1-1.94984,3.55922c1.306.51723,2.75281,1.05332,4.434,1.84029L95.08846,96.256a51.48218,51.48218,0,0,0-4.97012-2.361c-1.93266,1.32423-4.59765,2.04054-8.44256,2.41463l-.76875-2.377a20.52038,20.52038,0,0,0,6.52753-1.11038c-1.27-.43056-2.73851-.85885-4.15-1.25175.35874-.67981,1.0379-1.663,1.62877-2.95072H80.63788v-2.2002H85.896a26.64881,26.64881,0,0,0,.913-2.52068l2.44938.44657a18.22111,18.22111,0,0,1-.698,2.07411h8.17341v2.2002Zm.21613-3.14741v-1.789H83.21444v1.789H81.06669v-3.9356h6.36787V80.21318h2.44885v1.32365h6.42148v3.9356Zm-6.54808,3.14741a17.76853,17.76853,0,0,1-.9826,1.75193c1.03621.28743,2.00059.5372,2.94955.876a8.34881,8.34881,0,0,0,1.80555-2.62789Z"/><path class="i" d="M116.04946,87.31505a10.44838,10.44838,0,0,1-1.69885-.78819v1.03627H109.7717v1.89676h4.29259v2.14717H109.7717v2.11h6.74144v2.14548h-15.5946V93.71708h6.67125v-2.11H103.3149V89.45989h4.27489V87.56313h-4.48932v-.91077a9.47275,9.47275,0,0,1-1.67894.73225l-.93186-2.25264c3.52442-1.03738,6.17054-3.3271,7.06479-4.91879h2.32446a15.021,15.021,0,0,0,7.0277,4.86629Zm-7.28032-5.00831a13.22555,13.22555,0,0,1-3.594,3.2016h7.42177A14.03314,14.03314,0,0,1,108.76914,82.30674Z"/><path class="i" d="M122.30842,89.60419l-1.61108-1.09157a36.101,36.101,0,0,0,.37643-5.95669l1.57341.33993A58.29837,58.29837,0,0,1,122.30842,89.60419Zm4.077,6.25837V93.80491h4.32733V90.58737H127.2272V88.548h3.48559V85.84594h-2.10892a10.24464,10.24464,0,0,1-1.038,2.12948l-1.10973-1.42917-.83836.57259c-.18021-.84233-.30455-2.36213-.52008-3.04077V96.30965h-2.1449V80.21318h2.1449V83.165l.91129-.48249s.30572,1.19821.60792,2.39694A16.89559,16.89559,0,0,0,127.818,81.0008l2.05531.55372a21.59222,21.59222,0,0,1-.5897,2.25433h1.42917V80.21318h2.21842v3.59567H136.58v2.03709h-3.64875V88.548h3.25526v2.03936h-3.25526v3.21754h3.862v2.05765Z"/><path class="i" d="M140.72941,85.06008V83.21863h6.65069v1.84145Zm2.45,10.60626v.64331H141.14V90.694h5.88428v4.97233Zm-1.82382-13.217V80.64375h5.45312v1.80554Zm0,5.04364v-1.6641h5.45312v1.6641Zm0,2.43116V88.26168h5.45312v1.66241Zm3.70236,2.54007h-1.95043V93.895h1.95043Zm8.0294-2.0205v5.866h-2.07587v-5.866h-3.75567V88.38829h3.75567V82.70023H147.5957V80.64375h8.83862v2.05648h-3.347v5.68806h3.73822v2.05537Zm-4.21871-2.361a39.77642,39.77642,0,0,0-1.25468-4.25667l1.75053-.59081s.84286,2.29089,1.32651,4.11582Zm6.45482.0365L153.4443,87.331a16.14112,16.14112,0,0,0,1.1457-4.14887l1.85916.62672A35.83154,35.83154,0,0,1,155.32342,88.11913Z"/><path class="i" d="M164.58548,84.43447V96.30965h-2.16481V87.923a14.38168,14.38168,0,0,1-1.12462,1.25118l-.625-2.89764a13.17063,13.17063,0,0,0,2.98488-5.88311l2.20137.59029A23.32386,23.32386,0,0,1,164.58548,84.43447Zm9.12237-1.53861V84.666h2.77162V96.30965H174.4036v-.82352h-6.3473v.82352h-2.07471V84.666h2.7739V82.89586H165.8926V80.751h10.8903v2.14489Zm-4.706,3.79072h-.94551V93.465h.94551Zm2.70435,0h-.933V93.465h.933Zm-.05706-3.79072h-.83947V84.666h.83947Zm2.7545,3.79072h-.9284V93.465h.9284Z"/><path class="i" d="M180.78975,85.20438V83.23515h6.296v1.96923Zm7.69209,10.20992-1.57744-.91136v1.12579h-3.55747v.68092h-2.142V90.71223h5.6995v3.05619a16.78738,16.78738,0,0,0,.76986-3.79014l1.7166.48249A20.20512,20.20512,0,0,1,188.48184,95.4143Zm-7.066-12.85837V80.64375h5.27519v1.91218Zm0,5.08072V85.90183h5.27519v1.73482Zm0,2.39524V88.29707h5.27519v1.73482Zm3.55747,2.50357h-1.80664v1.233h1.80664Zm8.29891-4.166-.66042-1.91445-.39464.5897a8.93847,8.93847,0,0,0-1.144-.64214,8.29945,8.29945,0,0,1-2.3428,2.59251l-1.59221-1.71771a5.16013,5.16013,0,0,0,2.03821-1.7166c-.58855-.23149-1.28546-.46532-2.03821-.67865l.83947-1.66351c.682.16024,1.30939.33935,1.89448.51839a4.28557,4.28557,0,0,0,.14827-1.07329h-2.2903v-2.02H196.475v3.93391C196.475,87.923,196.16933,88.13741,193.27227,88.36948Zm1.94926,7.15315s-.162-1.09152-.341-1.96748c-.3171,2.27091-.57143,2.43174-2.361,2.43174H191.574c-1.51928,0-2.004-.21444-2.004-1.66183V89.38858h1.7006a5.02444,5.02444,0,0,0-.59192-.66036l1.53862-1.09157c1.02084,1.03621,1.96753,2.2162,1.96753,2.2162l-1.69949,1.23464s-.33987-.572-.84175-1.26887v3.77419c0,.30221.09238.33988.44937.33988h.28516c.43,0,.52014-.07417.57259-1.86143l1.7896.9638a24.672,24.672,0,0,0-.73342-2.48535l1.76787-.803a29.51382,29.51382,0,0,1,1.29,4.84631Zm-.82236-12.8589h-2.34046a7.48979,7.48979,0,0,1-.25211,1.75252c.85886.32335,1.67894.71572,1.67894.71572l-.69347,1.05618c1.44738,0,1.6071-.01886,1.6071-1.25292Z"/><path class="i" d="M216.18311,95.93556H210.892c-3.132,0-5.20681-.84064-6.58459-2.43285a8.56468,8.56468,0,0,1-2.12836,2.80694l-1.39378-2.2538a8.405,8.405,0,0,0,2.77163-5.65214l2.16368.39406a15.49966,15.49966,0,0,1-.53609,2.57546,5.05317,5.05317,0,0,0,2.77278,2.02226V87.06412h-5.152V85.57906h-1.5535V81.32239h6.34737V80.21318h2.4659v1.10921h6.42037v4.25667h-1.14173v1.48506h-5.15542v2.18075h4.65355v2.05647h-4.65355v2.39752h.52126l6.24126-.14371Zm-1.87626-12.5738h-10.8743v1.6453h10.8743Z"/><polygon class="l" points="148.506 50.677 157.046 53.452 170.859 43.413 148.506 50.672 148.506 50.677"/><polygon class="m" points="148.506 50.672 170.859 43.413 153.786 43.413 148.506 50.672"/><polygon class="n" points="148.506 50.677 148.506 50.677 162.321 69.687 157.046 53.452 148.506 50.677"/><polygon class="m" points="148.506 50.677 148.506 50.677 134.688 69.687 148.506 59.656 148.506 50.677"/><polygon class="l" points="148.506 50.677 139.966 53.452 134.688 69.687 148.506 50.677"/><polygon class="l" points="148.506 59.657 162.321 69.687 148.506 50.677 148.506 59.657"/><polygon class="m" points="148.506 50.677 143.226 43.413 126.148 43.413 148.506 50.677"/><polygon class="l" points="126.148 43.413 139.966 53.452 148.506 50.677 126.148 43.413"/><polygon class="n" points="148.506 50.677 148.506 50.672 148.506 27.169 143.226 43.413 148.506 50.677"/><polygon class="l" points="153.786 43.413 148.506 27.169 148.506 50.672 153.786 43.413"/><g class="o"><g class="p"><polygon class="l" points="148.506 50.677 157.046 53.452 170.859 43.413 148.506 50.672 148.506 50.677"/><polygon class="m" points="148.506 50.672 170.859 43.413 153.786 43.413 148.506 50.672"/><polygon class="n" points="148.506 50.677 148.506 50.677 162.321 69.687 157.046 53.452 148.506 50.677"/><polygon class="m" points="148.506 50.677 148.506 50.677 134.688 69.687 148.506 59.656 148.506 50.677"/><polygon class="l" points="148.506 50.677 139.966 53.452 134.688 69.687 148.506 50.677"/><polygon class="l" points="148.506 59.657 162.321 69.687 148.506 50.677 148.506 59.657"/><polygon class="m" points="148.506 50.677 143.226 43.413 126.148 43.413 148.506 50.677"/><polygon class="l" points="126.148 43.413 139.966 53.452 148.506 50.677 126.148 43.413"/><polygon class="n" points="148.506 50.677 148.506 50.672 148.506 27.169 143.226 43.413 148.506 50.677"/><polygon class="l" points="153.786 43.413 148.506 27.169 148.506 50.672 153.786 43.413"/></g></g><g class="o"><g class="p"><polygon class="l" points="148.506 50.677 157.046 53.452 170.859 43.413 148.506 50.672 148.506 50.677"/><polygon class="m" points="148.506 50.672 170.859 43.413 153.786 43.413 148.506 50.672"/><polygon class="n" points="148.506 50.677 148.506 50.677 162.321 69.687 157.046 53.452 148.506 50.677"/><polygon class="m" points="148.506 50.677 148.506 50.677 134.688 69.687 148.506 59.656 148.506 50.677"/><polygon class="l" points="148.506 50.677 139.966 53.452 134.688 69.687 148.506 50.677"/><polygon class="l" points="148.506 59.657 162.321 69.687 148.506 50.677 148.506 59.657"/><polygon class="m" points="148.506 50.677 143.226 43.413 126.148 43.413 148.506 50.677"/><polygon class="l" points="126.148 43.413 139.966 53.452 148.506 50.677 126.148 43.413"/><polygon class="n" points="148.506 50.677 148.506 50.672 148.506 27.169 143.226 43.413 148.506 50.677"/><polygon class="l" points="153.786 43.413 148.506 27.169 148.506 50.672 153.786 43.413"/></g></g><path class="q" d="M129.25057,202.06777l-3.27687-4.499.05016,4.499h-1.45767v-6.61425h1.40751l3.27687,4.499-.04906-4.499h1.45767v6.61425Z"/><path class="q" d="M134.77441,202.25254a3.50007,3.50007,0,1,1,3.26093-3.49189A3.212,3.212,0,0,1,134.77441,202.25254Zm-1.7371-3.49189c0,1.86312,1.087,2.23272,1.7371,2.23272.57715,0,1.7371-.29374,1.7371-2.23272,0-1.91387-1.136-2.23267-1.7371-2.23267C134.18244,196.528,133.03731,196.84678,133.03731,198.76065Z"/><path class="q" d="M140.37236,200.5485v1.51927h-1.44849V200.5485Z"/><path class="q" d="M112.7817,206.60271a2.18455,2.18455,0,0,1-.43453.3359l-.28517-.85769a2.85389,2.85389,0,0,0,1.17993-1.298l.59256.31313a5.03384,5.03384,0,0,1-.41293.72366v1.50672h-.63986Zm2.94845-.29824c.16362.21613.48131.57428.70883.57428.14827,0,.21157-.38781.22757-.48475l.519.39523c-.069.57428-.23271.95463-.56692.96946v2.95353h-.93641a2.86849,2.86849,0,0,0,1.45539.35815l-.26459.83491a3.713,3.713,0,0,1-1.789-.73108l.31769-.462h-1.66183l.29082.462a3.74444,3.74444,0,0,1-1.67777.72425l-.24865-.82125a3.35556,3.35556,0,0,0,1.339-.365h-.7938v-3.2666h3.17538a3.0745,3.0745,0,0,1-.831-1.09665l-1.31792.08952-.02622-.76822,1.02652-.06669c-.09466-.29088-.15341-.49276-.21157-.72372l.65066-.09694c.06961.239.14372.49217.24925.77558l.69861-.04444a2.53221,2.53221,0,0,0-.39179-.38782l.418-.44026a3.39468,3.39468,0,0,1,.6193.59653l-.16876.2013.56569-.03709.02681.76081Zm-2.43,1.7451v.35074h2.66784v-.35074Zm0,.8275v.35809h2.66784v-.35809Zm0,.85085v.35816h2.66784v-.35816Z"/><path class="q" d="M117.8807,207.80378l-.46023.11177-.04789-.925.50812-.11919v-2.02851h.64559v1.86424l1.02137-.25322.016.9245-1.03732.26115V209.526c0,.12661.0108.15627.10546.15627h.20644c.07983,0,.10611-.14827.11177-.2156.04222-.35815.05817-.828.05817-.87252l.55548.179c-.09011,1.282-.21158,1.7976-.66153,1.7976h-.64559c-.23838,0-.37579-.28405-.37579-.60454Zm1.49814-2.685h2.88455a43.49385,43.49385,0,0,1-.25438,6.14549c-.04216.14138-.17449.60337-.6558.60337h-.86855l-.13233-.94669h.73056c.16935,0,.24865-.008.31762-.29888a35.40656,35.40656,0,0,0,.18535-4.58627h-.67239c-.0108,3.06477-.35985,4.5715-1.826,5.87744l-.4711-.79158c1.49819-1.1109,1.6248-2.66953,1.6248-5.08586h-.8623Z"/><path class="q" d="M122.76748,210.71222c.519-.90219,1.00088-2.22239,1.10641-5.30252l.70427.08952c-.17507,3.52723-.572,4.8104-1.22781,5.959Zm3.578-5.31794c.25433,3.30427.87369,4.572,1.31851,5.33277l-.65125.70831a13.83981,13.83981,0,0,1-1.32879-5.9213Zm.36043.84292a10.35236,10.35236,0,0,0-.23837-1.28259l.40714-.13461a7.47157,7.47157,0,0,1,.26466,1.25351Zm.69348-.11919a8.36831,8.36831,0,0,0-.27033-1.22332l.42316-.134a9.0094,9.0094,0,0,1,.27033,1.2159Z"/><path class="q" d="M128.04157,210.74188a6.89489,6.89489,0,0,0,2.97921-4.30339h-2.6724v-.95468h3.6202a9.512,9.512,0,0,1-.97408,3.09555,22.32027,22.32027,0,0,1,1.76338,2.15452l-.59881.82808a19.9695,19.9695,0,0,0-1.58771-2.2298A6.38718,6.38718,0,0,1,128.459,211.57Z"/><path class="q" d="M135.59677,206.65521c-.05816.22354-.106.40259-.25438.83491h2.76251v.91019h-.884a5.19708,5.19708,0,0,1-.65581,1.68577,9.91609,9.91609,0,0,1,1.38123.87935l-.43909.88052a9.7086,9.7086,0,0,0-1.52495-1.05957,4.73355,4.73355,0,0,1-2.51957,1.06646l-.227-.98435a3.9821,3.9821,0,0,0,1.94815-.50753,14.99364,14.99364,0,0,0-1.61511-.68554,11.64831,11.64831,0,0,0,.657-1.27511H133.1297v-.91019h1.43939a9.28091,9.28091,0,0,0,.28633-.96952Zm-2.34046-1.20107h2.012V204.82h.69347v.63414h2.01653v1.75252h-.67747v-.87994h-3.37159v.87994h-.67292Zm1.753,2.94617a8.275,8.275,0,0,1-.37065.80525c.42315.179.89418.37292,1.2535.544a3.93787,3.93787,0,0,0,.61476-1.34928Z"/><path class="q" d="M139.27174,207.453a7.4827,7.4827,0,0,1-.63531.43284l-.31254-.925a5.24789,5.24789,0,0,0,2.21275-2.13286h.74591a4.88835,4.88835,0,0,0,2.21847,2.12545l-.33421.92443a6.08166,6.08166,0,0,1-.58742-.39518v.552H141.262v.85716h1.62989v.82119H141.262v1.02879h2.10665v.90219h-4.91247v-.90219h2.12257v-1.02879h-1.62988v-.82119h1.62988v-.85716h-1.30706Zm2.937-.28346a7.87342,7.87342,0,0,1-1.30712-1.58142,6.87388,6.87388,0,0,1-1.29684,1.58142Z"/><path class="q" d="M144.23327,206.252a12.37256,12.37256,0,0,1-.16427,2.44658l-.43454-.373a12.1084,12.1084,0,0,0,.1745-2.081Zm1.60822,2.23786-.01028.02967-.52353-.57429a5.057,5.057,0,0,0,.31254-.78305l-.33876.2983a7.73305,7.73305,0,0,0-.26005-1.00661v5.40694h-.63986V204.82h.63986v1.42456l.33871-.29083a8.00569,8.00569,0,0,1,.31827.98488,8.96029,8.96029,0,0,0,.25321-1.82779l.62958.142a9.36484,9.36484,0,0,1-.12088,1.09613h.40715V204.82h.66153v1.529h1.11207v.86569H147.509v1.25292h.98435v.84975H147.509v1.40178h1.20218v.86569h-3.38754v-.86569h1.52383v-1.40178h-1.006Zm1.006-.02225v-1.25292h-.58736a6.56293,6.56293,0,0,1-.4072,1.25292Z"/><path class="q" d="M148.99287,206.13278h2.02768v.75339h-2.02768Zm.15972-1.07382H150.862v.73109h-1.70941Zm0,2.1557H150.862v.738h-1.70941Zm0,1.1109H150.862v.73856h-1.70941Zm0,1.09671h1.73V211.57h-1.11662v.276h-.61335Zm.61335.71514v.71625h.53948v-.71625Zm2.4454,1.70854v-2.52068h-1.15429v-.90277h1.15429v-2.491h-1.0539V205.059h2.78014v.87252h-1.0647v2.491h1.12287v.90277h-1.12287V211.846Zm-.5247-5.586a11.53947,11.53947,0,0,1,.34449,1.77477l-.60337.17163a10.67011,10.67011,0,0,0-.3011-1.75252Zm2.2555.134a10.66108,10.66108,0,0,1-.34327,1.81237l-.60967-.2013a11.56439,11.56439,0,0,0,.34449-1.7531Z"/><path class="q" d="M154.68583,208.52692a3.63575,3.63575,0,0,1-.23838.40259l-.22244-1.23009a6.75008,6.75008,0,0,0,.72542-2.88684l.66153.07469a12.7847,12.7847,0,0,1-.29654,1.89454v5.08587h-.62959Zm4.604-3.47537v.8651h-1.13658v1.06646h.978v4.88457h-.58683v-.29088h-2.28686v.29088h-.5817v-4.88457h.98429v-1.06646h-1.02651v-.8651Zm-3.03224,2.75964v2.90792h.40259v-2.90792Zm.94779-1.89454v1.06646h.40266v-1.06646Zm0,1.89454v2.90792h.40266v-2.90792Zm.94787,0v2.90792h.3912v-2.90792Z"/><path class="q" d="M159.57261,206.118h1.996v.75333h-1.996Zm.154-1.059h1.6721v.72367h-1.6721Zm0,2.1557h1.6721v.73055h-1.6721Zm0,1.11832h1.6721v.68547h-1.6721Zm1.6721,2.87083v.35815h-1.10634v.29088h-.56576v-2.43057h1.6721v1.40861a5.75261,5.75261,0,0,0,.27488-1.55122l.5452.10494a8.42962,8.42962,0,0,1-.41742,2.17053Zm-1.10634-1.08123v.72424h.59881v-.72424Zm1.42455-4.29545V205.059h2.71463a17.17948,17.17948,0,0,1-.11639,2.6849c-.06383.30571-.16877.6342-.52348.6342h-.5612l-.10039-.82066c-.07411-.05986-.16994-.14144-.3661-.276a3.9252,3.9252,0,0,1-.95807,1.31284l-.39126-.69347a2.2008,2.2008,0,0,0,.80413-.925,4.7723,4.7723,0,0,0-.52353-.231l.21216-.66381a4.83163,4.83163,0,0,1,.54975.20872c.032-.179.04789-.29088.06389-.46251Zm.59771,3.505h.56686v1.43939c0,.13461.02622.20188.09466.20188h.21216c.09467,0,.14255-.06727.16877-.70942l.51327.22466c-.04217.66381-.08439,1.30484-.49727,1.30484h-.63986c-.39693,0-.41859-.44709-.41859-.5292Zm.37064-1.26034a4.5118,4.5118,0,0,1,.93641.91013l-.333.61937a4.4004,4.4004,0,0,0-.94213-.93986Zm.44943-2.24469a5.93982,5.93982,0,0,1-.13233.73855,3.11715,3.11715,0,0,1,.51326.37293l-.24293.61879h.29654c.07417,0,.14255-.01484.18477-.231a9.13507,9.13507,0,0,0,.08439-1.4993Zm1.05846,3.31109a9.94771,9.94771,0,0,1,.46076,2.12609l-.5817.29765a11.565,11.565,0,0,0-.40259-2.18536Z"/><path class="q" d="M166.4823,208.236a11.74244,11.74244,0,0,1-.24294,1.40178,2.03385,2.03385,0,0,0,.82009.933v-2.81956H165.482v-.5292h-.46082V205.4097h2.02226v-.59712h.67753v.59712h2.03248v1.81238h-.471v.5292H167.721v.94727h1.582v.8651h-1.582v1.2079a2.89444,2.89444,0,0,0,.31249.01483h1.9002l-.138.89536h-1.86826a1.97372,1.97372,0,0,1-1.9162-1.22273,4.32482,4.32482,0,0,1-.74592,1.379l-.42888-.79041a5.04308,5.04308,0,0,0,1.0003-2.93817Zm2.6199-1.34987V206.26h-3.424v.6262Z"/><path class="q" d="M172.35968,208.10943v-1.1189a5.58849,5.58849,0,0,1-1.9367,1.54374l-.276-.85027a4.05774,4.05774,0,0,0,1.46106-.79783h-1.41317v-.746h2.1648v-.38035c-.2486.00742-1.47133.03761-1.74621.03761l-.12777-.7385c.22816.00742.38671.01484.65131.01484a15.06992,15.06992,0,0,0,3.47192-.35816l.2806.76817a11.06963,11.06963,0,0,1-1.9002.25379v.4026h2.18074v.746h-1.43938a4.63465,4.63465,0,0,0,1.51927.81325l-.30681.81266a4.66319,4.66319,0,0,1-1.95382-1.529v1.13374h-.61365l.365.1266c-.05817.142-.11066.26122-.20643.44768h2.63583v.79041h-.8839a3.89066,3.89066,0,0,1-.48138,1.0288,9.17839,9.17839,0,0,1,1.13263.5897l-.48131.79841a6.15445,6.15445,0,0,0-1.2284-.73908,5.53032,5.53032,0,0,1-2.71007.70831l-.18477-.90908a7.947,7.947,0,0,0,1.92076-.21672,9.50693,9.50693,0,0,0-1.59794-.44709,9.57363,9.57363,0,0,0,.61359-.81325h-1.0744v-.79041h1.55122c.15282-.29082.23721-.48476.32276-.67864Zm-.26459,1.37211c-.07984.13461-.14828.23838-.25894.4106a12.92957,12.92957,0,0,1,1.25923.35021,2.07993,2.07993,0,0,0,.46537-.76081Z"/><path class="q" d="M175.41073,211.10687a3.07269,3.07269,0,0,0,1.49761-.55887h-1.00029v-3.42286h4.13917V210.548h-1.04251a2.9536,2.9536,0,0,0,1.53521.52237l-.276.81208a4.10816,4.10816,0,0,1-1.78844-.82008l.37071-.51437h-1.80554l.36037.5292a4.30129,4.30129,0,0,1-1.69943.82808Zm.66725-6.093h3.80041v1.76052H176.078Zm.47111,3.09555h2.85827v-.373h-2.85827Zm0,.90219h2.85827v-.38776h-2.85827Zm0,.917h2.85827v-.38776h-2.85827Zm.16877-3.77361h2.50928v-.48476h-2.50928Z"/><path class="q" d="M181.89154,207.24432a6.82334,6.82334,0,0,1-.852.62615l-.32849-.917a5.0107,5.0107,0,0,0,2.2013-2.13345h.7517a5.33338,5.33338,0,0,0,2.18647,2.13345l-.33877.9096a4.917,4.917,0,0,1-.836-.63356v.42485h-2.78418Zm3.06933,4.6758c-.05823-.14944-.09472-.26122-.21105-.52926a23.38851,23.38851,0,0,1-3.68408.32054l-.08439-.93985c.06845,0,.63531.008.75619.008a13.62214,13.62214,0,0,0,.45511-1.54439h-1.26946v-.87193h4.71059v.87193H182.95c-.20077.66387-.333,1.0893-.49732,1.53639.16883,0,1.0528-.02967,1.92076-.12661-.11632-.22354-.25321-.46992-.53381-.925l.5612-.42542a12.40269,12.40269,0,0,1,1.1634,2.14086Zm-.70375-5.09386a6.60649,6.60649,0,0,1-.97408-1.26035,5.251,5.251,0,0,1-.95235,1.26035Z"/><path class="q" d="M178.18579,186.46634c.06161.01367.12316.0205.12316.09011,0,.07586-.07527.09011-.12316.09694-.02739.27032-.02739.33246-.03305.4089.31249,0,1.36639-.02056,1.8762.04164v1.03276a16.22268,16.22268,0,0,0-1.91042-.06213v.7625a8.7694,8.7694,0,0,0,1.72682-.32569v1.03283a12.67337,12.67337,0,0,1-1.69949.22868c0,.29824,0,.32563.01255.617a6.65174,6.65174,0,0,1,2.27092.91533,10.99908,10.99908,0,0,0-.75392.86627,5.46663,5.46663,0,0,0-1.45539-.8731c.01367.36043.06161,1.17823-1.428,1.17823-1.05391,0-1.82155-.49218-1.82155-1.12293,0-.79041.9718-1.13029,2.10781-1.10921,0-.15966,0-.15966-.00683-.4089-.673.01372-1.90365.03422-1.90365-.65184,0-.24293.12205-.46478.47565-.83888l.74819.17338c-.12316.1665-.14372.187-.14372.23552,0,.07639,0,.19447.79614.15966,0-.12491-.00683-.68664-.00683-.79724-.836.03474-1.57061.13174-2.1352.20754v-1.095c.33311-.03474,1.82265-.10435,2.12836-.12485,0-.26349,0-.53382-.02739-.85261Zm-1.4075,4.57541c-.03305,0-.68658,0-.68658.284,0,.22869.37409.24977.49042.24977.333,0,.53609-.12491.49615-.50642A1.48642,1.48642,0,0,0,176.77829,191.04175Z"/><path class="q" d="M186.877,187.51966a3.19442,3.19442,0,0,0-3.13432,2.63473c0,.80414.99919,1.19932,1.92415,1.21988a9.43364,9.43364,0,0,0-.511,1.262c-.54976-.15283-2.50129-.70714-2.50129-2.36441a3.16321,3.16321,0,0,1,1.25122-2.38438,18.19831,18.19831,0,0,0-2.81494.43623l-.15627-1.30309a21.64469,21.64469,0,0,0,3.02482-.15913,16.07477,16.07477,0,0,0,2.72712-.50637Zm-1.12917.98488a4.25211,4.25211,0,0,1,.63186.74136c-.18933.13864-.2851.215-.52348.41632a5.562,5.562,0,0,0-.60453-.78358Zm.714-.4927a4.42389,4.42389,0,0,1,.60564.72822c-.17111.13174-.28633.23558-.49732.43a5.09386,5.09386,0,0,0-.60446-.78358Z"/><path class="q" d="M192.42369,183.48146c.10716.00969.18478.01991.18478.1186,0,.06955-.04905.09922-.18478.17847-.049.19791-.08783.31651-.15516.56406h4.28289v1.25748h-4.76876c-.19388.406-.29082.57428-.35926.69289h4.02051V191.332c0,.50474,0,1.30654-2.19447,1.168a4.00873,4.00873,0,0,0-.41743-1.43542,2.83516,2.83516,0,0,0,.7573.17852c.37871,0,.37871-.15855.37871-.34676v-.43571H191.1804V192.5h-1.45649v-4.04907a6.57255,6.57255,0,0,1-1.14629.87141,3.08305,3.08305,0,0,0-1.05846-.92046,6.44751,6.44751,0,0,0,2.75795-2.80181H187.713v-1.25748H190.763a6.3931,6.3931,0,0,0,.20416-1.059Zm1.54433,4.43513v-.39582H191.1804v.39582Zm-2.78762,1.059v.426H193.968v-.426Z"/><path class="q" d="M204.65528,183.35257c.05816,0,.1551,0,.1551.12889,0,.05927-.02966.09921-.22354.19785,0,.56459-.01028,1.14857-.01939,1.71257h1.63216a43.48883,43.48883,0,0,1-.2726,5.83125c-.146.67292-.36843,1.2176-1.631,1.2176a4.42322,4.42322,0,0,1-.68092-.04964,3.31405,3.31405,0,0,0-.35926-1.35617,6.11154,6.11154,0,0,1-1.69949,1.574,4.36854,4.36854,0,0,0-1.11663-.97c1.69032-1.01969,2.50585-2.07873,2.68041-4.9199h-.97064v-.98032h-1.10751a7.209,7.209,0,0,1,1.55344,1.71257,3.93279,3.93279,0,0,0-1.03907.85144c-.0285-.04958-.05817-.09922-.09694-.15855l-.04906.01028a11.43674,11.43674,0,0,1-.61131,1.29684,6.32409,6.32409,0,0,1,.79608,1.079,6.92785,6.92785,0,0,0-1.09723.84116,6.30744,6.30744,0,0,0-.43682-.70258,7.57,7.57,0,0,1-1.87515,1.89109,2.78011,2.78011,0,0,0-1.136-.921,5.46094,5.46094,0,0,0,2.1363-2.00971c-.12543-.1186-.60219-.604-1.14629-1.06932l.96152-.90043a6.46529,6.46529,0,0,1,.82581.74247,4.57648,4.57648,0,0,0,.35015-.97063l1.03.35646a8.12091,8.12091,0,0,0-1.21473-1.27687l.9718-.77219h-2.27319l1.16567.70258a.1662.1662,0,0,1,.08783.12888c0,.13858-.13688.14886-.341.16825a9.665,9.665,0,0,1-1.49533,1.43542,5.1282,5.1282,0,0,0-1.12691-.82119,7.5248,7.5248,0,0,0,1.6995-1.61394h-1.32079v-1.22782h1.826V183.2436l1.53522.04964a.12124.12124,0,0,1,.13579.11861c0,.08952-.07762.15855-.18478.2281v.87088h1.62188v.881h.86458v-2.08836Zm-.13688,3.3664a7.97107,7.97107,0,0,1-1.17479,4.19734,3.81726,3.81726,0,0,0,.8543.11861c.195,0,.46648,0,.5737-.52465a29.43477,29.43477,0,0,0,.21327-3.7913Z"/><path class="q" d="M98.17087,191.72956H91.64159c.12661-1.73885,1.08018-2.454,3.13322-3.88486,1.57627-1.09268,1.57627-1.32136,1.57627-1.73879,0-.7448-.77844-.93355-1.294-.93355-1.304,0-1.45.95352-1.48873,1.59905H91.7682a3.04508,3.04508,0,0,1,.61282-1.97659,3.25554,3.25554,0,0,1,2.69547-1.11323c2.2284,0,3.03592,1.25181,3.03592,2.39465a2.30888,2.30888,0,0,1-.438,1.36131,13.95526,13.95526,0,0,1-2.54918,2.05648,4.74429,4.74429,0,0,0-.99259.7653h4.03821Z"/><path class="q" d="M105.51964,187.944c0,.954-.21414,4.004-3.24037,4.004a2.93971,2.93971,0,0,1-2.56863-1.28142,6.10752,6.10752,0,0,1-.67151-2.98091c0-.95352.21414-4.004,3.24014-4.004C105.13042,183.68159,105.51964,186.32432,105.51964,187.944Zm-4.6804-.12888c0,.3279,0,2.633,1.44,2.633,1.44026,0,1.44026-2.29539,1.44026-2.633,0-.36785,0-2.633-1.44026-2.633C100.83924,185.18206,100.83924,187.45747,100.83924,187.8151Z"/><path class="q" d="M107.81789,186.64253h-1.67351v-1.3014c.99259-.03019,1.6832-.199,2.053-1.44055h1.42087v7.829h-1.8004Z"/><path class="q" d="M113.561,189.7723a1.08127,1.08127,0,0,0,1.16766.66556c1.50812,0,1.615-1.33106,1.6735-2.09642a2.58735,2.58735,0,0,1-2.06272.73511,2.45192,2.45192,0,0,1-2.71485-2.52355,2.82409,2.82409,0,0,1,3.09438-2.87141,3.28107,3.28107,0,0,1,1.8098.487,4.02089,4.02089,0,0,1,1.57633,3.64648c0,3.89449-2.70522,4.13286-3.37644,4.13286a2.93328,2.93328,0,0,1-3.02622-2.17566Zm-.18507-3.29854a1.45591,1.45591,0,0,0,2.88024,0,1.44751,1.44751,0,0,0-2.88024,0Z"/><path class="q" d="M124.72445,186.76172h1.88765v1.28148h-1.88765v1.19248h3.13322v1.30139h-3.13322v1.93782h-1.50812v-1.93782h-4.262v-1.30139H120.443v-2.474h2.77331V185.689H121.173a9.17389,9.17389,0,0,1-1.24551,1.639,3.73919,3.73919,0,0,0-1.29427-.75508,8.34648,8.34648,0,0,0,2.12118-3.28885l1.43028.47729c.05846.01944.11692.04963.11692.109,0,.12946-.13631.13916-.292.14938-.04847.12888-.09724.23838-.1363.33765h5.58539V185.689h-2.73424Zm-1.50812,1.28148h-1.24551v1.19248h1.24551Z"/><path class="q" d="M131.49012,191.72956v-5.087h-1.66387v-1.3014c.983-.03019,1.68326-.199,2.0434-1.44055h1.43057v7.829Z"/><path class="q" d="M141.85514,191.72956h-6.539c.1263-1.73885,1.08011-2.454,3.1429-3.88486,1.56658-1.09268,1.56658-1.32136,1.56658-1.73879,0-.7448-.77845-.93355-1.28429-.93355-1.31365,0-1.45.95352-1.48879,1.59905h-1.80011a3.03244,3.03244,0,0,1,.60307-1.97659,3.26778,3.26778,0,0,1,2.69553-1.11323c2.22811,0,3.03592,1.25181,3.03592,2.39465a2.38433,2.38433,0,0,1-.42829,1.36131,14.27328,14.27328,0,0,1-2.55916,2.05648,5.37732,5.37732,0,0,0-.9923.7653h4.0479Z"/><path class="q" d="M145.6131,189.2459a4.94762,4.94762,0,0,1-1.91679,3.27863,4.43951,4.43951,0,0,0-1.21643-1.04363,4.476,4.476,0,0,0,1.76134-4.093v-3.76561h6.091v7.36186c0,1.07329-.25263,1.50041-2.189,1.42117a4.603,4.603,0,0,0-.48645-1.6293,5.40346,5.40346,0,0,0,.79783.10891c.33076,0,.35015-.20871.35015-.56628V189.2459Zm3.19161-3.51753v-.70545h-3.08445v.70545Zm0,2.08673v-.71573h-3.08445v.71573Z"/><path class="q" d="M154.71433,188.22225v-1.21187h.48645c.18477,0,1.343-.1095,1.343-.974,0-.82469-.86627-.82469-1.15826-.82469-.74936,0-1.27459.11919-1.294.98376h-1.8198c.21386-1.86767,1.49814-2.51384,3.18163-2.51384,1.81979,0,2.8612.85488,2.8612,2.12661a1.66469,1.66469,0,0,1-1.1874,1.68863,1.84651,1.84651,0,0,1,1.38186,1.86832c0,1.76846-1.53755,2.58281-3.2889,2.58281a2.86746,2.86746,0,0,1-3.201-2.83147h1.8289a1.24288,1.24288,0,0,0,1.3915,1.34128c.18535,0,1.44-.02961,1.44-1.11259,0-.6359-.438-1.12293-1.3915-1.12293Z"/><path class="q" d="M161.3913,191.72956v-5.087h-1.66411v-1.3014c.98319-.03019,1.68349-.199,2.04393-1.44055h1.43027v7.829Z"/><path class="q" d="M168.08765,191.53106v.54637h-1.52722v-8.10724h6.9769v8.10724h-1.52839v-.54637Zm3.92129-4.52068v-1.65955h-3.92129v1.65955Zm0,3.09952v-1.75819h-3.92129v1.75819Z"/></g></g></svg>