<svg xmlns="http://www.w3.org/2000/svg" width="490.868" height="107.072" viewBox="0 0 490.868 107.072"><path d="M199.464,27.36l.528-.912a24.135,24.135,0,0,0-3.216-3.36l-2.544,3.168H182.088V20.784c1.152-.432,1.728-.816,1.728-1.1,0-.192-.24-.384-.672-.576a84.785,84.785,0,0,0,9.168-5.808l1.536-.432c.432-.1.624-.288.624-.48,0-.528-1.152-1.68-3.312-3.408l-1.968,2.208H166.584l.432,1.1h22.176a55.557,55.557,0,0,1-7.632,6.48,16.357,16.357,0,0,0-2.208-.24v7.728H161.208l.384,1.1h17.952V39.744c0,.912-.576,1.392-1.68,1.392-1.392,0-3.888-.144-7.536-.48v1.152a35.831,35.831,0,0,1,5.52,1.2,1.848,1.848,0,0,1,1.488,1.776c3.264,0,4.944-1.2,4.944-3.456V27.36Zm40.128,10.464c-.768-1.2-3.552-.912-5.088-.384a25.2,25.2,0,0,1-6.816.96c-2.544.048-5.232-.528-6.528-1.92-1.584-1.776-1.056-4.08,1.968-6.24,3.12-2.256,7.392-3.984,13.728-6.96,1.536-.72.768-2.64-.048-3.312a4.092,4.092,0,0,0-1.968-.96c-.768-.1-1.392.336-.912.912.48.624.768,1.584,0,2.016-2.832,1.44-6.1,3.024-8.928,4.752a2.822,2.822,0,0,1-1.056-2.208,45.624,45.624,0,0,1,.528-5.28,29.7,29.7,0,0,1,1.008-4.08,4.978,4.978,0,0,0,.1-3.12,9.212,9.212,0,0,0-2.016-2.736c-.624-.528-1.632-1.056-2.016-.288-.192.432.24,1.152.672,1.728a6.057,6.057,0,0,1,.672,3.216c-.048,1.392-.24,3.264-.384,4.992-.144,1.68-.528,4.32-.24,5.568a4.125,4.125,0,0,0,2.064,2.64,14.511,14.511,0,0,0-4.848,4.416,5.255,5.255,0,0,0,.24,6.1c1.392,1.728,4.752,2.4,8.016,2.448,3.264,0,7.488-.144,10.08-.432C239.16,39.5,240.312,38.976,239.592,37.824Zm5.52-20.208a1.126,1.126,0,0,0,.576-1.776,5.518,5.518,0,0,0-2.928-1.776,8.385,8.385,0,0,0-2.688-.48c-.192,0-.624,0-.768.192-.192.336,0,.72.432.912a6.7,6.7,0,0,1,2.928,2.016A2.677,2.677,0,0,0,245.112,17.616Zm-3.792,1.968a1.1,1.1,0,0,0,.672-1.728,6.156,6.156,0,0,0-2.832-1.968,8.549,8.549,0,0,0-2.64-.528c-.24-.048-.672-.048-.816.144-.192.336,0,.72.432.96a15.926,15.926,0,0,1,2.736,2.208A2.846,2.846,0,0,0,241.32,19.584ZM267.432,27.6c-.576-.576-.48-1.248.48-1.824.192-.1.336-.24.528-.336a21.615,21.615,0,0,0-.336,2.688A6.453,6.453,0,0,1,267.432,27.6Zm4.7-7.392c1.344.048,1.1.72.624,1.056a18.646,18.646,0,0,1-1.776,1.1c.144-.624.24-1.3.432-1.872a.683.683,0,0,0,.1-.288Zm14.112,8.016a19.375,19.375,0,0,0-5.232-4.56,11.326,11.326,0,0,0-2.5-1.3c-.336-.144-.816-.144-.912.1-.192.336.144.624.576.816a16.36,16.36,0,0,1,2.4,1.68,12.8,12.8,0,0,1,3.264,4.08,10.7,10.7,0,0,1,1.248,5.952,6.156,6.156,0,0,1-4.224,5.52,9.365,9.365,0,0,1-8.16-.576c-1.968-1.344-2.736-3.6-2.832-6a16.2,16.2,0,0,1,0-2.16c.384.1.816.24,1.2.336a14.563,14.563,0,0,0,4.656.384c.96-.1,1.44-.336,1.584-.768.192-.432-.288-1.3-.864-1.632a3.263,3.263,0,0,0-2.256-.384,14.453,14.453,0,0,1-4.176-.624c.1-.624.192-1.2.288-1.872q.144-1.512.432-3.024c.384-.192.816-.384,1.248-.576a43.254,43.254,0,0,0,4.08-2.112,1.786,1.786,0,0,0,1.008-2.16c-.288-.768-1.2-1.152-2.592-1.248a19.659,19.659,0,0,1-2.352-.288c.384-1.44.864-2.976,1.2-4.128.624-1.968.816-3.456,0-4.272a7.3,7.3,0,0,0-2.736-1.68c-.672-.192-1.152-.1-1.344.24s.048.72.48,1.152a5.02,5.02,0,0,1,1.008,1.776,5.728,5.728,0,0,1,.1,2.256,23.271,23.271,0,0,1-.528,2.64,11.231,11.231,0,0,1-.336,1.536,7.068,7.068,0,0,1-2.5-1.152c-.72-.624-1.1-1.536-1.872-1.248-.384.1-.336,1.2.24,2.256a4.925,4.925,0,0,0,2.736,2.208c.336.1.576.24.864.336-.24,1.056-.48,2.4-.816,4.176-.816.576-1.488,1.056-1.968,1.44a3.318,3.318,0,0,0-1.536,2.592c0,1.056.672,1.728,2.112,2.592.192.1.384.24.576.336-.048.576-.1,1.2-.1,1.776a13.035,13.035,0,0,0,1.3,7.152,7.763,7.763,0,0,0,5.376,3.456,14.091,14.091,0,0,0,6.816-.384,11.533,11.533,0,0,0,5.184-3.312,7.915,7.915,0,0,0,1.728-5.136A10.847,10.847,0,0,0,286.248,28.224Zm36.144-8.016a18.488,18.488,0,0,1-2.784,7.728,8.528,8.528,0,0,1-4.848,3.936c-1.92.624-3.552.288-4.224-1.344a11.439,11.439,0,0,1,.384-7.3,16.06,16.06,0,0,1,5.712-7.056,19.309,19.309,0,0,1,6.048-2.784A34.394,34.394,0,0,1,322.392,20.208ZM339.48,18.24a14.055,14.055,0,0,0-5.04-5.04,15.128,15.128,0,0,0-7.632-2.016,19.651,19.651,0,0,0-9.072,2.112,20.373,20.373,0,0,0-6.144,5.04,14.466,14.466,0,0,0-3.216,6.672A10.352,10.352,0,0,0,309,32.16c1.056,2.352,2.688,3.648,4.9,3.648,2.256,0,4.464-1.632,6.288-4.032a21.261,21.261,0,0,0,3.36-8.448,31.774,31.774,0,0,0,.72-6.576c-.048-1.2-.048-2.736-.144-3.7.432-.048.864-.144,1.248-.192a13.574,13.574,0,0,1,8.352,1.776,10.021,10.021,0,0,1,4.224,5.952,16.942,16.942,0,0,1,.624,7.92,10.921,10.921,0,0,1-4.128,6.816,21.122,21.122,0,0,1-5.856,2.832,23.824,23.824,0,0,1-5.76.816,23.357,23.357,0,0,1-2.544-.144c-.384-.048-.672.144-.672.384-.048.24.192.432.672.48a20.641,20.641,0,0,0,7.728-.048,22.2,22.2,0,0,0,7.92-2.88,10.63,10.63,0,0,0,4.656-6.048,18.448,18.448,0,0,0,.624-6.624A12.78,12.78,0,0,0,339.48,18.24Zm14.4,6.048.528,1.1h15.408A47.287,47.287,0,0,1,353.3,42.048l.72.96a45.651,45.651,0,0,0,17.04-14.736V45.12h2.592V26.784a43.457,43.457,0,0,0,16.032,14.832,8.712,8.712,0,0,1,2.256-2.544,46.356,46.356,0,0,1-17.856-13.68h16.7l.528-.864a18.411,18.411,0,0,0-3.12-3.312l-2.448,3.072h-12.1V16.272H387.48l.48-.864-.384-.432a29.257,29.257,0,0,0-2.592-2.736l-2.112,2.928h-9.216V9.408c1.3-.48,1.968-.912,1.968-1.3,0-.528-1.536-.912-4.56-1.152v8.208h-14.4l.528,1.1h13.872v8.016Zm72.336,1.3a38.409,38.409,0,0,0,4.944-7.008c1.248-.1,1.872-.288,1.872-.672,0-.576-1.3-1.344-3.936-2.352a44.222,44.222,0,0,1-3.84,9.5Zm-18.864-8.64a16.068,16.068,0,0,1,3.5,6.432c.336,1.152.768,1.68,1.44,1.68,1.1,0,1.584-.528,1.584-1.728,0-2.4-1.968-4.8-5.9-7.008Zm-6.432,9.792.48,1.1h16.272a43.353,43.353,0,0,1-16.8,13.632l.576.96a42.508,42.508,0,0,0,17.52-12V45.12h2.592V29.136a46.162,46.162,0,0,0,16.56,12.672,7.683,7.683,0,0,1,2.16-2.736,45.7,45.7,0,0,1-18.048-10.944l-.288-.288H439.9l.528-.864a26.8,26.8,0,0,0-3.12-3.12l-2.208,2.88H421.56V14.592h15.888l.528-.864a17.467,17.467,0,0,0-2.928-3.024l-2.16,2.832H421.56V8.688c1.248-.432,1.872-.864,1.872-1.2q0-1.008-4.464-1.152v7.2h-15.5l.48,1.056h15.024V26.736Zm65.472-6.528a18.488,18.488,0,0,1-2.784,7.728,8.528,8.528,0,0,1-4.848,3.936c-1.92.624-3.552.288-4.224-1.344a11.439,11.439,0,0,1,.384-7.3,16.06,16.06,0,0,1,5.712-7.056,19.309,19.309,0,0,1,6.048-2.784A34.394,34.394,0,0,1,466.392,20.208ZM483.48,18.24a14.055,14.055,0,0,0-5.04-5.04,15.128,15.128,0,0,0-7.632-2.016,19.651,19.651,0,0,0-9.072,2.112,20.373,20.373,0,0,0-6.144,5.04,14.466,14.466,0,0,0-3.216,6.672A10.352,10.352,0,0,0,453,32.16c1.056,2.352,2.688,3.648,4.9,3.648,2.256,0,4.464-1.632,6.288-4.032a21.261,21.261,0,0,0,3.36-8.448,31.774,31.774,0,0,0,.72-6.576c-.048-1.2-.048-2.736-.144-3.7.432-.048.864-.144,1.248-.192a13.574,13.574,0,0,1,8.352,1.776,10.021,10.021,0,0,1,4.224,5.952,16.942,16.942,0,0,1,.624,7.92,10.921,10.921,0,0,1-4.128,6.816,21.122,21.122,0,0,1-5.856,2.832,23.824,23.824,0,0,1-5.76.816,23.357,23.357,0,0,1-2.544-.144c-.384-.048-.672.144-.672.384-.048.24.192.432.672.48a20.641,20.641,0,0,0,7.728-.048,22.2,22.2,0,0,0,7.92-2.88,10.63,10.63,0,0,0,4.656-6.048,18.448,18.448,0,0,0,.624-6.624A12.78,12.78,0,0,0,483.48,18.24Zm45.744,20.5a28.322,28.322,0,0,0-3.648.48,14.272,14.272,0,0,1-4.032-.144,6.08,6.08,0,0,1-3.7-2.256c-.672-.912-.768-2.4-.192-4.368a18.445,18.445,0,0,1,1.536-3.6c.288-.432.384-.816.192-.912-.192-.144-.48.1-.768.48a17.606,17.606,0,0,0-1.824,3.456c-.864,1.968-1.536,3.888-.576,6,.96,2.064,2.448,3.264,5.952,3.84a31.759,31.759,0,0,0,8.064.24c1.2-.1,2.208-1.008,1.632-1.92A3.042,3.042,0,0,0,529.224,38.736Zm-4.656-17.52a17.744,17.744,0,0,0-2.4,1.776A16.282,16.282,0,0,0,520.2,25.44c-.24.384-.384.864-.144.96.192.144.528-.432.816-.768a6.5,6.5,0,0,1,1.968-1.584,27.648,27.648,0,0,1,2.928-1.584c.96-.432,1.824-.768,2.112-.912a1.677,1.677,0,0,0,1.1-.96,1.709,1.709,0,0,0-.864-1.872,4.79,4.79,0,0,0-2.832-.72,10.187,10.187,0,0,0-3.024.24,32.362,32.362,0,0,0-3.7,1.056c-.528.192-1.392.624-1.1,1.152.144.24.912.144,1.44,0a14.251,14.251,0,0,1,2.208-.48,9.992,9.992,0,0,1,3.216.048c.432.048,1.056.24,1.1.48C525.48,20.688,525.048,20.88,524.568,21.216ZM513.432,16.08c.24.24.336.624,0,.768a11.093,11.093,0,0,1-1.728.912c.144-.624.288-1.152.336-1.44.1-.24.144-.576.24-.912A8.152,8.152,0,0,1,513.432,16.08Zm-8.88,15.792c-.768,1.68-1.488,3.168-2.016,4.512-.576,1.3-1.3,2.4-1.3,3.168s0,1.92.72,2.352a1.19,1.19,0,0,0,1.776-.432,72.921,72.921,0,0,0,2.88-7.1c.624-1.92,1.872-5.856,2.208-7.008s1.44-4.272,1.776-5.52c.1-.384.24-.816.384-1.392.768-.1,1.488-.24,2.16-.384a9.478,9.478,0,0,0,3.936-2.112c.72-.768.864-1.248.576-1.728-.24-.48-1.056-.72-1.968-.912a14.575,14.575,0,0,1-3.12-1.152,4.3,4.3,0,0,0,0-2.208A3.56,3.56,0,0,0,511.032,9.6c-.672-.432-1.44-.672-1.92-.336-.528.384-.192,1.248.192,1.824a6.52,6.52,0,0,1,.96,2.88,17.208,17.208,0,0,1-.528,4.56,12.271,12.271,0,0,1-3.456.624,6.317,6.317,0,0,1-2.16-.144,6.7,6.7,0,0,1-1.248-.48c-.288-.144-.624-.24-.816,0-.288.336-.048,1.248.864,1.632a11.609,11.609,0,0,0,4.368.576c.528,0,1.152-.048,1.776-.1a47.763,47.763,0,0,1-1.776,5.04C506.712,27.024,505.32,30.1,504.552,31.872ZM551.3,25.92a12.755,12.755,0,0,1,3.12-4.368c.48,1.68.768,3.12,1.2,4.272a8.489,8.489,0,0,0,2.688,3.6c.528.384,1.056.72,1.488,1.008a11.56,11.56,0,0,1-1.056,1.776,5.832,5.832,0,0,1-4.032,2.544,3.424,3.424,0,0,1-3.744-2.4A9.411,9.411,0,0,1,551.3,25.92Zm13.3-8.4c-.144.336-.24.768-.384,1.2-.816,2.544-1.44,4.416-2.352,6.864-.24.672-.528,1.392-.768,2.016a2.827,2.827,0,0,1-1.056-.624,10.5,10.5,0,0,1-2.064-3.456,20.406,20.406,0,0,0-1.632-3.408,5.711,5.711,0,0,1,.72-.432A18.451,18.451,0,0,1,564.6,17.52ZM551.832,38.064a4.742,4.742,0,0,0,5.136.1,12.686,12.686,0,0,0,3.84-4.56c.384-.72.816-1.584,1.2-2.5a2.72,2.72,0,0,0,1.3-1.344,6.04,6.04,0,0,0,.72-2.832,4.659,4.659,0,0,0-.048-.816,39.4,39.4,0,0,0,1.344-4.176c.432-1.68.864-3.072,1.248-4.512a11.5,11.5,0,0,1,8.736,3.648,11.245,11.245,0,0,1,1.968,9.792A11.657,11.657,0,0,1,571.7,38.88a14.474,14.474,0,0,1-5.568,2.16c-1.2.24-2.16.432-2.688.528-.48.1-.768.192-.768.432s.384.336,1.056.336a20.4,20.4,0,0,0,3.84-.384,16.8,16.8,0,0,0,5.04-1.584,15.2,15.2,0,0,0,4.608-3.7,15.368,15.368,0,0,0,2.928-5.472,12.307,12.307,0,0,0,.048-6.336,11.112,11.112,0,0,0-2.88-5.136,12.286,12.286,0,0,0-5.52-3.312,16.386,16.386,0,0,0-4.752-.768,10.012,10.012,0,0,0,.24-4.368,3.243,3.243,0,0,0-1.728-2.016c-.528-.288-1.776-.624-2.064-.192-.24.432.144,1.152.432,1.68a8.461,8.461,0,0,1,1.1,2.928,6.291,6.291,0,0,1-.1,2.064,22.566,22.566,0,0,0-6.1,1.152,14.824,14.824,0,0,0-3.264,1.632,26,26,0,0,0-1.824-2.928,7.9,7.9,0,0,0-1.536-1.68c-.576-.48-1.248-.672-1.584-.192-.432.432.048,1.152.576,1.584a5.946,5.946,0,0,1,1.536,2.064c.336.672.72,1.536,1.1,2.5-.288.288-.576.528-.816.816a15.572,15.572,0,0,0-3.7,5.808,14.36,14.36,0,0,0-.528,6.432A7.165,7.165,0,0,0,551.832,38.064Zm59.136-5.328c-.384.192-.192.96.432,1.68a11.123,11.123,0,0,0,3.264,2.5,16.5,16.5,0,0,0,5.088,1.3,19.9,19.9,0,0,0,5.616-.336c1.68-.432,2.976-1.2,2.592-2.112-.336-.96-1.44-1.1-2.5-1.152-1.008,0-2.928.672-5.04.816a13.74,13.74,0,0,1-5.184-.384,10.068,10.068,0,0,1-2.688-1.44C612.024,33.216,611.5,32.4,610.968,32.736ZM617.16,16.08a13.5,13.5,0,0,0,5.28-.48c1.392-.48,1.968-1.44,1.584-2.112-.336-.624-1.488-.672-2.592-.288a15.611,15.611,0,0,1-4.176.912,12.579,12.579,0,0,1-3.888-.288c-1.056-.336-1.68-.432-1.872,0s.384.816,1.056,1.1A15.843,15.843,0,0,0,617.16,16.08ZM597.48,34.7c.384,2.736.96,4.032,1.632,4.944.672.96,1.68,1.632,2.448,1.3.768-.288.816-1.968.432-3.216a15.344,15.344,0,0,1-.96-5.376,11.227,11.227,0,0,1,1.056-4.7c.24-.384.336-.768.048-.96-.288-.144-.576.1-.912.528a17.5,17.5,0,0,0-1.536,2.592c-.192.432-.336.912-.576.912-.192,0-.24-.576-.192-1.392a26.358,26.358,0,0,1,.384-3.408,29.627,29.627,0,0,1,.96-4.08c.384-1.3,1.1-3.168,1.44-4.08a9.247,9.247,0,0,0,.72-3.6,5.655,5.655,0,0,0-1.3-3.024c-.672-.672-1.632-1.2-2.16-.816-.384.336-.048,1.1.384,1.68a6.178,6.178,0,0,1,.384,3.744c-.288,1.536-.72,2.688-1.248,5.232a57.781,57.781,0,0,0-1.152,6.48A28.588,28.588,0,0,0,597.48,34.7ZM143.4,97.28l.432,1.1H164.52A71.6,71.6,0,0,1,157.7,112.3l2.448,1.008a90.04,90.04,0,0,0,6.912-13.968l1.056-.624c.336-.192.48-.384.48-.576,0-.384-.864-1.3-2.592-2.832l-1.824,1.968Zm4.944-7.344.432,1.1h15.7l.48-.864a40.957,40.957,0,0,0-2.976-2.832l-2.208,2.592Zm9.12-13.3c1.1-.24,1.728-.528,1.728-.96,0-.48-1.248-.96-3.7-1.392A43.446,43.446,0,0,1,137.16,93.632l.624.96a43.494,43.494,0,0,0,18.96-16.752c3.7,5.76,9.5,10.9,17.28,15.36a6.538,6.538,0,0,1,2.16-2.592A45.754,45.754,0,0,1,157.464,76.64Zm63.888,12.1a1.139,1.139,0,0,0,.624-1.776,5.911,5.911,0,0,0-2.928-1.776,7.171,7.171,0,0,0-2.64-.432c-.288,0-.672-.1-.816.192-.192.288,0,.72.432.912A7.482,7.482,0,0,1,219,87.824,2.48,2.48,0,0,0,221.352,88.736Zm-3.744,2.016a1.156,1.156,0,0,0,.672-1.728,5.466,5.466,0,0,0-2.88-1.968,8.813,8.813,0,0,0-2.592-.576c-.24-.048-.672-.048-.816.144-.24.336,0,.672.384.96a16.488,16.488,0,0,1,2.784,2.256A2.992,2.992,0,0,0,217.608,90.752Zm-23.9-2.976A20.7,20.7,0,0,0,198.7,86.24c1.488-.576,4.32-1.776,6.1-2.448a18.417,18.417,0,0,1,2.5-.768,19,19,0,0,0-2.3,1.968,8.072,8.072,0,0,0-2.112,3.888,58.1,58.1,0,0,0-1.1,5.808,25.46,25.46,0,0,0,.1,6.912c.336,2.064.912,3.408,2.16,4.416a8.906,8.906,0,0,0,5.184,1.872,29.7,29.7,0,0,0,4.656,0c1.008-.1,1.44-.816,1.056-1.392a3.716,3.716,0,0,0-1.968-1.392,12.033,12.033,0,0,0-3.408-.1,5.566,5.566,0,0,1-3.888-.96,4.925,4.925,0,0,1-1.872-3.6,27.68,27.68,0,0,1,.144-7.584,22.983,22.983,0,0,1,1.008-4.9,9.859,9.859,0,0,1,2.688-3.6c.816-.72,1.824-1.44,2.448-1.968.144,0,.24-.048.336-.048a47.563,47.563,0,0,1,5.328-.576,28.366,28.366,0,0,1,2.88.384c.768.144,1.344.144,1.68-.432.288-.576-.192-1.44-.96-1.92a7.469,7.469,0,0,0-4.272-.432c-1.536.24-4.848,1.056-7.728,1.824-2.976.768-6.288,1.824-7.776,2.256a25.844,25.844,0,0,1-5.712,1.344,6.132,6.132,0,0,1-2.832-.48c-.624-.24-1.44-.576-1.824-.1-.48.528.048,1.68.672,2.3A4.666,4.666,0,0,0,193.7,87.776Zm61.584-2.5c.72.288,2.5,1.008,3.456,1.344.912.336,1.776.576,1.872.816.1.288-.624.672-1.1.912a35.791,35.791,0,0,1-3.744,1.536c-.768-1.632-1.632-3.792-2.064-4.7a1.677,1.677,0,0,0-.24-.624h.1C254.088,84.8,254.856,85.136,255.288,85.28Zm-9.408-7.2a12.083,12.083,0,0,1,2.16,1.44,7.62,7.62,0,0,1,2.112,2.544c.1.192.192.528.432.96a12.987,12.987,0,0,1-3.792.768,7.587,7.587,0,0,1-2.64-.48c-.528-.288-1.1-.384-1.344-.048-.336.432-.144.912.624,1.248a10.517,10.517,0,0,0,3.36.912,17.125,17.125,0,0,0,4.7-.384c.144.432.336.864.528,1.3.576,1.248,1.2,2.736,1.824,4.176a30.608,30.608,0,0,1-3.456.912,18.3,18.3,0,0,1-4.8.288,9.4,9.4,0,0,1-3.984-1.44c-.384-.288-.864-.624-1.248-.288a1.178,1.178,0,0,0,.384,1.392,8.1,8.1,0,0,0,2.688,1.488,12.829,12.829,0,0,0,4.272.72,22.5,22.5,0,0,0,5.184-.816c.432-.144,1.056-.24,1.68-.432.72,1.776,1.68,4.272,1.872,4.944.24.816.576,1.728.24,2.016-.432.336-.816.048-1.2-.1a20.369,20.369,0,0,0-4.224-.624,16.949,16.949,0,0,0-5.808.72,5.646,5.646,0,0,0-3.84,3.312,5.8,5.8,0,0,0,.864,5.328c1.152,1.344,3.552,2.256,6,2.64a31.785,31.785,0,0,0,7.008.144c1.68-.144,2.448-.432,2.784-.816s.24-1.2-.624-1.776a3.687,3.687,0,0,0-2.592-.624c-.912.144-2.688.432-3.984.528a17.2,17.2,0,0,1-5.04-.48c-1.632-.528-2.688-1.2-3.072-2.592a3.331,3.331,0,0,1,1.44-3.648,10.025,10.025,0,0,1,5.808-1.2,9,9,0,0,1,4.56,1.44c1.344.816,2.5,1.248,3.36.96a2.9,2.9,0,0,0,1.92-1.728,4.644,4.644,0,0,0-.624-2.688c-.336-.816-1.968-4.464-2.784-6.336.864-.24,1.728-.528,2.592-.816a19.732,19.732,0,0,0,4.992-2.3c1.056-.816,1.1-1.968-.048-2.3a28.245,28.245,0,0,0-3.888-.864c-1.152-.192-4.032-.816-4.608-.96-.288-.1-.624-.192-.96-.336a10.063,10.063,0,0,0,2.448-1.1c.816-.528,1.344-1.344.192-1.824a3.172,3.172,0,0,0-2.736,0c-.432.192-1.2.576-2.112.96-.288-.816-.624-1.536-.864-2.064-.576-1.152-1.152-2.352-2.256-2.832a8.975,8.975,0,0,0-2.88-.864c-.48-.048-1.1-.192-1.344.192C244.968,77.072,245.064,77.7,245.88,78.08Zm68.736,20.88a7.976,7.976,0,0,0-3.5-6,12.616,12.616,0,0,0-6.336-2.3,13.841,13.841,0,0,0-6.288.816,10.184,10.184,0,0,0-2.64,1.344c2.256-2.352,3.408-3.6,3.408-3.6,1.152-1.248,2.736-3.216,4.032-4.56a22.908,22.908,0,0,1,3.408-2.928c.672-.432.912-.672,1.008-1.1s.048-.864-.576-1.536a3.353,3.353,0,0,0-2.544-1.248c-.912.048-1.92.672-3.552,1.536s-3.552,1.776-4.992,2.352a5.456,5.456,0,0,1-2.688.672,7.138,7.138,0,0,1-1.632-.288.767.767,0,0,0-1.056.384,1.686,1.686,0,0,0,.528,1.536,3.673,3.673,0,0,0,2.5,1.056,7.444,7.444,0,0,0,3.6-1.056c1.344-.768,3.7-2.16,4.224-2.5.48-.288,1.3-.624,1.536-.384.24.192,0,.72-.528,1.392-.528.72-3.84,4.7-4.848,5.952-1.056,1.2-3.648,4.368-5.28,6.144s-2.88,3.552-3.792,4.7c-.864,1.1-2.064,2.64-2.112,3.264a2.674,2.674,0,0,0,.528,2.112,1.3,1.3,0,0,0,1.584.24,3.473,3.473,0,0,0,1.44-2.256,19.288,19.288,0,0,1,2.88-5.376A12.079,12.079,0,0,1,299.3,92.96a11.882,11.882,0,0,1,8.544.288,7.049,7.049,0,0,1,4.272,6.1,7.493,7.493,0,0,1-2.736,5.9,11.879,11.879,0,0,1-6,2.208,2.42,2.42,0,0,0-.624-3.312,6.009,6.009,0,0,0-4.992-.912c-1.584.288-3.456,1.44-3.408,2.88,0,1.44,1.152,2.448,4.08,3.072a16.546,16.546,0,0,0,7.68-.048,12.221,12.221,0,0,0,6.384-3.792A7.79,7.79,0,0,0,314.616,98.96Zm-14.16,8.592c-2.016-.048-3.216-.528-3.6-1.056-.672-.96.288-1.872,1.824-1.92C300.648,104.576,302.328,105.872,300.456,107.552Zm37.152-7.248c-.144-.432-.384-1.008-.816-.96-.288,0-.48.576-.336,1.488a5.655,5.655,0,0,0,1.3,2.928,12.039,12.039,0,0,0,4.656,2.4,30.92,30.92,0,0,0,8.16,1.392,28.294,28.294,0,0,0,8.16-.816c1.872-.576,2.208-1.152,2.112-1.68a2.769,2.769,0,0,0-1.488-1.344,3.471,3.471,0,0,0-2.688,0,26.663,26.663,0,0,1-5.568,1.3A26.343,26.343,0,0,1,343.08,104a11.71,11.71,0,0,1-4.464-2.16A3.958,3.958,0,0,1,337.608,100.3Zm12.048-15.936c-.192.24-.288.528,0,.768.192.144.528.144,1.1-.288.528-.384,1.488-1.008,2.064-1.44a9.317,9.317,0,0,1,1.536-1.1c.816-.432,1.584-.72,1.344-1.584-.192-.816-.624-1.152-1.776-1.056s-3.072.816-4.512,1.056a25.592,25.592,0,0,1-3.744.432,9.713,9.713,0,0,1-2.688-.384c-.576-.24-1.152-.384-1.536.048-.288.288.192,1.008,1.152,1.344a37.051,37.051,0,0,0,4.32.816c1.68.24,2.736.384,3.792.432A12.123,12.123,0,0,1,349.656,84.368Zm57.936,21.456c-.768-1.2-3.552-.912-5.088-.384a25.2,25.2,0,0,1-6.816.96c-2.544.048-5.232-.528-6.528-1.92-1.584-1.776-1.056-4.08,1.968-6.24,3.12-2.256,7.392-3.984,13.728-6.96,1.536-.72.768-2.64-.048-3.312a4.092,4.092,0,0,0-1.968-.96c-.768-.1-1.392.336-.912.912.48.624.768,1.584,0,2.016-2.832,1.44-6.1,3.024-8.928,4.752a2.822,2.822,0,0,1-1.056-2.208,45.624,45.624,0,0,1,.528-5.28,29.7,29.7,0,0,1,1.008-4.08,4.979,4.979,0,0,0,.1-3.12,9.211,9.211,0,0,0-2.016-2.736c-.624-.528-1.632-1.056-2.016-.288-.192.432.24,1.152.672,1.728a6.057,6.057,0,0,1,.672,3.216c-.048,1.392-.24,3.264-.384,4.992-.144,1.68-.528,4.32-.24,5.568a4.125,4.125,0,0,0,2.064,2.64,14.51,14.51,0,0,0-4.848,4.416,5.255,5.255,0,0,0,.24,6.1c1.392,1.728,4.752,2.4,8.016,2.448,3.264,0,7.488-.144,10.08-.432C407.16,107.5,408.312,106.976,407.592,105.824Zm46.752-14.592a68.487,68.487,0,0,1-6.288,3.024c-.432.192-.816.432-1.248.576-.1-.24-.24-.576-.384-.864a10.82,10.82,0,0,1,2.592-3.984,8.658,8.658,0,0,1,4.032-2.3c1.68-.384,2.688.048,2.976.576C456.36,88.832,456.36,90.176,454.344,91.232Zm-10.752-12a3.342,3.342,0,0,0-.24-1.2c.144.048.336.048.528.1.672.1,1.008.24,1.152.432.144.144-.1.624-.816,1.008-.192.1-.384.192-.624.336A1.568,1.568,0,0,0,443.592,79.232Zm14.016,7.824c-1.68-1.2-4.416-.912-6.576.1a12.948,12.948,0,0,0-5.136,4.32,4.846,4.846,0,0,0-.624.768,3.744,3.744,0,0,0-2.544-1.44,5.407,5.407,0,0,0-3.264.288c-.288.1-.72.288-1.1.432a6.254,6.254,0,0,0,.48-.72,51.285,51.285,0,0,0,2.928-5.04,14.2,14.2,0,0,0,1.152-2.736,3.635,3.635,0,0,0,.864-.432,7.952,7.952,0,0,0,2.544-2.784c.384-.768.624-1.2.192-1.536a4.825,4.825,0,0,0-1.776-.576c-.288-.048-1.1-.24-1.776-.336a1.672,1.672,0,0,0-.672-.624,1.654,1.654,0,0,0-1.824-.048,1.381,1.381,0,0,0,.288,1.728,2.2,2.2,0,0,1,.624,2.3l-.72.144a7.084,7.084,0,0,1-3.792-.1c-1.056-.384-1.872-.912-2.448-.144a2.358,2.358,0,0,0,.912,2.736,6.7,6.7,0,0,0,3.984.624l1.152-.144a19.334,19.334,0,0,1-1.488,3.072c-1.44,2.448-3.12,4.848-4.992,6.144a23.132,23.132,0,0,1-2.448,1.392,2.641,2.641,0,0,0-1.008,2.112c0,.864.1,1.488,1.152,1.536,1.056,0,2.352-.864,3.5-2.5.576-.816,1.2-1.536,1.824-2.352a5,5,0,0,1,.864-.48,5.4,5.4,0,0,1,3.072-.48,4.506,4.506,0,0,1,3.072,1.728,3.278,3.278,0,0,1,.624,1.92c-.912.432-1.824.912-2.64,1.344A20.9,20.9,0,0,0,437.5,100.5a5.857,5.857,0,0,0-2.064,4.176,4.487,4.487,0,0,0,2.064,4.32,14.021,14.021,0,0,0,6.432,1.776,49.81,49.81,0,0,0,6.912-.432,7.549,7.549,0,0,0,2.592-.528c.72-.336.72-1.152-.048-1.728a3.754,3.754,0,0,0-2.928-.768,27.887,27.887,0,0,0-3.216.624,32.516,32.516,0,0,1-4.512.48,6.059,6.059,0,0,1-4.7-2.112c-.912-1.344-.288-3.12.528-4.272a10.424,10.424,0,0,1,3.84-3.12,19.784,19.784,0,0,1,2.256-1.056v.288a18.747,18.747,0,0,1-.72,4.416c-.288.96.1,1.728,1.1,1.632A2.607,2.607,0,0,0,447,102.608a7.416,7.416,0,0,0,.576-4.176c-.048-.576-.144-1.152-.192-1.68.528-.24,1.056-.48,1.536-.672,1.824-.768,4.176-1.536,5.568-2.256a11.3,11.3,0,0,0,3.552-2.688A2.807,2.807,0,0,0,457.608,87.056Zm33.12.576v-6h9.312c-1.872,2.112-3.792,4.08-5.76,6Zm-5.28,9.024c-.672,2.592-1.488,5.232-2.5,7.968l2.448.72c.528-1.488,1.008-2.976,1.488-4.608h15.648a21.824,21.824,0,0,1-1.536,7.1,3.014,3.014,0,0,1-3.024,1.584,51.8,51.8,0,0,1-7.3-.768v1.152c2.544.528,4.32.96,5.184,1.248a2.242,2.242,0,0,1,1.728,2.016,6,6,0,0,0,3.84-1.1c1.776-1.392,2.88-4.752,3.456-10.272l1.248-.72c.192-.144.336-.288.336-.48,0-.432-.912-1.344-2.736-2.688L502.2,99.68H487.224c.1-.336.288-1.2.672-2.64l.144-.624a108.419,108.419,0,0,0,15.84-2.3,10.7,10.7,0,0,0,1.728.192c.528,0,.768-.048.768-.336,0-.432-1.008-1.3-2.88-2.592a58.1,58.1,0,0,1-15.168,3.936.363.363,0,0,1,.048-.192c0-.144,0-.24.048-.288A63.7,63.7,0,0,0,496.68,88.5h14.928l.384-.864a30.431,30.431,0,0,0-2.88-3.216l-2.16,2.976h-9.12a101.936,101.936,0,0,0,8.3-9.024,6.27,6.27,0,0,0,1.1.144c.672,0,1.008-.192,1.008-.48,0-.576-1.2-1.488-3.456-2.784-1.392,2.064-2.688,3.84-3.888,5.376a21.651,21.651,0,0,0-2.5-2.64l-1.968,2.544h-5.472V76.5c1.2-.384,1.824-.816,1.824-1.2,0-.576-1.44-.912-4.32-.96v6.192H477.624l.48,1.1H488.28v6H473.112l.528,1.056h19.44a42.06,42.06,0,0,1-4.608,3.744l-.24.144q-.792-.432-1.728-.864c-.144.576-.24,1.344-.48,2.4a88.639,88.639,0,0,1-12.96,7.056l.624,1.056A102.379,102.379,0,0,0,485.448,96.656Zm43.248-8.3c-.432.288-.288,1.392.24,2.208a3.854,3.854,0,0,0,2.928,2.064,7.578,7.578,0,0,0,4.128-1.392,16.6,16.6,0,0,1,4.32-1.728c1.056-.192,1.968-.1,2.16.336.288.624-.432,1.584-1.68,2.448-1.2.864-3.888,2.688-5.52,3.984a44.849,44.849,0,0,0-6.48,6.624c-1.536,2.16-2.544,3.84-2.544,5.184.048,1.344.72,2.064,1.44,2.064s1.584-.432,1.728-1.968a11.384,11.384,0,0,1,1.632-4.8,9.155,9.155,0,0,1,3.36-2.64,26.033,26.033,0,0,1,4.416-1.248c1.392-.192,2.544-.24,3.072.384a5.427,5.427,0,0,1,.816,3.456c.048,1.536.048,3.6.576,4.656.528,1.008,1.392,1.536,3.024,1.776a33.784,33.784,0,0,0,5.76.144,4.891,4.891,0,0,0,2.736-.528c.528-.432-.192-1.392-.672-1.872a3.251,3.251,0,0,0-2.592-.768c-1.008.144-3.024.672-4.272.72a3.08,3.08,0,0,1-2.88-1.968,30,30,0,0,1,0-4.176,3.6,3.6,0,0,0-1.44-3.12c-.72-.432-2.352-.24-4.176.24-1.872.48-2.544.528-2.688.192-.048-.288.48-1.056,1.68-1.92,1.152-.864,3.312-2.352,5.04-3.456a34.169,34.169,0,0,0,3.84-2.4c.624-.576.384-2.016-.816-2.784s-3.6-.768-5.76-.1S535.7,89.5,534.7,89.744a5.2,5.2,0,0,1-2.736,0,5.063,5.063,0,0,1-1.632-1.1A1.278,1.278,0,0,0,528.7,88.352Zm8.592-11.28c-.192.288,0,.768.384,1.1a10.409,10.409,0,0,1,1.44,1.632c.432.624,1.1,1.392.72,1.536a4.433,4.433,0,0,0-1.344.912c-.768.72-1.2,1.2-.912,1.44.288.288,1.392-.336,1.872-.528.48-.144.912-.336,1.152-.384.24,0,.576,0,.672.1a1.746,1.746,0,0,0,1.68-.048c.672-.384.528-1.536,0-2.4a9.092,9.092,0,0,0-1.92-2.112,7.036,7.036,0,0,0-2.4-1.2C538.056,76.976,537.432,76.832,537.288,77.072ZM602.616,98.96a7.976,7.976,0,0,0-3.5-6,12.616,12.616,0,0,0-6.336-2.3,13.841,13.841,0,0,0-6.288.816,10.184,10.184,0,0,0-2.64,1.344c2.256-2.352,3.408-3.6,3.408-3.6,1.152-1.248,2.736-3.216,4.032-4.56a22.908,22.908,0,0,1,3.408-2.928c.672-.432.912-.672,1.008-1.1s.048-.864-.576-1.536a3.353,3.353,0,0,0-2.544-1.248c-.912.048-1.92.672-3.552,1.536s-3.552,1.776-4.992,2.352a5.455,5.455,0,0,1-2.688.672,7.139,7.139,0,0,1-1.632-.288.767.767,0,0,0-1.056.384,1.686,1.686,0,0,0,.528,1.536,3.673,3.673,0,0,0,2.5,1.056,7.444,7.444,0,0,0,3.6-1.056c1.344-.768,3.7-2.16,4.224-2.5.48-.288,1.3-.624,1.536-.384.24.192,0,.72-.528,1.392-.528.72-3.84,4.7-4.848,5.952-1.056,1.2-3.648,4.368-5.28,6.144s-2.88,3.552-3.792,4.7c-.864,1.1-2.064,2.64-2.112,3.264a2.674,2.674,0,0,0,.528,2.112,1.3,1.3,0,0,0,1.584.24,3.473,3.473,0,0,0,1.44-2.256,19.289,19.289,0,0,1,2.88-5.376A12.079,12.079,0,0,1,587.3,92.96a11.882,11.882,0,0,1,8.544.288,7.049,7.049,0,0,1,4.272,6.1,7.493,7.493,0,0,1-2.736,5.9,11.879,11.879,0,0,1-6,2.208,2.42,2.42,0,0,0-.624-3.312,6.009,6.009,0,0,0-4.992-.912c-1.584.288-3.456,1.44-3.408,2.88,0,1.44,1.152,2.448,4.08,3.072a16.546,16.546,0,0,0,7.68-.048,12.221,12.221,0,0,0,6.384-3.792A7.79,7.79,0,0,0,602.616,98.96Zm-14.16,8.592c-2.016-.048-3.216-.528-3.6-1.056-.672-.96.288-1.872,1.824-1.92C588.648,104.576,590.328,105.872,588.456,107.552Zm33.7-3.408a3.825,3.825,0,0,1,2.256.72,3.69,3.69,0,0,1,1.632,3.168,3.912,3.912,0,0,1-1.344,2.928,3.812,3.812,0,0,1-2.544.96,3.7,3.7,0,0,1-3.264-1.824,4.133,4.133,0,0,1-.624-2.064,3.545,3.545,0,0,1,1.056-2.64A3.761,3.761,0,0,1,622.152,104.144Zm-.048-1.536a5.512,5.512,0,0,0-5.328,5.424,5.029,5.029,0,0,0,3.072,4.8,4.689,4.689,0,0,0,2.3.576,5.026,5.026,0,0,0,3.888-1.68,5.321,5.321,0,0,0,1.536-3.7,4.987,4.987,0,0,0-2.64-4.608A5.27,5.27,0,0,0,622.1,102.608Z" transform="translate(-137.16 -6.336)" fill="#008650"/></svg>